<?xml version="1.0" encoding="utf-8"?>
<!-- Generator: Adobe Illustrator 22.1.0, SVG Export Plug-In . SVG Version: 6.00 Build 0)  -->
<svg version="1.1" id="Layer_1" xmlns="http://www.w3.org/2000/svg" xmlns:xlink="http://www.w3.org/1999/xlink" x="0px" y="0px"
	 viewBox="0 0 1471.1 378.5" style="enable-background:new 0 0 1471.1 378.5;" xml:space="preserve">
<style type="text/css">
	.st0{fill:#E6E7E8;}
	.st1{fill:none;stroke:#000000;stroke-width:9.5133;stroke-linecap:round;stroke-miterlimit:10;}
	.st2{fill:none;stroke:#000000;stroke-width:20.372;stroke-linecap:round;stroke-miterlimit:10;}
</style>
<g>
	<g>
		<path d="M1152.6,324.1H797.7c-76.2,0-137.9-61.8-137.9-137.9l0,0c0-76.2,61.8-137.9,137.9-137.9h354.9
			c76.2,0,137.9,61.8,137.9,137.9l0,0C1290.5,262.3,1228.8,324.1,1152.6,324.1z"/>
		<path class="st0" d="M682.8,184.6h596.6c0.7,0,1.4,0.6,1.4,1.4l0,0c0,0.7-0.6,1.4-1.4,1.4H682.8c-0.7,0-1.4-0.6-1.4-1.4l0,0
			C681.3,185.4,682,184.6,682.8,184.6z"/>
		<path class="st0" d="M795.6,156.8H776c-22.2,0-40.3-18.2-40.3-40.3l0,0c0-22.2,18.2-40.3,40.3-40.3h19.6
			c22.2,0,40.3,18.2,40.3,40.3l0,0C835.9,138.7,817.7,156.8,795.6,156.8z"/>
		<path class="st0" d="M921.7,156.8h-19.6c-22.2,0-40.3-18.2-40.3-40.3l0,0c0-22.2,18.2-40.3,40.3-40.3h19.6
			c22.2,0,40.3,18.2,40.3,40.3l0,0C962.2,138.7,944,156.8,921.7,156.8z"/>
		<path class="st0" d="M1048,156.8h-19.6c-22.2,0-40.3-18.2-40.3-40.3l0,0c0-22.2,18.2-40.3,40.3-40.3h19.6
			c22.2,0,40.3,18.2,40.3,40.3l0,0C1088.4,138.7,1070.2,156.8,1048,156.8z"/>
		<path class="st0" d="M1174.3,156.8h-19.6c-22.2,0-40.3-18.2-40.3-40.3l0,0c0-22.2,18.2-40.3,40.3-40.3h19.6
			c22.2,0,40.3,18.2,40.3,40.3l0,0C1214.6,138.7,1196.5,156.8,1174.3,156.8z"/>
		<g>
			<rect x="1131.1" y="120.4" width="61.6" height="8.6"/>
			<path d="M1195,132.9c0,16-12.9,28.9-28.9,28.9c-16,0-28.9-12.9-28.9-28.9"/>
			<path d="M1194.7,129h-57.3c-0.1,0-0.1,0-0.1-0.1l0,0c0-14.2,11.7-25.9,25.9-25.9h5.7C1183.1,103,1194.8,114.7,1194.7,129
				L1194.7,129C1194.8,128.9,1194.8,129,1194.7,129z"/>
			<circle cx="1166.1" cy="98.4" r="8"/>
		</g>
		<g>
			<path d="M1068.5,132.9c0,16-12.9,28.9-28.9,28.9s-28.9-12.9-28.9-28.9"/>
			<rect x="987.6" y="120.4" width="104.4" height="8.6"/>
			<path d="M1068.5,125.9H1011V112c0-6.6,5.5-12.1,12.1-12.1h34.1c6.2,0,11.4,5.1,11.4,11.4L1068.5,125.9L1068.5,125.9z"/>
		</g>
		<g>
			<path d="M940.9,132.9c0,16-12.9,28.9-28.9,28.9c-16,0-28.9-12.9-28.9-28.9"/>
			<rect x="859.6" y="120.4" width="81.4" height="8.6"/>
			<path d="M940.9,125.9h-57.6V112c0-6.6,5.5-12.1,12.1-12.1h34.1c6.2,0,11.4,5.1,11.4,11.4V125.9z"/>
		</g>
		<g>
			<path d="M815.5,132.9c0,16-12.9,28.9-28.9,28.9c-16,0-28.9-12.9-28.9-28.9"/>
			<rect x="749.1" y="120.4" width="66.5" height="8.6"/>
			<path d="M815.5,125.9h-57.6V112c0-6.6,5.5-12.1,12.1-12.1h34.1c6.2,0,11.4,5.1,11.4,11.4V125.9z"/>
		</g>
		<path d="M787.2,65.2L787.2,65.2c-1.6,0-2.8-1.3-2.8-2.8V19.2c0-1.6,1.3-2.8,2.8-2.8l0,0c1.6,0,2.8,1.3,2.8,2.8v43.2
			C789.9,64,788.6,65.2,787.2,65.2z"/>
		<g>
			<circle cx="808.2" cy="25" r="14.3"/>
			<path d="M749,13.5c0-2.9,3.1-4.9,5.8-3.7c11.7,5.3,38.5,16.4,54.7,15.4c-16.7-0.2-43.1,10.4-54.7,15.5c-2.7,1.2-5.7-0.8-5.7-3.8
				V13.5H749z"/>
			<path d="M793.5,33.3L793.5,33.3c-1.7,0-3.1-1.4-3.1-3.1V19.8c0-1.7,1.4-3.1,3.1-3.1l0,0c1.7,0,3.1,1.4,3.1,3.1v10.5
				C796.5,32,795.2,33.3,793.5,33.3z"/>
		</g>
		<path d="M913.3,65.2L913.3,65.2c-1.6,0-2.8-1.3-2.8-2.8V19.2c0-1.6,1.3-2.8,2.8-2.8l0,0c1.6,0,2.8,1.3,2.8,2.8v43.2
			C916.2,64,914.9,65.2,913.3,65.2z"/>
		<g>
			<circle cx="934.5" cy="25" r="14.3"/>
			<path d="M875.2,13.5c0-2.9,3.1-4.9,5.8-3.7c11.7,5.3,38.5,16.4,54.7,15.4C919,24.9,892.6,35.5,881,40.6c-2.7,1.2-5.7-0.8-5.7-3.8
				V13.5H875.2z"/>
			<path d="M919.8,33.3L919.8,33.3c-1.7,0-3.1-1.4-3.1-3.1V19.8c0-1.7,1.4-3.1,3.1-3.1l0,0c1.7,0,3.1,1.4,3.1,3.1v10.5
				C922.7,32,921.3,33.3,919.8,33.3z"/>
		</g>
		<path d="M1039.6,65.2L1039.6,65.2c-1.6,0-2.8-1.3-2.8-2.8V19.2c0-1.6,1.3-2.8,2.8-2.8l0,0c1.6,0,2.8,1.3,2.8,2.8v43.2
			C1042.4,64,1041.2,65.2,1039.6,65.2z"/>
		<g>
			<circle cx="1060.7" cy="25" r="14.3"/>
			<path d="M1001.5,13.5c0-2.9,3.1-4.9,5.8-3.7c11.7,5.3,38.5,16.4,54.7,15.4c-16.7-0.2-43.1,10.4-54.7,15.5
				c-2.7,1.2-5.7-0.8-5.7-3.8V13.5H1001.5z"/>
			<path d="M1045.9,33.3L1045.9,33.3c-1.7,0-3.1-1.4-3.1-3.1V19.8c0-1.7,1.4-3.1,3.1-3.1l0,0c1.7,0,3.1,1.4,3.1,3.1v10.5
				C1049,32,1047.6,33.3,1045.9,33.3z"/>
		</g>
		<path d="M1165.9,65.2L1165.9,65.2c-1.6,0-2.8-1.3-2.8-2.8V19.2c0-1.6,1.3-2.8,2.8-2.8l0,0c1.6,0,2.8,1.3,2.8,2.8v43.2
			C1168.7,64,1167.4,65.2,1165.9,65.2z"/>
		<g>
			<circle cx="1186.9" cy="25" r="14.3"/>
			<path d="M1127.8,13.5c0-2.9,3.1-4.9,5.8-3.7c11.7,5.3,38.5,16.4,54.7,15.4c-16.7-0.2-43.1,10.4-54.7,15.5
				c-2.7,1.2-5.7-0.8-5.7-3.8V13.5H1127.8z"/>
			<path d="M1172.2,33.3L1172.2,33.3c-1.7,0-3.1-1.4-3.1-3.1V19.8c0-1.7,1.4-3.1,3.1-3.1l0,0c1.7,0,3.1,1.4,3.1,3.1v10.5
				C1175.2,32,1173.8,33.3,1172.2,33.3z"/>
		</g>
		<path d="M787.2,67.9L787.2,67.9c-3.7,0-6.7-3.1-6.7-6.7v-12c0-3.7,3.1-6.7,6.7-6.7l0,0c3.7,0,6.7,3.1,6.7,6.7v12
			C793.9,64.8,790.9,67.9,787.2,67.9z"/>
		<path d="M913.3,67.9L913.3,67.9c-3.7,0-6.7-3.1-6.7-6.7v-12c0-3.7,3.1-6.7,6.7-6.7l0,0c3.7,0,6.7,3.1,6.7,6.7v12
			C920.2,64.8,917.1,67.9,913.3,67.9z"/>
		<path d="M1039.6,67.9L1039.6,67.9c-3.7,0-6.7-3.1-6.7-6.7v-12c0-3.7,3.1-6.7,6.7-6.7l0,0c3.7,0,6.7,3.1,6.7,6.7v12
			C1046.3,64.8,1043.3,67.9,1039.6,67.9z"/>
		<path d="M1165.9,67.9L1165.9,67.9c-3.7,0-6.7-3.1-6.7-6.7v-12c0-3.7,3.1-6.7,6.7-6.7l0,0c3.7,0,6.7,3.1,6.7,6.7v12
			C1172.6,64.8,1169.5,67.9,1165.9,67.9z"/>
	</g>
	<g>
		<path class="st0" d="M1185.1,300.1c-3.1,0-5.6-2.5-5.6-5.6c0-54.8-44.6-99.3-99.3-99.3c-54.8,0-99.3,44.6-99.3,99.3
			c0,3.1-2.5,5.6-5.6,5.6c-3.1,0-5.6-2.5-5.6-5.6c0-60.9,49.6-110.5,110.5-110.5c60.9,0,110.5,49.6,110.5,110.5
			C1190.7,297.5,1188.2,300.1,1185.1,300.1z"/>
		<g>
			<g>
				<circle class="st0" cx="870.1" cy="292.4" r="85"/>
				<path class="st1" d="M948.9,324.4c4-9.9,6.2-20.6,6.2-32c0-46.9-38.1-85-85-85c-46.9,0-85,38.1-85,85c0,11.3,2.2,22.1,6.2,32"/>
				<g>
					<g>
						<circle cx="870.1" cy="292.4" r="73.9"/>
						<circle class="st0" cx="870.1" cy="292.4" r="39.5"/>
					</g>
					<circle cx="870.1" cy="292.4" r="26"/>
					<circle class="st0" cx="870.1" cy="292.4" r="17.3"/>
				</g>
			</g>
		</g>
		<g>
			<g>
				
					<ellipse transform="matrix(0.7071 -0.7071 0.7071 0.7071 109.638 849.4587)" class="st0" cx="1080.2" cy="292.4" rx="85" ry="85"/>
				<path class="st1" d="M1159,324.4c4-9.9,6.2-20.6,6.2-32c0-46.9-38.1-85-85-85c-46.9,0-85,38.1-85,85c0,11.3,2.2,22.1,6.2,32"/>
				<g>
					<g>
						<circle cx="1080.2" cy="292.4" r="73.9"/>
						<circle class="st0" cx="1080.2" cy="292.4" r="39.5"/>
					</g>
					<circle cx="1080.2" cy="292.4" r="26"/>
					<circle class="st0" cx="1080.2" cy="292.4" r="17.3"/>
				</g>
			</g>
		</g>
		<path class="st0" d="M975,300.1c-3.1,0-5.6-2.5-5.6-5.6c0-54.8-44.6-99.3-99.3-99.3c-54.8,0-99.3,44.6-99.3,99.3
			c0,3.1-2.5,5.6-5.6,5.6c-3.1,0-5.6-2.5-5.6-5.6c0-60.9,49.6-110.5,110.5-110.5s110.5,49.6,110.5,110.5
			C980.6,297.5,978.1,300.1,975,300.1z"/>
	</g>
	<g>
		<path d="M702.6,50.9l1.8,40c0.2,5.7-5.7,9.5-10.7,6.8l-35.6-18.4c-5.1-2.6-5.4-9.7-0.5-12.7L691.3,45
			C696.1,42,702.4,45.2,702.6,50.9z"/>
		<path class="st0" d="M693.5,61.4l0.8,19.8c0.1,2.8-2.8,4.7-5.4,3.4l-17.5-9.2c-2.5-1.3-2.6-4.8-0.3-6.3L688,58.5
			C690.3,57,693.4,58.6,693.5,61.4z"/>
		<g>
			<path d="M703.2,50.9l1.8,40c0.2,5.7-5.7,9.5-10.7,6.8l-35.6-18.4c-5.1-2.6-5.4-9.7-0.5-12.7L692,45C696.7,42,703,45.2,703.2,50.9
				z"/>
			<path d="M743.6,163.9c0,55.9-45.3,101.2-101.2,101.2c-52.5,0-95.3-40-100.7-91.1c-0.9-9.2,9.9-10.1,9.9-10.1H743.6z"/>
			<path d="M560.4,180.5v-35c0-44,36-80.1,80.1-80.1l0,0c44,0,80.1,36,80.1,80.1v35c0,44-36,80.1-80.1,80.1l0,0
				C596.5,260.5,560.4,224.5,560.4,180.5z"/>
			<path class="st0" d="M694.2,61.4l0.8,19.8c0.1,2.8-2.8,4.7-5.4,3.4l-17.6-9.2c-2.5-1.3-2.6-4.8-0.3-6.3l16.7-10.6
				C690.9,57,694.1,58.6,694.2,61.4z"/>
		</g>
		<g>
			<path class="st0" d="M633.9,193L571,255.9c-6.8,6.8-18,6.8-24.7,0l0,0c-6.8-6.8-6.8-18,0-24.7l62.9-62.9c6.8-6.8,18-6.8,24.7,0
				l0,0C640.6,175,640.6,186.1,633.9,193z"/>
			<path class="st0" d="M662.4,124.1l-24.9,24.9c-1.4,1.4-3.7,1.4-5.2,0l0,0c-1.4-1.4-1.4-3.7,0-5.2l24.9-24.9
				c1.4-1.4,3.7-1.4,5.2,0l0,0C663.9,120.4,663.9,122.7,662.4,124.1z"/>
			<path class="st0" d="M671.3,133l-24.9,24.9c-1.4,1.4-3.7,1.4-5.2,0l0,0c-1.4-1.4-1.4-3.7,0-5.2l24.9-24.9c1.4-1.4,3.7-1.4,5.2,0
				l0,0C672.7,129.3,672.7,131.6,671.3,133z"/>
			<path class="st0" d="M680.3,141.9l-24.9,24.9c-1.4,1.4-3.7,1.4-5.2,0l0,0c-1.4-1.4-1.4-3.7,0-5.2l24.9-24.9
				c1.4-1.4,3.7-1.4,5.2,0l0,0C681.6,138.2,681.6,140.6,680.3,141.9z"/>
		</g>
		<g>
			<path d="M590.3,245.5L590.3,245.5c-2.2,2.2-5.9,2.2-8.2,0l-1.6-1.6c-2.2-2.2-2.2-5.9,0-8.2l0,0c2.2-2.2,5.9-2.2,8.2,0l1.6,1.6
				C592.5,239.6,592.5,243.2,590.3,245.5z"/>
			<path d="M605,230.7L605,230.7c-2.2,2.2-5.9,2.2-8.2,0l-1.6-1.6c-2.2-2.2-2.2-5.9,0-8.2l0,0c2.2-2.2,5.9-2.2,8.2,0l1.6,1.6
				C607.4,224.7,607.4,228.4,605,230.7z"/>
			<path d="M619.9,215.9L619.9,215.9c-2.2,2.2-5.9,2.2-8.2,0l-1.6-1.6c-2.2-2.2-2.2-5.9,0-8.2l0,0c2.2-2.2,5.9-2.2,8.2,0l1.6,1.6
				C622.1,210,622.1,213.7,619.9,215.9z"/>
			<path d="M634.7,201.1L634.7,201.1c-2.2,2.2-5.9,2.2-8.2,0l-1.6-1.6c-2.2-2.2-2.2-5.9,0-8.2l0,0c2.2-2.2,5.9-2.2,8.2,0l1.6,1.6
				C636.9,195.2,636.9,198.8,634.7,201.1z"/>
		</g>
		<g>
			<path d="M567.9,222.1L567.9,222.1c-2.2,2.2-5.9,2.2-8.2,0l-1.6-1.6c-2.2-2.2-2.2-5.9,0-8.2l0,0c2.2-2.2,5.9-2.2,8.2,0l1.6,1.6
				C570.1,216.2,570.1,219.9,567.9,222.1z"/>
			<path d="M582.7,207.3L582.7,207.3c-2.2,2.2-5.9,2.2-8.2,0l-1.6-1.6c-2.2-2.2-2.2-5.9,0-8.2l0,0c2.2-2.2,5.9-2.2,8.2,0l1.6,1.6
				C584.9,201.4,584.9,205.1,582.7,207.3z"/>
			<path d="M597.5,192.4L597.5,192.4c-2.2,2.2-5.9,2.2-8.2,0l-1.6-1.6c-2.2-2.2-2.2-5.9,0-8.2l0,0c2.2-2.2,5.9-2.2,8.2,0l1.6,1.6
				C599.8,186.5,599.8,190.2,597.5,192.4z"/>
			<path d="M612.3,177.7L612.3,177.7c-2.2,2.2-5.9,2.2-8.2,0l-1.6-1.6c-2.2-2.2-2.2-5.9,0-8.2l0,0c2.2-2.2,5.9-2.2,8.2,0l1.6,1.6
				C614.5,171.7,614.5,175.4,612.3,177.7z"/>
		</g>
		<g>
			<path d="M1424.9,228.5h-132.5c-23.3,0-42.4-19-42.4-42.4l0,0c0-23.3,19-42.4,42.4-42.4h132.5c23.3,0,42.4,19,42.4,42.4l0,0
				C1467.3,209.4,1448.3,228.5,1424.9,228.5z"/>
			<path class="st0" d="M1434.5,139.8v92.6c0,6.1-4.9,11-11,11h-8.3c-6.1,0-11-4.9-11-11v-92.6c0-6.1,4.9-11,11-11h8.3
				C1429.5,128.8,1434.5,133.8,1434.5,139.8z"/>
			<path class="st0" d="M1377.2,139.8v92.6c0,6.1-4.9,11-11,11h-8.3c-6.1,0-11-4.9-11-11v-92.6c0-6.1,4.9-11,11-11h8.3
				C1372.3,128.8,1377.2,133.8,1377.2,139.8z"/>
		</g>
		<path class="st0" d="M586.9,128.8c-2.8-2.4-8.2-1.9-10.7,0c-6.4,4.7-8.1,10.7-8.8,21.4c-0.2,2.3,0,9.4,0,9.4l20-20
			C590.7,136.1,590.4,131.8,586.9,128.8z"/>
	</g>
</g>
<g>
	<g>
		<path d="M433,370.6L433,370.6c-1.9,0-3.4-1.5-3.4-3.4v-12.1c0-1.9,1.5-3.4,3.4-3.4l0,0c1.9,0,3.4,1.5,3.4,3.4v12.1
			C436.4,369.1,434.9,370.6,433,370.6z"/>
		<path d="M445.2,370.6L445.2,370.6c-1.9,0-3.4-1.5-3.4-3.4v-12.1c0-1.9,1.5-3.4,3.4-3.4l0,0c1.9,0,3.4,1.5,3.4,3.4v12.1
			C448.6,369.1,447.1,370.6,445.2,370.6z"/>
	</g>
	<g>
		<path d="M427.3,300.8L427.3,300.8c-1.9,0-3.4-1.5-3.4-3.4v-12.1c0-1.9,1.5-3.4,3.4-3.4l0,0c1.9,0,3.4,1.5,3.4,3.4v12.1
			C430.7,299.3,429.2,300.8,427.3,300.8z"/>
		<path d="M435.2,300.8L435.2,300.8c-1.9,0-3.4-1.5-3.4-3.4v-12.1c0-1.9,1.5-3.4,3.4-3.4l0,0c1.9,0,3.4,1.5,3.4,3.4v12.1
			C438.6,299.3,437,300.8,435.2,300.8z"/>
		<path d="M443,300.8L443,300.8c-1.9,0-3.4-1.5-3.4-3.4v-12.1c0-1.9,1.5-3.4,3.4-3.4l0,0c1.9,0,3.4,1.5,3.4,3.4v12.1
			C446.4,299.3,444.9,300.8,443,300.8z"/>
		<path d="M450.9,300.8L450.9,300.8c-1.9,0-3.4-1.5-3.4-3.4v-12.1c0-1.9,1.5-3.4,3.4-3.4l0,0c1.9,0,3.4,1.5,3.4,3.4v12.1
			C454.3,299.3,452.8,300.8,450.9,300.8z"/>
	</g>
	<path d="M494.7,303.2c-4.3,6.4-30.7,0-30.7,0l10.8-26.3c2-4.9,7.1-4.9,9.1,0 M482.8,274.9c0,0,10.4,12.3,12,28.3
		c0.7,7.6-30.7,0-30.7,0L482.8,274.9z"/>
	<path d="M441.3,362.1h-4.5c-29.8,0-53.9-24.1-53.9-53.9v-8.7c0-8.5,6.9-15.4,15.4-15.4h72.8c13.3,0,24.1,10.8,24.1,24.1l0,0
		C495.2,338,471.1,362.1,441.3,362.1z"/>
	<g>
		<path d="M495.6,307.3h-9.1c-1.2,0-2.2-1-2.2-2.2l0,0c0-1.2,1-2.2,2.2-2.2h9.1c1.2,0,2.2,1,2.2,2.2l0,0
			C497.8,306.3,496.8,307.3,495.6,307.3z"/>
		<path d="M495.6,314h-9.1c-1.2,0-2.2-1-2.2-2.2l0,0c0-1.2,1-2.2,2.2-2.2h9.1c1.2,0,2.2,1,2.2,2.2l0,0
			C497.8,313,496.8,314,495.6,314z"/>
	</g>
	<path d="M477.8,303.2c-4.3,6.4-30.7,0-30.7,0l10.8-26.3c2-4.9,7.1-4.9,9.1,0 M465.8,274.9c0,0,10.4,12.3,12,28.3
		c0.7,7.6-30.7,0-30.7,0L465.8,274.9z"/>
	<g>
		<path class="st0" d="M479.6,304.5c0,1.1-0.9,2-2,2s-2-0.9-2-2"/>
		<path class="st0" d="M487.5,304.5c0,1.1-0.9,2-2,2s-2-0.9-2-2"/>
	</g>
	<path class="st2" d="M439.8,261.5c0-12.9-10.4-23.3-23.3-23.3s-23.3,10.4-23.3,23.3v45.1"/>
</g>
<g id="Group_98">
	<path id="Path_118" d="M1464.7,365.6h-873c-3.5,0-6.4,2.9-6.4,6.4l0,0c0,3.5,2.9,6.4,6.4,6.4h873c3.5,0,6.4-2.9,6.4-6.4l0,0
		C1471.1,368.4,1468.2,365.6,1464.7,365.6z"/>
</g>
<path d="M289.6,365.8H140c0,4.2,0,8.5,0,12.7h149.7c3.4,0,6.2-2.8,6.2-6.2V372C295.8,368.5,293,365.8,289.6,365.8z"/>
<path d="M108.2,365.8c-3.4,0-6.2,2.8-6.2,6.2v0.3c0,3.4,2.8,6.2,6.2,6.2H242c0-4.2,0-8.5,0-12.7H108.2z"/>
<path d="M512,365.1h-91.5c0,4.6,0,9,0,13.4H512c3.7,0,6.7-3,6.7-6.7l0,0C518.7,368.1,515.7,365.1,512,365.1z"/>
<path d="M371.8,365.1c-3.7,0-6.7,3-6.7,6.7s3,6.7,6.7,6.7h124.7c0-4.4,0-8.8,0-13.4L371.8,365.1L371.8,365.1z"/>
<g>
	<path d="M223.7,268.8h-71.4c-4.7,0-8.4-3.8-8.4-8.4v-28c0-24.1,19.5-43.5,43.5-43.5l0,0c24.7,0,44.9,20.2,44.9,44.9v26.8
		C232.1,265.1,228.4,268.8,223.7,268.8z"/>
	<path d="M124,165l42.6,36.1L152,218.4l-42.6-36.1c-4.8-4-5.3-11.2-1.3-16l0,0C112.1,161.6,119.2,161,124,165z"/>
	<path d="M285.9,348.5H244v-70.9h32.1c9.9,0,18,8,18,18v44.8C294,344.8,290.3,348.5,285.9,348.5z"/>
	<rect x="236.2" y="325.1" class="st0" width="58.2" height="8.6"/>
	<rect x="236.1" y="304.4" class="st0" width="58.2" height="8.6"/>
	<rect x="243.9" y="225.8" width="6.4" height="60.4"/>
	<g>
		<path d="M140.8,329.8c-2.9,0-5.2-2.3-5.2-5.1v-89.2c0-28.5,23.2-51.8,51.8-51.8c29.3,0,53.1,23.8,53.1,53.1v87.7
			c0,2.9-2.3,5.1-5.1,5.1h-94.5V329.8z"/>
		<path class="st0" d="M187.3,188.8c26.4,0,48.1,21.7,48.1,48.1v87.7c0,0.1-0.1,0.1-0.1,0.1h-94.5c-0.1,0-0.1-0.1-0.1-0.1v-89.1
			C140.5,209.8,161.5,188.8,187.3,188.8L187.3,188.8 M187.3,178.8c-31.3,0-56.7,25.4-56.7,56.7v89.1c0,5.7,4.6,10.2,10.2,10.2h94.5
			c5.7,0,10.2-4.6,10.2-10.2v-87.7C245.5,204.9,219.4,178.8,187.3,178.8L187.3,178.8z"/>
	</g>
	<path d="M206.4,197.8h-36.6c-3.8,0-6.8-3-6.8-6.8l0,0c0-3.8,3-6.8,6.8-6.8h36.6c3.8,0,6.8,3,6.8,6.8l0,0
		C213,194.8,210,197.8,206.4,197.8z"/>
	<g>
		<g>
			<rect x="163.2" y="260.1" width="20.4" height="110.8"/>
			<path d="M181.7,368.8H178c-3.7,0-6.7-3-6.7-6.7l0,0c0-3.7,3-6.7,6.7-6.7h3.8c3.7,0,6.7,3,6.7,6.7l0,0
				C188.4,365.8,185.4,368.8,181.7,368.8z"/>
		</g>
		<g>
			<rect x="193.5" y="260.1" width="20.4" height="110.8"/>
			<path d="M212.3,368.8h-3.8c-3.7,0-6.7-3-6.7-6.7l0,0c0-3.7,3-6.7,6.7-6.7h3.8c3.7,0,6.7,3,6.7,6.7l0,0
				C219,365.8,216,368.8,212.3,368.8z"/>
		</g>
	</g>
	<path d="M244.3,256.8h-25.4v-22.7h25.4c6.2,0,11.3,5.1,11.3,11.3l0,0C255.6,251.7,250.6,256.8,244.3,256.8z"/>
	<g>
		<path d="M221.5,141.4c0,18.7-15.1,33.8-33.8,33.8S154,160,154,141.4"/>
		<rect x="143.4" y="121.4" width="89.1" height="10.1"/>
		<path d="M221.5,127.9h-67v-16.2c0-7.8,6.3-14.1,14.1-14.1h39.6c7.2,0,13.2,5.9,13.2,13.2L221.5,127.9L221.5,127.9z"/>
	</g>
	<rect x="236.3" y="218.8" width="21.9" height="8.6"/>
	<circle cx="251.9" cy="357" r="8.9"/>
	<circle class="st0" cx="251.9" cy="357" r="3.4"/>
</g>
</svg>
