<?xml version="1.0" encoding="utf-8"?>
<!-- Generator: Adobe Illustrator 22.1.0, SVG Export Plug-In . SVG Version: 6.00 Build 0)  -->
<svg version="1.1" id="Layer_1" xmlns="http://www.w3.org/2000/svg" xmlns:xlink="http://www.w3.org/1999/xlink" x="0px" y="0px"
	 viewBox="0 0 1471.1 378.5" style="enable-background:new 0 0 1471.1 378.5;" xml:space="preserve">
<style type="text/css">
	.st0{fill:#E6E7E8;}
	.st1{fill:none;stroke:#000000;stroke-width:8.8869;stroke-linecap:round;stroke-miterlimit:10;}
	.st2{fill:none;stroke:#E6E7E8;stroke-width:10.3921;stroke-miterlimit:10;}
	.st3{stroke:#E6E7E8;stroke-width:10.3921;stroke-miterlimit:10;}
	.st4{fill:none;stroke:#FFFFFF;stroke-width:3.1899;stroke-miterlimit:10;}
	.st5{fill:none;stroke:#000000;stroke-width:12.0137;stroke-miterlimit:10;}
</style>
<g>
	<rect x="707.9" y="159" width="677.8" height="156.3"/>
	<g>
		<path class="st0" d="M718.2,194.9L718.2,194.9c-0.6,0-1.1-0.5-1.1-1.1v-24.6c0-0.6,0.5-1.1,1.1-1.1l0,0c0.6,0,1.1,0.5,1.1,1.1
			v24.6C719.3,194.4,718.8,194.9,718.2,194.9z"/>
		<path class="st0" d="M724.5,194.9L724.5,194.9c-0.6,0-1.1-0.5-1.1-1.1v-24.6c0-0.6,0.5-1.1,1.1-1.1l0,0c0.6,0,1.1,0.5,1.1,1.1
			v24.6C725.6,194.4,725.1,194.9,724.5,194.9z"/>
		<path class="st0" d="M730.9,194.9L730.9,194.9c-0.6,0-1.1-0.5-1.1-1.1v-24.6c0-0.6,0.5-1.1,1.1-1.1l0,0c0.6,0,1.1,0.5,1.1,1.1
			v24.6C732,194.4,731.5,194.9,730.9,194.9z"/>
		<path class="st0" d="M737.2,194.9L737.2,194.9c-0.6,0-1.1-0.5-1.1-1.1v-24.6c0-0.6,0.5-1.1,1.1-1.1l0,0c0.6,0,1.1,0.5,1.1,1.1
			v24.6C738.3,194.4,737.8,194.9,737.2,194.9z"/>
		<path class="st0" d="M743.6,194.9L743.6,194.9c-0.6,0-1.1-0.5-1.1-1.1v-24.6c0-0.6,0.5-1.1,1.1-1.1l0,0c0.6,0,1.1,0.5,1.1,1.1
			v24.6C744.7,194.4,744.2,194.9,743.6,194.9z"/>
		<path class="st0" d="M749.9,194.9L749.9,194.9c-0.6,0-1.1-0.5-1.1-1.1v-24.6c0-0.6,0.5-1.1,1.1-1.1l0,0c0.6,0,1.1,0.5,1.1,1.1
			v24.6C751,194.4,750.5,194.9,749.9,194.9z"/>
	</g>
	<g>
		<path d="M696.8,181.9c15.7,0,28.5,12.8,28.5,28.5s-12.8,28.5-28.5,28.5"/>
		<rect x="681.1" y="182.3" width="10.6" height="56.2"/>
	</g>
	<path class="st0" d="M971.4,173.1h-12.9c-1,0-1.8-0.8-1.8-1.8l0,0c0-1,0.8-1.8,1.8-1.8h12.9c1,0,1.8,0.8,1.8,1.8l0,0
		C973.2,172.3,972.4,173.1,971.4,173.1z"/>
	<path d="M1395.2,236L1395.2,236c-2.3,0-4.2-1.9-4.2-4.2v-43.1c0-2.3,1.9-4.2,4.2-4.2l0,0c2.3,0,4.2,1.9,4.2,4.2v43.1
		C1399.4,234.1,1397.5,236,1395.2,236z"/>
	<path class="st0" d="M980.9,158.8v110.4c0,7.4-6.1,13.2-13.5,13.2l-139.6,0.1c-7.4,0-13.5-5.8-13.5-13.2V159h-5v110.4
		c0,10.2,8.3,18.5,18.5,18.5l139.6-0.1c10.2,0,18.5-8.3,18.5-18.5V158.8H980.9z"/>
</g>
<path d="M870.3,11.5H962c10.4,0,18.8,8.4,18.8,18.8v129.5H814.3V67.5C814.3,36.6,839.4,11.5,870.3,11.5z"/>
<path class="st0" d="M866.8,31.3h95.9v128.3H832.4v-94C832.4,46.7,847.8,31.3,866.8,31.3z"/>
<g>
	<g>
		<g>
			<polygon points="854.7,171.6 844.7,168.5 850.1,151.6 860.2,154.7 			"/>
			<rect x="851.2" y="126.8" transform="matrix(0.2943 -0.9557 0.9557 0.2943 460.2852 924.8956)" width="10.5" height="48"/>
		</g>
		<path d="M955.3,135.7c0,16.7-13.5,30.3-30.3,30.3s-30.3-13.5-30.3-30.3"/>
		<rect x="885.9" y="122.7" width="69.4" height="9"/>
		<path d="M955.3,128.5h-60V114c0-6.9,5.7-12.6,12.6-12.6h35.6c6.5,0,11.8,5.3,11.8,11.8L955.3,128.5L955.3,128.5z"/>
	</g>
	<rect x="830.5" y="49.4" transform="matrix(0.5 -0.866 0.866 0.5 377.4289 761.0027)" width="34.5" height="8.4"/>
</g>
<g>
	<path d="M1279,139.8h25.5c26.6,0,48.4-21.8,48.4-48.4l0,0c0-26.6-21.8-48.4-48.4-48.4H1279c-26.6,0-48.4,21.8-48.4,48.4l0,0
		C1230.6,118,1252.4,139.8,1279,139.8z"/>
	<circle cx="1308" cy="43.3" r="12.7"/>
	<circle cx="1283.2" cy="43.3" r="12.7"/>
	<g>
		<circle cx="1308" cy="43.3" r="12.7"/>
		<circle cx="1304.9" cy="138.8" r="12.7"/>
		<circle cx="1329.3" cy="133.6" r="12.7"/>
		<circle cx="1346.9" cy="116.4" r="12.7"/>
		<circle cx="1354.1" cy="92.5" r="12.7"/>
		<circle cx="1349.2" cy="67.7" r="12.7"/>
		<circle cx="1332.9" cy="48.1" r="12.7"/>
	</g>
	<circle cx="1256.6" cy="48.6" r="12.7"/>
	<circle cx="1305" cy="138.8" r="12.7"/>
	<circle cx="1280.1" cy="138.8" r="12.7"/>
	<circle cx="1255.8" cy="135.5" r="12.7"/>
	<g>
		<path d="M1222.4,111L1222.4,111c12,0,21.9-9.9,21.9-21.9V65c0-12-9.9-21.9-21.9-21.9l0,0c-12,0-21.9,9.9-21.9,21.9v24.1
			C1200.5,101.2,1210.4,111,1222.4,111z"/>
		<g>
			<circle class="st0" cx="1229.9" cy="74" r="2.3"/>
			<circle class="st0" cx="1214.8" cy="74" r="2.3"/>
		</g>
		<g>
			<path d="M1192.6,65h14.6c4.2,0,7.7-3.5,7.7-7.7l0,0c0-4.2-3.5-7.7-7.7-7.7h-14.6c-4.2,0-7.7,3.5-7.7,7.7l0,0
				C1185,61.6,1188.4,65,1192.6,65z"/>
			<path d="M1237.5,65h14.6c4.2,0,7.7-3.5,7.7-7.7l0,0c0-4.2-3.5-7.7-7.7-7.7h-14.6c-4.2,0-7.7,3.5-7.7,7.7l0,0
				C1229.8,61.6,1233.3,65,1237.5,65z"/>
		</g>
	</g>
	<circle cx="1238.3" cy="118.3" r="12.7"/>
	<g>
		<path d="M1260.7,175.6L1260.7,175.6c2.9,0,5.3-2.4,5.3-5.3v-50c0-2.9-2.4-5.3-5.3-5.3l0,0c-2.9,0-5.3,2.4-5.3,5.3v50
			C1255.4,173.2,1257.8,175.6,1260.7,175.6z"/>
		<path d="M1277.7,175.6L1277.7,175.6c2.9,0,5.3-2.4,5.3-5.3v-50c0-2.9-2.4-5.3-5.3-5.3l0,0c-2.9,0-5.3,2.4-5.3,5.3v50
			C1272.4,173.2,1274.8,175.6,1277.7,175.6z"/>
		<path d="M1305.9,175.6L1305.9,175.6c2.9,0,5.3-2.4,5.3-5.3v-50c0-2.9-2.4-5.3-5.3-5.3l0,0c-2.9,0-5.3,2.4-5.3,5.3v50
			C1300.6,173.2,1303,175.6,1305.9,175.6z"/>
		<path d="M1322.9,175.6L1322.9,175.6c2.9,0,5.3-2.4,5.3-5.3v-50c0-2.9-2.4-5.3-5.3-5.3l0,0c-2.9,0-5.3,2.4-5.3,5.3v50
			C1317.6,173.2,1320,175.6,1322.9,175.6z"/>
	</g>
</g>
<g>
	<path d="M1096,139.8h25.5c26.6,0,48.4-21.8,48.4-48.4l0,0c0-26.6-21.8-48.4-48.4-48.4H1096c-26.6,0-48.4,21.8-48.4,48.4l0,0
		C1047.6,118,1069.4,139.8,1096,139.8z"/>
	<circle cx="1125" cy="43.3" r="12.7"/>
	<circle cx="1100.2" cy="43.3" r="12.7"/>
	<g>
		<circle cx="1125" cy="43.3" r="12.7"/>
		<circle cx="1121.9" cy="138.8" r="12.7"/>
		<circle cx="1146.2" cy="133.6" r="12.7"/>
		<circle cx="1163.9" cy="116.4" r="12.7"/>
		<circle cx="1171.1" cy="92.5" r="12.7"/>
		<circle cx="1166.1" cy="67.7" r="12.7"/>
		<circle cx="1149.9" cy="48.1" r="12.7"/>
	</g>
	<circle cx="1073.6" cy="48.6" r="12.7"/>
	<circle cx="1121.9" cy="138.8" r="12.7"/>
	<circle cx="1097.1" cy="138.8" r="12.7"/>
	<circle cx="1072.7" cy="135.5" r="12.7"/>
	<g>
		<path d="M1039.4,111L1039.4,111c12,0,21.9-9.9,21.9-21.9V65c0-12-9.9-21.9-21.9-21.9l0,0c-12,0-21.9,9.9-21.9,21.9v24.1
			C1017.5,101.2,1027.3,111,1039.4,111z"/>
		<g>
			<circle class="st0" cx="1046.9" cy="74" r="2.3"/>
			<circle class="st0" cx="1031.8" cy="74" r="2.3"/>
		</g>
		<g>
			<path d="M1009.6,65h14.6c4.2,0,7.7-3.5,7.7-7.7l0,0c0-4.2-3.5-7.7-7.7-7.7h-14.6c-4.2,0-7.7,3.5-7.7,7.7l0,0
				C1001.9,61.6,1005.4,65,1009.6,65z"/>
			<path d="M1054.5,65h14.6c4.2,0,7.7-3.5,7.7-7.7l0,0c0-4.2-3.5-7.7-7.7-7.7h-14.6c-4.2,0-7.7,3.5-7.7,7.7l0,0
				C1046.8,61.6,1050.3,65,1054.5,65z"/>
		</g>
	</g>
	<circle cx="1055.3" cy="118.3" r="12.7"/>
	<g>
		<path d="M1077.7,175.6L1077.7,175.6c2.9,0,5.3-2.4,5.3-5.3v-50c0-2.9-2.4-5.3-5.3-5.3l0,0c-2.9,0-5.3,2.4-5.3,5.3v50
			C1072.4,173.2,1074.8,175.6,1077.7,175.6z"/>
		<path d="M1094.7,175.6L1094.7,175.6c2.9,0,5.3-2.4,5.3-5.3v-50c0-2.9-2.4-5.3-5.3-5.3l0,0c-2.9,0-5.3,2.4-5.3,5.3v50
			C1089.4,173.2,1091.8,175.6,1094.7,175.6z"/>
		<path d="M1122.9,175.6L1122.9,175.6c2.9,0,5.3-2.4,5.3-5.3v-50c0-2.9-2.4-5.3-5.3-5.3l0,0c-2.9,0-5.3,2.4-5.3,5.3v50
			C1117.6,173.2,1119.9,175.6,1122.9,175.6z"/>
		<path d="M1139.8,175.6L1139.8,175.6c2.9,0,5.3-2.4,5.3-5.3v-50c0-2.9-2.4-5.3-5.3-5.3l0,0c-2.9,0-5.3,2.4-5.3,5.3v50
			C1134.5,173.2,1136.9,175.6,1139.8,175.6z"/>
	</g>
</g>
<g>
	<path d="M721.5,167.6L721.5,167.6c-1.6,0-2.9-1.3-2.9-2.9v-65c0-1.6,1.3-2.9,2.9-2.9l0,0c1.6,0,2.9,1.3,2.9,2.9v65
		C724.4,166.3,723.1,167.6,721.5,167.6z"/>
	<g>
		<circle cx="743.5" cy="125.6" r="15"/>
		<path d="M681.7,113.5c0-3.1,3.2-5.2,6-3.9c12.2,5.5,40.2,17.1,57.1,16c-17.5-0.2-45.1,10.9-57.1,16.2c-2.8,1.2-6-0.8-6-3.9V113.5z
			"/>
		<path d="M728.1,134.2L728.1,134.2c-1.7,0-3.2-1.4-3.2-3.2v-11c0-1.7,1.4-3.2,3.2-3.2l0,0c1.7,0,3.2,1.4,3.2,3.2v11
			C731.3,132.8,729.8,134.2,728.1,134.2z"/>
	</g>
	<g>
		<circle cx="735.9" cy="106.4" r="8.8"/>
		<path d="M699.4,99.2c0-1.8,1.9-3.1,3.6-2.3c7.2,3.3,23.8,10.1,33.7,9.5c-10.3-0.1-26.6,6.4-33.8,9.5c-1.7,0.7-3.5-0.5-3.5-2.3
			V99.2z"/>
		<path d="M726.8,111.5L726.8,111.5c-1,0-1.9-0.8-1.9-1.9v-6.5c0-1,0.8-1.9,1.9-1.9l0,0c1,0,1.9,0.8,1.9,1.9v6.5
			C728.7,110.7,727.8,111.5,726.8,111.5z"/>
	</g>
</g>
<g>
	<rect x="1364.2" y="279.2" width="35.2" height="20.4"/>
	<rect x="1353.1" y="305.8" width="46.3" height="9.6"/>
	<rect x="1366.9" y="281.3" width="6.5" height="32"/>
	<rect x="681.1" y="279.2" width="35.2" height="20.4"/>
	<rect x="681.1" y="305.8" width="46.3" height="9.6"/>
	<rect x="903.6" y="302.4" class="st0" width="252.8" height="1.8"/>
	<circle class="st0" cx="1249.1" cy="301.7" r="79.4"/>
	<path class="st1" d="M1322.8,331.6c3.7-9.2,5.8-19.3,5.8-29.8c0-43.9-35.6-79.4-79.4-79.4s-79.4,35.6-79.4,79.4
		c0,10.6,2.1,20.6,5.8,29.8"/>
	<path class="st2" d="M1347.2,302.9c0-54.1-43.9-98-98-98s-98,43.9-98,98"/>
	<path class="st3" d="M908.9,302.9c0-54.1-43.9-98-98-98s-98,43.9-98,98v2.9"/>
	<g>
		<g>
			<circle cx="1249.1" cy="301.7" r="69"/>
			<circle class="st0" cx="1249.1" cy="301.7" r="36.8"/>
		</g>
		<circle class="st4" cx="1249.1" cy="301.7" r="44.9"/>
	</g>
	<circle class="st5" cx="1249.1" cy="301.7" r="29.2"/>
	<g>
		<circle class="st0" cx="810.6" cy="302.1" r="75.5"/>
		<g>
			<g>
				<circle cx="810.6" cy="301.7" r="69"/>
				<circle class="st0" cx="810.6" cy="301.7" r="37"/>
			</g>
			<circle class="st4" cx="810.6" cy="301.7" r="44.9"/>
		</g>
		<path class="st1" d="M884.5,331.6c3.7-9.2,5.8-19.3,5.8-29.8c0-43.9-35.6-79.4-79.4-79.4s-79.4,35.6-79.4,79.4
			c0,10.6,2.1,20.6,5.8,29.8"/>
		<circle class="st5" cx="810.6" cy="301.7" r="29.2"/>
	</g>
</g>
<g id="Group_98">
	<path id="Path_118" d="M1464.7,365.6h-873c-3.5,0-6.4,2.9-6.4,6.4l0,0c0,3.5,2.9,6.4,6.4,6.4h873c3.5,0,6.4-2.9,6.4-6.4l0,0
		C1471.1,368.4,1468.2,365.6,1464.7,365.6z"/>
</g>
<path d="M289.6,365.8H140c0,4.2,0,8.5,0,12.7h149.7c3.4,0,6.2-2.8,6.2-6.2V372C295.8,368.5,293,365.8,289.6,365.8z"/>
<path d="M108.2,365.8c-3.4,0-6.2,2.8-6.2,6.2v0.3c0,3.4,2.8,6.2,6.2,6.2H242c0-4.2,0-8.5,0-12.7H108.2z"/>
<path d="M512,365.1h-91.5c0,4.6,0,9,0,13.4H512c3.7,0,6.7-3,6.7-6.7l0,0C518.7,368.1,515.7,365.1,512,365.1z"/>
<path d="M371.8,365.1c-3.7,0-6.7,3-6.7,6.7s3,6.7,6.7,6.7h124.7c0-4.4,0-8.8,0-13.4L371.8,365.1L371.8,365.1z"/>
<g>
	<path d="M249.4,225.1v-71.9c0-25.9-21.2-47.1-47.1-47.1l0,0c-25.9,0-47.1,21.2-47.1,47.1v71.9"/>
	<path d="M164,186L164,186c-4.9,0-8.9,4-8.9,8.9v30.8c0,4.9,4,8.9,8.9,8.9l0,0c4.9,0,8.9-4,8.9-8.9v-30.8
		C172.9,190,168.9,186,164,186z"/>
	<path d="M189.5,186L189.5,186c-4.9,0-8.9,4-8.9,8.9v30.8c0,4.9,4,8.9,8.9,8.9l0,0c4.9,0,8.9-4,8.9-8.9v-30.8
		C198.4,190,194.4,186,189.5,186z"/>
	<path class="st0" d="M176.8,220.6L176.8,220.6c-2.1,0-3.9,1.7-3.9,3.9v14.1c0,2.1,1.7,3.9,3.9,3.9l0,0c2.1,0,3.9-1.7,3.9-3.9v-14.1
		C180.7,222.4,178.9,220.6,176.8,220.6z"/>
	<path class="st0" d="M202.3,220.6L202.3,220.6c-2.1,0-3.9,1.7-3.9,3.9v14.1c0,2.1,1.7,3.9,3.9,3.9l0,0c2.1,0,3.9-1.7,3.9-3.9v-14.1
		C206.2,222.4,204.4,220.6,202.3,220.6z"/>
	<path class="st0" d="M227.8,220.6L227.8,220.6c-2.1,0-3.9,1.7-3.9,3.9v14.1c0,2.1,1.7,3.9,3.9,3.9l0,0c2.1,0,3.9-1.7,3.9-3.9v-14.1
		C231.7,222.4,229.9,220.6,227.8,220.6z"/>
	<path d="M215,186L215,186c-4.9,0-8.9,4-8.9,8.9v30.8c0,4.9,4,8.9,8.9,8.9l0,0c4.9,0,8.9-4,8.9-8.9v-30.8
		C223.9,190,219.9,186,215,186z"/>
	<path d="M240.5,186L240.5,186c-4.9,0-8.9,4-8.9,8.9v30.8c0,4.9,4,8.9,8.9,8.9l0,0c4.9,0,8.9-4,8.9-8.9v-30.8
		C249.4,190,245.4,186,240.5,186z"/>
	<g>
		<path class="st0" d="M198.4,165.9L198.4,165.9c-6.8,0-12.3-5.5-12.3-12.3l0,0c0-6.8,5.5-12.3,12.3-12.3l0,0
			c6.8,0,12.3,5.5,12.3,12.3l0,0C210.7,160.4,205.1,165.9,198.4,165.9z"/>
		<path class="st0" d="M230.5,165.9L230.5,165.9c-6.8,0-12.3-5.5-12.3-12.3l0,0c0-6.8,5.5-12.3,12.3-12.3l0,0
			c6.8,0,12.3,5.5,12.3,12.3l0,0C242.7,160.4,237.2,165.9,230.5,165.9z"/>
	</g>
</g>
<g>
	<path d="M443.4,357.7L443.4,357.7c-32.3,0-58.8-26.4-58.8-58.8v-53.2h114.1c1.9,0,3.4,1.5,3.4,3.4v49.8
		C502.2,331.2,475.7,357.7,443.4,357.7z"/>
	<g>
		<path d="M446.9,372.9H440c-2.1,0-3.8-1.7-3.8-3.8v-41c0-2.1,1.7-3.8,3.8-3.8h6.9c2.1,0,3.8,1.7,3.8,3.8v41
			C450.6,371.2,448.9,372.9,446.9,372.9z"/>
	</g>
	<path d="M482.5,276.9L482.5,276.9c-10.8,0-19.7-8.9-19.7-19.7v-38.1c0-10.8,8.9-19.7,19.7-19.7l0,0c10.8,0,19.7,8.9,19.7,19.7v38.1
		C502.2,268,493.3,276.9,482.5,276.9z"/>
	<path d="M385.4,257.6l-16.9-16.9c-2.8-2.8-2.8-7.3,0-10.1l0,0c2.8-2.8,7.3-2.8,10.1,0l16.9,16.9c2.8,2.8,2.8,7.3,0,10.1l0,0
		C392.8,260.4,388.2,260.4,385.4,257.6z"/>
	<path d="M407.9,260L391,243.1c-2.8-2.8-2.8-7.3,0-10.1l0,0c2.8-2.8,7.3-2.8,10.1,0l16.9,16.9c2.8,2.8,2.8,7.3,0,10.1l0,0
		C415.2,262.8,410.7,262.8,407.9,260z"/>
	<path d="M389,281.3l-16.9-16.9c-2.8-2.8-2.8-7.3,0-10.1l0,0c2.8-2.8,7.3-2.8,10.1,0l16.9,16.9c2.8,2.8,2.8,7.3,0,10.1l0,0
		C396.4,284.1,391.8,284.1,389,281.3z"/>
	<path d="M473.7,207.4v-10c0-4.8,3.9-8.8,8.8-8.8l0,0c4.8,0,8.8,3.9,8.8,8.8v10c0,4.8-3.9,8.8-8.8,8.8l0,0
		C477.6,216.1,473.7,212.2,473.7,207.4z"/>
	<polygon points="514.5,227.3 502.2,220.2 502.2,234.5 	"/>
	<g>
		<path class="st0" d="M492.2,220.9c0,1.2-1,2.1-2.1,2.1s-2.1-1-2.1-2.1"/>
		<path class="st0" d="M500.8,220.9c0,1.2-1,2.1-2.1,2.1s-2.1-1-2.1-2.1"/>
	</g>
	<path d="M475,231.1l-12.2-0.3c-0.1,8.3-6.9,14.9-15.2,14.9c-0.2,0-0.5,0-0.7,0l0.9,15.6l27.3-0.2L475,231.1z"/>
	<path d="M418.9,245.8c-3.2,0-6.2-1.3-8.3-3.4l-2.1,1.8l2.4,10.3l8.7-0.8l-0.5-7.9C419,245.8,418.9,245.8,418.9,245.8z"/>
	<path d="M384.6,282.2c0,0.2,0,0.5,0,0.7l9.7-0.2l-1.7-8.2l-9.7-2.8l-1.9,1.5C383.2,275.6,384.6,278.7,384.6,282.2z"/>
</g>
</svg>
