<?xml version="1.0" encoding="utf-8"?>
<!-- Generator: Adobe Illustrator 22.1.0, SVG Export Plug-In . SVG Version: 6.00 Build 0)  -->
<svg version="1.1" id="Layer_1" xmlns="http://www.w3.org/2000/svg" xmlns:xlink="http://www.w3.org/1999/xlink" x="0px" y="0px"
	 viewBox="0 0 1471.1 378.5" style="enable-background:new 0 0 1471.1 378.5;" xml:space="preserve">
<style type="text/css">
	.st0{fill:none;stroke:#E6E7E8;stroke-width:2.8303;stroke-miterlimit:10;}
	.st1{fill:#E6E7E8;}
	.st2{fill:none;stroke:#000000;stroke-width:5.1788;stroke-miterlimit:10;}
	.st3{fill:none;stroke:#000000;stroke-width:8.8574;stroke-linecap:round;stroke-miterlimit:10;}
	.st4{fill:none;stroke:#000000;stroke-width:25;stroke-linecap:round;stroke-miterlimit:10;}
</style>
<g>
	<path d="M1175.8,110c0,18.7-15.1,33.8-33.8,33.8s-33.8-15.1-33.8-33.8"/>
	<rect x="1100.3" y="95.4" width="75.5" height="10.1"/>
	<path d="M1175.8,102h-67V85.8c0-7.7,6.3-14.1,14.1-14.1h39.8c7.3,0,13.2,5.9,13.2,13.2V102z"/>
	<path d="M1315.4,110c0,18.7-15.1,33.8-33.8,33.8s-33.8-15.1-33.8-33.8"/>
	<rect x="1220.5" y="95.4" width="94.9" height="10.1"/>
	<path d="M1315.4,102h-67V85.8c0-7.7,6.3-14.1,14.1-14.1h39.8c7.3,0,13.2,5.9,13.2,13.2V102z"/>
	<path d="M825.8,110.4L825.8,110.4c-2.5,0-4.5,2-4.5,4.5v20.5c0,0.1,0.1,0.2,0.2,0.2h7.9c0.5,0,1-0.4,1-1v-19.7
		C830.3,112.4,828.2,110.4,825.8,110.4z"/>
	<rect x="1063.5" y="115" transform="matrix(0.9557 0.2943 -0.2943 0.9557 84.4245 -308.9327)" width="10.5" height="22"/>
	<g>
		<rect x="1068.1" y="24.1" transform="matrix(0.9557 0.2943 -0.2943 0.9557 58.4287 -314.2414)" width="10.5" height="25.8"/>
		<polygon points="1032,134.8 1013.9,135.1 1050.8,15.3 1067.2,20.4 		"/>
	</g>
	<rect x="1068" y="89.3" transform="matrix(0.2943 -0.9557 0.9557 0.2943 649.1802 1105.621)" width="10.5" height="47.8"/>
	<path d="M1217,99.8l-3.5,35.9c-0.7,7.6-7.5,13.2-15.1,12.5l0,0c-7.6-0.7-13.2-7.5-12.5-15.1l3.5-35.9c0.7-7.6,7.5-13.2,15.1-12.5v0
		C1212.1,85.4,1217.7,92.2,1217,99.8z"/>
	<path d="M1362.5,97.8l-3.7,38c-0.8,8-8,14-16,13.2l0,0c-8-0.8-14-8-13.2-16l3.7-38c0.8-8,8-14,16-13.2l0,0
		C1357.3,82.6,1363.3,89.8,1362.5,97.8z"/>
	<path d="M1341.1,137.2h45.6c6.1,0,11.1-5,11.1-11.1v0c0-6.1-5-11.1-11.1-11.1h-44.1c-2.1,0-3.9,1.7-3.9,3.9v15.9
		C1338.7,136.1,1339.8,137.2,1341.1,137.2z"/>
	<path d="M975.8,137.4L975.8,137.4c-1.5,0-2.6-1.2-2.6-2.6V98.8c0-1.5,1.2-2.6,2.6-2.6l0,0c1.5,0,2.6,1.2,2.6,2.6v35.9
		C978.5,136.2,977.3,137.4,975.8,137.4z"/>
	<path class="st0" d="M1312.5,100.5"/>
	<g>
		<circle cx="995.8" cy="112.7" r="13.6"/>
		<path d="M939.7,101.7c0-2.8,2.9-4.7,5.5-3.5c11.1,5,36.5,15.5,51.8,14.5c-15.8-0.2-40.9,9.9-51.9,14.7c-2.6,1.1-5.4-0.8-5.4-3.6
			V101.7z"/>
		<path d="M981.8,120.6L981.8,120.6c-1.6,0-2.9-1.3-2.9-2.9v-10c0-1.6,1.3-2.9,2.9-2.9h0c1.6,0,2.9,1.3,2.9,2.9v10
			C984.7,119.3,983.4,120.6,981.8,120.6z"/>
	</g>
	<g>
		<path d="M1395.2,314.4H812.8c-14,0-25.4-11.4-25.4-25.4V171.2c0-20.3,16.6-36.9,36.9-36.9h571.9c13.4,0,24.3,11,24.3,24.3V289
			C1420.6,303,1409.2,314.4,1395.2,314.4z"/>
		<path d="M1404.8,219v-38.2c0-8.1,6.6-14.7,14.7-14.7h0c8.1,0,14.7,6.6,14.7,14.7V219c0,8.1-6.6,14.7-14.7,14.7h0
			C1411.4,233.7,1404.8,227.1,1404.8,219z"/>
		<path class="st1" d="M1164.6,230.6h-110.9c-11.6,0-21-9.4-21-21v-76.1h5v76.1c0,8.8,7.2,15.9,15.9,15.9h110.9
			c8.8,0,15.9-7.2,15.9-15.9v-76.1h5v76.1C1185.6,221.2,1176.2,230.6,1164.6,230.6z"/>
		<rect x="779.2" y="162.6" class="st1" width="255.1" height="5.3"/>
		<path class="st1" d="M1172,145.9L1172,145.9c-1.9,0-3.5-1.6-3.5-3.5l0,0c0-1.9,1.6-3.5,3.5-3.5l0,0c1.9,0,3.5,1.6,3.5,3.5l0,0
			C1175.5,144.3,1173.9,145.9,1172,145.9z"/>
		<path class="st1" d="M1226.9,145.9L1226.9,145.9c-1.9,0-3.5-1.6-3.5-3.5l0,0c0-1.9,1.6-3.5,3.5-3.5l0,0c1.9,0,3.5,1.6,3.5,3.5l0,0
			C1230.4,144.3,1228.8,145.9,1226.9,145.9z"/>
		<g>
			<path class="st1" d="M1422.3,210.9L1422.3,210.9c3.8,0,7,3.1,7,7v0c0,3.8-3.1,7-7,7l0,0c-3.8,0-7-3.1-7-7v0
				C1415.3,214,1418.4,210.9,1422.3,210.9z"/>
			<path class="st1" d="M1422.3,174.4L1422.3,174.4c3.4,0,6.2,2.8,6.2,6.2v16.8c0,3.4-2.8,6.2-6.2,6.2l0,0c-3.4,0-6.2-2.8-6.2-6.2
				v-16.8C1416,177.3,1418.8,174.4,1422.3,174.4z"/>
		</g>
		<g>
			<path class="st1" d="M833.1,267.5L833.1,267.5c-1.7,0-3-1.4-3-3v-67.7c0-1.7,1.4-3,3-3l0,0c1.7,0,3,1.4,3,3v67.7
				C836.2,266.2,834.8,267.5,833.1,267.5z"/>
			<path class="st1" d="M850.6,267.5L850.6,267.5c-1.7,0-3-1.4-3-3v-67.7c0-1.7,1.4-3,3-3l0,0c1.7,0,3,1.4,3,3v67.7
				C853.6,266.2,852.2,267.5,850.6,267.5z"/>
			<path class="st1" d="M868,267.5L868,267.5c-1.7,0-3-1.4-3-3v-67.7c0-1.7,1.4-3,3-3h0c1.7,0,3,1.4,3,3v67.7
				C871.1,266.2,869.7,267.5,868,267.5z"/>
			<path class="st1" d="M885.5,267.5L885.5,267.5c-1.7,0-3-1.4-3-3v-67.7c0-1.7,1.4-3,3-3l0,0c1.7,0,3,1.4,3,3v67.7
				C888.5,266.2,887.1,267.5,885.5,267.5z"/>
			<path class="st1" d="M902.9,267.5L902.9,267.5c-1.7,0-3-1.4-3-3v-67.7c0-1.7,1.4-3,3-3l0,0c1.7,0,3,1.4,3,3v67.7
				C906,266.2,904.6,267.5,902.9,267.5z"/>
			<path class="st1" d="M920.4,267.5L920.4,267.5c-1.7,0-3-1.4-3-3v-67.7c0-1.7,1.4-3,3-3l0,0c1.7,0,3,1.4,3,3v67.7
				C923.4,266.2,922,267.5,920.4,267.5z"/>
		</g>
		<path class="st1" d="M1310.8,230.6h-78.3c-10.2,0-18.5-8.3-18.5-18.5V134h5v78.1c0,7.4,6,13.4,13.4,13.4h78.3
			c7.4,0,13.4-6,13.4-13.4V134h5v78.1C1329.3,222.3,1321,230.6,1310.8,230.6z"/>
		<path d="M764.6,136.6c15.9,0,28.7,12.9,28.7,28.7S780.5,194,764.6,194"/>
	</g>
	<g>
		<rect x="764.1" y="274.1" class="st1" width="641.6" height="9.5"/>
		<path class="st1" d="M1116.5,274.2c0,0-103.1,1.6-183.1-24.2c-92.3-29.8-140.6-32.5-140.6-32.5l50.9,13.7l26.6,26.6l9.9,17.5
			L1116.5,274.2z"/>
		<g>
			<g>
				<ellipse cx="1431.9" cy="287" rx="7.4" ry="7.7"/>
				<ellipse cx="1431.8" cy="304.7" rx="9.4" ry="9.9"/>
			</g>
			<g>
				<ellipse cx="706.6" cy="287" rx="7.4" ry="7.7"/>
				<ellipse cx="706.5" cy="304.7" rx="9.4" ry="9.9"/>
			</g>
			<rect x="707" y="279.3" width="725.3" height="35.1"/>
			<g>
				<circle class="st1" cx="1333.5" cy="300.8" r="79.2"/>
				<g>
					<circle cx="1333.5" cy="300.8" r="68.8"/>
					<circle class="st1" cx="1333.5" cy="300.8" r="38.5"/>
				</g>
				<circle class="st2" cx="1333.5" cy="300.8" r="25.4"/>
				<circle cx="1333.5" cy="300.8" r="15"/>
				<path class="st3" d="M1406.8,330.5c3.7-9.2,5.8-19.2,5.8-29.7c0-43.7-35.4-79.2-79.2-79.2c-43.7,0-79.2,35.4-79.2,79.2
					c0,10.5,2.1,20.6,5.8,29.7"/>
			</g>
			<path class="st3" d="M729.1,249.4c0-15.6,12.7-28.3,28.3-28.3h29"/>
			<polygon points="729.7,254 801.4,254 806.3,224 751.8,224 737.6,228.2 730.1,244.9 			"/>
			<rect x="757.5" y="279.3" width="94" height="35.1"/>
			<circle class="st1" cx="800.4" cy="301.2" r="75.3"/>
			<g>
				<circle cx="800" cy="300.8" r="68.8"/>
				<circle class="st1" cx="800.5" cy="300.2" r="38.5"/>
			</g>
			<circle class="st2" cx="800" cy="300.8" r="20.9"/>
			<circle cx="800" cy="300.8" r="12.9"/>
			<path class="st3" d="M873.4,330.5c3.7-9.2,5.8-19.2,5.8-29.7c0-43.7-35.4-79.2-79.2-79.2h-43.5"/>
		</g>
	</g>
</g>
<g id="Group_98">
	<path id="Path_118" d="M1464.7,365.6h-759c-3.5,0-6.4,2.9-6.4,6.4l0,0c0,3.5,2.9,6.4,6.4,6.4h759c3.5,0,6.4-2.9,6.4-6.4l0,0
		C1471.1,368.4,1468.2,365.6,1464.7,365.6z"/>
</g>
<path d="M390.6,365.8H159.8c0,4.2,0,8.5,0,12.7h231c5.2,0,9.6-2.8,9.6-6.2V372C400.2,368.5,395.9,365.8,390.6,365.8z"/>
<path d="M53.5,365.8c-3.4,0-6.2,2.8-6.2,6.2v0.3c0,3.4,2.8,6.2,6.2,6.2h133.8c0-4.2,0-8.5,0-12.7H53.5z"/>
<path d="M541.3,365.1h-91.5c0,4.6,0,9,0,13.4h91.5c3.7,0,6.7-3,6.7-6.7l0,0C548,368.1,545,365.1,541.3,365.1z"/>
<path d="M371.8,365.1c-3.7,0-6.7,3-6.7,6.7s3,6.7,6.7,6.7h124.7c0-4.4,0-8.8,0-13.4L371.8,365.1L371.8,365.1z"/>
<g>
	<path d="M420.9,307.7H169.7c-79.7,0-144.9-65.2-144.9-144.9v0C24.8,83.1,90,17.9,169.7,17.9h251.2c79.7,0,144.9,65.2,144.9,144.9v0
		C565.8,242.5,500.6,307.7,420.9,307.7z"/>
	<g>
		<path d="M206.8,374.5H101.9V245.6c0-17.1,14-31.2,31.2-31.2h42.5c17.1,0,31.2,14,31.2,31.2V374.5z"/>
		<path d="M282.5,374.5h-65.7V239.1c0-13.6,11.1-24.7,24.7-24.7h16.4c13.6,0,24.7,11.1,24.7,24.7V374.5z"/>
		<path d="M413,374.5H308.1V245.6c0-17.1,14-31.2,31.2-31.2h42.5c17.1,0,31.2,14,31.2,31.2V374.5z"/>
		<path d="M488.7,374.5H423V239.1c0-13.6,11.1-24.7,24.7-24.7h16.4c13.6,0,24.7,11.1,24.7,24.7V374.5z"/>
	</g>
	<path d="M551.2,297.2L551.2,297.2c-52.2,0-94.9-42.7-94.9-94.9v-5.2c0-52.2,42.7-94.9,94.9-94.9h0c52.2,0,94.9,42.7,94.9,94.9v5.2
		c0,7.9-1,15.7-2.9,23.1l0,0c-3.1,12.2-8.5,23.4-15.8,33.3C610.2,282,582.4,297.2,551.2,297.2z"/>
	<g>
		<path d="M622.1,148.9L622.1,148.9c-18.5,0-33.6-15.1-33.6-33.6v0c0-18.5,15.1-33.6,33.6-33.6h0c18.5,0,33.6,15.1,33.6,33.6v0
			C655.7,133.7,640.6,148.9,622.1,148.9z"/>
		<path class="st1" d="M605.9,115.2L605.9,115.2c0-8.9,7.3-16.2,16.2-16.2h0c8.9,0,16.2,7.3,16.2,16.2v0"/>
	</g>
	<g>
		<path d="M39.4,102.6L39.4,102.6C20.9,102.6,5.7,87.5,5.7,69v0c0-18.5,15.1-33.6,33.6-33.6h0C57.9,35.3,73,50.5,73,69v0
			C73,87.5,57.9,102.6,39.4,102.6z"/>
	</g>
	<g>
		<path class="st1" d="M608.8,168.9c0,2.2-1.8,4-4,4s-4-1.8-4-4"/>
		<path class="st1" d="M624.7,168.9c0,2.2-1.8,4-4,4c-2.2,0-4-1.8-4-4"/>
	</g>
	<path d="M668.6,189.1c0-0.1,0-0.3,0-0.4c0-8.3-6.4-15.1-14.6-15.8H433.3c0,0,0,0,0,0v6.4c0,64.8,53,117.9,117.9,117.9h0
		c38.7,0,73.2-18.9,94.7-47.9c9-12.2,15.8-26.2,19.6-41.3C667.1,201.9,668.6,189.1,668.6,189.1z"/>
	<g>
		<path class="st1" d="M597.7,283.6L550,213.7c-6.4-9.4-3.9-22.2,5.4-28.6v0c9.4-6.4,22.2-3.9,28.6,5.4l47.7,69.9
			c6.4,9.4,3.9,22.2-5.4,28.6l0,0C616.9,295.4,604.1,292.9,597.7,283.6z"/>
		<g>
			<circle cx="588.3" cy="196.7" r="5.8"/>
			<circle cx="598.9" cy="212.2" r="5.8"/>
			<circle cx="609.5" cy="227.7" r="5.8"/>
			<circle cx="620.1" cy="243.2" r="5.8"/>
			<circle cx="630.6" cy="258.7" r="5.8"/>
		</g>
		<g>
			<circle cx="554.4" cy="219.8" r="5.8"/>
			<circle cx="564.9" cy="235.3" r="5.8"/>
			<circle cx="575.5" cy="250.8" r="5.8"/>
			<circle cx="586.1" cy="266.4" r="5.8"/>
			<circle cx="596.7" cy="281.9" r="5.8"/>
		</g>
	</g>
	<path class="st4" d="M627.2,304.8c0-27.8-22.6-50.4-50.4-50.4h-26"/>
	<path d="M643.3,225.4"/>
	<g>
		<path d="M483.3,148.9L483.3,148.9c-18.5,0-33.6-15.1-33.6-33.6v0c0-18.5,15.1-33.6,33.6-33.6h0c18.5,0,33.6,15.1,33.6,33.6v0
			C516.9,133.7,501.8,148.9,483.3,148.9z"/>
		<path class="st1" d="M467.2,115.2L467.2,115.2c0-8.9,7.3-16.2,16.2-16.2h0c8.9,0,16.2,7.3,16.2,16.2v0"/>
	</g>
</g>
</svg>
