<svg id="Group_1347" data-name="Group 1347" xmlns="http://www.w3.org/2000/svg" viewBox="0 0 1920 1081">
  <defs>
    <style>
      .cls-1 {
        fill: #00ff14;
      }

      .cls-1, .cls-2, .cls-3, .cls-4, .cls-9 {
        font-size: 50px;
      }

      .cls-1, .cls-2, .cls-3, .cls-4, .cls-5, .cls-6, .cls-7, .cls-8, .cls-9 {
        font-family: Roboto-Regular, Roboto;
      }

      .cls-2, .cls-5 {
        fill: #00ebff;
      }

      .cls-3, .cls-8 {
        fill: #ff7f00;
      }

      .cls-4, .cls-7 {
        fill: #ff00e2;
      }

      .cls-5, .cls-6, .cls-7, .cls-8 {
        font-size: 60px;
      }

      .cls-6, .cls-9 {
        fill: red;
      }
    </style>
  </defs>
  <rect id="Rectangle_46" data-name="Rectangle 46" width="1920" height="1081"/>
  <text id="X" class="cls-1" transform="translate(485 511)"><tspan x="-15.674" y="0">X</tspan></text>
  <text id="X-2" data-name="X" class="cls-2" transform="translate(1545 336)"><tspan x="-15.674" y="0">X</tspan></text>
  <text id="X-3" data-name="X" class="cls-3" transform="translate(1174 194)"><tspan x="-15.674" y="0">X</tspan></text>
  <text id="X-4" data-name="X" class="cls-4" transform="translate(1190 777)"><tspan x="-15.674" y="0">X</tspan></text>
  <text id="X-5" data-name="X" class="cls-3" transform="translate(359 835)"><tspan x="-15.674" y="0">X</tspan></text>
  <text id="X-6" data-name="X" class="cls-1" transform="translate(1755 616)"><tspan x="-15.674" y="0">X</tspan></text>
  <text id="_" data-name="+" class="cls-5" transform="translate(701 257)"><tspan x="-17.007" y="0">+</tspan></text>
  <text id="_2" data-name="+" class="cls-6" transform="translate(1456 613)"><tspan x="-17.007" y="0">+</tspan></text>
  <text id="_3" data-name="+" class="cls-5" transform="translate(160 734)"><tspan x="-17.007" y="0">+</tspan></text>
  <text id="_4" data-name="+" class="cls-7" transform="translate(262 162)"><tspan x="-17.007" y="0">+</tspan></text>
  <text id="_5" data-name="+" class="cls-8" transform="translate(1698 934)"><tspan x="-17.007" y="0">+</tspan></text>
  <text id="_6" data-name="+" class="cls-7" transform="translate(1754 133)"><tspan x="-17.007" y="0">+</tspan></text>
  <text id="_." data-name="." class="cls-1" transform="translate(1339 318)"><tspan x="-6.58" y="0">.</tspan></text>
  <text id="_.-2" data-name="." class="cls-1" transform="translate(552 737)"><tspan x="-6.58" y="0">.</tspan></text>
  <text id="_.-3" data-name="." class="cls-9" transform="translate(559 152)"><tspan x="-6.58" y="0">.</tspan></text>
  <text id="_.-4" data-name="." class="cls-3" transform="translate(1754 376)"><tspan x="-6.58" y="0">.</tspan></text>
  <text id="_.-5" data-name="." class="cls-9" transform="translate(1510 152)"><tspan x="-6.58" y="0">.</tspan></text>
  <text id="_.-6" data-name="." class="cls-2" transform="translate(1554 806)"><tspan x="-6.58" y="0">.</tspan></text>
  <text id="_.-7" data-name="." class="cls-4" transform="translate(1361 902)"><tspan x="-6.58" y="0">.</tspan></text>
  <text id="_7" data-name="+" class="cls-6" transform="translate(718 879)"><tspan x="-17.007" y="0">+</tspan></text>
  <text id="_.-8" data-name="." class="cls-9" transform="translate(694 511)"><tspan x="-6.58" y="0">.</tspan></text>
  <text id="_.-9" data-name="." class="cls-2" transform="translate(1273 511)"><tspan x="-6.58" y="0">.</tspan></text>
</svg>
