<?xml version="1.0" encoding="utf-8"?>
<!-- Generator: Adobe Illustrator 22.1.0, SVG Export Plug-In . SVG Version: 6.00 Build 0)  -->
<svg version="1.1" id="Layer_1" xmlns="http://www.w3.org/2000/svg" xmlns:xlink="http://www.w3.org/1999/xlink" x="0px" y="0px"
	 viewBox="0 0 875.9 636" style="enable-background:new 0 0 875.9 636;" xml:space="preserve">
<style type="text/css">
	.st0{fill:#352C28;}
	.st1{fill:#E6E7E8;}
	.st2{font-family:'Almaq-Refined';}
	.st3{font-size:60.7021px;}
</style>
<path class="st0" d="M386.6,444.9H47.2c-2.5,0-4.6,2.1-4.6,4.6l0,0c0,2.5,2.1,4.6,4.6,4.6h339.4c2.5,0,4.6-2.1,4.6-4.6l0,0
	C391.2,446.9,389.1,444.9,386.6,444.9z"/>
<g>
	<polygon class="st0" points="162.5,274.9 278.5,390.9 332.8,336.5 271.2,274.9 	"/>
	<polygon class="st0" points="286.7,399.8 294.6,407 349,352.7 342.2,345.4 	"/>
	<polygon class="st0" points="92.7,344.1 85.5,352 139.8,406.3 147.1,399.5 	"/>
	<polygon class="st0" points="270.8,274.9 154.9,390.9 100.5,336.5 162.2,274.9 	"/>
</g>
<g>
	<g>
		<g>
			<circle class="st0" cx="216.7" cy="57.3" r="10.8"/>
		</g>
		<g>
			<circle class="st0" cx="195.9" cy="59" r="10.8"/>
		</g>
		<g>
			<circle class="st0" cx="175.7" cy="64.1" r="10.8"/>
		</g>
		<g>
			<circle class="st0" cx="156.6" cy="72.5" r="10.8"/>
		</g>
		<g>
			<circle class="st0" cx="139.1" cy="83.8" r="10.8"/>
		</g>
		<g>
			<circle class="st0" cx="123.7" cy="97.9" r="10.8"/>
		</g>
		<g>
			<circle class="st0" cx="110.8" cy="114.2" r="10.8"/>
		</g>
		<g>
			<circle class="st0" cx="100.7" cy="132.5" r="10.8"/>
		</g>
		<g>
			<circle class="st0" cx="93.8" cy="152.2" r="10.8"/>
		</g>
		<g>
			<circle class="st0" cx="90.2" cy="172.7" r="10.8"/>
		</g>
		<g>
			<circle class="st0" cx="90" cy="193.6" r="10.8"/>
		</g>
		<g>
			<circle class="st0" cx="93.2" cy="214.2" r="10.8"/>
		</g>
		<g>
			<circle class="st0" cx="99.7" cy="234" r="10.8"/>
		</g>
		<g>
			<circle class="st0" cx="109.4" cy="252.4" r="10.8"/>
		</g>
		<g>
			<g>
				<circle class="st0" cx="122" cy="269.1" r="10.8"/>
			</g>
			<g>
				<circle class="st0" cx="137.1" cy="283.4" r="10.8"/>
			</g>
			<g>
				<circle class="st0" cx="154.4" cy="295.1" r="10.8"/>
			</g>
			<g>
				<circle class="st0" cx="173.4" cy="303.8" r="10.8"/>
			</g>
			<g>
				<circle class="st0" cx="193.5" cy="309.3" r="10.8"/>
			</g>
		</g>
	</g>
	<g>
		<g>
			<circle class="st0" cx="217.1" cy="57.3" r="10.8"/>
		</g>
		<g>
			<circle class="st0" cx="237.9" cy="59" r="10.8"/>
		</g>
		<g>
			<circle class="st0" cx="258.1" cy="64.1" r="10.8"/>
		</g>
		<g>
			<circle class="st0" cx="277.2" cy="72.5" r="10.8"/>
		</g>
		<g>
			<circle class="st0" cx="294.7" cy="83.8" r="10.8"/>
		</g>
		<g>
			<circle class="st0" cx="310.1" cy="97.9" r="10.8"/>
		</g>
		<g>
			<circle class="st0" cx="323" cy="114.2" r="10.8"/>
		</g>
		<g>
			<circle class="st0" cx="333.1" cy="132.5" r="10.8"/>
		</g>
		<g>
			<circle class="st0" cx="340" cy="152.2" r="10.8"/>
		</g>
		<g>
			<circle class="st0" cx="343.6" cy="172.7" r="10.8"/>
		</g>
		<g>
			<circle class="st0" cx="343.8" cy="193.6" r="10.8"/>
		</g>
		<g>
			<circle class="st0" cx="340.6" cy="214.2" r="10.8"/>
		</g>
		<g>
			<circle class="st0" cx="334.1" cy="234" r="10.8"/>
		</g>
		<g>
			<circle class="st0" cx="324.4" cy="252.4" r="10.8"/>
		</g>
		<g>
			<circle class="st0" cx="311.8" cy="269.1" r="10.8"/>
		</g>
		<g>
			<circle class="st0" cx="296.7" cy="283.4" r="10.8"/>
		</g>
		<g>
			<circle class="st0" cx="279.4" cy="295.1" r="10.8"/>
		</g>
		<g>
			<circle class="st0" cx="260.5" cy="303.8" r="10.8"/>
		</g>
		<g>
			<circle class="st0" cx="240.4" cy="309.3" r="10.8"/>
		</g>
		<g>
			<circle class="st0" cx="240.4" cy="309.3" r="10.8"/>
		</g>
	</g>
</g>
<circle class="st1" cx="216.7" cy="184.4" r="121.8"/>
<circle class="st0" cx="216.7" cy="184.4" r="87.9"/>
<g>
	<path class="st0" d="M216.7,68.1c31.1,0,60.3,12.1,82.3,34.1c22,22,34.1,51.2,34.1,82.3S321,244.7,299,266.7
		c-22,22-51.2,34.1-82.3,34.1s-60.3-12.1-82.3-34.1c-22-22-34.1-51.2-34.1-82.3s12.1-60.3,34.1-82.3S185.6,68.1,216.7,68.1
		 M216.7,57.3c-70.2,0-127.1,56.9-127.1,127.1s56.9,127.1,127.1,127.1s127.1-56.9,127.1-127.1S286.9,57.3,216.7,57.3L216.7,57.3z"/>
</g>
<g>
	<path class="st1" d="M174.8,235v-81.3c-3.3,0.2-6.6,0.6-9.9,1.2c-3.3,0.6-6.2,1.1-8.7,1.6v-18.9c1.3-0.4,3.2-0.9,5.5-1.5
		c2.4-0.6,4.9-1.1,7.7-1.6c2.8-0.5,5.6-0.9,8.5-1.3c2.9-0.4,5.7-0.5,8.4-0.5h13V235H174.8z"/>
	<path class="st1" d="M277.3,202.5c0,10.8-3,19.2-9.1,24.9c-6,5.8-15.3,8.7-27.9,8.7c-5.3,0-10-0.3-13.9-1
		c-3.9-0.7-7.3-1.3-10.1-1.9v-19.6c2.5,0.6,5.5,1.3,9.2,1.9c3.7,0.7,7.7,1,12,1c6.2,0,10.7-1.2,13.3-3.6c2.6-2.4,3.9-5.8,3.9-10.1
		c0-5.4-1.4-9-4.1-10.7c-2.8-1.7-6.4-2.6-11-2.6H217v-56.8h55.6v20.1h-35.8v18.4h8.3c10.8,0,18.9,2.6,24.2,7.9
		C274.6,184.4,277.3,192.2,277.3,202.5z"/>
</g>
<text transform="matrix(1 0 0 1 86.044 513.3077)"><tspan x="0" y="0" class="st0 st2 st3">APPSTORE </tspan><tspan x="-64.4" y="54.8" class="st0 st2 st3">WEIRDEST GAME</tspan></text>
<path d="M814.1,444.9H474.7c-2.5,0-4.6,2.1-4.6,4.6l0,0c0,2.5,2.1,4.6,4.6,4.6h339.4c2.5,0,4.6-2.1,4.6-4.6l0,0
	C818.7,446.9,816.6,444.9,814.1,444.9z"/>
<g>
	<polygon class="st0" points="590,274.9 706,390.9 760.3,336.5 698.7,274.9 	"/>
	<polygon class="st0" points="714.2,399.8 722.1,407 776.4,352.7 769.7,345.4 	"/>
	<polygon class="st0" points="520.2,344.1 513,352 567.3,406.3 574.5,399.5 	"/>
	<polygon class="st0" points="698.3,274.9 582.3,390.9 528,336.5 589.6,274.9 	"/>
</g>
<g>
	<g>
		<g>
			<circle class="st0" cx="644.2" cy="57.3" r="10.8"/>
		</g>
		<g>
			<circle class="st0" cx="623.4" cy="59" r="10.8"/>
		</g>
		<g>
			<circle class="st0" cx="603.2" cy="64.1" r="10.8"/>
		</g>
		<g>
			<circle class="st0" cx="584.1" cy="72.5" r="10.8"/>
		</g>
		<g>
			<circle class="st0" cx="566.6" cy="83.8" r="10.8"/>
		</g>
		<g>
			<circle class="st0" cx="551.2" cy="97.9" r="10.8"/>
		</g>
		<g>
			<circle class="st0" cx="538.3" cy="114.2" r="10.8"/>
		</g>
		<g>
			<circle class="st0" cx="528.2" cy="132.5" r="10.8"/>
		</g>
		<g>
			<circle class="st0" cx="521.3" cy="152.2" r="10.8"/>
		</g>
		<g>
			<circle class="st0" cx="517.7" cy="172.7" r="10.8"/>
		</g>
		<g>
			<circle class="st0" cx="517.5" cy="193.6" r="10.8"/>
		</g>
		<g>
			<circle class="st0" cx="520.7" cy="214.2" r="10.8"/>
		</g>
		<g>
			<circle class="st0" cx="527.2" cy="234" r="10.8"/>
		</g>
		<g>
			<circle class="st0" cx="536.9" cy="252.4" r="10.8"/>
		</g>
		<g>
			<g>
				<circle class="st0" cx="549.5" cy="269.1" r="10.8"/>
			</g>
			<g>
				<circle class="st0" cx="564.6" cy="283.4" r="10.8"/>
			</g>
			<g>
				<circle class="st0" cx="581.9" cy="295.1" r="10.8"/>
			</g>
			<g>
				<circle class="st0" cx="600.8" cy="303.8" r="10.8"/>
			</g>
			<g>
				<circle class="st0" cx="621" cy="309.3" r="10.8"/>
			</g>
		</g>
	</g>
	<g>
		<g>
			<circle class="st0" cx="644.6" cy="57.3" r="10.8"/>
		</g>
		<g>
			<circle class="st0" cx="665.4" cy="59" r="10.8"/>
		</g>
		<g>
			<circle class="st0" cx="685.6" cy="64.1" r="10.8"/>
		</g>
		<g>
			<circle class="st0" cx="704.7" cy="72.5" r="10.8"/>
		</g>
		<g>
			<circle class="st0" cx="722.2" cy="83.8" r="10.8"/>
		</g>
		<g>
			<circle class="st0" cx="737.6" cy="97.9" r="10.8"/>
		</g>
		<g>
			<circle class="st0" cx="750.5" cy="114.2" r="10.8"/>
		</g>
		<g>
			<circle class="st0" cx="760.6" cy="132.5" r="10.8"/>
		</g>
		<g>
			<circle class="st0" cx="767.5" cy="152.2" r="10.8"/>
		</g>
		<g>
			<circle class="st0" cx="771.1" cy="172.7" r="10.8"/>
		</g>
		<g>
			<circle class="st0" cx="771.3" cy="193.6" r="10.8"/>
		</g>
		<g>
			<circle class="st0" cx="768.1" cy="214.2" r="10.8"/>
		</g>
		<g>
			<circle class="st0" cx="761.6" cy="234" r="10.8"/>
		</g>
		<g>
			<circle class="st0" cx="751.9" cy="252.4" r="10.8"/>
		</g>
		<g>
			<circle class="st0" cx="739.3" cy="269.1" r="10.8"/>
		</g>
		<g>
			<circle class="st0" cx="724.2" cy="283.4" r="10.8"/>
		</g>
		<g>
			<circle class="st0" cx="706.9" cy="295.1" r="10.8"/>
		</g>
		<g>
			<circle class="st0" cx="688" cy="303.8" r="10.8"/>
		</g>
		<g>
			<circle class="st0" cx="667.8" cy="309.3" r="10.8"/>
		</g>
		<g>
			<circle class="st0" cx="667.8" cy="309.3" r="10.8"/>
		</g>
	</g>
</g>
<circle class="st1" cx="644.2" cy="184.4" r="121.8"/>
<circle class="st0" cx="644.2" cy="184.4" r="87.9"/>
<g>
	<path class="st0" d="M644.2,68.1c31.1,0,60.3,12.1,82.3,34.1s34.1,51.2,34.1,82.3s-12.1,60.3-34.1,82.3c-22,22-51.2,34.1-82.3,34.1
		s-60.3-12.1-82.3-34.1c-22-22-34.1-51.2-34.1-82.3s12.1-60.3,34.1-82.3C583.9,80.2,613.1,68.1,644.2,68.1 M644.2,57.3
		c-70.2,0-127.1,56.9-127.1,127.1S574,311.4,644.2,311.4s127.1-56.9,127.1-127.1S714.4,57.3,644.2,57.3L644.2,57.3z"/>
</g>
<g>
	<path class="st1" d="M602.2,235v-81.3c-3.3,0.2-6.6,0.6-9.9,1.2c-3.3,0.6-6.2,1.1-8.7,1.6v-18.9c1.3-0.4,3.2-0.9,5.5-1.5
		c2.4-0.6,4.9-1.1,7.7-1.6c2.8-0.5,5.6-0.9,8.5-1.3c2.9-0.4,5.7-0.5,8.4-0.5h13V235H602.2z"/>
	<path class="st1" d="M704.7,202.5c0,10.8-3,19.2-9.1,24.9c-6,5.8-15.3,8.7-27.9,8.7c-5.3,0-10-0.3-13.9-1
		c-3.9-0.7-7.3-1.3-10.1-1.9v-19.6c2.5,0.6,5.5,1.3,9.2,1.9c3.7,0.7,7.7,1,12,1c6.2,0,10.7-1.2,13.3-3.6c2.6-2.4,3.9-5.8,3.9-10.1
		c0-5.4-1.4-9-4.1-10.7c-2.8-1.7-6.4-2.6-11-2.6h-22.6v-56.8H700v20.1h-35.8v18.4h8.3c10.8,0,18.9,2.6,24.2,7.9
		C702.1,184.4,704.7,192.2,704.7,202.5z"/>
</g>
<text transform="matrix(1 0 0 1 513.5226 513.3077)"><tspan x="0" y="0" class="st0 st2 st3">APPSTORE </tspan><tspan x="-75.5" y="54.8" class="st0 st2 st3">CRAZIEST WORLD</tspan></text>
</svg>
