<?xml version="1.0" encoding="utf-8"?>
<!-- Generator: Adobe Illustrator 22.1.0, SVG Export Plug-In . SVG Version: 6.00 Build 0)  -->
<svg version="1.1" id="Layer_1" xmlns="http://www.w3.org/2000/svg" xmlns:xlink="http://www.w3.org/1999/xlink" x="0px" y="0px"
	 viewBox="0 0 875.9 636" style="enable-background:new 0 0 875.9 636;" xml:space="preserve">
<style type="text/css">
	.st0{fill:#352C28;}
	.st1{fill:#E6E7E8;}
	.st2{enable-background:new    ;}
</style>
<path class="st0" d="M386.6,444.9H47.2c-2.5,0-4.6,2.1-4.6,4.6l0,0c0,2.5,2.1,4.6,4.6,4.6h339.4c2.5,0,4.6-2.1,4.6-4.6l0,0
	C391.2,446.9,389.1,444.9,386.6,444.9z"/>
<g>
	<polygon class="st0" points="162.5,274.9 278.5,390.9 332.8,336.5 271.2,274.9 	"/>
	<polygon class="st0" points="286.7,399.8 294.6,407 349,352.7 342.2,345.4 	"/>
	<polygon class="st0" points="92.7,344.1 85.5,352 139.8,406.3 147.1,399.5 	"/>
	<polygon class="st0" points="270.8,274.9 154.9,390.9 100.5,336.5 162.2,274.9 	"/>
</g>
<g>
	<g>
		<g>
			<circle class="st0" cx="216.7" cy="57.3" r="10.8"/>
		</g>
		<g>
			<circle class="st0" cx="195.9" cy="59" r="10.8"/>
		</g>
		<g>
			<circle class="st0" cx="175.7" cy="64.1" r="10.8"/>
		</g>
		<g>
			<circle class="st0" cx="156.6" cy="72.5" r="10.8"/>
		</g>
		<g>
			<circle class="st0" cx="139.1" cy="83.8" r="10.8"/>
		</g>
		<g>
			<circle class="st0" cx="123.7" cy="97.9" r="10.8"/>
		</g>
		<g>
			<circle class="st0" cx="110.8" cy="114.2" r="10.8"/>
		</g>
		<g>
			<circle class="st0" cx="100.7" cy="132.5" r="10.8"/>
		</g>
		<g>
			<circle class="st0" cx="93.8" cy="152.2" r="10.8"/>
		</g>
		<g>
			<circle class="st0" cx="90.2" cy="172.7" r="10.8"/>
		</g>
		<g>
			<circle class="st0" cx="90" cy="193.6" r="10.8"/>
		</g>
		<g>
			<circle class="st0" cx="93.2" cy="214.2" r="10.8"/>
		</g>
		<g>
			<circle class="st0" cx="99.7" cy="234" r="10.8"/>
		</g>
		<g>
			<circle class="st0" cx="109.4" cy="252.4" r="10.8"/>
		</g>
		<g>
			<g>
				<circle class="st0" cx="122" cy="269.1" r="10.8"/>
			</g>
			<g>
				<circle class="st0" cx="137.1" cy="283.4" r="10.8"/>
			</g>
			<g>
				<circle class="st0" cx="154.4" cy="295.1" r="10.8"/>
			</g>
			<g>
				<circle class="st0" cx="173.4" cy="303.8" r="10.8"/>
			</g>
			<g>
				<circle class="st0" cx="193.5" cy="309.3" r="10.8"/>
			</g>
		</g>
	</g>
	<g>
		<g>
			<circle class="st0" cx="217.1" cy="57.3" r="10.8"/>
		</g>
		<g>
			<circle class="st0" cx="237.9" cy="59" r="10.8"/>
		</g>
		<g>
			
				<ellipse transform="matrix(0.1735 -0.9848 0.9848 0.1735 150.191 307.1639)" class="st0" cx="258.1" cy="64.1" rx="10.8" ry="10.8"/>
		</g>
		<g>
			<circle class="st0" cx="277.2" cy="72.5" r="10.8"/>
		</g>
		<g>
			<circle class="st0" cx="294.7" cy="83.8" r="10.8"/>
		</g>
		<g>
			<circle class="st0" cx="310.1" cy="97.9" r="10.8"/>
		</g>
		<g>
			<circle class="st0" cx="323" cy="114.2" r="10.8"/>
		</g>
		<g>
			<circle class="st0" cx="333.1" cy="132.5" r="10.8"/>
		</g>
		<g>
			<circle class="st0" cx="340" cy="152.2" r="10.8"/>
		</g>
		<g>
			<circle class="st0" cx="343.6" cy="172.7" r="10.8"/>
		</g>
		<g>
			<circle class="st0" cx="343.8" cy="193.6" r="10.8"/>
		</g>
		<g>
			<circle class="st0" cx="340.6" cy="214.2" r="10.8"/>
		</g>
		<g>
			<circle class="st0" cx="334.1" cy="234" r="10.8"/>
		</g>
		<g>
			<circle class="st0" cx="324.4" cy="252.4" r="10.8"/>
		</g>
		<g>
			<circle class="st0" cx="311.8" cy="269.1" r="10.8"/>
		</g>
		<g>
			<circle class="st0" cx="296.7" cy="283.4" r="10.8"/>
		</g>
		<g>
			<circle class="st0" cx="279.4" cy="295.1" r="10.8"/>
		</g>
		<g>
			<circle class="st0" cx="260.5" cy="303.8" r="10.8"/>
		</g>
		<g>
			<circle class="st0" cx="240.4" cy="309.3" r="10.8"/>
		</g>
		<g>
			<circle class="st0" cx="240.4" cy="309.3" r="10.8"/>
		</g>
	</g>
</g>
<circle class="st1" cx="216.7" cy="184.4" r="121.8"/>
<circle class="st0" cx="216.7" cy="184.4" r="87.9"/>
<g>
	<path class="st0" d="M216.7,68.1c31.1,0,60.3,12.1,82.3,34.1s34.1,51.2,34.1,82.3S321,244.7,299,266.7s-51.2,34.1-82.3,34.1
		s-60.3-12.1-82.3-34.1s-34.1-51.2-34.1-82.3s12.1-60.3,34.1-82.3S185.6,68.1,216.7,68.1 M216.7,57.3
		c-70.2,0-127.1,56.9-127.1,127.1s56.9,127.1,127.1,127.1s127.1-56.9,127.1-127.1S286.9,57.3,216.7,57.3L216.7,57.3z"/>
</g>
<g>
	<path class="st1" d="M174.8,235v-81.3c-3.3,0.2-6.6,0.6-9.9,1.2c-3.3,0.6-6.2,1.1-8.7,1.6v-18.9c1.3-0.4,3.2-0.9,5.5-1.5
		c2.4-0.6,4.9-1.1,7.7-1.6s5.6-0.9,8.5-1.3c2.9-0.4,5.7-0.5,8.4-0.5h13V235H174.8z"/>
	<path class="st1" d="M277.3,202.5c0,10.8-3,19.2-9.1,24.9c-6,5.8-15.3,8.7-27.9,8.7c-5.3,0-10-0.3-13.9-1s-7.3-1.3-10.1-1.9v-19.6
		c2.5,0.6,5.5,1.3,9.2,1.9c3.7,0.7,7.7,1,12,1c6.2,0,10.7-1.2,13.3-3.6c2.6-2.4,3.9-5.8,3.9-10.1c0-5.4-1.4-9-4.1-10.7
		c-2.8-1.7-6.4-2.6-11-2.6H217v-56.8h55.6v20.1h-35.8v18.4h8.3c10.8,0,18.9,2.6,24.2,7.9C274.6,184.4,277.3,192.2,277.3,202.5z"/>
</g>
<g class="st2">
	<path class="st0" d="M97.5,472.8h10.7l10.6,40.5h-9.7l-1.9-8.9h-9.5l-2,8.9h-9.3L97.5,472.8z M105.4,496.9l-3-13.6l-3,13.6H105.4z"
		/>
	<path class="st0" d="M122.3,472.8h14.1c4.2,0,7.2,1.1,9.2,3.4c2,2.3,2.9,5.6,2.9,10c0,4.2-1,7.5-3,9.9c-2,2.4-5,3.7-8.9,3.7h-4.6
		v13.5h-9.8V472.8z M134.8,492.2c1.2,0,2.1-0.4,2.7-1.3c0.6-0.8,0.9-2.3,0.9-4.5c0-2.2-0.3-3.8-0.9-4.6c-0.6-0.9-1.4-1.3-2.6-1.3
		h-2.9v11.7H134.8z"/>
	<path class="st0" d="M153.6,472.8h14.1c4.2,0,7.2,1.1,9.2,3.4c2,2.3,2.9,5.6,2.9,10c0,4.2-1,7.5-3,9.9c-2,2.4-5,3.7-8.9,3.7h-4.6
		v13.5h-9.8V472.8z M166.1,492.2c1.2,0,2.1-0.4,2.7-1.3c0.6-0.8,0.9-2.3,0.9-4.5c0-2.2-0.3-3.8-0.9-4.6c-0.6-0.9-1.4-1.3-2.6-1.3
		h-2.9v11.7H166.1z"/>
	<path class="st0" d="M199.9,501.7c0-0.6-0.1-1-0.3-1.4c-0.2-0.4-0.5-0.7-0.9-1.1c-0.4-0.3-1-0.7-1.7-1c-0.7-0.3-1.6-0.7-2.6-1.2
		l-3.4-1.5c-1-0.4-2-0.9-2.8-1.5c-0.9-0.6-1.6-1.3-2.3-2.2c-0.7-0.9-1.2-2-1.6-3.2c-0.4-1.3-0.6-2.8-0.6-4.6c0-1.9,0.3-3.6,1-5.1
		c0.7-1.5,1.7-2.7,2.9-3.6c1.3-1,2.8-1.7,4.6-2.2c1.8-0.5,3.8-0.7,5.9-0.7c1.8,0,3.5,0.1,5.2,0.2c1.6,0.2,3.2,0.4,4.6,0.6v7.9
		c-1.4-0.2-2.8-0.4-4.1-0.6c-1.3-0.2-2.9-0.2-4.6-0.2c-1.8,0-3.2,0.2-4.3,0.7c-1.1,0.5-1.6,1.4-1.6,2.7c0,0.7,0.2,1.3,0.5,1.8
		c0.3,0.5,0.7,0.9,1.3,1.3c0.6,0.4,1.2,0.7,2,1.1c0.7,0.3,1.6,0.7,2.5,1.1l3.6,1.6c2.2,1,3.9,2.3,5.1,3.9c1.2,1.6,1.9,3.9,1.9,6.6
		c0,8.5-5.3,12.7-16,12.7c-2.3,0-4.2-0.1-5.8-0.3c-1.6-0.2-3.2-0.4-4.7-0.7v-8c0.7,0.1,1.4,0.3,2.1,0.4c0.7,0.1,1.4,0.3,2.1,0.3
		s1.5,0.2,2.3,0.2c0.8,0.1,1.8,0.1,2.8,0.1c2.4,0,4.2-0.3,5.3-1C199.4,504.2,199.9,503.2,199.9,501.7z"/>
	<path class="st0" d="M220.4,480.8h-8.7v-8h27.7v8h-8.7v32.5h-10.3V480.8z"/>
	<path class="st0" d="M256.9,514.2c-2.3,0-4.5-0.3-6.4-1c-1.9-0.7-3.5-1.7-4.9-3.2c-1.4-1.5-2.4-3.4-3.1-5.8s-1.1-5.3-1.1-8.7v-4.9
		c0-3.4,0.4-6.3,1.1-8.7c0.7-2.4,1.8-4.3,3.2-5.8c1.4-1.5,3-2.5,4.9-3.2c1.9-0.7,4-1,6.3-1c2.3,0,4.5,0.3,6.4,1
		c1.9,0.7,3.5,1.7,4.9,3.2c1.3,1.5,2.4,3.4,3.1,5.8c0.7,2.4,1.1,5.3,1.1,8.7v4.9c0,3.4-0.4,6.3-1.1,8.7c-0.7,2.4-1.7,4.3-3.1,5.8
		c-1.3,1.5-3,2.5-4.9,3.2C261.5,513.8,259.3,514.2,256.9,514.2z M257,479.6c-1.1,0-2,0.2-2.6,0.7c-0.7,0.5-1.2,1.2-1.5,2.1
		s-0.6,2.1-0.8,3.4c-0.1,1.4-0.2,3-0.2,4.9v4.7c0,1.9,0.1,3.5,0.2,4.9c0.1,1.4,0.4,2.5,0.8,3.4c0.4,0.9,0.9,1.6,1.5,2.1
		c0.6,0.5,1.5,0.7,2.5,0.7c1.1,0,2-0.2,2.6-0.7c0.7-0.5,1.2-1.2,1.5-2.1c0.4-0.9,0.6-2.1,0.7-3.4c0.1-1.4,0.2-3,0.2-4.9v-4.7
		c0-3.7-0.3-6.5-0.9-8.3C260.4,480.5,259,479.6,257,479.6z"/>
	<path class="st0" d="M277.9,472.8h14.7c8.2,0,12.3,4,12.3,12.1c0,2.2-0.3,4.1-1,5.7c-0.7,1.6-1.8,2.9-3.3,3.9
		c1.2,0.8,2,1.8,2.5,3.1c0.5,1.3,0.7,2.7,0.7,4.3v11.5h-9.6v-10.8c0-1.1-0.2-2.1-0.5-2.9c-0.3-0.8-1.1-1.3-2.4-1.3h-3.8v15h-9.6
		V472.8z M291.5,491.1c1,0,1.7-0.4,2.3-1.2c0.6-0.8,0.9-2.1,0.9-4.1c0-2.1-0.3-3.5-0.9-4.2c-0.6-0.8-1.4-1.2-2.5-1.2h-3.9v10.6
		H291.5z"/>
	<path class="st0" d="M309.9,472.8h23.6v7.8h-13.8v8.2h12.6v7.8h-12.6v9h14.3v7.8h-24V472.8z"/>
</g>
<g class="st2">
	<path class="st0" d="M22,527.6h10l3,25.4l4.7-25.1h8l4.7,25.3l2.9-25.6H65l-7.5,40.5h-9.6l-4.2-23.4L39,568.1h-9.8L22,527.6z"/>
	<path class="st0" d="M68.5,527.6h23.6v7.8H78.2v8.2h12.6v7.8H78.2v9h14.3v7.8h-24V527.6z"/>
	<path class="st0" d="M97.3,527.6h10.2v40.5H97.3V527.6z"/>
	<path class="st0" d="M113.8,527.6h14.7c8.2,0,12.3,4,12.3,12.1c0,2.2-0.3,4.1-1,5.7c-0.7,1.6-1.8,2.9-3.3,3.9
		c1.2,0.8,2,1.8,2.5,3.1c0.5,1.3,0.7,2.7,0.7,4.3v11.5h-9.6v-10.8c0-1.1-0.2-2.1-0.5-2.9c-0.3-0.8-1.1-1.3-2.4-1.3h-3.8v15h-9.6
		V527.6z M127.4,545.9c1,0,1.7-0.4,2.3-1.2c0.6-0.8,0.9-2.1,0.9-4.1c0-2.1-0.3-3.5-0.9-4.2c-0.6-0.8-1.4-1.2-2.5-1.2h-3.9v10.6
		H127.4z"/>
	<path class="st0" d="M145.8,568.1v-40.5h13.5c2.3,0,4.5,0.3,6.4,0.9c1.9,0.6,3.6,1.6,5,3.1c1.4,1.4,2.4,3.3,3.2,5.6
		c0.8,2.3,1.2,5.2,1.2,8.6v4.1c0,3.4-0.4,6.3-1.2,8.6c-0.8,2.3-1.9,4.2-3.3,5.6c-1.4,1.4-3.1,2.5-5,3.1c-1.9,0.6-4,0.9-6.3,0.9
		H145.8z M155.6,560.2h2.5c1.1,0,2-0.1,2.8-0.4c0.8-0.2,1.5-0.7,2.1-1.4c0.6-0.7,1-1.7,1.3-2.9c0.3-1.3,0.5-2.9,0.5-5v-5.2
		c0-2-0.1-3.7-0.4-4.9c-0.3-1.3-0.7-2.3-1.2-3c-0.5-0.7-1.2-1.2-2-1.5c-0.8-0.3-1.7-0.4-2.8-0.4h-2.6V560.2z"/>
	<path class="st0" d="M180.6,527.6h23.6v7.8h-13.8v8.2h12.6v7.8h-12.6v9h14.3v7.8h-24V527.6z"/>
	<path class="st0" d="M224.3,556.5c0-0.6-0.1-1-0.3-1.4c-0.2-0.4-0.5-0.7-0.9-1.1c-0.4-0.3-1-0.7-1.7-1c-0.7-0.3-1.6-0.7-2.6-1.2
		l-3.4-1.5c-1-0.4-2-0.9-2.8-1.5c-0.9-0.6-1.6-1.3-2.3-2.2c-0.7-0.9-1.2-2-1.6-3.2c-0.4-1.3-0.6-2.8-0.6-4.6c0-1.9,0.3-3.6,1-5.1
		c0.7-1.5,1.7-2.7,2.9-3.6c1.3-1,2.8-1.7,4.6-2.2c1.8-0.5,3.8-0.7,5.9-0.7c1.8,0,3.5,0.1,5.2,0.2c1.6,0.2,3.2,0.4,4.6,0.6v7.9
		c-1.4-0.2-2.8-0.4-4.1-0.6c-1.3-0.2-2.9-0.2-4.6-0.2c-1.8,0-3.2,0.2-4.3,0.7c-1.1,0.5-1.6,1.4-1.6,2.7c0,0.7,0.2,1.3,0.5,1.8
		c0.3,0.5,0.7,0.9,1.3,1.3c0.6,0.4,1.2,0.7,2,1.1c0.7,0.3,1.6,0.7,2.5,1.1l3.6,1.6c2.2,1,3.9,2.3,5.1,3.9c1.2,1.6,1.9,3.9,1.9,6.6
		c0,8.5-5.3,12.7-16,12.7c-2.3,0-4.2-0.1-5.8-0.3c-1.6-0.2-3.2-0.4-4.7-0.7v-8c0.7,0.1,1.4,0.3,2.1,0.4c0.7,0.1,1.4,0.3,2.1,0.3
		s1.5,0.2,2.3,0.2c0.8,0.1,1.8,0.1,2.8,0.1c2.4,0,4.2-0.3,5.3-1C223.8,559,224.3,558,224.3,556.5z"/>
	<path class="st0" d="M244.8,535.6H236v-8h27.7v8H255v32.5h-10.3V535.6z"/>
	<path class="st0" d="M275.6,545.2c0-3.4,0.4-6.3,1.3-8.6c0.9-2.3,2.1-4.2,3.6-5.6s3.5-2.4,5.7-3c2.2-0.6,4.7-0.9,7.5-0.9
		c1.6,0,3.1,0.1,4.5,0.2c1.4,0.2,2.8,0.4,4.1,0.7v7.9c-1.3-0.3-2.4-0.6-3.5-0.7c-1.1-0.1-2.3-0.2-3.7-0.2c-1.3,0-2.6,0.1-3.7,0.3
		c-1.1,0.2-2.1,0.6-2.9,1.2c-0.8,0.6-1.5,1.6-1.9,2.8c-0.4,1.2-0.7,2.8-0.7,4.9v7.3c0,2.1,0.2,3.7,0.7,4.9c0.4,1.2,1.1,2.1,1.8,2.8
		c0.8,0.6,1.6,1.1,2.6,1.2c1,0.2,2,0.3,3,0.3c0.2,0,0.4,0,0.6,0s0.5,0,0.9-0.1v-8.7h-4v-7.5h12.6v23.2c-1.3,0.2-2.8,0.5-4.5,0.7
		c-1.7,0.2-3.7,0.3-5.8,0.3c-2.8,0-5.3-0.3-7.5-0.9c-2.2-0.6-4.2-1.6-5.7-3c-1.6-1.4-2.8-3.3-3.7-5.6c-0.9-2.3-1.3-5.2-1.3-8.6
		V545.2z"/>
	<path class="st0" d="M318.4,527.6H329l10.6,40.5H330l-1.9-8.9h-9.5l-2,8.9h-9.3L318.4,527.6z M326.3,551.7l-3-13.6l-3,13.6H326.3z"
		/>
	<path class="st0" d="M343.2,527.6h9.2l8.1,19l7.8-19h9.4v40.5h-9.6v-22.2l-5.2,12.3h-5l-5.6-12.9v22.8h-9.1V527.6z"/>
	<path class="st0" d="M384,527.6h23.6v7.8h-13.8v8.2h12.6v7.8h-12.6v9H408v7.8h-24V527.6z"/>
</g>
<path d="M814.1,444.9H474.7c-2.5,0-4.6,2.1-4.6,4.6l0,0c0,2.5,2.1,4.6,4.6,4.6h339.4c2.5,0,4.6-2.1,4.6-4.6l0,0
	C818.7,446.9,816.6,444.9,814.1,444.9z"/>
<g>
	<polygon class="st0" points="590,274.9 706,390.9 760.3,336.5 698.7,274.9 	"/>
	<polygon class="st0" points="714.2,399.8 722.1,407 776.4,352.7 769.7,345.4 	"/>
	<polygon class="st0" points="520.2,344.1 513,352 567.3,406.3 574.5,399.5 	"/>
	<polygon class="st0" points="698.3,274.9 582.3,390.9 528,336.5 589.6,274.9 	"/>
</g>
<g>
	<g>
		<g>
			<circle class="st0" cx="644.2" cy="57.3" r="10.8"/>
		</g>
		<g>
			<circle class="st0" cx="623.4" cy="59" r="10.8"/>
		</g>
		<g>
			<circle class="st0" cx="603.2" cy="64.1" r="10.8"/>
		</g>
		<g>
			<circle class="st0" cx="584.1" cy="72.5" r="10.8"/>
		</g>
		<g>
			<circle class="st0" cx="566.6" cy="83.8" r="10.8"/>
		</g>
		<g>
			<circle class="st0" cx="551.2" cy="97.9" r="10.8"/>
		</g>
		<g>
			<circle class="st0" cx="538.3" cy="114.2" r="10.8"/>
		</g>
		<g>
			<circle class="st0" cx="528.2" cy="132.5" r="10.8"/>
		</g>
		<g>
			<circle class="st0" cx="521.3" cy="152.2" r="10.8"/>
		</g>
		<g>
			<circle class="st0" cx="517.7" cy="172.7" r="10.8"/>
		</g>
		<g>
			<circle class="st0" cx="517.5" cy="193.6" r="10.8"/>
		</g>
		<g>
			<circle class="st0" cx="520.7" cy="214.2" r="10.8"/>
		</g>
		<g>
			<circle class="st0" cx="527.2" cy="234" r="10.8"/>
		</g>
		<g>
			<circle class="st0" cx="536.9" cy="252.4" r="10.8"/>
		</g>
		<g>
			<g>
				<circle class="st0" cx="549.5" cy="269.1" r="10.8"/>
			</g>
			<g>
				<circle class="st0" cx="564.6" cy="283.4" r="10.8"/>
			</g>
			<g>
				<circle class="st0" cx="581.9" cy="295.1" r="10.8"/>
			</g>
			<g>
				<circle class="st0" cx="600.8" cy="303.8" r="10.8"/>
			</g>
			<g>
				<circle class="st0" cx="621" cy="309.3" r="10.8"/>
			</g>
		</g>
	</g>
	<g>
		<g>
			<circle class="st0" cx="644.6" cy="57.3" r="10.8"/>
		</g>
		<g>
			<circle class="st0" cx="665.4" cy="59" r="10.8"/>
		</g>
		<g>
			<circle class="st0" cx="685.6" cy="64.1" r="10.8"/>
		</g>
		<g>
			<circle class="st0" cx="704.7" cy="72.5" r="10.8"/>
		</g>
		<g>
			<circle class="st0" cx="722.2" cy="83.8" r="10.8"/>
		</g>
		<g>
			<circle class="st0" cx="737.6" cy="97.9" r="10.8"/>
		</g>
		<g>
			<circle class="st0" cx="750.5" cy="114.2" r="10.8"/>
		</g>
		<g>
			<circle class="st0" cx="760.6" cy="132.5" r="10.8"/>
		</g>
		<g>
			<circle class="st0" cx="767.5" cy="152.2" r="10.8"/>
		</g>
		<g>
			<circle class="st0" cx="771.1" cy="172.7" r="10.8"/>
		</g>
		<g>
			<circle class="st0" cx="771.3" cy="193.6" r="10.8"/>
		</g>
		<g>
			<circle class="st0" cx="768.1" cy="214.2" r="10.8"/>
		</g>
		<g>
			<circle class="st0" cx="761.6" cy="234" r="10.8"/>
		</g>
		<g>
			<circle class="st0" cx="751.9" cy="252.4" r="10.8"/>
		</g>
		<g>
			<circle class="st0" cx="739.3" cy="269.1" r="10.8"/>
		</g>
		<g>
			<circle class="st0" cx="724.2" cy="283.4" r="10.8"/>
		</g>
		<g>
			<circle class="st0" cx="706.9" cy="295.1" r="10.8"/>
		</g>
		<g>
			<circle class="st0" cx="688" cy="303.8" r="10.8"/>
		</g>
		<g>
			<circle class="st0" cx="667.8" cy="309.3" r="10.8"/>
		</g>
		<g>
			<circle class="st0" cx="667.8" cy="309.3" r="10.8"/>
		</g>
	</g>
</g>
<circle class="st1" cx="644.2" cy="184.4" r="121.8"/>
<circle class="st0" cx="644.2" cy="184.4" r="87.9"/>
<g>
	<path class="st0" d="M644.2,68.1c31.1,0,60.3,12.1,82.3,34.1s34.1,51.2,34.1,82.3s-12.1,60.3-34.1,82.3s-51.2,34.1-82.3,34.1
		s-60.3-12.1-82.3-34.1s-34.1-51.2-34.1-82.3s12.1-60.3,34.1-82.3S613.1,68.1,644.2,68.1 M644.2,57.3
		c-70.2,0-127.1,56.9-127.1,127.1s56.9,127,127.1,127s127.1-56.9,127.1-127.1S714.4,57.3,644.2,57.3L644.2,57.3z"/>
</g>
<g>
	<path class="st1" d="M602.2,235v-81.3c-3.3,0.2-6.6,0.6-9.9,1.2c-3.3,0.6-6.2,1.1-8.7,1.6v-18.9c1.3-0.4,3.2-0.9,5.5-1.5
		c2.4-0.6,4.9-1.1,7.7-1.6s5.6-0.9,8.5-1.3c2.9-0.4,5.7-0.5,8.4-0.5h13V235H602.2z"/>
	<path class="st1" d="M704.7,202.5c0,10.8-3,19.2-9.1,24.9c-6,5.8-15.3,8.7-27.9,8.7c-5.3,0-10-0.3-13.9-1s-7.3-1.3-10.1-1.9v-19.6
		c2.5,0.6,5.5,1.3,9.2,1.9c3.7,0.7,7.7,1,12,1c6.2,0,10.7-1.2,13.3-3.6c2.6-2.4,3.9-5.8,3.9-10.1c0-5.4-1.4-9-4.1-10.7
		c-2.8-1.7-6.4-2.6-11-2.6h-22.6v-56.8H700v20.1h-35.8v18.4h8.3c10.8,0,18.9,2.6,24.2,7.9C702.1,184.4,704.7,192.2,704.7,202.5z"/>
</g>
<g class="st2">
	<path class="st0" d="M524.9,472.8h10.7l10.6,40.5h-9.7l-1.9-8.9h-9.5l-2,8.9h-9.3L524.9,472.8z M532.9,496.9l-3-13.6l-3,13.6H532.9
		z"/>
	<path class="st0" d="M549.8,472.8h14.1c4.2,0,7.2,1.1,9.2,3.4c2,2.3,2.9,5.6,2.9,10c0,4.2-1,7.5-3,9.9c-2,2.4-5,3.7-8.9,3.7h-4.6
		v13.5h-9.8V472.8z M562.3,492.2c1.2,0,2.1-0.4,2.7-1.3c0.6-0.8,0.9-2.3,0.9-4.5c0-2.2-0.3-3.8-0.9-4.6c-0.6-0.9-1.4-1.3-2.6-1.3
		h-2.9v11.7H562.3z"/>
	<path class="st0" d="M581.1,472.8h14.1c4.2,0,7.2,1.1,9.2,3.4c2,2.3,2.9,5.6,2.9,10c0,4.2-1,7.5-3,9.9c-2,2.4-5,3.7-8.9,3.7h-4.6
		v13.5h-9.8V472.8z M593.6,492.2c1.2,0,2.1-0.4,2.7-1.3c0.6-0.8,0.9-2.3,0.9-4.5c0-2.2-0.3-3.8-0.9-4.6c-0.6-0.9-1.4-1.3-2.6-1.3
		h-2.9v11.7H593.6z"/>
	<path class="st0" d="M627.4,501.7c0-0.6-0.1-1-0.3-1.4c-0.2-0.4-0.5-0.7-0.9-1.1c-0.4-0.3-1-0.7-1.7-1c-0.7-0.3-1.6-0.7-2.6-1.2
		l-3.4-1.5c-1-0.4-2-0.9-2.8-1.5c-0.9-0.6-1.6-1.3-2.3-2.2c-0.7-0.9-1.2-2-1.6-3.2c-0.4-1.3-0.6-2.8-0.6-4.6c0-1.9,0.3-3.6,1-5.1
		c0.7-1.5,1.7-2.7,2.9-3.6c1.3-1,2.8-1.7,4.6-2.2c1.8-0.5,3.8-0.7,5.9-0.7c1.8,0,3.5,0.1,5.2,0.2c1.6,0.2,3.2,0.4,4.6,0.6v7.9
		c-1.4-0.2-2.8-0.4-4.1-0.6c-1.3-0.2-2.9-0.2-4.6-0.2c-1.8,0-3.2,0.2-4.3,0.7c-1.1,0.5-1.6,1.4-1.6,2.7c0,0.7,0.2,1.3,0.5,1.8
		c0.3,0.5,0.7,0.9,1.3,1.3c0.6,0.4,1.2,0.7,2,1.1c0.7,0.3,1.6,0.7,2.5,1.1l3.6,1.6c2.2,1,3.9,2.3,5.1,3.9c1.2,1.6,1.9,3.9,1.9,6.6
		c0,8.5-5.3,12.7-16,12.7c-2.3,0-4.2-0.1-5.8-0.3c-1.6-0.2-3.2-0.4-4.7-0.7v-8c0.7,0.1,1.4,0.3,2.1,0.4c0.7,0.1,1.4,0.3,2.1,0.3
		s1.5,0.2,2.3,0.2c0.8,0.1,1.8,0.1,2.8,0.1c2.4,0,4.2-0.3,5.3-1C626.9,504.2,627.4,503.2,627.4,501.7z"/>
	<path class="st0" d="M647.9,480.8h-8.7v-8h27.7v8h-8.7v32.5h-10.3V480.8z"/>
	<path class="st0" d="M684.4,514.2c-2.3,0-4.5-0.3-6.4-1c-1.9-0.7-3.5-1.7-4.9-3.2c-1.4-1.5-2.4-3.4-3.1-5.8s-1.1-5.3-1.1-8.7v-4.9
		c0-3.4,0.4-6.3,1.1-8.7c0.7-2.4,1.8-4.3,3.2-5.8c1.4-1.5,3-2.5,4.9-3.2c1.9-0.7,4-1,6.3-1c2.3,0,4.5,0.3,6.4,1
		c1.9,0.7,3.5,1.7,4.9,3.2c1.3,1.5,2.4,3.4,3.1,5.8s1.1,5.3,1.1,8.7v4.9c0,3.4-0.4,6.3-1.1,8.7s-1.7,4.3-3.1,5.8
		c-1.3,1.5-3,2.5-4.9,3.2C688.9,513.8,686.8,514.2,684.4,514.2z M684.5,479.6c-1.1,0-2,0.2-2.6,0.7c-0.7,0.5-1.2,1.2-1.5,2.1
		s-0.6,2.1-0.8,3.4c-0.1,1.4-0.2,3-0.2,4.9v4.7c0,1.9,0.1,3.5,0.2,4.9c0.1,1.4,0.4,2.5,0.8,3.4c0.4,0.9,0.9,1.6,1.5,2.1
		c0.6,0.5,1.5,0.7,2.5,0.7c1.1,0,2-0.2,2.6-0.7c0.7-0.5,1.2-1.2,1.5-2.1c0.4-0.9,0.6-2.1,0.7-3.4c0.1-1.4,0.2-3,0.2-4.9v-4.7
		c0-3.7-0.3-6.5-0.9-8.3C687.9,480.5,686.5,479.6,684.5,479.6z"/>
	<path class="st0" d="M705.3,472.8H720c8.2,0,12.3,4,12.3,12.1c0,2.2-0.3,4.1-1,5.7c-0.7,1.6-1.8,2.9-3.3,3.9c1.2,0.8,2,1.8,2.5,3.1
		c0.5,1.3,0.7,2.7,0.7,4.3v11.5h-9.6v-10.8c0-1.1-0.2-2.1-0.5-2.9c-0.3-0.8-1.1-1.3-2.4-1.3h-3.8v15h-9.6V472.8z M719,491.1
		c1,0,1.7-0.4,2.3-1.2s0.9-2.1,0.9-4.1c0-2.1-0.3-3.5-0.9-4.2c-0.6-0.8-1.4-1.2-2.5-1.2h-3.9v10.6H719z"/>
	<path class="st0" d="M737.3,472.8h23.6v7.8H747v8.2h12.6v7.8H747v9h14.3v7.8h-24V472.8z"/>
</g>
<g class="st2">
	<path class="st0" d="M440.4,545.2c0-3.4,0.4-6.3,1.3-8.6s2-4.2,3.5-5.6c1.5-1.4,3.3-2.4,5.3-3c2.1-0.6,4.3-0.9,6.8-0.9
		c2.6,0,5.1,0.3,7.6,0.8v7.9c-1.1-0.3-2.2-0.5-3.1-0.6c-0.9-0.1-2-0.2-3.1-0.2c-1.1,0-2.1,0.1-3,0.3c-1,0.2-1.8,0.6-2.5,1.2
		c-0.7,0.6-1.3,1.6-1.7,2.8s-0.6,2.8-0.6,4.9v7.3c0,2.1,0.2,3.7,0.7,4.9c0.4,1.2,1,2.1,1.8,2.8s1.6,1.1,2.5,1.2c1,0.2,2,0.3,3,0.3
		c1.3,0,2.4-0.1,3.5-0.2c1.1-0.1,2-0.3,2.8-0.5v7.8c-1.3,0.3-2.6,0.5-3.9,0.6c-1.3,0.1-2.6,0.2-3.9,0.2c-2.5,0-4.7-0.3-6.8-0.9
		c-2.1-0.6-3.9-1.6-5.4-3s-2.7-3.3-3.6-5.6c-0.8-2.3-1.3-5.2-1.3-8.6V545.2z"/>
	<path class="st0" d="M469.9,527.6h14.7c8.2,0,12.3,4,12.3,12.1c0,2.2-0.3,4.1-1,5.7c-0.7,1.6-1.8,2.9-3.3,3.9
		c1.2,0.8,2,1.8,2.5,3.1s0.7,2.7,0.7,4.3v11.5h-9.6v-10.8c0-1.1-0.2-2.1-0.5-2.9s-1.1-1.3-2.4-1.3h-3.8v15h-9.6V527.6z M483.5,545.9
		c1,0,1.7-0.4,2.3-1.2c0.6-0.8,0.8-2.1,0.8-4.1c0-2.1-0.3-3.5-0.9-4.2c-0.6-0.8-1.4-1.2-2.5-1.2h-3.9v10.6H483.5z"/>
	<path class="st0" d="M510.1,527.6h10.7l10.6,40.5h-9.7l-1.9-8.9h-9.5l-2,8.9h-9.3L510.1,527.6z M518.1,551.7l-3-13.6l-3,13.6H518.1
		z"/>
	<path class="st0" d="M533.4,560.9l15.6-25.4h-15.2v-7.9H560v7.2l-15.4,25.4h15.7v7.9h-26.9V560.9z"/>
	<path class="st0" d="M565,527.6h10.2v40.5H565V527.6z"/>
	<path class="st0" d="M581.5,527.6h23.6v7.8h-13.8v8.2h12.6v7.8h-12.6v9h14.3v7.8h-24V527.6z"/>
	<path class="st0" d="M625.3,556.5c0-0.6-0.1-1-0.3-1.4c-0.2-0.4-0.5-0.7-0.9-1.1c-0.4-0.3-1-0.7-1.7-1c-0.7-0.3-1.6-0.7-2.6-1.2
		l-3.4-1.5c-1-0.4-2-0.9-2.8-1.5c-0.9-0.6-1.6-1.3-2.3-2.2c-0.7-0.9-1.2-2-1.6-3.2c-0.4-1.3-0.6-2.8-0.6-4.6c0-1.9,0.3-3.6,1-5.1
		c0.7-1.5,1.7-2.7,2.9-3.6c1.3-1,2.8-1.7,4.6-2.2c1.8-0.5,3.8-0.7,5.9-0.7c1.8,0,3.5,0.1,5.2,0.2c1.6,0.2,3.2,0.4,4.6,0.6v7.9
		c-1.4-0.2-2.8-0.4-4.1-0.6c-1.3-0.2-2.9-0.2-4.6-0.2c-1.8,0-3.2,0.2-4.3,0.7c-1.1,0.5-1.6,1.4-1.6,2.7c0,0.7,0.2,1.3,0.5,1.8
		c0.3,0.5,0.7,0.9,1.3,1.3c0.6,0.4,1.2,0.7,2,1.1c0.7,0.3,1.6,0.7,2.5,1.1l3.6,1.6c2.2,1,3.9,2.3,5.1,3.9c1.2,1.6,1.9,3.9,1.9,6.6
		c0,8.5-5.3,12.7-16,12.7c-2.3,0-4.2-0.1-5.8-0.3c-1.6-0.2-3.2-0.4-4.7-0.7v-8c0.7,0.1,1.4,0.3,2.1,0.4c0.7,0.1,1.4,0.3,2.1,0.3
		s1.5,0.2,2.3,0.2c0.8,0.1,1.8,0.1,2.8,0.1c2.4,0,4.2-0.3,5.3-1C624.8,559,625.3,558,625.3,556.5z"/>
	<path class="st0" d="M645.7,535.6H637v-8h27.7v8H656v32.5h-10.3V535.6z"/>
	<path class="st0" d="M674.6,527.6h10l3,25.4l4.7-25.1h8l4.7,25.3l2.9-25.6h9.7l-7.5,40.5h-9.6l-4.2-23.4l-4.7,23.4h-9.8
		L674.6,527.6z"/>
	<path class="st0" d="M735.8,569c-2.3,0-4.5-0.3-6.4-1c-1.9-0.7-3.5-1.7-4.9-3.2c-1.4-1.5-2.4-3.4-3.1-5.8s-1.1-5.3-1.1-8.7v-4.9
		c0-3.4,0.4-6.3,1.1-8.7c0.7-2.4,1.8-4.3,3.2-5.8c1.4-1.5,3-2.5,4.9-3.2c1.9-0.7,4-1,6.3-1c2.3,0,4.5,0.3,6.4,1
		c1.9,0.7,3.5,1.7,4.9,3.2c1.3,1.5,2.4,3.4,3.1,5.8s1.1,5.3,1.1,8.7v4.9c0,3.4-0.4,6.3-1.1,8.7s-1.7,4.3-3.1,5.8
		c-1.3,1.5-3,2.5-4.9,3.2C740.3,568.6,738.1,569,735.8,569z M735.8,534.4c-1.1,0-2,0.2-2.6,0.7c-0.7,0.5-1.2,1.2-1.5,2.1
		s-0.6,2.1-0.8,3.4c-0.1,1.4-0.2,3-0.2,4.9v4.7c0,1.9,0.1,3.5,0.2,4.9c0.1,1.4,0.4,2.5,0.8,3.4c0.4,0.9,0.9,1.6,1.5,2.1
		c0.6,0.5,1.5,0.7,2.5,0.7c1.1,0,2-0.2,2.6-0.7c0.7-0.5,1.2-1.2,1.5-2.1c0.4-0.9,0.6-2.1,0.7-3.4c0.1-1.4,0.2-3,0.2-4.9v-4.7
		c0-3.7-0.3-6.5-0.9-8.3C739.2,535.3,737.9,534.4,735.8,534.4z"/>
	<path class="st0" d="M756.7,527.6h14.7c8.2,0,12.3,4,12.3,12.1c0,2.2-0.3,4.1-1,5.7c-0.7,1.6-1.8,2.9-3.3,3.9
		c1.2,0.8,2,1.8,2.5,3.1s0.7,2.7,0.7,4.3v11.5H773v-10.8c0-1.1-0.2-2.1-0.5-2.9s-1.1-1.3-2.4-1.3h-3.8v15h-9.6V527.6z M770.4,545.9
		c1,0,1.7-0.4,2.3-1.2c0.6-0.8,0.8-2.1,0.8-4.1c0-2.1-0.3-3.5-0.9-4.2c-0.6-0.8-1.4-1.2-2.5-1.2h-3.9v10.6H770.4z"/>
	<path class="st0" d="M788.7,527.6h10.2v32.5h13.5v8h-23.7V527.6z"/>
	<path class="st0" d="M816.7,568.1v-40.5h13.5c2.3,0,4.5,0.3,6.4,0.9c1.9,0.6,3.6,1.6,5,3.1c1.4,1.4,2.4,3.3,3.2,5.6
		c0.8,2.3,1.2,5.2,1.2,8.6v4.1c0,3.4-0.4,6.3-1.2,8.6s-1.9,4.2-3.3,5.6c-1.4,1.4-3.1,2.5-5,3.1c-1.9,0.6-4,0.9-6.3,0.9H816.7z
		 M826.5,560.2h2.5c1.1,0,2-0.1,2.8-0.4c0.8-0.2,1.5-0.7,2.1-1.4s1-1.7,1.3-2.9c0.3-1.3,0.5-2.9,0.5-5v-5.2c0-2-0.1-3.7-0.4-4.9
		c-0.3-1.3-0.7-2.3-1.2-3c-0.5-0.7-1.2-1.2-2-1.5c-0.8-0.3-1.7-0.4-2.8-0.4h-2.6V560.2z"/>
</g>
</svg>
