<svg xmlns="http://www.w3.org/2000/svg" xmlns:xlink="http://www.w3.org/1999/xlink" viewBox="0 0 664.73 299.47"><defs><style>.cls-1,.cls-3{fill:none;}.cls-2{isolation:isolate;}.cls-3{stroke:#bdccd4;stroke-width:0.4px;}.cls-18,.cls-20,.cls-3{stroke-miterlimit:10;}.cls-4{font-size:10px;fill:#666;font-family:ArialMT, Arial;}.cls-5{fill:#e588a2;}.cls-6{fill:#f9afc6;}.cls-7{fill:#e860a2;}.cls-8{fill:url(#linear-gradient);}.cls-9{opacity:0.3;fill:url(#linear-gradient-2);}.cls-10{fill:url(#linear-gradient-3);}.cls-11{fill:url(#linear-gradient-4);}.cls-12{fill:#63f5ff;}.cls-13{fill:url(#linear-gradient-5);}.cls-14{fill:url(#radial-gradient);}.cls-15{fill:#fff;}.cls-16{fill:#4d4d4d;opacity:0.5;mix-blend-mode:multiply;}.cls-17{fill:#e6e6e6;}.cls-18,.cls-23{fill:#ed1c24;}.cls-18,.cls-20{stroke:#f2f2f2;}.cls-18{stroke-width:0.78px;}.cls-19{fill:#f2f2f2;}.cls-20{fill:#29abe2;stroke-width:1.24px;}.cls-21{fill:#ffe000;}.cls-22{fill:#fbb03b;}.cls-24{fill:#c1272d;}.cls-25{clip-path:url(#clip-path);}.cls-26{fill:#ea91ed;}.cls-27{fill:#7f47dd;}.cls-28{fill:#662d91;}.cls-29{fill:#ed1e79;}.cls-30{fill:url(#linear-gradient-6);}.cls-31{fill:#9e005d;}.cls-32{clip-path:url(#clip-path-2);}.cls-33{clip-path:url(#clip-path-3);}.cls-34{fill:#5ae8ca;}.cls-35{fill:#ffcae3;}</style><linearGradient id="linear-gradient" x1="9.93" y1="32.23" x2="135.62" y2="32.23" gradientUnits="userSpaceOnUse"><stop offset="0" stop-color="#fff" stop-opacity="0"/><stop offset="0.16" stop-color="#fbfefe" stop-opacity="0.01"/><stop offset="0.29" stop-color="#effdfa" stop-opacity="0.06"/><stop offset="0.42" stop-color="#dafaf3" stop-opacity="0.14"/><stop offset="0.54" stop-color="#bef6ea" stop-opacity="0.24"/><stop offset="0.66" stop-color="#98f1de" stop-opacity="0.38"/><stop offset="0.77" stop-color="#6cead0" stop-opacity="0.55"/><stop offset="0.81" stop-color="#5ae8ca" stop-opacity="0.61"/><stop offset="0.84" stop-color="#70ebd1" stop-opacity="0.66"/><stop offset="0.91" stop-color="#a9f3e4" stop-opacity="0.8"/><stop offset="1" stop-color="#fff"/></linearGradient><linearGradient id="linear-gradient-2" x1="68.52" y1="32.78" x2="117.31" y2="32.78" gradientUnits="userSpaceOnUse"><stop offset="0" stop-color="#fff" stop-opacity="0"/><stop offset="0.34" stop-color="#feffff" stop-opacity="0.01"/><stop offset="0.48" stop-color="#fdfeff" stop-opacity="0.04"/><stop offset="0.58" stop-color="#fafdff" stop-opacity="0.08"/><stop offset="0.66" stop-color="#f5fcff" stop-opacity="0.15"/><stop offset="0.73" stop-color="#effaff" stop-opacity="0.24"/><stop offset="0.79" stop-color="#e8f8ff" stop-opacity="0.35"/><stop offset="0.85" stop-color="#dff5ff" stop-opacity="0.48"/><stop offset="0.9" stop-color="#d5f2ff" stop-opacity="0.63"/><stop offset="0.95" stop-color="#caefff" stop-opacity="0.8"/><stop offset="1" stop-color="#beebff" stop-opacity="0.98"/><stop offset="1" stop-color="#bdebff"/></linearGradient><linearGradient id="linear-gradient-3" x1="67.39" y1="32.78" x2="118.43" y2="32.78" gradientUnits="userSpaceOnUse"><stop offset="0" stop-color="#fff"/><stop offset="1" stop-color="#fff" stop-opacity="0.2"/></linearGradient><linearGradient id="linear-gradient-4" x1="-87.39" y1="-3612.38" x2="137.27" y2="-3612.38" gradientTransform="translate(344.76 -3579.6) rotate(180)" gradientUnits="userSpaceOnUse"><stop offset="0" stop-color="#63f5ff"/><stop offset="0.04" stop-color="#6cf6ff" stop-opacity="0.94"/><stop offset="0.25" stop-color="#98f8ff" stop-opacity="0.66"/><stop offset="0.45" stop-color="#bdfbff" stop-opacity="0.42"/><stop offset="0.63" stop-color="#d9fdff" stop-opacity="0.24"/><stop offset="0.78" stop-color="#eefeff" stop-opacity="0.11"/><stop offset="0.91" stop-color="#faffff" stop-opacity="0.03"/><stop offset="1" stop-color="#fff" stop-opacity="0"/></linearGradient><linearGradient id="linear-gradient-5" x1="-81.02" y1="-3612.37" x2="28.36" y2="-3612.37" gradientTransform="translate(344.76 -3579.6) rotate(180)" gradientUnits="userSpaceOnUse"><stop offset="0" stop-color="#fff"/><stop offset="0.13" stop-color="#fff" stop-opacity="0.89"/><stop offset="0.42" stop-color="#fff" stop-opacity="0.62"/><stop offset="0.83" stop-color="#fff" stop-opacity="0.19"/><stop offset="1" stop-color="#fff" stop-opacity="0"/></linearGradient><radialGradient id="radial-gradient" cx="-71.18" cy="-3612.87" r="6.78" gradientTransform="translate(344.76 -3579.6) rotate(180)" gradientUnits="userSpaceOnUse"><stop offset="0" stop-color="#fff" stop-opacity="0"/><stop offset="0.1" stop-color="#fff" stop-opacity="0.19"/><stop offset="0.23" stop-color="#fff" stop-opacity="0.4"/><stop offset="0.37" stop-color="#fff" stop-opacity="0.58"/><stop offset="0.5" stop-color="#fff" stop-opacity="0.73"/><stop offset="0.63" stop-color="#fff" stop-opacity="0.85"/><stop offset="0.76" stop-color="#fff" stop-opacity="0.93"/><stop offset="0.88" stop-color="#fff" stop-opacity="0.98"/><stop offset="1" stop-color="#fff"/></radialGradient><clipPath id="clip-path"><rect class="cls-1" x="636.31" y="117.85" width="23.19" height="7.26" rx="3.63" ry="3.63" transform="translate(1295.8 242.96) rotate(180)"/></clipPath><linearGradient id="linear-gradient-6" x1="234.78" y1="133" x2="302.39" y2="133" gradientUnits="userSpaceOnUse"><stop offset="0" stop-color="#93278f"/><stop offset="0.18" stop-color="#8d288f"/><stop offset="0.43" stop-color="#7c2a90"/><stop offset="0.66" stop-color="#662d91"/></linearGradient><clipPath id="clip-path-2"><path class="cls-1" d="M294.32,134.27a9.32,9.32,0,0,1,4,7.53,6.17,6.17,0,0,1-2.36,5.6,3.73,3.73,0,0,1-4.14.44,1.76,1.76,0,0,1-.72-2.61,1,1,0,0,1,1.57-.28l0,0c-.47.12-.94.32-.91.86a1.42,1.42,0,0,0,.52.93,1.13,1.13,0,0,0,1.43-.07,2.15,2.15,0,0,0,.76-2.2,4.18,4.18,0,0,0-2.05-2.82c-.49-.33-1-.59-1.5-.93a4.06,4.06,0,0,1-1.64-4.47,3.68,3.68,0,0,1,1.56-2l-.17-.16a3.73,3.73,0,0,1-.6-5.53,13.74,13.74,0,0,1,1.71-1.38,18.19,18.19,0,0,0,2.1-1.81,2.53,2.53,0,0,0,.52-2.52,2.62,2.62,0,0,0-.6-1,1.09,1.09,0,0,0-1.42-.19,1.48,1.48,0,0,0-.63.91c-.06.56.41.8.92.92a.94.94,0,0,1-1.42-.1,1.75,1.75,0,0,1,.42-2.63,3.53,3.53,0,0,1,3.59-.12,5.42,5.42,0,0,1,3,4.5A9.53,9.53,0,0,1,294.32,134.27Z"/></clipPath><clipPath id="clip-path-3"><path class="cls-1" d="M305.25,136.28a2.11,2.11,0,0,0-.28-.37,2.68,2.68,0,0,0,2-2.59h0a2.7,2.7,0,0,0-2-2.59,2.11,2.11,0,0,0,.28-.37l2-3.45a2.09,2.09,0,0,0-1.8-3.13h-4a2.09,2.09,0,0,0-1.81,3.13l2,3.45a1.72,1.72,0,0,0,.28.37,2.7,2.7,0,0,0-2,2.59h0a2.68,2.68,0,0,0,2,2.59,1.72,1.72,0,0,0-.28.37l-2,3.45a2.09,2.09,0,0,0,1.81,3.13h4a2.09,2.09,0,0,0,1.8-3.13Z"/></clipPath></defs><title>Asset 20</title><g class="cls-2"><g id="Layer_2" data-name="Layer 2"><g id="Logos"><line class="cls-3" x1="657.27" y1="283.33" y2="283.33"/><text class="cls-4" transform="translate(17.77 296.22)">Some of the scene elements</text><rect class="cls-5" x="102.25" y="23.25" width="14.57" height="43.14" rx="7.28" ry="7.28" transform="translate(154.36 -64.71) rotate(90)"/><rect class="cls-5" x="102.25" y="-1.93" width="14.57" height="43.14" rx="7.28" ry="7.28" transform="translate(129.17 -89.9) rotate(90)"/><rect class="cls-6" x="102.25" y="23.25" width="14.57" height="43.14" rx="7.28" ry="7.28" transform="translate(154.36 -64.71) rotate(90)"/><rect class="cls-6" x="102.25" y="-1.93" width="14.57" height="43.14" rx="7.28" ry="7.28" transform="translate(129.17 -89.9) rotate(90)"/><rect class="cls-6" x="29.87" y="22.12" width="14.57" height="45.4" rx="7.28" ry="7.28" transform="translate(81.97 7.67) rotate(90)"/><rect class="cls-6" x="29.87" y="-3.06" width="14.57" height="45.4" rx="7.28" ry="7.28" transform="translate(56.79 -17.51) rotate(90)"/><rect class="cls-6" x="42.21" y="2.83" width="39.75" height="58.81" rx="19.88" ry="19.88" transform="translate(94.32 -29.86) rotate(90)"/><path class="cls-7" d="M125.5,17.5h2.63a2.73,2.73,0,0,1,2.73,2.73v0a1.54,1.54,0,0,1-1.54,1.54h-5a1.54,1.54,0,0,1-1.54-1.54v0a2.73,2.73,0,0,1,2.73-2.73Z" transform="translate(146.45 -107.18) rotate(90)"/><path class="cls-7" d="M125.5,42.69h2.63a2.73,2.73,0,0,1,2.73,2.73v0A1.54,1.54,0,0,1,129.32,47h-5a1.54,1.54,0,0,1-1.54-1.54v0a2.73,2.73,0,0,1,2.73-2.73Z" transform="translate(171.64 -81.99) rotate(90)"/><path class="cls-7" d="M17.67,42.69H20.3A2.73,2.73,0,0,1,23,45.42v0A1.54,1.54,0,0,1,21.5,47h-5a1.54,1.54,0,0,1-1.54-1.54v0A2.73,2.73,0,0,1,17.67,42.69Z" transform="translate(-25.83 63.81) rotate(-90)"/><path class="cls-7" d="M17.67,17.5H20.3A2.73,2.73,0,0,1,23,20.24v0a1.54,1.54,0,0,1-1.54,1.54h-5a1.54,1.54,0,0,1-1.54-1.54v0A2.73,2.73,0,0,1,17.67,17.5Z" transform="translate(-0.65 38.63) rotate(-90)"/><path class="cls-7" d="M93.59,12.29H81.27a8.22,8.22,0,0,0-1,.06h-5.8V52.11h5.75a8.93,8.93,0,0,0,1,.07H93.76a19.92,19.92,0,0,0,19.87-19.86h0A20.09,20.09,0,0,0,93.59,12.29Z"/><path class="cls-8" d="M93.59,12.29q.82,0,1.65.06h28.58a7.29,7.29,0,0,1,0,14.57H112.88a19.68,19.68,0,0,1,0,10.62h10.9a7.29,7.29,0,0,1,0,14.57H95.48c-.57,0-1.14.07-1.72.07H81.27a8.93,8.93,0,0,1-1-.07H21.74a7.29,7.29,0,1,1,0-14.57H31.87a7.51,7.51,0,0,1,0-10.62H21.74a7.29,7.29,0,1,1,0-14.57H80.28a8.22,8.22,0,0,1,1-.06H93.59m0-4.52H81.27A10.59,10.59,0,0,0,80,7.84H21.74a11.8,11.8,0,1,0,0,23.6h3.43c0,.26,0,.53,0,.79s0,.53,0,.79H21.74a11.8,11.8,0,1,0,0,23.6H80a11.83,11.83,0,0,0,1.32.08H93.76c.63,0,1.26,0,1.9-.08h28.16a11.8,11.8,0,1,0,0-23.6h-5.69c0-.23,0-.47,0-.7s0-.59,0-.88h5.69a11.8,11.8,0,1,0,0-23.6H95.41c-.61,0-1.22-.07-1.82-.07Z"/><path class="cls-7" d="M74.48,27,65,16.05a2.23,2.23,0,0,1,1.66-3.7l7.85-.06Z"/><path class="cls-6" d="M75.48,22.23l-4.66-5.34A1.12,1.12,0,0,1,71.65,15l4.66,0a1.1,1.1,0,0,1,1.12,1.11V21.5A1.11,1.11,0,0,1,75.48,22.23Z"/><path class="cls-7" d="M74.48,37.52,65,48.42a2.23,2.23,0,0,0,1.66,3.7l7.85.06Z"/><path class="cls-6" d="M75.48,42.24l-4.66,5.34a1.11,1.11,0,0,0,.83,1.84l4.66,0a1.1,1.1,0,0,0,1.12-1.11V43A1.11,1.11,0,0,0,75.48,42.24Z"/><path class="cls-6" d="M108.59,40.07A3.82,3.82,0,0,1,107,43.14a.67.67,0,0,1-.93-.15.66.66,0,0,1,.15-.92,2.46,2.46,0,0,0,0-4A.66.66,0,1,1,107,37,3.8,3.8,0,0,1,108.59,40.07Z"/><path class="cls-6" d="M108.59,24.39A3.82,3.82,0,0,1,107,27.46a.67.67,0,0,1-.93-.15.66.66,0,0,1,.15-.92,2.46,2.46,0,0,0,0-4,.66.66,0,1,1,.78-1.07A3.8,3.8,0,0,1,108.59,24.39Z"/><rect class="cls-6" x="109.42" y="32" width="4.18" height="0.55" rx="0.09" ry="0.09" transform="translate(223.01 64.56) rotate(-180)"/><polygon class="cls-6" points="109.13 30.29 109.13 34.15 109.74 34.15 111.33 32.23 109.72 30.29 109.13 30.29"/><circle class="cls-9" cx="92.91" cy="32.78" r="24.39"/><path class="cls-10" d="M92.91,8.39A24.39,24.39,0,1,1,68.52,32.78,24.4,24.4,0,0,1,92.91,8.39m0-1.13a25.52,25.52,0,1,0,25.52,25.52A25.55,25.55,0,0,0,92.91,7.26Z"/><rect class="cls-7" x="21.02" y="9.53" width="10.98" height="45.4" rx="5.49" ry="5.49" transform="translate(58.74 5.72) rotate(90)"/><rect class="cls-6" x="10.26" y="26.71" width="3.16" height="10.99"/><rect class="cls-6" x="16.58" y="26.71" width="3.16" height="10.99"/><path class="cls-11" d="M207.49,18.51H417.88a14.31,14.31,0,0,1,14.27,14.27h0a14.31,14.31,0,0,1-14.27,14.27H207.49"/><path class="cls-12" d="M230.13,43.29l187.55,0a10.56,10.56,0,0,0,10.53-10.53h0a10.56,10.56,0,0,0-10.53-10.53H270.14a2.11,2.11,0,0,0-2.1,2.1h0a2.11,2.11,0,0,0,2.1,2.11h37.52a2.11,2.11,0,0,1,2.11,2.1h0a2.12,2.12,0,0,1-2.11,2.11H258.19a2.11,2.11,0,0,0-2.1,2.1h0a2.11,2.11,0,0,0,2.1,2.1h54.32A2.12,2.12,0,0,1,314.62,37h0a2.11,2.11,0,0,1-2.11,2.1H230.13a2.11,2.11,0,0,0,0,4.21Z"/><path class="cls-13" d="M318,27.84h24.8a1.65,1.65,0,0,1,1.64,1.64h0a1.65,1.65,0,0,1-1.64,1.64H318a1.65,1.65,0,0,0,0,3.29h44.54a1.65,1.65,0,1,1,0,3.29H318A1.65,1.65,0,0,0,318,41h99.53a8.23,8.23,0,0,0,8.21-8.21h0a8.23,8.23,0,0,0-8.21-8.21H362.85l-.27,0H318a1.65,1.65,0,0,0,0,3.29Z"/><polygon class="cls-14" points="413.4 36.07 409 34.83 411.83 31.24 411.65 26.66 415.94 28.25 420.24 26.66 420.06 31.23 422.89 34.83 418.49 36.07 415.95 39.88 413.4 36.07"/><path class="cls-15" d="M419.88,27.14l-.16,4.2,2.61,3.3-4.05,1.14L416,39.28l-2.34-3.49-4.05-1.14,2.61-3.3-.17-4.2,3.94,1.45,3.94-1.46m.71-1-.94.35-3.71,1.37-3.71-1.37-.93-.34,0,1,.15,4L409,34.24l-.61.78,1,.27,3.81,1.07,2.2,3.29.55.82.55-.82,2.2-3.29,3.81-1.08.95-.27-.61-.78-2.46-3.11.16-3.95,0-1Z"/><path class="cls-16" d="M145.16,138a8.21,8.21,0,0,0-6.23,2.86l-.26.32,0,0a2.64,2.64,0,0,1-2.26,1.22,1.7,1.7,0,0,1-.69-.26,12.87,12.87,0,0,0-8.2-8.19,2,2,0,0,1-.26-.69,2.68,2.68,0,0,1,1.22-2.27l0,0,.32-.26a8.19,8.19,0,1,0-10.66,0l.32.26,0,0a2.66,2.66,0,0,1,1.22,2.27,1.82,1.82,0,0,1-.26.69,12.85,12.85,0,0,0-8.19,8.19,1.82,1.82,0,0,1-.69.26,2.66,2.66,0,0,1-2.27-1.22l0,0-.26-.32a8.2,8.2,0,1,0,0,10.66l.26-.32,0,0a2.68,2.68,0,0,1,2.27-1.22,2,2,0,0,1,.69.26,12.87,12.87,0,0,0,8.19,8.2,1.7,1.7,0,0,1,.26.69,2.64,2.64,0,0,1-1.22,2.26l0,0-.32.26a8.2,8.2,0,1,0,10.66,0l-.32-.26,0,0a2.66,2.66,0,0,1-1.22-2.26,1.86,1.86,0,0,1,.26-.69,12.88,12.88,0,0,0,8.2-8.2,1.86,1.86,0,0,1,.69-.26,2.66,2.66,0,0,1,2.26,1.22l0,0,.26.32A8.19,8.19,0,1,0,145.16,138Z"/><path class="cls-16" d="M41.6,139h0l.42,0a8.2,8.2,0,1,0-7.55-7.55s0,.29,0,.42V132a2.65,2.65,0,0,1-.74,2.46,1.77,1.77,0,0,1-.67.3,12.94,12.94,0,0,0-11.6,0,1.7,1.7,0,0,1-.67-.3,2.63,2.63,0,0,1-.75-2.46v-.05c0-.13,0-.42,0-.42a8.2,8.2,0,1,0-7.55,7.55l.42,0h0a2.65,2.65,0,0,1,2.46.74,1.86,1.86,0,0,1,.31.67,12.88,12.88,0,0,0,0,11.6,1.83,1.83,0,0,1-.31.68,2.65,2.65,0,0,1-2.46.74h0l-.42,0a8.21,8.21,0,1,0,7.55,7.55s0-.29,0-.42v0a2.63,2.63,0,0,1,.75-2.46,1.72,1.72,0,0,1,.67-.31,12.88,12.88,0,0,0,11.6,0,1.79,1.79,0,0,1,.67.31,2.65,2.65,0,0,1,.74,2.46v0c0,.13,0,.42,0,.42a8.2,8.2,0,1,0,7.55-7.55l-.42,0h0a2.66,2.66,0,0,1-2.46-.74,1.82,1.82,0,0,1-.3-.68,12.88,12.88,0,0,0,0-11.6,1.84,1.84,0,0,1,.3-.67A2.66,2.66,0,0,1,41.6,139Z"/><path class="cls-15" d="M143.5,177.44a12.16,12.16,0,0,0,7.91-21.39s-.32-.28-.48-.4l-.06,0a3.92,3.92,0,0,1-1.8-3.36c.24-1.69,2.37-3,3.72-3.77h0a17.79,17.79,0,1,0-18.58,0h0c1.36.8,3.49,2.08,3.73,3.77a4,4,0,0,1-1.81,3.36l-.06,0-.48.4a12.16,12.16,0,0,0,7.91,21.39Z"/><path class="cls-15" d="M143.5,88.79a12.16,12.16,0,0,0-7.91,21.39s.33.28.48.39l.06.05a4,4,0,0,1,1.81,3.36c-.24,1.69-2.37,3-3.73,3.77h0a17.8,17.8,0,1,0,18.58,0h0c-1.35-.81-3.48-2.08-3.72-3.77a3.92,3.92,0,0,1,1.8-3.36l.06-.05c.16-.11.48-.39.48-.39a12.16,12.16,0,0,0-7.91-21.39Z"/><path class="cls-15" d="M187.83,133.11a12.16,12.16,0,0,0-21.4-7.91l-.39.48,0,.06c-.81,1-2,2-3.36,1.81-1.7-.24-3-2.37-3.77-3.73h0a17.8,17.8,0,1,0,0,18.58h0c.8-1.35,2.07-3.48,3.77-3.72,1.35-.19,2.55.8,3.36,1.81l0,0,.39.49a12.16,12.16,0,0,0,21.4-7.92Z"/><path class="cls-15" d="M99.18,133.11A12.16,12.16,0,0,0,120.57,141l.39-.49.05,0c.8-1,2-2,3.36-1.81,1.69.24,3,2.37,3.77,3.72h0a17.79,17.79,0,1,0,0-18.58h0c-.81,1.36-2.08,3.49-3.77,3.73-1.35.19-2.56-.8-3.36-1.81l-.05-.06-.39-.48a12.16,12.16,0,0,0-21.39,7.91Z"/><path class="cls-17" d="M133,101.4a10.56,10.56,0,0,1,21.11,0"/><path class="cls-15" d="M132.58,105.22a10.93,10.93,0,0,1,21.85,0"/><path class="cls-17" d="M154.06,164.83a10.56,10.56,0,0,1-21.11,0"/><path class="cls-15" d="M154.43,161a10.93,10.93,0,1,1-21.85,0"/><path class="cls-17" d="M111.79,143.67a10.56,10.56,0,1,1,0-21.11"/><path class="cls-15" d="M115.61,144a10.93,10.93,0,0,1,0-21.85"/><path class="cls-17" d="M175.22,122.56a10.56,10.56,0,0,1,0,21.11"/><path class="cls-15" d="M171.39,122.19a10.93,10.93,0,1,1,0,21.85"/><circle class="cls-15" cx="143.5" cy="133.11" r="19.06"/><circle class="cls-17" cx="143.5" cy="133.11" r="12.46"/><circle class="cls-18" cx="143.5" cy="133.11" r="8.55"/><path class="cls-19" d="M138.87,129.44h9.26v2.45h-3.47v2.46h3.47v2.44h-9.26v-2.44h3.48v-2.46h-3.48Z"/><path class="cls-15" d="M20,164.56A12.17,12.17,0,0,0,40.74,155s0-.43-.06-.62c0,0,0,0,0-.07a3.94,3.94,0,0,1,1.1-3.66c1.37-1,3.78-.42,5.3,0h0a17.82,17.82,0,1,0-13.15-13.15h0c.39,1.52,1,3.93,0,5.3-.82,1.09-2.37,1.25-3.66,1.1h-.07l-.62-.06A12.18,12.18,0,0,0,20,164.56Z"/><path class="cls-15" d="M82.75,101.8A12.17,12.17,0,0,0,62,111.34s0,.43.06.62c0,0,0,.05,0,.08.15,1.28,0,2.83-1.1,3.65-1.37,1-3.78.42-5.3,0h0a17.82,17.82,0,1,0,13.15,13.15h0c-.39-1.53-1-3.94,0-5.31.82-1.09,2.37-1.25,3.66-1.1h.07c.19,0,.62.06.62.06a12.17,12.17,0,0,0,9.54-20.74Z"/><path class="cls-15" d="M82.75,164.56a12.18,12.18,0,0,0-9.54-20.75l-.62.06h-.07c-1.29.15-2.84,0-3.66-1.1-1-1.37-.42-3.78,0-5.3h0a17.82,17.82,0,1,0-13.15,13.15h0c1.52-.39,3.93-1,5.3,0a3.94,3.94,0,0,1,1.1,3.66s0,.05,0,.07c0,.19-.06.62-.06.62a12.17,12.17,0,0,0,20.74,9.55Z"/><path class="cls-15" d="M20,101.8a12.17,12.17,0,0,0,9.54,20.74s.43,0,.62-.06h.07c1.29-.15,2.84,0,3.66,1.1,1,1.37.42,3.78,0,5.31h0a17.81,17.81,0,1,0,13.15-13.15h0c-1.52.39-3.93,1-5.3,0-1.09-.82-1.25-2.37-1.1-3.65,0,0,0-.05,0-.08,0-.19.06-.62.06-.62A12.17,12.17,0,0,0,20,101.8Z"/><path class="cls-17" d="M66.35,103.26a10.57,10.57,0,0,1,15,14.94"/><path class="cls-15" d="M63.38,105.7a10.94,10.94,0,0,1,15.47,15.47"/><path class="cls-17" d="M36.4,163.1a10.57,10.57,0,0,1-14.95-14.95"/><path class="cls-15" d="M39.37,160.65A10.94,10.94,0,1,1,23.9,145.19"/><path class="cls-17" d="M21.45,118.2a10.57,10.57,0,1,1,15-14.94"/><path class="cls-15" d="M23.9,121.17A10.94,10.94,0,0,1,39.37,105.7"/><path class="cls-17" d="M81.3,148.15a10.57,10.57,0,0,1-15,14.95"/><path class="cls-15" d="M78.85,145.19a10.94,10.94,0,1,1-15.47,15.46"/><circle class="cls-15" cx="51.38" cy="133.18" r="19.08"/><circle class="cls-17" cx="51.38" cy="133.18" r="12.47"/><circle class="cls-20" cx="51.38" cy="133.18" r="8.56"/><path class="cls-15" d="M53.68,132.46l-3.19-3.19L52,127.76l4.79,4.79-6,6L46,133.8l1.51-1.51,3.19,3.19Z"/><rect class="cls-21" x="483.96" y="132.53" width="139.9" height="5.28" rx="2.64" ry="2.64" transform="translate(1107.82 270.34) rotate(-180)"/><path class="cls-22" d="M484,135.17h0a2.87,2.87,0,0,0,3,2.64H620.82a2.87,2.87,0,0,0,3-2.64h0"/><rect class="cls-23" x="493.52" y="143.09" width="139.9" height="5.28" rx="2.64" ry="2.64" transform="translate(1126.93 291.47) rotate(-180)"/><path class="cls-24" d="M493.52,145.73h0a2.87,2.87,0,0,0,3,2.65H630.38a2.87,2.87,0,0,0,3-2.65h0"/><rect class="cls-7" x="636.31" y="117.85" width="23.19" height="7.26" rx="3.63" ry="3.63" transform="translate(1295.8 242.96) rotate(180)"/><g class="cls-25"><rect class="cls-26" x="656.63" y="115.01" width="2.24" height="13.13" transform="translate(1036.88 672.64) rotate(-135)"/><rect class="cls-26" x="651.69" y="115.01" width="2.24" height="13.13" transform="translate(1028.44 669.15) rotate(-135)"/><rect class="cls-26" x="646.75" y="115.01" width="2.24" height="13.13" transform="translate(1020.01 665.65) rotate(-135)"/><rect class="cls-26" x="641.8" y="115.01" width="2.24" height="13.13" transform="translate(1011.57 662.16) rotate(-135)"/><rect class="cls-26" x="636.86" y="115.01" width="2.24" height="13.13" transform="translate(1003.14 658.66) rotate(-135)"/></g><rect class="cls-15" x="637.82" y="123.88" width="3.4" height="15.85" rx="1.7" ry="1.7"/><rect class="cls-15" x="634.46" y="123.88" width="3.4" height="15.85" rx="1.7" ry="1.7" transform="translate(1272.32 263.61) rotate(-180)"/><rect class="cls-15" x="647.88" y="123.88" width="3.4" height="15.85" rx="1.7" ry="1.7"/><rect class="cls-15" x="644.53" y="123.88" width="3.4" height="15.85" rx="1.7" ry="1.7"/><rect class="cls-15" x="641.17" y="123.88" width="3.4" height="15.85" rx="1.7" ry="1.7"/><rect class="cls-15" x="651.23" y="123.88" width="3.4" height="15.85" rx="1.7" ry="1.7"/><rect class="cls-15" x="654.59" y="123.88" width="3.4" height="15.85" rx="1.7" ry="1.7"/><rect class="cls-15" x="657.94" y="123.88" width="3.4" height="15.85" rx="1.7" ry="1.7" transform="translate(1319.28 263.61) rotate(180)"/><path class="cls-19" d="M659.64,139.73h0a1.7,1.7,0,0,0,1.7-1.7V125.58a1.71,1.71,0,0,0-1.7-1.7h0"/><path class="cls-19" d="M656.28,139.73h0A1.7,1.7,0,0,0,658,138V125.58a1.7,1.7,0,0,0-1.7-1.7h0"/><path class="cls-19" d="M652.93,139.73h0a1.7,1.7,0,0,0,1.7-1.7V125.58a1.71,1.71,0,0,0-1.7-1.7h0"/><path class="cls-19" d="M649.58,139.73h0a1.7,1.7,0,0,0,1.69-1.7V125.58a1.7,1.7,0,0,0-1.69-1.7h0"/><path class="cls-19" d="M646.22,139.73h0a1.7,1.7,0,0,0,1.7-1.7V125.58a1.7,1.7,0,0,0-1.7-1.7h0"/><path class="cls-19" d="M642.87,139.73h0a1.7,1.7,0,0,0,1.7-1.7V125.58a1.71,1.71,0,0,0-1.7-1.7h0"/><path class="cls-19" d="M639.52,139.73h0a1.7,1.7,0,0,0,1.69-1.7V125.58a1.7,1.7,0,0,0-1.69-1.7h0"/><path class="cls-19" d="M636.16,139.73h0a1.7,1.7,0,0,0,1.7-1.7V125.58a1.7,1.7,0,0,0-1.7-1.7h0"/><rect class="cls-27" x="524.83" y="137.81" width="139.9" height="5.28" rx="2.64" ry="2.64" transform="translate(1189.56 280.91) rotate(-180)"/><path class="cls-28" d="M524.83,140.45h0a2.87,2.87,0,0,0,3,2.64H661.69a2.87,2.87,0,0,0,3-2.64h0"/><rect class="cls-15" x="550.75" y="19.24" width="113.98" height="36.08" rx="18.04" ry="18.04"/><circle class="cls-15" cx="624.44" cy="19.64" r="19.64"/><circle class="cls-15" cx="594.18" cy="19.64" r="19.64"/><path class="cls-17" d="M664.73,37.29h0a18.1,18.1,0,0,1-18,18h-77.9a18.1,18.1,0,0,1-18-18h0"/><circle cx="594.33" cy="31.2" r="3.58"/><circle class="cls-29" cx="588.36" cy="37.47" r="3.58"/><circle class="cls-29" cx="627.12" cy="37.47" r="3.58"/><circle cx="620.85" cy="31.2" r="3.58"/><rect x="604.6" y="34.49" width="6.27" height="0.9" rx="0.45" ry="0.45"/><rect class="cls-28" x="286.92" y="144.32" width="169.07" height="6.71" rx="3.35" ry="3.35"/><rect class="cls-28" x="286.92" y="115.2" width="76.2" height="6.71" rx="3.35" ry="3.35"/><rect class="cls-28" x="284.69" y="124.91" width="102.09" height="6.71" rx="3.35" ry="3.35"/><rect class="cls-28" x="284.69" y="134.61" width="132.93" height="6.71" rx="3.35" ry="3.35"/><path class="cls-30" d="M252.07,115.28h48.18a2.14,2.14,0,0,1,2.14,2.14v31.15a2.14,2.14,0,0,1-2.14,2.14H251.7a16.92,16.92,0,0,1-16.92-16.92v-1.22A17.28,17.28,0,0,1,252.07,115.28Z"/><rect class="cls-28" x="281.28" y="107.9" width="14.85" height="50.44" rx="7.42" ry="7.42"/><circle class="cls-12" cx="288.7" cy="150.26" r="3.07"/><path class="cls-26" d="M288.7,147.82a2.44,2.44,0,1,1-2.44,2.44,2.44,2.44,0,0,1,2.44-2.44m0-1.27a3.71,3.71,0,1,0,3.7,3.71,3.71,3.71,0,0,0-3.7-3.71Z"/><path class="cls-12" d="M288.7,119a3.07,3.07,0,1,1,3.07-3.07A3.06,3.06,0,0,1,288.7,119Z"/><path class="cls-26" d="M288.7,113.53a2.44,2.44,0,1,1-2.44,2.44,2.45,2.45,0,0,1,2.44-2.44m0-1.26a3.71,3.71,0,1,0,3.7,3.7,3.71,3.71,0,0,0-3.7-3.7Z"/><path class="cls-31" d="M294.32,133a9.34,9.34,0,0,1,4,7.53,6.16,6.16,0,0,1-2.36,5.6,3.73,3.73,0,0,1-4.14.44,1.75,1.75,0,0,1-.72-2.61,1,1,0,0,1,1.57-.28l0,0c-.47.12-.94.32-.91.86a1.4,1.4,0,0,0,.52.93,1.15,1.15,0,0,0,1.43-.06,2.18,2.18,0,0,0,.76-2.21,4.2,4.2,0,0,0-2.05-2.82c-.49-.33-1-.59-1.5-.93a4.06,4.06,0,0,1-1.64-4.47,3.68,3.68,0,0,1,1.56-2l-.17-.15a3.73,3.73,0,0,1-.6-5.53,13,13,0,0,1,1.71-1.39,18.19,18.19,0,0,0,2.1-1.81,2.53,2.53,0,0,0,.52-2.52,2.7,2.7,0,0,0-.6-1,1.09,1.09,0,0,0-1.42-.19,1.51,1.51,0,0,0-.63.92c-.06.55.41.8.92.92a.94.94,0,0,1-1.42-.11,1.74,1.74,0,0,1,.42-2.62,3.53,3.53,0,0,1,3.59-.13,5.42,5.42,0,0,1,3,4.5A9.51,9.51,0,0,1,294.32,133Z"/><rect class="cls-26" x="299.89" y="130.65" width="7.1" height="5.34" rx="2.67" ry="2.67"/><path class="cls-26" d="M307.24,126.91l-2,3.45a2.08,2.08,0,0,1-3.61,0l-2-3.45a2.09,2.09,0,0,1,1.81-3.13h4A2.09,2.09,0,0,1,307.24,126.91Z"/><path class="cls-26" d="M299.64,139.73l2-3.45a2.08,2.08,0,0,1,3.61,0l2,3.45a2.09,2.09,0,0,1-1.8,3.13h-4A2.09,2.09,0,0,1,299.64,139.73Z"/><g class="cls-32"><rect class="cls-7" x="283.26" y="132.82" width="22.25" height="0.9"/><rect class="cls-7" x="283.26" y="131.22" width="22.25" height="0.9"/><rect class="cls-7" x="283.26" y="129.61" width="22.25" height="0.9"/><rect class="cls-7" x="283.26" y="128.01" width="22.25" height="0.9"/><rect class="cls-7" x="283.26" y="126.4" width="22.25" height="0.9"/><rect class="cls-7" x="283.26" y="124.8" width="22.25" height="0.9"/><rect class="cls-7" x="283.26" y="123.19" width="22.25" height="0.9"/><rect class="cls-7" x="283.26" y="121.59" width="22.25" height="0.9"/><rect class="cls-7" x="283.26" y="119.98" width="22.25" height="0.9"/><rect class="cls-7" x="283.26" y="118.38" width="22.25" height="0.9"/><rect class="cls-7" x="283.26" y="116.77" width="22.25" height="0.9"/><rect class="cls-29" x="283.26" y="150.46" width="22.25" height="0.9"/><rect class="cls-29" x="283.26" y="148.86" width="22.25" height="0.9"/><rect class="cls-29" x="283.26" y="147.25" width="22.25" height="0.9"/><rect class="cls-29" x="283.26" y="145.65" width="22.25" height="0.9"/><rect class="cls-29" x="283.26" y="144.04" width="22.25" height="0.9"/><rect class="cls-29" x="283.26" y="142.44" width="22.25" height="0.9"/><rect class="cls-29" x="283.26" y="140.83" width="22.25" height="0.9"/><rect class="cls-29" x="283.26" y="139.23" width="22.25" height="0.9"/><rect class="cls-29" x="283.26" y="137.63" width="22.25" height="0.9"/><rect class="cls-29" x="283.26" y="136.02" width="22.25" height="0.9"/><rect class="cls-29" x="283.26" y="134.42" width="22.25" height="0.9"/></g><g class="cls-33"><rect class="cls-34" x="282.77" y="150.55" width="77.08" height="1.94" transform="translate(-13.03 271.58) rotate(-45)"/><rect class="cls-34" x="280.33" y="148.11" width="77.08" height="1.94" transform="translate(-12.02 269.14) rotate(-45)"/><rect class="cls-34" x="277.89" y="145.66" width="77.08" height="1.94" transform="translate(-11.01 266.7) rotate(-45)"/><rect class="cls-34" x="275.44" y="143.22" width="77.08" height="1.94" transform="translate(-10 264.25) rotate(-45)"/><rect class="cls-34" x="273" y="140.78" width="77.08" height="1.94" transform="translate(-8.98 261.81) rotate(-45)"/><rect class="cls-34" x="270.56" y="138.34" width="77.08" height="1.94" transform="translate(-7.97 259.37) rotate(-45)"/><rect class="cls-34" x="268.12" y="135.89" width="77.08" height="1.94" transform="translate(-6.96 256.93) rotate(-45)"/><rect class="cls-34" x="265.67" y="133.45" width="77.08" height="1.94" transform="translate(-5.95 254.48) rotate(-45)"/><rect class="cls-34" x="263.23" y="131.01" width="77.08" height="1.94" transform="translate(-4.94 252.04) rotate(-45)"/><rect class="cls-34" x="260.79" y="128.57" width="77.08" height="1.94" transform="translate(-3.93 249.6) rotate(-45)"/><rect class="cls-34" x="258.35" y="126.12" width="77.08" height="1.94" transform="translate(-2.91 247.16) rotate(-45)"/></g><rect x="298.94" y="255.84" width="64.66" height="8.62" rx="4.31" ry="4.31"/><path class="cls-15" d="M352,264.56V251.75a7,7,0,0,0-.07-1v-28.4a7.59,7.59,0,0,0-7.57-7.57h0a7.59,7.59,0,0,0-7.58,7.57V244h-11V222.32a7.59,7.59,0,0,0-7.57-7.57h0a7.59,7.59,0,0,0-7.58,7.57v28.34a7.88,7.88,0,0,0-.08,1.09v13"/><rect class="cls-35" x="340.16" y="219.69" width="8.42" height="34.51" rx="4.21" ry="4.21" transform="translate(688.73 473.89) rotate(180)"/><rect class="cls-35" x="313.97" y="219.69" width="8.42" height="34.51" rx="4.21" ry="4.21" transform="translate(636.35 473.89) rotate(180)"/></g></g></g></svg>