<svg xmlns="http://www.w3.org/2000/svg" xmlns:xlink="http://www.w3.org/1999/xlink" viewBox="0 0 660.92 264.74"><defs><style>.cls-1{fill:none;}.cls-2{isolation:isolate;}.cls-3{fill:#e588a2;}.cls-4{fill:#f9afc6;}.cls-5{fill:#e860a2;}.cls-6{fill:url(#linear-gradient);}.cls-7{opacity:0.3;fill:url(#linear-gradient-2);}.cls-8{fill:url(#linear-gradient-3);}.cls-9{fill:url(#linear-gradient-4);}.cls-10{fill:#63f5ff;}.cls-11{fill:url(#linear-gradient-5);}.cls-12{fill:url(#radial-gradient);}.cls-13{fill:#fff;}.cls-14{fill:#4d4d4d;opacity:0.5;mix-blend-mode:multiply;}.cls-15{fill:#e6e6e6;}.cls-16,.cls-21{fill:#ed1c24;}.cls-16,.cls-18{stroke:#f2f2f2;stroke-miterlimit:10;}.cls-16{stroke-width:0.78px;}.cls-17{fill:#f2f2f2;}.cls-18{fill:#29abe2;stroke-width:1.24px;}.cls-19{fill:#ffe000;}.cls-20{fill:#fbb03b;}.cls-22{fill:#c1272d;}.cls-23{clip-path:url(#clip-path);}.cls-24{fill:#ea91ed;}.cls-25{fill:#7f47dd;}.cls-26{fill:#662d91;}.cls-27{fill:#ed1e79;}.cls-28{fill:url(#linear-gradient-6);}.cls-29{fill:#9e005d;}.cls-30{clip-path:url(#clip-path-2);}.cls-31{clip-path:url(#clip-path-3);}.cls-32{fill:#5ae8ca;}.cls-33{fill:#ffcae3;}</style><linearGradient id="linear-gradient" x1="25.36" y1="32.23" x2="151.04" y2="32.23" gradientUnits="userSpaceOnUse"><stop offset="0" stop-color="#fff" stop-opacity="0"/><stop offset="0.16" stop-color="#fbfefe" stop-opacity="0.01"/><stop offset="0.29" stop-color="#effdfa" stop-opacity="0.06"/><stop offset="0.42" stop-color="#dafaf3" stop-opacity="0.14"/><stop offset="0.54" stop-color="#bef6ea" stop-opacity="0.24"/><stop offset="0.66" stop-color="#98f1de" stop-opacity="0.38"/><stop offset="0.77" stop-color="#6cead0" stop-opacity="0.55"/><stop offset="0.81" stop-color="#5ae8ca" stop-opacity="0.61"/><stop offset="0.84" stop-color="#70ebd1" stop-opacity="0.66"/><stop offset="0.91" stop-color="#a9f3e4" stop-opacity="0.8"/><stop offset="1" stop-color="#fff"/></linearGradient><linearGradient id="linear-gradient-2" x1="83.94" y1="32.78" x2="132.73" y2="32.78" gradientUnits="userSpaceOnUse"><stop offset="0" stop-color="#fff" stop-opacity="0"/><stop offset="0.34" stop-color="#feffff" stop-opacity="0.01"/><stop offset="0.48" stop-color="#fdfeff" stop-opacity="0.04"/><stop offset="0.58" stop-color="#fafdff" stop-opacity="0.08"/><stop offset="0.66" stop-color="#f5fcff" stop-opacity="0.15"/><stop offset="0.73" stop-color="#effaff" stop-opacity="0.24"/><stop offset="0.79" stop-color="#e8f8ff" stop-opacity="0.35"/><stop offset="0.85" stop-color="#dff5ff" stop-opacity="0.48"/><stop offset="0.9" stop-color="#d5f2ff" stop-opacity="0.63"/><stop offset="0.95" stop-color="#caefff" stop-opacity="0.8"/><stop offset="1" stop-color="#beebff" stop-opacity="0.98"/><stop offset="1" stop-color="#bdebff"/></linearGradient><linearGradient id="linear-gradient-3" x1="82.81" y1="32.78" x2="133.86" y2="32.78" gradientUnits="userSpaceOnUse"><stop offset="0" stop-color="#fff"/><stop offset="1" stop-color="#fff" stop-opacity="0.2"/></linearGradient><linearGradient id="linear-gradient-4" x1="-91.2" y1="-3612.38" x2="133.46" y2="-3612.38" gradientTransform="translate(337.14 -3579.6) rotate(180)" gradientUnits="userSpaceOnUse"><stop offset="0" stop-color="#63f5ff"/><stop offset="0.04" stop-color="#6cf6ff" stop-opacity="0.94"/><stop offset="0.25" stop-color="#98f8ff" stop-opacity="0.66"/><stop offset="0.45" stop-color="#bdfbff" stop-opacity="0.42"/><stop offset="0.63" stop-color="#d9fdff" stop-opacity="0.24"/><stop offset="0.78" stop-color="#eefeff" stop-opacity="0.11"/><stop offset="0.91" stop-color="#faffff" stop-opacity="0.03"/><stop offset="1" stop-color="#fff" stop-opacity="0"/></linearGradient><linearGradient id="linear-gradient-5" x1="-84.83" y1="-3612.37" x2="24.55" y2="-3612.37" gradientTransform="translate(337.14 -3579.6) rotate(180)" gradientUnits="userSpaceOnUse"><stop offset="0" stop-color="#fff"/><stop offset="0.13" stop-color="#fff" stop-opacity="0.89"/><stop offset="0.42" stop-color="#fff" stop-opacity="0.62"/><stop offset="0.83" stop-color="#fff" stop-opacity="0.19"/><stop offset="1" stop-color="#fff" stop-opacity="0"/></linearGradient><radialGradient id="radial-gradient" cx="-74.99" cy="-3612.87" r="6.78" gradientTransform="translate(337.14 -3579.6) rotate(180)" gradientUnits="userSpaceOnUse"><stop offset="0" stop-color="#fff" stop-opacity="0"/><stop offset="0.1" stop-color="#fff" stop-opacity="0.19"/><stop offset="0.23" stop-color="#fff" stop-opacity="0.4"/><stop offset="0.37" stop-color="#fff" stop-opacity="0.58"/><stop offset="0.5" stop-color="#fff" stop-opacity="0.73"/><stop offset="0.63" stop-color="#fff" stop-opacity="0.85"/><stop offset="0.76" stop-color="#fff" stop-opacity="0.93"/><stop offset="0.88" stop-color="#fff" stop-opacity="0.98"/><stop offset="1" stop-color="#fff"/></radialGradient><clipPath id="clip-path"><rect class="cls-1" x="632.5" y="117.85" width="23.19" height="7.26" rx="3.63" ry="3.63" transform="translate(1288.18 242.96) rotate(180)"/></clipPath><linearGradient id="linear-gradient-6" x1="230.97" y1="133" x2="298.58" y2="133" gradientUnits="userSpaceOnUse"><stop offset="0" stop-color="#93278f"/><stop offset="0.18" stop-color="#8d288f"/><stop offset="0.43" stop-color="#7c2a90"/><stop offset="0.66" stop-color="#662d91"/></linearGradient><clipPath id="clip-path-2"><path class="cls-1" d="M290.51,134.27a9.36,9.36,0,0,1,4,7.53,6.2,6.2,0,0,1-2.37,5.6,3.73,3.73,0,0,1-4.14.44,1.75,1.75,0,0,1-.71-2.61,1,1,0,0,1,1.56-.28l0,0c-.47.12-.94.32-.91.86a1.42,1.42,0,0,0,.52.93,1.13,1.13,0,0,0,1.43-.07,2.15,2.15,0,0,0,.76-2.2,4.18,4.18,0,0,0-2.05-2.82c-.49-.33-1-.59-1.5-.93a4.06,4.06,0,0,1-1.64-4.47,3.68,3.68,0,0,1,1.56-2l-.17-.16a3.73,3.73,0,0,1-.6-5.53,13.74,13.74,0,0,1,1.71-1.38,18.19,18.19,0,0,0,2.1-1.81,2.53,2.53,0,0,0,.52-2.52,2.62,2.62,0,0,0-.6-1,1.09,1.09,0,0,0-1.42-.19,1.48,1.48,0,0,0-.63.91c-.06.56.42.8.92.92a.94.94,0,0,1-1.42-.1,1.75,1.75,0,0,1,.42-2.63,3.55,3.55,0,0,1,3.6-.12,5.43,5.43,0,0,1,3,4.5A9.53,9.53,0,0,1,290.51,134.27Z"/></clipPath><clipPath id="clip-path-3"><path class="cls-1" d="M301.44,136.28a2.11,2.11,0,0,0-.28-.37,2.68,2.68,0,0,0,2-2.59h0a2.7,2.7,0,0,0-2-2.59,2.11,2.11,0,0,0,.28-.37l2-3.45a2.08,2.08,0,0,0-1.8-3.13h-4a2.08,2.08,0,0,0-1.8,3.13l2,3.45a2.11,2.11,0,0,0,.28.37,2.7,2.7,0,0,0-2,2.59h0a2.68,2.68,0,0,0,2,2.59,2.11,2.11,0,0,0-.28.37l-2,3.45a2.08,2.08,0,0,0,1.8,3.13h4a2.08,2.08,0,0,0,1.8-3.13Z"/></clipPath></defs><title>assets</title><g class="cls-2"><g id="Layer_2" data-name="Layer 2"><g id="Logos"><rect class="cls-3" x="117.67" y="23.25" width="14.57" height="43.14" rx="7.28" ry="7.28" transform="translate(169.78 -80.14) rotate(90)"/><rect class="cls-3" x="117.67" y="-1.93" width="14.57" height="43.14" rx="7.28" ry="7.28" transform="translate(144.6 -105.32) rotate(90)"/><rect class="cls-4" x="117.67" y="23.25" width="14.57" height="43.14" rx="7.28" ry="7.28" transform="translate(169.78 -80.14) rotate(90)"/><rect class="cls-4" x="117.67" y="-1.93" width="14.57" height="43.14" rx="7.28" ry="7.28" transform="translate(144.6 -105.32) rotate(90)"/><rect class="cls-4" x="45.29" y="22.12" width="14.57" height="45.4" rx="7.28" ry="7.28" transform="translate(97.4 -7.75) rotate(90)"/><rect class="cls-4" x="45.29" y="-3.06" width="14.57" height="45.4" rx="7.28" ry="7.28" transform="translate(72.21 -32.94) rotate(90)"/><rect class="cls-4" x="57.63" y="2.83" width="39.75" height="58.81" rx="19.88" ry="19.88" transform="translate(109.74 -45.28) rotate(90)"/><path class="cls-5" d="M140.92,17.5h2.63a2.73,2.73,0,0,1,2.73,2.73v0a1.54,1.54,0,0,1-1.54,1.54h-5a1.54,1.54,0,0,1-1.54-1.54v0a2.73,2.73,0,0,1,2.73-2.73Z" transform="translate(161.88 -122.6) rotate(90)"/><path class="cls-5" d="M140.92,42.69h2.63a2.73,2.73,0,0,1,2.73,2.73v0A1.54,1.54,0,0,1,144.75,47h-5a1.54,1.54,0,0,1-1.54-1.54v0a2.73,2.73,0,0,1,2.73-2.73Z" transform="translate(187.06 -97.42) rotate(90)"/><path class="cls-5" d="M33.1,42.69h2.63a2.73,2.73,0,0,1,2.73,2.73v0A1.54,1.54,0,0,1,36.92,47h-5a1.54,1.54,0,0,1-1.54-1.54v0A2.73,2.73,0,0,1,33.1,42.69Z" transform="translate(-10.41 79.23) rotate(-90)"/><path class="cls-5" d="M33.1,17.5h2.63a2.73,2.73,0,0,1,2.73,2.73v0a1.54,1.54,0,0,1-1.54,1.54h-5a1.54,1.54,0,0,1-1.54-1.54v0A2.73,2.73,0,0,1,33.1,17.5Z" transform="translate(14.77 54.05) rotate(-90)"/><path class="cls-5" d="M109,12.29H96.7a8,8,0,0,0-1,.06H89.9V52.11h5.75a9,9,0,0,0,1,.07h12.49a19.92,19.92,0,0,0,19.86-19.86h0A20.09,20.09,0,0,0,109,12.29Z"/><path class="cls-6" d="M109,12.29q.84,0,1.65.06h28.58a7.29,7.29,0,1,1,0,14.57H128.3a19.67,19.67,0,0,1,.75,5.4,20,20,0,0,1-.7,5.22h10.89a7.29,7.29,0,1,1,0,14.57H110.9c-.56,0-1.14.07-1.71.07H96.7a9,9,0,0,1-1-.07H37.16a7.29,7.29,0,1,1,0-14.57H47.29a7.51,7.51,0,0,1,0-10.62H37.16a7.29,7.29,0,1,1,0-14.57H95.71a8,8,0,0,1,1-.06H109m0-4.52H96.7a10.64,10.64,0,0,0-1.26.07H37.16a11.8,11.8,0,1,0,0,23.6H40.6c0,.26,0,.53,0,.79s0,.53,0,.79H37.16a11.8,11.8,0,0,0,0,23.6H95.37a11.87,11.87,0,0,0,1.33.08h12.49c.62,0,1.26,0,1.9-.08h28.15a11.8,11.8,0,0,0,0-23.6h-5.68c0-.23,0-.47,0-.7s0-.59,0-.88h5.69a11.8,11.8,0,0,0,0-23.6H110.83c-.61,0-1.22-.07-1.82-.07Z"/><path class="cls-5" d="M89.9,27l-9.51-10.9a2.23,2.23,0,0,1,1.66-3.7l7.85-.06Z"/><path class="cls-4" d="M90.9,22.23l-4.66-5.34A1.12,1.12,0,0,1,87.07,15l4.66,0a1.1,1.1,0,0,1,1.12,1.11V21.5A1.11,1.11,0,0,1,90.9,22.23Z"/><path class="cls-5" d="M89.9,37.52l-9.51,10.9a2.23,2.23,0,0,0,1.66,3.7l7.85.06Z"/><path class="cls-4" d="M90.9,42.24l-4.66,5.34a1.11,1.11,0,0,0,.83,1.84l4.66,0a1.1,1.1,0,0,0,1.12-1.11V43A1.11,1.11,0,0,0,90.9,42.24Z"/><path class="cls-4" d="M124,40.07a3.82,3.82,0,0,1-1.57,3.07.66.66,0,0,1-.78-1.07,2.45,2.45,0,0,0,0-4,.67.67,0,0,1-.14-.93.65.65,0,0,1,.92-.14A3.8,3.8,0,0,1,124,40.07Z"/><path class="cls-4" d="M124,24.39a3.82,3.82,0,0,1-1.57,3.07.66.66,0,0,1-.78-1.07,2.45,2.45,0,0,0,0-4,.67.67,0,0,1-.14-.93.65.65,0,0,1,.92-.14A3.8,3.8,0,0,1,124,24.39Z"/><rect class="cls-4" x="124.84" y="32" width="4.18" height="0.55" rx="0.09" ry="0.09" transform="translate(253.85 64.56) rotate(-180)"/><polygon class="cls-4" points="124.55 30.29 124.55 34.15 125.16 34.15 126.75 32.23 125.14 30.29 124.55 30.29"/><circle class="cls-7" cx="108.34" cy="32.78" r="24.39"/><path class="cls-8" d="M108.34,8.39a24.39,24.39,0,1,1-24.4,24.39,24.39,24.39,0,0,1,24.4-24.39m0-1.13a25.52,25.52,0,1,0,25.52,25.52A25.55,25.55,0,0,0,108.34,7.26Z"/><rect class="cls-5" x="36.44" y="9.53" width="10.98" height="45.4" rx="5.49" ry="5.49" transform="translate(74.16 -9.7) rotate(90)"/><rect class="cls-4" x="25.68" y="26.71" width="3.16" height="10.99"/><rect class="cls-4" x="32" y="26.71" width="3.16" height="10.99"/><path class="cls-9" d="M203.68,18.51H414.07a14.31,14.31,0,0,1,14.27,14.27h0a14.31,14.31,0,0,1-14.27,14.27H203.68"/><path class="cls-10" d="M226.32,43.29l187.55,0A10.56,10.56,0,0,0,424.4,32.78h0a10.56,10.56,0,0,0-10.53-10.53H266.33a2.11,2.11,0,0,0-2.1,2.1h0a2.11,2.11,0,0,0,2.1,2.11h37.52a2.11,2.11,0,0,1,2.11,2.1h0a2.12,2.12,0,0,1-2.11,2.11H254.38a2.11,2.11,0,0,0-2.1,2.1h0a2.11,2.11,0,0,0,2.1,2.1H308.7A2.12,2.12,0,0,1,310.81,37h0a2.11,2.11,0,0,1-2.11,2.1H226.32a2.11,2.11,0,0,0,0,4.21Z"/><path class="cls-11" d="M314.23,27.84H339a1.65,1.65,0,0,1,1.64,1.64h0A1.65,1.65,0,0,1,339,31.12h-24.8a1.65,1.65,0,0,0,0,3.29h44.54a1.65,1.65,0,1,1,0,3.29H314.23a1.65,1.65,0,0,0,0,3.29h99.53A8.23,8.23,0,0,0,422,32.78h0a8.23,8.23,0,0,0-8.21-8.21H359l-.27,0H314.23a1.65,1.65,0,0,0,0,3.29Z"/><polygon class="cls-12" points="409.59 36.07 405.19 34.83 408.02 31.24 407.84 26.66 412.13 28.25 416.43 26.66 416.25 31.23 419.08 34.83 414.68 36.07 412.14 39.88 409.59 36.07"/><path class="cls-13" d="M416.08,27.14l-.17,4.2,2.61,3.3-4,1.14-2.33,3.5-2.34-3.49-4-1.14,2.6-3.3-.17-4.2,3.94,1.45,3.95-1.46m.7-1-.93.35-3.72,1.37-3.71-1.37-.93-.34,0,1,.15,4-2.45,3.11-.61.78,1,.27,3.81,1.07,2.2,3.29.55.82.55-.82,2.2-3.29,3.81-1.08.95-.27-.61-.78-2.46-3.11.16-3.95,0-1Z"/><path class="cls-14" d="M141.35,138a8.17,8.17,0,0,0-6.22,2.86l-.27.32,0,0a2.64,2.64,0,0,1-2.26,1.22,1.7,1.7,0,0,1-.69-.26,12.87,12.87,0,0,0-8.2-8.19,2,2,0,0,1-.26-.69,2.68,2.68,0,0,1,1.22-2.27l0,0,.32-.26a8.19,8.19,0,1,0-10.66,0l.33.26,0,0a2.63,2.63,0,0,1,1.22,2.27,1.82,1.82,0,0,1-.26.69,12.85,12.85,0,0,0-8.19,8.19,1.82,1.82,0,0,1-.69.26,2.66,2.66,0,0,1-2.27-1.22l0,0-.26-.32a8.2,8.2,0,1,0,0,10.66l.26-.32,0,0a2.68,2.68,0,0,1,2.27-1.22,2,2,0,0,1,.69.26,12.87,12.87,0,0,0,8.19,8.2,1.7,1.7,0,0,1,.26.69,2.62,2.62,0,0,1-1.22,2.26l0,0-.33.26a8.2,8.2,0,1,0,10.66,0l-.32-.26,0,0a2.66,2.66,0,0,1-1.22-2.26,1.86,1.86,0,0,1,.26-.69,12.88,12.88,0,0,0,8.2-8.2,1.86,1.86,0,0,1,.69-.26,2.66,2.66,0,0,1,2.26,1.22l0,0,.27.32A8.19,8.19,0,1,0,141.35,138Z"/><path class="cls-14" d="M37.79,139h.05l.42,0a8.2,8.2,0,1,0-7.55-7.55s0,.29.05.42V132a2.63,2.63,0,0,1-.74,2.46,1.77,1.77,0,0,1-.67.3,12.94,12.94,0,0,0-11.6,0,1.7,1.7,0,0,1-.67-.3,2.63,2.63,0,0,1-.75-2.46v-.05c0-.13,0-.42,0-.42a8.2,8.2,0,1,0-7.54,7.55l.41,0H9.3a2.65,2.65,0,0,1,2.46.74,1.86,1.86,0,0,1,.31.67,12.88,12.88,0,0,0,0,11.6,1.83,1.83,0,0,1-.31.68,2.65,2.65,0,0,1-2.46.74H9.25l-.41,0a8.21,8.21,0,1,0,7.54,7.55s0-.29,0-.42v0a2.63,2.63,0,0,1,.75-2.46,1.72,1.72,0,0,1,.67-.31,12.88,12.88,0,0,0,11.6,0A1.79,1.79,0,0,1,30,158a2.63,2.63,0,0,1,.74,2.46v0c0,.13-.05.42-.05.42a8.2,8.2,0,1,0,14-5.17,8.14,8.14,0,0,0-6.43-2.38l-.42,0h-.05a2.66,2.66,0,0,1-2.46-.74A1.82,1.82,0,0,1,35,152a12.88,12.88,0,0,0,0-11.6,1.84,1.84,0,0,1,.3-.67A2.66,2.66,0,0,1,37.79,139Z"/><path class="cls-13" d="M139.69,177.44a12.15,12.15,0,0,0,7.91-21.39s-.32-.28-.48-.4l-.05,0a3.91,3.91,0,0,1-1.81-3.36c.24-1.69,2.37-3,3.72-3.77h0a17.79,17.79,0,1,0-18.58,0h0c1.36.8,3.49,2.08,3.73,3.77a4,4,0,0,1-1.81,3.36l-.06,0-.48.4a12.16,12.16,0,0,0,7.91,21.39Z"/><path class="cls-13" d="M139.69,88.79a12.16,12.16,0,0,0-7.91,21.39s.33.28.48.39l.06.05a4,4,0,0,1,1.81,3.36c-.24,1.69-2.37,3-3.73,3.77h0a17.8,17.8,0,1,0,18.58,0h0c-1.35-.81-3.48-2.08-3.72-3.77a3.91,3.91,0,0,1,1.81-3.36l.05-.05c.16-.11.48-.39.48-.39a12.15,12.15,0,0,0-7.91-21.39Z"/><path class="cls-13" d="M184,133.11a12.16,12.16,0,0,0-21.39-7.91l-.4.48,0,.06c-.8,1-2,2-3.36,1.81-1.69-.24-3-2.37-3.77-3.73h0a17.8,17.8,0,1,0,0,18.58h0c.8-1.35,2.08-3.48,3.77-3.72,1.35-.19,2.56.8,3.36,1.81l0,0c.12.16.4.49.4.49A12.16,12.16,0,0,0,184,133.11Z"/><path class="cls-13" d="M95.37,133.11A12.16,12.16,0,0,0,116.76,141s.28-.33.39-.49l0,0c.8-1,2-2,3.36-1.81,1.69.24,3,2.37,3.77,3.72h0a17.79,17.79,0,1,0,0-18.58h0c-.81,1.36-2.08,3.49-3.77,3.73-1.35.19-2.56-.8-3.36-1.81l0-.06c-.11-.15-.39-.48-.39-.48a12.16,12.16,0,0,0-21.39,7.91Z"/><path class="cls-15" d="M129.14,101.4a10.56,10.56,0,0,1,21.11,0"/><path class="cls-13" d="M128.77,105.22a10.93,10.93,0,0,1,21.85,0"/><path class="cls-15" d="M150.25,164.83a10.56,10.56,0,0,1-21.11,0"/><path class="cls-13" d="M150.62,161a10.93,10.93,0,1,1-21.85,0"/><path class="cls-15" d="M108,143.67a10.56,10.56,0,0,1,0-21.11"/><path class="cls-13" d="M111.8,144a10.93,10.93,0,0,1,0-21.85"/><path class="cls-15" d="M171.41,122.56a10.56,10.56,0,0,1,0,21.11"/><path class="cls-13" d="M167.58,122.19a10.93,10.93,0,1,1,0,21.85"/><circle class="cls-13" cx="139.69" cy="133.11" r="19.06"/><circle class="cls-15" cx="139.69" cy="133.11" r="12.46"/><circle class="cls-16" cx="139.69" cy="133.11" r="8.55"/><path class="cls-17" d="M135.06,129.44h9.26v2.45h-3.47v2.46h3.47v2.44h-9.26v-2.44h3.48v-2.46h-3.48Z"/><path class="cls-13" d="M16.19,164.56A12.17,12.17,0,0,0,36.93,155s0-.43-.06-.62c0,0,0,0,0-.07a3.94,3.94,0,0,1,1.1-3.66c1.37-1,3.78-.42,5.3,0h0a17.81,17.81,0,1,0-13.15-13.15h0c.39,1.52,1,3.93,0,5.3-.82,1.09-2.37,1.25-3.66,1.1h-.07l-.62-.06a12.18,12.18,0,0,0-9.54,20.75Z"/><path class="cls-13" d="M78.94,101.8a12.17,12.17,0,0,0-20.74,9.54s0,.43.06.62c0,0,0,.05,0,.08.15,1.28,0,2.83-1.1,3.65-1.37,1-3.78.42-5.3,0h0A17.82,17.82,0,1,0,65,128.88h0c-.39-1.53-1-3.94,0-5.31a3.94,3.94,0,0,1,3.66-1.1h.07c.19,0,.62.06.62.06a12.17,12.17,0,0,0,9.54-20.74Z"/><path class="cls-13" d="M78.94,164.56a12.18,12.18,0,0,0-9.54-20.75l-.62.06h-.07a3.94,3.94,0,0,1-3.66-1.1c-1-1.37-.42-3.78,0-5.3h0a17.82,17.82,0,1,0-13.15,13.15h0c1.52-.39,3.93-1,5.3,0a3.94,3.94,0,0,1,1.1,3.66s0,.05,0,.07c0,.19-.06.62-.06.62a12.17,12.17,0,0,0,20.74,9.55Z"/><path class="cls-13" d="M16.19,101.8a12.17,12.17,0,0,0,9.54,20.74s.43,0,.62-.06h.07c1.29-.15,2.84,0,3.66,1.1,1,1.37.42,3.78,0,5.31h0a17.81,17.81,0,1,0,13.15-13.15h0c-1.52.39-3.93,1-5.3,0-1.09-.82-1.25-2.37-1.1-3.65,0,0,0-.05,0-.08,0-.19.06-.62.06-.62a12.17,12.17,0,0,0-20.74-9.54Z"/><path class="cls-15" d="M62.54,103.26A10.57,10.57,0,1,1,77.49,118.2"/><path class="cls-13" d="M59.57,105.7A10.94,10.94,0,1,1,75,121.17"/><path class="cls-15" d="M32.59,163.1a10.57,10.57,0,0,1-14.94-14.95"/><path class="cls-13" d="M35.56,160.65a10.94,10.94,0,1,1-15.47-15.46"/><path class="cls-15" d="M17.65,118.2a10.56,10.56,0,0,1,14.94-14.94"/><path class="cls-13" d="M20.09,121.17A10.94,10.94,0,0,1,35.56,105.7"/><path class="cls-15" d="M77.49,148.15A10.57,10.57,0,1,1,62.54,163.1"/><path class="cls-13" d="M75,145.19a10.94,10.94,0,1,1-15.47,15.46"/><circle class="cls-13" cx="47.57" cy="133.18" r="19.08"/><circle class="cls-15" cx="47.57" cy="133.18" r="12.47"/><circle class="cls-18" cx="47.57" cy="133.18" r="8.56"/><path class="cls-13" d="M49.87,132.46l-3.19-3.19,1.51-1.51L53,132.55l-6,6-4.79-4.79,1.51-1.51,3.19,3.19Z"/><rect class="cls-19" x="480.15" y="132.53" width="139.9" height="5.28" rx="2.64" ry="2.64" transform="translate(1100.2 270.34) rotate(-180)"/><path class="cls-20" d="M480.15,135.17h0a2.87,2.87,0,0,0,3,2.64H617a2.87,2.87,0,0,0,3-2.64h0"/><rect class="cls-21" x="489.71" y="143.09" width="139.9" height="5.28" rx="2.64" ry="2.64" transform="translate(1119.31 291.47) rotate(-180)"/><path class="cls-22" d="M489.71,145.73h0a2.87,2.87,0,0,0,3,2.65H626.57a2.87,2.87,0,0,0,3-2.65h0"/><rect class="cls-5" x="632.5" y="117.85" width="23.19" height="7.26" rx="3.63" ry="3.63" transform="translate(1288.18 242.96) rotate(180)"/><g class="cls-23"><rect class="cls-24" x="652.82" y="115.01" width="2.24" height="13.13" transform="translate(1030.38 669.95) rotate(-135)"/><rect class="cls-24" x="647.88" y="115.01" width="2.24" height="13.13" transform="translate(1021.94 666.45) rotate(-135)"/><rect class="cls-24" x="642.94" y="115.01" width="2.24" height="13.13" transform="translate(1013.5 662.96) rotate(-135)"/><rect class="cls-24" x="637.99" y="115.01" width="2.24" height="13.13" transform="translate(1005.07 659.46) rotate(-135)"/><rect class="cls-24" x="633.05" y="115.01" width="2.24" height="13.13" transform="translate(996.63 655.97) rotate(-135)"/></g><rect class="cls-13" x="634.01" y="123.88" width="3.4" height="15.85" rx="1.7" ry="1.7"/><rect class="cls-13" x="630.65" y="123.88" width="3.4" height="15.85" rx="1.7" ry="1.7" transform="translate(1264.71 263.61) rotate(-180)"/><rect class="cls-13" x="644.07" y="123.88" width="3.4" height="15.85" rx="1.7" ry="1.7"/><rect class="cls-13" x="640.72" y="123.88" width="3.4" height="15.85" rx="1.7" ry="1.7"/><rect class="cls-13" x="637.36" y="123.88" width="3.4" height="15.85" rx="1.7" ry="1.7"/><rect class="cls-13" x="647.42" y="123.88" width="3.4" height="15.85" rx="1.7" ry="1.7"/><rect class="cls-13" x="650.78" y="123.88" width="3.4" height="15.85" rx="1.7" ry="1.7"/><rect class="cls-13" x="654.13" y="123.88" width="3.4" height="15.85" rx="1.7" ry="1.7" transform="translate(1311.66 263.61) rotate(180)"/><path class="cls-17" d="M655.83,139.73h0a1.7,1.7,0,0,0,1.7-1.7V125.58a1.71,1.71,0,0,0-1.7-1.7h0"/><path class="cls-17" d="M652.47,139.73h0a1.7,1.7,0,0,0,1.7-1.7V125.58a1.7,1.7,0,0,0-1.7-1.7h0"/><path class="cls-17" d="M649.12,139.73h0a1.7,1.7,0,0,0,1.7-1.7V125.58a1.7,1.7,0,0,0-1.7-1.7h0"/><path class="cls-17" d="M645.77,139.73h0a1.7,1.7,0,0,0,1.7-1.7V125.58a1.71,1.71,0,0,0-1.7-1.7h0"/><path class="cls-17" d="M642.41,139.73h0a1.7,1.7,0,0,0,1.7-1.7V125.58a1.7,1.7,0,0,0-1.7-1.7h0"/><path class="cls-17" d="M639.06,139.73h0a1.7,1.7,0,0,0,1.7-1.7V125.58a1.71,1.71,0,0,0-1.7-1.7h0"/><path class="cls-17" d="M635.71,139.73h0a1.7,1.7,0,0,0,1.69-1.7V125.58a1.7,1.7,0,0,0-1.69-1.7h0"/><path class="cls-17" d="M632.35,139.73h0a1.7,1.7,0,0,0,1.7-1.7V125.58a1.7,1.7,0,0,0-1.7-1.7h0"/><rect class="cls-25" x="521.02" y="137.81" width="139.9" height="5.28" rx="2.64" ry="2.64" transform="translate(1181.94 280.91) rotate(-180)"/><path class="cls-26" d="M521,140.45h0a2.87,2.87,0,0,0,3,2.64H657.88a2.87,2.87,0,0,0,3-2.64h0"/><rect class="cls-13" x="522.29" y="19.24" width="113.98" height="36.08" rx="18.04" ry="18.04"/><circle class="cls-13" cx="595.98" cy="19.64" r="19.64"/><circle class="cls-13" cx="565.72" cy="19.64" r="19.64"/><path class="cls-15" d="M636.27,37.29h0a18.1,18.1,0,0,1-18,18h-77.9a18.09,18.09,0,0,1-18-18h0"/><circle cx="565.86" cy="31.2" r="3.58"/><circle class="cls-27" cx="559.89" cy="37.47" r="3.58"/><circle class="cls-27" cx="598.66" cy="37.47" r="3.58"/><circle cx="592.39" cy="31.2" r="3.58"/><rect x="576.14" y="34.49" width="6.27" height="0.9" rx="0.45" ry="0.45"/><rect class="cls-26" x="283.11" y="144.32" width="169.07" height="6.71" rx="3.35" ry="3.35"/><rect class="cls-26" x="283.11" y="115.2" width="76.2" height="6.71" rx="3.35" ry="3.35"/><rect class="cls-26" x="280.88" y="124.91" width="102.09" height="6.71" rx="3.35" ry="3.35"/><rect class="cls-26" x="280.88" y="134.61" width="132.93" height="6.71" rx="3.35" ry="3.35"/><path class="cls-28" d="M248.26,115.28h48.18a2.14,2.14,0,0,1,2.14,2.14v31.15a2.14,2.14,0,0,1-2.14,2.14H247.89A16.92,16.92,0,0,1,231,133.79v-1.22A17.28,17.28,0,0,1,248.26,115.28Z"/><rect class="cls-26" x="277.47" y="107.9" width="14.85" height="50.44" rx="7.42" ry="7.42"/><circle class="cls-10" cx="284.89" cy="150.26" r="3.07"/><path class="cls-24" d="M284.89,147.82a2.44,2.44,0,1,1-2.44,2.44,2.44,2.44,0,0,1,2.44-2.44m0-1.27a3.71,3.71,0,1,0,3.7,3.71,3.71,3.71,0,0,0-3.7-3.71Z"/><path class="cls-10" d="M284.89,119A3.07,3.07,0,1,1,288,116,3.07,3.07,0,0,1,284.89,119Z"/><path class="cls-24" d="M284.89,113.53a2.44,2.44,0,1,1-2.44,2.44,2.44,2.44,0,0,1,2.44-2.44m0-1.26a3.71,3.71,0,1,0,3.7,3.7,3.71,3.71,0,0,0-3.7-3.7Z"/><path class="cls-29" d="M290.51,133a9.37,9.37,0,0,1,4,7.53,6.19,6.19,0,0,1-2.37,5.6,3.73,3.73,0,0,1-4.14.44,1.75,1.75,0,0,1-.71-2.61,1,1,0,0,1,1.56-.28s0,0,0,0c-.47.12-.94.32-.91.86a1.4,1.4,0,0,0,.52.93,1.15,1.15,0,0,0,1.43-.06,2.18,2.18,0,0,0,.76-2.21,4.2,4.2,0,0,0-2.05-2.82c-.49-.33-1-.59-1.5-.93a4.06,4.06,0,0,1-1.64-4.47,3.68,3.68,0,0,1,1.56-2l-.17-.15a3.73,3.73,0,0,1-.6-5.53,13,13,0,0,1,1.71-1.39,18.19,18.19,0,0,0,2.1-1.81,2.53,2.53,0,0,0,.52-2.52,2.7,2.7,0,0,0-.6-1,1.09,1.09,0,0,0-1.42-.19,1.51,1.51,0,0,0-.63.92c-.06.55.42.8.92.92a.94.94,0,0,1-1.42-.11,1.74,1.74,0,0,1,.42-2.62,3.55,3.55,0,0,1,3.6-.13,5.43,5.43,0,0,1,3,4.5A9.51,9.51,0,0,1,290.51,133Z"/><rect class="cls-24" x="296.08" y="130.65" width="7.1" height="5.34" rx="2.67" ry="2.67"/><path class="cls-24" d="M303.43,126.91l-2,3.45a2.08,2.08,0,0,1-3.61,0l-2-3.45a2.08,2.08,0,0,1,1.8-3.13h4A2.08,2.08,0,0,1,303.43,126.91Z"/><path class="cls-24" d="M295.84,139.73l2-3.45a2.08,2.08,0,0,1,3.61,0l2,3.45a2.08,2.08,0,0,1-1.8,3.13h-4A2.08,2.08,0,0,1,295.84,139.73Z"/><g class="cls-30"><rect class="cls-5" x="279.45" y="132.82" width="22.25" height="0.9"/><rect class="cls-5" x="279.45" y="131.22" width="22.25" height="0.9"/><rect class="cls-5" x="279.45" y="129.61" width="22.25" height="0.9"/><rect class="cls-5" x="279.45" y="128.01" width="22.25" height="0.9"/><rect class="cls-5" x="279.45" y="126.4" width="22.25" height="0.9"/><rect class="cls-5" x="279.45" y="124.8" width="22.25" height="0.9"/><rect class="cls-5" x="279.45" y="123.19" width="22.25" height="0.9"/><rect class="cls-5" x="279.45" y="121.59" width="22.25" height="0.9"/><rect class="cls-5" x="279.45" y="119.98" width="22.25" height="0.9"/><rect class="cls-5" x="279.45" y="118.38" width="22.25" height="0.9"/><rect class="cls-5" x="279.45" y="116.77" width="22.25" height="0.9"/><rect class="cls-27" x="279.45" y="150.46" width="22.25" height="0.9"/><rect class="cls-27" x="279.45" y="148.86" width="22.25" height="0.9"/><rect class="cls-27" x="279.45" y="147.25" width="22.25" height="0.9"/><rect class="cls-27" x="279.45" y="145.65" width="22.25" height="0.9"/><rect class="cls-27" x="279.45" y="144.04" width="22.25" height="0.9"/><rect class="cls-27" x="279.45" y="142.44" width="22.25" height="0.9"/><rect class="cls-27" x="279.45" y="140.83" width="22.25" height="0.9"/><rect class="cls-27" x="279.45" y="139.23" width="22.25" height="0.9"/><rect class="cls-27" x="279.45" y="137.63" width="22.25" height="0.9"/><rect class="cls-27" x="279.45" y="136.02" width="22.25" height="0.9"/><rect class="cls-27" x="279.45" y="134.42" width="22.25" height="0.9"/></g><g class="cls-31"><rect class="cls-32" x="278.96" y="150.55" width="77.08" height="1.94" transform="translate(-14.15 268.89) rotate(-45)"/><rect class="cls-32" x="276.52" y="148.11" width="77.08" height="1.94" transform="translate(-13.14 266.44) rotate(-45)"/><rect class="cls-32" x="274.08" y="145.66" width="77.08" height="1.94" transform="translate(-12.12 264) rotate(-45)"/><rect class="cls-32" x="271.63" y="143.22" width="77.08" height="1.94" transform="translate(-11.11 261.56) rotate(-45)"/><rect class="cls-32" x="269.19" y="140.78" width="77.08" height="1.94" transform="translate(-10.1 259.12) rotate(-45)"/><rect class="cls-32" x="266.75" y="138.34" width="77.08" height="1.94" transform="translate(-9.09 256.67) rotate(-45)"/><rect class="cls-32" x="264.31" y="135.89" width="77.08" height="1.94" transform="translate(-8.08 254.23) rotate(-45)"/><rect class="cls-32" x="261.86" y="133.45" width="77.08" height="1.94" transform="translate(-7.07 251.79) rotate(-45)"/><rect class="cls-32" x="259.42" y="131.01" width="77.08" height="1.94" transform="translate(-6.05 249.35) rotate(-45)"/><rect class="cls-32" x="256.98" y="128.57" width="77.08" height="1.94" transform="translate(-5.04 246.91) rotate(-45)"/><rect class="cls-32" x="254.54" y="126.12" width="77.08" height="1.94" transform="translate(-4.03 244.46) rotate(-45)"/></g><rect x="295.13" y="255.84" width="64.66" height="8.62" rx="4.31" ry="4.31"/><path class="cls-13" d="M348.2,264.56V251.75a7,7,0,0,0-.07-1v-28.4a7.59,7.59,0,0,0-7.57-7.57h0a7.59,7.59,0,0,0-7.58,7.57V244h-11V222.32a7.59,7.59,0,0,0-7.57-7.57h0a7.59,7.59,0,0,0-7.58,7.57v28.34a7.88,7.88,0,0,0-.08,1.09v13"/><rect class="cls-33" x="336.35" y="219.69" width="8.42" height="34.51" rx="4.21" ry="4.21" transform="translate(681.12 473.89) rotate(180)"/><rect class="cls-33" x="310.16" y="219.69" width="8.42" height="34.51" rx="4.21" ry="4.21" transform="translate(628.73 473.89) rotate(180)"/></g></g></g></svg>