<svg xmlns="http://www.w3.org/2000/svg" xmlns:xlink="http://www.w3.org/1999/xlink" viewBox="0 0 654.57 207.43"><defs><style>.cls-1,.cls-26{fill:none;}.cls-2{isolation:isolate;}.cls-24,.cls-3{fill:#fff;}.cls-4{fill:#333;}.cls-5{fill:#1a1a1a;}.cls-6{fill:#bd202e;}.cls-7{fill:#8b1928;}.cls-31,.cls-7{opacity:0.5;}.cls-8{fill:#ea2127;}.cls-9{fill:#fde2d6;}.cls-10{fill:#d4aea2;}.cls-11{fill:#584844;}.cls-12{fill:#473b37;}.cls-13{fill:#352c28;}.cls-14{fill:#e5c3b7;}.cls-15,.cls-19,.cls-38{opacity:0.49;}.cls-15,.cls-19,.cls-25,.cls-38{mix-blend-mode:multiply;}.cls-16,.cls-19,.cls-20{fill:#221f1f;}.cls-17{fill:#fcee21;}.cls-18{fill:#5ab5c5;}.cls-20,.cls-35{opacity:0.3;}.cls-21{fill:#e6e6e6;}.cls-22{clip-path:url(#clip-path);}.cls-23,.cls-25{fill:#59121b;}.cls-24{opacity:0.58;}.cls-25{opacity:0.52;}.cls-26{stroke:#221f1f;stroke-miterlimit:10;stroke-width:0.79px;}.cls-27{clip-path:url(#clip-path-2);}.cls-28{clip-path:url(#clip-path-3);}.cls-29{clip-path:url(#clip-path-4);}.cls-30{fill:#be1e2d;}.cls-31,.cls-41{fill:#8c1927;}.cls-32{fill:#ec1c24;}.cls-33{fill:#fde3d7;}.cls-34{fill:#d5afa3;}.cls-35,.cls-38,.cls-39{fill:#231f20;}.cls-36{fill:#574844;}.cls-37{fill:#e7c5b8;}.cls-40{fill:#e6e7e8;}.cls-42{clip-path:url(#clip-path-5);}.cls-43{clip-path:url(#clip-path-6);}.cls-44{clip-path:url(#clip-path-7);}.cls-45{clip-path:url(#clip-path-8);}.cls-46{fill:#59b6c6;}.cls-47{clip-path:url(#clip-path-9);}.cls-48{clip-path:url(#clip-path-10);}.cls-49{clip-path:url(#clip-path-11);}.cls-50{clip-path:url(#clip-path-12);}.cls-51{clip-path:url(#clip-path-13);}.cls-52{clip-path:url(#clip-path-14);}.cls-53{clip-path:url(#clip-path-15);}.cls-54{clip-path:url(#clip-path-16);}</style><clipPath id="clip-path"><path class="cls-1" d="M39.81,139.8h0a3.36,3.36,0,0,0-3.35,3.35V188a3.35,3.35,0,0,0,3.35,3.34h0A3.35,3.35,0,0,0,43.15,188V143.15A3.35,3.35,0,0,0,39.81,139.8Z"/></clipPath><clipPath id="clip-path-2"><path class="cls-1" d="M39.64,206.39a2.24,2.24,0,0,1-1.29-.45c-1.22-1-2-12.85-2.13-15.18a13.12,13.12,0,0,1,0-2.58c0-1.53,1.69-2.77,3.72-2.76h.18c2,0,3.66,1.3,3.63,2.83a13.82,13.82,0,0,1-.11,2.58C43.4,193.16,42.23,205,41,206a2.27,2.27,0,0,1-1.3.43Z"/></clipPath><clipPath id="clip-path-3"><path class="cls-1" d="M29.2,139.8h0a3.36,3.36,0,0,0-3.35,3.35V188a3.35,3.35,0,0,0,3.35,3.34h0A3.35,3.35,0,0,0,32.54,188V143.15A3.35,3.35,0,0,0,29.2,139.8Z"/></clipPath><clipPath id="clip-path-4"><path class="cls-1" d="M29,206.39a2.27,2.27,0,0,1-1.3-.45c-1.22-1-2-12.85-2.12-15.18a12.92,12.92,0,0,1,0-2.58c0-1.53,1.69-2.77,3.72-2.76h.18c2,0,3.67,1.3,3.63,2.83a13.82,13.82,0,0,1-.11,2.58C32.8,193.16,31.62,205,30.37,206a2.33,2.33,0,0,1-1.31.43Z"/></clipPath><clipPath id="clip-path-5"><path class="cls-1" d="M586.74,138.6h0A3.35,3.35,0,0,0,583.4,142v44.88a3.35,3.35,0,0,0,3.34,3.34h0a3.35,3.35,0,0,0,3.35-3.34V142A3.36,3.36,0,0,0,586.74,138.6Z"/></clipPath><clipPath id="clip-path-6"><path class="cls-1" d="M601.53,119.13h0a3.36,3.36,0,0,0,4.73,0l31.62-31.62.11-.11a3.34,3.34,0,0,0,0-4.73h0a3.34,3.34,0,0,0-4.73,0l-.11.11L601.53,114.4A3.36,3.36,0,0,0,601.53,119.13Z"/></clipPath><clipPath id="clip-path-7"><path class="cls-1" d="M586.69,206.39A2.27,2.27,0,0,0,588,206c1.24-.94,2.31-12.8,2.5-15.13a13.07,13.07,0,0,0,.08-2.57c0-1.53-1.62-2.81-3.65-2.85h-.18c-2,0-3.69,1.21-3.7,2.74a13.69,13.69,0,0,0,.05,2.57c.16,2.34,1,14.22,2.27,15.2a2.35,2.35,0,0,0,1.3.46Z"/></clipPath><clipPath id="clip-path-8"><path class="cls-1" d="M650.33,71.89a2.36,2.36,0,0,0-1.19-.68c-1.53-.28-11,7-12.82,8.4a14,14,0,0,0-2,1.68c-1.13,1-1,3.1.38,4.62l.06.07.06.06c1.36,1.51,3.39,1.9,4.52.87a13,13,0,0,0,1.86-1.78c1.62-1.69,9.76-10.39,9.65-12a2.26,2.26,0,0,0-.54-1.26Z"/></clipPath><clipPath id="clip-path-9"><path class="cls-1" d="M214.5,137.36h0a3.23,3.23,0,0,0-3.23,3.23V184a3.23,3.23,0,0,0,3.23,3.23h0a3.23,3.23,0,0,0,3.23-3.23V140.59A3.23,3.23,0,0,0,214.5,137.36Z"/></clipPath><clipPath id="clip-path-10"><path class="cls-1" d="M219.92,138.81h0a3.35,3.35,0,0,0-3.34,3.34V187a3.35,3.35,0,0,0,3.34,3.34h0a3.35,3.35,0,0,0,3.35-3.34V142.15A3.35,3.35,0,0,0,219.92,138.81Z"/></clipPath><clipPath id="clip-path-11"><path class="cls-1" d="M214.12,203.17a2.27,2.27,0,0,0,1.31-.42c1.24-.94,2.31-12.8,2.5-15.13a13.07,13.07,0,0,0,.08-2.57c0-1.53-1.62-2.81-3.65-2.85h-.18c-2,0-3.69,1.21-3.7,2.73a13.84,13.84,0,0,0,.05,2.58c.16,2.34,1,14.22,2.27,15.2a2.38,2.38,0,0,0,1.3.46Z"/></clipPath><clipPath id="clip-path-12"><path class="cls-1" d="M219.85,206.39a2.26,2.26,0,0,0,1.3-.42c1.25-.94,2.31-12.8,2.5-15.13a12.86,12.86,0,0,0,.09-2.57c0-1.53-1.63-2.81-3.65-2.85h-.18c-2,0-3.7,1.21-3.7,2.74a13.69,13.69,0,0,0,0,2.57c.15,2.34,1,14.22,2.27,15.2a2.32,2.32,0,0,0,1.3.46Z"/></clipPath><clipPath id="clip-path-13"><path class="cls-1" d="M410.61,140h0a3.36,3.36,0,0,0-2.92,3.73l5.37,44.4,0,.16a3.36,3.36,0,0,0,3.72,2.92h0a3.36,3.36,0,0,0,2.92-3.73l0-.15-5.37-44.41A3.36,3.36,0,0,0,410.61,140Z"/></clipPath><clipPath id="clip-path-14"><path class="cls-1" d="M398.81,127.71h0a3.36,3.36,0,0,0-2.92,3.73l5.37,44.4V176a3.36,3.36,0,0,0,3.73,2.92h0a3.36,3.36,0,0,0,2.92-3.72l0-.16-5.37-44.4A3.36,3.36,0,0,0,398.81,127.71Z"/></clipPath><clipPath id="clip-path-15"><path class="cls-1" d="M419.5,206.36a2.2,2.2,0,0,0,1.21-.64c1.06-1.15,0-13-.22-15.33a12.62,12.62,0,0,0-.37-2.55c-.25-1.51-2.09-2.48-4.1-2.15h-.09l-.08,0c-2,.33-3.42,1.84-3.16,3.34a13.82,13.82,0,0,0,.51,2.53c.56,2.27,3.54,13.81,4.92,14.55a2.26,2.26,0,0,0,1.36.23Z"/></clipPath><clipPath id="clip-path-16"><path class="cls-1" d="M408.05,195.27a2.31,2.31,0,0,0,1.21-.65c1.06-1.14,0-13-.22-15.32a13.6,13.6,0,0,0-.37-2.55c-.25-1.51-2.1-2.48-4.1-2.16l-.09,0h-.09c-2,.34-3.42,1.84-3.15,3.35a12.9,12.9,0,0,0,.5,2.53c.57,2.27,3.54,13.81,4.93,14.55a2.33,2.33,0,0,0,1.36.22Z"/></clipPath></defs><title>Poses</title><g class="cls-2"><g id="Layer_2" data-name="Layer 2"><g id="Logos"><path class="cls-3" d="M7.41,100a27.21,27.21,0,1,1,54.41,0"/><ellipse class="cls-4" cx="34.61" cy="100.14" rx="27.21" ry="4.04"/><ellipse class="cls-5" cx="34.61" cy="100.14" rx="25.65" ry="2.88"/><circle class="cls-6" cx="10.2" cy="40.75" r="10.2"/><path class="cls-7" d="M0,40.75a10.21,10.21,0,1,0,20.41,0C20.41,35.12,0,35.12,0,40.75Z"/><ellipse class="cls-8" cx="10.21" cy="33.44" rx="5.21" ry="2.22"/><circle class="cls-6" cx="58.92" cy="40.75" r="10.2"/><path class="cls-7" d="M69.13,40.75a10.21,10.21,0,1,1-20.41,0C48.72,35.12,69.13,35.12,69.13,40.75Z"/><ellipse class="cls-8" cx="58.92" cy="33.44" rx="5.21" ry="2.22"/><rect class="cls-9" x="33.81" y="57.93" width="30.92" height="6.4" rx="3.2" ry="3.2" transform="translate(50.31 139.63) rotate(-141.88)"/><rect class="cls-10" x="55.72" y="43.91" width="6.4" height="24.52" rx="3.03" ry="3.03"/><rect class="cls-9" x="55.72" y="45.98" width="6.4" height="24.52" rx="3.03" ry="3.03"/><rect class="cls-9" x="4.39" y="57.93" width="30.92" height="6.4" rx="3.2" ry="3.2" transform="translate(-33.5 25.29) rotate(-38.12)"/><rect class="cls-10" x="7.01" y="43.91" width="6.4" height="24.52" rx="3.03" ry="3.03"/><rect class="cls-9" x="7.01" y="45.98" width="6.4" height="24.52" rx="3.03" ry="3.03"/><path class="cls-11" d="M29.08,53.39c0,2.12-2.67,4-4.3,5.11h0a19.27,19.27,0,1,0,19.81.18h0c-1.79-1.07-4.26-3-4.26-5.29"/><path class="cls-12" d="M29.55,55.16c0,1.93-2.44,3.67-3.93,4.67h0A17.6,17.6,0,1,0,43.73,60h0c-1.65-1-3.9-2.79-3.9-4.83"/><path class="cls-13" d="M43.1,59.52h0A5.19,5.19,0,0,1,42.52,51l.06-.05a4.3,4.3,0,0,1,.52-.35v-.08a13.16,13.16,0,1,0-16.88.22h0l.05,0,.47.36a5.2,5.2,0,0,1-.52,8.26h0a16.4,16.4,0,1,0,16.88.15Z"/><path class="cls-14" d="M24.05,39.29a10.49,10.49,0,1,1,21,0C45,45.08,24.05,45.08,24.05,39.29Z"/><path class="cls-9" d="M24.32,38.33a10.22,10.22,0,0,1,20.43,0C44.75,44,24.32,44,24.32,38.33Z"/><g class="cls-15"><path class="cls-16" d="M34.5,41a6.21,6.21,0,1,1-6.21,6.2A6.21,6.21,0,0,1,34.5,41Zm0,11.1a4.9,4.9,0,1,0-4.89-4.9A4.9,4.9,0,0,0,34.5,52.11Z"/></g><path class="cls-17" d="M34.5,48.73a6,6,0,1,1,6-6A6,6,0,0,1,34.5,48.73Zm0-11.09a5.12,5.12,0,1,0,5.12,5.12A5.12,5.12,0,0,0,34.5,37.64Z"/><path class="cls-3" d="M34.5,37a5.75,5.75,0,1,1-5.74,5.75A5.75,5.75,0,0,1,34.5,37m0,11.1a5.36,5.36,0,1,0-5.35-5.35,5.36,5.36,0,0,0,5.35,5.35m0-11.56a6.21,6.21,0,1,0,6.2,6.21,6.22,6.22,0,0,0-6.2-6.21Zm0,11.1a4.89,4.89,0,1,1,4.89-4.89,4.9,4.9,0,0,1-4.89,4.89Z"/><circle class="cls-18" cx="39.7" cy="34.04" r="1.13"/><circle class="cls-18" cx="29.37" cy="34.04" r="1.13"/><circle class="cls-18" cx="39.7" cy="34.04" r="1.13"/><circle class="cls-18" cx="29.37" cy="34.04" r="1.13"/><path class="cls-19" d="M15.27,75.2a19.27,19.27,0,1,0,38.53,0c0-3.48-3.06,8.72-19.32,8.72C17.19,83.92,15.27,71.66,15.27,75.2Z"/><path class="cls-20" d="M17.31,82.41a17.23,17.23,0,1,0,34.45,0c0-3.11-2.74,7.8-17.27,7.8C19,90.21,17.31,79.25,17.31,82.41Z"/><path class="cls-16" d="M34.58,66.82a1.24,1.24,0,0,0,0,1.75l3.53,3.52a1.24,1.24,0,0,0,1.75,0l6.19-6.19.16-.14a3.73,3.73,0,0,0-5.27-5.28.08.08,0,0,0,0,0l-.12.1Z"/><path class="cls-16" d="M37.93,65.79a.72.72,0,0,0-1,0l-2,2a.71.71,0,0,0,0,1l6,6,.09.09A2.16,2.16,0,0,0,44,71.85l0,0-.06-.07Z"/><path class="cls-16" d="M34.48,66.82a1.23,1.23,0,0,1,0,1.75L31,72.09a1.24,1.24,0,0,1-1.75,0L23,65.9l-.16-.14a3.73,3.73,0,0,1,5.27-5.28l0,0,.12.1Z"/><path class="cls-16" d="M31.14,65.79a.72.72,0,0,1,1,0l2,2a.71.71,0,0,1,0,1l-6,6-.08.09a2.16,2.16,0,0,1-3.06-3.06l0,0,.07-.07Z"/><path class="cls-3" d="M34.58,63.44a1.11,1.11,0,0,0,0,1.58l3.19,3.2a1.14,1.14,0,0,0,1.59,0L45,62.61l.15-.13a3.38,3.38,0,0,0-4.78-4.78l0,0-.11.1Z"/><path class="cls-3" d="M37.61,62.51a.64.64,0,0,0-.92,0l-1.85,1.85a.63.63,0,0,0,0,.91l5.41,5.42.08.08A2,2,0,0,0,43.09,68l0,0,0-.06Z"/><path class="cls-3" d="M34.49,63.44a1.13,1.13,0,0,1,0,1.58l-3.19,3.2a1.14,1.14,0,0,1-1.59,0l-5.6-5.61L24,62.48a3.38,3.38,0,0,1,4.78-4.78l0,0,.11.1Z"/><path class="cls-3" d="M31.46,62.51a.64.64,0,0,1,.92,0l1.85,1.85a.65.65,0,0,1,0,.91l-5.41,5.42a.6.6,0,0,0-.08.08A2,2,0,0,1,26,68l0,0,.06-.06Z"/><path class="cls-21" d="M34.58,63.5a1,1,0,0,0,0,1.43l2.89,2.9a1,1,0,0,0,1.44,0L44,62.74l.14-.12a3.07,3.07,0,0,0-4.34-4.33l0,0-.1.09Z"/><path class="cls-21" d="M37.32,62.65a.59.59,0,0,0-.83,0l-1.68,1.68a.59.59,0,0,0,0,.83l4.91,4.91a.46.46,0,0,0,.07.07,1.76,1.76,0,0,0,2.51,0,1.78,1.78,0,0,0,0-2.51h0l-.05-.06Z"/><path class="cls-21" d="M34.49,63.5a1,1,0,0,1,0,1.43l-2.89,2.9a1,1,0,0,1-1.44,0l-5.08-5.09-.14-.12a3.07,3.07,0,1,1,4.34-4.33l0,0,.11.09Z"/><path class="cls-21" d="M31.75,62.65a.59.59,0,0,1,.83,0l1.68,1.68a.59.59,0,0,1,0,.83l-4.91,4.91a.46.46,0,0,1-.07.07,1.76,1.76,0,0,1-2.51,0,1.78,1.78,0,0,1,0-2.51h0l.05-.06Z"/><path class="cls-10" d="M39.81,98.24h0a3.36,3.36,0,0,0-3.35,3.35v28.55a3.36,3.36,0,0,0,3.35,3.35h0a3.35,3.35,0,0,0,3.34-3.35V101.59A3.35,3.35,0,0,0,39.81,98.24Z"/><path class="cls-9" d="M39.81,125.33h0a3.36,3.36,0,0,0-3.35,3.35v28.55a3.36,3.36,0,0,0,3.35,3.35h0a3.35,3.35,0,0,0,3.34-3.35V128.68A3.35,3.35,0,0,0,39.81,125.33Z"/><path class="cls-8" d="M39.81,139.8h0a3.36,3.36,0,0,0-3.35,3.35V188a3.35,3.35,0,0,0,3.35,3.34h0A3.35,3.35,0,0,0,43.15,188V143.15A3.35,3.35,0,0,0,39.81,139.8Z"/><path class="cls-3" d="M39.81,150.32h0a3.35,3.35,0,0,1,3.34,3.34v-3.92a3.35,3.35,0,0,0-3.34-3.34h0a3.35,3.35,0,0,0-3.35,3.34v3.92A3.35,3.35,0,0,1,39.81,150.32Z"/><g class="cls-22"><rect class="cls-6" x="42.03" y="134.33" width="0.61" height="60.82" transform="translate(84.68 329.49) rotate(-180)"/><rect class="cls-6" x="40.77" y="134.33" width="0.61" height="60.82" transform="translate(82.15 329.49) rotate(-180)"/><rect class="cls-6" x="39.5" y="134.33" width="0.61" height="60.82" transform="translate(79.61 329.49) rotate(-180)"/><rect class="cls-6" x="38.23" y="134.33" width="0.61" height="60.82" transform="translate(77.07 329.49) rotate(-180)"/><rect class="cls-6" x="36.96" y="134.33" width="0.61" height="60.82" transform="translate(74.54 329.49) rotate(-180)"/></g><path class="cls-23" d="M39.81,141.78h0a3.35,3.35,0,0,1,3.34,3.35v-3.92a3.35,3.35,0,0,0-3.34-3.35h0a3.36,3.36,0,0,0-3.35,3.35v3.92A3.36,3.36,0,0,1,39.81,141.78Z"/><path class="cls-24" d="M39.81,150.32h0a3.35,3.35,0,0,1,3.34,3.34v-3.92a3.35,3.35,0,0,0-3.34-3.34h0a3.35,3.35,0,0,0-3.35,3.34v3.92A3.35,3.35,0,0,1,39.81,150.32Z"/><path class="cls-25" d="M39.81,181h0a3.36,3.36,0,0,0-3.35,3.35V188a3.35,3.35,0,0,0,3.35,3.34h0A3.35,3.35,0,0,0,43.15,188V184.3A3.35,3.35,0,0,0,39.81,181Z"/><path class="cls-13" d="M39.81,184.41h0a3.36,3.36,0,0,0-3.35,3.35V188a3.35,3.35,0,0,0,3.35,3.34h0A3.35,3.35,0,0,0,43.15,188v-.27A3.35,3.35,0,0,0,39.81,184.41Z"/><path class="cls-13" d="M39.62,204.72a2.36,2.36,0,0,0,1.31-.43c1.27-1,2.45-12.9,2.67-15.24a14,14,0,0,0,.11-2.6c0-1.54-1.61-2.82-3.66-2.84h-.18c-2,0-3.73,1.24-3.75,2.78a14.43,14.43,0,0,0,0,2.59c.13,2.35.91,14.31,2.14,15.29a2.38,2.38,0,0,0,1.3.46"/><path class="cls-13" d="M39.67,206.39A2.27,2.27,0,0,0,41,206c1.26-.94,2.43-12.8,2.65-15.13a13.82,13.82,0,0,0,.11-2.58c0-1.53-1.6-2.8-3.63-2.83h-.18c-2,0-3.7,1.23-3.72,2.76a13.12,13.12,0,0,0,0,2.58c.13,2.33.91,14.21,2.13,15.18a2.24,2.24,0,0,0,1.29.45"/><path class="cls-26" d="M39.64,206.39a2.24,2.24,0,0,1-1.29-.45c-1.22-1-2-12.85-2.13-15.18a13.12,13.12,0,0,1,0-2.58c0-1.53,1.69-2.77,3.72-2.76h.18c2,0,3.66,1.3,3.63,2.83a13.82,13.82,0,0,1-.11,2.58C43.4,193.16,42.23,205,41,206a2.27,2.27,0,0,1-1.3.43Z"/><g class="cls-27"><polygon class="cls-16" points="34.17 206.37 33.35 206.37 33.71 185.27 34.53 185.28 34.17 206.37"/><polygon class="cls-16" points="35.85 206.39 35.04 206.38 35.4 185.29 36.21 185.29 35.85 206.39"/><polygon class="cls-16" points="37.54 206.41 36.72 206.4 37.08 185.3 37.9 185.31 37.54 206.41"/><polygon class="cls-16" points="39.22 206.42 38.4 206.41 38.76 185.32 39.58 185.33 39.22 206.42"/><polygon class="cls-16" points="40.9 206.44 40.09 206.43 40.45 185.34 41.26 185.34 40.9 206.44"/><polygon class="cls-16" points="42.59 206.45 41.77 206.45 42.13 185.35 42.95 185.36 42.59 206.45"/><polygon class="cls-16" points="44.27 206.47 43.45 206.46 43.81 185.37 44.63 185.38 44.27 206.47"/><polygon class="cls-16" points="45.95 206.49 45.14 206.48 45.49 185.38 46.31 185.39 45.95 206.49"/></g><path class="cls-10" d="M29.2,98.24h0a3.36,3.36,0,0,0-3.35,3.35v28.55a3.36,3.36,0,0,0,3.35,3.35h0a3.35,3.35,0,0,0,3.34-3.35V101.59A3.35,3.35,0,0,0,29.2,98.24Z"/><path class="cls-9" d="M39.81,100.85h0a3.36,3.36,0,0,0-3.35,3.35v28.55a3.36,3.36,0,0,0,3.35,3.35h0a3.35,3.35,0,0,0,3.34-3.35V104.2A3.35,3.35,0,0,0,39.81,100.85Z"/><path class="cls-9" d="M29.2,100.85h0a3.36,3.36,0,0,0-3.35,3.35v28.55a3.36,3.36,0,0,0,3.35,3.35h0a3.35,3.35,0,0,0,3.34-3.35V104.2A3.35,3.35,0,0,0,29.2,100.85Z"/><path class="cls-9" d="M29.2,125.33h0a3.36,3.36,0,0,0-3.35,3.35v28.55a3.36,3.36,0,0,0,3.35,3.35h0a3.35,3.35,0,0,0,3.34-3.35V128.68A3.35,3.35,0,0,0,29.2,125.33Z"/><path class="cls-8" d="M29.2,139.8h0a3.36,3.36,0,0,0-3.35,3.35V188a3.35,3.35,0,0,0,3.35,3.34h0A3.35,3.35,0,0,0,32.54,188V143.15A3.35,3.35,0,0,0,29.2,139.8Z"/><path class="cls-3" d="M29.2,150.32h0a3.35,3.35,0,0,1,3.34,3.34v-3.92a3.35,3.35,0,0,0-3.34-3.34h0a3.35,3.35,0,0,0-3.35,3.34v3.92A3.35,3.35,0,0,1,29.2,150.32Z"/><g class="cls-28"><rect class="cls-6" x="31.43" y="134.33" width="0.61" height="60.82" transform="translate(63.47 329.49) rotate(-180)"/><rect class="cls-6" x="30.16" y="134.33" width="0.61" height="60.82" transform="translate(60.94 329.49) rotate(-180)"/><rect class="cls-6" x="28.89" y="134.33" width="0.61" height="60.82" transform="translate(58.4 329.49) rotate(-180)"/><rect class="cls-6" x="27.62" y="134.33" width="0.61" height="60.82" transform="translate(55.86 329.49) rotate(-180)"/><rect class="cls-6" x="26.36" y="134.33" width="0.61" height="60.82" transform="translate(53.33 329.49) rotate(-180)"/></g><path class="cls-23" d="M29.2,141.78h0a3.35,3.35,0,0,1,3.34,3.35v-3.92a3.35,3.35,0,0,0-3.34-3.35h0a3.36,3.36,0,0,0-3.35,3.35v3.92A3.36,3.36,0,0,1,29.2,141.78Z"/><path class="cls-24" d="M29.2,150.32h0a3.35,3.35,0,0,1,3.34,3.34v-3.92a3.35,3.35,0,0,0-3.34-3.34h0a3.35,3.35,0,0,0-3.35,3.34v3.92A3.35,3.35,0,0,1,29.2,150.32Z"/><path class="cls-25" d="M29.2,181h0a3.36,3.36,0,0,0-3.35,3.35V188a3.35,3.35,0,0,0,3.35,3.34h0A3.35,3.35,0,0,0,32.54,188V184.3A3.35,3.35,0,0,0,29.2,181Z"/><path class="cls-13" d="M29.2,184.41h0a3.36,3.36,0,0,0-3.35,3.35V188a3.35,3.35,0,0,0,3.35,3.34h0A3.35,3.35,0,0,0,32.54,188v-.27A3.35,3.35,0,0,0,29.2,184.41Z"/><path class="cls-13" d="M29,204.72a2.41,2.41,0,0,0,1.32-.43c1.26-1,2.45-12.9,2.66-15.24a14,14,0,0,0,.11-2.6c0-1.54-1.61-2.82-3.65-2.84h-.18c-2.05,0-3.73,1.24-3.75,2.78a13.28,13.28,0,0,0,0,2.59c.14,2.35.91,14.31,2.15,15.29a2.32,2.32,0,0,0,1.3.46"/><path class="cls-13" d="M29.06,206.39a2.33,2.33,0,0,0,1.31-.43c1.25-.94,2.43-12.8,2.64-15.13a13.82,13.82,0,0,0,.11-2.58c0-1.53-1.6-2.8-3.63-2.83h-.18c-2,0-3.7,1.23-3.72,2.76a12.92,12.92,0,0,0,0,2.58c.13,2.33.9,14.21,2.12,15.18a2.27,2.27,0,0,0,1.3.45"/><path class="cls-26" d="M29,206.39a2.27,2.27,0,0,1-1.3-.45c-1.22-1-2-12.85-2.12-15.18a12.92,12.92,0,0,1,0-2.58c0-1.53,1.69-2.77,3.72-2.76h.18c2,0,3.67,1.3,3.63,2.83a13.82,13.82,0,0,1-.11,2.58C32.8,193.16,31.62,205,30.37,206a2.33,2.33,0,0,1-1.31.43Z"/><g class="cls-29"><polygon class="cls-16" points="23.56 206.37 22.75 206.37 23.11 185.27 23.92 185.28 23.56 206.37"/><polygon class="cls-16" points="25.25 206.39 24.43 206.38 24.79 185.29 25.61 185.29 25.25 206.39"/><polygon class="cls-16" points="26.93 206.41 26.11 206.4 26.47 185.3 27.29 185.31 26.93 206.41"/><polygon class="cls-16" points="28.61 206.42 27.8 206.41 28.16 185.32 28.97 185.33 28.61 206.42"/><polygon class="cls-16" points="30.3 206.44 29.48 206.43 29.84 185.34 30.66 185.34 30.3 206.44"/><polygon class="cls-16" points="31.98 206.45 31.16 206.45 31.52 185.35 32.34 185.36 31.98 206.45"/><polygon class="cls-16" points="33.66 206.47 32.85 206.46 33.21 185.37 34.02 185.38 33.66 206.47"/><polygon class="cls-16" points="35.35 206.49 34.53 206.48 34.89 185.38 35.7 185.39 35.35 206.49"/></g><path class="cls-3" d="M553.81,97.74c0-21.45,14.46-38.84,32.28-38.84s32.28,17.39,32.28,38.84"/><ellipse class="cls-4" cx="586.09" cy="97.39" rx="32.28" ry="5.89"/><ellipse class="cls-5" cx="586.09" cy="97.39" rx="30.44" ry="4.19"/><circle class="cls-30" cx="611.09" cy="57.6" r="10.2"/><path class="cls-31" d="M621.3,57.6a10.21,10.21,0,0,0-20.41,0C600.89,63.24,621.3,63.24,621.3,57.6Z"/><ellipse class="cls-32" cx="611.09" cy="64.91" rx="5.21" ry="2.22"/><rect class="cls-33" x="585.98" y="34.03" width="30.92" height="6.4" rx="3.2" ry="3.2" transform="translate(1097.62 -304.72) rotate(141.88)"/><rect class="cls-34" x="607.89" y="29.92" width="6.4" height="24.52" rx="3.03" ry="3.03"/><rect class="cls-33" x="607.89" y="27.85" width="6.4" height="24.52" rx="3.03" ry="3.03"/><circle class="cls-30" cx="561.68" cy="37.02" r="10.2"/><path class="cls-31" d="M551.48,37a10.21,10.21,0,0,0,20.41,0C571.89,31.38,551.48,31.38,551.48,37Z"/><ellipse class="cls-32" cx="561.68" cy="29.7" rx="5.21" ry="2.22"/><rect class="cls-33" x="555.87" y="54.19" width="30.92" height="6.4" rx="3.2" ry="3.2" transform="translate(86.4 364.89) rotate(-38.12)"/><rect class="cls-34" x="558.49" y="40.17" width="6.4" height="24.52" rx="3.03" ry="3.03"/><rect class="cls-33" x="558.49" y="42.24" width="6.4" height="24.52" rx="3.03" ry="3.03"/><path class="cls-35" d="M568.79,69.91a17.23,17.23,0,1,0,34.45,0c0-3.1-2.74,7.8-17.27,7.8C570.51,77.71,568.79,66.75,568.79,69.91Z"/><path class="cls-36" d="M580.64,42.75c0,2.12-2.67,4-4.3,5.11h0a19.27,19.27,0,1,0,19.81.18v0c-1.79-1.06-4.26-3-4.26-5.28"/><path class="cls-12" d="M581.11,44.52c0,1.93-2.44,3.66-3.93,4.67h0a17.6,17.6,0,1,0,18.1.16h0c-1.64-1-3.89-2.79-3.89-4.83"/><path class="cls-13" d="M594.66,48.88h0a5.2,5.2,0,0,1-.59-8.55l.07,0a4.8,4.8,0,0,1,.52-.36v-.07a13.16,13.16,0,1,0-16.88.22h0l.05,0,.47.36a5.2,5.2,0,0,1-.52,8.26h0a16.4,16.4,0,1,0,16.88.15Z"/><path class="cls-37" d="M575.6,28.65a10.49,10.49,0,1,1,21,0C596.58,34.44,575.6,34.44,575.6,28.65Z"/><path class="cls-33" d="M575.88,27.69a10.22,10.22,0,1,1,20.43,0C596.31,33.33,575.88,33.33,575.88,27.69Z"/><path class="cls-38" d="M566.83,64.56a19.27,19.27,0,0,0,38.53,0c0-3.48-3.06,8.72-19.32,8.72C568.75,73.28,566.83,61,566.83,64.56Z"/><path class="cls-39" d="M586.14,56.18a1.23,1.23,0,0,0,0,1.74l3.53,3.53a1.24,1.24,0,0,0,1.75,0l6.19-6.19s.11-.09.16-.15a3.73,3.73,0,0,0-5.28-5.27l0,0-.12.1Z"/><path class="cls-39" d="M589.48,55.14a.71.71,0,0,0-1,0l-2,2a.71.71,0,0,0,0,1l6,6,.09.09a2.16,2.16,0,0,0,3-3.06l0,0-.06-.07Z"/><path class="cls-39" d="M586,56.18a1.23,1.23,0,0,1,0,1.74l-3.52,3.53a1.24,1.24,0,0,1-1.75,0l-6.19-6.19a1.14,1.14,0,0,1-.16-.15,3.73,3.73,0,0,1,5.27-5.27l0,0,.12.1Z"/><path class="cls-39" d="M582.7,55.14a.72.72,0,0,1,1,0l2,2a.71.71,0,0,1,0,1l-6,6-.08.09a2.16,2.16,0,0,1-3.06-3.06l0,0,.07-.07Z"/><path class="cls-3" d="M586.14,52.8a1.11,1.11,0,0,0,0,1.58l3.19,3.2a1.14,1.14,0,0,0,1.59,0l5.6-5.61.15-.13a3.38,3.38,0,1,0-4.78-4.78l0,0a.52.52,0,0,0-.11.1Z"/><path class="cls-3" d="M589.16,51.86a.65.65,0,0,0-.91,0l-1.85,1.85a.64.64,0,0,0,0,.92L591.81,60l.07.09a2,2,0,1,0,2.77-2.77l0,0,0-.06Z"/><path class="cls-3" d="M586.05,52.8a1.13,1.13,0,0,1,0,1.58l-3.19,3.2a1.14,1.14,0,0,1-1.59,0L575.66,52l-.14-.13a3.38,3.38,0,0,1,4.78-4.78l0,0,.11.1Z"/><path class="cls-3" d="M583,51.86a.66.66,0,0,1,.92,0l1.85,1.85a.66.66,0,0,1,0,.92L580.38,60l-.08.09a2,2,0,1,1-2.77-2.77l0,0,.06-.06Z"/><path class="cls-40" d="M586.13,52.85a1,1,0,0,0,0,1.44l2.9,2.9a1,1,0,0,0,1.44,0l5.08-5.09.13-.12a3.06,3.06,0,0,0-4.33-4.33l0,0a.81.81,0,0,0-.1.09Z"/><path class="cls-40" d="M588.88,52a.59.59,0,0,0-.83,0l-1.68,1.67a.6.6,0,0,0,0,.84l4.91,4.9a.27.27,0,0,0,.07.08A1.77,1.77,0,1,0,593.86,57l0,0-.05,0Z"/><path class="cls-40" d="M586.05,52.85a1,1,0,0,1,0,1.44l-2.89,2.9a1,1,0,0,1-1.44,0l-5.09-5.09L576.5,52a3.07,3.07,0,0,1,4.34-4.33l0,0a.43.43,0,0,1,.1.09Z"/><path class="cls-40" d="M583.31,52a.59.59,0,0,1,.83,0l1.68,1.67a.6.6,0,0,1,0,.84l-4.91,4.9a.27.27,0,0,1-.07.08A1.77,1.77,0,1,1,578.33,57l0,0,0,0Z"/><rect class="cls-41" x="579.94" y="22.94" width="1.29" height="4.71" rx="0.65" ry="0.65" transform="translate(187.94 -403.13) rotate(45)"/><rect class="cls-41" x="579.94" y="22.94" width="1.29" height="4.71" rx="0.65" ry="0.65" transform="translate(152.17 417.95) rotate(-45)"/><rect class="cls-32" x="590.03" y="23" width="1.29" height="4.71" rx="0.65" ry="0.65" transform="translate(190.93 -410.25) rotate(45)"/><rect class="cls-32" x="590.03" y="23" width="1.29" height="4.71" rx="0.65" ry="0.65" transform="translate(155.08 425.1) rotate(-45)"/><path class="cls-32" d="M590.68,29.27a3.92,3.92,0,1,1,3.91-3.92A3.92,3.92,0,0,1,590.68,29.27Zm0-6.35a2.44,2.44,0,1,0,2.43,2.43A2.44,2.44,0,0,0,590.68,22.92Z"/><g class="cls-15"><path class="cls-39" d="M586.06,28.06a6.21,6.21,0,1,1-6.21,6.21A6.21,6.21,0,0,1,586.06,28.06Zm0,11.1a4.89,4.89,0,1,0-4.89-4.89A4.9,4.9,0,0,0,586.06,39.16Z"/></g><path class="cls-3" d="M586.06,25.91a6.21,6.21,0,1,1-6.21,6.21A6.21,6.21,0,0,1,586.06,25.91Zm0,11.1a4.9,4.9,0,1,0-4.89-4.89A4.9,4.9,0,0,0,586.06,37Z"/><path class="cls-33" d="M586.75,95.69h0a3.36,3.36,0,0,0-2.55,4l6.08,27.74,0,.16a3.37,3.37,0,0,0,4,2.55h0a3.36,3.36,0,0,0,2.55-4l0-.15-6.08-27.74A3.36,3.36,0,0,0,586.75,95.69Z"/><rect class="cls-32" x="568.87" y="4.28" width="4.96" height="18.09" rx="2.48" ry="2.48" transform="translate(984.79 -381.26) rotate(135)"/><rect class="cls-32" x="568.87" y="4.28" width="4.96" height="18.09" rx="2.48" ry="2.48" transform="translate(176.77 -400.11) rotate(45)"/><rect class="cls-32" x="606.31" y="31.69" width="3.4" height="12.39" rx="1.7" ry="1.7" transform="translate(1064.73 -365.26) rotate(135)"/><rect class="cls-32" x="606.31" y="31.69" width="3.4" height="12.39" rx="1.7" ry="1.7" transform="translate(204.87 -418.83) rotate(45)"/><rect class="cls-32" x="597.19" y="10.6" width="2.27" height="8.29" rx="1.14" ry="1.14" transform="translate(1031.84 -397.91) rotate(135)"/><rect class="cls-32" x="597.19" y="10.6" width="2.27" height="8.29" rx="1.14" ry="1.14" transform="translate(185.68 -418.76) rotate(45)"/><rect class="cls-32" x="576.34" y="35.61" width="4.81" height="17.54" rx="2.4" ry="2.4" transform="translate(1019.36 -333.46) rotate(135)"/><rect class="cls-32" x="576.34" y="35.61" width="4.81" height="17.54" rx="2.4" ry="2.4" transform="translate(200.89 -396.23) rotate(45)"/><path class="cls-33" d="M586.74,95.7h0A3.35,3.35,0,0,0,583.4,99V127.6a3.35,3.35,0,0,0,3.34,3.34h0a3.35,3.35,0,0,0,3.35-3.34V99A3.35,3.35,0,0,0,586.74,95.7Z"/><path class="cls-33" d="M586.74,124.13h0a3.35,3.35,0,0,0-3.34,3.35V156a3.35,3.35,0,0,0,3.34,3.35h0a3.36,3.36,0,0,0,3.35-3.35V127.48A3.36,3.36,0,0,0,586.74,124.13Z"/><path class="cls-32" d="M586.74,138.6h0A3.35,3.35,0,0,0,583.4,142v44.88a3.35,3.35,0,0,0,3.34,3.34h0a3.35,3.35,0,0,0,3.35-3.34V142A3.36,3.36,0,0,0,586.74,138.6Z"/><path class="cls-3" d="M586.74,149.11h0a3.36,3.36,0,0,1,3.35,3.35v-3.92a3.35,3.35,0,0,0-3.35-3.34h0a3.35,3.35,0,0,0-3.34,3.34v3.92A3.35,3.35,0,0,1,586.74,149.11Z"/><g class="cls-42"><rect class="cls-30" x="588.97" y="133.13" width="0.61" height="60.82" transform="translate(1178.56 327.09) rotate(-180)"/><rect class="cls-30" x="587.7" y="133.13" width="0.61" height="60.82" transform="translate(1176.02 327.09) rotate(-180)"/><rect class="cls-30" x="586.44" y="133.13" width="0.61" height="60.82" transform="translate(1173.49 327.09) rotate(-180)"/><rect class="cls-30" x="585.17" y="133.13" width="0.61" height="60.82" transform="translate(1170.95 327.09) rotate(-180)"/><rect class="cls-30" x="583.9" y="133.13" width="0.61" height="60.82" transform="translate(1168.41 327.09) rotate(-180)"/></g><path class="cls-23" d="M586.74,140.58h0a3.36,3.36,0,0,1,3.35,3.35V140a3.36,3.36,0,0,0-3.35-3.35h0A3.35,3.35,0,0,0,583.4,140v3.92A3.35,3.35,0,0,1,586.74,140.58Z"/><path class="cls-24" d="M586.74,149.11h0a3.36,3.36,0,0,1,3.35,3.35v-3.92a3.35,3.35,0,0,0-3.35-3.34h0a3.35,3.35,0,0,0-3.34,3.34v3.92A3.35,3.35,0,0,1,586.74,149.11Z"/><path class="cls-25" d="M586.74,179.75h0a3.35,3.35,0,0,0-3.34,3.35v3.73a3.35,3.35,0,0,0,3.34,3.34h0a3.35,3.35,0,0,0,3.35-3.34V183.1A3.36,3.36,0,0,0,586.74,179.75Z"/><path class="cls-13" d="M586.74,183.21h0a3.35,3.35,0,0,0-3.34,3.35v.27a3.35,3.35,0,0,0,3.34,3.34h0a3.35,3.35,0,0,0,3.35-3.34v-.27A3.36,3.36,0,0,0,586.74,183.21Z"/><path class="cls-33" d="M591.3,129.36h0a3.36,3.36,0,0,0,4.73,0l20.08-20.08.11-.11a3.36,3.36,0,0,0,0-4.73h0a3.36,3.36,0,0,0-4.73,0l-.11.11L591.3,124.63A3.36,3.36,0,0,0,591.3,129.36Z"/><path class="cls-32" d="M601.53,119.13h0a3.36,3.36,0,0,0,4.73,0l31.62-31.62.11-.11a3.34,3.34,0,0,0,0-4.73h0a3.34,3.34,0,0,0-4.73,0l-.11.11L601.53,114.4A3.36,3.36,0,0,0,601.53,119.13Z"/><path class="cls-3" d="M609,111.7h0a3.36,3.36,0,0,1,0-4.73l-2.66,2.66-.11.11a3.36,3.36,0,0,0,0,4.73h0a3.36,3.36,0,0,0,4.73,0l.11-.11,2.66-2.66A3.36,3.36,0,0,1,609,111.7Z"/><g class="cls-43"><rect class="cls-30" x="617.06" y="69.29" width="0.61" height="60.82" transform="translate(251.32 -407.34) rotate(45)"/><rect class="cls-30" x="617.96" y="70.19" width="0.61" height="60.82" transform="translate(252.22 -407.72) rotate(45)"/><rect class="cls-30" x="618.86" y="71.09" width="0.61" height="60.82" transform="translate(253.12 -408.09) rotate(45)"/><rect class="cls-30" x="619.75" y="71.98" width="0.61" height="60.82" transform="translate(254.01 -408.46) rotate(45)"/><rect class="cls-30" x="620.65" y="72.88" width="0.61" height="60.82" transform="translate(254.91 -408.83) rotate(45)"/></g><path class="cls-23" d="M602.93,117.73h0a3.36,3.36,0,0,1,0-4.73l-2.66,2.66-.11.11a3.36,3.36,0,0,0,0,4.73h0a3.36,3.36,0,0,0,4.73,0l.11-.11,2.66-2.66A3.36,3.36,0,0,1,602.93,117.73Z"/><path class="cls-24" d="M609,111.7h0a3.36,3.36,0,0,1,0-4.73l-2.66,2.66-.11.11a3.36,3.36,0,0,0,0,4.73h0a3.36,3.36,0,0,0,4.73,0l.11-.11,2.66-2.66A3.36,3.36,0,0,1,609,111.7Z"/><path class="cls-25" d="M630.63,90h0a3.36,3.36,0,0,0,4.73,0l2.52-2.52.11-.11a3.34,3.34,0,0,0,0-4.73h0a3.34,3.34,0,0,0-4.73,0l-.11.11-2.52,2.52A3.36,3.36,0,0,0,630.63,90Z"/><path class="cls-13" d="M633.07,87.59h0a3.36,3.36,0,0,0,4.73,0l.08-.08.11-.11a3.34,3.34,0,0,0,0-4.73h0a3.34,3.34,0,0,0-4.73,0l-.11.11-.08.08A3.36,3.36,0,0,0,633.07,87.59Z"/><path class="cls-13" d="M586.76,204.72a2.32,2.32,0,0,1-1.31-.47c-1.24-1-2.13-12.95-2.28-15.3a12.66,12.66,0,0,1,0-2.59c0-1.54,1.68-2.78,3.72-2.76H587c2,0,3.7,1.32,3.68,2.86a13,13,0,0,1-.09,2.59c-.19,2.35-1.26,14.29-2.52,15.23a2.21,2.21,0,0,1-1.31.43"/><path class="cls-13" d="M586.67,206.39a2.35,2.35,0,0,1-1.3-.46c-1.23-1-2.11-12.86-2.27-15.2a13.69,13.69,0,0,1-.05-2.57c0-1.53,1.67-2.76,3.7-2.74h.18c2,0,3.67,1.32,3.65,2.85a13.07,13.07,0,0,1-.08,2.57c-.19,2.33-1.26,14.19-2.5,15.13a2.27,2.27,0,0,1-1.31.42"/><path class="cls-26" d="M586.69,206.39A2.27,2.27,0,0,0,588,206c1.24-.94,2.31-12.8,2.5-15.13a13.07,13.07,0,0,0,.08-2.57c0-1.53-1.62-2.81-3.65-2.85h-.18c-2,0-3.69,1.21-3.7,2.74a13.69,13.69,0,0,0,.05,2.57c.16,2.34,1,14.22,2.27,15.2a2.35,2.35,0,0,0,1.3.46Z"/><g class="cls-44"><polygon class="cls-16" points="592.16 206.51 592.98 206.52 593.14 185.42 592.32 185.41 592.16 206.51"/><polygon class="cls-16" points="590.48 206.48 591.3 206.49 591.46 185.4 590.64 185.38 590.48 206.48"/><polygon class="cls-16" points="588.8 206.46 589.61 206.47 589.77 185.37 588.96 185.36 588.8 206.46"/><polygon class="cls-16" points="587.11 206.43 587.93 206.44 588.09 185.35 587.27 185.34 587.11 206.43"/><polygon class="cls-16" points="585.43 206.41 586.25 206.42 586.41 185.32 585.59 185.31 585.43 206.41"/><polygon class="cls-16" points="583.75 206.38 584.56 206.39 584.72 185.3 583.91 185.28 583.75 206.38"/><polygon class="cls-16" points="582.06 206.36 582.88 206.37 583.04 185.27 582.22 185.26 582.06 206.36"/><polygon class="cls-16" points="580.38 206.33 581.2 206.34 581.36 185.25 580.54 185.23 580.38 206.33"/></g><path class="cls-13" d="M649.06,73a2.32,2.32,0,0,1,.54,1.28c.12,1.57-8.09,10.33-9.71,12A13.48,13.48,0,0,1,638,88.08c-1.13,1-3.18.65-4.54-.87l-.06-.07-.06-.07c-1.36-1.53-1.53-3.62-.39-4.65a14.14,14.14,0,0,1,2-1.69c1.86-1.44,11.37-8.74,12.91-8.45A2.26,2.26,0,0,1,649,73"/><path class="cls-13" d="M650.35,71.91a2.26,2.26,0,0,1,.54,1.26c.11,1.57-8,10.27-9.65,12a13,13,0,0,1-1.86,1.78c-1.13,1-3.16.64-4.52-.87L634.8,86l-.06-.07c-1.34-1.52-1.51-3.6-.38-4.62a14,14,0,0,1,2-1.68c1.84-1.43,11.29-8.68,12.82-8.4a2.36,2.36,0,0,1,1.19.68"/><path class="cls-26" d="M650.33,71.89a2.36,2.36,0,0,0-1.19-.68c-1.53-.28-11,7-12.82,8.4a14,14,0,0,0-2,1.68c-1.13,1-1,3.1.38,4.62l.06.07.06.06c1.36,1.51,3.39,1.9,4.52.87a13,13,0,0,0,1.86-1.78c1.62-1.69,9.76-10.39,9.65-12a2.26,2.26,0,0,0-.54-1.26Z"/><g class="cls-45"><polygon class="cls-16" points="646.72 67.78 646.17 67.17 630.54 81.34 631.08 81.95 646.72 67.78"/><polygon class="cls-16" points="647.84 69.04 647.29 68.43 631.66 82.59 632.2 83.2 647.84 69.04"/><polygon class="cls-16" points="648.96 70.29 648.42 69.69 632.78 83.85 633.33 84.46 648.96 70.29"/><polygon class="cls-16" points="650.08 71.55 649.54 70.94 633.9 85.11 634.45 85.72 650.08 71.55"/><polygon class="cls-16" points="651.2 72.81 650.66 72.2 635.02 86.36 635.57 86.97 651.2 72.81"/><polygon class="cls-16" points="652.32 74.06 651.78 73.45 636.14 87.62 636.69 88.23 652.32 74.06"/><polygon class="cls-16" points="653.44 75.32 652.9 74.71 637.26 88.87 637.81 89.48 653.44 75.32"/><polygon class="cls-16" points="654.57 76.57 654.02 75.96 638.39 90.13 638.93 90.74 654.57 76.57"/></g><path class="cls-3" d="M191.83,97.39a27.21,27.21,0,0,1,54.42,0"/><ellipse class="cls-4" cx="219.04" cy="97.02" rx="27.21" ry="4.04"/><ellipse class="cls-5" cx="219.04" cy="97.02" rx="25.65" ry="2.88"/><circle class="cls-30" cx="243.87" cy="37.49" r="11.17"/><path class="cls-31" d="M255,37.49a11.18,11.18,0,1,1-22.35,0C232.69,31.32,255,31.32,255,37.49Z"/><ellipse class="cls-32" cx="243.87" cy="29.49" rx="5.7" ry="2.43"/><rect class="cls-33" x="216.38" y="56.29" width="33.85" height="7" rx="3.5" ry="3.5" transform="translate(379.95 250.85) rotate(-141.88)"/><rect class="cls-34" x="240.36" y="40.95" width="7" height="26.85" rx="3.31" ry="3.31"/><rect class="cls-33" x="240.36" y="43.22" width="7" height="26.85" rx="3.31" ry="3.31"/><circle class="cls-30" cx="201.48" cy="39.8" r="8.98"/><path class="cls-31" d="M192.5,39.8a9,9,0,0,0,18,0C210.46,34.84,192.5,34.84,192.5,39.8Z"/><ellipse class="cls-32" cx="201.48" cy="33.36" rx="4.58" ry="1.95"/><rect class="cls-33" x="196.36" y="54.91" width="27.21" height="5.63" rx="2.82" ry="2.82" transform="translate(9.14 141.91) rotate(-38.12)"/><rect class="cls-34" x="198.66" y="42.57" width="5.63" height="21.58" rx="2.66" ry="2.66"/><rect class="cls-33" x="198.66" y="44.4" width="5.63" height="21.58" rx="2.66" ry="2.66"/><path class="cls-36" d="M213.51,51.24c0,2.12-2.67,4-4.31,5.11h0a19.27,19.27,0,1,0,19.82.18v0c-1.8-1.06-4.26-3-4.26-5.28"/><path class="cls-12" d="M214,53c0,1.93-2.44,3.66-3.93,4.67h0a17.6,17.6,0,1,0,18.1.16h0c-1.64-1-3.89-2.79-3.89-4.83"/><path class="cls-13" d="M227.53,57.37h0a5.2,5.2,0,0,1-.59-8.55l.07-.05a4.8,4.8,0,0,1,.52-.36v-.07a13.17,13.17,0,1,0-16.88.22h0l0,0,.47.36a5.2,5.2,0,0,1-.52,8.26h0a16.4,16.4,0,1,0,16.88.15Z"/><path class="cls-37" d="M207.09,37.14a10.49,10.49,0,1,1,21,0C228.07,42.93,207.09,42.93,207.09,37.14Z"/><path class="cls-33" d="M207.37,36.18a10.21,10.21,0,1,1,20.42,0C227.79,41.82,207.37,41.82,207.37,36.18Z"/><circle class="cls-46" cx="220.37" cy="31.88" r="1.13"/><circle class="cls-46" cx="210.05" cy="31.88" r="1.13"/><path class="cls-38" d="M202.05,82.14a19.27,19.27,0,0,0,33.69-18.7c-1.69-3,1.55,9.11-12.66,17C208,88.84,200.33,79.05,202.05,82.14Z"/><path class="cls-35" d="M201.74,80.26a17.23,17.23,0,0,0,34.45,0c0-3.11-2.74,7.8-17.27,7.8C203.46,88.06,201.74,77.1,201.74,80.26Z"/><path class="cls-39" d="M214.68,64.67a1.24,1.24,0,0,0,0,1.75l3.53,3.52a1.24,1.24,0,0,0,1.75,0l6.19-6.19s.11-.09.16-.15A3.73,3.73,0,1,0,221,58.33l0,0-.13.1Z"/><path class="cls-39" d="M218,63.63a.73.73,0,0,0-1,0l-2,2.05a.71.71,0,0,0,0,1l6,6,.09.09a2.16,2.16,0,1,0,3.05-3.06l0,0-.06-.07Z"/><path class="cls-39" d="M214.61,64a1.13,1.13,0,0,1,0,1.6l-3.22,3.22a1.13,1.13,0,0,1-1.6,0l-5.66-5.66-.15-.13a3.41,3.41,0,1,1,4.82-4.83s0,0,0,0l.11.1Z"/><path class="cls-39" d="M211.56,63.09a.64.64,0,0,1,.92,0L214.35,65a.65.65,0,0,1,0,.93l-5.46,5.47-.08.08A2,2,0,0,1,206,68.64l0,0,.05-.07Z"/><path class="cls-3" d="M214.68,61.29a1.11,1.11,0,0,0,0,1.58l3.19,3.2a1.13,1.13,0,0,0,1.58,0l5.61-5.61.15-.13a3.38,3.38,0,0,0-4.78-4.78l0,0a.52.52,0,0,0-.11.1Z"/><path class="cls-3" d="M217.7,60.35a.66.66,0,0,0-.92,0l-1.85,1.85a.66.66,0,0,0,0,.92l5.42,5.41.07.09a2,2,0,1,0,2.77-2.77l0,0,0-.06Z"/><path class="cls-40" d="M214.67,61.34a1,1,0,0,0,0,1.44l2.9,2.9a1,1,0,0,0,1.43,0l5.09-5.09.13-.12a3.06,3.06,0,1,0-4.33-4.33l0,0a.81.81,0,0,0-.1.09Z"/><path class="cls-40" d="M217.42,60.5a.6.6,0,0,0-.84,0l-1.67,1.67a.6.6,0,0,0,0,.84l4.9,4.91a.46.46,0,0,1,.07.07,1.77,1.77,0,0,0,2.51-2.51h0l0-.06Z"/><path class="cls-3" d="M214,61.4a.91.91,0,0,1,0,1.29l-2.61,2.61a.92.92,0,0,1-1.3,0l-4.59-4.58-.12-.11a2.76,2.76,0,0,1,3.91-3.91l0,0,.09.08Z"/><path class="cls-3" d="M211.55,60.63a.54.54,0,0,1,.76,0l1.51,1.52a.53.53,0,0,1,0,.75l-4.43,4.43-.06.06a1.6,1.6,0,1,1-2.27-2.26l0,0,0,0Z"/><path class="cls-40" d="M214,61.44a.83.83,0,0,1,0,1.18L211.66,65a.83.83,0,0,1-1.17,0l-4.16-4.17-.11-.09a2.51,2.51,0,0,1,3.54-3.55l0,0,.08.07Z"/><path class="cls-40" d="M211.79,60.75a.48.48,0,0,1,.68,0l1.37,1.37a.48.48,0,0,1,0,.68l-4,4-.06.06a1.45,1.45,0,0,1-2.06-2l0,0,0,0Z"/><g class="cls-15"><path class="cls-39" d="M214.55,36.55a6.21,6.21,0,1,1-6.21,6.21A6.21,6.21,0,0,1,214.55,36.55Zm0,11.1a4.89,4.89,0,1,0-4.89-4.89A4.9,4.9,0,0,0,214.55,47.65Z"/></g><path class="cls-3" d="M210.4,34.4a6.21,6.21,0,1,1-6.21,6.21A6.21,6.21,0,0,1,210.4,34.4Zm0,11.1a4.9,4.9,0,1,0-4.89-4.89A4.9,4.9,0,0,0,210.4,45.5Z"/><path class="cls-33" d="M214.5,95.9h0a3.24,3.24,0,0,0-3.23,3.24v27.58A3.24,3.24,0,0,0,214.5,130h0a3.24,3.24,0,0,0,3.23-3.24V99.14A3.24,3.24,0,0,0,214.5,95.9Z"/><path class="cls-33" d="M214.5,123.38h0a3.23,3.23,0,0,0-3.23,3.23V154.2a3.23,3.23,0,0,0,3.23,3.23h0a3.23,3.23,0,0,0,3.23-3.23V126.61A3.23,3.23,0,0,0,214.5,123.38Z"/><path class="cls-32" d="M214.5,137.36h0a3.23,3.23,0,0,0-3.23,3.23V184a3.23,3.23,0,0,0,3.23,3.23h0a3.23,3.23,0,0,0,3.23-3.23V140.59A3.23,3.23,0,0,0,214.5,137.36Z"/><path class="cls-3" d="M214.5,147.51h0a3.24,3.24,0,0,1,3.23,3.24V147a3.23,3.23,0,0,0-3.23-3.23h0a3.23,3.23,0,0,0-3.23,3.23v3.79A3.24,3.24,0,0,1,214.5,147.51Z"/><g class="cls-47"><rect class="cls-30" x="216.65" y="132.07" width="0.59" height="58.76" transform="translate(433.9 322.91) rotate(-180)"/><rect class="cls-30" x="215.43" y="132.07" width="0.59" height="58.76" transform="translate(431.45 322.91) rotate(-180)"/><rect class="cls-30" x="214.2" y="132.07" width="0.59" height="58.76" transform="translate(429 322.91) rotate(-180)"/><rect class="cls-30" x="212.98" y="132.07" width="0.59" height="58.76" transform="translate(426.55 322.91) rotate(-180)"/><rect class="cls-30" x="211.75" y="132.07" width="0.59" height="58.76" transform="translate(424.1 322.91) rotate(-180)"/></g><path class="cls-23" d="M214.5,139.27h0a3.24,3.24,0,0,1,3.23,3.23v-3.78a3.23,3.23,0,0,0-3.23-3.23h0a3.23,3.23,0,0,0-3.23,3.23v3.78A3.24,3.24,0,0,1,214.5,139.27Z"/><path class="cls-24" d="M214.5,147.51h0a3.24,3.24,0,0,1,3.23,3.24V147a3.23,3.23,0,0,0-3.23-3.23h0a3.23,3.23,0,0,0-3.23,3.23v3.79A3.24,3.24,0,0,1,214.5,147.51Z"/><path class="cls-25" d="M214.5,177.12h0a3.23,3.23,0,0,0-3.23,3.23V184a3.23,3.23,0,0,0,3.23,3.23h0a3.23,3.23,0,0,0,3.23-3.23v-3.6A3.23,3.23,0,0,0,214.5,177.12Z"/><path class="cls-13" d="M214.5,180.46h0a3.23,3.23,0,0,0-3.23,3.23V184a3.23,3.23,0,0,0,3.23,3.23h0a3.23,3.23,0,0,0,3.23-3.23v-.26A3.23,3.23,0,0,0,214.5,180.46Z"/><path class="cls-33" d="M219.92,95.9h0a3.35,3.35,0,0,0-3.34,3.35V127.8a3.35,3.35,0,0,0,3.34,3.35h0a3.36,3.36,0,0,0,3.35-3.35V99.25A3.36,3.36,0,0,0,219.92,95.9Z"/><path class="cls-33" d="M219.92,124.34h0a3.35,3.35,0,0,0-3.34,3.35v28.55a3.35,3.35,0,0,0,3.34,3.35h0a3.36,3.36,0,0,0,3.35-3.35V127.69A3.36,3.36,0,0,0,219.92,124.34Z"/><path class="cls-32" d="M219.92,138.81h0a3.35,3.35,0,0,0-3.34,3.34V187a3.35,3.35,0,0,0,3.34,3.34h0a3.35,3.35,0,0,0,3.35-3.34V142.15A3.35,3.35,0,0,0,219.92,138.81Z"/><path class="cls-3" d="M219.92,149.32h0a3.36,3.36,0,0,1,3.35,3.35v-3.92a3.36,3.36,0,0,0-3.35-3.35h0a3.35,3.35,0,0,0-3.34,3.35v3.92A3.35,3.35,0,0,1,219.92,149.32Z"/><g class="cls-48"><rect class="cls-30" x="222.15" y="133.34" width="0.61" height="60.82" transform="translate(444.91 327.5) rotate(-180)"/><rect class="cls-30" x="220.88" y="133.34" width="0.61" height="60.82" transform="translate(442.38 327.5) rotate(-180)"/><rect class="cls-30" x="219.61" y="133.34" width="0.61" height="60.82" transform="translate(439.84 327.5) rotate(-180)"/><rect class="cls-30" x="218.35" y="133.34" width="0.61" height="60.82" transform="translate(437.31 327.5) rotate(-180)"/><rect class="cls-30" x="217.08" y="133.34" width="0.61" height="60.82" transform="translate(434.77 327.5) rotate(-180)"/></g><path class="cls-23" d="M219.92,140.79h0a3.36,3.36,0,0,1,3.35,3.35v-3.92a3.36,3.36,0,0,0-3.35-3.35h0a3.35,3.35,0,0,0-3.34,3.35v3.92A3.35,3.35,0,0,1,219.92,140.79Z"/><path class="cls-24" d="M219.92,149.32h0a3.36,3.36,0,0,1,3.35,3.35v-3.92a3.36,3.36,0,0,0-3.35-3.35h0a3.35,3.35,0,0,0-3.34,3.35v3.92A3.35,3.35,0,0,1,219.92,149.32Z"/><path class="cls-25" d="M219.92,180h0a3.35,3.35,0,0,0-3.34,3.35V187a3.35,3.35,0,0,0,3.34,3.34h0a3.35,3.35,0,0,0,3.35-3.34v-3.73A3.36,3.36,0,0,0,219.92,180Z"/><path class="cls-13" d="M219.92,183.42h0a3.35,3.35,0,0,0-3.34,3.35V187a3.35,3.35,0,0,0,3.34,3.34h0a3.35,3.35,0,0,0,3.35-3.34v-.27A3.36,3.36,0,0,0,219.92,183.42Z"/><path class="cls-13" d="M214.19,201.5a2.32,2.32,0,0,1-1.31-.47c-1.24-1-2.13-12.95-2.28-15.3a12.66,12.66,0,0,1,0-2.59c0-1.54,1.68-2.78,3.72-2.76h.18c2,0,3.7,1.33,3.68,2.87a13,13,0,0,1-.09,2.59c-.19,2.35-1.26,14.29-2.51,15.23a2.26,2.26,0,0,1-1.32.43"/><path class="cls-13" d="M214.1,203.17a2.38,2.38,0,0,1-1.3-.46c-1.23-1-2.11-12.86-2.27-15.2a13.84,13.84,0,0,1-.05-2.58c0-1.52,1.67-2.76,3.7-2.73h.18c2,0,3.67,1.32,3.65,2.85a13.07,13.07,0,0,1-.08,2.57c-.19,2.33-1.26,14.19-2.5,15.13a2.27,2.27,0,0,1-1.31.42"/><path class="cls-26" d="M214.12,203.17a2.27,2.27,0,0,0,1.31-.42c1.24-.94,2.31-12.8,2.5-15.13a13.07,13.07,0,0,0,.08-2.57c0-1.53-1.62-2.81-3.65-2.85h-.18c-2,0-3.69,1.21-3.7,2.73a13.84,13.84,0,0,0,.05,2.58c.16,2.34,1,14.22,2.27,15.2a2.38,2.38,0,0,0,1.3.46Z"/><g class="cls-49"><polygon class="cls-16" points="219.59 203.29 220.41 203.3 220.57 182.2 219.75 182.19 219.59 203.29"/><polygon class="cls-16" points="217.91 203.26 218.73 203.27 218.89 182.18 218.07 182.16 217.91 203.26"/><polygon class="cls-16" points="216.23 203.24 217.04 203.25 217.2 182.15 216.39 182.14 216.23 203.24"/><polygon class="cls-16" points="214.54 203.21 215.36 203.22 215.52 182.13 214.7 182.11 214.54 203.21"/><polygon class="cls-16" points="212.86 203.19 213.68 203.2 213.84 182.1 213.02 182.09 212.86 203.19"/><polygon class="cls-16" points="211.18 203.16 211.99 203.17 212.15 182.07 211.34 182.06 211.18 203.16"/><polygon class="cls-16" points="209.5 203.14 210.31 203.15 210.47 182.05 209.65 182.04 209.5 203.14"/><polygon class="cls-16" points="207.81 203.11 208.63 203.12 208.79 182.03 207.97 182.01 207.81 203.11"/></g><path class="cls-13" d="M219.92,204.72a2.32,2.32,0,0,1-1.31-.47c-1.24-1-2.13-12.95-2.29-15.3a13.94,13.94,0,0,1,0-2.59c0-1.54,1.68-2.78,3.73-2.76h.18c2,0,3.7,1.32,3.68,2.86a14.41,14.41,0,0,1-.09,2.59c-.19,2.35-1.26,14.29-2.52,15.23a2.21,2.21,0,0,1-1.31.43"/><path class="cls-13" d="M219.83,206.39a2.32,2.32,0,0,1-1.3-.46c-1.23-1-2.12-12.86-2.27-15.2a13.69,13.69,0,0,1,0-2.57c0-1.53,1.67-2.76,3.7-2.74h.18c2,0,3.67,1.32,3.65,2.85a12.86,12.86,0,0,1-.09,2.57c-.19,2.33-1.25,14.19-2.5,15.13a2.26,2.26,0,0,1-1.3.42"/><path class="cls-26" d="M219.85,206.39a2.26,2.26,0,0,0,1.3-.42c1.25-.94,2.31-12.8,2.5-15.13a12.86,12.86,0,0,0,.09-2.57c0-1.53-1.63-2.81-3.65-2.85h-.18c-2,0-3.7,1.21-3.7,2.74a13.69,13.69,0,0,0,0,2.57c.15,2.34,1,14.22,2.27,15.2a2.32,2.32,0,0,0,1.3.46Z"/><g class="cls-50"><polygon class="cls-16" points="225.32 206.51 226.14 206.52 226.3 185.42 225.48 185.41 225.32 206.51"/><polygon class="cls-16" points="223.64 206.48 224.45 206.49 224.61 185.4 223.8 185.38 223.64 206.48"/><polygon class="cls-16" points="221.96 206.46 222.77 206.47 222.93 185.37 222.11 185.36 221.96 206.46"/><polygon class="cls-16" points="220.27 206.43 221.09 206.44 221.25 185.35 220.43 185.34 220.27 206.43"/><polygon class="cls-16" points="218.59 206.41 219.4 206.42 219.56 185.32 218.75 185.31 218.59 206.41"/><polygon class="cls-16" points="216.91 206.38 217.72 206.39 217.88 185.3 217.06 185.28 216.91 206.38"/><polygon class="cls-16" points="215.22 206.36 216.04 206.37 216.2 185.27 215.38 185.26 215.22 206.36"/><polygon class="cls-16" points="213.54 206.33 214.35 206.34 214.51 185.25 213.7 185.23 213.54 206.33"/></g><path class="cls-3" d="M373.3,101.4c-1.78-14.63,8.87-28,23.79-29.78s28.45,8.58,30.23,23.21"/><ellipse class="cls-4" cx="400.27" cy="97.82" rx="27.21" ry="4.04" transform="translate(-8.88 49.04) rotate(-6.93)"/><ellipse class="cls-5" cx="400.27" cy="97.82" rx="25.65" ry="2.88" transform="translate(-8.88 49.04) rotate(-6.93)"/><path class="cls-33" d="M405.46,97.37h0a3.36,3.36,0,0,0-2.92,3.72L406,129.28l0,.16a3.35,3.35,0,0,0,3.72,2.92h0a3.35,3.35,0,0,0,2.92-3.72l0-.16-3.4-28.19A3.36,3.36,0,0,0,405.46,97.37Z"/><path class="cls-33" d="M408.88,125.6h0a3.35,3.35,0,0,0-2.92,3.72l3.4,28.2,0,.15a3.35,3.35,0,0,0,3.72,2.92h0a3.34,3.34,0,0,0,2.92-3.72v-.16l-3.41-28.19A3.35,3.35,0,0,0,408.88,125.6Z"/><path class="cls-32" d="M410.61,140h0a3.36,3.36,0,0,0-2.92,3.73l5.37,44.4,0,.16a3.36,3.36,0,0,0,3.72,2.92h0a3.36,3.36,0,0,0,2.92-3.73l0-.15-5.37-44.41A3.36,3.36,0,0,0,410.61,140Z"/><path class="cls-3" d="M411.87,150.4h0a3.37,3.37,0,0,1,3.73,2.92l-.46-3.73v-.16a3.36,3.36,0,0,0-3.73-2.92h0a3.36,3.36,0,0,0-2.92,3.72l0,.16.45,3.74A3.37,3.37,0,0,1,411.87,150.4Z"/><g class="cls-51"><rect class="cls-30" x="415.82" y="134.01" width="0.61" height="60.82" transform="translate(848.97 277.72) rotate(173.11)"/><rect class="cls-30" x="414.56" y="134.17" width="0.61" height="60.82" transform="translate(846.48 278.18) rotate(173.11)"/><rect class="cls-30" x="413.3" y="134.32" width="0.61" height="60.82" transform="translate(843.99 278.63) rotate(173.11)"/><rect class="cls-30" x="412.04" y="134.47" width="0.61" height="60.82" transform="translate(841.5 279.09) rotate(173.11)"/><rect class="cls-30" x="410.78" y="134.62" width="0.61" height="60.82" transform="translate(839.01 279.54) rotate(173.11)"/></g><path class="cls-23" d="M410.85,141.93h0a3.36,3.36,0,0,1,3.72,2.92l-.45-3.73,0-.16a3.36,3.36,0,0,0-3.72-2.92h0a3.36,3.36,0,0,0-2.92,3.73l0,.15.45,3.74A3.36,3.36,0,0,1,410.85,141.93Z"/><path class="cls-24" d="M411.87,150.4h0a3.37,3.37,0,0,1,3.73,2.92l-.46-3.73v-.16a3.36,3.36,0,0,0-3.73-2.92h0a3.36,3.36,0,0,0-2.92,3.72l0,.16.45,3.74A3.37,3.37,0,0,1,411.87,150.4Z"/><path class="cls-25" d="M415.55,180.82h0a3.35,3.35,0,0,0-2.92,3.72l.43,3.55,0,.16a3.36,3.36,0,0,0,3.72,2.92h0a3.36,3.36,0,0,0,2.92-3.73l0-.15-.43-3.55A3.35,3.35,0,0,0,415.55,180.82Z"/><path class="cls-13" d="M416,184.25h0a3.36,3.36,0,0,0-2.91,3.73v.11l0,.16a3.36,3.36,0,0,0,3.72,2.92h0a3.36,3.36,0,0,0,2.92-3.73l0-.15v-.12A3.37,3.37,0,0,0,416,184.25Z"/><path class="cls-33" d="M395.39,96.53h0a3.35,3.35,0,0,0-2.92,3.72l3.41,28.19,0,.16a3.35,3.35,0,0,0,3.72,2.92h0a3.36,3.36,0,0,0,2.92-3.72l0-.16-3.41-28.19A3.35,3.35,0,0,0,395.39,96.53Z"/><path class="cls-33" d="M397.07,113.35h0a3.36,3.36,0,0,0-2.92,3.72l3.41,28.19,0,.16a3.35,3.35,0,0,0,3.72,2.92h0a3.35,3.35,0,0,0,2.92-3.72l0-.16-3.41-28.19A3.35,3.35,0,0,0,397.07,113.35Z"/><path class="cls-32" d="M398.81,127.71h0a3.36,3.36,0,0,0-2.92,3.73l5.37,44.4V176a3.36,3.36,0,0,0,3.73,2.92h0a3.36,3.36,0,0,0,2.92-3.72l0-.16-5.37-44.4A3.36,3.36,0,0,0,398.81,127.71Z"/><path class="cls-3" d="M400.07,138.15h0a3.35,3.35,0,0,1,3.72,2.92l-.45-3.74,0-.15a3.35,3.35,0,0,0-3.72-2.92h0a3.35,3.35,0,0,0-2.92,3.72l0,.16.45,3.73A3.35,3.35,0,0,1,400.07,138.15Z"/><g class="cls-52"><rect class="cls-30" x="404.01" y="121.76" width="0.61" height="60.82" transform="translate(823.98 254.72) rotate(173.11)"/><rect class="cls-30" x="402.75" y="121.91" width="0.61" height="60.82" transform="translate(821.49 255.18) rotate(173.11)"/><rect class="cls-30" x="401.49" y="122.07" width="0.61" height="60.82" transform="translate(819 255.63) rotate(173.11)"/><rect class="cls-30" x="400.23" y="122.22" width="0.61" height="60.82" transform="translate(816.5 256.09) rotate(173.11)"/><rect class="cls-30" x="398.98" y="122.37" width="0.61" height="60.82" transform="translate(814.01 256.54) rotate(173.11)"/></g><path class="cls-23" d="M399.05,129.68h0a3.35,3.35,0,0,1,3.72,2.92l-.45-3.73,0-.16a3.35,3.35,0,0,0-3.72-2.92h0a3.35,3.35,0,0,0-2.92,3.72v.16l.46,3.73A3.35,3.35,0,0,1,399.05,129.68Z"/><path class="cls-24" d="M400.07,138.15h0a3.35,3.35,0,0,1,3.72,2.92l-.45-3.74,0-.15a3.35,3.35,0,0,0-3.72-2.92h0a3.35,3.35,0,0,0-2.92,3.72l0,.16.45,3.73A3.35,3.35,0,0,1,400.07,138.15Z"/><path class="cls-25" d="M403.75,168.57h0a3.35,3.35,0,0,0-2.92,3.72l.43,3.55V176a3.36,3.36,0,0,0,3.73,2.92h0a3.36,3.36,0,0,0,2.92-3.72l0-.16-.43-3.54A3.35,3.35,0,0,0,403.75,168.57Z"/><path class="cls-13" d="M404.16,172h0a3.36,3.36,0,0,0-2.92,3.73l0,.11V176a3.36,3.36,0,0,0,3.73,2.92h0a3.36,3.36,0,0,0,2.92-3.72l0-.16,0-.11A3.36,3.36,0,0,0,404.16,172Z"/><rect class="cls-33" x="398.95" y="43.5" width="30.92" height="6.4" rx="3.2" ry="3.2" transform="translate(785.96 -142.68) rotate(146.56)"/><circle class="cls-30" cx="409" cy="13.78" r="13.78"/><path class="cls-31" d="M420.49,6.17a13.78,13.78,0,1,1-23,15.23C393.31,15.06,416.28-.18,420.49,6.17Z"/><ellipse class="cls-32" cx="403.55" cy="5.55" rx="7.03" ry="3" transform="translate(64.15 223.94) rotate(-33.55)"/><rect class="cls-34" x="416.3" y="17.35" width="6.4" height="24.52" rx="3.03" ry="3.03" transform="translate(53.52 236.77) rotate(-33.55)"/><rect class="cls-33" x="417.45" y="19.08" width="6.4" height="24.52" rx="3.03" ry="3.03" transform="translate(52.75 237.69) rotate(-33.55)"/><circle class="cls-30" cx="379.53" cy="40.79" r="8.98"/><path class="cls-31" d="M370.54,40.79a9,9,0,0,0,18,0C388.51,35.83,370.54,35.83,370.54,40.79Z"/><ellipse class="cls-32" cx="379.53" cy="34.35" rx="4.58" ry="1.95"/><rect class="cls-33" x="374.41" y="55.9" width="27.21" height="5.63" rx="2.82" ry="2.82" transform="translate(46.49 252.02) rotate(-38.12)"/><rect class="cls-34" x="376.71" y="43.57" width="5.63" height="21.58" rx="2.66" ry="2.66"/><rect class="cls-33" x="376.71" y="45.39" width="5.63" height="21.58" rx="2.66" ry="2.66"/><path class="cls-36" d="M391.55,52.23c0,2.12-2.66,4-4.3,5.11h0a19.27,19.27,0,1,0,19.82.18v0c-1.8-1.06-4.26-3-4.26-5.28"/><path class="cls-12" d="M392,54c0,1.93-2.43,3.66-3.93,4.67h0a17.6,17.6,0,1,0,18.11.16h0c-1.64-1-3.89-2.79-3.89-4.83"/><path class="cls-13" d="M405.58,58.36h0A5.2,5.2,0,0,1,405,49.8l.06,0a4.93,4.93,0,0,1,.53-.36v-.07a13.17,13.17,0,1,0-16.88.22h0l.05,0,.47.36a5.21,5.21,0,0,1-.52,8.26h0a16.4,16.4,0,1,0,16.88.15Z"/><path class="cls-37" d="M386.06,38.13a10.49,10.49,0,1,1,21,0C407,43.92,386.06,43.92,386.06,38.13Z"/><path class="cls-33" d="M386.34,37.17a10.21,10.21,0,1,1,20.42,0C406.76,42.81,386.34,42.81,386.34,37.17Z"/><path class="cls-38" d="M378.52,79.46a19.26,19.26,0,0,0,36.91-11c-1-3.33-.43,9.24-16,13.9C382.86,87.27,377.5,76.07,378.52,79.46Z"/><path class="cls-35" d="M379.79,81.25a17.22,17.22,0,0,0,34.44,0c0-3.11-2.74,7.8-17.27,7.8C381.51,89.05,379.79,78.09,379.79,81.25Z"/><path class="cls-39" d="M395.73,65.66a1.23,1.23,0,0,0,0,1.75l3.52,3.52a1.24,1.24,0,0,0,1.75,0l6.19-6.19a1.14,1.14,0,0,0,.16-.15,3.73,3.73,0,1,0-5.27-5.27.08.08,0,0,0,0,0l-.12.1Z"/><path class="cls-39" d="M399.07,64.63a.72.72,0,0,0-1,0l-2,2a.71.71,0,0,0,0,1l6,6,.08.09a2.16,2.16,0,1,0,3.06-3.06l0,0L405,70.6Z"/><path class="cls-39" d="M395.66,65a1.13,1.13,0,0,1,0,1.6l-3.23,3.22a1.13,1.13,0,0,1-1.6,0l-5.66-5.66a.86.86,0,0,1-.14-.13,3.41,3.41,0,0,1,4.82-4.82l0,0a.52.52,0,0,1,.11.1Z"/><path class="cls-39" d="M392.6,64.08a.65.65,0,0,1,.93,0l1.87,1.86a.67.67,0,0,1,0,.93l-5.47,5.47-.07.08a2,2,0,0,1-2.8-2.79l0,0,.06-.07Z"/><path class="cls-3" d="M395.72,62.28a1.13,1.13,0,0,0,0,1.58l3.19,3.2a1.14,1.14,0,0,0,1.59,0l5.6-5.61.15-.13a3.38,3.38,0,1,0-4.78-4.78l0,0-.11.1Z"/><path class="cls-3" d="M398.75,61.35a.64.64,0,0,0-.92,0L396,63.2a.65.65,0,0,0,0,.91l5.41,5.42a.6.6,0,0,1,.08.08,2,2,0,0,0,2.77-2.77l0,0-.06-.06Z"/><path class="cls-40" d="M395.72,62.33a1,1,0,0,0,0,1.44l2.89,2.9a1,1,0,0,0,1.44,0l5.08-5.09.14-.12a3.07,3.07,0,1,0-4.34-4.33l0,0-.11.09Z"/><path class="cls-40" d="M398.46,61.49a.59.59,0,0,0-.83,0L396,63.16a.6.6,0,0,0,0,.84l4.91,4.91a.46.46,0,0,0,.07.07,1.76,1.76,0,0,0,2.51,0,1.78,1.78,0,0,0,0-2.51h0l-.05-.06Z"/><path class="cls-3" d="M395.07,62.39a.91.91,0,0,1,0,1.29l-2.61,2.62a.92.92,0,0,1-1.29,0l-4.59-4.59-.12-.11a2.76,2.76,0,1,1,3.91-3.91l0,0a.34.34,0,0,1,.09.08Z"/><path class="cls-3" d="M392.6,61.62a.54.54,0,0,1,.75,0l1.51,1.52a.53.53,0,0,1,0,.75l-4.42,4.43a.23.23,0,0,0-.07.07,1.6,1.6,0,0,1-2.26-2.27h0l.05-.06Z"/><path class="cls-40" d="M395.08,62.43a.85.85,0,0,1,0,1.18L392.71,66a.85.85,0,0,1-1.18,0l-4.16-4.16-.11-.1a2.51,2.51,0,1,1,3.55-3.55l0,0,.09.07Z"/><path class="cls-40" d="M392.83,61.74a.48.48,0,0,1,.68,0l1.38,1.37a.5.5,0,0,1,0,.68l-4,4-.06.06a1.45,1.45,0,1,1-2.05-2.05v0s0,0,0,0Z"/><g class="cls-15"><path class="cls-39" d="M393.93,37.54a6.21,6.21,0,1,1-6.21,6.21A6.21,6.21,0,0,1,393.93,37.54Zm0,11.1A4.89,4.89,0,1,0,389,43.75,4.89,4.89,0,0,0,393.93,48.64Z"/></g><path class="cls-3" d="M391,35.39a6.21,6.21,0,1,1-6.2,6.21A6.22,6.22,0,0,1,391,35.39Zm0,11.1a4.89,4.89,0,1,0-4.89-4.89A4.9,4.9,0,0,0,391,46.49Z"/><rect class="cls-46" x="400.37" y="32.39" width="3.45" height="1.07" rx="0.53" ry="0.53" transform="translate(7.45 116.72) rotate(-16.67)"/><rect class="cls-46" x="400.18" y="33.48" width="3.45" height="1.07" rx="0.53" ry="0.53" transform="translate(709.11 295.39) rotate(-144.45)"/><rect class="cls-46" x="391.01" y="30.83" width="3.45" height="1.07" rx="0.53" ry="0.53" transform="translate(694.01 285.25) rotate(-144.45)"/><rect class="cls-46" x="390.83" y="31.93" width="3.45" height="1.07" rx="0.53" ry="0.53" transform="translate(7.18 113.96) rotate(-16.67)"/><path class="cls-13" d="M419.27,204.71a2.26,2.26,0,0,1-1.36-.23c-1.4-.74-4.4-12.37-5-14.65a12.81,12.81,0,0,1-.51-2.55c-.27-1.51,1.16-3,3.17-3.37h.09l.09,0c2-.32,3.88.65,4.13,2.17a14,14,0,0,1,.37,2.57c.23,2.34,1.29,14.28.22,15.43a2.21,2.21,0,0,1-1.21.65"/><path class="cls-13" d="M419.48,206.37a2.26,2.26,0,0,1-1.36-.23c-1.38-.74-4.36-12.28-4.92-14.55a13.82,13.82,0,0,1-.51-2.53c-.26-1.5,1.15-3,3.16-3.34l.08,0H416c2-.33,3.85.64,4.1,2.15a12.62,12.62,0,0,1,.37,2.55c.23,2.33,1.28,14.18.22,15.33a2.2,2.2,0,0,1-1.21.64"/><path class="cls-26" d="M419.5,206.36a2.2,2.2,0,0,0,1.21-.64c1.06-1.15,0-13-.22-15.33a12.62,12.62,0,0,0-.37-2.55c-.25-1.51-2.09-2.48-4.1-2.15h-.09l-.08,0c-2,.33-3.42,1.84-3.16,3.34a13.82,13.82,0,0,0,.51,2.53c.56,2.27,3.54,13.81,4.92,14.55a2.26,2.26,0,0,0,1.36.23Z"/><g class="cls-53"><polygon class="cls-16" points="424.91 205.51 425.71 205.38 422.13 184.59 421.33 184.72 424.91 205.51"/><polygon class="cls-16" points="423.25 205.78 424.05 205.65 420.47 184.86 419.67 184.99 423.25 205.78"/><polygon class="cls-16" points="421.59 206.06 422.39 205.93 418.81 185.13 418.01 185.27 421.59 206.06"/><polygon class="cls-16" points="419.93 206.33 420.73 206.2 417.15 185.41 416.35 185.54 419.93 206.33"/><polygon class="cls-16" points="418.26 206.6 419.07 206.47 415.49 185.68 414.69 185.81 418.26 206.6"/><polygon class="cls-16" points="416.6 206.88 417.41 206.75 413.83 185.95 413.02 186.09 416.6 206.88"/><polygon class="cls-16" points="414.94 207.15 415.75 207.02 412.17 186.23 411.36 186.36 414.94 207.15"/><polygon class="cls-16" points="413.28 207.43 414.09 207.29 410.51 186.5 409.7 186.63 413.28 207.43"/></g><path class="cls-13" d="M407.82,193.61a2.35,2.35,0,0,1-1.37-.22c-1.39-.75-4.39-12.37-5-14.66a14,14,0,0,1-.51-2.54c-.26-1.52,1.16-3,3.18-3.37l.09,0h.09c2-.33,3.87.65,4.13,2.17a13.93,13.93,0,0,1,.37,2.56c.23,2.35,1.29,14.29.22,15.44a2.34,2.34,0,0,1-1.22.65"/><path class="cls-13" d="M408,195.27a2.33,2.33,0,0,1-1.36-.22c-1.39-.74-4.36-12.28-4.93-14.55a12.9,12.9,0,0,1-.5-2.53c-.27-1.51,1.15-3,3.15-3.35h.09l.09,0c2-.32,3.85.65,4.1,2.16a13.6,13.6,0,0,1,.37,2.55c.23,2.32,1.28,14.18.22,15.32a2.31,2.31,0,0,1-1.21.65"/><path class="cls-26" d="M408.05,195.27a2.31,2.31,0,0,0,1.21-.65c1.06-1.14,0-13-.22-15.32a13.6,13.6,0,0,0-.37-2.55c-.25-1.51-2.1-2.48-4.1-2.16l-.09,0h-.09c-2,.34-3.42,1.84-3.15,3.35a12.9,12.9,0,0,0,.5,2.53c.57,2.27,3.54,13.81,4.93,14.55a2.33,2.33,0,0,0,1.36.22Z"/><g class="cls-54"><polygon class="cls-16" points="413.46 194.42 414.26 194.28 410.68 173.49 409.88 173.62 413.46 194.42"/><polygon class="cls-16" points="411.8 194.69 412.6 194.56 409.02 173.76 408.22 173.9 411.8 194.69"/><polygon class="cls-16" points="410.13 194.96 410.94 194.83 407.36 174.04 406.56 174.17 410.13 194.96"/><polygon class="cls-16" points="408.47 195.24 409.28 195.1 405.7 174.31 404.89 174.44 408.47 195.24"/><polygon class="cls-16" points="406.81 195.51 407.62 195.38 404.04 174.59 403.23 174.72 406.81 195.51"/><polygon class="cls-16" points="405.15 195.78 405.96 195.65 402.38 174.86 401.57 174.99 405.15 195.78"/><polygon class="cls-16" points="403.49 196.06 404.3 195.92 400.72 175.13 399.91 175.26 403.49 196.06"/><polygon class="cls-16" points="401.83 196.33 402.63 196.2 399.06 175.41 398.25 175.54 401.83 196.33"/></g></g></g></g></svg>