<svg xmlns="http://www.w3.org/2000/svg" xmlns:xlink="http://www.w3.org/1999/xlink" viewBox="0 0 669.72 241.44"><defs><style>.cls-1,.cls-28,.cls-3{fill:none;}.cls-2{isolation:isolate;}.cls-3{stroke:#ff7bac;stroke-width:0.4px;}.cls-28,.cls-3{stroke-miterlimit:10;}.cls-4{font-size:10px;fill:#666;font-family:ArialMT, Arial;}.cls-26,.cls-5{fill:#fff;}.cls-6{fill:#333;}.cls-7{fill:#1a1a1a;}.cls-8{fill:#bd202e;}.cls-9{fill:#8b1928;}.cls-33,.cls-9{opacity:0.5;}.cls-10{fill:#ea2127;}.cls-11{fill:#fde2d6;}.cls-12{fill:#d4aea2;}.cls-13{fill:#584844;}.cls-14{fill:#473b37;}.cls-15{fill:#352c28;}.cls-16{fill:#e5c3b7;}.cls-17,.cls-21,.cls-40{opacity:0.49;}.cls-17,.cls-21,.cls-27,.cls-40{mix-blend-mode:multiply;}.cls-18,.cls-21,.cls-22{fill:#221f1f;}.cls-19{fill:#fcee21;}.cls-20{fill:#5ab5c5;}.cls-22,.cls-37{opacity:0.3;}.cls-23{fill:#e6e6e6;}.cls-24{clip-path:url(#clip-path);}.cls-25,.cls-27{fill:#59121b;}.cls-26{opacity:0.58;}.cls-27{opacity:0.52;}.cls-28{stroke:#221f1f;stroke-width:0.79px;}.cls-29{clip-path:url(#clip-path-2);}.cls-30{clip-path:url(#clip-path-3);}.cls-31{clip-path:url(#clip-path-4);}.cls-32{fill:#be1e2d;}.cls-33,.cls-43{fill:#8c1927;}.cls-34{fill:#ec1c24;}.cls-35{fill:#fde3d7;}.cls-36{fill:#d5afa3;}.cls-37,.cls-40,.cls-41{fill:#231f20;}.cls-38{fill:#574844;}.cls-39{fill:#e7c5b8;}.cls-42{fill:#e6e7e8;}.cls-44{clip-path:url(#clip-path-5);}.cls-45{clip-path:url(#clip-path-6);}.cls-46{clip-path:url(#clip-path-7);}.cls-47{clip-path:url(#clip-path-8);}.cls-48{fill:#59b6c6;}.cls-49{clip-path:url(#clip-path-9);}.cls-50{clip-path:url(#clip-path-10);}.cls-51{clip-path:url(#clip-path-11);}.cls-52{clip-path:url(#clip-path-12);}.cls-53{clip-path:url(#clip-path-13);}.cls-54{clip-path:url(#clip-path-14);}.cls-55{clip-path:url(#clip-path-15);}.cls-56{clip-path:url(#clip-path-16);}</style><clipPath id="clip-path"><path class="cls-1" d="M55,139.8h0a3.35,3.35,0,0,0-3.34,3.35V188A3.35,3.35,0,0,0,55,191.37h0A3.35,3.35,0,0,0,58.31,188V143.15A3.36,3.36,0,0,0,55,139.8Z"/></clipPath><clipPath id="clip-path-2"><path class="cls-1" d="M54.8,206.39a2.24,2.24,0,0,1-1.29-.45c-1.22-1-2-12.85-2.13-15.18a14.27,14.27,0,0,1,0-2.58c0-1.53,1.7-2.77,3.73-2.76h.18c2,0,3.66,1.3,3.63,2.83a13.59,13.59,0,0,1-.12,2.58c-.21,2.33-1.38,14.19-2.64,15.13a2.28,2.28,0,0,1-1.31.43Z"/></clipPath><clipPath id="clip-path-3"><path class="cls-1" d="M44.36,139.8h0A3.36,3.36,0,0,0,41,143.15V188a3.35,3.35,0,0,0,3.35,3.34h0A3.35,3.35,0,0,0,47.7,188V143.15A3.35,3.35,0,0,0,44.36,139.8Z"/></clipPath><clipPath id="clip-path-4"><path class="cls-1" d="M44.19,206.39a2.24,2.24,0,0,1-1.29-.45c-1.22-1-2-12.85-2.13-15.18a13.12,13.12,0,0,1,0-2.58c0-1.53,1.69-2.77,3.72-2.76h.18c2,0,3.66,1.3,3.63,2.83a13.82,13.82,0,0,1-.11,2.58C48,193.16,46.78,205,45.53,206a2.33,2.33,0,0,1-1.31.43Z"/></clipPath><clipPath id="clip-path-5"><path class="cls-1" d="M601.9,138.6h0a3.35,3.35,0,0,0-3.34,3.35v44.88a3.35,3.35,0,0,0,3.34,3.34h0a3.35,3.35,0,0,0,3.35-3.34V142A3.36,3.36,0,0,0,601.9,138.6Z"/></clipPath><clipPath id="clip-path-6"><path class="cls-1" d="M616.68,119.13h0a3.37,3.37,0,0,0,4.74,0L653,87.51l.11-.11a3.36,3.36,0,0,0,0-4.73h0a3.34,3.34,0,0,0-4.73,0l-.11.11L616.68,114.4A3.36,3.36,0,0,0,616.68,119.13Z"/></clipPath><clipPath id="clip-path-7"><path class="cls-1" d="M601.85,206.39a2.24,2.24,0,0,0,1.3-.42c1.25-.94,2.31-12.8,2.5-15.13a12.86,12.86,0,0,0,.09-2.57c0-1.53-1.62-2.81-3.65-2.85h-.18c-2,0-3.7,1.21-3.7,2.74a13.69,13.69,0,0,0,0,2.57c.15,2.34,1,14.22,2.27,15.2a2.35,2.35,0,0,0,1.3.46Z"/></clipPath><clipPath id="clip-path-8"><path class="cls-1" d="M665.49,71.89a2.36,2.36,0,0,0-1.19-.68c-1.53-.28-11,7-12.82,8.4a14,14,0,0,0-2,1.68c-1.14,1-1,3.1.38,4.62L650,86,650,86c1.36,1.51,3.39,1.9,4.52.87a13,13,0,0,0,1.86-1.78c1.62-1.69,9.76-10.39,9.65-12a2.33,2.33,0,0,0-.54-1.26Z"/></clipPath><clipPath id="clip-path-9"><path class="cls-1" d="M229.66,137.36h0a3.23,3.23,0,0,0-3.23,3.23V184a3.23,3.23,0,0,0,3.23,3.23h0a3.23,3.23,0,0,0,3.23-3.23V140.59A3.23,3.23,0,0,0,229.66,137.36Z"/></clipPath><clipPath id="clip-path-10"><path class="cls-1" d="M235.08,138.81h0a3.35,3.35,0,0,0-3.35,3.34V187a3.35,3.35,0,0,0,3.35,3.34h0a3.35,3.35,0,0,0,3.34-3.34V142.15A3.35,3.35,0,0,0,235.08,138.81Z"/></clipPath><clipPath id="clip-path-11"><path class="cls-1" d="M229.28,203.17a2.22,2.22,0,0,0,1.3-.42c1.25-.94,2.32-12.8,2.5-15.13a12.86,12.86,0,0,0,.09-2.57c0-1.53-1.62-2.81-3.65-2.85h-.18c-2,0-3.7,1.21-3.7,2.73a13.84,13.84,0,0,0,.05,2.58c.15,2.34,1,14.22,2.27,15.2a2.35,2.35,0,0,0,1.3.46Z"/></clipPath><clipPath id="clip-path-12"><path class="cls-1" d="M235,206.39a2.26,2.26,0,0,0,1.3-.42c1.25-.94,2.31-12.8,2.5-15.13a14.2,14.2,0,0,0,.09-2.57c0-1.53-1.63-2.81-3.66-2.85h-.18c-2,0-3.69,1.21-3.69,2.74a12.43,12.43,0,0,0,0,2.57c.15,2.34,1,14.22,2.27,15.2a2.32,2.32,0,0,0,1.29.46Z"/></clipPath><clipPath id="clip-path-13"><path class="cls-1" d="M425.77,140h0a3.36,3.36,0,0,0-2.92,3.73l5.37,44.4,0,.16a3.36,3.36,0,0,0,3.72,2.92h0a3.36,3.36,0,0,0,2.92-3.73l0-.15-5.37-44.41A3.36,3.36,0,0,0,425.77,140Z"/></clipPath><clipPath id="clip-path-14"><path class="cls-1" d="M414,127.71h0a3.36,3.36,0,0,0-2.92,3.73l5.36,44.4,0,.15a3.35,3.35,0,0,0,3.72,2.92h0a3.34,3.34,0,0,0,2.92-3.72V175l-5.37-44.4A3.36,3.36,0,0,0,414,127.71Z"/></clipPath><clipPath id="clip-path-15"><path class="cls-1" d="M434.66,206.36a2.23,2.23,0,0,0,1.21-.64c1.06-1.15,0-13-.22-15.33a13.87,13.87,0,0,0-.37-2.55c-.25-1.51-2.1-2.48-4.1-2.15h-.09l-.09,0c-2,.33-3.42,1.84-3.15,3.34a14,14,0,0,0,.5,2.53c.57,2.27,3.55,13.81,4.93,14.55a2.26,2.26,0,0,0,1.36.23Z"/></clipPath><clipPath id="clip-path-16"><path class="cls-1" d="M423.21,195.27a2.35,2.35,0,0,0,1.21-.65c1.06-1.14,0-13-.22-15.32a13.6,13.6,0,0,0-.37-2.55c-.25-1.51-2.1-2.48-4.1-2.16l-.09,0h-.09c-2,.34-3.42,1.84-3.15,3.35a12.9,12.9,0,0,0,.5,2.53c.57,2.27,3.54,13.81,4.93,14.55a2.3,2.3,0,0,0,1.35.22Z"/></clipPath></defs><title>Asset 19</title><g class="cls-2"><g id="Layer_2" data-name="Layer 2"><g id="Logos"><line class="cls-3" x1="657.27" y1="225.3" y2="225.3"/><text class="cls-4" transform="translate(17.77 238.2)">Hero poses</text><path class="cls-5" d="M22.56,100A27.21,27.21,0,1,1,77,100"/><ellipse class="cls-6" cx="49.77" cy="100.14" rx="27.21" ry="4.04"/><ellipse class="cls-7" cx="49.77" cy="100.14" rx="25.65" ry="2.88"/><circle class="cls-8" cx="25.36" cy="40.75" r="10.2"/><path class="cls-9" d="M15.16,40.75a10.21,10.21,0,1,0,20.41,0C35.57,35.12,15.16,35.12,15.16,40.75Z"/><ellipse class="cls-10" cx="25.36" cy="33.44" rx="5.21" ry="2.22"/><circle class="cls-8" cx="74.08" cy="40.75" r="10.2"/><path class="cls-9" d="M84.28,40.75a10.21,10.21,0,1,1-20.41,0C63.87,35.12,84.28,35.12,84.28,40.75Z"/><ellipse class="cls-10" cx="74.08" cy="33.44" rx="5.21" ry="2.22"/><rect class="cls-11" x="48.97" y="57.93" width="30.92" height="6.4" rx="3.2" ry="3.2" transform="translate(77.39 148.98) rotate(-141.88)"/><rect class="cls-12" x="70.88" y="43.91" width="6.4" height="24.52" rx="3.03" ry="3.03"/><rect class="cls-11" x="70.88" y="45.98" width="6.4" height="24.52" rx="3.03" ry="3.03"/><rect class="cls-11" x="19.55" y="57.93" width="30.92" height="6.4" rx="3.2" ry="3.2" transform="translate(-30.26 34.64) rotate(-38.12)"/><rect class="cls-12" x="22.16" y="43.91" width="6.4" height="24.52" rx="3.03" ry="3.03"/><rect class="cls-11" x="22.16" y="45.98" width="6.4" height="24.52" rx="3.03" ry="3.03"/><path class="cls-13" d="M44.24,53.39c0,2.12-2.67,4-4.31,5.11h0a19.27,19.27,0,1,0,19.82.18h0c-1.79-1.07-4.26-3-4.26-5.29"/><path class="cls-14" d="M44.71,55.16c0,1.93-2.44,3.67-3.93,4.67h0a17.6,17.6,0,1,0,18.1.16h0C57.24,59,55,57.2,55,55.16"/><path class="cls-15" d="M58.26,59.52h0A5.2,5.2,0,0,1,57.67,51l.07-.05a3.64,3.64,0,0,1,.52-.35v-.08a13.17,13.17,0,1,0-16.88.22h0l0,0,.47.36a5.2,5.2,0,0,1-.52,8.26h0a16.4,16.4,0,1,0,16.88.15Z"/><path class="cls-16" d="M39.2,39.29a10.49,10.49,0,0,1,21,0C60.18,45.08,39.2,45.08,39.2,39.29Z"/><path class="cls-11" d="M39.48,38.33a10.22,10.22,0,0,1,20.43,0C59.91,44,39.48,44,39.48,38.33Z"/><g class="cls-17"><path class="cls-18" d="M49.66,41a6.21,6.21,0,1,1-6.21,6.2A6.21,6.21,0,0,1,49.66,41Zm0,11.1a4.9,4.9,0,1,0-4.89-4.9A4.91,4.91,0,0,0,49.66,52.11Z"/></g><path class="cls-19" d="M49.66,48.73a6,6,0,1,1,6-6A6,6,0,0,1,49.66,48.73Zm0-11.09a5.12,5.12,0,1,0,5.12,5.12A5.12,5.12,0,0,0,49.66,37.64Z"/><path class="cls-5" d="M49.66,37a5.75,5.75,0,1,1-5.75,5.75A5.76,5.76,0,0,1,49.66,37m0,11.1a5.36,5.36,0,1,0-5.35-5.35,5.36,5.36,0,0,0,5.35,5.35m0-11.56a6.21,6.21,0,1,0,6.2,6.21,6.22,6.22,0,0,0-6.2-6.21Zm0,11.1a4.89,4.89,0,1,1,4.89-4.89,4.9,4.9,0,0,1-4.89,4.89Z"/><circle class="cls-20" cx="54.86" cy="34.04" r="1.13"/><circle class="cls-20" cx="44.53" cy="34.04" r="1.13"/><circle class="cls-20" cx="54.86" cy="34.04" r="1.13"/><circle class="cls-20" cx="44.53" cy="34.04" r="1.13"/><path class="cls-21" d="M30.43,75.2A19.27,19.27,0,1,0,69,75.2c0-3.48-3.06,8.72-19.32,8.72C32.35,83.92,30.43,71.66,30.43,75.2Z"/><path class="cls-22" d="M32.47,82.41a17.23,17.23,0,1,0,34.45,0c0-3.11-2.74,7.8-17.27,7.8C34.19,90.21,32.47,79.25,32.47,82.41Z"/><path class="cls-18" d="M49.74,66.82a1.24,1.24,0,0,0,0,1.75l3.53,3.52a1.24,1.24,0,0,0,1.75,0l6.19-6.19.16-.14a3.73,3.73,0,0,0-5.28-5.28l0,0-.12.1Z"/><path class="cls-18" d="M53.08,65.79a.71.71,0,0,0-1,0l-2,2a.71.71,0,0,0,0,1l6,6,.09.09a2.16,2.16,0,0,0,3-3.06l0,0-.06-.07Z"/><path class="cls-18" d="M49.64,66.82a1.24,1.24,0,0,1,0,1.75l-3.52,3.52a1.24,1.24,0,0,1-1.75,0L38.18,65.9,38,65.76a3.73,3.73,0,0,1,5.27-5.28l0,0,.12.1Z"/><path class="cls-18" d="M46.3,65.79a.72.72,0,0,1,1,0l2,2a.71.71,0,0,1,0,1l-6,6-.08.09a2.16,2.16,0,1,1-3.06-3.06l0,0,.06-.07Z"/><path class="cls-5" d="M49.74,63.44a1.11,1.11,0,0,0,0,1.58l3.19,3.2a1.13,1.13,0,0,0,1.58,0l5.61-5.61.15-.13a3.38,3.38,0,0,0-4.78-4.78l0,0-.11.1Z"/><path class="cls-5" d="M52.76,62.51a.63.63,0,0,0-.91,0L50,64.36a.63.63,0,0,0,0,.91l5.41,5.42.07.08A2,2,0,0,0,58.25,68l0,0,0-.06Z"/><path class="cls-5" d="M49.65,63.44a1.13,1.13,0,0,1,0,1.58l-3.2,3.2a1.13,1.13,0,0,1-1.58,0l-5.61-5.61a.86.86,0,0,1-.14-.13A3.38,3.38,0,0,1,43.9,57.7l0,0,.11.1Z"/><path class="cls-5" d="M46.62,62.51a.64.64,0,0,1,.92,0l1.85,1.85a.65.65,0,0,1,0,.91L44,70.69a.6.6,0,0,0-.08.08A2,2,0,0,1,41.13,68l0,0,.06-.06Z"/><path class="cls-23" d="M49.73,63.5a1,1,0,0,0,0,1.43l2.9,2.9a1,1,0,0,0,1.44,0l5.08-5.09a.74.74,0,0,0,.13-.12A3.06,3.06,0,0,0,55,58.29l0,0-.1.09Z"/><path class="cls-23" d="M52.48,62.65a.59.59,0,0,0-.83,0L50,64.33a.59.59,0,0,0,0,.83l4.91,4.91a.46.46,0,0,0,.07.07,1.76,1.76,0,0,0,2.51,0,1.78,1.78,0,0,0,0-2.51h0l0-.06Z"/><path class="cls-23" d="M49.65,63.5a1,1,0,0,1,0,1.43l-2.89,2.9a1,1,0,0,1-1.44,0l-5.09-5.09a1.42,1.42,0,0,1-.13-.12,3.06,3.06,0,0,1,4.33-4.33l0,0,.1.09Z"/><path class="cls-23" d="M46.91,62.65a.59.59,0,0,1,.83,0l1.68,1.68a.59.59,0,0,1,0,.83l-4.91,4.91-.07.07a1.76,1.76,0,0,1-2.51,0,1.78,1.78,0,0,1,0-2.51h0l0-.06Z"/><path class="cls-12" d="M55,98.24h0a3.35,3.35,0,0,0-3.34,3.35v28.55A3.35,3.35,0,0,0,55,133.49h0a3.36,3.36,0,0,0,3.35-3.35V101.59A3.36,3.36,0,0,0,55,98.24Z"/><path class="cls-11" d="M55,125.33h0a3.35,3.35,0,0,0-3.34,3.35v28.55A3.35,3.35,0,0,0,55,160.58h0a3.36,3.36,0,0,0,3.35-3.35V128.68A3.36,3.36,0,0,0,55,125.33Z"/><path class="cls-10" d="M55,139.8h0a3.35,3.35,0,0,0-3.34,3.35V188A3.35,3.35,0,0,0,55,191.37h0A3.35,3.35,0,0,0,58.31,188V143.15A3.36,3.36,0,0,0,55,139.8Z"/><path class="cls-5" d="M55,150.32h0a3.35,3.35,0,0,1,3.35,3.34v-3.92A3.35,3.35,0,0,0,55,146.4h0a3.35,3.35,0,0,0-3.34,3.34v3.92A3.35,3.35,0,0,1,55,150.32Z"/><g class="cls-24"><rect class="cls-8" x="57.19" y="134.33" width="0.61" height="60.82" transform="translate(115 329.49) rotate(-180)"/><rect class="cls-8" x="55.92" y="134.33" width="0.61" height="60.82" transform="translate(112.46 329.49) rotate(-180)"/><rect class="cls-8" x="54.66" y="134.33" width="0.61" height="60.82" transform="translate(109.93 329.49) rotate(-180)"/><rect class="cls-8" x="53.39" y="134.33" width="0.61" height="60.82" transform="translate(107.39 329.49) rotate(-180)"/><rect class="cls-8" x="52.12" y="134.33" width="0.61" height="60.82" transform="translate(104.85 329.49) rotate(-180)"/></g><path class="cls-25" d="M55,141.78h0a3.36,3.36,0,0,1,3.35,3.35v-3.92A3.36,3.36,0,0,0,55,137.86h0a3.35,3.35,0,0,0-3.34,3.35v3.92A3.35,3.35,0,0,1,55,141.78Z"/><path class="cls-26" d="M55,150.32h0a3.35,3.35,0,0,1,3.35,3.34v-3.92A3.35,3.35,0,0,0,55,146.4h0a3.35,3.35,0,0,0-3.34,3.34v3.92A3.35,3.35,0,0,1,55,150.32Z"/><path class="cls-27" d="M55,181h0a3.35,3.35,0,0,0-3.34,3.35V188A3.35,3.35,0,0,0,55,191.37h0A3.35,3.35,0,0,0,58.31,188V184.3A3.36,3.36,0,0,0,55,181Z"/><path class="cls-15" d="M55,184.41h0a3.35,3.35,0,0,0-3.34,3.35V188A3.35,3.35,0,0,0,55,191.37h0A3.35,3.35,0,0,0,58.31,188v-.27A3.36,3.36,0,0,0,55,184.41Z"/><path class="cls-15" d="M54.78,204.72a2.38,2.38,0,0,0,1.31-.43c1.27-1,2.45-12.9,2.66-15.24a13.79,13.79,0,0,0,.12-2.6c0-1.54-1.61-2.82-3.66-2.84H55c-2,0-3.73,1.24-3.75,2.78a13.07,13.07,0,0,0,0,2.59c.13,2.35.91,14.31,2.14,15.29a2.32,2.32,0,0,0,1.3.46"/><path class="cls-15" d="M54.82,206.39a2.28,2.28,0,0,0,1.31-.43c1.26-.94,2.43-12.8,2.64-15.13a13.59,13.59,0,0,0,.12-2.58c0-1.53-1.6-2.8-3.63-2.83h-.18c-2,0-3.71,1.23-3.73,2.76a14.27,14.27,0,0,0,0,2.58c.13,2.33.91,14.21,2.13,15.18a2.24,2.24,0,0,0,1.29.45"/><path class="cls-28" d="M54.8,206.39a2.24,2.24,0,0,1-1.29-.45c-1.22-1-2-12.85-2.13-15.18a14.27,14.27,0,0,1,0-2.58c0-1.53,1.7-2.77,3.73-2.76h.18c2,0,3.66,1.3,3.63,2.83a13.59,13.59,0,0,1-.12,2.58c-.21,2.33-1.38,14.19-2.64,15.13a2.28,2.28,0,0,1-1.31.43Z"/><g class="cls-29"><polygon class="cls-18" points="49.33 206.37 48.51 206.37 48.87 185.27 49.69 185.28 49.33 206.37"/><polygon class="cls-18" points="51.01 206.39 50.2 206.38 50.55 185.29 51.37 185.29 51.01 206.39"/><polygon class="cls-18" points="52.69 206.41 51.88 206.4 52.24 185.3 53.05 185.31 52.69 206.41"/><polygon class="cls-18" points="54.38 206.42 53.56 206.41 53.92 185.32 54.74 185.33 54.38 206.42"/><polygon class="cls-18" points="56.06 206.44 55.24 206.43 55.6 185.34 56.42 185.34 56.06 206.44"/><polygon class="cls-18" points="57.74 206.45 56.93 206.45 57.29 185.35 58.1 185.36 57.74 206.45"/><polygon class="cls-18" points="59.43 206.47 58.61 206.46 58.97 185.37 59.79 185.38 59.43 206.47"/><polygon class="cls-18" points="61.11 206.49 60.3 206.48 60.65 185.38 61.47 185.39 61.11 206.49"/></g><path class="cls-12" d="M44.36,98.24h0A3.36,3.36,0,0,0,41,101.59v28.55a3.36,3.36,0,0,0,3.35,3.35h0a3.35,3.35,0,0,0,3.34-3.35V101.59A3.35,3.35,0,0,0,44.36,98.24Z"/><path class="cls-11" d="M55,100.85h0a3.35,3.35,0,0,0-3.34,3.35v28.55A3.35,3.35,0,0,0,55,136.1h0a3.36,3.36,0,0,0,3.35-3.35V104.2A3.36,3.36,0,0,0,55,100.85Z"/><path class="cls-11" d="M44.36,100.85h0A3.36,3.36,0,0,0,41,104.2v28.55a3.36,3.36,0,0,0,3.35,3.35h0a3.35,3.35,0,0,0,3.34-3.35V104.2A3.35,3.35,0,0,0,44.36,100.85Z"/><path class="cls-11" d="M44.36,125.33h0A3.36,3.36,0,0,0,41,128.68v28.55a3.36,3.36,0,0,0,3.35,3.35h0a3.35,3.35,0,0,0,3.34-3.35V128.68A3.35,3.35,0,0,0,44.36,125.33Z"/><path class="cls-10" d="M44.36,139.8h0A3.36,3.36,0,0,0,41,143.15V188a3.35,3.35,0,0,0,3.35,3.34h0A3.35,3.35,0,0,0,47.7,188V143.15A3.35,3.35,0,0,0,44.36,139.8Z"/><path class="cls-5" d="M44.36,150.32h0a3.35,3.35,0,0,1,3.34,3.34v-3.92a3.35,3.35,0,0,0-3.34-3.34h0A3.35,3.35,0,0,0,41,149.74v3.92A3.35,3.35,0,0,1,44.36,150.32Z"/><g class="cls-30"><rect class="cls-8" x="46.59" y="134.33" width="0.61" height="60.82" transform="translate(93.79 329.49) rotate(-180)"/><rect class="cls-8" x="45.32" y="134.33" width="0.61" height="60.82" transform="translate(91.25 329.49) rotate(-180)"/><rect class="cls-8" x="44.05" y="134.33" width="0.61" height="60.82" transform="translate(88.72 329.49) rotate(-180)"/><rect class="cls-8" x="42.78" y="134.33" width="0.61" height="60.82" transform="translate(86.18 329.49) rotate(-180)"/><rect class="cls-8" x="41.51" y="134.33" width="0.61" height="60.82" transform="translate(83.64 329.49) rotate(-180)"/></g><path class="cls-25" d="M44.36,141.78h0a3.35,3.35,0,0,1,3.34,3.35v-3.92a3.35,3.35,0,0,0-3.34-3.35h0A3.36,3.36,0,0,0,41,141.21v3.92A3.36,3.36,0,0,1,44.36,141.78Z"/><path class="cls-26" d="M44.36,150.32h0a3.35,3.35,0,0,1,3.34,3.34v-3.92a3.35,3.35,0,0,0-3.34-3.34h0A3.35,3.35,0,0,0,41,149.74v3.92A3.35,3.35,0,0,1,44.36,150.32Z"/><path class="cls-27" d="M44.36,181h0A3.36,3.36,0,0,0,41,184.3V188a3.35,3.35,0,0,0,3.35,3.34h0A3.35,3.35,0,0,0,47.7,188V184.3A3.35,3.35,0,0,0,44.36,181Z"/><path class="cls-15" d="M44.36,184.41h0A3.36,3.36,0,0,0,41,187.76V188a3.35,3.35,0,0,0,3.35,3.34h0A3.35,3.35,0,0,0,47.7,188v-.27A3.35,3.35,0,0,0,44.36,184.41Z"/><path class="cls-15" d="M44.17,204.72a2.41,2.41,0,0,0,1.32-.43c1.26-1,2.44-12.9,2.66-15.24a14,14,0,0,0,.11-2.6c0-1.54-1.61-2.82-3.65-2.84h-.18c-2,0-3.74,1.24-3.75,2.78a13.28,13.28,0,0,0,0,2.59c.13,2.35.91,14.31,2.14,15.29a2.38,2.38,0,0,0,1.31.46"/><path class="cls-15" d="M44.22,206.39a2.33,2.33,0,0,0,1.31-.43c1.25-.94,2.43-12.8,2.64-15.13a13.82,13.82,0,0,0,.11-2.58c0-1.53-1.6-2.8-3.63-2.83h-.18c-2,0-3.7,1.23-3.72,2.76a13.12,13.12,0,0,0,0,2.58c.14,2.33.91,14.21,2.13,15.18a2.24,2.24,0,0,0,1.29.45"/><path class="cls-28" d="M44.19,206.39a2.24,2.24,0,0,1-1.29-.45c-1.22-1-2-12.85-2.13-15.18a13.12,13.12,0,0,1,0-2.58c0-1.53,1.69-2.77,3.72-2.76h.18c2,0,3.66,1.3,3.63,2.83a13.82,13.82,0,0,1-.11,2.58C48,193.16,46.78,205,45.53,206a2.33,2.33,0,0,1-1.31.43Z"/><g class="cls-31"><polygon class="cls-18" points="38.72 206.37 37.91 206.37 38.26 185.27 39.08 185.28 38.72 206.37"/><polygon class="cls-18" points="40.41 206.39 39.59 206.38 39.95 185.29 40.76 185.29 40.41 206.39"/><polygon class="cls-18" points="42.09 206.41 41.27 206.4 41.63 185.3 42.45 185.31 42.09 206.41"/><polygon class="cls-18" points="43.77 206.42 42.95 206.41 43.31 185.32 44.13 185.33 43.77 206.42"/><polygon class="cls-18" points="45.45 206.44 44.64 206.43 45 185.34 45.81 185.34 45.45 206.44"/><polygon class="cls-18" points="47.14 206.45 46.32 206.45 46.68 185.35 47.5 185.36 47.14 206.45"/><polygon class="cls-18" points="48.82 206.47 48.01 206.46 48.36 185.37 49.18 185.38 48.82 206.47"/><polygon class="cls-18" points="50.51 206.49 49.69 206.48 50.05 185.38 50.86 185.39 50.51 206.49"/></g><path class="cls-5" d="M569,97.74c0-21.45,14.45-38.84,32.28-38.84s32.28,17.39,32.28,38.84"/><ellipse class="cls-6" cx="601.25" cy="97.39" rx="32.28" ry="5.89"/><ellipse class="cls-7" cx="601.25" cy="97.39" rx="30.44" ry="4.19"/><circle class="cls-32" cx="626.25" cy="57.6" r="10.2"/><path class="cls-33" d="M636.45,57.6a10.21,10.21,0,0,0-20.41,0C616,63.24,636.45,63.24,636.45,57.6Z"/><ellipse class="cls-34" cx="626.25" cy="64.91" rx="5.21" ry="2.22"/><rect class="cls-35" x="601.14" y="34.03" width="30.92" height="6.4" rx="3.2" ry="3.2" transform="translate(1124.7 -314.07) rotate(141.88)"/><rect class="cls-36" x="623.05" y="29.92" width="6.4" height="24.52" rx="3.03" ry="3.03"/><rect class="cls-35" x="623.05" y="27.85" width="6.4" height="24.52" rx="3.03" ry="3.03"/><circle class="cls-32" cx="576.84" cy="37.02" r="10.2"/><path class="cls-33" d="M566.64,37a10.21,10.21,0,0,0,20.41,0C587.05,31.38,566.64,31.38,566.64,37Z"/><ellipse class="cls-34" cx="576.84" cy="29.7" rx="5.21" ry="2.22"/><rect class="cls-35" x="571.03" y="54.19" width="30.92" height="6.4" rx="3.2" ry="3.2" transform="translate(89.63 374.25) rotate(-38.12)"/><rect class="cls-36" x="573.64" y="40.17" width="6.4" height="24.52" rx="3.03" ry="3.03"/><rect class="cls-35" x="573.64" y="42.24" width="6.4" height="24.52" rx="3.03" ry="3.03"/><path class="cls-37" d="M584,69.91a17.23,17.23,0,1,0,34.45,0c0-3.1-2.74,7.8-17.27,7.8C585.67,77.71,584,66.75,584,69.91Z"/><path class="cls-38" d="M595.8,42.75c0,2.12-2.67,4-4.31,5.11h0a19.27,19.27,0,1,0,19.82.18v0c-1.8-1.06-4.26-3-4.26-5.28"/><path class="cls-14" d="M596.27,44.52c0,1.93-2.44,3.66-3.94,4.67h0a17.61,17.61,0,1,0,18.11.16h0c-1.64-1-3.89-2.79-3.89-4.83"/><path class="cls-15" d="M609.82,48.88h0a5.2,5.2,0,0,1-.59-8.55.18.18,0,0,1,.07,0,4.8,4.8,0,0,1,.52-.36v-.07a13.17,13.17,0,1,0-16.88.22h0l0,0,.47.36a5.21,5.21,0,0,1-.52,8.26h0a16.4,16.4,0,1,0,16.88.15Z"/><path class="cls-39" d="M590.76,28.65a10.49,10.49,0,1,1,21,0C611.74,34.44,590.76,34.44,590.76,28.65Z"/><path class="cls-35" d="M591,27.69a10.21,10.21,0,1,1,20.42,0C611.46,33.33,591,33.33,591,27.69Z"/><path class="cls-40" d="M582,64.56a19.27,19.27,0,0,0,38.53,0c0-3.48-3.07,8.72-19.32,8.72C583.91,73.28,582,61,582,64.56Z"/><path class="cls-41" d="M601.3,56.18a1.23,1.23,0,0,0,0,1.74l3.53,3.53a1.24,1.24,0,0,0,1.75,0l6.19-6.19c.05,0,.11-.09.16-.15a3.73,3.73,0,0,0-5.28-5.27l0,0-.13.1Z"/><path class="cls-41" d="M604.64,55.14a.71.71,0,0,0-1,0l-2,2a.71.71,0,0,0,0,1l6,6,.09.09a2.16,2.16,0,0,0,3.05-3.06l0,0-.06-.07Z"/><path class="cls-41" d="M601.2,56.18a1.23,1.23,0,0,1,0,1.74l-3.52,3.53a1.24,1.24,0,0,1-1.75,0l-6.19-6.19-.17-.15a3.73,3.73,0,0,1,5.28-5.27l0,0,.13.1Z"/><path class="cls-41" d="M597.86,55.14a.71.71,0,0,1,1,0l2,2a.71.71,0,0,1,0,1l-6,6-.08.09a2.16,2.16,0,1,1-3.06-3.06l0,0,.06-.07Z"/><path class="cls-5" d="M601.3,52.8a1.11,1.11,0,0,0,0,1.58l3.19,3.2a1.13,1.13,0,0,0,1.58,0L611.68,52l.15-.13a3.38,3.38,0,1,0-4.78-4.78l0,0a.52.52,0,0,0-.11.1Z"/><path class="cls-5" d="M604.32,51.86a.66.66,0,0,0-.92,0l-1.85,1.85a.66.66,0,0,0,0,.92L607,60l.07.09a2,2,0,1,0,2.77-2.77l0,0,0-.06Z"/><path class="cls-5" d="M601.21,52.8a1.13,1.13,0,0,1,0,1.58l-3.2,3.2a1.13,1.13,0,0,1-1.58,0L590.82,52l-.14-.13a3.38,3.38,0,0,1,4.77-4.78l0,0,.12.1Z"/><path class="cls-5" d="M598.18,51.86a.66.66,0,0,1,.92,0L601,53.71a.66.66,0,0,1,0,.92L595.54,60l-.08.09a2,2,0,1,1-2.77-2.77l0,0,.06-.06Z"/><path class="cls-42" d="M601.29,52.85a1,1,0,0,0,0,1.44l2.9,2.9a1,1,0,0,0,1.43,0l5.09-5.09.13-.12a3.06,3.06,0,0,0-4.33-4.33l0,0a.81.81,0,0,0-.1.09Z"/><path class="cls-42" d="M604,52a.6.6,0,0,0-.84,0l-1.67,1.67a.6.6,0,0,0,0,.84l4.9,4.9.07.08a1.78,1.78,0,0,0,2.51,0A1.76,1.76,0,0,0,609,57v0l0,0Z"/><path class="cls-42" d="M601.21,52.85a1,1,0,0,1,0,1.44l-2.9,2.9a1,1,0,0,1-1.43,0l-5.09-5.09-.13-.12A3.06,3.06,0,0,1,596,47.65l0,0a.43.43,0,0,1,.1.09Z"/><path class="cls-42" d="M598.47,52a.59.59,0,0,1,.83,0L601,53.68a.6.6,0,0,1,0,.84l-4.91,4.9-.07.08a1.78,1.78,0,0,1-2.51,0,1.76,1.76,0,0,1,0-2.51l0,0,0,0Z"/><rect class="cls-43" x="595.1" y="22.94" width="1.29" height="4.71" rx="0.65" ry="0.65" transform="translate(192.38 -413.85) rotate(45)"/><rect class="cls-43" x="595.1" y="22.94" width="1.29" height="4.71" rx="0.65" ry="0.65" transform="translate(156.6 428.67) rotate(-45)"/><rect class="cls-34" x="605.19" y="23" width="1.29" height="4.71" rx="0.65" ry="0.65" transform="translate(195.37 -420.96) rotate(45)"/><rect class="cls-34" x="605.19" y="23" width="1.29" height="4.71" rx="0.65" ry="0.65" transform="translate(159.52 435.82) rotate(-45)"/><path class="cls-34" d="M605.84,29.27a3.92,3.92,0,1,1,3.91-3.92A3.93,3.93,0,0,1,605.84,29.27Zm0-6.35a2.44,2.44,0,1,0,2.43,2.43A2.43,2.43,0,0,0,605.84,22.92Z"/><g class="cls-17"><path class="cls-41" d="M601.22,28.06A6.21,6.21,0,1,1,595,34.27,6.21,6.21,0,0,1,601.22,28.06Zm0,11.1a4.89,4.89,0,1,0-4.89-4.89A4.9,4.9,0,0,0,601.22,39.16Z"/></g><path class="cls-5" d="M601.22,25.91A6.21,6.21,0,1,1,595,32.12,6.21,6.21,0,0,1,601.22,25.91Zm0,11.1a4.9,4.9,0,1,0-4.89-4.89A4.9,4.9,0,0,0,601.22,37Z"/><path class="cls-35" d="M601.91,95.69h0a3.35,3.35,0,0,0-2.55,4l6.08,27.74,0,.16a3.37,3.37,0,0,0,4,2.55h0a3.37,3.37,0,0,0,2.55-4l0-.15L605.9,98.24A3.36,3.36,0,0,0,601.91,95.69Z"/><rect class="cls-34" x="584.03" y="4.28" width="4.96" height="18.09" rx="2.48" ry="2.48" transform="translate(1010.66 -391.98) rotate(135)"/><rect class="cls-34" x="584.03" y="4.28" width="4.96" height="18.09" rx="2.48" ry="2.48" transform="translate(181.21 -410.82) rotate(45)"/><rect class="cls-34" x="621.47" y="31.69" width="3.4" height="12.39" rx="1.7" ry="1.7" transform="translate(1090.61 -375.98) rotate(135)"/><rect class="cls-34" x="621.47" y="31.69" width="3.4" height="12.39" rx="1.7" ry="1.7" transform="translate(209.31 -429.55) rotate(45)"/><rect class="cls-34" x="612.35" y="10.6" width="2.27" height="8.29" rx="1.14" ry="1.14" transform="translate(1057.72 -408.62) rotate(135)"/><rect class="cls-34" x="612.35" y="10.6" width="2.27" height="8.29" rx="1.14" ry="1.14" transform="translate(190.12 -429.48) rotate(45)"/><rect class="cls-34" x="591.49" y="35.61" width="4.81" height="17.54" rx="2.4" ry="2.4" transform="translate(1045.23 -344.18) rotate(135)"/><rect class="cls-34" x="591.49" y="35.61" width="4.81" height="17.54" rx="2.4" ry="2.4" transform="translate(205.33 -406.95) rotate(45)"/><path class="cls-35" d="M601.9,95.7h0A3.35,3.35,0,0,0,598.56,99V127.6a3.35,3.35,0,0,0,3.34,3.34h0a3.35,3.35,0,0,0,3.35-3.34V99A3.35,3.35,0,0,0,601.9,95.7Z"/><path class="cls-35" d="M601.9,124.13h0a3.35,3.35,0,0,0-3.34,3.35V156a3.35,3.35,0,0,0,3.34,3.35h0a3.36,3.36,0,0,0,3.35-3.35V127.48A3.36,3.36,0,0,0,601.9,124.13Z"/><path class="cls-34" d="M601.9,138.6h0a3.35,3.35,0,0,0-3.34,3.35v44.88a3.35,3.35,0,0,0,3.34,3.34h0a3.35,3.35,0,0,0,3.35-3.34V142A3.36,3.36,0,0,0,601.9,138.6Z"/><path class="cls-5" d="M601.9,149.11h0a3.36,3.36,0,0,1,3.35,3.35v-3.92a3.35,3.35,0,0,0-3.35-3.34h0a3.35,3.35,0,0,0-3.34,3.34v3.92A3.35,3.35,0,0,1,601.9,149.11Z"/><g class="cls-44"><rect class="cls-32" x="604.13" y="133.13" width="0.61" height="60.82" transform="translate(1208.87 327.09) rotate(-180)"/><rect class="cls-32" x="602.86" y="133.13" width="0.61" height="60.82" transform="translate(1206.34 327.09) rotate(-180)"/><rect class="cls-32" x="601.59" y="133.13" width="0.61" height="60.82" transform="translate(1203.8 327.09) rotate(-180)"/><rect class="cls-32" x="600.33" y="133.13" width="0.61" height="60.82" transform="translate(1201.27 327.09) rotate(-180)"/><rect class="cls-32" x="599.06" y="133.13" width="0.61" height="60.82" transform="translate(1198.73 327.09) rotate(-180)"/></g><path class="cls-25" d="M601.9,140.58h0a3.36,3.36,0,0,1,3.35,3.35V140a3.36,3.36,0,0,0-3.35-3.35h0a3.35,3.35,0,0,0-3.34,3.35v3.92A3.35,3.35,0,0,1,601.9,140.58Z"/><path class="cls-26" d="M601.9,149.11h0a3.36,3.36,0,0,1,3.35,3.35v-3.92a3.35,3.35,0,0,0-3.35-3.34h0a3.35,3.35,0,0,0-3.34,3.34v3.92A3.35,3.35,0,0,1,601.9,149.11Z"/><path class="cls-27" d="M601.9,179.75h0a3.35,3.35,0,0,0-3.34,3.35v3.73a3.35,3.35,0,0,0,3.34,3.34h0a3.35,3.35,0,0,0,3.35-3.34V183.1A3.36,3.36,0,0,0,601.9,179.75Z"/><path class="cls-15" d="M601.9,183.21h0a3.35,3.35,0,0,0-3.34,3.35v.27a3.35,3.35,0,0,0,3.34,3.34h0a3.35,3.35,0,0,0,3.35-3.34v-.27A3.36,3.36,0,0,0,601.9,183.21Z"/><path class="cls-35" d="M606.45,129.36h0a3.37,3.37,0,0,0,4.74,0l20.08-20.08.11-.11a3.36,3.36,0,0,0,0-4.73h0a3.37,3.37,0,0,0-4.74,0l-.11.11-20.08,20.08A3.36,3.36,0,0,0,606.45,129.36Z"/><path class="cls-34" d="M616.68,119.13h0a3.37,3.37,0,0,0,4.74,0L653,87.51l.11-.11a3.36,3.36,0,0,0,0-4.73h0a3.34,3.34,0,0,0-4.73,0l-.11.11L616.68,114.4A3.36,3.36,0,0,0,616.68,119.13Z"/><path class="cls-5" d="M624.12,111.7h0a3.36,3.36,0,0,1,0-4.73l-2.66,2.66-.11.11a3.36,3.36,0,0,0,0,4.73h0a3.36,3.36,0,0,0,4.73,0l.11-.11,2.66-2.66A3.36,3.36,0,0,1,624.12,111.7Z"/><g class="cls-45"><rect class="cls-32" x="632.22" y="69.29" width="0.61" height="60.82" transform="translate(255.76 -418.06) rotate(45)"/><rect class="cls-32" x="633.12" y="70.19" width="0.61" height="60.82" transform="translate(256.66 -418.43) rotate(45)"/><rect class="cls-32" x="634.01" y="71.09" width="0.61" height="60.82" transform="translate(257.56 -418.81) rotate(45)"/><rect class="cls-32" x="634.91" y="71.98" width="0.61" height="60.82" transform="translate(258.45 -419.18) rotate(45)"/><rect class="cls-32" x="635.81" y="72.88" width="0.61" height="60.82" transform="translate(259.35 -419.55) rotate(45)"/></g><path class="cls-25" d="M618.09,117.73h0a3.36,3.36,0,0,1,0-4.73l-2.66,2.66-.11.11a3.34,3.34,0,0,0,0,4.73h0a3.36,3.36,0,0,0,4.73,0l.11-.11,2.66-2.66A3.36,3.36,0,0,1,618.09,117.73Z"/><path class="cls-26" d="M624.12,111.7h0a3.36,3.36,0,0,1,0-4.73l-2.66,2.66-.11.11a3.36,3.36,0,0,0,0,4.73h0a3.36,3.36,0,0,0,4.73,0l.11-.11,2.66-2.66A3.36,3.36,0,0,1,624.12,111.7Z"/><path class="cls-27" d="M645.78,90h0a3.37,3.37,0,0,0,4.74,0L653,87.51l.11-.11a3.36,3.36,0,0,0,0-4.73h0a3.34,3.34,0,0,0-4.73,0l-.11.11-2.53,2.52A3.36,3.36,0,0,0,645.78,90Z"/><path class="cls-15" d="M648.23,87.59h0a3.36,3.36,0,0,0,4.73,0l.08-.08.11-.11a3.36,3.36,0,0,0,0-4.73h0a3.34,3.34,0,0,0-4.73,0l-.11.11-.08.08A3.36,3.36,0,0,0,648.23,87.59Z"/><path class="cls-15" d="M601.92,204.72a2.32,2.32,0,0,1-1.31-.47c-1.24-1-2.13-12.95-2.29-15.3a13.94,13.94,0,0,1-.05-2.59c0-1.54,1.68-2.78,3.73-2.76h.18c2,0,3.7,1.32,3.68,2.86a14.41,14.41,0,0,1-.09,2.59c-.19,2.35-1.26,14.29-2.52,15.23a2.21,2.21,0,0,1-1.31.43"/><path class="cls-15" d="M601.83,206.39a2.35,2.35,0,0,1-1.3-.46c-1.23-1-2.12-12.86-2.27-15.2a13.69,13.69,0,0,1,0-2.57c0-1.53,1.67-2.76,3.7-2.74h.18c2,0,3.67,1.32,3.65,2.85a12.86,12.86,0,0,1-.09,2.57c-.19,2.33-1.25,14.19-2.5,15.13a2.24,2.24,0,0,1-1.3.42"/><path class="cls-28" d="M601.85,206.39a2.24,2.24,0,0,0,1.3-.42c1.25-.94,2.31-12.8,2.5-15.13a12.86,12.86,0,0,0,.09-2.57c0-1.53-1.62-2.81-3.65-2.85h-.18c-2,0-3.7,1.21-3.7,2.74a13.69,13.69,0,0,0,0,2.57c.15,2.34,1,14.22,2.27,15.2a2.35,2.35,0,0,0,1.3.46Z"/><g class="cls-46"><polygon class="cls-18" points="607.32 206.51 608.14 206.52 608.3 185.42 607.48 185.41 607.32 206.51"/><polygon class="cls-18" points="605.64 206.48 606.46 206.49 606.61 185.4 605.8 185.38 605.64 206.48"/><polygon class="cls-18" points="603.96 206.46 604.77 206.47 604.93 185.37 604.11 185.36 603.96 206.46"/><polygon class="cls-18" points="602.27 206.43 603.09 206.44 603.25 185.35 602.43 185.34 602.27 206.43"/><polygon class="cls-18" points="600.59 206.41 601.4 206.42 601.56 185.32 600.75 185.31 600.59 206.41"/><polygon class="cls-18" points="598.9 206.38 599.72 206.39 599.88 185.3 599.07 185.28 598.9 206.38"/><polygon class="cls-18" points="597.22 206.36 598.04 206.37 598.2 185.27 597.38 185.26 597.22 206.36"/><polygon class="cls-18" points="595.54 206.33 596.36 206.34 596.51 185.25 595.7 185.23 595.54 206.33"/></g><path class="cls-15" d="M664.22,73a2.32,2.32,0,0,1,.54,1.28c.12,1.57-8.09,10.33-9.71,12a13.48,13.48,0,0,1-1.88,1.79c-1.13,1-3.18.65-4.55-.87l-.06-.07-.06-.07c-1.35-1.53-1.53-3.62-.38-4.65a14.14,14.14,0,0,1,2-1.69c1.85-1.44,11.37-8.74,12.91-8.45a2.26,2.26,0,0,1,1.2.67"/><path class="cls-15" d="M665.51,71.91a2.33,2.33,0,0,1,.54,1.26c.11,1.57-8,10.27-9.65,12a13,13,0,0,1-1.86,1.78c-1.13,1-3.16.64-4.52-.87L650,86l-.06-.07c-1.35-1.52-1.52-3.6-.38-4.62a14,14,0,0,1,2-1.68c1.84-1.43,11.29-8.68,12.82-8.4a2.36,2.36,0,0,1,1.19.68"/><path class="cls-28" d="M665.49,71.89a2.36,2.36,0,0,0-1.19-.68c-1.53-.28-11,7-12.82,8.4a14,14,0,0,0-2,1.68c-1.14,1-1,3.1.38,4.62L650,86,650,86c1.36,1.51,3.39,1.9,4.52.87a13,13,0,0,0,1.86-1.78c1.62-1.69,9.76-10.39,9.65-12a2.33,2.33,0,0,0-.54-1.26Z"/><g class="cls-47"><polygon class="cls-18" points="661.88 67.78 661.33 67.17 645.7 81.34 646.24 81.95 661.88 67.78"/><polygon class="cls-18" points="663 69.04 662.45 68.43 646.82 82.59 647.36 83.2 663 69.04"/><polygon class="cls-18" points="664.12 70.29 663.57 69.69 647.94 83.85 648.48 84.46 664.12 70.29"/><polygon class="cls-18" points="665.24 71.55 664.7 70.94 649.06 85.11 649.6 85.72 665.24 71.55"/><polygon class="cls-18" points="666.36 72.81 665.82 72.2 650.18 86.36 650.73 86.97 666.36 72.81"/><polygon class="cls-18" points="667.48 74.06 666.94 73.45 651.3 87.62 651.85 88.23 667.48 74.06"/><polygon class="cls-18" points="668.6 75.32 668.06 74.71 652.42 88.87 652.97 89.48 668.6 75.32"/><polygon class="cls-18" points="669.72 76.57 669.18 75.96 653.54 90.13 654.09 90.74 669.72 76.57"/></g><path class="cls-5" d="M207,97.39a27.21,27.21,0,0,1,54.42,0"/><ellipse class="cls-6" cx="234.2" cy="97.02" rx="27.21" ry="4.04"/><ellipse class="cls-7" cx="234.2" cy="97.02" rx="25.65" ry="2.88"/><circle class="cls-32" cx="259.02" cy="37.49" r="11.17"/><path class="cls-33" d="M270.2,37.49a11.18,11.18,0,1,1-22.35,0C247.85,31.32,270.2,31.32,270.2,37.49Z"/><ellipse class="cls-34" cx="259.02" cy="29.49" rx="5.7" ry="2.43"/><rect class="cls-35" x="231.54" y="56.29" width="33.85" height="7" rx="3.5" ry="3.5" transform="translate(407.03 260.2) rotate(-141.88)"/><rect class="cls-36" x="255.52" y="40.95" width="7" height="26.85" rx="3.31" ry="3.31"/><rect class="cls-35" x="255.52" y="43.22" width="7" height="26.85" rx="3.31" ry="3.31"/><circle class="cls-32" cx="216.64" cy="39.8" r="8.98"/><path class="cls-33" d="M207.66,39.8a9,9,0,0,0,18,0C225.62,34.84,207.66,34.84,207.66,39.8Z"/><ellipse class="cls-34" cx="216.64" cy="33.36" rx="4.58" ry="1.95"/><rect class="cls-35" x="211.52" y="54.91" width="27.21" height="5.63" rx="2.82" ry="2.82" transform="translate(12.37 151.27) rotate(-38.12)"/><rect class="cls-36" x="213.82" y="42.57" width="5.63" height="21.58" rx="2.66" ry="2.66"/><rect class="cls-35" x="213.82" y="44.4" width="5.63" height="21.58" rx="2.66" ry="2.66"/><path class="cls-38" d="M228.67,51.24c0,2.12-2.67,4-4.31,5.11h0a19.27,19.27,0,1,0,19.82.18v0c-1.8-1.06-4.26-3-4.26-5.28"/><path class="cls-14" d="M229.14,53c0,1.93-2.44,3.66-3.94,4.67h0a17.6,17.6,0,1,0,18.11.16h0c-1.64-1-3.89-2.79-3.89-4.83"/><path class="cls-15" d="M242.69,57.37h0a5.2,5.2,0,0,1-.59-8.55.18.18,0,0,1,.07-.05,4,4,0,0,1,.52-.36v-.07a13.17,13.17,0,1,0-16.88.22h0l.05,0,.47.36a5.21,5.21,0,0,1-.52,8.26h0a16.4,16.4,0,1,0,16.88.15Z"/><path class="cls-39" d="M222.25,37.14a10.49,10.49,0,1,1,21,0C243.23,42.93,222.25,42.93,222.25,37.14Z"/><path class="cls-35" d="M222.53,36.18a10.21,10.21,0,1,1,20.42,0C243,41.82,222.53,41.82,222.53,36.18Z"/><circle class="cls-48" cx="235.53" cy="31.88" r="1.13"/><circle class="cls-48" cx="225.21" cy="31.88" r="1.13"/><path class="cls-40" d="M217.21,82.14a19.26,19.26,0,0,0,33.68-18.7c-1.68-3,1.56,9.11-12.65,17C223.12,88.84,215.49,79.05,217.21,82.14Z"/><path class="cls-37" d="M216.9,80.26a17.22,17.22,0,0,0,34.44,0c0-3.11-2.74,7.8-17.27,7.8C218.62,88.06,216.9,77.1,216.9,80.26Z"/><path class="cls-41" d="M229.84,64.67a1.24,1.24,0,0,0,0,1.75l3.52,3.52a1.24,1.24,0,0,0,1.75,0l6.19-6.19.17-.15a3.73,3.73,0,0,0-5.28-5.27l0,0-.13.1Z"/><path class="cls-41" d="M233.18,63.63a.73.73,0,0,0-1,0l-2,2.05a.71.71,0,0,0,0,1l6,6,.08.09a2.16,2.16,0,0,0,3.06-3.06l0,0-.06-.07Z"/><path class="cls-41" d="M229.77,64a1.13,1.13,0,0,1,0,1.6l-3.22,3.22a1.13,1.13,0,0,1-1.6,0l-5.66-5.66-.15-.13A3.41,3.41,0,0,1,224,58.23l0,0,.12.1Z"/><path class="cls-41" d="M226.72,63.09a.64.64,0,0,1,.92,0L229.51,65a.67.67,0,0,1,0,.93l-5.46,5.47-.08.08a2,2,0,0,1-2.8-2.79l0,0,.06-.07Z"/><path class="cls-5" d="M229.83,61.29a1.13,1.13,0,0,0,0,1.58l3.2,3.2a1.13,1.13,0,0,0,1.58,0l5.61-5.61.14-.13a3.38,3.38,0,1,0-4.77-4.78l0,0-.12.1Z"/><path class="cls-5" d="M232.86,60.35a.66.66,0,0,0-.92,0l-1.85,1.85a.66.66,0,0,0,0,.92l5.41,5.41.08.09a2,2,0,0,0,2.77-2.77l0,0-.06-.06Z"/><path class="cls-42" d="M229.83,61.34a1,1,0,0,0,0,1.44l2.9,2.9a1,1,0,0,0,1.43,0l5.09-5.09.13-.12a3.06,3.06,0,0,0-4.33-4.33l0,0a.43.43,0,0,0-.1.09Z"/><path class="cls-42" d="M232.57,60.5a.59.59,0,0,0-.83,0l-1.68,1.67a.6.6,0,0,0,0,.84L235,67.92A.46.46,0,0,1,235,68a1.77,1.77,0,1,0,2.51-2.51h0a.1.1,0,0,0-.05-.06Z"/><path class="cls-5" d="M229.19,61.4a.92.92,0,0,1,0,1.29l-2.61,2.61a.92.92,0,0,1-1.3,0l-4.59-4.58-.12-.11a2.76,2.76,0,1,1,3.91-3.91l0,0,.09.08Z"/><path class="cls-5" d="M226.71,60.63a.53.53,0,0,1,.75,0L229,62.15a.54.54,0,0,1,0,.75l-4.43,4.43-.06.06a1.6,1.6,0,0,1-2.27-2.26l0,0,0,0Z"/><path class="cls-42" d="M229.19,61.44a.83.83,0,0,1,0,1.18L226.82,65a.83.83,0,0,1-1.17,0l-4.17-4.17-.1-.09a2.51,2.51,0,1,1,3.54-3.55l0,0,.08.07Z"/><path class="cls-42" d="M227,60.75a.48.48,0,0,1,.68,0L229,62.12a.48.48,0,0,1,0,.68l-4,4,0,.06a1.45,1.45,0,0,1-2.06-2l0,0,0,0Z"/><g class="cls-17"><path class="cls-41" d="M229.7,36.55a6.21,6.21,0,1,1-6.2,6.21A6.22,6.22,0,0,1,229.7,36.55Zm0,11.1a4.89,4.89,0,1,0-4.89-4.89A4.91,4.91,0,0,0,229.7,47.65Z"/></g><path class="cls-5" d="M225.55,34.4a6.21,6.21,0,1,1-6.2,6.21A6.21,6.21,0,0,1,225.55,34.4Zm0,11.1a4.9,4.9,0,1,0-4.89-4.89A4.91,4.91,0,0,0,225.55,45.5Z"/><path class="cls-35" d="M229.66,95.9h0a3.24,3.24,0,0,0-3.23,3.24v27.58a3.24,3.24,0,0,0,3.23,3.24h0a3.24,3.24,0,0,0,3.23-3.24V99.14A3.24,3.24,0,0,0,229.66,95.9Z"/><path class="cls-35" d="M229.66,123.38h0a3.23,3.23,0,0,0-3.23,3.23V154.2a3.23,3.23,0,0,0,3.23,3.23h0a3.23,3.23,0,0,0,3.23-3.23V126.61A3.23,3.23,0,0,0,229.66,123.38Z"/><path class="cls-34" d="M229.66,137.36h0a3.23,3.23,0,0,0-3.23,3.23V184a3.23,3.23,0,0,0,3.23,3.23h0a3.23,3.23,0,0,0,3.23-3.23V140.59A3.23,3.23,0,0,0,229.66,137.36Z"/><path class="cls-5" d="M229.66,147.51h0a3.24,3.24,0,0,1,3.23,3.24V147a3.23,3.23,0,0,0-3.23-3.23h0a3.23,3.23,0,0,0-3.23,3.23v3.79A3.24,3.24,0,0,1,229.66,147.51Z"/><g class="cls-49"><rect class="cls-32" x="231.81" y="132.07" width="0.59" height="58.76" transform="translate(464.22 322.91) rotate(-180)"/><rect class="cls-32" x="230.59" y="132.07" width="0.59" height="58.76" transform="translate(461.77 322.91) rotate(-180)"/><rect class="cls-32" x="229.36" y="132.07" width="0.59" height="58.76" transform="translate(459.32 322.91) rotate(-180)"/><rect class="cls-32" x="228.14" y="132.07" width="0.59" height="58.76" transform="translate(456.87 322.91) rotate(-180)"/><rect class="cls-32" x="226.91" y="132.07" width="0.59" height="58.76" transform="translate(454.42 322.91) rotate(-180)"/></g><path class="cls-25" d="M229.66,139.27h0a3.24,3.24,0,0,1,3.23,3.23v-3.78a3.23,3.23,0,0,0-3.23-3.23h0a3.23,3.23,0,0,0-3.23,3.23v3.78A3.24,3.24,0,0,1,229.66,139.27Z"/><path class="cls-26" d="M229.66,147.51h0a3.24,3.24,0,0,1,3.23,3.24V147a3.23,3.23,0,0,0-3.23-3.23h0a3.23,3.23,0,0,0-3.23,3.23v3.79A3.24,3.24,0,0,1,229.66,147.51Z"/><path class="cls-27" d="M229.66,177.12h0a3.23,3.23,0,0,0-3.23,3.23V184a3.23,3.23,0,0,0,3.23,3.23h0a3.23,3.23,0,0,0,3.23-3.23v-3.6A3.23,3.23,0,0,0,229.66,177.12Z"/><path class="cls-15" d="M229.66,180.46h0a3.23,3.23,0,0,0-3.23,3.23V184a3.23,3.23,0,0,0,3.23,3.23h0a3.23,3.23,0,0,0,3.23-3.23v-.26A3.23,3.23,0,0,0,229.66,180.46Z"/><path class="cls-35" d="M235.08,95.9h0a3.36,3.36,0,0,0-3.35,3.35V127.8a3.36,3.36,0,0,0,3.35,3.35h0a3.35,3.35,0,0,0,3.34-3.35V99.25A3.35,3.35,0,0,0,235.08,95.9Z"/><path class="cls-35" d="M235.08,124.34h0a3.36,3.36,0,0,0-3.35,3.35v28.55a3.36,3.36,0,0,0,3.35,3.35h0a3.35,3.35,0,0,0,3.34-3.35V127.69A3.35,3.35,0,0,0,235.08,124.34Z"/><path class="cls-34" d="M235.08,138.81h0a3.35,3.35,0,0,0-3.35,3.34V187a3.35,3.35,0,0,0,3.35,3.34h0a3.35,3.35,0,0,0,3.34-3.34V142.15A3.35,3.35,0,0,0,235.08,138.81Z"/><path class="cls-5" d="M235.08,149.32h0a3.35,3.35,0,0,1,3.34,3.35v-3.92a3.35,3.35,0,0,0-3.34-3.35h0a3.36,3.36,0,0,0-3.35,3.35v3.92A3.36,3.36,0,0,1,235.08,149.32Z"/><g class="cls-50"><rect class="cls-32" x="237.31" y="133.34" width="0.61" height="60.82" transform="translate(475.23 327.5) rotate(-180)"/><rect class="cls-32" x="236.04" y="133.34" width="0.61" height="60.82" transform="translate(472.69 327.5) rotate(-180)"/><rect class="cls-32" x="234.77" y="133.34" width="0.61" height="60.82" transform="translate(470.16 327.5) rotate(-180)"/><rect class="cls-32" x="233.5" y="133.34" width="0.61" height="60.82" transform="translate(467.62 327.5) rotate(-180)"/><rect class="cls-32" x="232.24" y="133.34" width="0.61" height="60.82" transform="translate(465.09 327.5) rotate(-180)"/></g><path class="cls-25" d="M235.08,140.79h0a3.35,3.35,0,0,1,3.34,3.35v-3.92a3.35,3.35,0,0,0-3.34-3.35h0a3.36,3.36,0,0,0-3.35,3.35v3.92A3.36,3.36,0,0,1,235.08,140.79Z"/><path class="cls-26" d="M235.08,149.32h0a3.35,3.35,0,0,1,3.34,3.35v-3.92a3.35,3.35,0,0,0-3.34-3.35h0a3.36,3.36,0,0,0-3.35,3.35v3.92A3.36,3.36,0,0,1,235.08,149.32Z"/><path class="cls-27" d="M235.08,180h0a3.36,3.36,0,0,0-3.35,3.35V187a3.35,3.35,0,0,0,3.35,3.34h0a3.35,3.35,0,0,0,3.34-3.34v-3.73A3.35,3.35,0,0,0,235.08,180Z"/><path class="cls-15" d="M235.08,183.42h0a3.36,3.36,0,0,0-3.35,3.35V187a3.35,3.35,0,0,0,3.35,3.34h0a3.35,3.35,0,0,0,3.34-3.34v-.27A3.35,3.35,0,0,0,235.08,183.42Z"/><path class="cls-15" d="M229.35,201.5A2.32,2.32,0,0,1,228,201c-1.24-1-2.13-12.95-2.29-15.3a12.86,12.86,0,0,1,0-2.59c0-1.54,1.67-2.78,3.72-2.76h.18c2,0,3.7,1.33,3.68,2.87a13,13,0,0,1-.09,2.59c-.19,2.35-1.26,14.29-2.52,15.23a2.21,2.21,0,0,1-1.31.43"/><path class="cls-15" d="M229.26,203.17a2.35,2.35,0,0,1-1.3-.46c-1.23-1-2.12-12.86-2.27-15.2a13.84,13.84,0,0,1-.05-2.58c0-1.52,1.67-2.76,3.7-2.73h.18c2,0,3.67,1.32,3.65,2.85a12.86,12.86,0,0,1-.09,2.57c-.18,2.33-1.25,14.19-2.5,15.13a2.22,2.22,0,0,1-1.3.42"/><path class="cls-28" d="M229.28,203.17a2.22,2.22,0,0,0,1.3-.42c1.25-.94,2.32-12.8,2.5-15.13a12.86,12.86,0,0,0,.09-2.57c0-1.53-1.62-2.81-3.65-2.85h-.18c-2,0-3.7,1.21-3.7,2.73a13.84,13.84,0,0,0,.05,2.58c.15,2.34,1,14.22,2.27,15.2a2.35,2.35,0,0,0,1.3.46Z"/><g class="cls-51"><polygon class="cls-18" points="234.75 203.29 235.57 203.3 235.73 182.2 234.91 182.19 234.75 203.29"/><polygon class="cls-18" points="233.07 203.26 233.88 203.27 234.04 182.18 233.23 182.16 233.07 203.26"/><polygon class="cls-18" points="231.39 203.24 232.2 203.25 232.36 182.15 231.54 182.14 231.39 203.24"/><polygon class="cls-18" points="229.7 203.21 230.52 203.22 230.68 182.13 229.86 182.11 229.7 203.21"/><polygon class="cls-18" points="228.02 203.19 228.84 203.2 229 182.1 228.18 182.09 228.02 203.19"/><polygon class="cls-18" points="226.34 203.16 227.15 203.17 227.31 182.07 226.5 182.06 226.34 203.16"/><polygon class="cls-18" points="224.65 203.14 225.47 203.15 225.63 182.05 224.81 182.04 224.65 203.14"/><polygon class="cls-18" points="222.97 203.11 223.79 203.12 223.94 182.03 223.13 182.01 222.97 203.11"/></g><path class="cls-15" d="M235.07,204.72a2.31,2.31,0,0,1-1.3-.47c-1.24-1-2.13-12.95-2.29-15.3a13.94,13.94,0,0,1,0-2.59c0-1.54,1.68-2.78,3.72-2.76h.18c2,0,3.7,1.32,3.69,2.86a14.41,14.41,0,0,1-.09,2.59c-.19,2.35-1.27,14.29-2.52,15.23a2.21,2.21,0,0,1-1.31.43"/><path class="cls-15" d="M235,206.39a2.32,2.32,0,0,1-1.29-.46c-1.23-1-2.12-12.86-2.27-15.2a12.43,12.43,0,0,1,0-2.57c0-1.53,1.67-2.76,3.69-2.74h.18c2,0,3.68,1.32,3.66,2.85a14.2,14.2,0,0,1-.09,2.57c-.19,2.33-1.25,14.19-2.5,15.13a2.26,2.26,0,0,1-1.3.42"/><path class="cls-28" d="M235,206.39a2.26,2.26,0,0,0,1.3-.42c1.25-.94,2.31-12.8,2.5-15.13a14.2,14.2,0,0,0,.09-2.57c0-1.53-1.63-2.81-3.66-2.85h-.18c-2,0-3.69,1.21-3.69,2.74a12.43,12.43,0,0,0,0,2.57c.15,2.34,1,14.22,2.27,15.2a2.32,2.32,0,0,0,1.29.46Z"/><g class="cls-52"><polygon class="cls-18" points="240.48 206.51 241.29 206.52 241.45 185.42 240.64 185.41 240.48 206.51"/><polygon class="cls-18" points="238.8 206.48 239.61 206.49 239.77 185.4 238.96 185.38 238.8 206.48"/><polygon class="cls-18" points="237.11 206.46 237.93 206.47 238.09 185.37 237.27 185.36 237.11 206.46"/><polygon class="cls-18" points="235.43 206.43 236.25 206.44 236.41 185.35 235.59 185.34 235.43 206.43"/><polygon class="cls-18" points="233.75 206.41 234.56 206.42 234.72 185.32 233.91 185.31 233.75 206.41"/><polygon class="cls-18" points="232.06 206.38 232.88 206.39 233.04 185.3 232.22 185.28 232.06 206.38"/><polygon class="cls-18" points="230.38 206.36 231.2 206.37 231.35 185.27 230.54 185.26 230.38 206.36"/><polygon class="cls-18" points="228.7 206.33 229.51 206.34 229.67 185.25 228.86 185.23 228.7 206.33"/></g><path class="cls-5" d="M388.46,101.4c-1.78-14.63,8.87-28,23.79-29.78s28.45,8.58,30.23,23.21"/><ellipse class="cls-6" cx="415.43" cy="97.82" rx="27.21" ry="4.04" transform="translate(-8.77 50.87) rotate(-6.93)"/><ellipse class="cls-7" cx="415.43" cy="97.82" rx="25.65" ry="2.88" transform="translate(-8.77 50.87) rotate(-6.93)"/><path class="cls-35" d="M420.62,97.37h0a3.35,3.35,0,0,0-2.92,3.72l3.41,28.19,0,.16a3.35,3.35,0,0,0,3.72,2.92h0a3.35,3.35,0,0,0,2.92-3.72l0-.16-3.41-28.19A3.35,3.35,0,0,0,420.62,97.37Z"/><path class="cls-35" d="M424,125.6h0a3.36,3.36,0,0,0-2.92,3.72l3.41,28.2,0,.15a3.35,3.35,0,0,0,3.72,2.92h0a3.35,3.35,0,0,0,2.92-3.72l0-.16-3.4-28.19A3.36,3.36,0,0,0,424,125.6Z"/><path class="cls-34" d="M425.77,140h0a3.36,3.36,0,0,0-2.92,3.73l5.37,44.4,0,.16a3.36,3.36,0,0,0,3.72,2.92h0a3.36,3.36,0,0,0,2.92-3.73l0-.15-5.37-44.41A3.36,3.36,0,0,0,425.77,140Z"/><path class="cls-5" d="M427,150.4h0a3.36,3.36,0,0,1,3.72,2.92l-.45-3.73,0-.16a3.35,3.35,0,0,0-3.72-2.92h0a3.35,3.35,0,0,0-2.92,3.72l0,.16.45,3.74A3.36,3.36,0,0,1,427,150.4Z"/><g class="cls-53"><rect class="cls-32" x="430.97" y="134.01" width="0.61" height="60.82" transform="translate(879.18 275.9) rotate(173.11)"/><rect class="cls-32" x="429.71" y="134.17" width="0.61" height="60.82" transform="translate(876.68 276.36) rotate(173.11)"/><rect class="cls-32" x="428.46" y="134.32" width="0.61" height="60.82" transform="translate(874.19 276.81) rotate(173.11)"/><rect class="cls-32" x="427.2" y="134.47" width="0.61" height="60.82" transform="translate(871.7 277.27) rotate(173.11)"/><rect class="cls-32" x="425.94" y="134.62" width="0.61" height="60.82" transform="translate(869.21 277.72) rotate(173.11)"/></g><path class="cls-25" d="M426,141.93h0a3.36,3.36,0,0,1,3.72,2.92l-.45-3.73,0-.16a3.36,3.36,0,0,0-3.72-2.92h0a3.36,3.36,0,0,0-2.92,3.73l0,.15.45,3.74A3.36,3.36,0,0,1,426,141.93Z"/><path class="cls-26" d="M427,150.4h0a3.36,3.36,0,0,1,3.72,2.92l-.45-3.73,0-.16a3.35,3.35,0,0,0-3.72-2.92h0a3.35,3.35,0,0,0-2.92,3.72l0,.16.45,3.74A3.36,3.36,0,0,1,427,150.4Z"/><path class="cls-27" d="M430.71,180.82h0a3.35,3.35,0,0,0-2.92,3.72l.43,3.55,0,.16a3.36,3.36,0,0,0,3.72,2.92h0a3.36,3.36,0,0,0,2.92-3.73l0-.15-.43-3.55A3.35,3.35,0,0,0,430.71,180.82Z"/><path class="cls-15" d="M431.12,184.25h0A3.37,3.37,0,0,0,428.2,188l0,.11,0,.16a3.36,3.36,0,0,0,3.72,2.92h0a3.36,3.36,0,0,0,2.92-3.73l0-.15v-.12A3.37,3.37,0,0,0,431.12,184.25Z"/><path class="cls-35" d="M410.55,96.53h0a3.35,3.35,0,0,0-2.92,3.72l3.4,28.19,0,.16a3.36,3.36,0,0,0,3.73,2.92h0a3.36,3.36,0,0,0,2.92-3.72l0-.16-3.41-28.19A3.35,3.35,0,0,0,410.55,96.53Z"/><path class="cls-35" d="M412.23,113.35h0a3.35,3.35,0,0,0-2.92,3.72l3.41,28.19,0,.16a3.35,3.35,0,0,0,3.72,2.92h0a3.35,3.35,0,0,0,2.92-3.72l0-.16L416,116.27A3.35,3.35,0,0,0,412.23,113.35Z"/><path class="cls-34" d="M414,127.71h0a3.36,3.36,0,0,0-2.92,3.73l5.36,44.4,0,.15a3.35,3.35,0,0,0,3.72,2.92h0a3.34,3.34,0,0,0,2.92-3.72V175l-5.37-44.4A3.36,3.36,0,0,0,414,127.71Z"/><path class="cls-5" d="M415.23,138.15h0a3.35,3.35,0,0,1,3.72,2.92l-.45-3.74,0-.15a3.35,3.35,0,0,0-3.72-2.92h0a3.35,3.35,0,0,0-2.92,3.72l0,.16.45,3.73A3.35,3.35,0,0,1,415.23,138.15Z"/><g class="cls-54"><rect class="cls-32" x="419.17" y="121.76" width="0.61" height="60.82" transform="translate(854.18 252.9) rotate(173.11)"/><rect class="cls-32" x="417.91" y="121.91" width="0.61" height="60.82" transform="translate(851.69 253.36) rotate(173.11)"/><rect class="cls-32" x="416.65" y="122.07" width="0.61" height="60.82" transform="translate(849.2 253.81) rotate(173.11)"/><rect class="cls-32" x="415.39" y="122.22" width="0.61" height="60.82" transform="translate(846.71 254.27) rotate(173.11)"/><rect class="cls-32" x="414.13" y="122.37" width="0.61" height="60.82" transform="translate(844.22 254.72) rotate(173.11)"/></g><path class="cls-25" d="M414.2,129.68h0a3.36,3.36,0,0,1,3.73,2.92l-.45-3.73,0-.16a3.36,3.36,0,0,0-3.73-2.92h0a3.36,3.36,0,0,0-2.92,3.72l0,.16.45,3.73A3.36,3.36,0,0,1,414.2,129.68Z"/><path class="cls-26" d="M415.23,138.15h0a3.35,3.35,0,0,1,3.72,2.92l-.45-3.74,0-.15a3.35,3.35,0,0,0-3.72-2.92h0a3.35,3.35,0,0,0-2.92,3.72l0,.16.45,3.73A3.35,3.35,0,0,1,415.23,138.15Z"/><path class="cls-27" d="M418.9,168.57h0a3.36,3.36,0,0,0-2.92,3.72l.43,3.55,0,.15a3.35,3.35,0,0,0,3.72,2.92h0a3.34,3.34,0,0,0,2.92-3.72V175l-.43-3.54A3.36,3.36,0,0,0,418.9,168.57Z"/><path class="cls-15" d="M419.32,172h0a3.36,3.36,0,0,0-2.92,3.73v.11l0,.15a3.35,3.35,0,0,0,3.72,2.92h0a3.34,3.34,0,0,0,2.92-3.72V175l0-.11A3.36,3.36,0,0,0,419.32,172Z"/><rect class="cls-35" x="414.11" y="43.5" width="30.92" height="6.4" rx="3.2" ry="3.2" transform="translate(813.77 -151.04) rotate(146.56)"/><circle class="cls-32" cx="424.16" cy="13.78" r="13.78"/><path class="cls-33" d="M435.65,6.17a13.78,13.78,0,0,1-23,15.23C408.47,15.06,431.44-.18,435.65,6.17Z"/><ellipse class="cls-34" cx="418.7" cy="5.55" rx="7.03" ry="3" transform="translate(66.68 232.32) rotate(-33.55)"/><rect class="cls-36" x="431.46" y="17.35" width="6.4" height="24.52" rx="3.03" ry="3.03" transform="translate(56.04 245.15) rotate(-33.55)"/><rect class="cls-35" x="432.61" y="19.08" width="6.4" height="24.52" rx="3.03" ry="3.03" transform="translate(55.28 246.07) rotate(-33.55)"/><circle class="cls-32" cx="394.68" cy="40.79" r="8.98"/><path class="cls-33" d="M385.7,40.79a9,9,0,0,0,18,0C403.67,35.83,385.7,35.83,385.7,40.79Z"/><ellipse class="cls-34" cx="394.68" cy="34.35" rx="4.58" ry="1.95"/><rect class="cls-35" x="389.57" y="55.9" width="27.21" height="5.63" rx="2.82" ry="2.82" transform="translate(49.73 261.38) rotate(-38.12)"/><rect class="cls-36" x="391.87" y="43.57" width="5.63" height="21.58" rx="2.66" ry="2.66"/><rect class="cls-35" x="391.87" y="45.39" width="5.63" height="21.58" rx="2.66" ry="2.66"/><path class="cls-38" d="M406.71,52.23c0,2.12-2.66,4-4.3,5.11h0a19.26,19.26,0,1,0,19.82.18v0c-1.8-1.06-4.27-3-4.27-5.28"/><path class="cls-14" d="M407.18,54c0,1.93-2.43,3.66-3.93,4.67h0a17.6,17.6,0,1,0,18.11.16h0c-1.64-1-3.9-2.79-3.9-4.83"/><path class="cls-15" d="M420.73,58.36h0a5.2,5.2,0,0,1-.58-8.55l.06,0a6,6,0,0,1,.52-.36v-.07a13.16,13.16,0,1,0-16.87.22h0l.05,0,.47.36a5.21,5.21,0,0,1-.52,8.26h0a16.4,16.4,0,1,0,16.87.15Z"/><path class="cls-39" d="M401.22,38.13a10.49,10.49,0,0,1,21,0C422.2,43.92,401.22,43.92,401.22,38.13Z"/><path class="cls-35" d="M401.5,37.17a10.21,10.21,0,0,1,20.42,0C421.92,42.81,401.5,42.81,401.5,37.17Z"/><path class="cls-40" d="M393.68,79.46a19.26,19.26,0,0,0,36.91-11c-1-3.33-.43,9.24-16,13.9C398,87.27,392.66,76.07,393.68,79.46Z"/><path class="cls-37" d="M394.94,81.25a17.23,17.23,0,0,0,34.45,0c0-3.11-2.74,7.8-17.27,7.8C396.66,89.05,394.94,78.09,394.94,81.25Z"/><path class="cls-41" d="M410.88,65.66a1.24,1.24,0,0,0,0,1.75l3.53,3.52a1.24,1.24,0,0,0,1.75,0l6.19-6.19s.11-.09.16-.15a3.73,3.73,0,1,0-5.28-5.27l0,0-.12.1Z"/><path class="cls-41" d="M414.22,64.63a.71.71,0,0,0-1,0l-2,2a.71.71,0,0,0,0,1l6,6,.09.09a2.16,2.16,0,0,0,3-3.06l0,0-.06-.07Z"/><path class="cls-41" d="M410.81,65a1.13,1.13,0,0,1,0,1.6l-3.22,3.22a1.13,1.13,0,0,1-1.6,0l-5.66-5.66-.15-.13A3.41,3.41,0,0,1,405,59.23l0,0a.52.52,0,0,1,.11.1Z"/><path class="cls-41" d="M407.76,64.08a.65.65,0,0,1,.93,0l1.86,1.86a.65.65,0,0,1,0,.93l-5.46,5.47-.08.08a2,2,0,1,1-2.79-2.79l0,0,.05-.07Z"/><path class="cls-5" d="M410.88,62.28a1.11,1.11,0,0,0,0,1.58l3.19,3.2a1.14,1.14,0,0,0,1.59,0l5.6-5.61.15-.13a3.38,3.38,0,0,0-4.78-4.78l0,0-.11.1Z"/><path class="cls-5" d="M413.9,61.35a.63.63,0,0,0-.91,0l-1.85,1.85a.63.63,0,0,0,0,.91l5.41,5.42.07.08a2,2,0,0,0,2.77-2.77l0,0-.05-.06Z"/><path class="cls-42" d="M410.87,62.33a1,1,0,0,0,0,1.44l2.9,2.9a1,1,0,0,0,1.44,0l5.08-5.09.13-.12a3.06,3.06,0,0,0-4.33-4.33l0,0-.1.09Z"/><path class="cls-42" d="M413.62,61.49a.59.59,0,0,0-.83,0l-1.68,1.67a.6.6,0,0,0,0,.84L416,68.91l.07.07a1.76,1.76,0,0,0,2.51,0,1.78,1.78,0,0,0,0-2.51h0l-.05-.06Z"/><path class="cls-5" d="M410.23,62.39a.91.91,0,0,1,0,1.29l-2.61,2.62a.94.94,0,0,1-1.3,0l-4.58-4.59a1.31,1.31,0,0,1-.12-.11,2.76,2.76,0,1,1,3.91-3.91s0,0,0,0l.09.08Z"/><path class="cls-5" d="M407.76,61.62a.54.54,0,0,1,.75,0L410,63.14a.53.53,0,0,1,0,.75l-4.43,4.43-.06.07a1.6,1.6,0,0,1-2.26-2.27h0l.05-.06Z"/><path class="cls-42" d="M410.24,62.43a.85.85,0,0,1,0,1.18L407.87,66a.85.85,0,0,1-1.18,0l-4.16-4.16-.11-.1A2.51,2.51,0,0,1,406,58.17l0,0a.27.27,0,0,1,.08.07Z"/><path class="cls-42" d="M408,61.74a.48.48,0,0,1,.68,0l1.38,1.37a.5.5,0,0,1,0,.68l-4,4-.06.06a1.45,1.45,0,0,1-2.05-2.05v0l0,0Z"/><g class="cls-17"><path class="cls-41" d="M409.09,37.54a6.21,6.21,0,1,1-6.21,6.21A6.21,6.21,0,0,1,409.09,37.54Zm0,11.1a4.89,4.89,0,1,0-4.89-4.89A4.9,4.9,0,0,0,409.09,48.64Z"/></g><path class="cls-5" d="M406.19,35.39A6.21,6.21,0,1,1,400,41.6,6.21,6.21,0,0,1,406.19,35.39Zm0,11.1a4.89,4.89,0,1,0-4.89-4.89A4.9,4.9,0,0,0,406.19,46.49Z"/><rect class="cls-48" x="415.52" y="32.39" width="3.45" height="1.07" rx="0.53" ry="0.53" transform="translate(8.09 121.07) rotate(-16.67)"/><rect class="cls-48" x="415.34" y="33.48" width="3.45" height="1.07" rx="0.53" ry="0.53" transform="translate(736.6 304.2) rotate(-144.45)"/><rect class="cls-48" x="406.17" y="30.83" width="3.45" height="1.07" rx="0.53" ry="0.53" transform="translate(721.5 294.06) rotate(-144.45)"/><rect class="cls-48" x="405.99" y="31.93" width="3.45" height="1.07" rx="0.53" ry="0.53" transform="translate(7.82 118.31) rotate(-16.67)"/><path class="cls-15" d="M434.43,204.71a2.3,2.3,0,0,1-1.37-.23c-1.39-.74-4.39-12.37-5-14.65a14.1,14.1,0,0,1-.51-2.55c-.26-1.51,1.17-3,3.18-3.37h.09l.09,0c2-.32,3.88.65,4.13,2.17a14,14,0,0,1,.37,2.57c.23,2.34,1.29,14.28.22,15.43a2.21,2.21,0,0,1-1.22.65"/><path class="cls-15" d="M434.64,206.37a2.26,2.26,0,0,1-1.36-.23c-1.38-.74-4.36-12.28-4.93-14.55a14,14,0,0,1-.5-2.53c-.27-1.5,1.15-3,3.15-3.34l.09,0h.09c2-.33,3.85.64,4.1,2.15a13.87,13.87,0,0,1,.37,2.55c.23,2.33,1.28,14.18.22,15.33a2.23,2.23,0,0,1-1.21.64"/><path class="cls-28" d="M434.66,206.36a2.23,2.23,0,0,0,1.21-.64c1.06-1.15,0-13-.22-15.33a13.87,13.87,0,0,0-.37-2.55c-.25-1.51-2.1-2.48-4.1-2.15h-.09l-.09,0c-2,.33-3.42,1.84-3.15,3.34a14,14,0,0,0,.5,2.53c.57,2.27,3.55,13.81,4.93,14.55a2.26,2.26,0,0,0,1.36.23Z"/><g class="cls-55"><polygon class="cls-18" points="440.07 205.51 440.87 205.38 437.29 184.59 436.49 184.72 440.07 205.51"/><polygon class="cls-18" points="438.41 205.78 439.21 205.65 435.63 184.86 434.83 184.99 438.41 205.78"/><polygon class="cls-18" points="436.75 206.06 437.55 205.93 433.97 185.13 433.17 185.27 436.75 206.06"/><polygon class="cls-18" points="435.08 206.33 435.89 206.2 432.31 185.41 431.5 185.54 435.08 206.33"/><polygon class="cls-18" points="433.42 206.6 434.23 206.47 430.65 185.68 429.84 185.81 433.42 206.6"/><polygon class="cls-18" points="431.76 206.88 432.57 206.75 428.99 185.95 428.18 186.09 431.76 206.88"/><polygon class="cls-18" points="430.1 207.15 430.91 207.02 427.33 186.23 426.52 186.36 430.1 207.15"/><polygon class="cls-18" points="428.44 207.43 429.25 207.29 425.67 186.5 424.86 186.63 428.44 207.43"/></g><path class="cls-15" d="M423,193.61a2.35,2.35,0,0,1-1.37-.22c-1.39-.75-4.39-12.37-5-14.66a14,14,0,0,1-.51-2.54c-.27-1.52,1.16-3,3.18-3.37l.09,0h.09c2-.33,3.87.65,4.13,2.17a13.93,13.93,0,0,1,.37,2.56c.23,2.35,1.28,14.29.22,15.44a2.34,2.34,0,0,1-1.22.65"/><path class="cls-15" d="M423.18,195.27a2.3,2.3,0,0,1-1.35-.22c-1.39-.74-4.36-12.28-4.93-14.55a12.9,12.9,0,0,1-.5-2.53c-.27-1.51,1.15-3,3.15-3.35h.09l.09,0c2-.32,3.85.65,4.1,2.16a13.6,13.6,0,0,1,.37,2.55c.22,2.32,1.28,14.18.22,15.32a2.35,2.35,0,0,1-1.21.65"/><path class="cls-28" d="M423.21,195.27a2.35,2.35,0,0,0,1.21-.65c1.06-1.14,0-13-.22-15.32a13.6,13.6,0,0,0-.37-2.55c-.25-1.51-2.1-2.48-4.1-2.16l-.09,0h-.09c-2,.34-3.42,1.84-3.15,3.35a12.9,12.9,0,0,0,.5,2.53c.57,2.27,3.54,13.81,4.93,14.55a2.3,2.3,0,0,0,1.35.22Z"/><g class="cls-56"><polygon class="cls-18" points="428.61 194.42 429.42 194.28 425.84 173.49 425.04 173.62 428.61 194.42"/><polygon class="cls-18" points="426.95 194.69 427.76 194.56 424.18 173.76 423.37 173.9 426.95 194.69"/><polygon class="cls-18" points="425.29 194.96 426.1 194.83 422.52 174.04 421.71 174.17 425.29 194.96"/><polygon class="cls-18" points="423.63 195.24 424.44 195.1 420.86 174.31 420.05 174.44 423.63 195.24"/><polygon class="cls-18" points="421.97 195.51 422.77 195.38 419.2 174.59 418.39 174.72 421.97 195.51"/><polygon class="cls-18" points="420.31 195.78 421.11 195.65 417.54 174.86 416.73 174.99 420.31 195.78"/><polygon class="cls-18" points="418.65 196.06 419.45 195.92 415.87 175.13 415.07 175.26 418.65 196.06"/><polygon class="cls-18" points="416.99 196.33 417.79 196.2 414.21 175.41 413.41 175.54 416.99 196.33"/></g></g></g></g></svg>