<svg xmlns="http://www.w3.org/2000/svg" viewBox="0 0 660.92 328.31"><defs><style>.cls-1{fill:#fff;}.cls-2{fill:#f0f;}.cls-3{fill:#63f5ff;}.cls-4{fill:red;}.cls-5{fill:#1b1464;}.cls-6{fill:#1b75bb;}.cls-7{fill:#00dbdb;}.cls-8{fill:#c1272d;}.cls-9{fill:#ed1e79;}.cls-10{fill:#fbb03b;}.cls-11{fill:#fcee21;}</style></defs><title>types_1</title><g id="Layer_2" data-name="Layer 2"><g id="Logos"><polygon class="cls-1" points="230.36 106.21 230.36 67.85 197.86 67.85 197.86 29.48 29.48 29.48 29.48 73.53 61.99 73.53 61.99 111.89 94.49 111.89 94.49 150.26 262.86 150.26 262.86 106.21 230.36 106.21"/><polygon class="cls-2" points="222.9 98.75 222.9 60.39 190.4 60.39 190.4 22.02 22.02 22.02 22.02 66.07 54.53 66.07 54.53 104.44 87.03 104.44 87.03 142.8 255.4 142.8 255.4 98.75 222.9 98.75"/><polygon class="cls-3" points="215.09 90.94 215.09 52.57 182.58 52.57 182.58 14.21 14.21 14.21 14.21 58.26 46.71 58.26 46.71 96.62 79.21 96.62 79.21 134.98 247.59 134.98 247.59 90.94 215.09 90.94"/><polygon class="cls-4" points="207.27 83.12 207.27 44.76 174.77 44.76 174.77 6.39 6.39 6.39 6.39 50.44 38.9 50.44 38.9 88.81 71.4 88.81 71.4 127.17 239.77 127.17 239.77 83.12 207.27 83.12"/><rect width="168.37" height="44.05"/><rect x="32.5" y="38.36" width="168.37" height="44.05"/><rect x="65.01" y="76.73" width="168.37" height="44.05"/><path class="cls-1" d="M15,13.47v4.06H32.13V37.8H6.38V29.69H23.53V25.64H6.38V5.37H32.13v8.1Z"/><path class="cls-1" d="M65.17,5.37V37.8H39.43V5.37H48V29.69h8.6V5.37Z"/><path class="cls-1" d="M98.22,5.37V29.69H81V37.8H72.47V5.37Zm-8.6,8.1H81v8.11h8.59Z"/><path class="cls-1" d="M113.34,13.47v4.06h17.15v8.11H113.34v4.05h17.15V37.8H104.74V5.37h25.75v8.1Z"/><path class="cls-1" d="M154.25,25.64h8.6V37.8h-8.6V29.69H145.7V37.8h-8.6V5.37h25.75V21.58h-8.6Zm0-4.06V13.47H145.7v8.11Z"/><path class="cls-1" d="M55.45,76.41H38.3V44H64.05V68.3h-8.6Zm0-8.11V52.09h-8.6V68.3Z"/><path class="cls-1" d="M96.93,44V76.41H71.18V44h8.56V68.3h8.59V44Z"/><path class="cls-1" d="M130,44V68.3H112.78v8.11h-8.55V44Zm-8.59,8.11h-8.6V60.2h8.6Z"/><path class="cls-1" d="M145.1,52.09v4h17.15v8.11H145.1v4h17.15v8.11H136.5V44h25.75v8.11Z"/><path class="cls-1" d="M186,64.25h8.59V76.41H186V68.3h-8.56v8.11h-8.6V44H194.6V60.2H186Zm0-4V52.09h-8.56V60.2Z"/><path class="cls-1" d="M97.06,82.59v24.33H79.87V115H71.31V82.59Zm-8.6,8.11H79.87v8.11h8.59Z"/><path class="cls-1" d="M129.33,82.59V115H103.59V82.59h8.55v24.33h8.6V82.59Z"/><path class="cls-1" d="M162.38,82.59V115h-8.6V90.7h-8.59V115h-8.56V82.59Z"/><path class="cls-1" d="M178.27,106.92h17.15V115H169.68V82.59h25.74V90.7H178.27Z"/><path class="cls-1" d="M226.84,82.59V115h-8.59V102.86h-8.6V115H201.1V82.59h8.55V94.75h8.6V82.59Z"/><path class="cls-1" d="M497.79,275.1v20.56h-6.23v5.87h6.23V322.1h-12.4V304.47H472.94V322.1H460.48v-47h12.46v17.62h12.45V275.1Z"/><path class="cls-1" d="M521,310.35V322.1H508.54V310.35Z"/><path class="cls-1" d="M568.88,275.1v47H531.57v-47Zm-12.46,11.75H544v23.5h12.45Z"/><path class="cls-1" d="M590.92,310.35V322.1H578.47V310.35Z"/><path class="cls-2" d="M495.37,272.67v20.56h-6.23v5.88h6.23v20.56H483V302.05H470.51v17.62H458.06v-47h12.45V290.3H483V272.67Z"/><path class="cls-2" d="M518.57,307.92v11.75H506.12V307.92Z"/><path class="cls-2" d="M566.45,272.67v47h-37.3v-47ZM554,284.42H541.54v23.5H554Z"/><path class="cls-2" d="M588.5,307.92v11.75H576V307.92Z"/><path class="cls-3" d="M493.08,269.62v20.56h-6.23v5.88h6.23v20.56h-12.4V299H468.23v17.62H455.77v-47h12.46v17.63h12.45V269.62Z"/><path class="cls-3" d="M516.29,304.87v11.75H503.83V304.87Z"/><path class="cls-3" d="M564.17,269.62v47H526.86v-47Zm-12.46,11.75H539.26v23.5h12.45Z"/><path class="cls-3" d="M586.21,304.87v11.75H573.76V304.87Z"/><path class="cls-4" d="M490.65,267.2v20.56h-6.22v5.87h6.22V314.2H478.26V296.57H465.8V314.2H453.35v-47H465.8v17.62h12.46V267.2Z"/><path class="cls-4" d="M513.86,302.45V314.2H501.4V302.45Z"/><path class="cls-4" d="M561.74,267.2v47h-37.3v-47ZM549.29,279H536.83v23.5h12.46Z"/><path d="M488.23,264.77v20.56H482v5.88h6.23v20.56h-12.4V294.15H463.38v17.62H450.92v-47h12.46V282.4h12.45V264.77Z"/><path d="M511.44,300v11.75H499V300Z"/><path class="cls-4" d="M583.79,302.45V314.2H571.33V302.45Z"/><path d="M581.36,300v11.75H568.91V300Z"/><path d="M559.32,264.77v47H522v-47Zm-12.46,11.75H534.41V300h12.45Z"/><path class="cls-1" d="M443.73,198v5.54h23.41v11.06H443.73v16.61H432V187h35.15V198Z"/><path class="cls-1" d="M486.67,187v44.28H474.94V187Z"/><path class="cls-1" d="M508.31,220.18H520V209.11h11.73v22.14H496.63V187h35.14V198H508.31Z"/><path class="cls-1" d="M575.82,187v44.28H564.09V214.64H552.36v16.61H540.68V187h11.68v16.61h11.73V187Z"/><path class="cls-1" d="M620.92,187V198H609.19v33.21H597.51V198H585.78V187Z"/><path class="cls-2" d="M441,195.27v5.54h23.41v11.07H441v16.6H429.23V184.21h35.14v11.06Z"/><path class="cls-2" d="M483.9,184.21v44.27H472.17V184.21Z"/><path class="cls-2" d="M505.54,217.41h11.73V206.34H529v22.14H493.86V184.21H529v11.06H505.54Z"/><path class="cls-2" d="M573.05,184.21v44.27H561.32v-16.6H549.59v16.6H537.91V184.21h11.68v16.6h11.73v-16.6Z"/><path class="cls-2" d="M618.15,184.21v11.06H606.42v33.21H594.75V195.27H583V184.21Z"/><path class="cls-3" d="M438.19,192.51V198H461.6v11.07H438.19v16.6H426.46V181.44H461.6v11.07Z"/><path class="cls-3" d="M481.13,181.44v44.27H469.4V181.44Z"/><path class="cls-3" d="M502.77,214.64H514.5V203.57h11.74v22.14H491.09V181.44h35.15v11.07H502.77Z"/><path class="cls-3" d="M570.28,181.44v44.27H558.55v-16.6H546.82v16.6H535.14V181.44h11.68V198h11.73v-16.6Z"/><path class="cls-3" d="M615.39,181.44v11.07H603.65v33.2H592v-33.2H580.25V181.44Z"/><path class="cls-4" d="M435.42,189.74v5.53h23.41v11.07H435.42v16.6H423.69V178.67h35.14v11.07Z"/><path class="cls-4" d="M478.37,178.67v44.27H466.63V178.67Z"/><path class="cls-4" d="M500,211.87h11.74V200.81h11.73v22.13H488.33V178.67h35.14v11.07H500Z"/><path class="cls-4" d="M567.52,178.67v44.27H555.78v-16.6H544.05v16.6H532.38V178.67h11.67v16.6h11.73v-16.6Z"/><path class="cls-4" d="M612.62,178.67v11.07H600.89v33.2H589.21v-33.2H577.48V178.67Z"/><path d="M432.65,187v5.53h23.41v11.07H432.65v16.6H420.92V175.9h35.14V187Z"/><path d="M475.6,175.9v44.27H463.86V175.9Z"/><path d="M497.23,209.11H509V198H520.7v22.13H485.56V175.9H520.7V187H497.23Z"/><path d="M564.75,175.9v44.27H553v-16.6H541.28v16.6H529.61V175.9h11.67v16.6H553V175.9Z"/><path d="M609.85,175.9V187H598.12v33.2H586.44V187H574.71V175.9Z"/><path class="cls-5" d="M412.66,118.15V96.59h11.43v21.56H412.66v21.57H401.23V118.15H389.8V96.59h11.43v21.56Z"/><path class="cls-5" d="M466.89,96.59v43.13H432.66V96.59Zm-11.43,10.78H444v21.56h11.42Z"/><path class="cls-5" d="M510.83,96.59v43.13H476.6V96.59H488v32.34H499.4V96.59Z"/><path class="cls-5" d="M595.8,96.59v43.13H550.19V96.59h11.43v32.34h5.71V107.37h11.38v21.56h5.71V96.59Z"/><path class="cls-5" d="M617,96.59v43.13H605.55V96.59Z"/><path class="cls-5" d="M660.92,96.59v43.13H649.49V107.37H638.06v32.35H626.69V96.59Z"/><path class="cls-6" d="M410.92,116.42V94.85h11.43v21.57H410.92V138H399.49V116.42H388.06V94.85h11.43v21.57Z"/><path class="cls-6" d="M465.16,94.85V138H430.92V94.85Zm-11.43,10.78H442.3V127.2h11.43Z"/><path class="cls-6" d="M509.1,94.85V138H474.86V94.85h11.38V127.2h11.43V94.85Z"/><path class="cls-6" d="M594.06,94.85V138H548.45V94.85h11.43V127.2h5.72V105.63H577V127.2h5.72V94.85Z"/><path class="cls-6" d="M615.25,94.85V138H603.82V94.85Z"/><path class="cls-6" d="M659.19,94.85V138H647.76V105.63H636.33V138H625V94.85Z"/><path class="cls-7" d="M408.54,114V92.47H420V114H408.54V135.6H397.11V114H385.68V92.47h11.43V114Z"/><path class="cls-7" d="M462.78,92.47V135.6H428.54V92.47Zm-11.43,10.78H439.92v21.57h11.43Z"/><path class="cls-7" d="M506.72,92.47V135.6H472.48V92.47h11.38v32.35h11.43V92.47Z"/><path class="cls-7" d="M591.68,92.47V135.6H546.07V92.47H557.5v32.35h5.71V103.25h11.38v21.57h5.71V92.47Z"/><path class="cls-7" d="M612.87,92.47V135.6H601.44V92.47Z"/><path class="cls-7" d="M656.81,92.47V135.6H645.38V103.25H634V135.6H622.57V92.47Z"/><path class="cls-4" d="M406.16,111.66V90.09h11.43v21.57H406.16v21.56H394.73V111.66H383.3V90.09h11.43v21.57Z"/><path class="cls-4" d="M460.4,90.09v43.13H426.16V90.09ZM449,100.87H437.54v21.57H449Z"/><path class="cls-4" d="M504.34,90.09v43.13H470.1V90.09h11.38v32.35h11.43V90.09Z"/><path class="cls-4" d="M589.3,90.09v43.13H543.69V90.09h11.43v32.35h5.71V100.87h11.38v21.57h5.71V90.09Z"/><path class="cls-4" d="M610.49,90.09v43.13H599.06V90.09Z"/><path class="cls-4" d="M654.43,90.09v43.13H643V100.87H631.57v32.35H620.19V90.09Z"/><path class="cls-1" d="M403.78,109.27V87.71h11.43v21.56H403.78v21.57H392.35V109.27H380.92V87.71h11.43v21.56Z"/><path class="cls-1" d="M458,87.71v43.13H423.78V87.71ZM446.59,98.49H435.16v21.57h11.43Z"/><path class="cls-1" d="M502,87.71v43.13H467.72V87.71H479.1v32.35h11.43V87.71Z"/><path class="cls-1" d="M586.92,87.71v43.13H541.31V87.71h11.43v32.35h5.71V98.49h11.38v21.57h5.71V87.71Z"/><path class="cls-1" d="M608.11,87.71v43.13H596.68V87.71Z"/><path class="cls-1" d="M652.05,87.71v43.13H640.62V98.49H629.19v32.35H617.81V87.71Z"/><path class="cls-8" d="M407.87,27.71V9.57h9.61V27.71h-9.61V45.85h-9.61V27.71h-9.62V9.57h9.62V27.71Z"/><path class="cls-8" d="M453.49,9.57V45.85H424.7V9.57Zm-9.61,9.07h-9.62V36.78h9.62Z"/><path class="cls-8" d="M490.45,9.57V45.85H461.66V9.57h9.56V36.78h9.62V9.57Z"/><path class="cls-8" d="M552.35,36.78v9.07H523.56V9.57h9.61V36.78Z"/><path class="cls-8" d="M587,9.57V45.85H558.2V9.57Zm-9.61,9.07h-9.62V36.78h9.62Z"/><path class="cls-8" d="M604.78,18.64v4.54H624V45.85h-28.8V36.78h19.19V32.25H595.16V9.57H624v9.07Z"/><path class="cls-8" d="M641.74,18.64v4.54h19.18v9.07H641.74v4.53h19.18v9.07h-28.8V9.57h28.8v9.07Z"/><path class="cls-9" d="M406.16,26V7.86h9.61V26h-9.61V44.14h-9.62V26h-9.61V7.86h9.61V26Z"/><path class="cls-9" d="M451.78,7.86V44.14H423V7.86Zm-9.61,9.07h-9.62V35.07h9.62Z"/><path class="cls-9" d="M488.74,7.86V44.14h-28.8V7.86h9.57V35.07h9.62V7.86Z"/><path class="cls-9" d="M550.64,35.07v9.07h-28.8V7.86h9.62V35.07Z"/><path class="cls-9" d="M585.29,7.86V44.14h-28.8V7.86Zm-9.61,9.07h-9.62V35.07h9.62Z"/><path class="cls-9" d="M603.07,16.93v4.54h19.18V44.14h-28.8V35.07h19.19V30.54H593.45V7.86h28.8v9.07Z"/><path class="cls-9" d="M640,16.93v4.54h19.18v9.07H640v4.53h19.18v9.07h-28.8V7.86h28.8v9.07Z"/><path class="cls-10" d="M404.16,24V5.86h9.61V24h-9.61V42.14h-9.62V24h-9.61V5.86h9.61V24Z"/><path class="cls-10" d="M449.78,5.86V42.14H421V5.86Zm-9.62,9.07h-9.61V33.07h9.61Z"/><path class="cls-10" d="M486.74,5.86V42.14h-28.8V5.86h9.57V33.07h9.61V5.86Z"/><path class="cls-10" d="M548.64,33.07v9.07h-28.8V5.86h9.62V33.07Z"/><path class="cls-10" d="M583.29,5.86V42.14h-28.8V5.86Zm-9.62,9.07h-9.61V33.07h9.61Z"/><path class="cls-10" d="M601.06,14.93v4.53h19.19V42.14h-28.8V33.07h19.18V28.53H591.45V5.86h28.8v9.07Z"/><path class="cls-10" d="M638,14.93v4.53h19.19v9.07H638v4.54h19.19v9.07h-28.8V5.86h28.8v9.07Z"/><path class="cls-11" d="M402.15,22V3.86h9.62V22h-9.62V40.14h-9.61V22h-9.62V3.86h9.62V22Z"/><path class="cls-11" d="M447.78,3.86V40.14H419V3.86Zm-9.62,9.07h-9.61V31.07h9.61Z"/><path class="cls-11" d="M484.74,3.86V40.14h-28.8V3.86h9.57V31.07h9.61V3.86Z"/><path class="cls-11" d="M546.64,31.07v9.07h-28.8V3.86h9.61V31.07Z"/><path class="cls-11" d="M581.28,3.86V40.14H552.49V3.86Zm-9.61,9.07h-9.61V31.07h9.61Z"/><path class="cls-11" d="M599.06,12.93v4.53h19.18V40.14H589.45V31.07h19.18V26.53H589.45V3.86h28.79v9.07Z"/><path class="cls-11" d="M636,12.93v4.53H655.2v9.07H636v4.54H655.2v9.07H626.41V3.86H655.2v9.07Z"/><path d="M400.15,20V1.85h9.61V20h-9.61V38.13h-9.61V20h-9.62V1.85h9.62V20Z"/><path d="M445.77,1.85V38.13H417V1.85Zm-9.61,9.07h-9.62V29.06h9.62Z"/><path d="M482.73,1.85V38.13H453.94V1.85h9.56V29.06h9.62V1.85Z"/><path d="M544.63,29.06v9.07H515.84V1.85h9.61V29.06Z"/><path d="M579.28,1.85V38.13h-28.8V1.85Zm-9.61,9.07h-9.62V29.06h9.62Z"/><path d="M597.06,10.92v4.54h19.18V38.13h-28.8V29.06h19.19V24.53H587.44V1.85h28.8v9.07Z"/><path d="M634,10.92v4.54H653.2v9.07H634v4.53H653.2v9.07H624.4V1.85h28.8v9.07Z"/><path class="cls-1" d="M59.81,231.19H76.4V215.54H93v31.3H43.3v-62.6H93v15.65H59.81Z"/><path class="cls-1" d="M155.28,184.24v62.6H138.69V231.19H122.1v15.65H105.58v-62.6Zm-16.59,15.65H122.1v15.65h16.59Z"/><path class="cls-1" d="M235.56,184.24v62.6H219.05v-47h-8.29v31.3H194.25v-31.3H186v47H169.36v-62.6Z"/><path class="cls-1" d="M266.32,199.89v7.82h33.1v15.65h-33.1v7.83h33.1v15.65H249.73v-62.6h49.69v15.65Z"/><path d="M54.17,225.55h16.6V209.9H87.35v31.3H37.66V178.6H87.35v15.65H54.17Z"/><path d="M149.64,178.6v62.6H133.05V225.55H116.46V241.2H100V178.6Zm-16.59,15.65H116.46V209.9h16.59Z"/><path d="M229.93,178.6v62.6H213.42V194.25h-8.3v31.3H188.61v-31.3h-8.29V241.2H163.73V178.6Z"/><path d="M260.68,194.25v7.83h33.1v15.65h-33.1v7.82h33.1V241.2H244.09V178.6h49.69v15.65Z"/><path class="cls-1" d="M96.8,261.39v66.92H43.68V261.39ZM79.07,278.12H61.34v33.46H79.07Z"/><path class="cls-1" d="M147.33,311.58V261.39h17.73v50.19H147.33v16.73H129.59V311.58H111.86V261.39h17.73v50.19Z"/><path class="cls-1" d="M197.43,278.12v8.36h35.39v16.73H197.43v8.37h35.39v16.73H179.7V261.39h53.12v16.73Z"/><path class="cls-1" d="M281.84,303.21h17.73v25.1H281.84V311.58H264.19v16.73H246.45V261.39h53.12v33.46H281.84Zm0-8.36V278.12H264.19v16.73Z"/><path d="M90.78,255.37v66.92H37.66V255.37ZM73.05,272.1H55.31v33.46H73.05Z"/><path d="M141.3,305.56V255.37H159v50.19H141.3v16.73H123.57V305.56H105.84V255.37h17.73v50.19Z"/><path d="M191.41,272.1v8.36H226.8v16.73H191.41v8.37H226.8v16.73H173.68V255.37H226.8V272.1Z"/><path d="M275.82,297.19h17.73v25.1H275.82V305.56H258.16v16.73H240.43V255.37h53.12v33.46H275.82Zm0-8.36V272.1H258.16v16.73Z"/></g></g></svg>