<svg xmlns="http://www.w3.org/2000/svg" viewBox="0 0 664.73 376.32"><defs><style>.cls-1{fill:#fff;}.cls-2{fill:#f0f;}.cls-3{fill:#63f5ff;}.cls-4{fill:red;}.cls-5{fill:none;stroke:#ff7bac;stroke-miterlimit:10;stroke-width:0.4px;}.cls-6{font-size:10px;fill:#666;font-family:ArialMT, Arial;}.cls-7{letter-spacing:-0.06em;}.cls-8{fill:#1b1464;}.cls-9{fill:#1b75bb;}.cls-10{fill:#00dbdb;}.cls-11{fill:#c1272d;}.cls-12{fill:#ed1e79;}.cls-13{fill:#fbb03b;}.cls-14{fill:#fcee21;}</style></defs><title>Asset 21</title><g id="Layer_2" data-name="Layer 2"><g id="Logos"><polygon class="cls-1" points="234.17 106.21 234.17 67.85 201.67 67.85 201.67 29.48 33.29 29.48 33.29 73.53 65.8 73.53 65.8 111.89 98.3 111.89 98.3 150.26 266.67 150.26 266.67 106.21 234.17 106.21"/><polygon class="cls-2" points="226.71 98.75 226.71 60.39 194.21 60.39 194.21 22.02 25.83 22.02 25.83 66.07 58.34 66.07 58.34 104.44 90.84 104.44 90.84 142.8 259.21 142.8 259.21 98.75 226.71 98.75"/><polygon class="cls-3" points="218.9 90.94 218.9 52.57 186.39 52.57 186.39 14.21 18.02 14.21 18.02 58.26 50.52 58.26 50.52 96.62 83.02 96.62 83.02 134.98 251.4 134.98 251.4 90.94 218.9 90.94"/><polygon class="cls-4" points="211.08 83.12 211.08 44.76 178.58 44.76 178.58 6.39 10.2 6.39 10.2 50.44 42.71 50.44 42.71 88.81 75.21 88.81 75.21 127.17 243.58 127.17 243.58 83.12 211.08 83.12"/><rect x="3.81" width="168.37" height="44.05"/><rect x="36.31" y="38.36" width="168.37" height="44.05"/><rect x="68.81" y="76.73" width="168.37" height="44.05"/><path class="cls-1" d="M18.79,13.47v4.06H35.94V37.8H10.19V29.69H27.34V25.64H10.19V5.37H35.94v8.1Z"/><path class="cls-1" d="M69,5.37V37.8H43.24V5.37h8.55V29.69h8.6V5.37Z"/><path class="cls-1" d="M102,5.37V29.69H84.83V37.8H76.28V5.37Zm-8.6,8.1h-8.6v8.11h8.6Z"/><path class="cls-1" d="M117.15,13.47v4.06H134.3v8.11H117.15v4.05H134.3V37.8H108.55V5.37H134.3v8.1Z"/><path class="cls-1" d="M158.06,25.64h8.6V37.8h-8.6V29.69H149.5V37.8h-8.59V5.37h25.75V21.58h-8.6Zm0-4.06V13.47H149.5v8.11Z"/><path class="cls-1" d="M59.26,76.41H42.11V44H67.85V68.3H59.26Zm0-8.11V52.09h-8.6V68.3Z"/><path class="cls-1" d="M100.74,44V76.41H75V44h8.56V68.3h8.59V44Z"/><path class="cls-1" d="M133.78,44V68.3H116.59v8.11H108V44Zm-8.59,8.11h-8.6V60.2h8.6Z"/><path class="cls-1" d="M148.91,52.09v4h17.15v8.11H148.91v4h17.15v8.11H140.31V44h25.75v8.11Z"/><path class="cls-1" d="M189.81,64.25h8.6V76.41h-8.6V68.3h-8.55v8.11h-8.6V44h25.75V60.2h-8.6Zm0-4V52.09h-8.55V60.2Z"/><path class="cls-1" d="M100.87,82.59v24.33H83.68V115H75.12V82.59Zm-8.6,8.11H83.68v8.11h8.59Z"/><path class="cls-1" d="M133.14,82.59V115H107.4V82.59H116v24.33h8.6V82.59Z"/><path class="cls-1" d="M166.19,82.59V115h-8.6V90.7H149V115h-8.56V82.59Z"/><path class="cls-1" d="M182.08,106.92h17.15V115H173.49V82.59h25.74V90.7H182.08Z"/><path class="cls-1" d="M230.65,82.59V115h-8.59V102.86h-8.6V115h-8.55V82.59h8.55V94.75h8.6V82.59Z"/><line class="cls-5" x1="657.27" y1="360.17" y2="360.17"/><text class="cls-6" transform="translate(17.77 373.07)"><tspan class="cls-7">T</tspan><tspan x="5.56" y="0">ypes</tspan></text><path class="cls-1" d="M501.6,275.1v20.56h-6.23v5.87h6.23V322.1H489.2V304.47H476.75V322.1H464.29v-47h12.46v17.62H489.2V275.1Z"/><path class="cls-1" d="M524.81,310.35V322.1H512.35V310.35Z"/><path class="cls-1" d="M572.69,275.1v47H535.38v-47Zm-12.46,11.75H547.78v23.5h12.45Z"/><path class="cls-1" d="M594.73,310.35V322.1H582.28V310.35Z"/><path class="cls-2" d="M499.17,272.67v20.56H493v5.88h6.22v20.56H486.78V302.05H474.32v17.62H461.87v-47h12.45V290.3h12.46V272.67Z"/><path class="cls-2" d="M522.38,307.92v11.75H509.93V307.92Z"/><path class="cls-2" d="M570.26,272.67v47H533v-47Zm-12.45,11.75H545.35v23.5h12.46Z"/><path class="cls-2" d="M592.31,307.92v11.75H579.85V307.92Z"/><path class="cls-3" d="M496.89,269.62v20.56h-6.23v5.88h6.23v20.56h-12.4V299H472v17.62H459.58v-47H472v17.63h12.45V269.62Z"/><path class="cls-3" d="M520.09,304.87v11.75H507.64V304.87Z"/><path class="cls-3" d="M568,269.62v47H530.67v-47Zm-12.46,11.75H543.07v23.5h12.45Z"/><path class="cls-3" d="M590,304.87v11.75H577.56V304.87Z"/><path class="cls-4" d="M494.46,267.2v20.56h-6.22v5.87h6.22V314.2H482.07V296.57H469.61V314.2H457.16v-47h12.45v17.62h12.46V267.2Z"/><path class="cls-4" d="M517.67,302.45V314.2H505.21V302.45Z"/><path class="cls-4" d="M565.55,267.2v47H528.24v-47ZM553.1,279H540.64v23.5H553.1Z"/><path d="M492,264.77v20.56h-6.23v5.88H492v20.56h-12.4V294.15H467.19v17.62H454.73v-47h12.46V282.4h12.45V264.77Z"/><path d="M515.24,300v11.75H502.79V300Z"/><path class="cls-4" d="M587.6,302.45V314.2H575.14V302.45Z"/><path d="M585.17,300v11.75H572.71V300Z"/><path d="M563.13,264.77v47H525.82v-47Zm-12.46,11.75H538.22V300h12.45Z"/><path class="cls-1" d="M447.54,198v5.54h23.4v11.06h-23.4v16.61H435.8V187h35.14V198Z"/><path class="cls-1" d="M490.48,187v44.28H478.75V187Z"/><path class="cls-1" d="M512.12,220.18h11.73V209.11h11.73v22.14H500.44V187h35.14V198H512.12Z"/><path class="cls-1" d="M579.63,187v44.28H567.9V214.64H556.17v16.61H544.49V187h11.68v16.61H567.9V187Z"/><path class="cls-1" d="M624.73,187V198H613v33.21H601.32V198H589.59V187Z"/><path class="cls-2" d="M444.77,195.27v5.54h23.41v11.07H444.77v16.6H433V184.21h35.14v11.06Z"/><path class="cls-2" d="M487.71,184.21v44.27H476V184.21Z"/><path class="cls-2" d="M509.35,217.41h11.73V206.34h11.73v22.14H497.67V184.21h35.14v11.06H509.35Z"/><path class="cls-2" d="M576.86,184.21v44.27H565.13v-16.6H553.4v16.6H541.72V184.21H553.4v16.6h11.73v-16.6Z"/><path class="cls-2" d="M622,184.21v11.06H610.23v33.21H598.55V195.27H586.82V184.21Z"/><path class="cls-3" d="M442,192.51V198h23.41v11.07H442v16.6H430.27V181.44h35.14v11.07Z"/><path class="cls-3" d="M484.94,181.44v44.27H473.21V181.44Z"/><path class="cls-3" d="M506.58,214.64h11.73V203.57H530v22.14H494.9V181.44H530v11.07H506.58Z"/><path class="cls-3" d="M574.09,181.44v44.27H562.36v-16.6H550.63v16.6H539V181.44h11.68V198h11.73v-16.6Z"/><path class="cls-3" d="M619.2,181.44v11.07H607.46v33.2H595.79v-33.2H584.05V181.44Z"/><path class="cls-4" d="M439.23,189.74v5.53h23.41v11.07H439.23v16.6H427.5V178.67h35.14v11.07Z"/><path class="cls-4" d="M482.17,178.67v44.27H470.44V178.67Z"/><path class="cls-4" d="M503.81,211.87h11.73V200.81h11.74v22.13H492.14V178.67h35.14v11.07H503.81Z"/><path class="cls-4" d="M571.33,178.67v44.27H559.59v-16.6H547.86v16.6H536.19V178.67h11.67v16.6h11.73v-16.6Z"/><path class="cls-4" d="M616.43,178.67v11.07H604.7v33.2H593v-33.2H581.29V178.67Z"/><path d="M436.46,187v5.53h23.41v11.07H436.46v16.6H424.73V175.9h35.14V187Z"/><path d="M479.41,175.9v44.27H467.67V175.9Z"/><path d="M501,209.11h11.74V198h11.73v22.13H489.37V175.9h35.14V187H501Z"/><path d="M568.56,175.9v44.27H556.83v-16.6H545.09v16.6H533.42V175.9h11.67v16.6h11.74V175.9Z"/><path d="M613.66,175.9V187H601.93v33.2H590.25V187H578.52V175.9Z"/><path class="cls-8" d="M416.47,118.15V96.59H427.9v21.56H416.47v21.57H405V118.15H393.61V96.59H405v21.56Z"/><path class="cls-8" d="M470.7,96.59v43.13H436.47V96.59Zm-11.43,10.78H447.84v21.56h11.43Z"/><path class="cls-8" d="M514.64,96.59v43.13H480.41V96.59h11.37v32.34h11.43V96.59Z"/><path class="cls-8" d="M599.61,96.59v43.13H554V96.59h11.43v32.34h5.72V107.37h11.37v21.56h5.72V96.59Z"/><path class="cls-8" d="M620.79,96.59v43.13H609.36V96.59Z"/><path class="cls-8" d="M664.73,96.59v43.13H653.3V107.37H641.87v32.35H630.5V96.59Z"/><path class="cls-9" d="M414.73,116.42V94.85h11.43v21.57H414.73V138H403.3V116.42H391.87V94.85H403.3v21.57Z"/><path class="cls-9" d="M469,94.85V138H434.73V94.85Zm-11.43,10.78H446.11V127.2h11.43Z"/><path class="cls-9" d="M512.91,94.85V138H478.67V94.85h11.38V127.2h11.43V94.85Z"/><path class="cls-9" d="M597.87,94.85V138H552.26V94.85h11.43V127.2h5.71V105.63h11.38V127.2h5.71V94.85Z"/><path class="cls-9" d="M619.06,94.85V138H607.63V94.85Z"/><path class="cls-9" d="M663,94.85V138H651.57V105.63H640.14V138H628.76V94.85Z"/><path class="cls-10" d="M412.35,114V92.47h11.43V114H412.35V135.6H400.92V114H389.49V92.47h11.43V114Z"/><path class="cls-10" d="M466.59,92.47V135.6H432.35V92.47Zm-11.43,10.78H443.73v21.57h11.43Z"/><path class="cls-10" d="M510.53,92.47V135.6H476.29V92.47h11.38v32.35H499.1V92.47Z"/><path class="cls-10" d="M595.49,92.47V135.6H549.88V92.47h11.43v32.35H567V103.25H578.4v21.57h5.71V92.47Z"/><path class="cls-10" d="M616.68,92.47V135.6H605.25V92.47Z"/><path class="cls-10" d="M660.62,92.47V135.6H649.19V103.25H637.76V135.6H626.38V92.47Z"/><path class="cls-4" d="M410,111.66V90.09H421.4v21.57H410v21.56H398.54V111.66H387.11V90.09h11.43v21.57Z"/><path class="cls-4" d="M464.21,90.09v43.13H430V90.09Zm-11.43,10.78H441.35v21.57h11.43Z"/><path class="cls-4" d="M508.14,90.09v43.13H473.91V90.09h11.38v32.35h11.43V90.09Z"/><path class="cls-4" d="M593.11,90.09v43.13H547.5V90.09h11.43v32.35h5.71V100.87H576v21.57h5.71V90.09Z"/><path class="cls-4" d="M614.3,90.09v43.13H602.87V90.09Z"/><path class="cls-4" d="M658.24,90.09v43.13H646.81V100.87H635.38v32.35H624V90.09Z"/><path class="cls-1" d="M407.59,109.27V87.71H419v21.56H407.59v21.57H396.16V109.27H384.73V87.71h11.43v21.56Z"/><path class="cls-1" d="M461.83,87.71v43.13H427.59V87.71ZM450.4,98.49H439v21.57H450.4Z"/><path class="cls-1" d="M505.76,87.71v43.13H471.53V87.71h11.38v32.35h11.42V87.71Z"/><path class="cls-1" d="M590.73,87.71v43.13H545.12V87.71h11.43v32.35h5.71V98.49h11.38v21.57h5.71V87.71Z"/><path class="cls-1" d="M611.92,87.71v43.13H600.49V87.71Z"/><path class="cls-1" d="M655.85,87.71v43.13H644.43V98.49H633v32.35H621.62V87.71Z"/><path class="cls-11" d="M411.68,27.71V9.57h9.61V27.71h-9.61V45.85h-9.61V27.71h-9.62V9.57h9.62V27.71Z"/><path class="cls-11" d="M457.3,9.57V45.85H428.5V9.57Zm-9.61,9.07h-9.62V36.78h9.62Z"/><path class="cls-11" d="M494.26,9.57V45.85h-28.8V9.57H475V36.78h9.62V9.57Z"/><path class="cls-11" d="M556.16,36.78v9.07H527.37V9.57H537V36.78Z"/><path class="cls-11" d="M590.81,9.57V45.85H562V9.57Zm-9.61,9.07h-9.62V36.78h9.62Z"/><path class="cls-11" d="M608.59,18.64v4.54h19.18V45.85H599V36.78h19.19V32.25H599V9.57h28.8v9.07Z"/><path class="cls-11" d="M645.55,18.64v4.54h19.18v9.07H645.55v4.53h19.18v9.07h-28.8V9.57h28.8v9.07Z"/><path class="cls-12" d="M410,26V7.86h9.61V26H410V44.14h-9.62V26h-9.61V7.86h9.61V26Z"/><path class="cls-12" d="M455.59,7.86V44.14h-28.8V7.86ZM446,16.93h-9.62V35.07H446Z"/><path class="cls-12" d="M492.55,7.86V44.14h-28.8V7.86h9.57V35.07h9.62V7.86Z"/><path class="cls-12" d="M554.45,35.07v9.07h-28.8V7.86h9.62V35.07Z"/><path class="cls-12" d="M589.1,7.86V44.14H560.3V7.86Zm-9.62,9.07h-9.61V35.07h9.61Z"/><path class="cls-12" d="M606.88,16.93v4.54h19.18V44.14h-28.8V35.07h19.18V30.54H597.26V7.86h28.8v9.07Z"/><path class="cls-12" d="M643.84,16.93v4.54H663v9.07H643.84v4.53H663v9.07h-28.8V7.86H663v9.07Z"/><path class="cls-13" d="M408,24V5.86h9.61V24H408V42.14h-9.62V24h-9.61V5.86h9.61V24Z"/><path class="cls-13" d="M453.59,5.86V42.14h-28.8V5.86ZM444,14.93h-9.61V33.07H444Z"/><path class="cls-13" d="M490.55,5.86V42.14h-28.8V5.86h9.57V33.07h9.61V5.86Z"/><path class="cls-13" d="M552.45,33.07v9.07h-28.8V5.86h9.62V33.07Z"/><path class="cls-13" d="M587.1,5.86V42.14H558.3V5.86Zm-9.62,9.07h-9.61V33.07h9.61Z"/><path class="cls-13" d="M604.87,14.93v4.53h19.19V42.14h-28.8V33.07h19.18V28.53H595.26V5.86h28.8v9.07Z"/><path class="cls-13" d="M641.83,14.93v4.53H661v9.07H641.83v4.54H661v9.07h-28.8V5.86H661v9.07Z"/><path class="cls-14" d="M406,22V3.86h9.62V22H406V40.14h-9.61V22h-9.62V3.86h9.62V22Z"/><path class="cls-14" d="M451.58,3.86V40.14H422.79V3.86ZM442,12.93h-9.61V31.07H442Z"/><path class="cls-14" d="M488.54,3.86V40.14H459.75V3.86h9.57V31.07h9.61V3.86Z"/><path class="cls-14" d="M550.45,31.07v9.07h-28.8V3.86h9.61V31.07Z"/><path class="cls-14" d="M585.09,3.86V40.14H556.3V3.86Zm-9.61,9.07h-9.61V31.07h9.61Z"/><path class="cls-14" d="M602.87,12.93v4.53h19.18V40.14H593.26V31.07h19.18V26.53H593.26V3.86h28.79v9.07Z"/><path class="cls-14" d="M639.83,12.93v4.53H659v9.07H639.83v4.54H659v9.07H630.22V3.86H659v9.07Z"/><path d="M404,20V1.85h9.61V20H404V38.13h-9.61V20h-9.62V1.85h9.62V20Z"/><path d="M449.58,1.85V38.13h-28.8V1.85ZM440,10.92h-9.62V29.06H440Z"/><path d="M486.54,1.85V38.13h-28.8V1.85h9.57V29.06h9.62V1.85Z"/><path d="M548.44,29.06v9.07H519.65V1.85h9.61V29.06Z"/><path d="M583.09,1.85V38.13h-28.8V1.85Zm-9.61,9.07h-9.62V29.06h9.62Z"/><path d="M600.87,10.92v4.54h19.18V38.13h-28.8V29.06h19.19V24.53H591.25V1.85h28.8v9.07Z"/><path d="M637.83,10.92v4.54H657v9.07H637.83v4.53H657v9.07h-28.8V1.85H657v9.07Z"/><path class="cls-1" d="M63.62,231.19H80.21V215.54H96.8v31.3H47.11v-62.6H96.8v15.65H63.62Z"/><path class="cls-1" d="M159.08,184.24v62.6H142.5V231.19H125.91v15.65H109.39v-62.6ZM142.5,199.89H125.91v15.65H142.5Z"/><path class="cls-1" d="M239.37,184.24v62.6H222.86v-47h-8.29v31.3H198.06v-31.3h-8.3v47H173.17v-62.6Z"/><path class="cls-1" d="M270.13,199.89v7.82h33.1v15.65h-33.1v7.83h33.1v15.65h-49.7v-62.6h49.7v15.65Z"/><path d="M58,225.55H74.57V209.9H91.16v31.3H41.47V178.6H91.16v15.65H58Z"/><path d="M153.45,178.6v62.6H136.86V225.55H120.27V241.2H103.76V178.6Zm-16.59,15.65H120.27V209.9h16.59Z"/><path d="M233.74,178.6v62.6H217.23V194.25h-8.3v31.3H192.42v-31.3h-8.29V241.2H167.54V178.6Z"/><path d="M264.49,194.25v7.83h33.1v15.65h-33.1v7.82h33.1V241.2H247.9V178.6h49.69v15.65Z"/><path class="cls-1" d="M100.61,261.39v66.92H47.49V261.39ZM82.88,278.12H65.14v33.46H82.88Z"/><path class="cls-1" d="M151.14,311.58V261.39h17.73v50.19H151.14v16.73H133.4V311.58H115.67V261.39H133.4v50.19Z"/><path class="cls-1" d="M201.24,278.12v8.36h35.39v16.73H201.24v8.37h35.39v16.73H183.51V261.39h53.12v16.73Z"/><path class="cls-1" d="M285.65,303.21h17.73v25.1H285.65V311.58H268v16.73H250.26V261.39h53.12v33.46H285.65Zm0-8.36V278.12H268v16.73Z"/><path d="M94.59,255.37v66.92H41.47V255.37ZM76.86,272.1H59.12v33.46H76.86Z"/><path d="M145.11,305.56V255.37h17.74v50.19H145.11v16.73H127.38V305.56H109.64V255.37h17.74v50.19Z"/><path d="M195.22,272.1v8.36H230.6v16.73H195.22v8.37H230.6v16.73H177.49V255.37H230.6V272.1Z"/><path d="M279.62,297.19h17.74v25.1H279.62V305.56H262v16.73H244.24V255.37h53.12v33.46H279.62Zm0-8.36V272.1H262v16.73Z"/></g></g></svg>