<svg xmlns="http://www.w3.org/2000/svg" viewBox="0 0 1427.392 324">
  <defs>
    <style>
      .cls-1 {
        fill: #231f20;
      }

      .cls-2 {
        fill-rule: evenodd;
      }

      .cls-3 {
        fill: #0e41e2;
      }

      .cls-4 {
        fill: #ed0f34;
      }

      .cls-5 {
        fill: #00bef9;
      }

      .cls-6 {
        fill: none;
      }

      .cls-7 {
        fill: #f743e6;
      }

      .cls-8 {
        fill: #d6d6d6;
      }

      .cls-9 {
        fill: #58db1b;
      }

      .cls-10 {
        fill: #060606;
      }

      .cls-11 {
        fill: #707070;
        font-size: 18px;
        font-family: Roboto-Regular, Roboto;
      }
    </style>
  </defs>
  <g id="Group_650" data-name="Group 650" transform="translate(-245 -1062)">
    <g id="Group_493" data-name="Group 493" transform="translate(833 1062)">
      <g id="Group_492" data-name="Group 492">
        <path id="Path_717" data-name="Path 717" class="cls-1" d="M237.639,237.639H0V0H237.639ZM34.161,203.478H203.478V34.161H34.161Z"/>
      </g>
      <path id="Path_718" data-name="Path 718" class="cls-1" d="M65.587,17.9V70.181H51.625V57.11H37.664v13.07H24V17.9ZM51.625,30.97H37.664V44.04H51.625Z" transform="translate(47.292 35.272)"/>
      <path id="Path_719" data-name="Path 719" class="cls-1" d="M83.684,17.9V70.181H69.723V57.11H55.761v13.07H41.8V17.9ZM69.723,30.97H55.761V44.04H69.723Z" transform="translate(82.366 35.272)"/>
      <path id="Path_720" data-name="Path 720" class="cls-1" d="M51.625,76.975H65.587v19.9H51.625V83.807H37.664v13.07H24V44.3H65.587V70.44H51.625Zm0-6.535V57.37H37.664V70.44Z" transform="translate(47.292 87.292)"/>
      <path id="Path_721" data-name="Path 721" class="cls-1" d="M69.823,90.342H83.487V50.835H69.823V44.3H41.9V96.878H70.12V90.342ZM55.861,83.51V57.37H69.823V83.51Z" transform="translate(82.563 87.292)"/>
    </g>
    <g id="Group_500" data-name="Group 500" transform="translate(1316.059 1069)">
      <g id="Group_494" data-name="Group 494" transform="translate(12.763 188.673)">
        <path id="Path_722" data-name="Path 722" class="cls-2" d="M104.282,75.194c-.792.264-1.319.792-2.111.792a124.694,124.694,0,0,1-13.986,1.056c-12.93.264-25.86.528-38.79.528-6.861,0-13.722,0-20.582-.264-7.389-.264-14.777-1.056-22.166-1.319H5.856c-.264-.264-.792-.528-1.056-.792.264-.264.792-.792,1.056-.792A78.3,78.3,0,0,1,17.2,72.556C27.23,72.028,37.257,71.5,47.284,71.5c10.291,0,20.582.264,31.138.264a161.178,161.178,0,0,1,22.694,1.847l3.167.792Q104.282,74.8,104.282,75.194Z" transform="translate(-4.8 -71.5)"/>
      </g>
      <g id="Group_495" data-name="Group 495" transform="translate(87.177 202.658)">
        <path id="Path_723" data-name="Path 723" class="cls-2" d="M139.343,80.494a10.862,10.862,0,0,1-2.111.792c-5.014.528-10.027,1.056-15.041,1.319-13.986.264-27.707.528-41.693.528-7.389,0-14.777,0-21.9-.264-7.916-.264-15.833-1.056-23.749-1.583h-.792A3.643,3.643,0,0,1,33,80.494c.264-.264.792-.792,1.056-.792,3.958-.528,8.18-1.583,12.138-1.847C57.013,77.328,67.568,76.8,78.387,76.8c11.083,0,22.166.264,33.249.264a184.426,184.426,0,0,1,24.277,2.111c1.056.264,2.375.528,3.43.792Z" transform="translate(-33 -76.8)"/>
      </g>
      <g id="Group_496" data-name="Group 496" transform="translate(183.229 213.687)">
        <path id="Path_724" data-name="Path 724" class="cls-2" d="M218.755,86.575a16.144,16.144,0,0,1-3.167,1.319c-6.861.792-13.986,1.583-20.846,1.847-19.527.528-38.79.792-58.317.792-10.291,0-20.583,0-30.874-.528-11.083-.528-22.166-1.319-33.512-2.111a1.586,1.586,0,0,1-1.056-.264A7,7,0,0,1,69.4,86.311a7,7,0,0,1,1.583-1.319c5.805-.792,11.347-2.111,17.152-2.375q22.562-1.187,45.123-1.583c15.569-.264,31.138.528,46.443.528,11.611,0,22.957,1.319,34.3,2.9a31.9,31.9,0,0,1,4.75,1.319Z" transform="translate(-69.4 -80.98)"/>
      </g>
      <g id="Group_499" data-name="Group 499" transform="translate(-0.059)">
        <g id="Group_497" data-name="Group 497">
          <path id="Path_725" data-name="Path 725" d="M327.834,91.038V29.818A29.957,29.957,0,0,0,298.016,0H292.21a29.957,29.957,0,0,0-29.818,29.818V78.372a5.014,5.014,0,0,1-10.027,0V29.818A30.359,30.359,0,0,0,222.283,0h-5.805a29.957,29.957,0,0,0-29.818,29.818V56.47c-6.861-3.694-14.249-3.958-22.694-1.056-7.916,2.9-13.458,9.5-16.1,13.194-1.847,2.639-3.694,5.541-5.278,8.18-1.056,1.583-1.847,3.167-2.9,4.75a45.9,45.9,0,0,1-2.9-4.75c-1.847-2.639-3.43-5.541-5.278-8.18-2.639-3.694-8.18-10.291-16.1-13.194-8.708-2.9-16.36-2.639-23.221,1.583A24.233,24.233,0,0,0,81.108,70.455a29.051,29.051,0,0,0-1.319,10.555,19.372,19.372,0,0,0-7.125-4.486l-2.375-.792a11,11,0,0,0-1.583-.528c-.528,0-1.319-.264-2.111-.264a14.324,14.324,0,0,0-4.75,0A4.491,4.491,0,0,0,60,75.205a3.751,3.751,0,0,0-1.583.528l-2.375.792c-4.75,1.847-7.916,5.014-10.555,7.916L9.6,119.8l-.528.528-1.583,1.583a23.322,23.322,0,0,0-6.069,8.972c-2.375,6.6-1.847,12.4,1.319,17.944a19.1,19.1,0,0,0,10.555,8.708c8.708,2.9,17.416.264,24.013-7.125l1.319-1.319a17.914,17.914,0,0,1,3.167-3.167,9.216,9.216,0,0,1,2.9,2.9c2.639,3.167,5.805,6.861,11.347,8.972l2.375.792a2.869,2.869,0,0,0,1.319.264,6.552,6.552,0,0,0,2.375.264c.792,0,1.583.264,2.111.264a9.9,9.9,0,0,0,2.639-.264,6.558,6.558,0,0,0,2.111-.264c.528,0,.792-.264,1.056-.264.792-.264,1.847-.528,2.639-.792a23.071,23.071,0,0,0,6.6-3.958,22.829,22.829,0,0,0,2.111,6.861c2.639,6.333,7.652,11.083,14.513,14.249a45.186,45.186,0,0,0,19.791,4.222c3.958,0,14.249,0,24.541.264,10.027,0,20.319,0,24.277-.264a49.244,49.244,0,0,0,19.791-4.222c1.056-.528,1.847-1.056,2.9-1.583A24.258,24.258,0,0,0,211.2,194.742h92.357a24.213,24.213,0,0,0,24.277-24.277v-3.694a39.406,39.406,0,0,0,0-75.733Zm-10.555,67.025v12.666a13.628,13.628,0,0,1-13.722,13.722H210.936a13.628,13.628,0,0,1-13.722-13.722V158.063h0a20.557,20.557,0,0,1-8.18-1.583c-1.847,4.222-5.278,6.861-9.236,8.708a36.1,36.1,0,0,1-15.569,3.43c-3.958,0-14.249,0-24.013.264h-.264c-10.027,0-20.055,0-24.013-.264a36.1,36.1,0,0,1-15.569-3.43c-4.222-1.847-7.389-4.486-9.236-8.972a18.467,18.467,0,0,1-.264-14.513,24.138,24.138,0,0,1,2.375-4.486c-4.222-3.167-10.291-4.486-17.416,4.486-1.847,2.375-3.958,4.75-6.861,5.805-.528.264-1.056.264-1.583.528a.921.921,0,0,0-.528.264h-4.75c-.264,0-.528,0-.528-.264A3.75,3.75,0,0,1,60,147.508c-2.9-1.056-4.75-3.43-6.861-5.805-11.875-14.777-20.582-1.583-23.221,1.319-3.43,3.694-7.916,5.805-12.93,4.222a8.194,8.194,0,0,1-4.75-3.958c-1.847-2.9-1.583-5.805-.528-9.236,1.056-2.639,3.43-4.75,5.541-7.125L52.081,92.093c2.375-2.375,4.75-5.278,7.652-6.333.528-.264,1.056-.264,1.583-.528.264,0,.528-.264.792-.264h4.75c.264,0,.528.264.792.264a3.75,3.75,0,0,1,1.583.528c2.9,1.056,5.541,3.958,7.652,6.333l32.985,32.985c1.319-.792,2.639-1.319,3.694-2.111,3.167-1.847,6.6-3.43,9.236-6.069,1.319-1.319,2.639-2.639,1.583-4.486a8.217,8.217,0,0,0-1.847-2.375,53.5,53.5,0,0,0-8.972-6.069c-5.278-3.167-11.347-5.805-15.833-10.027-6.069-5.541-9.236-12.666-6.6-20.582a14.319,14.319,0,0,1,6.333-7.916c4.75-2.9,9.5-2.639,14.513-.792,4.486,1.583,8.18,5.541,10.819,9.236,3.167,4.486,5.805,8.972,8.708,13.458a61.825,61.825,0,0,0,5.278,7.125,7.452,7.452,0,0,0,2.9,1.847,4.079,4.079,0,0,0,3.167-1.847,49.874,49.874,0,0,0,5.278-7.125c2.9-4.486,5.805-9.236,8.708-13.458,2.639-3.694,6.333-7.652,10.819-9.236,5.014-1.847,9.763-2.111,14.513.792a13.42,13.42,0,0,1,6.333,7.916c2.639,7.916-.528,15.041-6.6,20.582-4.486,4.222-10.555,6.861-15.833,10.027-3.167,1.847-6.333,3.43-8.972,6.069a14.5,14.5,0,0,0-1.847,2.375c-.792,1.847.264,3.43,1.583,4.486,2.639,2.375,6.069,4.222,9.236,6.069a19.681,19.681,0,0,1,3.167,1.847A29.1,29.1,0,0,1,196.95,99.746V29.818a19.776,19.776,0,0,1,19.527-19.263h5.805a19.371,19.371,0,0,1,19.263,19.263V78.636h0a15.718,15.718,0,0,0,15.569,15.3,15.544,15.544,0,0,0,15.569-15.3h0V29.818a19.371,19.371,0,0,1,19.263-19.263h5.805a19.371,19.371,0,0,1,19.263,19.263V100.01a29,29,0,0,1,28.5,29.027A28.607,28.607,0,0,1,317.279,158.063Z" transform="translate(0.059 0)"/>
        </g>
        <g id="Group_498" data-name="Group 498" transform="translate(139.484 96.843)">
          <path id="Path_726" data-name="Path 726" d="M53.328,36.7h0Z" transform="translate(-52.8 -36.7)"/>
        </g>
      </g>
    </g>
    <g id="Group_572" data-name="Group 572" transform="translate(275 1081)">
      <path id="Path_866" data-name="Path 866" class="cls-3" d="M170.276,67.035h0c-.936-13.422-2.653-27.312-5.618-36.988C160.912,18.186,154.357,10.382,143.9,5.7V82.954A29.939,29.939,0,0,1,170.276,67.035Zm0,60.087A29.916,29.916,0,0,1,143.9,111.359v77.1c10.3-4.838,16.543-12.486,20.757-24.347,3.121-8.74,4.838-23.1,5.618-36.988Z" transform="translate(80.684 3.196)"/>
      <path id="Path_867" data-name="Path 867" class="cls-4" d="M153.15,99.736a29.082,29.082,0,0,1,3.59-14.2V8.279c-1.873-.78-3.746-1.561-5.775-2.185C143.162,3.6,132.393,2.036,121,1.1V198.372c11.549-.936,22.318-2.5,29.965-4.994a31.9,31.9,0,0,0,5.775-2.341v-77.1A30.9,30.9,0,0,1,153.15,99.736Z" transform="translate(67.844 0.617)"/>
      <path id="Path_868" data-name="Path 868" class="cls-5" d="M58.867,100.3A47.688,47.688,0,0,1,87.9,56.441V.1C76.815.256,64.017.568,52,1.661V198.932c12.017,1.092,24.815,1.4,35.9,1.561V144.152A47.854,47.854,0,0,1,58.867,100.3Z" transform="translate(29.156 0.056)"/>
      <path id="Path_869" data-name="Path 869" class="cls-6" d="M92.948,0C87.954,0,81.711,0,75,.156V56.5a46.674,46.674,0,0,1,18.728-3.746A47.905,47.905,0,0,1,110.9,55.873V.156C104.029,0,97.942,0,92.948,0ZM75,144.208v56.341c6.711.156,12.954.156,17.948.156s11.081,0,17.948-.156V144.832a47.906,47.906,0,0,1-17.168,3.121A46.674,46.674,0,0,1,75,144.208Z" transform="translate(42.052)"/>
      <path id="Path_870" data-name="Path 870" class="cls-7" d="M98,.1V55.817a47.633,47.633,0,0,1,0,88.96v55.717c11.081-.156,23.879-.468,35.9-1.561V1.661C121.879.568,109.081.256,98,.1Z" transform="translate(54.948 0.056)"/>
      <path id="Path_871" data-name="Path 871" class="cls-8" d="M12.156,127.122h0c.936,13.578,2.5,27.624,5.618,36.988,3.9,11.861,10.3,19.665,20.757,24.347v-77.1A29.916,29.916,0,0,1,12.156,127.122Zm5.618-97.075C14.653,39.1,12.936,53.3,12,67.035h0A29.916,29.916,0,0,1,38.376,82.8V5.7C28.231,10.382,21.832,18.186,17.775,30.047Z" transform="translate(6.728 3.196)"/>
      <path id="Path_872" data-name="Path 872" class="cls-9" d="M34.875,6.094A49.558,49.558,0,0,0,29.1,8.279V85.534a29.891,29.891,0,0,1,0,28.4v77.254c1.873.78,3.746,1.561,5.775,2.185,7.8,2.5,18.572,4.058,29.965,4.994V1.1C53.447,2.036,42.678,3.6,34.875,6.094Z" transform="translate(16.316 0.617)"/>
      <path id="Path_873" data-name="Path 873" class="cls-10" d="M154.262,57.617A18.731,18.731,0,0,0,148.8,71.039h0a19.4,19.4,0,0,0,5.462,13.422h0a19.53,19.53,0,0,0,13.422,5.618h0A18.85,18.85,0,0,0,186.569,71.2h0a18.85,18.85,0,0,0-18.884-18.884h0a17.42,17.42,0,0,0-13.422,5.306Z" transform="translate(83.431 29.314)"/>
      <path id="Path_874" data-name="Path 874" class="cls-10" d="M76.54,53.9A29.836,29.836,0,0,0,67.8,75.121h0a29.836,29.836,0,0,0,8.74,21.225h0a29.836,29.836,0,0,0,21.225,8.74h0a29.836,29.836,0,0,0,21.225-8.74h0a29.836,29.836,0,0,0,8.74-21.225h0a29.836,29.836,0,0,0-8.74-21.225h0A29.973,29.973,0,0,0,97.765,45h0A29.973,29.973,0,0,0,76.54,53.9Z" transform="translate(38.015 25.231)"/>
      <path id="Path_875" data-name="Path 875" class="cls-10" d="M5.462,57.665A18.731,18.731,0,0,0,0,71.087H0A18.731,18.731,0,0,0,5.462,84.509h0a19.53,19.53,0,0,0,13.422,5.618h0a18.862,18.862,0,0,0,13.422-5.618h0a18.731,18.731,0,0,0,5.462-13.422h0a19.4,19.4,0,0,0-5.462-13.422h0A18.731,18.731,0,0,0,18.884,52.2h0A18.621,18.621,0,0,0,5.462,57.665Z" transform="translate(0 29.265)"/>
    </g>
    <text id="ShahreFarang_The_First_Iranian_Motion_Design_Resource" data-name="ShahreFarang
The First Iranian Motion Design Resource" class="cls-11" transform="translate(410 1361)"><tspan x="-55.38" y="0">ShahreFarang</tspan><tspan x="-164.452" y="21">The First Iranian Motion Design Resource</tspan></text>
    <text id="ATLANTA_AR_Augmented_Reality_Lab" data-name="ATLANTA AR
Augmented Reality Lab" class="cls-11" transform="translate(952 1361)"><tspan x="-52.295" y="0">ATLANTA AR</tspan><tspan x="-92.254" y="21">Augmented Reality Lab</tspan></text>
    <text id="MOSHAMA_Art_Toy_Boutique" data-name="MOSHAMA
Art Toy Boutique" class="cls-11" transform="translate(1494 1361)"><tspan x="-45.558" y="0">MOSHAMA</tspan><tspan x="-66.283" y="21">Art Toy Boutique</tspan></text>
  </g>
</svg>
