<svg xmlns="http://www.w3.org/2000/svg" viewBox="0 0 1464.523 382.255">
  <defs>
    <style>
      .cls-1, .cls-10, .cls-11, .cls-12, .cls-14, .cls-15, .cls-16, .cls-17, .cls-18, .cls-19, .cls-2, .cls-20, .cls-21, .cls-22, .cls-23, .cls-24, .cls-25, .cls-3, .cls-4, .cls-5, .cls-6, .cls-7, .cls-8, .cls-9 {
        fill: none;
        stroke-miterlimit: 10;
      }

      .cls-1, .cls-14 {
        stroke: #f15a29;
      }

      .cls-1, .cls-10, .cls-11, .cls-12, .cls-2, .cls-3, .cls-4, .cls-5, .cls-6, .cls-7, .cls-8, .cls-9 {
        stroke-width: 2.478px;
      }

      .cls-15, .cls-2 {
        stroke: #e0683a;
      }

      .cls-16, .cls-3 {
        stroke: #cf734c;
      }

      .cls-17, .cls-4 {
        stroke: #be7c5e;
      }

      .cls-18, .cls-5 {
        stroke: #ac846e;
      }

      .cls-19, .cls-6 {
        stroke: #988b7e;
      }

      .cls-20, .cls-7 {
        stroke: #82928e;
      }

      .cls-21, .cls-8 {
        stroke: #6798a0;
      }

      .cls-22, .cls-9 {
        stroke: #3e9eb2;
      }

      .cls-10, .cls-23 {
        stroke: #00a3c4;
      }

      .cls-11, .cls-24 {
        stroke: #00a7d7;
      }

      .cls-12, .cls-25 {
        stroke: #00aeef;
      }

      .cls-13 {
        fill: #58595b;
      }

      .cls-14, .cls-15, .cls-16, .cls-17, .cls-18, .cls-19, .cls-20, .cls-21, .cls-22, .cls-23, .cls-24, .cls-25 {
        stroke-width: 2.347px;
      }

      .cls-26 {
        fill: #707070;
        font-size: 18px;
        font-family: Roboto-Regular, Roboto;
      }
    </style>
  </defs>
  <g id="Group_653" data-name="Group 653" transform="translate(-213 -2645.745)">
    <g id="Group_599" data-name="Group 599" transform="translate(751 2697)">
      <g id="Group_595" data-name="Group 595" transform="translate(112.537 0)">
        <ellipse id="Ellipse_168" data-name="Ellipse 168" class="cls-1" cx="70.995" cy="125.997" rx="70.995" ry="125.997" transform="translate(0 110.531) rotate(-45)"/>
        <ellipse id="Ellipse_169" data-name="Ellipse 169" class="cls-2" cx="68.942" cy="122.323" rx="68.942" ry="122.323" transform="translate(9.064 106.671) rotate(-45)"/>
        <ellipse id="Ellipse_170" data-name="Ellipse 170" class="cls-3" cx="66.835" cy="118.649" rx="66.835" ry="118.649" transform="translate(18.204 102.812) rotate(-45)"/>
        <ellipse id="Ellipse_171" data-name="Ellipse 171" class="cls-4" cx="64.782" cy="114.921" rx="64.782" ry="114.921" transform="translate(27.344 98.953) rotate(-45)"/>
        <ellipse id="Ellipse_172" data-name="Ellipse 172" class="cls-5" cx="62.674" cy="111.247" rx="62.674" ry="111.247" transform="translate(36.485 95.094) rotate(-45)"/>
        <ellipse id="Ellipse_173" data-name="Ellipse 173" class="cls-6" cx="60.621" cy="107.573" rx="60.621" ry="107.573" transform="translate(45.548 91.235) rotate(-45)"/>
        <ellipse id="Ellipse_174" data-name="Ellipse 174" class="cls-7" cx="58.514" cy="103.845" rx="58.514" ry="103.845" transform="translate(54.727 87.338) rotate(-45)"/>
        <ellipse id="Ellipse_175" data-name="Ellipse 175" class="cls-8" cx="56.461" cy="100.171" rx="56.461" ry="100.171" transform="translate(63.829 83.517) rotate(-45)"/>
        <ellipse id="Ellipse_176" data-name="Ellipse 176" class="cls-9" cx="54.354" cy="96.497" rx="54.354" ry="96.497" transform="translate(72.931 79.619) rotate(-45)"/>
        <ellipse id="Ellipse_177" data-name="Ellipse 177" class="cls-10" cx="52.301" cy="92.769" rx="52.301" ry="92.769" transform="translate(82.11 75.798) rotate(-45)"/>
        <ellipse id="Ellipse_178" data-name="Ellipse 178" class="cls-11" cx="50.194" cy="89.095" rx="50.194" ry="89.095" transform="translate(91.212 71.901) rotate(-45)"/>
        <ellipse id="Ellipse_179" data-name="Ellipse 179" class="cls-12" cx="48.14" cy="85.367" rx="48.14" ry="85.367" transform="translate(100.314 68.08) rotate(-45)"/>
      </g>
      <g id="Group_598" data-name="Group 598" transform="translate(0 92.706)">
        <path id="Path_905" data-name="Path 905" class="cls-13" d="M66.3,170.065A13.886,13.886,0,1,1,52.411,183.95,13.881,13.881,0,0,1,66.3,170.065m0-12.265a26.1,26.1,0,1,0,26.1,26.1,26.079,26.079,0,0,0-26.1-26.1Z" transform="translate(-18.48 -140.835)"/>
        <path id="Path_906" data-name="Path 906" class="cls-13" d="M162.9,170.065a13.886,13.886,0,1,1-13.886,13.886A13.881,13.881,0,0,1,162.9,170.065m0-12.265a26.1,26.1,0,1,0,26.1,26.1,26.079,26.079,0,0,0-26.1-26.1Z" transform="translate(-62.887 -140.835)"/>
        <path id="Path_907" data-name="Path 907" class="cls-13" d="M259.5,170.065a13.886,13.886,0,1,1-13.886,13.886A13.881,13.881,0,0,1,259.5,170.065m0-12.265a26.1,26.1,0,1,0,26.1,26.1,26.079,26.079,0,0,0-26.1-26.1Z" transform="translate(-107.295 -140.835)"/>
        <path id="Path_908" data-name="Path 908" class="cls-13" d="M356.1,170.065a13.886,13.886,0,1,1-13.886,13.886A13.881,13.881,0,0,1,356.1,170.065m0-12.265a26.1,26.1,0,1,0,26.1,26.1,26.079,26.079,0,0,0-26.1-26.1Z" transform="translate(-151.702 -140.835)"/>
        <path id="Path_909" data-name="Path 909" class="cls-13" d="M52.365,174.621H40.1V142.905a6.134,6.134,0,0,1,6.105-6.105h0a6.134,6.134,0,0,1,6.105,6.105v31.715Z" transform="translate(-18.434 -131.181)"/>
        <path id="Path_910" data-name="Path 910" class="cls-13" d="M245.611,174.621H233.4V142.905a6.134,6.134,0,0,1,6.105-6.105h0a6.134,6.134,0,0,1,6.105,6.105Z" transform="translate(-107.295 -131.181)"/>
        <path id="Path_911" data-name="Path 911" class="cls-13" d="M342.211,174.621H330V142.905a6.134,6.134,0,0,1,6.105-6.105h0a6.134,6.134,0,0,1,6.105,6.105Z" transform="translate(-151.702 -131.181)"/>
        <path id="Path_912" data-name="Path 912" class="cls-13" d="M426.7,193.92V142.105A6.134,6.134,0,0,1,432.805,136h0a6.134,6.134,0,0,1,6.105,6.105V193.92a6.134,6.134,0,0,1-6.105,6.105h0A6.1,6.1,0,0,1,426.7,193.92Z" transform="translate(-196.156 -130.813)"/>
        <g id="Group_596" data-name="Group 596" transform="translate(242.58 24.583)">
          <path id="Path_913" data-name="Path 913" class="cls-13" d="M487.3,184.111H455.205a6.134,6.134,0,0,1-6.105-6.105h0a6.134,6.134,0,0,1,6.105-6.105H487.3a6.134,6.134,0,0,1,6.105,6.105h0A6.134,6.134,0,0,1,487.3,184.111Z" transform="translate(-449.032 -171.9)"/>
          <path id="Path_914" data-name="Path 914" class="cls-13" d="M450.717,205.939l32.256-32.256a6.131,6.131,0,0,1,8.645,0h0a6.131,6.131,0,0,1,0,8.645l-32.256,32.256a6.131,6.131,0,0,1-8.645,0h0A6.232,6.232,0,0,1,450.717,205.939Z" transform="translate(-448.975 -171.9)"/>
          <path id="Path_915" data-name="Path 915" class="cls-13" d="M489.36,244.065H454.727A5.765,5.765,0,0,1,449,238.338v-.81a5.765,5.765,0,0,1,5.727-5.727H489.36a5.765,5.765,0,0,1,5.727,5.727v.81A5.73,5.73,0,0,1,489.36,244.065Z" transform="translate(-448.986 -199.436)"/>
        </g>
        <ellipse id="Ellipse_180" data-name="Ellipse 180" class="cls-13" cx="8.429" cy="8.429" rx="8.429" ry="8.429" transform="translate(292.949 17.83)"/>
        <ellipse id="Ellipse_181" data-name="Ellipse 181" class="cls-13" cx="5.997" cy="5.997" rx="5.997" ry="5.997" transform="translate(279.874 5.295)"/>
        <ellipse id="Ellipse_182" data-name="Ellipse 182" class="cls-13" cx="3.512" cy="3.512" rx="3.512" ry="3.512" transform="translate(300.783)"/>
        <g id="Group_597" data-name="Group 597" transform="translate(0 6.646)">
          <path id="Path_916" data-name="Path 916" class="cls-13" d="M2.107,140l2.215,6.538,2.161-6.592a6.62,6.62,0,0,1,.27-.7,1.642,1.642,0,0,1,.27-.378.807.807,0,0,1,.54-.162,1.578,1.578,0,0,1,.486.108.917.917,0,0,1,.324.324.65.65,0,0,1,.108.432.685.685,0,0,1-.054.324.768.768,0,0,1-.108.324c-.054.108-.054.216-.108.324l-2.377,6.375c-.108.27-.162.486-.27.7a6.336,6.336,0,0,1-.27.594,1.644,1.644,0,0,1-.432.432,1.284,1.284,0,0,1-.648.162,1.152,1.152,0,0,1-.648-.162,1.106,1.106,0,0,1-.432-.432,2,2,0,0,1-.27-.594c-.108-.216-.162-.432-.27-.7L.27,140.591c-.054-.108-.054-.216-.108-.324a3.444,3.444,0,0,1-.108-.378.588.588,0,0,1-.054-.27.868.868,0,0,1,.27-.594,1.027,1.027,0,0,1,.7-.27.743.743,0,0,1,.7.324A5,5,0,0,1,2.107,140Z" transform="translate(0 -138.7)"/>
          <path id="Path_917" data-name="Path 917" class="cls-13" d="M21.1,144.565h-.7V147.7a1.431,1.431,0,0,1-.27.919.83.83,0,0,1-.7.27.981.981,0,0,1-.756-.324,1.175,1.175,0,0,1-.27-.919v-7.456a1.328,1.328,0,0,1,.27-.919,1.175,1.175,0,0,1,.919-.27h3.188a7.252,7.252,0,0,1,1.135.054,4.048,4.048,0,0,1,.864.216,2.138,2.138,0,0,1,.81.54,2.66,2.66,0,0,1,.54.81,2.924,2.924,0,0,1,.162,1.027,2.578,2.578,0,0,1-.594,1.729,3.479,3.479,0,0,1-1.837.919,4.491,4.491,0,0,1,1.027.81c.324.378.594.756.864,1.135a7.372,7.372,0,0,1,.594,1.081,1.629,1.629,0,0,1,.216.7,1,1,0,0,1-.108.378c-.054.108-.216.216-.324.324a.726.726,0,0,1-.486.108.807.807,0,0,1-.54-.162,1.262,1.262,0,0,1-.378-.378,5.7,5.7,0,0,1-.432-.7l-.81-1.3a5.154,5.154,0,0,0-.756-1.081,2.229,2.229,0,0,0-.7-.54A2.386,2.386,0,0,0,21.1,144.565Zm1.135-4.052H20.4v2.647h1.783a6.88,6.88,0,0,0,1.189-.108,1.477,1.477,0,0,0,.756-.432,1.327,1.327,0,0,0,.27-.81,1.086,1.086,0,0,0-.216-.7,1.321,1.321,0,0,0-.594-.486A6.562,6.562,0,0,0,22.236,140.513Z" transform="translate(-8.459 -138.838)"/>
        </g>
      </g>
    </g>
    <g id="Group_609" data-name="Group 609" transform="translate(1312 2647)">
      <g id="Group_605" data-name="Group 605" transform="translate(77.2 0)">
        <ellipse id="Ellipse_198" data-name="Ellipse 198" class="cls-1" cx="67.861" cy="120.432" rx="67.861" ry="120.432" transform="matrix(1, -0.013, 0.013, 1, 11.435, 1.802)"/>
        <ellipse id="Ellipse_199" data-name="Ellipse 199" class="cls-2" cx="72.562" cy="115.623" rx="72.562" ry="115.623" transform="matrix(1, -0.012, 0.012, 1, 14.013, 12.797)"/>
        <ellipse id="Ellipse_200" data-name="Ellipse 200" class="cls-3" cx="77.262" cy="110.815" rx="77.262" ry="110.815" transform="translate(16.95 23.485) rotate(-0.406)"/>
        <ellipse id="Ellipse_201" data-name="Ellipse 201" class="cls-4" cx="106.06" cy="81.963" rx="106.06" ry="81.963" transform="translate(19.452 245.524) rotate(-89.645)"/>
        <ellipse id="Ellipse_202" data-name="Ellipse 202" class="cls-5" cx="101.306" cy="86.664" rx="101.306" ry="86.664" transform="matrix(0.044, -0.999, 0.999, 0.044, 18.128, 243.595)"/>
        <ellipse id="Ellipse_203" data-name="Ellipse 203" class="cls-6" cx="96.875" cy="91.094" rx="96.875" ry="91.094" transform="translate(5.972 226.791) rotate(-77.251)"/>
        <ellipse id="Ellipse_204" data-name="Ellipse 204" class="cls-7" cx="96.875" cy="91.094" rx="96.875" ry="91.094" transform="matrix(0.932, -0.361, 0.361, 0.932, 0, 108.684)"/>
        <ellipse id="Ellipse_205" data-name="Ellipse 205" class="cls-8" cx="101.306" cy="86.664" rx="101.306" ry="86.664" transform="translate(14.415 98.95) rotate(-10.941)"/>
        <ellipse id="Ellipse_206" data-name="Ellipse 206" class="cls-9" cx="106.06" cy="81.963" rx="106.06" ry="81.963" transform="matrix(0.988, -0.153, 0.153, 0.988, 20.005, 106.244)"/>
        <ellipse id="Ellipse_207" data-name="Ellipse 207" class="cls-10" cx="110.815" cy="77.262" rx="110.815" ry="77.262" transform="matrix(0.99, -0.14, 0.14, 0.99, 23.911, 116.227)"/>
        <ellipse id="Ellipse_208" data-name="Ellipse 208" class="cls-11" cx="115.623" cy="72.562" rx="115.623" ry="72.562" transform="translate(27.16 127.15) rotate(-7.747)"/>
        <ellipse id="Ellipse_209" data-name="Ellipse 209" class="cls-12" cx="120.432" cy="67.861" rx="120.432" ry="67.861" transform="matrix(0.991, -0.134, 0.134, 0.991, 30.101, 138.458)"/>
      </g>
      <g id="Group_608" data-name="Group 608" transform="translate(0 144.123)">
        <path id="Path_931" data-name="Path 931" class="cls-13" d="M66.3,310.011A13.886,13.886,0,1,1,52.411,323.9,13.881,13.881,0,0,1,66.3,310.011m0-12.211a26.1,26.1,0,1,0,26.1,26.1,26.079,26.079,0,0,0-26.1-26.1Z" transform="translate(-18.48 -280.781)"/>
        <path id="Path_932" data-name="Path 932" class="cls-13" d="M162.9,310.011A13.886,13.886,0,1,1,149.011,323.9,13.881,13.881,0,0,1,162.9,310.011m0-12.211a26.1,26.1,0,1,0,26.1,26.1,26.079,26.079,0,0,0-26.1-26.1Z" transform="translate(-62.887 -280.781)"/>
        <path id="Path_933" data-name="Path 933" class="cls-13" d="M259.5,310.011A13.886,13.886,0,1,1,245.611,323.9,13.881,13.881,0,0,1,259.5,310.011m0-12.211a26.1,26.1,0,1,0,26.1,26.1,26.079,26.079,0,0,0-26.1-26.1Z" transform="translate(-107.295 -280.781)"/>
        <path id="Path_934" data-name="Path 934" class="cls-13" d="M356.1,310.011A13.886,13.886,0,1,1,342.211,323.9,13.881,13.881,0,0,1,356.1,310.011m0-12.211a26.1,26.1,0,1,0,26.1,26.1,26.079,26.079,0,0,0-26.1-26.1Z" transform="translate(-151.702 -280.781)"/>
        <path id="Path_935" data-name="Path 935" class="cls-13" d="M52.365,314.621H40.1V282.905a6.134,6.134,0,0,1,6.105-6.105h0a6.134,6.134,0,0,1,6.105,6.105v31.715Z" transform="translate(-18.434 -271.127)"/>
        <path id="Path_936" data-name="Path 936" class="cls-13" d="M245.611,314.621H233.4V282.905a6.134,6.134,0,0,1,6.105-6.105h0a6.134,6.134,0,0,1,6.105,6.105Z" transform="translate(-107.295 -271.127)"/>
        <path id="Path_937" data-name="Path 937" class="cls-13" d="M342.211,314.621H330V282.905a6.134,6.134,0,0,1,6.105-6.105h0a6.134,6.134,0,0,1,6.105,6.105Z" transform="translate(-151.702 -271.127)"/>
        <path id="Path_938" data-name="Path 938" class="cls-13" d="M426.7,333.92V282.105A6.134,6.134,0,0,1,432.805,276h0a6.134,6.134,0,0,1,6.105,6.105V333.92a6.134,6.134,0,0,1-6.105,6.105h0A6.1,6.1,0,0,1,426.7,333.92Z" transform="translate(-196.156 -270.759)"/>
        <g id="Group_606" data-name="Group 606" transform="translate(242.58 24.583)">
          <path id="Path_939" data-name="Path 939" class="cls-13" d="M487.3,324.111H455.205a6.134,6.134,0,0,1-6.105-6.105h0a6.134,6.134,0,0,1,6.105-6.105H487.3a6.134,6.134,0,0,1,6.105,6.105h0A6.134,6.134,0,0,1,487.3,324.111Z" transform="translate(-449.032 -311.846)"/>
          <path id="Path_940" data-name="Path 940" class="cls-13" d="M450.717,345.839l32.256-32.256a6.131,6.131,0,0,1,8.645,0h0a6.131,6.131,0,0,1,0,8.645l-32.256,32.256a6.131,6.131,0,0,1-8.645,0h0A6.232,6.232,0,0,1,450.717,345.839Z" transform="translate(-448.975 -311.8)"/>
          <path id="Path_941" data-name="Path 941" class="cls-13" d="M489.36,384.065H454.727A5.765,5.765,0,0,1,449,378.338v-.81a5.765,5.765,0,0,1,5.727-5.727H489.36a5.765,5.765,0,0,1,5.727,5.727v.81A5.765,5.765,0,0,1,489.36,384.065Z" transform="translate(-448.986 -339.382)"/>
        </g>
        <ellipse id="Ellipse_210" data-name="Ellipse 210" class="cls-13" cx="8.429" cy="8.429" rx="8.429" ry="8.429" transform="translate(292.949 17.884)"/>
        <ellipse id="Ellipse_211" data-name="Ellipse 211" class="cls-13" cx="5.997" cy="5.997" rx="5.997" ry="5.997" transform="translate(279.874 5.349)"/>
        <ellipse id="Ellipse_212" data-name="Ellipse 212" class="cls-13" cx="3.512" cy="3.512" rx="3.512" ry="3.512" transform="translate(300.783)"/>
        <g id="Group_607" data-name="Group 607" transform="translate(0 6.7)">
          <path id="Path_942" data-name="Path 942" class="cls-13" d="M2.107,280l2.215,6.484,2.161-6.538a6.614,6.614,0,0,1,.27-.7,1.642,1.642,0,0,1,.27-.378.807.807,0,0,1,.54-.162,1.578,1.578,0,0,1,.486.108.917.917,0,0,1,.324.324.65.65,0,0,1,.108.432.685.685,0,0,1-.054.324.768.768,0,0,1-.108.324c-.054.108-.054.216-.108.324l-2.377,6.375c-.108.27-.162.486-.27.7a6.341,6.341,0,0,1-.27.594,1.645,1.645,0,0,1-.432.432,1.283,1.283,0,0,1-.648.162,1.152,1.152,0,0,1-.648-.162,1.106,1.106,0,0,1-.432-.432,2,2,0,0,1-.27-.594c-.108-.216-.162-.432-.27-.7L.27,280.591c-.054-.108-.054-.216-.108-.324a3.444,3.444,0,0,1-.108-.378A.8.8,0,0,1,0,279.564a.868.868,0,0,1,.27-.594,1.027,1.027,0,0,1,.7-.27.743.743,0,0,1,.7.324A4.375,4.375,0,0,1,2.107,280Z" transform="translate(0 -278.7)"/>
          <path id="Path_943" data-name="Path 943" class="cls-13" d="M21.1,284.565h-.7V287.7a1.431,1.431,0,0,1-.27.919.83.83,0,0,1-.7.27.981.981,0,0,1-.756-.324,1.431,1.431,0,0,1-.27-.919v-7.456a1.328,1.328,0,0,1,.27-.919,1.175,1.175,0,0,1,.919-.27h3.188a7.25,7.25,0,0,1,1.135.054,4.046,4.046,0,0,1,.864.216,2.137,2.137,0,0,1,.81.54,2.66,2.66,0,0,1,.54.81,2.924,2.924,0,0,1,.162,1.027,2.578,2.578,0,0,1-.594,1.729,3.48,3.48,0,0,1-1.837.919,4.49,4.49,0,0,1,1.027.81c.324.378.594.756.864,1.135a11.808,11.808,0,0,1,.594,1.081,1.628,1.628,0,0,1,.216.7,1,1,0,0,1-.108.378l-.324.324a.727.727,0,0,1-.486.108.807.807,0,0,1-.54-.162,1.263,1.263,0,0,1-.378-.378,5.7,5.7,0,0,1-.432-.7l-.81-1.3a5.154,5.154,0,0,0-.756-1.081,2.229,2.229,0,0,0-.7-.54A4.286,4.286,0,0,0,21.1,284.565Zm1.135-4.106H20.4v2.647h1.783A6.878,6.878,0,0,0,23.371,283a1.477,1.477,0,0,0,.756-.432,1.327,1.327,0,0,0,.27-.81,1.086,1.086,0,0,0-.216-.7,1.321,1.321,0,0,0-.594-.486A6.56,6.56,0,0,0,22.236,280.459Z" transform="translate(-8.459 -278.838)"/>
        </g>
      </g>
    </g>
    <g id="Group_614" data-name="Group 614" transform="translate(213 2681)">
      <g id="Group_610" data-name="Group 610" transform="translate(122.86 0)">
        <ellipse id="Ellipse_213" data-name="Ellipse 213" class="cls-14" cx="64.241" cy="114.057" rx="64.241" ry="114.057" transform="matrix(0.743, -0.669, 0.669, 0.743, 0, 99.239)"/>
        <ellipse id="Ellipse_214" data-name="Ellipse 214" class="cls-15" cx="68.726" cy="109.464" rx="68.726" ry="109.464" transform="translate(1.885 104.305) rotate(-41.92)"/>
        <ellipse id="Ellipse_215" data-name="Ellipse 215" class="cls-16" cx="73.156" cy="104.926" rx="73.156" ry="104.926" transform="matrix(0.747, -0.664, 0.664, 0.747, 3.885, 108.858)"/>
        <ellipse id="Ellipse_216" data-name="Ellipse 216" class="cls-17" cx="77.641" cy="100.441" rx="77.641" ry="100.441" transform="matrix(0.756, -0.654, 0.654, 0.756, 5.873, 112.38)"/>
        <ellipse id="Ellipse_217" data-name="Ellipse 217" class="cls-18" cx="82.071" cy="95.957" rx="82.071" ry="95.957" transform="translate(8.376 112.855) rotate(-38.728)"/>
        <ellipse id="Ellipse_218" data-name="Ellipse 218" class="cls-19" cx="86.285" cy="91.688" rx="86.285" ry="91.688" transform="translate(14.922 95.746) rotate(-28.482)"/>
        <ellipse id="Ellipse_219" data-name="Ellipse 219" class="cls-20" cx="91.688" cy="86.285" rx="91.688" ry="86.285" transform="translate(17.675 175.335) rotate(-62.42)"/>
        <ellipse id="Ellipse_220" data-name="Ellipse 220" class="cls-21" cx="95.957" cy="82.071" rx="95.957" ry="82.071" transform="matrix(0.613, -0.79, 0.79, 0.613, 14.979, 158.34)"/>
        <ellipse id="Ellipse_221" data-name="Ellipse 221" class="cls-22" cx="100.441" cy="77.641" rx="100.441" ry="77.641" transform="matrix(0.642, -0.766, 0.766, 0.642, 16.715, 158.772)"/>
        <ellipse id="Ellipse_222" data-name="Ellipse 222" class="cls-23" cx="104.926" cy="73.156" rx="104.926" ry="73.156" transform="translate(18.96 162.289) rotate(-49.262)"/>
        <ellipse id="Ellipse_223" data-name="Ellipse 223" class="cls-24" cx="109.464" cy="68.726" rx="109.464" ry="68.726" transform="translate(21.203 166.831) rotate(-48.982)"/>
        <ellipse id="Ellipse_224" data-name="Ellipse 224" class="cls-25" cx="114.057" cy="64.241" rx="114.057" ry="64.241" transform="matrix(0.657, -0.754, 0.754, 0.657, 23.64, 171.929)"/>
      </g>
      <g id="Group_613" data-name="Group 613" transform="translate(0 110.382)">
        <path id="Path_944" data-name="Path 944" class="cls-13" d="M62.746,186.862a13.129,13.129,0,1,1-13.129,13.129,13.143,13.143,0,0,1,13.129-13.129m0-11.562a24.719,24.719,0,1,0,24.746,24.692A24.7,24.7,0,0,0,62.746,175.3Z" transform="translate(-17.469 -159.199)"/>
        <path id="Path_945" data-name="Path 945" class="cls-13" d="M154.246,186.862a13.129,13.129,0,1,1-13.129,13.129,13.143,13.143,0,0,1,13.129-13.129m0-11.562a24.746,24.746,0,1,0,24.746,24.746A24.742,24.742,0,0,0,154.246,175.3Z" transform="translate(-59.532 -159.199)"/>
        <path id="Path_946" data-name="Path 946" class="cls-13" d="M245.646,186.862a13.129,13.129,0,1,1-13.129,13.129,13.143,13.143,0,0,1,13.129-13.129m0-11.562a24.746,24.746,0,1,0,24.746,24.746A24.742,24.742,0,0,0,245.646,175.3Z" transform="translate(-101.549 -159.199)"/>
        <path id="Path_947" data-name="Path 947" class="cls-13" d="M337.146,186.862a13.129,13.129,0,1,1-13.129,13.129,13.143,13.143,0,0,1,13.129-13.129m0-11.562a24.746,24.746,0,1,0,24.746,24.746A24.742,24.742,0,0,0,337.146,175.3Z" transform="translate(-143.611 -159.199)"/>
        <path id="Path_948" data-name="Path 948" class="cls-13" d="M49.562,191.122H38v-30.04a5.788,5.788,0,0,1,5.781-5.781h0a5.788,5.788,0,0,1,5.781,5.781Z" transform="translate(-17.469 -150.005)"/>
        <path id="Path_949" data-name="Path 949" class="cls-13" d="M232.562,191.122H221v-30.04a5.788,5.788,0,0,1,5.781-5.781h0a5.788,5.788,0,0,1,5.781,5.781Z" transform="translate(-101.594 -150.005)"/>
        <path id="Path_950" data-name="Path 950" class="cls-13" d="M324.062,191.122H312.5v-30.04a5.788,5.788,0,0,1,5.781-5.781h0a5.788,5.788,0,0,1,5.781,5.781v30.04Z" transform="translate(-143.657 -150.005)"/>
        <path id="Path_951" data-name="Path 951" class="cls-13" d="M404,209.44V160.381a5.788,5.788,0,0,1,5.781-5.781h0a5.788,5.788,0,0,1,5.781,5.781V209.44a5.788,5.788,0,0,1-5.781,5.781h0A5.788,5.788,0,0,1,404,209.44Z" transform="translate(-185.72 -149.683)"/>
        <g id="Group_611" data-name="Group 611" transform="translate(229.694 23.26)">
          <path id="Path_952" data-name="Path 952" class="cls-13" d="M461.4,200.162H430.981a5.788,5.788,0,0,1-5.781-5.781h0a5.788,5.788,0,0,1,5.781-5.781H461.4a5.788,5.788,0,0,1,5.781,5.781h0A5.788,5.788,0,0,1,461.4,200.162Z" transform="translate(-425.159 -188.573)"/>
          <path id="Path_953" data-name="Path 953" class="cls-13" d="M426.786,220.779l30.527-30.527a5.74,5.74,0,0,1,8.158,0h0a5.739,5.739,0,0,1,0,8.158l-30.527,30.527a5.739,5.739,0,0,1-8.158,0h0A5.838,5.838,0,0,1,426.786,220.779Z" transform="translate(-425.125 -188.55)"/>
          <path id="Path_954" data-name="Path 954" class="cls-13" d="M463.4,256.962H430.6a5.419,5.419,0,0,1-5.4-5.4V250.8a5.419,5.419,0,0,1,5.4-5.4h32.8a5.419,5.419,0,0,1,5.4,5.4v.756A5.419,5.419,0,0,1,463.4,256.962Z" transform="translate(-425.159 -214.684)"/>
        </g>
        <ellipse id="Ellipse_225" data-name="Ellipse 225" class="cls-13" cx="7.996" cy="7.996" rx="7.996" ry="7.996" transform="translate(277.388 16.857)"/>
        <ellipse id="Ellipse_226" data-name="Ellipse 226" class="cls-13" cx="5.673" cy="5.673" rx="5.673" ry="5.673" transform="translate(265.015 5.025)"/>
        <ellipse id="Ellipse_227" data-name="Ellipse 227" class="cls-13" cx="3.296" cy="3.296" rx="3.296" ry="3.296" transform="translate(284.844)"/>
        <g id="Group_612" data-name="Group 612" transform="translate(0 6.267)">
          <path id="Path_955" data-name="Path 955" class="cls-13" d="M2,158.343,4.106,164.5l2.107-6.213c.108-.324.216-.54.27-.7s.162-.216.27-.324a.807.807,0,0,1,.54-.162,1.018,1.018,0,0,1,.432.108c.162.054.216.162.324.324a.583.583,0,0,1,.108.378.685.685,0,0,1-.054.324.768.768,0,0,1-.108.324c-.054.108-.054.216-.108.324l-2.215,6c-.054.216-.162.432-.216.648a1.69,1.69,0,0,1-.27.54,1.457,1.457,0,0,1-.432.378,1.152,1.152,0,0,1-.648.162,1.152,1.152,0,0,1-.648-.162,1.457,1.457,0,0,1-.432-.378,1.69,1.69,0,0,1-.27-.54c-.054-.216-.162-.432-.216-.648L.324,158.937c-.054-.108-.054-.216-.108-.324s-.054-.216-.108-.324A.768.768,0,0,1,0,157.964a.868.868,0,0,1,.27-.594.9.9,0,0,1,.648-.27.737.737,0,0,1,.648.27A6.044,6.044,0,0,1,2,158.343Z" transform="translate(0 -157.1)"/>
          <path id="Path_956" data-name="Path 956" class="cls-13" d="M20.039,162.741h-.648v2.972a1.269,1.269,0,0,1-.27.864.9.9,0,0,1-.648.27.933.933,0,0,1-.7-.27,1.375,1.375,0,0,1-.27-.864v-7.078a1.269,1.269,0,0,1,.27-.864,1.269,1.269,0,0,1,.864-.27H21.66a6.548,6.548,0,0,1,1.081.054,3.555,3.555,0,0,1,.81.216,1.792,1.792,0,0,1,.756.54,2.035,2.035,0,0,1,.486.81,2.826,2.826,0,0,1,.162.973,2.205,2.205,0,0,1-.594,1.621,3.083,3.083,0,0,1-1.783.864,3.965,3.965,0,0,1,.973.756,5.138,5.138,0,0,1,.81,1.081,9.823,9.823,0,0,1,.54,1.027,4.249,4.249,0,0,1,.216.648,1.375,1.375,0,0,1-.108.378.553.553,0,0,1-.324.27,1.079,1.079,0,0,1-.486.108.913.913,0,0,1-.54-.162,1.262,1.262,0,0,1-.378-.378,6.617,6.617,0,0,0-.432-.648l-.756-1.243a6.567,6.567,0,0,0-.7-1.027,2.54,2.54,0,0,0-.648-.486A1.114,1.114,0,0,0,20.039,162.741Zm1.027-3.89H19.391v2.539h1.621a6.745,6.745,0,0,0,1.135-.108,1.257,1.257,0,0,0,.7-.378,1.056,1.056,0,0,0,.216-.756.861.861,0,0,0-.216-.648,1.079,1.079,0,0,0-.54-.432A2.078,2.078,0,0,0,21.066,158.851Z" transform="translate(-8.045 -157.284)"/>
        </g>
      </g>
    </g>
    <text id="VR_bobblz_VR_FrameWork_Inc." data-name="VR bobblz
VR FrameWork Inc." class="cls-26" transform="translate(952 3003)"><tspan x="-40.421" y="0">VR bobblz</tspan><tspan x="-76.087" y="21">VR FrameWork Inc.</tspan></text>
  </g>
</svg>
