<svg xmlns="http://www.w3.org/2000/svg" xmlns:xlink="http://www.w3.org/1999/xlink" viewBox="0 0 1390.975 523">
  <defs>
    <style>
      .cls-1 {
        clip-path: url(#clip-path);
      }

      .cls-2 {
        fill: #ef4136;
      }

      .cls-3 {
        fill: #f1d300;
      }

      .cls-4 {
        fill: #92278f;
      }

      .cls-5 {
        fill: #c96dcb;
      }

      .cls-6 {
        fill: #8bccec;
      }

      .cls-7 {
        fill: #2c3a8d;
      }

      .cls-8 {
        clip-path: url(#clip-path-2);
      }

      .cls-9 {
        fill: #ffd9e4;
      }

      .cls-10 {
        fill: #febccc;
      }

      .cls-11 {
        fill: #81e294;
      }

      .cls-12 {
        fill: #45c6db;
      }

      .cls-13 {
        fill: #00a6d8;
      }

      .cls-14 {
        clip-path: url(#clip-path-3);
      }

      .cls-15 {
        fill: #008c88;
      }

      .cls-16 {
        fill: #61e7ca;
      }

      .cls-17 {
        fill: #00ded6;
      }

      .cls-18 {
        fill: #8dc63f;
      }

      .cls-19 {
        clip-path: url(#clip-path-4);
      }

      .cls-20 {
        fill: #27aae1;
      }

      .cls-21 {
        fill: #d1d3d4;
      }

      .cls-22 {
        fill: #ed1c24;
      }

      .cls-23 {
        clip-path: url(#clip-path-5);
      }

      .cls-24 {
        fill: #fff;
      }

      .cls-25 {
        fill: #00aeef;
      }

      .cls-26 {
        fill: #ec008c;
      }

      .cls-27 {
        fill: #fff200;
      }

      .cls-28 {
        fill: #684cb1;
      }

      .cls-29 {
        fill: #b08acf;
      }

      .cls-30 {
        fill: #ffc440;
      }

      .cls-31 {
        fill: #fe7d7b;
      }

      .cls-32 {
        fill: #64c8a4;
      }

      .cls-33 {
        fill: #707070;
        font-size: 18px;
        font-family: Roboto-Regular, Roboto;
      }
    </style>
    <clipPath id="clip-path">
      <path id="Path_957" data-name="Path 957" d="M10.9,166.047l243.288.8-4-163.347-40.5,15.988L61.53,22.952,18.628,3.5Z" transform="translate(-10.9 -3.5)"/>
    </clipPath>
    <clipPath id="clip-path-2">
      <path id="Path_961" data-name="Path 961" d="M10.7,261.247l243.288.8-4-163.347-40.5,15.988L61.33,118.152,18.428,98.7Z" transform="translate(-10.7 -98.7)"/>
    </clipPath>
    <clipPath id="clip-path-3">
      <path id="Path_965" data-name="Path 965" d="M11.2,166.347l243.555,1.066L250.491,3.8,210.254,19.788,61.83,23.519,19.194,3.8Z" transform="translate(-11.2 -3.8)"/>
    </clipPath>
    <clipPath id="clip-path-4">
      <path id="Path_969" data-name="Path 969" d="M11.1,260.447l243.555,1.066L250.391,97.9l-40.237,15.988L61.73,117.619,19.094,97.9Z" transform="translate(-11.1 -97.9)"/>
    </clipPath>
    <clipPath id="clip-path-5">
      <path id="Path_973" data-name="Path 973" d="M11.1,165.647l243.555.8L250.391,3.1,210.154,19.088,61.73,22.552,19.094,3.1Z" transform="translate(-11.1 -3.1)"/>
    </clipPath>
  </defs>
  <g id="Group_655" data-name="Group 655" transform="translate(-257 -3837)">
    <g id="Group_623" data-name="Group 623" transform="translate(257 3837)">
      <g id="Group_618" data-name="Group 618">
        <g id="Group_616" data-name="Group 616" transform="translate(29.045 9.326)">
          <g id="Group_615" data-name="Group 615" class="cls-1">
            <rect id="Rectangle_210" data-name="Rectangle 210" class="cls-2" width="159.35" height="46.632" transform="translate(7.719 159.312) rotate(-90)"/>
            <rect id="Rectangle_211" data-name="Rectangle 211" class="cls-3" width="159.35" height="46.632" transform="translate(54.466 159.427) rotate(-90)"/>
            <rect id="Rectangle_212" data-name="Rectangle 212" class="cls-4" width="159.35" height="46.632" transform="translate(101.214 159.275) rotate(-90)"/>
            <rect id="Rectangle_213" data-name="Rectangle 213" class="cls-5" width="159.35" height="46.632" transform="translate(147.961 159.39) rotate(-90)"/>
            <rect id="Rectangle_214" data-name="Rectangle 214" class="cls-6" width="159.35" height="46.632" transform="translate(194.708 159.238) rotate(-90)"/>
            <rect id="Rectangle_215" data-name="Rectangle 215" class="cls-7" width="159.35" height="38.638" transform="translate(243.41 159.442) rotate(-90)"/>
          </g>
        </g>
        <g id="Group_617" data-name="Group 617">
          <path id="Path_958" data-name="Path 958" d="M63.518,50.871a13.3,13.3,0,0,1-11.192,5.6,14.008,14.008,0,0,1-11.192-5.6c-1.332-1.6-3.464-2.132-5.063-.8s-2.132,3.464-.8,5.063a20.934,20.934,0,0,0,34.108,0,3.624,3.624,0,1,0-5.862-4.264Z" transform="translate(57.46 82.098)"/>
          <path id="Path_959" data-name="Path 959" d="M96.318,50.871a13.3,13.3,0,0,1-11.192,5.6,14.008,14.008,0,0,1-11.192-5.6c-1.332-1.6-3.464-2.132-5.063-.8s-2.132,3.464-.8,5.063a20.934,20.934,0,0,0,34.108,0,3.5,3.5,0,0,0-.8-5.063C99.782,48.739,97.65,49.272,96.318,50.871Z" transform="translate(112.063 82.098)"/>
          <path id="Path_960" data-name="Path 960" d="M297.115,166.012v-9.859H277.4V136.433h9.859v-9.859H277.4V57.291L277.13,0,225.968,19.719H168.143V10.126h-9.859v9.859h-9.859V10.126h-9.859v9.859H81.54L29.578,0l-.266,126.574H19.719v9.859h9.859v19.719H9.859v9.859H0v9.859H306.975v-9.859Zm-29.578-49.3H247.818v9.859h19.719v9.859H247.818v9.859h19.719v19.719H155.086v-5.862l9.326-7.728v-3.464H142.829v3.464l9.326,7.728v5.862H39.438V146.293H59.157v-9.859H39.438v-9.859H59.157v-9.859H39.438V58.624L39.7,14.656,79.941,30.111l68.75-.266V39.7h9.859V29.845l68.483-.266h.8l39.438-15.189.266,42.9Z"/>
        </g>
      </g>
      <g id="Group_622" data-name="Group 622" transform="translate(0 252.082)">
        <g id="Group_620" data-name="Group 620" transform="translate(28.512 10.925)">
          <g id="Group_619" data-name="Group 619" class="cls-8">
            <rect id="Rectangle_216" data-name="Rectangle 216" class="cls-9" width="159.35" height="46.632" transform="translate(7.795 159.236) rotate(-90)"/>
            <rect id="Rectangle_217" data-name="Rectangle 217" class="cls-10" width="159.35" height="46.632" transform="translate(54.543 159.351) rotate(-90)"/>
            <rect id="Rectangle_218" data-name="Rectangle 218" class="cls-11" width="159.35" height="46.632" transform="translate(101.29 159.199) rotate(-90)"/>
            <rect id="Rectangle_219" data-name="Rectangle 219" class="cls-12" width="159.35" height="46.632" transform="translate(148.037 159.314) rotate(-90)"/>
            <rect id="Rectangle_220" data-name="Rectangle 220" class="cls-13" width="159.35" height="46.632" transform="translate(194.785 159.162) rotate(-90)"/>
            <rect id="Rectangle_221" data-name="Rectangle 221" class="cls-7" width="159.35" height="38.638" transform="translate(243.219 159.366) rotate(-90)"/>
          </g>
        </g>
        <g id="Group_621" data-name="Group 621">
          <path id="Path_962" data-name="Path 962" d="M63.518,145.671a13.3,13.3,0,0,1-11.192,5.6,14.008,14.008,0,0,1-11.192-5.6c-1.332-1.6-3.464-2.132-5.063-.8s-2.132,3.464-.8,5.063a20.934,20.934,0,0,0,34.108,0,3.5,3.5,0,0,0-.8-5.063A3.734,3.734,0,0,0,63.518,145.671Z" transform="translate(57.46 -12.169)"/>
          <path id="Path_963" data-name="Path 963" d="M96.318,145.671a13.3,13.3,0,0,1-11.192,5.6,14.008,14.008,0,0,1-11.192-5.6c-1.332-1.6-3.464-2.132-5.063-.8s-2.132,3.464-.8,5.063a20.934,20.934,0,0,0,34.108,0,3.5,3.5,0,0,0-.8-5.063A3.776,3.776,0,0,0,96.318,145.671Z" transform="translate(112.063 -12.169)"/>
          <path id="Path_964" data-name="Path 964" d="M297.115,261.144v-9.859H277.4V231.566h9.859v-9.859H277.4V152.424l-.266-57.291-51.162,19.719H168.143v-9.859h-9.859v9.859h-9.859v-9.859h-9.859v9.859H81.54L29.578,94.6l-.266,126.574H19.719v9.859h9.859v19.719H9.859v9.859H0v9.859H306.975v-9.859h-9.859Zm-29.578-49.031H247.818v9.859h19.719v9.859H247.818v9.859h19.719v19.719H155.086v-5.862l9.326-7.728v-3.464H142.829v3.464l9.326,7.728v5.862H39.438V241.692H59.157V231.566H39.438v-9.859H59.157v-9.859H39.438V153.49l.266-43.968,40.237,15.455,68.75-.266v9.859h9.859v-9.859l68.483-.266h.8l39.438-15.189.266,42.9Z" transform="translate(0 -94.6)"/>
        </g>
      </g>
    </g>
    <g id="Group_632" data-name="Group 632" transform="translate(799 3837)">
      <g id="Group_627" data-name="Group 627">
        <g id="Group_625" data-name="Group 625" transform="translate(29.845 10.126)">
          <g id="Group_624" data-name="Group 624" class="cls-14">
            <rect id="Rectangle_222" data-name="Rectangle 222" class="cls-15" width="159.35" height="46.632" transform="translate(8.062 159.324) rotate(-90)"/>
            <rect id="Rectangle_223" data-name="Rectangle 223" class="cls-16" width="159.35" height="46.632" transform="translate(54.809 159.439) rotate(-90)"/>
            <rect id="Rectangle_224" data-name="Rectangle 224" class="cls-17" width="159.35" height="46.632" transform="translate(101.556 159.554) rotate(-90)"/>
            <rect id="Rectangle_225" data-name="Rectangle 225" class="cls-10" width="159.35" height="46.632" transform="translate(148.304 159.402) rotate(-90)"/>
            <rect id="Rectangle_226" data-name="Rectangle 226" class="cls-18" width="159.35" height="46.632" transform="translate(195.051 159.517) rotate(-90)"/>
            <rect id="Rectangle_227" data-name="Rectangle 227" class="cls-7" width="159.35" height="38.638" transform="translate(243.486 159.454) rotate(-90)"/>
          </g>
        </g>
        <g id="Group_626" data-name="Group 626">
          <path id="Path_966" data-name="Path 966" d="M63.518,50.871a13.3,13.3,0,0,1-11.192,5.6,14.008,14.008,0,0,1-11.192-5.6c-1.332-1.6-3.464-2.132-5.063-.8s-2.132,3.464-.8,5.063a20.934,20.934,0,0,0,34.108,0,3.624,3.624,0,1,0-5.862-4.264Z" transform="translate(57.46 82.098)"/>
          <path id="Path_967" data-name="Path 967" d="M96.318,50.871a13.3,13.3,0,0,1-11.192,5.6,14.008,14.008,0,0,1-11.192-5.6c-1.332-1.6-3.464-2.132-5.063-.8s-2.132,3.464-.8,5.063a20.934,20.934,0,0,0,34.108,0,3.5,3.5,0,0,0-.8-5.063C99.782,48.739,97.65,49.272,96.318,50.871Z" transform="translate(112.063 82.098)"/>
          <path id="Path_968" data-name="Path 968" d="M297.115,166.012v-9.859H277.4V136.433h9.859v-9.859H277.4V57.291L277.13,0,225.968,19.719H168.143V10.126h-9.859v9.859h-9.859V10.126h-9.859v9.859H81.54L29.578,0l-.266,126.574H19.719v9.859h9.859v19.719H9.859v9.859H0v9.859H306.975v-9.859Zm-29.578-49.3H247.818v9.859h19.719v9.859H247.818v9.859h19.719v19.719H155.086v-5.862l9.326-7.728v-3.464H142.829v3.464l9.326,7.728v5.862H39.438V146.293H59.157v-9.859H39.438v-9.859H59.157v-9.859H39.438V58.624L39.7,14.656,79.941,30.111l68.75-.266V39.7h9.859V29.845l68.483-.266h.8l39.438-15.189.266,42.9Z"/>
        </g>
      </g>
      <g id="Group_631" data-name="Group 631" transform="translate(0 252.082)">
        <g id="Group_629" data-name="Group 629" transform="translate(29.578 8.794)">
          <g id="Group_628" data-name="Group 628" class="cls-19">
            <rect id="Rectangle_228" data-name="Rectangle 228" class="cls-7" width="159.35" height="46.632" transform="translate(8.074 159.312) rotate(-90)"/>
            <rect id="Rectangle_229" data-name="Rectangle 229" class="cls-20" width="159.35" height="46.632" transform="translate(54.822 159.427) rotate(-90)"/>
            <rect id="Rectangle_230" data-name="Rectangle 230" class="cls-6" width="159.35" height="46.632" transform="translate(101.569 159.542) rotate(-90)"/>
            <rect id="Rectangle_231" data-name="Rectangle 231" class="cls-21" width="159.35" height="46.632" transform="translate(148.316 159.39) rotate(-90)"/>
            <rect id="Rectangle_232" data-name="Rectangle 232" class="cls-22" width="159.35" height="46.632" transform="translate(195.064 159.505) rotate(-90)"/>
            <rect id="Rectangle_233" data-name="Rectangle 233" class="cls-7" width="159.35" height="38.638" transform="translate(243.498 159.442) rotate(-90)"/>
          </g>
        </g>
        <g id="Group_630" data-name="Group 630">
          <path id="Path_970" data-name="Path 970" d="M63.518,145.671a13.3,13.3,0,0,1-11.192,5.6,14.008,14.008,0,0,1-11.192-5.6c-1.332-1.6-3.464-2.132-5.063-.8s-2.132,3.464-.8,5.063a20.934,20.934,0,0,0,34.108,0,3.5,3.5,0,0,0-.8-5.063A3.734,3.734,0,0,0,63.518,145.671Z" transform="translate(57.46 -12.169)"/>
          <path id="Path_971" data-name="Path 971" d="M96.318,145.671a13.3,13.3,0,0,1-11.192,5.6,14.008,14.008,0,0,1-11.192-5.6c-1.332-1.6-3.464-2.132-5.063-.8s-2.132,3.464-.8,5.063a20.934,20.934,0,0,0,34.108,0,3.5,3.5,0,0,0-.8-5.063A3.776,3.776,0,0,0,96.318,145.671Z" transform="translate(112.063 -12.169)"/>
          <path id="Path_972" data-name="Path 972" d="M297.115,261.144v-9.859H277.4V231.566h9.859v-9.859H277.4V152.424l-.266-57.291-51.162,19.719H168.143v-9.859h-9.859v9.859h-9.859v-9.859h-9.859v9.859H81.54L29.578,94.6l-.266,126.574H19.719v9.859h9.859v19.719H9.859v9.859H0v9.859H306.975v-9.859h-9.859Zm-29.578-49.031H247.818v9.859h19.719v9.859H247.818v9.859h19.719v19.719H155.086v-5.862l9.326-7.728v-3.464H142.829v3.464l9.326,7.728v5.862H39.438V241.692H59.157V231.566H39.438v-9.859H59.157v-9.859H39.438V153.49l.266-43.968,40.237,15.455,68.75-.266v9.859h9.859v-9.859l68.483-.266h.8l39.438-15.189.266,42.9Z" transform="translate(0 -94.6)"/>
        </g>
      </g>
    </g>
    <g id="Group_641" data-name="Group 641" transform="translate(1341 3837)">
      <g id="Group_636" data-name="Group 636">
        <g id="Group_634" data-name="Group 634" transform="translate(29.578 8.261)">
          <g id="Group_633" data-name="Group 633" class="cls-23">
            <rect id="Rectangle_234" data-name="Rectangle 234" class="cls-24" width="159.35" height="46.632" transform="translate(7.897 159.223) rotate(-90)"/>
            <rect id="Rectangle_235" data-name="Rectangle 235" class="cls-25" width="159.35" height="46.632" transform="translate(54.644 159.338) rotate(-90)"/>
            <rect id="Rectangle_236" data-name="Rectangle 236" class="cls-26" width="159.35" height="46.632" transform="translate(101.391 159.453) rotate(-90)"/>
            <rect id="Rectangle_237" data-name="Rectangle 237" class="cls-27" width="159.35" height="46.632" transform="translate(148.139 159.301) rotate(-90)"/>
            <rect id="Rectangle_238" data-name="Rectangle 238" class="cls-24" width="159.35" height="46.632" transform="translate(194.886 159.416) rotate(-90)"/>
            <rect id="Rectangle_239" data-name="Rectangle 239" class="cls-7" width="159.35" height="38.638" transform="translate(243.587 159.353) rotate(-90)"/>
          </g>
        </g>
        <g id="Group_635" data-name="Group 635">
          <path id="Path_974" data-name="Path 974" d="M63.518,50.871a13.3,13.3,0,0,1-11.192,5.6,14.008,14.008,0,0,1-11.192-5.6c-1.332-1.6-3.464-2.132-5.063-.8s-2.132,3.464-.8,5.063a20.934,20.934,0,0,0,34.108,0,3.624,3.624,0,1,0-5.862-4.264Z" transform="translate(57.46 82.098)"/>
          <path id="Path_975" data-name="Path 975" d="M96.318,50.871a13.3,13.3,0,0,1-11.192,5.6,14.008,14.008,0,0,1-11.192-5.6c-1.332-1.6-3.464-2.132-5.063-.8s-2.132,3.464-.8,5.063a20.934,20.934,0,0,0,34.108,0,3.5,3.5,0,0,0-.8-5.063C99.782,48.739,97.65,49.272,96.318,50.871Z" transform="translate(112.063 82.098)"/>
          <path id="Path_976" data-name="Path 976" d="M297.115,166.012v-9.859H277.4V136.433h9.859v-9.859H277.4V57.291L277.13,0,225.968,19.719H168.143V10.126h-9.859v9.859h-9.859V10.126h-9.859v9.859H81.54L29.578,0l-.266,126.574H19.719v9.859h9.859v19.719H9.859v9.859H0v9.859H306.975v-9.859Zm-29.578-49.3H247.818v9.859h19.719v9.859H247.818v9.859h19.719v19.719H155.086v-5.862l9.326-7.728v-3.464H142.829v3.464l9.326,7.728v5.862H39.438V146.293H59.157v-9.859H39.438v-9.859H59.157v-9.859H39.438V58.624L39.7,14.656,79.941,30.111l68.75-.266V39.7h9.859V29.845l68.483-.266h.8l39.438-15.189.266,42.9Z"/>
        </g>
      </g>
      <g id="Group_640" data-name="Group 640" transform="translate(0 252.082)">
        <g id="Group_638" data-name="Group 638" transform="translate(29.578 8.794)">
          <g id="Group_637" data-name="Group 637" class="cls-19">
            <rect id="Rectangle_240" data-name="Rectangle 240" class="cls-28" width="159.35" height="46.632" transform="translate(8.074 159.312) rotate(-90)"/>
            <rect id="Rectangle_241" data-name="Rectangle 241" class="cls-29" width="159.35" height="46.632" transform="translate(54.822 159.427) rotate(-90)"/>
            <rect id="Rectangle_242" data-name="Rectangle 242" class="cls-30" width="159.35" height="46.632" transform="translate(101.569 159.542) rotate(-90)"/>
            <rect id="Rectangle_243" data-name="Rectangle 243" class="cls-31" width="159.35" height="46.632" transform="translate(148.316 159.39) rotate(-90)"/>
            <rect id="Rectangle_244" data-name="Rectangle 244" class="cls-32" width="159.35" height="46.632" transform="translate(195.064 159.505) rotate(-90)"/>
            <rect id="Rectangle_245" data-name="Rectangle 245" class="cls-7" width="159.35" height="38.638" transform="translate(243.498 159.442) rotate(-90)"/>
          </g>
        </g>
        <g id="Group_639" data-name="Group 639">
          <path id="Path_978" data-name="Path 978" d="M63.518,145.671a13.3,13.3,0,0,1-11.192,5.6,14.008,14.008,0,0,1-11.192-5.6c-1.332-1.6-3.464-2.132-5.063-.8s-2.132,3.464-.8,5.063a20.934,20.934,0,0,0,34.108,0,3.5,3.5,0,0,0-.8-5.063A3.734,3.734,0,0,0,63.518,145.671Z" transform="translate(57.46 -12.169)"/>
          <path id="Path_979" data-name="Path 979" d="M96.318,145.671a13.3,13.3,0,0,1-11.192,5.6,14.008,14.008,0,0,1-11.192-5.6c-1.332-1.6-3.464-2.132-5.063-.8s-2.132,3.464-.8,5.063a20.934,20.934,0,0,0,34.108,0,3.5,3.5,0,0,0-.8-5.063A3.776,3.776,0,0,0,96.318,145.671Z" transform="translate(112.063 -12.169)"/>
          <path id="Path_980" data-name="Path 980" d="M297.115,261.144v-9.859H277.4V231.566h9.859v-9.859H277.4V152.424l-.266-57.291-51.162,19.719H168.143v-9.859h-9.859v9.859h-9.859v-9.859h-9.859v9.859H81.54L29.578,94.6l-.266,126.574H19.719v9.859h9.859v19.719H9.859v9.859H0v9.859H306.975v-9.859h-9.859Zm-29.578-49.031H247.818v9.859h19.719v9.859H247.818v9.859h19.719v19.719H155.086v-5.862l9.326-7.728v-3.464H142.829v3.464l9.326,7.728v5.862H39.438V241.692H59.157V231.566H39.438v-9.859H59.157v-9.859H39.438V153.49l.266-43.968,40.237,15.455,68.75-.266v9.859h9.859v-9.859l68.483-.266h.8l39.438-15.189.266,42.9Z" transform="translate(0 -94.6)"/>
        </g>
      </g>
    </g>
    <text id="Good_Night_Kitty_Mobile_Game_Developing_Co." data-name="Good Night Kitty
Mobile Game Developing Co." class="cls-33" transform="translate(952 4335)"><tspan x="-65.439" y="0">Good Night Kitty</tspan><tspan x="-115.15" y="21">Mobile Game Developing Co.</tspan></text>
  </g>
</svg>
