<svg xmlns="http://www.w3.org/2000/svg" viewBox="0 0 1390.535 276.38">
  <defs>
    <style>
      .cls-1 {
        fill: #707070;
        font-size: 18px;
        font-family: Roboto-Regular, Roboto;
      }

      .cls-2 {
        fill: #ef4136;
      }

      .cls-3 {
        fill: #00aeef;
      }

      .cls-4 {
        fill: #00a651;
      }

      .cls-5 {
        fill: #fff;
      }
    </style>
  </defs>
  <g id="Group_656" data-name="Group 656" transform="translate(-257.202 -4543.62)">
    <text id="rational_mind_Design_Firm" data-name="rational mind
Design Firm" class="cls-1" transform="translate(952 4795)"><tspan x="-52.409" y="0">rational mind</tspan><tspan x="-47.83" y="21">Design Firm</tspan></text>
    <g id="Group_643" data-name="Group 643" transform="translate(771 4543.62)">
      <rect id="Rectangle_259" data-name="Rectangle 259" width="181.666" height="181.666" transform="translate(0 0.033)"/>
      <rect id="Rectangle_260" data-name="Rectangle 260" width="181.666" height="73.807" transform="translate(181.666 107.892)"/>
      <rect id="Rectangle_261" data-name="Rectangle 261" class="cls-2" width="36.4" height="109.033" transform="translate(36.4 72.666)"/>
      <rect id="Rectangle_262" data-name="Rectangle 262" class="cls-3" width="36.4" height="145.769" transform="translate(181.652 0) rotate(90)"/>
      <rect id="Rectangle_263" data-name="Rectangle 263" class="cls-4" width="36.4" height="109.033" transform="translate(109.033 72.666)"/>
      <g id="Group_642" data-name="Group 642" transform="translate(188.208 133.557)">
        <path id="Path_981" data-name="Path 981" class="cls-5" d="M121.09,82.8h.335v4.361h-1.174c-1.677,0-2.852.5-3.355,1.677a6.189,6.189,0,0,0-.5,2.852v7.716H112.2V83.135h4.026v2.852a8.919,8.919,0,0,1,1.677-2.181,4.683,4.683,0,0,1,3.019-1.006Z" transform="translate(-112.2 -77.432)"/>
        <path id="Path_982" data-name="Path 982" class="cls-5" d="M125.216,89.51a9.441,9.441,0,0,0,1.677-.335c.671-.335.839-.671.839-1.174,0-.671-.168-1.174-.671-1.342a3.632,3.632,0,0,0-2.013-.335,2.846,2.846,0,0,0-2.181.671,3.161,3.161,0,0,0-.671,1.51h-3.858a7.978,7.978,0,0,1,1.174-3.523,7.187,7.187,0,0,1,5.7-2.181,10.213,10.213,0,0,1,4.7,1.006q2.013,1.006,2.013,4.026v9.226a1.955,1.955,0,0,0,.335,1.174,2.316,2.316,0,0,0,.671.5v.671H128.4c-.168-.335-.168-.671-.335-.839,0-.335-.168-.671-.168-1.006a9.732,9.732,0,0,1-2.013,1.677,6.424,6.424,0,0,1-3.187.839,5.421,5.421,0,0,1-3.69-1.174,4.333,4.333,0,0,1-1.51-3.523,4.864,4.864,0,0,1,2.348-4.361,8.887,8.887,0,0,1,3.69-1.006Zm2.684,2.013c-.335.168-.5.335-.839.335a10.69,10.69,0,0,1-1.174.335l-1.006.168a17.4,17.4,0,0,0-2.013.5,1.927,1.927,0,0,0-1.006,1.845,1.635,1.635,0,0,0,.671,1.51,2.05,2.05,0,0,0,1.51.5,4.12,4.12,0,0,0,2.516-.839,3.07,3.07,0,0,0,1.174-2.852v-1.51Z" transform="translate(-108.61 -77.432)"/>
        <path id="Path_983" data-name="Path 983" class="cls-5" d="M126.5,87.948V84.929h2.181V80.4h4.194v4.529h2.684v3.019h-2.684V96.5a1.6,1.6,0,0,0,.335,1.174c.168.168.671.168,1.51.168h.839v3.187h-2.013q-3.019,0-4.026-1.006a2.846,2.846,0,0,1-.671-2.181v-9.9H126.5Z" transform="translate(-102.513 -79.058)"/>
        <path id="Path_984" data-name="Path 984" class="cls-5" d="M136.961,83.458H132.6V79.6h4.361ZM132.768,85.3h4.361v16.1h-4.361Z" transform="translate(-98.38 -79.6)"/>
        <path id="Path_985" data-name="Path 985" class="cls-5" d="M150.626,97.394c-1.342,1.677-3.355,2.516-6.207,2.516s-4.865-.839-6.207-2.516a10.065,10.065,0,0,1,0-12.078c1.342-1.677,3.355-2.516,6.207-2.516s4.865.839,6.207,2.516a10.065,10.065,0,0,1,0,12.078Zm-3.355-2.348a6.027,6.027,0,0,0,1.006-3.69,5.7,5.7,0,0,0-1.006-3.69,3.7,3.7,0,0,0-5.7,0,6.027,6.027,0,0,0-1.006,3.69,5.7,5.7,0,0,0,1.006,3.69,3.7,3.7,0,0,0,5.7,0Z" transform="translate(-95.941 -77.432)"/>
        <path id="Path_986" data-name="Path 986" class="cls-5" d="M159.916,84.142c1.006.839,1.51,2.348,1.51,4.361v10.9h-4.361v-9.9a6.257,6.257,0,0,0-.335-2.013c-.335-.839-1.174-1.174-2.348-1.174a2.938,2.938,0,0,0-2.852,1.845,5.729,5.729,0,0,0-.335,2.516v8.723H147V83.3h4.026v2.348a5.918,5.918,0,0,1,1.51-1.845A5.323,5.323,0,0,1,155.89,82.8,6.825,6.825,0,0,1,159.916,84.142Z" transform="translate(-88.625 -77.432)"/>
        <path id="Path_987" data-name="Path 987" class="cls-5" d="M164.084,89.51a9.441,9.441,0,0,0,1.677-.335c.671-.335.839-.671.839-1.174,0-.671-.168-1.174-.671-1.342a3.633,3.633,0,0,0-2.013-.335,2.846,2.846,0,0,0-2.181.671,3.161,3.161,0,0,0-.671,1.51h-4.026a7.978,7.978,0,0,1,1.174-3.523,7.187,7.187,0,0,1,5.7-2.181,10.213,10.213,0,0,1,4.7,1.006q2.013,1.006,2.013,4.026v9.226a1.955,1.955,0,0,0,.335,1.174,2.316,2.316,0,0,0,.671.5v.671H167.1c-.168-.335-.168-.671-.335-.839,0-.335-.168-.671-.168-1.006a9.731,9.731,0,0,1-2.013,1.677,6.424,6.424,0,0,1-3.187.839,5.421,5.421,0,0,1-3.69-1.174,4.333,4.333,0,0,1-1.51-3.523,4.864,4.864,0,0,1,2.348-4.361,8.887,8.887,0,0,1,3.69-1.006Zm2.516,2.013c-.335.168-.5.335-.839.335a10.688,10.688,0,0,1-1.174.335l-1.006.168a17.4,17.4,0,0,0-2.013.5,1.927,1.927,0,0,0-1.006,1.845,1.635,1.635,0,0,0,.671,1.51,2.05,2.05,0,0,0,1.51.5,4.12,4.12,0,0,0,2.516-.839,3.07,3.07,0,0,0,1.174-2.852v-1.51Z" transform="translate(-82.393 -77.432)"/>
        <path id="Path_988" data-name="Path 988" class="cls-5" d="M170.494,101.507H166.3V79.7h4.194Z" transform="translate(-75.551 -79.532)"/>
        <path id="Path_989" data-name="Path 989" class="cls-5" d="M194.7,83.242a5.243,5.243,0,0,1,1.845,1.51,2.778,2.778,0,0,1,.839,2.013,8.912,8.912,0,0,1,.168,2.348V99.345h-4.361V89.113a3.35,3.35,0,0,0-.335-1.51,2.135,2.135,0,0,0-2.013-1.174,2.239,2.239,0,0,0-2.348,1.51,6.03,6.03,0,0,0-.335,1.845v9.561h-4.194V89.784a4.818,4.818,0,0,0-.335-2.013,1.9,1.9,0,0,0-2.013-1.174,2.648,2.648,0,0,0-2.516,1.174,6.257,6.257,0,0,0-.335,2.013v9.729H174.4v-16.1h4.026v2.348a5.919,5.919,0,0,1,1.51-1.845,4.836,4.836,0,0,1,3.187-1.006,5.793,5.793,0,0,1,3.019.839,4.277,4.277,0,0,1,1.342,2.013,3.915,3.915,0,0,1,2.013-2.013,5.513,5.513,0,0,1,2.852-.671A2.775,2.775,0,0,1,194.7,83.242Z" transform="translate(-70.063 -77.371)"/>
        <path id="Path_990" data-name="Path 990" class="cls-5" d="M194.061,83.458H189.7V79.6h4.361ZM189.7,85.3h4.361v16.1H189.7Z" transform="translate(-59.699 -79.6)"/>
        <path id="Path_991" data-name="Path 991" class="cls-5" d="M206.816,84.142c1.006.839,1.51,2.348,1.51,4.361v10.9h-4.361v-9.9a6.257,6.257,0,0,0-.335-2.013c-.335-.839-1.174-1.174-2.348-1.174a2.938,2.938,0,0,0-2.852,1.845,5.729,5.729,0,0,0-.335,2.516v8.723H193.9V83.3h4.026v2.348a5.918,5.918,0,0,1,1.51-1.845A5.323,5.323,0,0,1,202.79,82.8,6.825,6.825,0,0,1,206.816,84.142Z" transform="translate(-56.853 -77.432)"/>
        <path id="Path_992" data-name="Path 992" class="cls-5" d="M212.894,85.571a4.873,4.873,0,0,1,1.845,1.845V79.7H219.1v21.807h-4.026V99.326a5.7,5.7,0,0,1-2.013,2.013,5.14,5.14,0,0,1-2.852.671,5.878,5.878,0,0,1-4.7-2.348A8.6,8.6,0,0,1,203.5,93.79a11.184,11.184,0,0,1,1.845-6.542,6.533,6.533,0,0,1,5.032-2.348A4.734,4.734,0,0,1,212.894,85.571ZM213.9,97.145a5.5,5.5,0,0,0,1.006-3.523c0-2.013-.5-3.355-1.51-4.194a3.533,3.533,0,0,0-2.181-.839,3.047,3.047,0,0,0-2.684,1.342,7.283,7.283,0,0,0-.839,3.523,6.817,6.817,0,0,0,.839,3.523,3.259,3.259,0,0,0,2.684,1.342A2.756,2.756,0,0,0,213.9,97.145Z" transform="translate(-50.35 -79.532)"/>
      </g>
    </g>
    <g id="Group_646" data-name="Group 646" transform="translate(257.202 4543.62)">
      <rect id="Rectangle_264" data-name="Rectangle 264" width="181.666" height="181.666" transform="translate(181.666)"/>
      <rect id="Rectangle_265" data-name="Rectangle 265" width="181.666" height="181.666"/>
      <rect id="Rectangle_266" data-name="Rectangle 266" class="cls-3" width="38.078" height="181.331" transform="translate(362.998 0.068) rotate(90)"/>
      <g id="Group_644" data-name="Group 644" transform="translate(181.666 111.55)">
        <rect id="Rectangle_267" data-name="Rectangle 267" class="cls-2" width="36.4" height="70.117"/>
        <rect id="Rectangle_268" data-name="Rectangle 268" class="cls-4" width="36.4" height="70.117" transform="translate(72.633)"/>
      </g>
      <path id="Path_993" data-name="Path 993" class="cls-4" d="M77.472,22.2,19.6,122.678H135.511Z" transform="translate(13.278 15.039)"/>
      <g id="Group_645" data-name="Group 645" transform="translate(188.208 63.575)">
        <path id="Path_994" data-name="Path 994" class="cls-5" d="M121.09,41.1h.335v4.361h-1.174c-1.677,0-2.852.5-3.355,1.677a6.189,6.189,0,0,0-.5,2.852v7.716H112.2V41.6h4.026v2.852a8.918,8.918,0,0,1,1.677-2.181,4.683,4.683,0,0,1,3.019-1.006Z" transform="translate(-112.2 -35.732)"/>
        <path id="Path_995" data-name="Path 995" class="cls-5" d="M125.216,47.81a9.441,9.441,0,0,0,1.677-.335c.671-.335.839-.671.839-1.174,0-.671-.168-1.174-.671-1.342a3.632,3.632,0,0,0-2.013-.335,2.846,2.846,0,0,0-2.181.671,3.161,3.161,0,0,0-.671,1.51h-3.858a7.978,7.978,0,0,1,1.174-3.523,7.187,7.187,0,0,1,5.7-2.181,10.213,10.213,0,0,1,4.7,1.006q2.013,1.006,2.013,4.026v9.226a1.955,1.955,0,0,0,.335,1.174,2.315,2.315,0,0,0,.671.5v.671H128.4c-.168-.335-.168-.671-.335-.839,0-.335-.168-.671-.168-1.006a9.732,9.732,0,0,1-2.013,1.677,6.424,6.424,0,0,1-3.187.839,5.421,5.421,0,0,1-3.69-1.174,4.333,4.333,0,0,1-1.51-3.523,4.864,4.864,0,0,1,2.348-4.361,8.887,8.887,0,0,1,3.69-1.006Zm2.684,2.013c-.335.168-.5.335-.839.335a4.267,4.267,0,0,0-1.174.335l-1.006.168a17.407,17.407,0,0,0-2.013.5,1.927,1.927,0,0,0-1.006,1.845,1.635,1.635,0,0,0,.671,1.51,2.05,2.05,0,0,0,1.51.5,4.12,4.12,0,0,0,2.516-.839,3.07,3.07,0,0,0,1.174-2.852v-1.51Z" transform="translate(-108.61 -35.732)"/>
        <path id="Path_996" data-name="Path 996" class="cls-5" d="M126.5,46.348V43.329h2.181V38.8h4.194v4.529h2.684v3.019h-2.684V54.9a1.6,1.6,0,0,0,.335,1.174c.168.168.671.168,1.51.168h.839v3.187h-2.013q-3.019,0-4.026-1.006a2.846,2.846,0,0,1-.671-2.181v-9.9Z" transform="translate(-102.513 -37.29)"/>
        <path id="Path_997" data-name="Path 997" class="cls-5" d="M136.961,41.758H132.6V37.9h4.361Zm-4.194,2.013h4.361v16.1h-4.361Z" transform="translate(-98.38 -37.9)"/>
        <path id="Path_998" data-name="Path 998" class="cls-5" d="M150.626,55.694c-1.342,1.677-3.355,2.516-6.207,2.516s-4.865-.839-6.207-2.516a10.065,10.065,0,0,1,0-12.078c1.342-1.677,3.355-2.516,6.207-2.516s4.865.839,6.207,2.516a10.065,10.065,0,0,1,0,12.078Zm-3.355-2.348a6.027,6.027,0,0,0,1.006-3.69,5.7,5.7,0,0,0-1.006-3.69,3.7,3.7,0,0,0-5.7,0,6.027,6.027,0,0,0-1.006,3.69,5.7,5.7,0,0,0,1.006,3.69,3.583,3.583,0,0,0,2.852,1.342A3.154,3.154,0,0,0,147.271,53.345Z" transform="translate(-95.941 -35.732)"/>
        <path id="Path_999" data-name="Path 999" class="cls-5" d="M159.916,42.442c1.006.839,1.51,2.348,1.51,4.361v10.9h-4.361v-9.9a6.257,6.257,0,0,0-.335-2.013c-.335-.839-1.174-1.174-2.348-1.174a2.938,2.938,0,0,0-2.852,1.845,5.73,5.73,0,0,0-.335,2.516v8.723H147V41.6h4.026v2.348a5.918,5.918,0,0,1,1.51-1.845A5.323,5.323,0,0,1,155.89,41.1,6.825,6.825,0,0,1,159.916,42.442Z" transform="translate(-88.625 -35.732)"/>
        <path id="Path_1000" data-name="Path 1000" class="cls-5" d="M164.084,47.81a9.44,9.44,0,0,0,1.677-.335c.671-.335.839-.671.839-1.174,0-.671-.168-1.174-.671-1.342a3.632,3.632,0,0,0-2.013-.335,2.846,2.846,0,0,0-2.181.671,3.161,3.161,0,0,0-.671,1.51h-4.026a7.978,7.978,0,0,1,1.174-3.523,7.187,7.187,0,0,1,5.7-2.181,10.213,10.213,0,0,1,4.7,1.006q2.013,1.006,2.013,4.026v9.226a1.955,1.955,0,0,0,.335,1.174,2.316,2.316,0,0,0,.671.5v.671H167.1c-.168-.335-.168-.671-.335-.839,0-.335-.168-.671-.168-1.006a9.731,9.731,0,0,1-2.013,1.677,6.424,6.424,0,0,1-3.187.839,5.421,5.421,0,0,1-3.69-1.174,4.332,4.332,0,0,1-1.51-3.523,4.864,4.864,0,0,1,2.348-4.361,8.887,8.887,0,0,1,3.69-1.006Zm2.516,2.013c-.335.168-.5.335-.839.335a4.268,4.268,0,0,0-1.174.335l-1.006.168a17.408,17.408,0,0,0-2.013.5,1.927,1.927,0,0,0-1.006,1.845,1.635,1.635,0,0,0,.671,1.51,2.05,2.05,0,0,0,1.51.5,4.12,4.12,0,0,0,2.516-.839,3.07,3.07,0,0,0,1.174-2.852v-1.51Z" transform="translate(-82.393 -35.732)"/>
        <path id="Path_1001" data-name="Path 1001" class="cls-5" d="M170.494,59.807H166.3V38h4.194Z" transform="translate(-75.551 -37.832)"/>
        <path id="Path_1002" data-name="Path 1002" class="cls-5" d="M194.7,41.6a5.244,5.244,0,0,1,1.845,1.51,2.778,2.778,0,0,1,.839,2.013,8.912,8.912,0,0,1,.168,2.348V57.707h-4.361V47.474a3.35,3.35,0,0,0-.335-1.51,2.135,2.135,0,0,0-2.013-1.174,2.239,2.239,0,0,0-2.348,1.51,6.03,6.03,0,0,0-.335,1.845v9.561h-4.194V48.145a4.818,4.818,0,0,0-.335-2.013,1.9,1.9,0,0,0-2.013-1.174,2.648,2.648,0,0,0-2.516,1.174,6.257,6.257,0,0,0-.335,2.013v9.561H174.4V41.6h4.026v2.348a5.919,5.919,0,0,1,1.51-1.845,4.836,4.836,0,0,1,3.187-1.006,5.793,5.793,0,0,1,3.019.839,4.277,4.277,0,0,1,1.342,2.013,3.915,3.915,0,0,1,2.013-2.013,5.514,5.514,0,0,1,2.852-.671A4.974,4.974,0,0,1,194.7,41.6Z" transform="translate(-70.063 -35.732)"/>
        <path id="Path_1003" data-name="Path 1003" class="cls-5" d="M194.061,41.758H189.7V37.9h4.361ZM189.7,43.771h4.361v16.1H189.7Z" transform="translate(-59.699 -37.9)"/>
        <path id="Path_1004" data-name="Path 1004" class="cls-5" d="M206.816,42.442c1.006.839,1.51,2.348,1.51,4.361v10.9h-4.361v-9.9a6.257,6.257,0,0,0-.335-2.013c-.335-.839-1.174-1.174-2.348-1.174a2.938,2.938,0,0,0-2.852,1.845,5.73,5.73,0,0,0-.335,2.516v8.723H193.9V41.6h4.026v2.348a5.918,5.918,0,0,1,1.51-1.845A5.323,5.323,0,0,1,202.79,41.1,6.825,6.825,0,0,1,206.816,42.442Z" transform="translate(-56.853 -35.732)"/>
        <path id="Path_1005" data-name="Path 1005" class="cls-5" d="M212.894,43.871a4.873,4.873,0,0,1,1.845,1.845V38H219.1V59.807h-4.026V57.626a5.7,5.7,0,0,1-2.013,2.013,5.14,5.14,0,0,1-2.852.671,5.878,5.878,0,0,1-4.7-2.348A8.6,8.6,0,0,1,203.5,52.09a11.184,11.184,0,0,1,1.845-6.542,6.533,6.533,0,0,1,5.032-2.348A7.03,7.03,0,0,1,212.894,43.871ZM213.9,55.445a5.5,5.5,0,0,0,1.006-3.523c0-2.013-.5-3.355-1.51-4.194a3.533,3.533,0,0,0-2.181-.839,3.047,3.047,0,0,0-2.684,1.342,7.283,7.283,0,0,0-.839,3.523,6.817,6.817,0,0,0,.839,3.523,3.259,3.259,0,0,0,2.684,1.342A2.756,2.756,0,0,0,213.9,55.445Z" transform="translate(-50.35 -37.832)"/>
      </g>
    </g>
    <g id="Group_648" data-name="Group 648" transform="translate(1284.403 4543.62)">
      <rect id="Rectangle_269" data-name="Rectangle 269" width="181.666" height="181.666" transform="translate(181.666)"/>
      <rect id="Rectangle_270" data-name="Rectangle 270" width="181.666" height="181.666"/>
      <rect id="Rectangle_271" data-name="Rectangle 271" class="cls-3" width="38.078" height="181.331" transform="translate(181.666 0.069) rotate(90)"/>
      <rect id="Rectangle_272" data-name="Rectangle 272" class="cls-2" width="36.4" height="70.117" transform="translate(66.091 111.55)"/>
      <rect id="Rectangle_273" data-name="Rectangle 273" class="cls-4" width="37.407" height="71.459" transform="translate(144.26 110.208)"/>
      <ellipse id="Ellipse_228" data-name="Ellipse 228" class="cls-2" cx="63.743" cy="63.743" rx="63.743" ry="63.743" transform="translate(208.673 27.007)"/>
      <g id="Group_647" data-name="Group 647" transform="translate(6.542 60.891)">
        <path id="Path_1006" data-name="Path 1006" class="cls-5" d="M12.79,39.5h.335v4.361H11.952c-1.677,0-2.852.5-3.355,1.677a6.189,6.189,0,0,0-.5,2.852v7.716H3.9V40H7.926v2.852A8.919,8.919,0,0,1,9.6,40.674a4.683,4.683,0,0,1,3.019-1.006Z" transform="translate(-3.9 -34.132)"/>
        <path id="Path_1007" data-name="Path 1007" class="cls-5" d="M17.084,46.21a9.441,9.441,0,0,0,1.677-.335c.671-.335.839-.671.839-1.174,0-.671-.168-1.174-.671-1.342a3.632,3.632,0,0,0-2.013-.335,2.846,2.846,0,0,0-2.181.671,3.161,3.161,0,0,0-.671,1.51H10.039a7.978,7.978,0,0,1,1.174-3.523,7.187,7.187,0,0,1,5.7-2.181,10.213,10.213,0,0,1,4.7,1.006q2.013,1.006,2.013,4.026v9.226a1.955,1.955,0,0,0,.335,1.174,2.316,2.316,0,0,0,.671.5v.671H20.1c-.168-.335-.168-.671-.335-.839,0-.335-.168-.671-.168-1.006a9.731,9.731,0,0,1-2.013,1.677,6.424,6.424,0,0,1-3.187.839A5.421,5.421,0,0,1,10.71,55.6,4.333,4.333,0,0,1,9.2,52.081a4.864,4.864,0,0,1,2.348-4.361,8.887,8.887,0,0,1,3.69-1.006ZM19.6,48.223c-.335.168-.5.335-.839.335a4.267,4.267,0,0,0-1.174.335l-1.006.168a17.408,17.408,0,0,0-2.013.5,1.927,1.927,0,0,0-1.006,1.845,1.635,1.635,0,0,0,.671,1.51,2.05,2.05,0,0,0,1.51.5,4.12,4.12,0,0,0,2.516-.839,3.07,3.07,0,0,0,1.174-2.852v-1.51Z" transform="translate(-0.31 -34.132)"/>
        <path id="Path_1008" data-name="Path 1008" class="cls-5" d="M18.2,44.648V41.629h2.181V37.1h4.194v4.529h2.684v3.019H24.574V53.2a1.6,1.6,0,0,0,.335,1.174c.168.168.671.168,1.51.168h.839v3.187H25.245q-3.019,0-4.026-1.006a2.846,2.846,0,0,1-.671-2.181v-9.9Z" transform="translate(5.787 -35.758)"/>
        <path id="Path_1009" data-name="Path 1009" class="cls-5" d="M28.661,40.158H24.3V36.3h4.361Zm-4.194,2.013h4.361v16.1H24.468Z" transform="translate(9.92 -36.3)"/>
        <path id="Path_1010" data-name="Path 1010" class="cls-5" d="M42.326,54.094c-1.342,1.677-3.355,2.516-6.207,2.516s-4.865-.839-6.207-2.516a10.065,10.065,0,0,1,0-12.078c1.342-1.677,3.355-2.516,6.207-2.516s4.865.839,6.207,2.516a10.065,10.065,0,0,1,0,12.078Zm-3.355-2.348a6.026,6.026,0,0,0,1.006-3.69,5.7,5.7,0,0,0-1.006-3.69,3.7,3.7,0,0,0-5.7,0,6.027,6.027,0,0,0-1.006,3.69,5.7,5.7,0,0,0,1.006,3.69,3.7,3.7,0,0,0,5.7,0Z" transform="translate(12.358 -34.132)"/>
        <path id="Path_1011" data-name="Path 1011" class="cls-5" d="M51.616,40.842c1.006.839,1.51,2.348,1.51,4.361v10.9H48.765v-9.9a6.256,6.256,0,0,0-.335-2.013c-.335-.839-1.174-1.174-2.348-1.174a2.938,2.938,0,0,0-2.852,1.845,5.729,5.729,0,0,0-.335,2.516v8.723H38.7V40h4.026v2.348a5.918,5.918,0,0,1,1.51-1.845A5.323,5.323,0,0,1,47.59,39.5,6.825,6.825,0,0,1,51.616,40.842Z" transform="translate(19.675 -34.132)"/>
        <path id="Path_1012" data-name="Path 1012" class="cls-5" d="M55.784,46.21a9.441,9.441,0,0,0,1.677-.335c.671-.335.839-.671.839-1.174,0-.671-.168-1.174-.671-1.342a3.632,3.632,0,0,0-2.013-.335,2.846,2.846,0,0,0-2.181.671,3.161,3.161,0,0,0-.671,1.51H48.739a7.978,7.978,0,0,1,1.174-3.523,7.187,7.187,0,0,1,5.7-2.181,10.213,10.213,0,0,1,4.7,1.006q2.013,1.006,2.013,4.026v9.226a1.955,1.955,0,0,0,.335,1.174,2.316,2.316,0,0,0,.671.5v.671H58.8c-.168-.335-.168-.671-.335-.839,0-.335-.168-.671-.168-1.006a9.731,9.731,0,0,1-2.013,1.677,6.424,6.424,0,0,1-3.187.839A5.421,5.421,0,0,1,49.41,55.6a4.333,4.333,0,0,1-1.51-3.523,4.864,4.864,0,0,1,2.348-4.361,8.887,8.887,0,0,1,3.69-1.006ZM58.3,48.223c-.335.168-.5.335-.839.335a10.692,10.692,0,0,1-1.174.335l-1.006.168a17.409,17.409,0,0,0-2.013.5,1.927,1.927,0,0,0-1.006,1.845,1.635,1.635,0,0,0,.671,1.51,2.05,2.05,0,0,0,1.51.5,4.12,4.12,0,0,0,2.516-.839,3.07,3.07,0,0,0,1.174-2.852v-1.51Z" transform="translate(25.907 -34.132)"/>
        <path id="Path_1013" data-name="Path 1013" class="cls-5" d="M62.194,58.207H58V36.4h4.194Z" transform="translate(32.749 -36.232)"/>
        <path id="Path_1014" data-name="Path 1014" class="cls-5" d="M86.4,39.942a5.244,5.244,0,0,1,1.845,1.51,2.778,2.778,0,0,1,.839,2.013,8.913,8.913,0,0,1,.168,2.348V56.045H84.887V45.813a3.35,3.35,0,0,0-.335-1.51,2.135,2.135,0,0,0-2.013-1.174,2.239,2.239,0,0,0-2.348,1.51,6.03,6.03,0,0,0-.335,1.845v9.561H75.661V46.484a4.818,4.818,0,0,0-.335-2.013A1.9,1.9,0,0,0,73.313,43.3,2.648,2.648,0,0,0,70.8,44.471a6.256,6.256,0,0,0-.335,2.013v9.729H66.1v-16.1h4.026v2.348a5.918,5.918,0,0,1,1.51-1.845,4.836,4.836,0,0,1,3.187-1.006,5.793,5.793,0,0,1,3.019.839,4.277,4.277,0,0,1,1.342,2.013A3.915,3.915,0,0,1,81.2,40.445a5.513,5.513,0,0,1,2.852-.671A2.775,2.775,0,0,1,86.4,39.942Z" transform="translate(38.237 -34.071)"/>
        <path id="Path_1015" data-name="Path 1015" class="cls-5" d="M85.761,40.158H81.4V36.3h4.361ZM81.4,42.171h4.361v16.1H81.4Z" transform="translate(48.601 -36.3)"/>
        <path id="Path_1016" data-name="Path 1016" class="cls-5" d="M98.516,40.842c1.006.839,1.51,2.348,1.51,4.361v10.9H95.665v-9.9a6.256,6.256,0,0,0-.335-2.013c-.335-.839-1.174-1.174-2.348-1.174a2.938,2.938,0,0,0-2.852,1.845,5.729,5.729,0,0,0-.335,2.516v8.723H85.6V40h4.026v2.348a5.918,5.918,0,0,1,1.51-1.845A5.323,5.323,0,0,1,94.49,39.5,6.825,6.825,0,0,1,98.516,40.842Z" transform="translate(51.447 -34.132)"/>
        <path id="Path_1017" data-name="Path 1017" class="cls-5" d="M104.661,42.271a4.873,4.873,0,0,1,1.845,1.845V36.4h4.361V58.207h-4.194V56.026a5.7,5.7,0,0,1-2.013,2.013,5.14,5.14,0,0,1-2.852.671,5.878,5.878,0,0,1-4.7-2.348A8.6,8.6,0,0,1,95.1,50.49a11.184,11.184,0,0,1,1.845-6.542,6.533,6.533,0,0,1,5.032-2.348A7.033,7.033,0,0,1,104.661,42.271Zm1.006,11.574a5.5,5.5,0,0,0,1.006-3.523c0-2.013-.5-3.355-1.51-4.194a3.533,3.533,0,0,0-2.181-.839,3.047,3.047,0,0,0-2.684,1.342,7.283,7.283,0,0,0-.839,3.523,6.817,6.817,0,0,0,.839,3.523,3.26,3.26,0,0,0,2.684,1.342A2.756,2.756,0,0,0,105.668,53.845Z" transform="translate(57.882 -36.232)"/>
      </g>
    </g>
  </g>
</svg>
