<svg xmlns="http://www.w3.org/2000/svg" viewBox="0 0 937.609 496.266">
  <defs>
    <style>
      .cls-1 {
        fill: #25333e;
      }
    </style>
  </defs>
  <g id="Group_334" data-name="Group 334" transform="translate(0 0)">
    <path id="Path_492" data-name="Path 492" class="cls-1" d="M77.153,235.229H0V.5H77.153V103.807L138.615.5h89.576L149.73,109.692l84.346,125.538H145.153l-68-109.845Z" transform="translate(0 2.769)"/>
    <path id="Path_493" data-name="Path 493" class="cls-1" d="M115.761.5V235.229H37.3V.5Z" transform="translate(206.583 2.769)"/>
    <path id="Path_494" data-name="Path 494" class="cls-1" d="M51.6.5h77.153V167.23h99.384v68.653H51.6Z" transform="translate(285.782 2.769)"/>
    <path id="Path_495" data-name="Path 495" class="cls-1" d="M80.7.5h77.153V167.23h99.384v68.653H80.7Z" transform="translate(446.95 2.769)"/>
    <path id="Path_496" data-name="Path 496" class="cls-1" d="M217.038,80.423c0-8.5-6.538-17-18.308-17-18.308,0-32.038,23.538-32.038,23.538L117,53.615S136.615,0,206.576,0c48.384,0,83.038,32.038,83.038,71.923,0,34-16.346,56.884-47.077,82.384l-26.154,21.577h71.269V238H123.538V181.114l74.538-69.961C213.115,97.422,217.038,90.23,217.038,80.423Z" transform="translate(647.995)"/>
    <path id="Path_497" data-name="Path 497" class="cls-1" d="M193.537,101.615c0,20.923-10.461,38.577-28.769,50.346,23.538,10.461,38.577,30.731,38.577,55.577,0,37.923-34,66.692-81.73,66.692H0V39.5H115.076C162.807,39.5,193.537,64.346,193.537,101.615ZM116.384,112.73c0-9.154-5.231-15.692-19.615-15.692H76.5v31.384H96.769C111.153,128.422,116.384,121.884,116.384,112.73ZM105.922,217.345c14.385,0,20.923-8.5,20.923-18.308s-6.538-18.308-20.923-18.308H76.5v35.961h29.423Z" transform="translate(0 218.768)"/>
    <path id="Path_498" data-name="Path 498" class="cls-1" d="M110.961,39.5V274.229H32.5V39.5Z" transform="translate(179.999 218.768)"/>
    <path id="Path_499" data-name="Path 499" class="cls-1" d="M158.707,39.5c53.615,0,90.884,32.692,90.884,81.076,0,32.692-15.692,55.577-38.577,69.961L259.4,274.229H172.438l-35.961-69.961H123.4v69.961H46.9V39.5ZM123.4,146.73h24.846c16.346,0,25.5-8.5,25.5-22.231s-9.154-22.231-25.5-22.231H123.4V146.73Z" transform="translate(259.752 218.768)"/>
    <path id="Path_500" data-name="Path 500" class="cls-1" d="M304.414,155.884c0,66.692-57.538,118.345-132.73,118.345H80.8V39.5h92.846C248.837,39.5,304.414,89.192,304.414,155.884ZM174.953,208.191c30.731,0,53.615-20.923,53.615-51.654s-22.884-51.654-53.615-51.654h-17V207.537h17Z" transform="translate(447.504 218.768)"/>
    <path id="Path_501" data-name="Path 501" class="cls-1" d="M301.853,203.768c0,41.846-38.577,76.5-91.538,76.5-62.769,0-96.115-38.577-96.115-38.577l44.461-47.73s25.5,25.5,53.615,25.5c7.192,0,11.115-3.923,11.115-7.846,0-5.885-4.577-12.423-39.884-27.461-31.384-13.731-54.923-34.654-54.923-71.923,0-43.154,34.654-73.23,88.269-73.23S303.16,72.346,303.16,72.346L258.7,119.423s-18.961-19.615-41.192-19.615c-7.192,0-11.115,3.269-11.115,7.192,0,6.538,3.923,9.154,32.038,21.577C265.891,141.653,301.853,163.884,301.853,203.768Z" transform="translate(632.488 215.998)"/>
  </g>
</svg>
