<svg id="Group_1335" data-name="Group 1335" xmlns="http://www.w3.org/2000/svg" viewBox="0 0 1315.5 382.6">
  <defs>
    <style>
      .cls-1 {
        fill: #404041;
      }
    </style>
  </defs>
  <path id="Path_2042" data-name="Path 2042" class="cls-1" d="M1313.4,4.2H2.1A2.051,2.051,0,0,1,0,2.1,2.051,2.051,0,0,1,2.1,0H1313.4a2.051,2.051,0,0,1,2.1,2.1A2.051,2.051,0,0,1,1313.4,4.2Z"/>
  <path id="Path_2043" data-name="Path 2043" class="cls-1" d="M1313.4,22h-3.2a1.1,1.1,0,0,1,0-2.2h3.2a1.1,1.1,0,0,1,0,2.2Zm-9.5,0h-6.4a1.1,1.1,0,0,1,0-2.2h6.4a1.1,1.1,0,0,1,0,2.2Zm-12.7,0h-6.4a1.1,1.1,0,0,1,0-2.2h6.4a1.1,1.1,0,0,1,0,2.2Zm-12.7,0h-6.4a1.1,1.1,0,0,1,0-2.2h6.4a1.1,1.1,0,0,1,0,2.2Zm-12.7,0h-6.4a1.1,1.1,0,0,1,0-2.2h6.4a1.1,1.1,0,0,1,0,2.2Zm-12.7,0h-6.4a1.1,1.1,0,0,1,0-2.2h6.4a1.1,1.1,0,0,1,0,2.2Zm-12.7,0H1234a1.1,1.1,0,0,1,0-2.2h6.4a1.1,1.1,0,0,1,0,2.2Zm-12.7,0h-6.4a1.1,1.1,0,0,1,0-2.2h6.4a1.1,1.1,0,0,1,0,2.2ZM1215,22h-6.4a1.1,1.1,0,0,1,0-2.2h6.4a1.1,1.1,0,0,1,0,2.2Zm-12.7,0h-6.4a1.1,1.1,0,0,1,0-2.2h6.4a1.1,1.1,0,0,1,0,2.2Zm-12.7,0h-6.4a1.1,1.1,0,0,1,0-2.2h6.4a1.1,1.1,0,0,1,0,2.2Zm-12.7,0h-6.4a1.1,1.1,0,0,1,0-2.2h6.4a1.1,1.1,0,0,1,0,2.2Zm-12.7,0h-6.3a1.1,1.1,0,0,1,0-2.2h6.3a1.1,1.1,0,0,1,0,2.2Zm-12.7,0h-6.4a1.1,1.1,0,0,1,0-2.2h6.4a1.1,1.1,0,0,1,0,2.2Zm-12.7,0h-6.3a1.1,1.1,0,0,1,0-2.2h6.3a1.1,1.1,0,0,1,0,2.2Zm-12.7,0h-6.3a1.1,1.1,0,0,1,0-2.2h6.3a1.1,1.1,0,0,1,0,2.2Zm-12.7,0h-6.3a1.1,1.1,0,0,1,0-2.2h6.3a1.1,1.1,0,0,1,0,2.2Zm-12.7,0h-6.3a1.1,1.1,0,0,1,0-2.2h6.3a1.1,1.1,0,0,1,0,2.2ZM1088,22h-6.3a1.1,1.1,0,0,1,0-2.2h6.3a1.1,1.1,0,0,1,0,2.2Zm-12.7,0H1069a1.1,1.1,0,0,1,0-2.2h6.3a1.1,1.1,0,0,1,0,2.2Zm-12.7,0h-6.3a1.1,1.1,0,0,1,0-2.2h6.3a1.1,1.1,0,0,1,0,2.2Zm-12.7,0h-6.3a1.1,1.1,0,0,1,0-2.2h6.3a1.1,1.1,0,0,1,0,2.2Zm-12.7,0h-6.3a1.1,1.1,0,0,1,0-2.2h6.3a1.1,1.1,0,0,1,0,2.2Zm-12.7,0h-6.3a1.1,1.1,0,0,1,0-2.2h6.3a1.1,1.1,0,0,1,0,2.2Zm-12.7,0h-6.3a1.1,1.1,0,0,1,0-2.2h6.3a1.1,1.1,0,0,1,0,2.2Zm-12.7,0h-6.4a1.1,1.1,0,0,1,0-2.2h6.4a1.1,1.1,0,0,1,0,2.2Zm-12.7,0H980a1.1,1.1,0,0,1,0-2.2h6.4a1.1,1.1,0,0,1,0,2.2Zm-12.7,0h-6.4a1.1,1.1,0,0,1,0-2.2h6.4a1.1,1.1,0,0,1,0,2.2ZM961,22h-6.4a1.1,1.1,0,0,1,0-2.2H961a1.1,1.1,0,0,1,0,2.2Zm-12.7,0h-6.4a1.1,1.1,0,0,1,0-2.2h6.4a1.1,1.1,0,0,1,0,2.2Zm-12.7,0h-6.4a1.1,1.1,0,0,1,0-2.2h6.4a1.1,1.1,0,0,1,0,2.2Zm-12.7,0h-6.4a1.1,1.1,0,0,1,0-2.2h6.4a1.1,1.1,0,0,1,0,2.2Zm-12.7,0h-6.4a1.1,1.1,0,0,1,0-2.2h6.4a1.1,1.1,0,0,1,0,2.2Zm-12.7,0h-6.4a1.1,1.1,0,0,1,0-2.2h6.4a1.1,1.1,0,0,1,0,2.2Zm-12.7,0h-6.4a1.1,1.1,0,0,1,0-2.2h6.4a1.1,1.1,0,0,1,0,2.2Zm-12.7,0h-6.4a1.1,1.1,0,0,1,0-2.2h6.4a1.1,1.1,0,0,1,0,2.2Zm-12.7,0H853a1.1,1.1,0,0,1,0-2.2h6.4a1.1,1.1,0,0,1,0,2.2Zm-12.7,0h-6.4a1.1,1.1,0,0,1,0-2.2h6.4a1.1,1.1,0,0,1,0,2.2ZM834,22h-6.4a1.1,1.1,0,0,1,0-2.2H834a1.1,1.1,0,0,1,0,2.2Zm-12.7,0H815a1.1,1.1,0,0,1,0-2.2h6.3a1.1,1.1,0,0,1,0,2.2Zm-12.7,0h-6.3a1.1,1.1,0,0,1,0-2.2h6.3a1.1,1.1,0,0,1,0,2.2Zm-12.7,0h-6.3a1.1,1.1,0,0,1,0-2.2h6.3a1.1,1.1,0,0,1,0,2.2Zm-12.7,0h-6.3a1.1,1.1,0,0,1,0-2.2h6.3a1.1,1.1,0,0,1,0,2.2Zm-12.7,0h-6.3a1.1,1.1,0,0,1,0-2.2h6.3a1.1,1.1,0,0,1,0,2.2Zm-12.7,0h-6.3a1.1,1.1,0,0,1,0-2.2h6.3a1.1,1.1,0,0,1,0,2.2Zm-12.7,0h-6.3a1.1,1.1,0,0,1,0-2.2h6.3a1.1,1.1,0,0,1,0,2.2Zm-12.7,0H726a1.1,1.1,0,0,1,0-2.2h6.3a1.11,1.11,0,0,1,1.1,1.1A1.028,1.028,0,0,1,732.4,22Zm-12.7,0h-6.3a1.1,1.1,0,0,1,0-2.2h6.3a1.1,1.1,0,0,1,0,2.2ZM707,22h-6.4a1.1,1.1,0,0,1,0-2.2H707a1.1,1.1,0,0,1,0,2.2Zm-12.7,0h-6.4a1.1,1.1,0,0,1,0-2.2h6.4a1.1,1.1,0,0,1,0,2.2Zm-12.7,0h-6.4a1.1,1.1,0,0,1,0-2.2h6.4a1.1,1.1,0,0,1,0,2.2Zm-12.7,0h-6.4a1.1,1.1,0,0,1,0-2.2h6.4a1.1,1.1,0,0,1,0,2.2Zm-12.7,0h-6.4a1.1,1.1,0,0,1,0-2.2h6.4a1.1,1.1,0,0,1,0,2.2Zm-12.7,0h-6.4a1.1,1.1,0,0,1,0-2.2h6.4a1.1,1.1,0,0,1,0,2.2Zm-12.7,0h-6.4a1.1,1.1,0,0,1,0-2.2h6.4a1.1,1.1,0,0,1,0,2.2Zm-12.7,0h-6.4a1.1,1.1,0,0,1,0-2.2h6.4a1.1,1.1,0,0,1,0,2.2Zm-12.7,0H599a1.1,1.1,0,0,1,0-2.2h6.4a1.1,1.1,0,0,1,0,2.2Zm-12.7,0h-6.4a1.1,1.1,0,0,1,0-2.2h6.4a1.1,1.1,0,0,1,0,2.2ZM580,22h-6.4a1.1,1.1,0,0,1,0-2.2H580a1.1,1.1,0,0,1,0,2.2Zm-12.7,0h-6.4a1.1,1.1,0,0,1,0-2.2h6.4a1.1,1.1,0,0,1,0,2.2Zm-12.7,0h-6.4a1.1,1.1,0,0,1,0-2.2h6.4a1.1,1.1,0,0,1,0,2.2Zm-12.7,0h-6.4a1.1,1.1,0,0,1,0-2.2h6.4a1.1,1.1,0,0,1,0,2.2Zm-12.7,0h-6.4a1.1,1.1,0,0,1,0-2.2h6.4a1.1,1.1,0,0,1,0,2.2Zm-12.7,0h-6.4a1.1,1.1,0,1,1,0-2.2h6.4a1.1,1.1,0,0,1,0,2.2Zm-12.7,0h-6.4a1.1,1.1,0,1,1,0-2.2h6.4a1.1,1.1,0,1,1,0,2.2Zm-12.7,0h-6.4a1.1,1.1,0,1,1,0-2.2h6.4a1.1,1.1,0,1,1,0,2.2Zm-12.7,0H472a1.1,1.1,0,1,1,0-2.2h6.4a1.1,1.1,0,1,1,0,2.2Zm-12.7,0h-6.4a1.1,1.1,0,1,1,0-2.2h6.4a1.1,1.1,0,1,1,0,2.2ZM453,22h-6.4a1.1,1.1,0,1,1,0-2.2H453a1.1,1.1,0,1,1,0,2.2Zm-12.7,0h-6.4a1.1,1.1,0,1,1,0-2.2h6.4a1.1,1.1,0,1,1,0,2.2Zm-12.7,0h-6.4a1.1,1.1,0,1,1,0-2.2h6.4a1.1,1.1,0,1,1,0,2.2Zm-12.7,0h-6.3a1.1,1.1,0,1,1,0-2.2h6.3a1.1,1.1,0,1,1,0,2.2Zm-12.7,0h-6.4a1.1,1.1,0,1,1,0-2.2h6.4a1.1,1.1,0,1,1,0,2.2Zm-12.7,0h-6.4a1.1,1.1,0,1,1,0-2.2h6.4a1.1,1.1,0,1,1,0,2.2Zm-12.7,0h-6.4a1.1,1.1,0,1,1,0-2.2h6.4a1.1,1.1,0,1,1,0,2.2Zm-12.7,0h-6.4a1.1,1.1,0,1,1,0-2.2h6.4a1.1,1.1,0,1,1,0,2.2Zm-12.7,0H345a1.1,1.1,0,1,1,0-2.2h6.4a1.1,1.1,0,1,1,0,2.2Zm-12.7,0h-6.4a1.1,1.1,0,1,1,0-2.2h6.4a1.1,1.1,0,1,1,0,2.2ZM326,22h-6.4a1.1,1.1,0,1,1,0-2.2H326a1.1,1.1,0,1,1,0,2.2Zm-12.7,0h-6.4a1.1,1.1,0,1,1,0-2.2h6.4a1.1,1.1,0,1,1,0,2.2Zm-12.7,0h-6.4a1.1,1.1,0,1,1,0-2.2h6.4a1.1,1.1,0,1,1,0,2.2Zm-12.7,0h-6.4a1.1,1.1,0,1,1,0-2.2h6.4a1.1,1.1,0,1,1,0,2.2Zm-12.7,0h-6.4a1.1,1.1,0,1,1,0-2.2h6.4a1.1,1.1,0,1,1,0,2.2Zm-12.7,0h-6.4a1.1,1.1,0,1,1,0-2.2h6.4a1.1,1.1,0,1,1,0,2.2Zm-12.7,0h-6.4a1.1,1.1,0,1,1,0-2.2h6.4a1.1,1.1,0,1,1,0,2.2Zm-12.7,0h-6.4a1.1,1.1,0,1,1,0-2.2h6.4a1.1,1.1,0,1,1,0,2.2Zm-12.7,0H218a1.1,1.1,0,1,1,0-2.2h6.4a1.1,1.1,0,1,1,0,2.2Zm-12.7,0h-6.4a1.1,1.1,0,1,1,0-2.2h6.4a1.1,1.1,0,1,1,0,2.2ZM199,22h-6.4a1.1,1.1,0,1,1,0-2.2H199a1.1,1.1,0,1,1,0,2.2Zm-12.7,0h-6.4a1.1,1.1,0,1,1,0-2.2h6.4a1.1,1.1,0,1,1,0,2.2Zm-12.7,0h-6.4a1.1,1.1,0,1,1,0-2.2h6.4a1.1,1.1,0,1,1,0,2.2Zm-12.7,0h-6.4a1.1,1.1,0,1,1,0-2.2h6.4a1.1,1.1,0,1,1,0,2.2Zm-12.7,0h-6.4a1.1,1.1,0,1,1,0-2.2h6.4a1.1,1.1,0,1,1,0,2.2Zm-12.7,0h-6.4a1.1,1.1,0,1,1,0-2.2h6.4a1.1,1.1,0,1,1,0,2.2Zm-12.7,0h-6.4a1.1,1.1,0,0,1,0-2.2h6.4a1.1,1.1,0,0,1,0,2.2Zm-12.7,0h-6.4a1.1,1.1,0,0,1,0-2.2h6.4a1.1,1.1,0,0,1,0,2.2ZM97.4,22H91a1.1,1.1,0,0,1,0-2.2h6.4a1.1,1.1,0,0,1,0,2.2ZM84.7,22H78.3a1.1,1.1,0,0,1,0-2.2h6.4a1.1,1.1,0,0,1,0,2.2ZM72,22H65.6a1.1,1.1,0,0,1,0-2.2H72A1.1,1.1,0,0,1,72,22ZM59.3,22H52.9a1.1,1.1,0,0,1,0-2.2h6.4a1.1,1.1,0,0,1,0,2.2ZM46.6,22H40.2a1.1,1.1,0,0,1,0-2.2h6.4a1.1,1.1,0,0,1,0,2.2ZM33.9,22H27.5a1.1,1.1,0,1,1,0-2.2h6.4a1.1,1.1,0,0,1,0,2.2ZM21.2,22H14.8a1.1,1.1,0,1,1,0-2.2h6.4a1.1,1.1,0,1,1,0,2.2ZM8.5,22H2.1a1.1,1.1,0,0,1,0-2.2H8.5a1.1,1.1,0,0,1,0,2.2Z"/>
  <path id="Path_2044" data-name="Path 2044" class="cls-1" d="M1212.1,289H103.4a2.1,2.1,0,0,1,0-4.2H1212.1a2.1,2.1,0,0,1,0,4.2Z"/>
  <path id="Path_2045" data-name="Path 2045" class="cls-1" d="M1123.1,305.8h-3.6a1.1,1.1,0,0,1,0-2.2h3.6a1.1,1.1,0,0,1,0,2.2Zm-10,0h-6.4a1.1,1.1,0,0,1,0-2.2h6.4a1.1,1.1,0,0,1,0,2.2Zm-12.7,0H1094a1.1,1.1,0,0,1,0-2.2h6.4a1.1,1.1,0,0,1,0,2.2Zm-12.7,0h-6.4a1.1,1.1,0,0,1,0-2.2h6.4a1.1,1.1,0,0,1,0,2.2Zm-12.7,0h-6.4a1.1,1.1,0,0,1,0-2.2h6.4a1.1,1.1,0,0,1,0,2.2Zm-12.7,0h-6.4a1.1,1.1,0,0,1,0-2.2h6.4a1.1,1.1,0,0,1,0,2.2Zm-12.7,0h-6.4a1.1,1.1,0,0,1,0-2.2h6.4a1.1,1.1,0,0,1,0,2.2Zm-12.7,0h-6.4a1.1,1.1,0,0,1,0-2.2h6.4a1.1,1.1,0,0,1,0,2.2Zm-12.7,0h-6.4a1.1,1.1,0,0,1,0-2.2h6.4a1.1,1.1,0,0,1,0,2.2Zm-12.7,0h-6.4a1.1,1.1,0,0,1,0-2.2h6.4a1.1,1.1,0,0,1,0,2.2Zm-12.7,0h-6.4a1.1,1.1,0,0,1,0-2.2h6.4a1.1,1.1,0,0,1,0,2.2Zm-12.7,0h-6.4a1.1,1.1,0,0,1,0-2.2h6.4a1.1,1.1,0,0,1,0,2.2Zm-12.7,0H967a1.1,1.1,0,0,1,0-2.2h6.4a1.1,1.1,0,0,1,0,2.2Zm-12.7,0h-6.4a1.1,1.1,0,0,1,0-2.2h6.4a1.1,1.1,0,0,1,0,2.2Zm-12.7,0h-6.4a1.1,1.1,0,0,1,0-2.2H948a1.1,1.1,0,0,1,0,2.2Zm-12.7,0H929a1.1,1.1,0,0,1,0-2.2h6.4a1.11,1.11,0,0,1,1.1,1.1A1.2,1.2,0,0,1,935.3,305.8Zm-12.7,0h-6.4a1.1,1.1,0,0,1,0-2.2h6.4a1.1,1.1,0,0,1,0,2.2Zm-12.7,0h-6.4a1.1,1.1,0,0,1,0-2.2h6.4a1.1,1.1,0,0,1,0,2.2Zm-12.7,0h-6.4a1.1,1.1,0,0,1,0-2.2h6.4a1.1,1.1,0,0,1,0,2.2Zm-12.7,0h-6.4a1.1,1.1,0,0,1,0-2.2h6.4a1.1,1.1,0,0,1,0,2.2Zm-12.7,0h-6.4a1.1,1.1,0,0,1,0-2.2h6.4a1.1,1.1,0,0,1,0,2.2Zm-12.7,0h-6.4a1.1,1.1,0,0,1,0-2.2h6.4a1.1,1.1,0,0,1,0,2.2Zm-12.7,0H840a1.1,1.1,0,0,1,0-2.2h6.4a1.1,1.1,0,0,1,0,2.2Zm-12.7,0h-6.4a1.1,1.1,0,0,1,0-2.2h6.4a1.1,1.1,0,0,1,0,2.2Zm-12.7,0h-6.4a1.1,1.1,0,0,1,0-2.2H821a1.1,1.1,0,0,1,0,2.2Zm-12.7,0H802a1.1,1.1,0,0,1,0-2.2h6.4a1.11,1.11,0,0,1,1.1,1.1A1.2,1.2,0,0,1,808.3,305.8Zm-12.7,0h-6.4a1.1,1.1,0,0,1,0-2.2h6.4a1.1,1.1,0,0,1,0,2.2Zm-12.7,0h-6.4a1.1,1.1,0,0,1,0-2.2h6.4a1.1,1.1,0,0,1,0,2.2Zm-12.7,0h-6.4a1.1,1.1,0,0,1,0-2.2h6.4a1.1,1.1,0,0,1,0,2.2Zm-12.7,0h-6.4a1.1,1.1,0,0,1,0-2.2h6.4a1.1,1.1,0,0,1,0,2.2Zm-12.7,0h-6.4a1.1,1.1,0,0,1,0-2.2h6.4a1.1,1.1,0,0,1,0,2.2Zm-12.7,0h-6.4a1.1,1.1,0,0,1,0-2.2h6.4a1.1,1.1,0,0,1,0,2.2Zm-12.7,0H713a1.1,1.1,0,0,1,0-2.2h6.4a1.1,1.1,0,0,1,0,2.2Zm-12.7,0h-6.4a1.1,1.1,0,0,1,0-2.2h6.4a1.1,1.1,0,0,1,0,2.2Zm-12.7,0h-6.4a1.1,1.1,0,0,1,0-2.2H694a1.1,1.1,0,0,1,0,2.2Zm-12.7,0H675a1.1,1.1,0,0,1,0-2.2h6.4a1.11,1.11,0,0,1,1.1,1.1A1.2,1.2,0,0,1,681.3,305.8Zm-12.7,0h-6.4a1.1,1.1,0,0,1,0-2.2h6.4a1.1,1.1,0,0,1,0,2.2Zm-12.7,0h-6.4a1.1,1.1,0,0,1,0-2.2h6.4a1.1,1.1,0,0,1,0,2.2Zm-12.7,0h-6.4a1.1,1.1,0,0,1,0-2.2h6.4a1.1,1.1,0,0,1,0,2.2Zm-12.7,0h-6.4a1.1,1.1,0,0,1,0-2.2h6.4a1.1,1.1,0,0,1,0,2.2Zm-12.7,0h-6.4a1.1,1.1,0,0,1,0-2.2h6.4a1.1,1.1,0,0,1,0,2.2Zm-12.7,0h-6.4a1.1,1.1,0,0,1,0-2.2h6.4a1.1,1.1,0,0,1,0,2.2Zm-12.7,0H586a1.1,1.1,0,0,1,0-2.2h6.4a1.1,1.1,0,0,1,0,2.2Zm-12.7,0h-6.4a1.1,1.1,0,0,1,0-2.2h6.4a1.1,1.1,0,0,1,0,2.2Zm-12.7,0h-6.4a1.1,1.1,0,0,1,0-2.2H567a1.1,1.1,0,0,1,0,2.2Zm-12.7,0H548a1.1,1.1,0,0,1,0-2.2h6.4a1.11,1.11,0,0,1,1.1,1.1A1.2,1.2,0,0,1,554.3,305.8Zm-12.7,0h-6.4a1.1,1.1,0,0,1,0-2.2h6.4a1.1,1.1,0,0,1,0,2.2Zm-12.7,0h-6.4a1.1,1.1,0,0,1,0-2.2h6.4a1.1,1.1,0,0,1,0,2.2Zm-12.7,0h-6.4a1.1,1.1,0,1,1,0-2.2h6.4a1.1,1.1,0,0,1,0,2.2Zm-12.7,0h-6.4a1.1,1.1,0,1,1,0-2.2h6.4a1.1,1.1,0,1,1,0,2.2Zm-12.7,0h-6.4a1.1,1.1,0,0,1,0-2.2h6.4a1.1,1.1,0,0,1,0,2.2Zm-12.7,0h-6.4a1.1,1.1,0,0,1,0-2.2h6.4a1.1,1.1,0,0,1,0,2.2Zm-12.7,0H459a1.1,1.1,0,1,1,0-2.2h6.4a1.1,1.1,0,1,1,0,2.2Zm-12.7,0h-6.4a1.1,1.1,0,1,1,0-2.2h6.4a1.1,1.1,0,1,1,0,2.2Zm-12.7,0h-6.4a1.1,1.1,0,1,1,0-2.2H440a1.1,1.1,0,1,1,0,2.2Zm-12.7,0H421a1.1,1.1,0,1,1,0-2.2h6.4a1.11,1.11,0,0,1,1.1,1.1A1.2,1.2,0,0,1,427.3,305.8Zm-12.7,0h-6.4a1.1,1.1,0,0,1,0-2.2h6.4a1.1,1.1,0,0,1,0,2.2Zm-12.7,0h-6.4a1.1,1.1,0,1,1,0-2.2h6.4a1.1,1.1,0,1,1,0,2.2Zm-12.7,0h-6.4a1.1,1.1,0,1,1,0-2.2h6.4a1.1,1.1,0,1,1,0,2.2Zm-12.7,0h-6.4a1.1,1.1,0,1,1,0-2.2h6.4a1.1,1.1,0,1,1,0,2.2Zm-12.7,0h-6.4a1.1,1.1,0,0,1,0-2.2h6.4a1.1,1.1,0,0,1,0,2.2Zm-12.7,0h-6.4a1.1,1.1,0,0,1,0-2.2h6.4a1.1,1.1,0,0,1,0,2.2Zm-12.7,0H332a1.1,1.1,0,1,1,0-2.2h6.4a1.1,1.1,0,0,1,0,2.2Zm-12.7,0h-6.4a1.1,1.1,0,0,1,0-2.2h6.4a1.1,1.1,0,1,1,0,2.2Zm-12.7,0h-6.4a1.1,1.1,0,1,1,0-2.2H313a1.1,1.1,0,0,1,0,2.2Zm-12.7,0H294a1.1,1.1,0,1,1,0-2.2h6.4a1.11,1.11,0,0,1,1.1,1.1A1.2,1.2,0,0,1,300.3,305.8Zm-12.7,0h-6.4a1.1,1.1,0,0,1,0-2.2h6.4a1.1,1.1,0,0,1,0,2.2Zm-12.7,0h-6.4a1.1,1.1,0,1,1,0-2.2h6.4a1.1,1.1,0,1,1,0,2.2Zm-12.7,0h-6.4a1.1,1.1,0,0,1,0-2.2h6.4a1.1,1.1,0,1,1,0,2.2Zm-12.7,0h-6.4a1.1,1.1,0,0,1,0-2.2h6.4a1.1,1.1,0,0,1,0,2.2Zm-12.7,0h-6.4a1.1,1.1,0,0,1,0-2.2h6.4a1.1,1.1,0,0,1,0,2.2Zm-12.7,0h-6.4a1.1,1.1,0,0,1,0-2.2h6.4a1.1,1.1,0,0,1,0,2.2Zm-12.7,0H205a1.1,1.1,0,1,1,0-2.2h6.4a1.1,1.1,0,0,1,0,2.2Zm-12.7,0h-6.4a1.1,1.1,0,0,1,0-2.2h6.4a1.1,1.1,0,1,1,0,2.2Z"/>
  <g id="Group_1310" data-name="Group 1310">
    <path id="Path_2046" data-name="Path 2046" class="cls-1" d="M1108,88.2a52.2,52.2,0,1,1-52.2,52.2A52.237,52.237,0,0,1,1108,88.2m0-13.8a65.9,65.9,0,1,0,65.9,65.9A66.023,66.023,0,0,0,1108,74.4Z"/>
  </g>
  <g id="Group_1311" data-name="Group 1311">
    <path id="Path_2047" data-name="Path 2047" class="cls-1" d="M742.1,88.2a52.2,52.2,0,1,1-52.2,52.2,52.238,52.238,0,0,1,52.2-52.2m0-13.8A65.9,65.9,0,1,0,808,140.3a66.023,66.023,0,0,0-65.9-65.9Z"/>
  </g>
  <g id="Group_1312" data-name="Group 1312">
    <path id="Path_2048" data-name="Path 2048" class="cls-1" d="M1141.5,145.6a5.335,5.335,0,0,1-5.3-5.3,28.2,28.2,0,1,0-56.4,0,5.3,5.3,0,0,1-10.6,0,38.7,38.7,0,1,1,77.4,0A4.989,4.989,0,0,1,1141.5,145.6Z"/>
  </g>
  <g id="Group_1313" data-name="Group 1313">
    <path id="Path_2049" data-name="Path 2049" class="cls-1" d="M775.6,145.6a5.335,5.335,0,0,1-5.3-5.3,28.2,28.2,0,0,0-56.4,0,5.3,5.3,0,1,1-10.6,0,38.7,38.7,0,0,1,77.4,0A4.989,4.989,0,0,1,775.6,145.6Z"/>
  </g>
  <g id="Group_1314" data-name="Group 1314">
    <path id="Path_2050" data-name="Path 2050" class="cls-1" d="M238.7,203.8H222.4l-37.6-64.4-19.8,22v42.4H151.1V82.9H165v58.4l52.8-58.4h18.1l-41.3,45.7Z"/>
  </g>
  <g id="Group_1315" data-name="Group 1315">
    <path id="Path_2051" data-name="Path 2051" class="cls-1" d="M412.5,203.8H340V190.6h29.3V96.2H340V82.9h72.5V96.2H383.2v94.4h29.3Z"/>
  </g>
  <g id="Group_1316" data-name="Group 1316">
    <path id="Path_2052" data-name="Path 2052" class="cls-1" d="M553.2,203.8H519.7V82.9h31.5c15.1,0,40.3,4.1,40.3,31.5,0,10.4-4.4,18.7-12.3,23.9,12.5,5,19.4,15,19.4,28.5C598.7,190.3,582.1,203.8,553.2,203.8Zm-19.6-13.2h17.6c30.1,0,33.6-13.3,33.6-23.4,0-13.9-11.3-21-33.6-21H533.6Zm0-57.6h14.2c26.3,0,29.8-9.4,29.8-18.6,0-15.1-11.5-18.2-28.8-18.2H533.6Z"/>
  </g>
  <g id="Group_1317" data-name="Group 1317">
    <path id="Path_2053" data-name="Path 2053" class="cls-1" d="M970.4,203.8H954.2l-37.6-64.4-19.8,22v42.4H882.9V82.9h13.9v58.4l52.8-58.4h18.1l-41.3,45.7Z"/>
  </g>
  <g id="Group_1334" data-name="Group 1334">
    <g id="Group_1318" data-name="Group 1318">
      <path id="Path_2054" data-name="Path 2054" class="cls-1" d="M290.6,382.6c-10,0-16.6-8.2-16.6-20.5,0-12.1,6.8-20.3,17-20.3a13.71,13.71,0,0,1,10.5,4.9l1,1.2-3.6,3.9-1.4-1.6a8.7,8.7,0,0,0-6.6-3.2c-7.2,0-11.5,5.6-11.5,15s4.3,15.2,11.2,15.2c3.1,0,5.5-1.2,8-3.9l1.3-1.4,3.7,3.7-1.1,1.3A14.709,14.709,0,0,1,290.6,382.6Z"/>
    </g>
    <g id="Group_1319" data-name="Group 1319">
      <path id="Path_2055" data-name="Path 2055" class="cls-1" d="M347.7,381.9H342l-4.5-12.8h-12L321,381.9h-5.6l6.3-17.6v-.4h.1l7.7-21.5h4.1Zm-20.4-18h8.3l-1.8-5.3c-.8-2.4-1.6-4.5-2.3-6.7-.7,2.2-1.5,4.4-2.3,6.8Z"/>
    </g>
    <g id="Group_1320" data-name="Group 1320">
      <path id="Path_2056" data-name="Path 2056" class="cls-1" d="M370.7,381.9h-5.4V342.5h24.2v5.1H370.7v11.5h15.8v5.1H370.7Z"/>
    </g>
    <g id="Group_1321" data-name="Group 1321">
      <path id="Path_2057" data-name="Path 2057" class="cls-1" d="M432.4,381.9h-25V342.5h12l-7.7-6.9,3.7-4.1,9,9.1-1.6,1.9h9.1v5.1H412.8v10.8h16.1v5.2H412.8v13.2h19.6Z"/>
    </g>
    <g id="Group_1322" data-name="Group 1322">
      <path id="Path_2058" data-name="Path 2058" class="cls-1" d="M517.2,381.9H493.1v-5.1h9.4V347.6h-9.4v-5.1h24.1v5.1h-9.3v29.2h9.3Z"/>
    </g>
    <g id="Group_1323" data-name="Group 1323">
      <path id="Path_2059" data-name="Path 2059" class="cls-1" d="M586,381.9h-5.4V342.4h11.2c3.6,0,14.4,0,14.4,11.6,0,4.5-1.9,12-14.4,12H586Zm0-21h5.1c7.9,0,9.6-2.7,9.6-6.8,0-4.3-1.5-6.4-9.6-6.4H586Z"/>
    </g>
    <g id="Group_1324" data-name="Group 1324">
      <path id="Path_2060" data-name="Path 2060" class="cls-1" d="M651.6,381.9h-5.7l-4.5-12.8h-12l-4.5,12.8h-5.6l6.3-17.6v-.4h.1l7.7-21.5h4.1Zm-20.4-18h8.3l-1.8-5.2c-.8-2.4-1.6-4.5-2.3-6.8-.7,2.2-1.5,4.4-2.3,6.7Z"/>
    </g>
    <g id="Group_1325" data-name="Group 1325">
      <path id="Path_2061" data-name="Path 2061" class="cls-1" d="M679.4,382.6a18.074,18.074,0,0,1-13.8-6l-1.2-1.3,3.8-3.8,1.3,1.4a13.254,13.254,0,0,0,9.9,4.4c5,0,8.2-2.3,8.2-5.9,0-3.3-1.8-4.5-6-6.2l-5.6-2.5c-2.9-1.2-8.9-3.7-8.9-10.5,0-6,5.2-10.4,12.5-10.4a15.923,15.923,0,0,1,11.6,4.8l1.2,1.2-3.6,3.9-1.4-1.4a10.43,10.43,0,0,0-7.9-3.2c-4.3,0-7.1,2-7.1,5s2.6,4.3,5.7,5.6l5.6,2.5c3.4,1.4,9.2,3.9,9.2,11.1C692.9,378,687.3,382.6,679.4,382.6Z"/>
    </g>
    <g id="Group_1326" data-name="Group 1326">
      <path id="Path_2062" data-name="Path 2062" class="cls-1" d="M724.9,381.9h-5.4V347.6H706.8v-5.1h30.8v5.1H724.9Z"/>
    </g>
    <g id="Group_1327" data-name="Group 1327">
      <path id="Path_2063" data-name="Path 2063" class="cls-1" d="M777.7,381.9H753.6v-5.1h9.3V347.6h-9.3v-5.1h24.1v5.1h-9.3v29.2h9.3Z"/>
    </g>
    <g id="Group_1328" data-name="Group 1328">
      <path id="Path_2064" data-name="Path 2064" class="cls-1" d="M809.6,382.6a18.074,18.074,0,0,1-13.8-6l-1.2-1.3,3.8-3.8,1.3,1.4a13.254,13.254,0,0,0,9.9,4.4c5,0,8.2-2.3,8.2-5.9,0-3.3-1.8-4.5-6-6.2l-5.6-2.5c-2.9-1.2-8.9-3.7-8.9-10.5,0-6,5.2-10.4,12.5-10.4a15.923,15.923,0,0,1,11.6,4.8l1.2,1.2-3.6,3.9-1.4-1.4a10.43,10.43,0,0,0-7.9-3.2c-4.3,0-7.1,2-7.1,5s2.6,4.3,5.7,5.6l5.6,2.5c3.4,1.4,9.2,3.9,9.2,11.1C823.2,378,817.6,382.6,809.6,382.6Z"/>
    </g>
    <g id="Group_1329" data-name="Group 1329">
      <path id="Path_2065" data-name="Path 2065" class="cls-1" d="M853,382.6a18.074,18.074,0,0,1-13.8-6l-1.2-1.3,3.8-3.8,1.3,1.4a13.254,13.254,0,0,0,9.9,4.4c5,0,8.2-2.3,8.2-5.9,0-3.3-1.8-4.5-6-6.2l-5.6-2.5c-2.9-1.2-8.9-3.7-8.9-10.5,0-6,5.2-10.4,12.5-10.4a15.923,15.923,0,0,1,11.6,4.8l1.2,1.2-3.6,3.9-1.4-1.4a10.43,10.43,0,0,0-7.9-3.2c-4.3,0-7.1,2-7.1,5s2.6,4.3,5.7,5.6l5.6,2.5c3.4,1.4,9.2,3.9,9.2,11.1C866.6,378,861,382.6,853,382.6Z"/>
    </g>
    <g id="Group_1330" data-name="Group 1330">
      <path id="Path_2066" data-name="Path 2066" class="cls-1" d="M910,381.9H884.9V342.5h24.5v5.1H890.3v10.8h16.1v5.2H890.3v13.2H910Z"/>
    </g>
    <g id="Group_1331" data-name="Group 1331">
      <path id="Path_2067" data-name="Path 2067" class="cls-1" d="M954.9,381.9h-6.3L938.5,365h-5.2v16.9h-5.4V342.4h11.7c11,0,13.3,6,13.3,11.1,0,5.7-3.1,9.6-8.5,10.9Zm-21.6-22.1H939c7.6,0,8.5-3.6,8.5-6.3,0-3.5-1.4-5.9-8.5-5.9h-5.7Z"/>
    </g>
    <g id="Group_1332" data-name="Group 1332">
      <path id="Path_2068" data-name="Path 2068" class="cls-1" d="M994.8,381.9H970.7v-5.1H980V347.6h-9.3v-5.1h24.1v5.1h-9.4v29.2h9.4Z"/>
    </g>
    <g id="Group_1333" data-name="Group 1333">
      <path id="Path_2069" data-name="Path 2069" class="cls-1" d="M1042.3,381.9h-5.8l-4.5-12.8h-12l-4.5,12.8h-5.6l6.3-17.6v-.4h.1l7.7-21.5h4.1Zm-20.3-18h8.3l-1.8-5.2c-.8-2.4-1.6-4.5-2.3-6.8-.7,2.2-1.5,4.4-2.3,6.7Z"/>
    </g>
  </g>
</svg>
