<svg xmlns="http://www.w3.org/2000/svg" xmlns:xlink="http://www.w3.org/1999/xlink" viewBox="0 0 584 625">
  <defs>
    <style>
      .cls-1 {
        fill: #fff;
        stroke: #707070;
      }

      .cls-2 {
        clip-path: url(#clip-path);
      }

      .cls-3 {
        fill: #d0ecf6;
      }

      .cls-4 {
        fill: #f1f2f2;
        stroke: #b6a276;
        stroke-miterlimit: 10;
        stroke-width: 2px;
      }

      .cls-5 {
        fill: #b6a277;
      }
    </style>
    <clipPath id="clip-path">
      <rect id="Rectangle_310" data-name="Rectangle 310" class="cls-1" width="584" height="625" transform="translate(14 275)"/>
    </clipPath>
  </defs>
  <g id="Mask_Group_26" data-name="Mask Group 26" class="cls-2" transform="translate(-14 -275)">
    <g id="Group_1338" data-name="Group 1338" transform="translate(-0.1 464)">
      <rect id="Rectangle_305" data-name="Rectangle 305" class="cls-3" width="1918.3" height="46.1" transform="translate(1 100.3)"/>
      <rect id="Rectangle_306" data-name="Rectangle 306" class="cls-4" width="1918.2" height="69.1" transform="translate(1 36.2)"/>
      <rect id="Rectangle_307" data-name="Rectangle 307" class="cls-5" width="1918.3" height="11.5" transform="translate(1 65.1)"/>
      <rect id="Rectangle_308" data-name="Rectangle 308" class="cls-4" width="1918.3" height="69.1" transform="translate(1 141.6)"/>
      <rect id="Rectangle_309" data-name="Rectangle 309" class="cls-5" width="1918.3" height="11.5" transform="translate(1 170.6)"/>
      <g id="Group_1336" data-name="Group 1336">
        <circle id="Ellipse_293" data-name="Ellipse 293" class="cls-5" cx="7.1" cy="7.1" r="7.1" transform="translate(0.1 0)"/>
        <circle id="Ellipse_294" data-name="Ellipse 294" class="cls-5" cx="7.1" cy="7.1" r="7.1" transform="translate(17.3 0)"/>
        <circle id="Ellipse_295" data-name="Ellipse 295" class="cls-5" cx="7.1" cy="7.1" r="7.1" transform="translate(34.5 0)"/>
        <circle id="Ellipse_296" data-name="Ellipse 296" class="cls-5" cx="7.1" cy="7.1" r="7.1" transform="translate(51.6 0)"/>
        <circle id="Ellipse_297" data-name="Ellipse 297" class="cls-5" cx="7.1" cy="7.1" r="7.1" transform="translate(68.8 0)"/>
        <circle id="Ellipse_298" data-name="Ellipse 298" class="cls-5" cx="7.1" cy="7.1" r="7.1" transform="translate(86 0)"/>
        <circle id="Ellipse_299" data-name="Ellipse 299" class="cls-5" cx="7.1" cy="7.1" r="7.1" transform="translate(103.1 0)"/>
        <circle id="Ellipse_300" data-name="Ellipse 300" class="cls-5" cx="7.1" cy="7.1" r="7.1" transform="translate(120.3 0)"/>
        <circle id="Ellipse_301" data-name="Ellipse 301" class="cls-5" cx="7.1" cy="7.1" r="7.1" transform="translate(137.5 0)"/>
        <circle id="Ellipse_302" data-name="Ellipse 302" class="cls-5" cx="7.1" cy="7.1" r="7.1" transform="translate(154.7 0)"/>
        <circle id="Ellipse_303" data-name="Ellipse 303" class="cls-5" cx="7.1" cy="7.1" r="7.1" transform="translate(171.8 0)"/>
        <circle id="Ellipse_304" data-name="Ellipse 304" class="cls-5" cx="7.1" cy="7.1" r="7.1" transform="translate(189 0)"/>
        <circle id="Ellipse_305" data-name="Ellipse 305" class="cls-5" cx="7.1" cy="7.1" r="7.1" transform="translate(206.2 0)"/>
        <circle id="Ellipse_306" data-name="Ellipse 306" class="cls-5" cx="7.1" cy="7.1" r="7.1" transform="translate(223.3 0)"/>
        <circle id="Ellipse_307" data-name="Ellipse 307" class="cls-5" cx="7.1" cy="7.1" r="7.1" transform="translate(240.5 0)"/>
        <circle id="Ellipse_308" data-name="Ellipse 308" class="cls-5" cx="7.1" cy="7.1" r="7.1" transform="translate(257.7 0)"/>
        <circle id="Ellipse_309" data-name="Ellipse 309" class="cls-5" cx="7.1" cy="7.1" r="7.1" transform="translate(274.8 0)"/>
        <circle id="Ellipse_310" data-name="Ellipse 310" class="cls-5" cx="7.1" cy="7.1" r="7.1" transform="translate(292 0)"/>
        <circle id="Ellipse_311" data-name="Ellipse 311" class="cls-5" cx="7.1" cy="7.1" r="7.1" transform="translate(309.2 0)"/>
        <circle id="Ellipse_312" data-name="Ellipse 312" class="cls-5" cx="7.1" cy="7.1" r="7.1" transform="translate(326.3 0)"/>
        <circle id="Ellipse_313" data-name="Ellipse 313" class="cls-5" cx="7.1" cy="7.1" r="7.1" transform="translate(343.5 0)"/>
        <circle id="Ellipse_314" data-name="Ellipse 314" class="cls-5" cx="7.1" cy="7.1" r="7.1" transform="translate(360.7 0)"/>
        <circle id="Ellipse_315" data-name="Ellipse 315" class="cls-5" cx="7.1" cy="7.1" r="7.1" transform="translate(377.9 0)"/>
        <circle id="Ellipse_316" data-name="Ellipse 316" class="cls-5" cx="7.1" cy="7.1" r="7.1" transform="translate(395 0)"/>
        <circle id="Ellipse_317" data-name="Ellipse 317" class="cls-5" cx="7.1" cy="7.1" r="7.1" transform="translate(412.2 0)"/>
        <circle id="Ellipse_318" data-name="Ellipse 318" class="cls-5" cx="7.1" cy="7.1" r="7.1" transform="translate(429.4 0)"/>
        <circle id="Ellipse_319" data-name="Ellipse 319" class="cls-5" cx="7.1" cy="7.1" r="7.1" transform="translate(446.5 0)"/>
        <circle id="Ellipse_320" data-name="Ellipse 320" class="cls-5" cx="7.1" cy="7.1" r="7.1" transform="translate(463.7 0)"/>
        <circle id="Ellipse_321" data-name="Ellipse 321" class="cls-5" cx="7.1" cy="7.1" r="7.1" transform="translate(480.9 0)"/>
        <circle id="Ellipse_322" data-name="Ellipse 322" class="cls-5" cx="7.1" cy="7.1" r="7.1" transform="translate(498 0)"/>
        <circle id="Ellipse_323" data-name="Ellipse 323" class="cls-5" cx="7.1" cy="7.1" r="7.1" transform="translate(515.2 0)"/>
        <circle id="Ellipse_324" data-name="Ellipse 324" class="cls-5" cx="7.1" cy="7.1" r="7.1" transform="translate(532.4 0)"/>
        <circle id="Ellipse_325" data-name="Ellipse 325" class="cls-5" cx="7.1" cy="7.1" r="7.1" transform="translate(549.6 0)"/>
        <circle id="Ellipse_326" data-name="Ellipse 326" class="cls-5" cx="7.1" cy="7.1" r="7.1" transform="translate(566.7 0)"/>
        <circle id="Ellipse_327" data-name="Ellipse 327" class="cls-5" cx="7.1" cy="7.1" r="7.1" transform="translate(583.9 0)"/>
        <circle id="Ellipse_328" data-name="Ellipse 328" class="cls-5" cx="7.1" cy="7.1" r="7.1" transform="translate(601.1 0)"/>
        <circle id="Ellipse_329" data-name="Ellipse 329" class="cls-5" cx="7.1" cy="7.1" r="7.1" transform="translate(618.2 0)"/>
        <circle id="Ellipse_330" data-name="Ellipse 330" class="cls-5" cx="7.1" cy="7.1" r="7.1" transform="translate(635.4 0)"/>
        <circle id="Ellipse_331" data-name="Ellipse 331" class="cls-5" cx="7.1" cy="7.1" r="7.1" transform="translate(652.6 0)"/>
        <circle id="Ellipse_332" data-name="Ellipse 332" class="cls-5" cx="7.1" cy="7.1" r="7.1" transform="translate(669.7 0)"/>
        <circle id="Ellipse_333" data-name="Ellipse 333" class="cls-5" cx="7.1" cy="7.1" r="7.1" transform="translate(686.9 0)"/>
        <circle id="Ellipse_334" data-name="Ellipse 334" class="cls-5" cx="7.1" cy="7.1" r="7.1" transform="translate(704.1 0)"/>
        <circle id="Ellipse_335" data-name="Ellipse 335" class="cls-5" cx="7.1" cy="7.1" r="7.1" transform="translate(721.2 0)"/>
        <circle id="Ellipse_336" data-name="Ellipse 336" class="cls-5" cx="7.1" cy="7.1" r="7.1" transform="translate(738.4 0)"/>
        <circle id="Ellipse_337" data-name="Ellipse 337" class="cls-5" cx="7.1" cy="7.1" r="7.1" transform="translate(755.6 0)"/>
        <circle id="Ellipse_338" data-name="Ellipse 338" class="cls-5" cx="7.1" cy="7.1" r="7.1" transform="translate(772.8 0)"/>
        <circle id="Ellipse_339" data-name="Ellipse 339" class="cls-5" cx="7.1" cy="7.1" r="7.1" transform="translate(789.9 0)"/>
        <circle id="Ellipse_340" data-name="Ellipse 340" class="cls-5" cx="7.1" cy="7.1" r="7.1" transform="translate(807.1 0)"/>
        <circle id="Ellipse_341" data-name="Ellipse 341" class="cls-5" cx="7.1" cy="7.1" r="7.1" transform="translate(824.3 0)"/>
        <circle id="Ellipse_342" data-name="Ellipse 342" class="cls-5" cx="7.1" cy="7.1" r="7.1" transform="translate(841.4 0)"/>
        <circle id="Ellipse_343" data-name="Ellipse 343" class="cls-5" cx="7.1" cy="7.1" r="7.1" transform="translate(858.6 0)"/>
        <circle id="Ellipse_344" data-name="Ellipse 344" class="cls-5" cx="7.1" cy="7.1" r="7.1" transform="translate(875.8 0)"/>
        <circle id="Ellipse_345" data-name="Ellipse 345" class="cls-5" cx="7.1" cy="7.1" r="7.1" transform="translate(892.9 0)"/>
        <circle id="Ellipse_346" data-name="Ellipse 346" class="cls-5" cx="7.1" cy="7.1" r="7.1" transform="translate(910.1 0)"/>
        <circle id="Ellipse_347" data-name="Ellipse 347" class="cls-5" cx="7.1" cy="7.1" r="7.1" transform="translate(927.3 0)"/>
        <circle id="Ellipse_348" data-name="Ellipse 348" class="cls-5" cx="7.1" cy="7.1" r="7.1" transform="translate(944.4 0)"/>
        <circle id="Ellipse_349" data-name="Ellipse 349" class="cls-5" cx="7.1" cy="7.1" r="7.1" transform="translate(961.6 0)"/>
        <circle id="Ellipse_350" data-name="Ellipse 350" class="cls-5" cx="7.1" cy="7.1" r="7.1" transform="translate(978.8 0)"/>
        <circle id="Ellipse_351" data-name="Ellipse 351" class="cls-5" cx="7.1" cy="7.1" r="7.1" transform="translate(996 0)"/>
        <circle id="Ellipse_352" data-name="Ellipse 352" class="cls-5" cx="7.1" cy="7.1" r="7.1" transform="translate(1013.1 0)"/>
        <circle id="Ellipse_353" data-name="Ellipse 353" class="cls-5" cx="7.1" cy="7.1" r="7.1" transform="translate(1030.3 0)"/>
        <circle id="Ellipse_354" data-name="Ellipse 354" class="cls-5" cx="7.1" cy="7.1" r="7.1" transform="translate(1047.5 0)"/>
        <circle id="Ellipse_355" data-name="Ellipse 355" class="cls-5" cx="7.1" cy="7.1" r="7.1" transform="translate(1064.6 0)"/>
        <circle id="Ellipse_356" data-name="Ellipse 356" class="cls-5" cx="7.1" cy="7.1" r="7.1" transform="translate(1081.8 0)"/>
        <circle id="Ellipse_357" data-name="Ellipse 357" class="cls-5" cx="7.1" cy="7.1" r="7.1" transform="translate(1099 0)"/>
        <circle id="Ellipse_358" data-name="Ellipse 358" class="cls-5" cx="7.1" cy="7.1" r="7.1" transform="translate(1116.1 0)"/>
        <circle id="Ellipse_359" data-name="Ellipse 359" class="cls-5" cx="7.1" cy="7.1" r="7.1" transform="translate(1133.3 0)"/>
        <circle id="Ellipse_360" data-name="Ellipse 360" class="cls-5" cx="7.1" cy="7.1" r="7.1" transform="translate(1150.5 0)"/>
        <circle id="Ellipse_361" data-name="Ellipse 361" class="cls-5" cx="7.1" cy="7.1" r="7.1" transform="translate(1167.6 0)"/>
        <circle id="Ellipse_362" data-name="Ellipse 362" class="cls-5" cx="7.1" cy="7.1" r="7.1" transform="translate(1184.8 0)"/>
        <circle id="Ellipse_363" data-name="Ellipse 363" class="cls-5" cx="7.1" cy="7.1" r="7.1" transform="translate(1202 0)"/>
        <circle id="Ellipse_364" data-name="Ellipse 364" class="cls-5" cx="7.1" cy="7.1" r="7.1" transform="translate(1219.2 0)"/>
        <circle id="Ellipse_365" data-name="Ellipse 365" class="cls-5" cx="7.1" cy="7.1" r="7.1" transform="translate(1236.3 0)"/>
        <circle id="Ellipse_366" data-name="Ellipse 366" class="cls-5" cx="7.1" cy="7.1" r="7.1" transform="translate(1253.5 0)"/>
        <circle id="Ellipse_367" data-name="Ellipse 367" class="cls-5" cx="7.1" cy="7.1" r="7.1" transform="translate(1270.7 0)"/>
        <circle id="Ellipse_368" data-name="Ellipse 368" class="cls-5" cx="7.1" cy="7.1" r="7.1" transform="translate(1287.8 0)"/>
        <circle id="Ellipse_369" data-name="Ellipse 369" class="cls-5" cx="7.1" cy="7.1" r="7.1" transform="translate(1305 0)"/>
        <circle id="Ellipse_370" data-name="Ellipse 370" class="cls-5" cx="7.1" cy="7.1" r="7.1" transform="translate(1322.2 0)"/>
        <circle id="Ellipse_371" data-name="Ellipse 371" class="cls-5" cx="7.1" cy="7.1" r="7.1" transform="translate(1339.3 0)"/>
        <circle id="Ellipse_372" data-name="Ellipse 372" class="cls-5" cx="7.1" cy="7.1" r="7.1" transform="translate(1356.5 0)"/>
        <circle id="Ellipse_373" data-name="Ellipse 373" class="cls-5" cx="7.1" cy="7.1" r="7.1" transform="translate(1373.7 0)"/>
        <circle id="Ellipse_374" data-name="Ellipse 374" class="cls-5" cx="7.1" cy="7.1" r="7.1" transform="translate(1390.9 0)"/>
        <circle id="Ellipse_375" data-name="Ellipse 375" class="cls-5" cx="7.1" cy="7.1" r="7.1" transform="translate(1408 0)"/>
        <circle id="Ellipse_376" data-name="Ellipse 376" class="cls-5" cx="7.1" cy="7.1" r="7.1" transform="translate(1425.2 0)"/>
        <circle id="Ellipse_377" data-name="Ellipse 377" class="cls-5" cx="7.1" cy="7.1" r="7.1" transform="translate(1442.4 0)"/>
        <circle id="Ellipse_378" data-name="Ellipse 378" class="cls-5" cx="7.1" cy="7.1" r="7.1" transform="translate(1459.5 0)"/>
        <circle id="Ellipse_379" data-name="Ellipse 379" class="cls-5" cx="7.1" cy="7.1" r="7.1" transform="translate(1476.7 0)"/>
        <circle id="Ellipse_380" data-name="Ellipse 380" class="cls-5" cx="7.1" cy="7.1" r="7.1" transform="translate(1493.9 0)"/>
        <circle id="Ellipse_381" data-name="Ellipse 381" class="cls-5" cx="7.1" cy="7.1" r="7.1" transform="translate(1511 0)"/>
        <circle id="Ellipse_382" data-name="Ellipse 382" class="cls-5" cx="7.1" cy="7.1" r="7.1" transform="translate(1528.2 0)"/>
        <circle id="Ellipse_383" data-name="Ellipse 383" class="cls-5" cx="7.1" cy="7.1" r="7.1" transform="translate(1545.4 0)"/>
        <circle id="Ellipse_384" data-name="Ellipse 384" class="cls-5" cx="7.1" cy="7.1" r="7.1" transform="translate(1562.5 0)"/>
        <circle id="Ellipse_385" data-name="Ellipse 385" class="cls-5" cx="7.1" cy="7.1" r="7.1" transform="translate(1579.7 0)"/>
        <circle id="Ellipse_386" data-name="Ellipse 386" class="cls-5" cx="7.1" cy="7.1" r="7.1" transform="translate(1596.9 0)"/>
        <circle id="Ellipse_387" data-name="Ellipse 387" class="cls-5" cx="7.1" cy="7.1" r="7.1" transform="translate(1614.1 0)"/>
        <circle id="Ellipse_388" data-name="Ellipse 388" class="cls-5" cx="7.1" cy="7.1" r="7.1" transform="translate(1631.2 0)"/>
        <circle id="Ellipse_389" data-name="Ellipse 389" class="cls-5" cx="7.1" cy="7.1" r="7.1" transform="translate(1648.4 0)"/>
        <circle id="Ellipse_390" data-name="Ellipse 390" class="cls-5" cx="7.1" cy="7.1" r="7.1" transform="translate(1665.6 0)"/>
        <circle id="Ellipse_391" data-name="Ellipse 391" class="cls-5" cx="7.1" cy="7.1" r="7.1" transform="translate(1682.7 0)"/>
        <circle id="Ellipse_392" data-name="Ellipse 392" class="cls-5" cx="7.1" cy="7.1" r="7.1" transform="translate(1699.9 0)"/>
        <circle id="Ellipse_393" data-name="Ellipse 393" class="cls-5" cx="7.1" cy="7.1" r="7.1" transform="translate(1717.1 0)"/>
        <circle id="Ellipse_394" data-name="Ellipse 394" class="cls-5" cx="7.1" cy="7.1" r="7.1" transform="translate(1734.2 0)"/>
        <circle id="Ellipse_395" data-name="Ellipse 395" class="cls-5" cx="7.1" cy="7.1" r="7.1" transform="translate(1751.4 0)"/>
        <circle id="Ellipse_396" data-name="Ellipse 396" class="cls-5" cx="7.1" cy="7.1" r="7.1" transform="translate(1768.6 0)"/>
        <circle id="Ellipse_397" data-name="Ellipse 397" class="cls-5" cx="7.1" cy="7.1" r="7.1" transform="translate(1785.7 0)"/>
        <circle id="Ellipse_398" data-name="Ellipse 398" class="cls-5" cx="7.1" cy="7.1" r="7.1" transform="translate(1802.9 0)"/>
        <circle id="Ellipse_399" data-name="Ellipse 399" class="cls-5" cx="7.1" cy="7.1" r="7.1" transform="translate(1820.1 0)"/>
        <circle id="Ellipse_400" data-name="Ellipse 400" class="cls-5" cx="7.1" cy="7.1" r="7.1" transform="translate(1837.3 0)"/>
        <circle id="Ellipse_401" data-name="Ellipse 401" class="cls-5" cx="7.1" cy="7.1" r="7.1" transform="translate(1854.4 0)"/>
        <circle id="Ellipse_402" data-name="Ellipse 402" class="cls-5" cx="7.1" cy="7.1" r="7.1" transform="translate(1871.6 0)"/>
        <circle id="Ellipse_403" data-name="Ellipse 403" class="cls-5" cx="7.1" cy="7.1" r="7.1" transform="translate(1888.8 0)"/>
        <circle id="Ellipse_404" data-name="Ellipse 404" class="cls-5" cx="7.1" cy="7.1" r="7.1" transform="translate(1905.9 0)"/>
      </g>
      <g id="Group_1337" data-name="Group 1337">
        <circle id="Ellipse_405" data-name="Ellipse 405" class="cls-5" cx="7.1" cy="7.1" r="7.1" transform="translate(0.1 232.4)"/>
        <circle id="Ellipse_406" data-name="Ellipse 406" class="cls-5" cx="7.1" cy="7.1" r="7.1" transform="translate(17.3 232.4)"/>
        <circle id="Ellipse_407" data-name="Ellipse 407" class="cls-5" cx="7.1" cy="7.1" r="7.1" transform="translate(34.5 232.4)"/>
        <circle id="Ellipse_408" data-name="Ellipse 408" class="cls-5" cx="7.1" cy="7.1" r="7.1" transform="translate(51.6 232.4)"/>
        <circle id="Ellipse_409" data-name="Ellipse 409" class="cls-5" cx="7.1" cy="7.1" r="7.1" transform="translate(68.8 232.4)"/>
        <circle id="Ellipse_410" data-name="Ellipse 410" class="cls-5" cx="7.1" cy="7.1" r="7.1" transform="translate(86 232.4)"/>
        <circle id="Ellipse_411" data-name="Ellipse 411" class="cls-5" cx="7.1" cy="7.1" r="7.1" transform="translate(103.1 232.4)"/>
        <circle id="Ellipse_412" data-name="Ellipse 412" class="cls-5" cx="7.1" cy="7.1" r="7.1" transform="translate(120.3 232.4)"/>
        <circle id="Ellipse_413" data-name="Ellipse 413" class="cls-5" cx="7.1" cy="7.1" r="7.1" transform="translate(137.5 232.4)"/>
        <circle id="Ellipse_414" data-name="Ellipse 414" class="cls-5" cx="7.1" cy="7.1" r="7.1" transform="translate(154.7 232.4)"/>
        <circle id="Ellipse_415" data-name="Ellipse 415" class="cls-5" cx="7.1" cy="7.1" r="7.1" transform="translate(171.8 232.4)"/>
        <circle id="Ellipse_416" data-name="Ellipse 416" class="cls-5" cx="7.1" cy="7.1" r="7.1" transform="translate(189 232.4)"/>
        <circle id="Ellipse_417" data-name="Ellipse 417" class="cls-5" cx="7.1" cy="7.1" r="7.1" transform="translate(206.2 232.4)"/>
        <circle id="Ellipse_418" data-name="Ellipse 418" class="cls-5" cx="7.1" cy="7.1" r="7.1" transform="translate(223.3 232.4)"/>
        <circle id="Ellipse_419" data-name="Ellipse 419" class="cls-5" cx="7.1" cy="7.1" r="7.1" transform="translate(240.5 232.4)"/>
        <circle id="Ellipse_420" data-name="Ellipse 420" class="cls-5" cx="7.1" cy="7.1" r="7.1" transform="translate(257.7 232.4)"/>
        <circle id="Ellipse_421" data-name="Ellipse 421" class="cls-5" cx="7.1" cy="7.1" r="7.1" transform="translate(274.8 232.4)"/>
        <circle id="Ellipse_422" data-name="Ellipse 422" class="cls-5" cx="7.1" cy="7.1" r="7.1" transform="translate(292 232.4)"/>
        <circle id="Ellipse_423" data-name="Ellipse 423" class="cls-5" cx="7.1" cy="7.1" r="7.1" transform="translate(309.2 232.4)"/>
        <circle id="Ellipse_424" data-name="Ellipse 424" class="cls-5" cx="7.1" cy="7.1" r="7.1" transform="translate(326.3 232.4)"/>
        <circle id="Ellipse_425" data-name="Ellipse 425" class="cls-5" cx="7.1" cy="7.1" r="7.1" transform="translate(343.5 232.4)"/>
        <circle id="Ellipse_426" data-name="Ellipse 426" class="cls-5" cx="7.1" cy="7.1" r="7.1" transform="translate(360.7 232.4)"/>
        <circle id="Ellipse_427" data-name="Ellipse 427" class="cls-5" cx="7.1" cy="7.1" r="7.1" transform="translate(377.9 232.4)"/>
        <circle id="Ellipse_428" data-name="Ellipse 428" class="cls-5" cx="7.1" cy="7.1" r="7.1" transform="translate(395 232.4)"/>
        <circle id="Ellipse_429" data-name="Ellipse 429" class="cls-5" cx="7.1" cy="7.1" r="7.1" transform="translate(412.2 232.4)"/>
        <circle id="Ellipse_430" data-name="Ellipse 430" class="cls-5" cx="7.1" cy="7.1" r="7.1" transform="translate(429.4 232.4)"/>
        <circle id="Ellipse_431" data-name="Ellipse 431" class="cls-5" cx="7.1" cy="7.1" r="7.1" transform="translate(446.5 232.4)"/>
        <circle id="Ellipse_432" data-name="Ellipse 432" class="cls-5" cx="7.1" cy="7.1" r="7.1" transform="translate(463.7 232.4)"/>
        <circle id="Ellipse_433" data-name="Ellipse 433" class="cls-5" cx="7.1" cy="7.1" r="7.1" transform="translate(480.9 232.4)"/>
        <circle id="Ellipse_434" data-name="Ellipse 434" class="cls-5" cx="7.1" cy="7.1" r="7.1" transform="translate(498 232.4)"/>
        <circle id="Ellipse_435" data-name="Ellipse 435" class="cls-5" cx="7.1" cy="7.1" r="7.1" transform="translate(515.2 232.4)"/>
        <circle id="Ellipse_436" data-name="Ellipse 436" class="cls-5" cx="7.1" cy="7.1" r="7.1" transform="translate(532.4 232.4)"/>
        <circle id="Ellipse_437" data-name="Ellipse 437" class="cls-5" cx="7.1" cy="7.1" r="7.1" transform="translate(549.6 232.4)"/>
        <circle id="Ellipse_438" data-name="Ellipse 438" class="cls-5" cx="7.1" cy="7.1" r="7.1" transform="translate(566.7 232.4)"/>
        <circle id="Ellipse_439" data-name="Ellipse 439" class="cls-5" cx="7.1" cy="7.1" r="7.1" transform="translate(583.9 232.4)"/>
        <circle id="Ellipse_440" data-name="Ellipse 440" class="cls-5" cx="7.1" cy="7.1" r="7.1" transform="translate(601.1 232.4)"/>
        <circle id="Ellipse_441" data-name="Ellipse 441" class="cls-5" cx="7.1" cy="7.1" r="7.1" transform="translate(618.2 232.4)"/>
        <circle id="Ellipse_442" data-name="Ellipse 442" class="cls-5" cx="7.1" cy="7.1" r="7.1" transform="translate(635.4 232.4)"/>
        <circle id="Ellipse_443" data-name="Ellipse 443" class="cls-5" cx="7.1" cy="7.1" r="7.1" transform="translate(652.6 232.4)"/>
        <circle id="Ellipse_444" data-name="Ellipse 444" class="cls-5" cx="7.1" cy="7.1" r="7.1" transform="translate(669.7 232.4)"/>
        <circle id="Ellipse_445" data-name="Ellipse 445" class="cls-5" cx="7.1" cy="7.1" r="7.1" transform="translate(686.9 232.4)"/>
        <circle id="Ellipse_446" data-name="Ellipse 446" class="cls-5" cx="7.1" cy="7.1" r="7.1" transform="translate(704.1 232.4)"/>
        <circle id="Ellipse_447" data-name="Ellipse 447" class="cls-5" cx="7.1" cy="7.1" r="7.1" transform="translate(721.2 232.4)"/>
        <circle id="Ellipse_448" data-name="Ellipse 448" class="cls-5" cx="7.1" cy="7.1" r="7.1" transform="translate(738.4 232.4)"/>
        <circle id="Ellipse_449" data-name="Ellipse 449" class="cls-5" cx="7.1" cy="7.1" r="7.1" transform="translate(755.6 232.4)"/>
        <circle id="Ellipse_450" data-name="Ellipse 450" class="cls-5" cx="7.1" cy="7.1" r="7.1" transform="translate(772.8 232.4)"/>
        <circle id="Ellipse_451" data-name="Ellipse 451" class="cls-5" cx="7.1" cy="7.1" r="7.1" transform="translate(789.9 232.4)"/>
        <circle id="Ellipse_452" data-name="Ellipse 452" class="cls-5" cx="7.1" cy="7.1" r="7.1" transform="translate(807.1 232.4)"/>
        <circle id="Ellipse_453" data-name="Ellipse 453" class="cls-5" cx="7.1" cy="7.1" r="7.1" transform="translate(824.3 232.4)"/>
        <circle id="Ellipse_454" data-name="Ellipse 454" class="cls-5" cx="7.1" cy="7.1" r="7.1" transform="translate(841.4 232.4)"/>
        <circle id="Ellipse_455" data-name="Ellipse 455" class="cls-5" cx="7.1" cy="7.1" r="7.1" transform="translate(858.6 232.4)"/>
        <circle id="Ellipse_456" data-name="Ellipse 456" class="cls-5" cx="7.1" cy="7.1" r="7.1" transform="translate(875.8 232.4)"/>
        <circle id="Ellipse_457" data-name="Ellipse 457" class="cls-5" cx="7.1" cy="7.1" r="7.1" transform="translate(892.9 232.4)"/>
        <circle id="Ellipse_458" data-name="Ellipse 458" class="cls-5" cx="7.1" cy="7.1" r="7.1" transform="translate(910.1 232.4)"/>
        <circle id="Ellipse_459" data-name="Ellipse 459" class="cls-5" cx="7.1" cy="7.1" r="7.1" transform="translate(927.3 232.4)"/>
        <circle id="Ellipse_460" data-name="Ellipse 460" class="cls-5" cx="7.1" cy="7.1" r="7.1" transform="translate(944.4 232.4)"/>
        <circle id="Ellipse_461" data-name="Ellipse 461" class="cls-5" cx="7.1" cy="7.1" r="7.1" transform="translate(961.6 232.4)"/>
        <circle id="Ellipse_462" data-name="Ellipse 462" class="cls-5" cx="7.1" cy="7.1" r="7.1" transform="translate(978.8 232.4)"/>
        <circle id="Ellipse_463" data-name="Ellipse 463" class="cls-5" cx="7.1" cy="7.1" r="7.1" transform="translate(996 232.4)"/>
        <circle id="Ellipse_464" data-name="Ellipse 464" class="cls-5" cx="7.1" cy="7.1" r="7.1" transform="translate(1013.1 232.4)"/>
        <circle id="Ellipse_465" data-name="Ellipse 465" class="cls-5" cx="7.1" cy="7.1" r="7.1" transform="translate(1030.3 232.4)"/>
        <circle id="Ellipse_466" data-name="Ellipse 466" class="cls-5" cx="7.1" cy="7.1" r="7.1" transform="translate(1047.5 232.4)"/>
        <circle id="Ellipse_467" data-name="Ellipse 467" class="cls-5" cx="7.1" cy="7.1" r="7.1" transform="translate(1064.6 232.4)"/>
        <circle id="Ellipse_468" data-name="Ellipse 468" class="cls-5" cx="7.1" cy="7.1" r="7.1" transform="translate(1081.8 232.4)"/>
        <circle id="Ellipse_469" data-name="Ellipse 469" class="cls-5" cx="7.1" cy="7.1" r="7.1" transform="translate(1099 232.4)"/>
        <circle id="Ellipse_470" data-name="Ellipse 470" class="cls-5" cx="7.1" cy="7.1" r="7.1" transform="translate(1116.1 232.4)"/>
        <circle id="Ellipse_471" data-name="Ellipse 471" class="cls-5" cx="7.1" cy="7.1" r="7.1" transform="translate(1133.3 232.4)"/>
        <circle id="Ellipse_472" data-name="Ellipse 472" class="cls-5" cx="7.1" cy="7.1" r="7.1" transform="translate(1150.5 232.4)"/>
        <circle id="Ellipse_473" data-name="Ellipse 473" class="cls-5" cx="7.1" cy="7.1" r="7.1" transform="translate(1167.6 232.4)"/>
        <circle id="Ellipse_474" data-name="Ellipse 474" class="cls-5" cx="7.1" cy="7.1" r="7.1" transform="translate(1184.8 232.4)"/>
        <circle id="Ellipse_475" data-name="Ellipse 475" class="cls-5" cx="7.1" cy="7.1" r="7.1" transform="translate(1202 232.4)"/>
        <circle id="Ellipse_476" data-name="Ellipse 476" class="cls-5" cx="7.1" cy="7.1" r="7.1" transform="translate(1219.2 232.4)"/>
        <circle id="Ellipse_477" data-name="Ellipse 477" class="cls-5" cx="7.1" cy="7.1" r="7.1" transform="translate(1236.3 232.4)"/>
        <circle id="Ellipse_478" data-name="Ellipse 478" class="cls-5" cx="7.1" cy="7.1" r="7.1" transform="translate(1253.5 232.4)"/>
        <circle id="Ellipse_479" data-name="Ellipse 479" class="cls-5" cx="7.1" cy="7.1" r="7.1" transform="translate(1270.7 232.4)"/>
        <circle id="Ellipse_480" data-name="Ellipse 480" class="cls-5" cx="7.1" cy="7.1" r="7.1" transform="translate(1287.8 232.4)"/>
        <circle id="Ellipse_481" data-name="Ellipse 481" class="cls-5" cx="7.1" cy="7.1" r="7.1" transform="translate(1305 232.4)"/>
        <circle id="Ellipse_482" data-name="Ellipse 482" class="cls-5" cx="7.1" cy="7.1" r="7.1" transform="translate(1322.2 232.4)"/>
        <circle id="Ellipse_483" data-name="Ellipse 483" class="cls-5" cx="7.1" cy="7.1" r="7.1" transform="translate(1339.3 232.4)"/>
        <circle id="Ellipse_484" data-name="Ellipse 484" class="cls-5" cx="7.1" cy="7.1" r="7.1" transform="translate(1356.5 232.4)"/>
        <circle id="Ellipse_485" data-name="Ellipse 485" class="cls-5" cx="7.1" cy="7.1" r="7.1" transform="translate(1373.7 232.4)"/>
        <circle id="Ellipse_486" data-name="Ellipse 486" class="cls-5" cx="7.1" cy="7.1" r="7.1" transform="translate(1390.9 232.4)"/>
        <circle id="Ellipse_487" data-name="Ellipse 487" class="cls-5" cx="7.1" cy="7.1" r="7.1" transform="translate(1408 232.4)"/>
        <circle id="Ellipse_488" data-name="Ellipse 488" class="cls-5" cx="7.1" cy="7.1" r="7.1" transform="translate(1425.2 232.4)"/>
        <circle id="Ellipse_489" data-name="Ellipse 489" class="cls-5" cx="7.1" cy="7.1" r="7.1" transform="translate(1442.4 232.4)"/>
        <circle id="Ellipse_490" data-name="Ellipse 490" class="cls-5" cx="7.1" cy="7.1" r="7.1" transform="translate(1459.5 232.4)"/>
        <circle id="Ellipse_491" data-name="Ellipse 491" class="cls-5" cx="7.1" cy="7.1" r="7.1" transform="translate(1476.7 232.4)"/>
        <circle id="Ellipse_492" data-name="Ellipse 492" class="cls-5" cx="7.1" cy="7.1" r="7.1" transform="translate(1493.9 232.4)"/>
        <circle id="Ellipse_493" data-name="Ellipse 493" class="cls-5" cx="7.1" cy="7.1" r="7.1" transform="translate(1511 232.4)"/>
        <circle id="Ellipse_494" data-name="Ellipse 494" class="cls-5" cx="7.1" cy="7.1" r="7.1" transform="translate(1528.2 232.4)"/>
        <circle id="Ellipse_495" data-name="Ellipse 495" class="cls-5" cx="7.1" cy="7.1" r="7.1" transform="translate(1545.4 232.4)"/>
        <circle id="Ellipse_496" data-name="Ellipse 496" class="cls-5" cx="7.1" cy="7.1" r="7.1" transform="translate(1562.5 232.4)"/>
        <circle id="Ellipse_497" data-name="Ellipse 497" class="cls-5" cx="7.1" cy="7.1" r="7.1" transform="translate(1579.7 232.4)"/>
        <circle id="Ellipse_498" data-name="Ellipse 498" class="cls-5" cx="7.1" cy="7.1" r="7.1" transform="translate(1596.9 232.4)"/>
        <circle id="Ellipse_499" data-name="Ellipse 499" class="cls-5" cx="7.1" cy="7.1" r="7.1" transform="translate(1614.1 232.4)"/>
        <circle id="Ellipse_500" data-name="Ellipse 500" class="cls-5" cx="7.1" cy="7.1" r="7.1" transform="translate(1631.2 232.4)"/>
        <circle id="Ellipse_501" data-name="Ellipse 501" class="cls-5" cx="7.1" cy="7.1" r="7.1" transform="translate(1648.4 232.4)"/>
        <circle id="Ellipse_502" data-name="Ellipse 502" class="cls-5" cx="7.1" cy="7.1" r="7.1" transform="translate(1665.6 232.4)"/>
        <circle id="Ellipse_503" data-name="Ellipse 503" class="cls-5" cx="7.1" cy="7.1" r="7.1" transform="translate(1682.7 232.4)"/>
        <circle id="Ellipse_504" data-name="Ellipse 504" class="cls-5" cx="7.1" cy="7.1" r="7.1" transform="translate(1699.9 232.4)"/>
        <circle id="Ellipse_505" data-name="Ellipse 505" class="cls-5" cx="7.1" cy="7.1" r="7.1" transform="translate(1717.1 232.4)"/>
        <circle id="Ellipse_506" data-name="Ellipse 506" class="cls-5" cx="7.1" cy="7.1" r="7.1" transform="translate(1734.2 232.4)"/>
        <circle id="Ellipse_507" data-name="Ellipse 507" class="cls-5" cx="7.1" cy="7.1" r="7.1" transform="translate(1751.4 232.4)"/>
        <circle id="Ellipse_508" data-name="Ellipse 508" class="cls-5" cx="7.1" cy="7.1" r="7.1" transform="translate(1768.6 232.4)"/>
        <circle id="Ellipse_509" data-name="Ellipse 509" class="cls-5" cx="7.1" cy="7.1" r="7.1" transform="translate(1785.7 232.4)"/>
        <circle id="Ellipse_510" data-name="Ellipse 510" class="cls-5" cx="7.1" cy="7.1" r="7.1" transform="translate(1802.9 232.4)"/>
        <circle id="Ellipse_511" data-name="Ellipse 511" class="cls-5" cx="7.1" cy="7.1" r="7.1" transform="translate(1820.1 232.4)"/>
        <circle id="Ellipse_512" data-name="Ellipse 512" class="cls-5" cx="7.1" cy="7.1" r="7.1" transform="translate(1837.3 232.4)"/>
        <circle id="Ellipse_513" data-name="Ellipse 513" class="cls-5" cx="7.1" cy="7.1" r="7.1" transform="translate(1854.4 232.4)"/>
        <circle id="Ellipse_514" data-name="Ellipse 514" class="cls-5" cx="7.1" cy="7.1" r="7.1" transform="translate(1871.6 232.4)"/>
        <circle id="Ellipse_515" data-name="Ellipse 515" class="cls-5" cx="7.1" cy="7.1" r="7.1" transform="translate(1888.8 232.4)"/>
        <circle id="Ellipse_516" data-name="Ellipse 516" class="cls-5" cx="7.1" cy="7.1" r="7.1" transform="translate(1905.9 232.4)"/>
      </g>
    </g>
  </g>
</svg>
