<svg xmlns="http://www.w3.org/2000/svg" viewBox="0 0 544.655 483.655">
  <defs>
    <style>
      .cls-1, .cls-2, .cls-3, .cls-4, .cls-6, .cls-7 {
        fill: none;
        stroke: #424143;
        stroke-linecap: round;
        stroke-miterlimit: 10;
      }

      .cls-1 {
        stroke-width: 0.498px;
        stroke-dasharray: 1.95;
      }

      .cls-2 {
        stroke-width: 0.855px;
      }

      .cls-3 {
        stroke-width: 0.997px;
      }

      .cls-4 {
        stroke-width: 0.427px;
        stroke-dasharray: 1.672;
      }

      .cls-5 {
        fill: #424143;
      }

      .cls-6 {
        stroke-width: 0.44px;
        stroke-dasharray: 1.722;
      }

      .cls-7 {
        stroke-width: 0.88px;
      }
    </style>
  </defs>
  <g id="Group_1345" data-name="Group 1345" transform="translate(-633.273 -1952.173)">
    <g id="Group_1344" data-name="Group 1344" transform="translate(0 292)">
      <g id="Group_1278" data-name="Group 1278" transform="translate(-162.4 1952.6)">
        <line id="Line_35" data-name="Line 35" class="cls-1" x2="469.5" transform="translate(833.3 100.9)"/>
        <line id="Line_36" data-name="Line 36" class="cls-2" x2="291.9" transform="translate(922.1 170.9)"/>
        <line id="Line_37" data-name="Line 37" class="cls-2" x2="345.3" transform="translate(895.4 21)"/>
        <line id="Line_38" data-name="Line 38" class="cls-3" x2="469.5" transform="translate(833.3 97.1)"/>
        <line id="Line_39" data-name="Line 39" class="cls-4" x2="345.3" transform="translate(895.4 24.6)"/>
        <path id="Path_1982" data-name="Path 1982" class="cls-5" d="M834.9,45.5h8.7c6.3,0,10.6,2.1,10.6,7.5a6.579,6.579,0,0,1-5.4,6.7v.2c4.5.7,7.1,3.1,7.1,7.4,0,6.1-4.7,9-11.6,9h-9.4V45.5ZM843,58.4c5.3,0,7.4-1.7,7.4-5.1,0-3.3-2.4-4.6-7.2-4.6h-4.4v9.7H843Zm.8,14.6c5.3,0,8.3-1.7,8.3-5.9,0-3.8-2.9-5.4-8.3-5.4h-5V73Z"/>
        <path id="Path_1983" data-name="Path 1983" class="cls-5" d="M884.2,45.5h9.6c6.3,0,10.8,2.3,10.8,8.7,0,6.2-4.6,9.1-10.8,9.1h-5.6v13h-4Zm9.1,14.6c4.8,0,7.4-2,7.4-5.9,0-4-2.6-5.5-7.4-5.5h-5.1V60.1Zm2.9,0,9.4,16.2h-4.5l-8-14.1Z"/>
        <path id="Path_1984" data-name="Path 1984" class="cls-5" d="M933.4,73h7.7V48.8h-7.7V45.5h19.3v3.3H945V73h7.7v3.3H933.4Z"/>
        <path id="Path_1985" data-name="Path 1985" class="cls-5" d="M1032.1,73h7.7V48.8h-7.7V45.5h19.3v3.3h-7.7V73h7.7v3.3h-19.3Z"/>
        <path id="Path_1986" data-name="Path 1986" class="cls-5" d="M1088.7,60.4l-8.6-14.9h4.4l4.3,7.9c.8,1.4,1.5,2.7,2.5,4.5h.2c.8-1.8,1.5-3.1,2.2-4.5l4.2-7.9h4.2l-8.6,15.1,9.2,15.7h-4.4l-4.6-8.3c-.8-1.6-1.7-3.1-2.7-5h-.2c-.9,1.9-1.7,3.4-2.5,5l-4.6,8.3h-4.2Z"/>
        <path id="Path_1987" data-name="Path 1987" class="cls-5" d="M1131.7,45.5h19.1v3.3h-15.1v9.6h12.8v3.3h-12.8V73h15.6v3.3h-19.6Z"/>
        <path id="Path_1988" data-name="Path 1988" class="cls-5" d="M1180.4,45.5h9.6c6.3,0,10.8,2.3,10.8,8.7,0,6.2-4.6,9.1-10.8,9.1h-5.6v13h-4Zm9.1,14.6c4.8,0,7.4-2,7.4-5.9,0-4-2.6-5.5-7.4-5.5h-5.1V60.1Zm2.8,0,9.4,16.2h-4.5l-8-14.1Z"/>
        <path id="Path_1989" data-name="Path 1989" class="cls-5" d="M1229.6,73h7.7V48.8h-7.7V45.5h19.3v3.3h-7.7V73h7.7v3.3h-19.3Z"/>
        <path id="Path_1990" data-name="Path 1990" class="cls-5" d="M1286.3,45.5h4.5l10.4,30.8H1297l-5.3-17.2c-1.1-3.4-2.1-6.8-3.1-10.4h-.2c-1,3.6-2,7-3.1,10.4l-5.4,17.2h-4Zm-4.9,18.2h14.2v3.2h-14.2Z"/>
        <path id="Path_1991" data-name="Path 1991" class="cls-5" d="M884.2,121.8h8.7c6.3,0,10.6,2.1,10.6,7.5a6.579,6.579,0,0,1-5.4,6.7v.2c4.5.7,7.1,3.1,7.1,7.4,0,6.1-4.7,9-11.6,9h-9.4V121.8Zm8.1,13c5.3,0,7.4-1.7,7.4-5.1,0-3.3-2.4-4.6-7.2-4.6h-4.4v9.7Zm.8,14.5c5.3,0,8.3-1.7,8.3-5.9,0-3.8-2.9-5.4-8.3-5.4h-5v11.3h5Z"/>
        <path id="Path_1992" data-name="Path 1992" class="cls-5" d="M984.6,121.8h3.9v27.5h15.2v3.3H984.6V121.8Z"/>
        <path id="Path_1993" data-name="Path 1993" class="cls-5" d="M1034,121.8h3.9v27.5h15.2v3.3H1034Z"/>
        <path id="Path_1994" data-name="Path 1994" class="cls-5" d="M1082.4,121.8h19.1v3.3h-15.1v9.6h12.8V138h-12.8v11.2H1102v3.3h-19.6Z"/>
        <path id="Path_1995" data-name="Path 1995" class="cls-5" d="M1131,121.8h9.6c6.3,0,10.8,2.3,10.8,8.7,0,6.2-4.6,9.1-10.8,9.1H1135v13h-4Zm9.1,14.6c4.8,0,7.4-2,7.4-5.9,0-4-2.6-5.5-7.4-5.5H1135v11.4Zm2.9.1,9.4,16.2h-4.5l-8-14.1Z"/>
        <path id="Path_1996" data-name="Path 1996" class="cls-5" d="M1180.2,149.3h7.7V125.1h-7.7v-3.3h19.3v3.3h-7.7v24.2h7.7v3.3h-19.3Zm6.5-31.4,6.7-6.1,2.2,2.6-7.1,5.4Z"/>
        <path id="Path_1997" data-name="Path 1997" class="cls-5" d="M1236.9,121.8h4.5l10.4,30.8h-4.2l-5.3-17.2c-1.1-3.4-2.1-6.8-3.1-10.4h-.2c-1,3.6-2,7-3.1,10.4l-5.4,17.2h-4Zm-4.8,18.3h14.2v3.2h-14.2Z"/>
        <g id="Group_1274" data-name="Group 1274">
          <g id="Group_1272" data-name="Group 1272">
            <path id="Path_1998" data-name="Path 1998" class="cls-5" d="M993.3,47.1a13.7,13.7,0,1,1-13.7,13.7,13.657,13.657,0,0,1,13.7-13.7m0-3.6a17.3,17.3,0,1,0,17.4,17.3,17.392,17.392,0,0,0-17.4-17.3Z"/>
          </g>
          <g id="Group_1273" data-name="Group 1273">
            <path id="Path_1999" data-name="Path 1999" class="cls-5" d="M1002.1,62.3a1.367,1.367,0,0,1-1.4-1.4,7.4,7.4,0,0,0-14.8,0,1.4,1.4,0,0,1-2.8,0,10.2,10.2,0,0,1,20.4,0A1.505,1.505,0,0,1,1002.1,62.3Z"/>
          </g>
        </g>
        <g id="Group_1277" data-name="Group 1277">
          <g id="Group_1275" data-name="Group 1275">
            <path id="Path_2000" data-name="Path 2000" class="cls-5" d="M943.2,123.5a13.7,13.7,0,1,1-13.7,13.7,13.657,13.657,0,0,1,13.7-13.7m0-3.6a17.3,17.3,0,1,0,17.4,17.3,17.392,17.392,0,0,0-17.4-17.3Z"/>
          </g>
          <g id="Group_1276" data-name="Group 1276">
            <path id="Path_2001" data-name="Path 2001" class="cls-5" d="M952,138.6a1.367,1.367,0,0,1-1.4-1.4,7.4,7.4,0,0,0-14.8,0,1.4,1.4,0,0,1-2.8,0,10.2,10.2,0,0,1,20.4,0A1.367,1.367,0,0,1,952,138.6Z"/>
          </g>
        </g>
      </g>
      <g id="Group_1297" data-name="Group 1297" transform="translate(-162.4 1952.6)">
        <rect id="Rectangle_289" data-name="Rectangle 289" class="cls-2" width="533.3" height="180" transform="translate(801.4 5.6)"/>
        <rect id="Rectangle_290" data-name="Rectangle 290" class="cls-2" width="543.8" height="190.4" transform="translate(796.1 0.4)"/>
      </g>
    </g>
    <g id="Group_1343" data-name="Group 1343" transform="translate(0 -292)">
      <g id="Group_1292" data-name="Group 1292" transform="translate(-162.4 1952.6)">
        <g id="Group_1279" data-name="Group 1279">
          <line id="Line_40" data-name="Line 40" class="cls-6" x2="366.1" transform="translate(885 390.3)"/>
          <line id="Line_41" data-name="Line 41" class="cls-7" x2="309.5" transform="translate(913.3 460.3)"/>
        </g>
        <line id="Line_42" data-name="Line 42" class="cls-4" x2="245.1" transform="translate(945.5 464.1)"/>
        <line id="Line_43" data-name="Line 43" class="cls-2" x2="345.3" transform="translate(895.4 310.3)"/>
        <line id="Line_44" data-name="Line 44" class="cls-7" x2="366.1" transform="translate(885 386.5)"/>
        <line id="Line_45" data-name="Line 45" class="cls-4" x2="345.3" transform="translate(895.4 314)"/>
        <path id="Path_2002" data-name="Path 2002" class="cls-5" d="M909.7,334.8h8.7c6.3,0,10.6,2.1,10.6,7.5a6.579,6.579,0,0,1-5.4,6.7v.2c4.5.7,7.1,3.1,7.1,7.4,0,6.1-4.7,9-11.6,9h-9.4V334.8Zm8.1,13c5.3,0,7.4-1.7,7.4-5.1,0-3.3-2.4-4.6-7.2-4.6h-4.4v9.7Zm.8,14.6c5.3,0,8.3-1.7,8.3-5.9,0-3.8-2.9-5.4-8.3-5.4h-5v11.3Z"/>
        <path id="Path_2003" data-name="Path 2003" class="cls-5" d="M1007.1,334.8h4.8l4.3,13.2,1.5,5h.2l1.5-5,4.4-13.2h4.8v30.8h-3.8V350.2c0-3,.5-8.3.7-10.9h-.1l-1.7,6-4.4,12.1h-2.8l-4.3-12.1-1.8-6h-.1c.3,2.6.7,7.9.7,10.9v15.4h-3.7V334.8Z"/>
        <path id="Path_2004" data-name="Path 2004" class="cls-5" d="M1057.7,334.8h8.7c6.3,0,10.6,2.1,10.6,7.5a6.579,6.579,0,0,1-5.4,6.7v.2c4.5.7,7.1,3.1,7.1,7.4,0,6.1-4.7,9-11.6,9h-9.4V334.8Zm8.1,13c5.3,0,7.4-1.7,7.4-5.1,0-3.3-2.4-4.6-7.2-4.6h-4.4v9.7Zm.8,14.6c5.3,0,8.3-1.7,8.3-5.9,0-3.8-2.9-5.4-8.3-5.4h-5v11.3Z"/>
        <path id="Path_2005" data-name="Path 2005" class="cls-5" d="M1155.7,334.8h4.3l9.9,19.4,3,6.4h.1c-.1-3.1-.5-6.5-.5-9.8v-16h3.8v30.8H1172l-9.9-19.4-3-6.4h-.1c.1,3.1.5,6.4.5,9.6v16.1h-3.8Z"/>
        <path id="Path_2006" data-name="Path 2006" class="cls-5" d="M1204.3,361.7l2.4-2.7a12.968,12.968,0,0,0,9,3.8c4.2,0,6.7-2,6.7-4.8,0-3.3-2.4-4.2-5.5-5.5l-4.5-2c-3.1-1.2-6.6-3.4-6.6-7.9,0-4.7,4.2-8.2,10.1-8.2a13.7,13.7,0,0,1,9.5,3.8l-2.1,2.5a10.832,10.832,0,0,0-7.6-2.9c-3.6,0-6,1.7-6,4.5,0,3,2.9,4,5.5,5.1l4.3,1.9c3.8,1.5,6.8,3.7,6.8,8.2,0,4.9-4.1,8.8-10.9,8.8A16.516,16.516,0,0,1,1204.3,361.7Z"/>
        <path id="Path_2007" data-name="Path 2007" class="cls-5" d="M885,409.9h8.7c6.3,0,10.6,2.1,10.6,7.5a6.579,6.579,0,0,1-5.4,6.7v.2c4.5.7,7.1,3.1,7.1,7.4,0,6.1-4.7,9-11.6,9H885Zm8.1,12.9c5.3,0,7.4-1.7,7.4-5.1,0-3.3-2.4-4.6-7.2-4.6h-4.4v9.7Zm.8,14.6c5.3,0,8.3-1.7,8.3-5.9,0-3.8-2.9-5.4-8.3-5.4h-5v11.3Z"/>
        <path id="Path_2008" data-name="Path 2008" class="cls-5" d="M982.4,409.9h4.8l4.3,13.2,1.5,5h.2l1.5-5,4.4-13.2h4.8v30.8h-3.8V425.3c0-3,.5-8.3.7-10.9h-.1l-1.7,6-4.4,12.1h-2.8l-4.3-12.1-1.8-6h-.1c.3,2.6.7,7.9.7,10.9v15.4h-3.7V409.9Z"/>
        <path id="Path_2009" data-name="Path 2009" class="cls-5" d="M1033.1,409.9h8.7c6.3,0,10.6,2.1,10.6,7.5a6.579,6.579,0,0,1-5.4,6.7v.2c4.5.7,7.1,3.1,7.1,7.4,0,6.1-4.7,9-11.6,9h-9.4V409.9Zm8.1,12.9c5.3,0,7.4-1.7,7.4-5.1,0-3.3-2.4-4.6-7.2-4.6H1037v9.7Zm.7,14.6c5.3,0,8.3-1.7,8.3-5.9,0-3.8-2.9-5.4-8.3-5.4h-5v11.3Z"/>
        <path id="Path_2010" data-name="Path 2010" class="cls-5" d="M1131,409.9h4.3l9.9,19.4,3,6.4h.1c-.1-3.1-.5-6.5-.5-9.8v-16h3.8v30.8h-4.3l-9.9-19.4-3-6.4h-.1c.1,3.1.5,6.4.5,9.6v16.1H1131Z"/>
        <path id="Path_2011" data-name="Path 2011" class="cls-5" d="M1181.8,409.9h19.1v3.3h-15.1v9.6h12.8v3.3h-12.8v11.2h15.6v3.3h-19.6Z"/>
        <path id="Path_2012" data-name="Path 2012" class="cls-5" d="M1229,436.7l2.4-2.7a12.968,12.968,0,0,0,9,3.8c4.2,0,6.7-2,6.7-4.8,0-3.3-2.4-4.2-5.5-5.5l-4.5-2c-3.1-1.2-6.6-3.4-6.6-7.9,0-4.7,4.2-8.2,10.1-8.2a13.7,13.7,0,0,1,9.5,3.8l-2.1,2.5a10.832,10.832,0,0,0-7.6-2.9c-3.6,0-6,1.7-6,4.5,0,3,2.9,4,5.5,5.1l4.3,1.9c3.8,1.5,6.8,3.7,6.8,8.2,0,4.9-4.1,8.8-10.9,8.8A15.633,15.633,0,0,1,1229,436.7Z"/>
        <g id="Group_1282" data-name="Group 1282">
          <g id="Group_1280" data-name="Group 1280">
            <path id="Path_2013" data-name="Path 2013" class="cls-5" d="M1117.1,336.5a13.7,13.7,0,1,1-13.7,13.7,13.657,13.657,0,0,1,13.7-13.7m0-3.6a17.3,17.3,0,1,0,17.4,17.3,17.392,17.392,0,0,0-17.4-17.3Z"/>
          </g>
          <g id="Group_1281" data-name="Group 1281">
            <path id="Path_2014" data-name="Path 2014" class="cls-5" d="M1125.9,351.6a1.367,1.367,0,0,1-1.4-1.4,7.4,7.4,0,0,0-14.8,0,1.4,1.4,0,0,1-2.8,0,10.2,10.2,0,1,1,20.4,0A1.367,1.367,0,0,1,1125.9,351.6Z"/>
          </g>
        </g>
        <g id="Group_1285" data-name="Group 1285">
          <g id="Group_1283" data-name="Group 1283">
            <path id="Path_2015" data-name="Path 2015" class="cls-5" d="M1092.6,411.6a13.7,13.7,0,1,1-13.7,13.7,13.657,13.657,0,0,1,13.7-13.7m0-3.7a17.3,17.3,0,1,0,17.4,17.3,17.392,17.392,0,0,0-17.4-17.3Z"/>
          </g>
          <g id="Group_1284" data-name="Group 1284">
            <path id="Path_2016" data-name="Path 2016" class="cls-5" d="M1101.4,426.7a1.367,1.367,0,0,1-1.4-1.4,7.4,7.4,0,0,0-14.8,0,1.4,1.4,0,0,1-2.8,0,10.2,10.2,0,1,1,20.4,0A1.43,1.43,0,0,1,1101.4,426.7Z"/>
          </g>
        </g>
        <g id="Group_1288" data-name="Group 1288">
          <g id="Group_1286" data-name="Group 1286">
            <path id="Path_2017" data-name="Path 2017" class="cls-5" d="M944.2,411.6a13.7,13.7,0,1,1-13.7,13.7,13.657,13.657,0,0,1,13.7-13.7m0-3.7a17.3,17.3,0,1,0,17.4,17.3,17.392,17.392,0,0,0-17.4-17.3Z"/>
          </g>
          <g id="Group_1287" data-name="Group 1287">
            <path id="Path_2018" data-name="Path 2018" class="cls-5" d="M953,426.7a1.367,1.367,0,0,1-1.4-1.4,7.4,7.4,0,0,0-14.8,0,1.4,1.4,0,0,1-2.8,0,10.2,10.2,0,0,1,20.4,0A1.367,1.367,0,0,1,953,426.7Z"/>
          </g>
        </g>
        <g id="Group_1291" data-name="Group 1291">
          <g id="Group_1289" data-name="Group 1289">
            <path id="Path_2019" data-name="Path 2019" class="cls-5" d="M967.5,336.5a13.7,13.7,0,1,1-13.7,13.7,13.657,13.657,0,0,1,13.7-13.7m0-3.6a17.3,17.3,0,1,0,17.4,17.3,17.392,17.392,0,0,0-17.4-17.3Z"/>
          </g>
          <g id="Group_1290" data-name="Group 1290">
            <path id="Path_2020" data-name="Path 2020" class="cls-5" d="M976.3,351.6a1.367,1.367,0,0,1-1.4-1.4,7.4,7.4,0,0,0-14.8,0,1.4,1.4,0,0,1-2.8,0,10.2,10.2,0,0,1,20.4,0A1.367,1.367,0,0,1,976.3,351.6Z"/>
          </g>
        </g>
      </g>
      <g id="Group_1300" data-name="Group 1300" transform="translate(-162.4 1952.6)">
        <rect id="Rectangle_295" data-name="Rectangle 295" class="cls-2" width="425.3" height="180" transform="translate(855.4 297.2)"/>
        <rect id="Rectangle_296" data-name="Rectangle 296" class="cls-2" width="435.8" height="190.4" transform="translate(850.1 292)"/>
      </g>
    </g>
  </g>
</svg>
