<svg xmlns="http://www.w3.org/2000/svg" viewBox="0 0 1677.24 534.05"><defs><style>.cls-1,.cls-4{fill:#6d6d6d;}.cls-16,.cls-2{fill:#e6e7e8;}.cls-3,.cls-4{isolation:isolate;}.cls-16,.cls-4{font-size:60.7px;font-family:Almaq-Refined, Almaq;}.cls-5{letter-spacing:-0.03em;}.cls-6{letter-spacing:-0.01em;}.cls-7{letter-spacing:-0.07em;}.cls-8{letter-spacing:0.01em;}.cls-9{letter-spacing:-0.11em;}.cls-10{letter-spacing:-0.02em;}.cls-11{letter-spacing:-0.01em;}.cls-12{letter-spacing:-0.02em;}.cls-13{letter-spacing:0em;}.cls-14{letter-spacing:-0.02em;}.cls-15{letter-spacing:0.01em;}.cls-17{letter-spacing:-0.03em;}.cls-18{letter-spacing:-0.03em;}</style></defs><title>award</title><g id="Layer_2" data-name="Layer 2"><g id="Layer_1-2" data-name="Layer 1"><path class="cls-1" d="M360.36,398.4H21a4.65,4.65,0,0,0-4.6,4.6h0a4.65,4.65,0,0,0,4.6,4.6h339.4A4.65,4.65,0,0,0,365,403h0A4.59,4.59,0,0,0,360.36,398.4Z"/><polygon class="cls-1" points="136.26 228.4 252.26 344.4 306.56 290 244.96 228.4 136.26 228.4"/><polygon class="cls-1" points="260.46 353.3 268.36 360.5 322.76 306.2 315.96 298.9 260.46 353.3"/><polygon class="cls-1" points="66.46 297.6 59.26 305.5 113.56 359.8 120.86 353 66.46 297.6"/><polygon class="cls-1" points="244.56 228.4 128.66 344.4 74.26 290 135.96 228.4 244.56 228.4"/><circle class="cls-1" cx="190.46" cy="10.8" r="10.8"/><circle class="cls-1" cx="169.66" cy="12.5" r="10.8"/><circle class="cls-1" cx="149.46" cy="17.6" r="10.8"/><circle class="cls-1" cx="130.36" cy="26" r="10.8"/><circle class="cls-1" cx="112.86" cy="37.3" r="10.8"/><circle class="cls-1" cx="97.46" cy="51.4" r="10.8"/><circle class="cls-1" cx="84.56" cy="67.7" r="10.8"/><circle class="cls-1" cx="74.46" cy="86" r="10.8"/><circle class="cls-1" cx="67.56" cy="105.7" r="10.8"/><circle class="cls-1" cx="63.96" cy="126.2" r="10.8"/><circle class="cls-1" cx="63.76" cy="147.1" r="10.8"/><circle class="cls-1" cx="66.96" cy="167.7" r="10.8"/><circle class="cls-1" cx="73.46" cy="187.5" r="10.8"/><circle class="cls-1" cx="83.16" cy="205.9" r="10.8"/><circle class="cls-1" cx="95.76" cy="222.6" r="10.8"/><circle class="cls-1" cx="110.86" cy="236.9" r="10.8"/><circle class="cls-1" cx="128.16" cy="248.6" r="10.8"/><circle class="cls-1" cx="147.16" cy="257.3" r="10.8"/><circle class="cls-1" cx="167.26" cy="262.8" r="10.8"/><circle class="cls-1" cx="190.86" cy="10.8" r="10.8"/><circle class="cls-1" cx="211.66" cy="12.5" r="10.8"/><circle class="cls-1" cx="231.86" cy="17.6" r="10.8" transform="translate(174.3 242.89) rotate(-80.01)"/><circle class="cls-1" cx="250.96" cy="26" r="10.8"/><circle class="cls-1" cx="268.46" cy="37.3" r="10.8"/><circle class="cls-1" cx="283.86" cy="51.4" r="10.8"/><circle class="cls-1" cx="296.76" cy="67.7" r="10.8"/><circle class="cls-1" cx="306.86" cy="86" r="10.8"/><circle class="cls-1" cx="313.76" cy="105.7" r="10.8"/><circle class="cls-1" cx="317.36" cy="126.2" r="10.8"/><circle class="cls-1" cx="317.56" cy="147.1" r="10.8"/><circle class="cls-1" cx="314.36" cy="167.7" r="10.8"/><circle class="cls-1" cx="307.86" cy="187.5" r="10.8"/><circle class="cls-1" cx="298.16" cy="205.9" r="10.8"/><circle class="cls-1" cx="285.56" cy="222.6" r="10.8"/><circle class="cls-1" cx="270.46" cy="236.9" r="10.8"/><circle class="cls-1" cx="253.16" cy="248.6" r="10.8"/><circle class="cls-1" cx="234.26" cy="257.3" r="10.8"/><circle class="cls-1" cx="214.16" cy="262.8" r="10.8"/><circle class="cls-1" cx="214.16" cy="262.8" r="10.8"/><circle class="cls-2" cx="190.46" cy="137.9" r="121.8"/><circle class="cls-1" cx="190.46" cy="137.9" r="87.9"/><path class="cls-1" d="M190.46,21.6a116.32,116.32,0,0,1,82.3,198.6A116.39,116.39,0,1,1,108.16,55.6a115.48,115.48,0,0,1,82.3-34m0-10.8a127.1,127.1,0,1,0,127.1,127.1A127.09,127.09,0,0,0,190.46,10.8Z"/><g class="cls-3"><text class="cls-4" transform="translate(101.28 466.81)">BE<tspan class="cls-5" x="60.16" y="0">S</tspan><tspan class="cls-6" x="88.75" y="0">T</tspan><tspan x="118.43" y="0" xml:space="preserve"> IN</tspan></text><text class="cls-4" transform="translate(0 521.61)">PUBLIC SE<tspan class="cls-6" x="240.32" y="0">R</tspan><tspan x="271.7" y="0">VICE</tspan></text></g><path class="cls-1" d="M787.86,398.4H448.46a4.65,4.65,0,0,0-4.6,4.6h0a4.65,4.65,0,0,0,4.6,4.6h339.4a4.65,4.65,0,0,0,4.6-4.6h0A4.59,4.59,0,0,0,787.86,398.4Z"/><polygon class="cls-1" points="563.76 228.4 679.76 344.4 734.06 290 672.46 228.4 563.76 228.4"/><polygon class="cls-1" points="687.96 353.3 695.86 360.5 750.16 306.2 743.46 298.9 687.96 353.3"/><polygon class="cls-1" points="493.96 297.6 486.76 305.5 541.06 359.8 548.26 353 493.96 297.6"/><polygon class="cls-1" points="672.06 228.4 556.06 344.4 501.76 290 563.36 228.4 672.06 228.4"/><circle class="cls-1" cx="617.96" cy="10.8" r="10.8"/><circle class="cls-1" cx="597.16" cy="12.5" r="10.8"/><circle class="cls-1" cx="576.96" cy="17.6" r="10.8"/><circle class="cls-1" cx="557.86" cy="26" r="10.8"/><circle class="cls-1" cx="540.36" cy="37.3" r="10.8"/><circle class="cls-1" cx="524.96" cy="51.4" r="10.8"/><circle class="cls-1" cx="512.06" cy="67.7" r="10.8"/><circle class="cls-1" cx="501.96" cy="86" r="10.8"/><circle class="cls-1" cx="495.06" cy="105.7" r="10.8"/><circle class="cls-1" cx="491.46" cy="126.2" r="10.8"/><circle class="cls-1" cx="491.26" cy="147.1" r="10.8"/><circle class="cls-1" cx="494.46" cy="167.7" r="10.8"/><circle class="cls-1" cx="500.96" cy="187.5" r="10.8"/><circle class="cls-1" cx="510.66" cy="205.9" r="10.8"/><circle class="cls-1" cx="523.26" cy="222.6" r="10.8"/><circle class="cls-1" cx="538.36" cy="236.9" r="10.8"/><circle class="cls-1" cx="555.66" cy="248.6" r="10.8"/><circle class="cls-1" cx="574.56" cy="257.3" r="10.8"/><circle class="cls-1" cx="594.76" cy="262.8" r="10.8"/><circle class="cls-1" cx="618.36" cy="10.8" r="10.8"/><circle class="cls-1" cx="639.16" cy="12.5" r="10.8"/><circle class="cls-1" cx="659.36" cy="17.6" r="10.8"/><circle class="cls-1" cx="678.46" cy="26" r="10.8"/><circle class="cls-1" cx="695.96" cy="37.3" r="10.8"/><circle class="cls-1" cx="711.36" cy="51.4" r="10.8"/><circle class="cls-1" cx="724.26" cy="67.7" r="10.8"/><circle class="cls-1" cx="734.36" cy="86" r="10.8"/><circle class="cls-1" cx="741.26" cy="105.7" r="10.8"/><circle class="cls-1" cx="744.86" cy="126.2" r="10.8"/><circle class="cls-1" cx="745.06" cy="147.1" r="10.8"/><circle class="cls-1" cx="741.86" cy="167.7" r="10.8"/><circle class="cls-1" cx="735.36" cy="187.5" r="10.8"/><circle class="cls-1" cx="725.66" cy="205.9" r="10.8"/><circle class="cls-1" cx="713.06" cy="222.6" r="10.8"/><circle class="cls-1" cx="697.96" cy="236.9" r="10.8"/><circle class="cls-1" cx="680.66" cy="248.6" r="10.8"/><circle class="cls-1" cx="661.76" cy="257.3" r="10.8"/><circle class="cls-1" cx="641.56" cy="262.8" r="10.8"/><circle class="cls-1" cx="641.56" cy="262.8" r="10.8"/><circle class="cls-2" cx="617.96" cy="137.9" r="121.8"/><circle class="cls-1" cx="617.96" cy="137.9" r="87.9"/><path class="cls-1" d="M618,21.6a116.39,116.39,0,0,1,82.3,198.7A116.39,116.39,0,1,1,535.66,55.7,115.58,115.58,0,0,1,618,21.6m0-10.8a127.05,127.05,0,1,0,127.1,127A127.09,127.09,0,0,0,618,10.8Z"/><g class="cls-3"><text class="cls-4" transform="translate(444.65 466.81)"><tspan class="cls-7">A</tspan><tspan x="28.83" y="0">T</tspan><tspan class="cls-8" x="59.12" y="0">L</tspan><tspan x="87.71" y="0">AN</tspan><tspan class="cls-7" x="155.82" y="0">T</tspan><tspan x="181.86" y="0">A ON</tspan><tspan class="cls-9" x="294.4" y="0">L</tspan><tspan x="315.71" y="0">Y</tspan></text><text class="cls-4" transform="translate(438.15 521.61)">BIG <tspan class="cls-7" x="90.38" y="0">A</tspan><tspan x="119.22" y="0">TL </tspan><tspan class="cls-10" x="186.29" y="0">AW</tspan><tspan x="260.17" y="0">ARD</tspan></text></g><path class="cls-1" d="M1216.86,398.4H877.46a4.65,4.65,0,0,0-4.6,4.6h0a4.65,4.65,0,0,0,4.6,4.6h339.4a4.65,4.65,0,0,0,4.6-4.6h0A4.59,4.59,0,0,0,1216.86,398.4Z"/><polygon class="cls-1" points="992.76 228.4 1108.76 344.4 1163.06 290 1101.46 228.4 992.76 228.4"/><polygon class="cls-1" points="1116.96 353.3 1124.86 360.5 1179.16 306.2 1172.46 298.9 1116.96 353.3"/><polygon class="cls-1" points="922.96 297.6 915.76 305.5 970.06 359.8 977.26 353 922.96 297.6"/><polygon class="cls-1" points="1101.06 228.4 985.06 344.4 930.76 290 992.36 228.4 1101.06 228.4"/><circle class="cls-1" cx="1046.96" cy="10.8" r="10.8"/><circle class="cls-1" cx="1026.16" cy="12.5" r="10.8"/><circle class="cls-1" cx="1005.96" cy="17.6" r="10.8"/><circle class="cls-1" cx="986.86" cy="26" r="10.8"/><circle class="cls-1" cx="969.36" cy="37.3" r="10.8"/><circle class="cls-1" cx="953.96" cy="51.4" r="10.8"/><circle class="cls-1" cx="941.06" cy="67.7" r="10.8"/><circle class="cls-1" cx="930.96" cy="86" r="10.8"/><circle class="cls-1" cx="924.06" cy="105.7" r="10.8"/><circle class="cls-1" cx="920.46" cy="126.2" r="10.8"/><circle class="cls-1" cx="920.26" cy="147.1" r="10.8"/><circle class="cls-1" cx="923.46" cy="167.7" r="10.8"/><circle class="cls-1" cx="929.96" cy="187.5" r="10.8"/><circle class="cls-1" cx="939.66" cy="205.9" r="10.8"/><circle class="cls-1" cx="952.26" cy="222.6" r="10.8"/><circle class="cls-1" cx="967.36" cy="236.9" r="10.8"/><circle class="cls-1" cx="984.66" cy="248.6" r="10.8"/><circle class="cls-1" cx="1003.56" cy="257.3" r="10.8"/><circle class="cls-1" cx="1023.76" cy="262.8" r="10.8"/><circle class="cls-1" cx="1047.36" cy="10.8" r="10.8"/><circle class="cls-1" cx="1068.16" cy="12.5" r="10.8"/><circle class="cls-1" cx="1088.36" cy="17.6" r="10.8"/><circle class="cls-1" cx="1107.46" cy="26" r="10.8"/><circle class="cls-1" cx="1124.96" cy="37.3" r="10.8"/><circle class="cls-1" cx="1140.36" cy="51.4" r="10.8"/><circle class="cls-1" cx="1153.26" cy="67.7" r="10.8"/><circle class="cls-1" cx="1163.36" cy="86" r="10.8"/><circle class="cls-1" cx="1170.26" cy="105.7" r="10.8"/><circle class="cls-1" cx="1173.86" cy="126.2" r="10.8"/><circle class="cls-1" cx="1174.06" cy="147.1" r="10.8"/><circle class="cls-1" cx="1170.86" cy="167.7" r="10.8"/><circle class="cls-1" cx="1164.36" cy="187.5" r="10.8"/><circle class="cls-1" cx="1154.66" cy="205.9" r="10.8"/><circle class="cls-1" cx="1142.06" cy="222.6" r="10.8"/><circle class="cls-1" cx="1126.96" cy="236.9" r="10.8"/><circle class="cls-1" cx="1109.66" cy="248.6" r="10.8"/><circle class="cls-1" cx="1090.76" cy="257.3" r="10.8"/><circle class="cls-1" cx="1070.56" cy="262.8" r="10.8"/><circle class="cls-1" cx="1070.56" cy="262.8" r="10.8"/><circle class="cls-2" cx="1046.96" cy="137.9" r="121.8"/><circle class="cls-1" cx="1046.96" cy="137.9" r="87.9"/><path class="cls-1" d="M1047,21.6a116.39,116.39,0,0,1,82.3,198.7A116.39,116.39,0,1,1,964.66,55.7,115.58,115.58,0,0,1,1047,21.6m0-10.8a127.05,127.05,0,1,0,127.1,127A127.09,127.09,0,0,0,1047,10.8Z"/><g class="cls-3"><text class="cls-4" transform="translate(821.11 466.81)">P<tspan class="cls-11" x="31.32" y="0">E</tspan><tspan x="59.61" y="0">OPLE</tspan><tspan class="cls-12" x="183.32" y="0">”</tspan><tspan class="cls-13" x="208.21" y="0">S CHOICES</tspan></text><text class="cls-4" transform="translate(850.09 521.61)">MOBILE <tspan class="cls-10" x="189.87" y="0">AW</tspan><tspan x="263.75" y="0">ARDS</tspan></text></g><path class="cls-1" d="M1668.66,398.4h-339.4a4.65,4.65,0,0,0-4.6,4.6h0a4.65,4.65,0,0,0,4.6,4.6h339.4a4.65,4.65,0,0,0,4.6-4.6h0A4.59,4.59,0,0,0,1668.66,398.4Z"/><polygon class="cls-1" points="1444.56 228.4 1560.56 344.4 1614.86 290 1553.26 228.4 1444.56 228.4"/><polygon class="cls-1" points="1568.76 353.3 1576.66 360.5 1630.96 306.2 1624.26 298.9 1568.76 353.3"/><polygon class="cls-1" points="1374.76 297.6 1367.56 305.5 1421.86 359.8 1429.06 353 1374.76 297.6"/><polygon class="cls-1" points="1552.86 228.4 1436.86 344.4 1382.56 290 1444.16 228.4 1552.86 228.4"/><circle class="cls-1" cx="1498.76" cy="10.8" r="10.8"/><circle class="cls-1" cx="1477.96" cy="12.5" r="10.8"/><circle class="cls-1" cx="1457.76" cy="17.6" r="10.8"/><circle class="cls-1" cx="1438.66" cy="26" r="10.8"/><circle class="cls-1" cx="1421.16" cy="37.3" r="10.8"/><circle class="cls-1" cx="1405.76" cy="51.4" r="10.8"/><circle class="cls-1" cx="1392.86" cy="67.7" r="10.8"/><circle class="cls-1" cx="1382.76" cy="86" r="10.8"/><circle class="cls-1" cx="1375.86" cy="105.7" r="10.8"/><circle class="cls-1" cx="1372.26" cy="126.2" r="10.8"/><circle class="cls-1" cx="1372.06" cy="147.1" r="10.8"/><circle class="cls-1" cx="1375.26" cy="167.7" r="10.8"/><circle class="cls-1" cx="1381.76" cy="187.5" r="10.8"/><circle class="cls-1" cx="1391.46" cy="205.9" r="10.8"/><circle class="cls-1" cx="1404.06" cy="222.6" r="10.8"/><circle class="cls-1" cx="1419.16" cy="236.9" r="10.8"/><circle class="cls-1" cx="1436.46" cy="248.6" r="10.8"/><circle class="cls-1" cx="1455.36" cy="257.3" r="10.8"/><circle class="cls-1" cx="1475.56" cy="262.8" r="10.8"/><circle class="cls-1" cx="1499.16" cy="10.8" r="10.8"/><circle class="cls-1" cx="1519.96" cy="12.5" r="10.8"/><circle class="cls-1" cx="1540.16" cy="17.6" r="10.8"/><circle class="cls-1" cx="1559.26" cy="26" r="10.8"/><circle class="cls-1" cx="1576.76" cy="37.3" r="10.8"/><circle class="cls-1" cx="1592.16" cy="51.4" r="10.8"/><circle class="cls-1" cx="1605.06" cy="67.7" r="10.8"/><circle class="cls-1" cx="1615.16" cy="86" r="10.8"/><circle class="cls-1" cx="1622.06" cy="105.7" r="10.8"/><circle class="cls-1" cx="1625.66" cy="126.2" r="10.8"/><circle class="cls-1" cx="1625.86" cy="147.1" r="10.8"/><circle class="cls-1" cx="1622.66" cy="167.7" r="10.8"/><circle class="cls-1" cx="1616.16" cy="187.5" r="10.8"/><circle class="cls-1" cx="1606.46" cy="205.9" r="10.8"/><circle class="cls-1" cx="1593.86" cy="222.6" r="10.8"/><circle class="cls-1" cx="1578.76" cy="236.9" r="10.8"/><circle class="cls-1" cx="1561.46" cy="248.6" r="10.8"/><circle class="cls-1" cx="1542.56" cy="257.3" r="10.8"/><circle class="cls-1" cx="1522.36" cy="262.8" r="10.8"/><circle class="cls-1" cx="1522.36" cy="262.8" r="10.8"/><circle class="cls-2" cx="1498.76" cy="137.9" r="121.8"/><circle class="cls-1" cx="1498.76" cy="137.9" r="87.9"/><path class="cls-1" d="M1498.76,21.6a116.39,116.39,0,0,1,82.3,198.7,116.39,116.39,0,1,1-164.6-164.6,115.58,115.58,0,0,1,82.3-34.1m0-10.8a127.05,127.05,0,1,0,127.1,127,127.09,127.09,0,0,0-127.1-127Z"/><g class="cls-3"><text class="cls-4" transform="translate(1376.92 466.81)"><tspan class="cls-14">A</tspan><tspan class="cls-15" x="32.11" y="0">C</tspan><tspan x="61.43" y="0">ADEMIC</tspan></text><text class="cls-4" transform="translate(1320.68 521.61)">CHOICE <tspan class="cls-10" x="182.83" y="0">AW</tspan><tspan x="256.71" y="0">ARD</tspan></text></g><text class="cls-16" transform="translate(115.31 156.98)">AMMO</text><text class="cls-16" transform="translate(542.81 156.98)">AMMO</text><text class="cls-16" transform="translate(971.81 156.98)">AMMO</text><text class="cls-16" transform="translate(1424.77 140.55)">BRAIN<tspan class="cls-17" x="27.07" y="48.84">T</tspan><tspan class="cls-18" x="55.79" y="48.84">O</tspan><tspan x="89.6" y="48.84">Y</tspan></text></g></g></svg>