<?xml version="1.0" encoding="utf-8"?>
<!-- Generator: Adobe Illustrator 22.1.0, SVG Export Plug-In . SVG Version: 6.00 Build 0)  -->
<svg version="1.1" id="Layer_1" xmlns="http://www.w3.org/2000/svg" xmlns:xlink="http://www.w3.org/1999/xlink" x="0px" y="0px"
	 viewBox="0 0 1769.9 636" style="enable-background:new 0 0 1769.9 636;" xml:space="preserve">
<style type="text/css">
	.st0{fill:#6D6D6D;}
	.st1{fill:#E6E7E8;}
	.st2{enable-background:new    ;}
</style>
<g>
	<path class="st0" d="M834,444.9H494.6c-2.5,0-4.6,2.1-4.6,4.6l0,0c0,2.5,2.1,4.6,4.6,4.6H834c2.5,0,4.6-2.1,4.6-4.6l0,0
		C838.6,446.9,836.5,444.9,834,444.9z"/>
	<g>
		<polygon class="st0" points="609.9,274.9 725.9,390.9 780.2,336.5 718.6,274.9 		"/>
		<polygon class="st0" points="734.1,399.8 742,407 796.3,352.7 789.6,345.4 		"/>
		<polygon class="st0" points="540.1,344.1 532.9,352 587.2,406.3 594.4,399.5 		"/>
		<polygon class="st0" points="718.2,274.9 602.2,390.9 547.9,336.5 609.5,274.9 		"/>
	</g>
	<g>
		<g>
			<g>
				<circle class="st0" cx="664.1" cy="57.3" r="10.8"/>
			</g>
			<g>
				<circle class="st0" cx="643.3" cy="59" r="10.8"/>
			</g>
			<g>
				<circle class="st0" cx="623.1" cy="64.1" r="10.8"/>
			</g>
			<g>
				<circle class="st0" cx="604" cy="72.5" r="10.8"/>
			</g>
			<g>
				<circle class="st0" cx="586.5" cy="83.8" r="10.8"/>
			</g>
			<g>
				<circle class="st0" cx="571.1" cy="97.9" r="10.8"/>
			</g>
			<g>
				<circle class="st0" cx="558.2" cy="114.2" r="10.8"/>
			</g>
			<g>
				<circle class="st0" cx="548.1" cy="132.5" r="10.8"/>
			</g>
			<g>
				<circle class="st0" cx="541.2" cy="152.2" r="10.8"/>
			</g>
			<g>
				<circle class="st0" cx="537.6" cy="172.7" r="10.8"/>
			</g>
			<g>
				<circle class="st0" cx="537.4" cy="193.6" r="10.8"/>
			</g>
			<g>
				<circle class="st0" cx="540.6" cy="214.2" r="10.8"/>
			</g>
			<g>
				<circle class="st0" cx="547.1" cy="234" r="10.8"/>
			</g>
			<g>
				<circle class="st0" cx="556.8" cy="252.4" r="10.8"/>
			</g>
			<g>
				<g>
					<circle class="st0" cx="569.4" cy="269.1" r="10.8"/>
				</g>
				<g>
					<circle class="st0" cx="584.5" cy="283.4" r="10.8"/>
				</g>
				<g>
					<circle class="st0" cx="601.8" cy="295.1" r="10.8"/>
				</g>
				<g>
					<circle class="st0" cx="620.7" cy="303.8" r="10.8"/>
				</g>
				<g>
					<circle class="st0" cx="640.9" cy="309.3" r="10.8"/>
				</g>
			</g>
		</g>
		<g>
			<g>
				<circle class="st0" cx="664.5" cy="57.3" r="10.8"/>
			</g>
			<g>
				<circle class="st0" cx="685.3" cy="59" r="10.8"/>
			</g>
			<g>
				<circle class="st0" cx="705.5" cy="64.1" r="10.8"/>
			</g>
			<g>
				<circle class="st0" cx="724.6" cy="72.5" r="10.8"/>
			</g>
			<g>
				<circle class="st0" cx="742.1" cy="83.8" r="10.8"/>
			</g>
			<g>
				<circle class="st0" cx="757.5" cy="97.9" r="10.8"/>
			</g>
			<g>
				<circle class="st0" cx="770.4" cy="114.2" r="10.8"/>
			</g>
			<g>
				<circle class="st0" cx="780.5" cy="132.5" r="10.8"/>
			</g>
			<g>
				<circle class="st0" cx="787.4" cy="152.2" r="10.8"/>
			</g>
			<g>
				<circle class="st0" cx="791" cy="172.7" r="10.8"/>
			</g>
			<g>
				<circle class="st0" cx="791.2" cy="193.6" r="10.8"/>
			</g>
			<g>
				<circle class="st0" cx="788" cy="214.2" r="10.8"/>
			</g>
			<g>
				<circle class="st0" cx="781.5" cy="234" r="10.8"/>
			</g>
			<g>
				<circle class="st0" cx="771.8" cy="252.4" r="10.8"/>
			</g>
			<g>
				<circle class="st0" cx="759.2" cy="269.1" r="10.8"/>
			</g>
			<g>
				<circle class="st0" cx="744.1" cy="283.4" r="10.8"/>
			</g>
			<g>
				<circle class="st0" cx="726.8" cy="295.1" r="10.8"/>
			</g>
			<g>
				<circle class="st0" cx="707.9" cy="303.8" r="10.8"/>
			</g>
			<g>
				<circle class="st0" cx="687.7" cy="309.3" r="10.8"/>
			</g>
			<g>
				<circle class="st0" cx="687.7" cy="309.3" r="10.8"/>
			</g>
		</g>
	</g>
	<circle class="st1" cx="664.1" cy="184.4" r="121.8"/>
	<circle class="st0" cx="664.1" cy="184.4" r="87.9"/>
	<g>
		<path class="st0" d="M664.1,68.1c31.1,0,60.3,12.1,82.3,34.1s34.1,51.2,34.1,82.3s-12.1,60.3-34.1,82.3s-51.2,34.1-82.3,34.1
			s-60.3-12.1-82.3-34.1s-34.1-51.2-34.1-82.3s12.1-60.3,34.1-82.3S633,68.1,664.1,68.1 M664.1,57.3c-70.2,0-127.1,56.9-127.1,127.1
			s56.9,127,127.1,127s127.1-56.9,127.1-127.1S734.3,57.3,664.1,57.3L664.1,57.3z"/>
	</g>
	<g class="st2">
		<path class="st0" d="M502.2,472.8h10.7l10.6,40.5h-9.7l-1.9-8.9h-9.5l-2,8.9h-9.3L502.2,472.8z M510.2,496.9l-3-13.6l-3,13.6
			H510.2z"/>
		<path class="st0" d="M529.7,480.8h-8.7v-8h27.7v8h-8.7v32.5h-10.3V480.8z"/>
		<path class="st0" d="M553.1,472.8h10.2v32.5h13.5v8h-23.7V472.8z"/>
		<path class="st0" d="M589.9,472.8h10.7l10.6,40.5h-9.7l-1.9-8.9h-9.5l-2,8.9h-9.3L589.9,472.8z M597.9,496.9l-3-13.6l-3,13.6
			H597.9z"/>
		<path class="st0" d="M614.8,472.8h8.1l11.2,22v-22h9.4v40.5h-8.1l-11.2-21.2v21.2h-9.4V472.8z"/>
		<path class="st0" d="M656.7,480.8h-8.7v-8h27.7v8h-8.7v32.5h-10.3V480.8z"/>
		<path class="st0" d="M684.1,472.8h10.7l10.6,40.5h-9.7l-1.9-8.9h-9.5l-2,8.9H673L684.1,472.8z M692,496.9l-3-13.6l-3,13.6H692z"/>
		<path class="st0" d="M732.4,514.2c-2.3,0-4.5-0.3-6.4-1c-1.9-0.7-3.5-1.7-4.9-3.2c-1.4-1.5-2.4-3.4-3.1-5.8s-1.1-5.3-1.1-8.7v-4.9
			c0-3.4,0.4-6.3,1.1-8.7c0.7-2.4,1.8-4.3,3.2-5.8c1.4-1.5,3-2.5,4.9-3.2c1.9-0.7,4-1,6.3-1c2.3,0,4.5,0.3,6.4,1
			c1.9,0.7,3.5,1.7,4.9,3.2c1.3,1.5,2.4,3.4,3.1,5.8s1.1,5.3,1.1,8.7v4.9c0,3.4-0.4,6.3-1.1,8.7s-1.7,4.3-3.1,5.8
			c-1.3,1.5-3,2.5-4.9,3.2C736.9,513.8,734.8,514.2,732.4,514.2z M732.5,479.6c-1.1,0-2,0.2-2.6,0.7c-0.7,0.5-1.2,1.2-1.5,2.1
			s-0.6,2.1-0.8,3.4c-0.1,1.4-0.2,3-0.2,4.9v4.7c0,1.9,0.1,3.5,0.2,4.9c0.1,1.4,0.4,2.5,0.8,3.4c0.4,0.9,0.9,1.6,1.5,2.1
			c0.6,0.5,1.5,0.7,2.5,0.7c1.1,0,2-0.2,2.6-0.7c0.7-0.5,1.2-1.2,1.5-2.1c0.4-0.9,0.6-2.1,0.7-3.4c0.1-1.4,0.2-3,0.2-4.9v-4.7
			c0-3.7-0.3-6.5-0.9-8.3C735.9,480.5,734.5,479.6,732.5,479.6z"/>
		<path class="st0" d="M753.4,472.8h8.1l11.2,22v-22h9.4v40.5H774l-11.2-21.2v21.2h-9.4V472.8z"/>
		<path class="st0" d="M788.4,472.8h10.2v32.5h13.5v8h-23.7V472.8z"/>
		<path class="st0" d="M817.1,498.8l-10.2-26h10.3l5.3,15.9l5.3-15.9h9.7l-10.2,26v14.5h-10.2V498.8z"/>
	</g>
	<g class="st2">
		<path class="st0" d="M487.4,527.6h14.2c2.2,0,4,0.3,5.5,0.8c1.5,0.5,2.7,1.2,3.6,2.2c0.9,0.9,1.6,2,2,3.2c0.4,1.2,0.6,2.6,0.6,4
			c0,2.5-0.5,4.5-1.4,5.8c-0.9,1.3-2.2,2.3-3.7,3c0.8,0.4,1.6,0.8,2.3,1.3c0.7,0.5,1.3,1.2,1.8,2c0.5,0.8,0.9,1.8,1.1,2.9
			c0.3,1.1,0.4,2.5,0.4,4.1c0,3.8-1.1,6.7-3.2,8.5c-2.1,1.8-5.1,2.7-8.9,2.7h-14.3V527.6z M500.5,543.9c1.1,0,1.9-0.3,2.6-0.9
			c0.7-0.6,1-1.7,1-3.4c0-1.8-0.3-3-1-3.5c-0.7-0.5-1.5-0.8-2.5-0.8h-4v8.6H500.5z M500.7,560.5c0.5,0,1-0.1,1.4-0.2
			c0.5-0.1,0.9-0.3,1.2-0.6c0.4-0.3,0.7-0.8,0.9-1.5c0.2-0.6,0.3-1.5,0.3-2.6c0-1-0.1-1.8-0.3-2.5c-0.2-0.6-0.5-1.1-0.9-1.4
			c-0.4-0.3-0.8-0.5-1.2-0.7c-0.5-0.1-0.9-0.2-1.4-0.2h-4.1v9.6H500.7z"/>
		<path class="st0" d="M518.9,527.6h10.2v40.5h-10.2V527.6z"/>
		<path class="st0" d="M534.6,545.2c0-3.4,0.4-6.3,1.3-8.6s2.1-4.2,3.6-5.6s3.5-2.4,5.7-3c2.2-0.6,4.7-0.9,7.5-0.9
			c1.6,0,3.1,0.1,4.5,0.2c1.4,0.2,2.8,0.4,4.1,0.7v7.9c-1.3-0.3-2.4-0.6-3.5-0.7c-1.1-0.1-2.3-0.2-3.7-0.2c-1.3,0-2.6,0.1-3.7,0.3
			c-1.1,0.2-2.1,0.6-2.9,1.2c-0.8,0.6-1.5,1.6-1.9,2.8s-0.7,2.8-0.7,4.9v7.3c0,2.1,0.2,3.7,0.7,4.9c0.4,1.2,1.1,2.1,1.8,2.8
			c0.8,0.6,1.6,1.1,2.6,1.2c1,0.2,2,0.3,3,0.3c0.2,0,0.4,0,0.6,0c0.2,0,0.5,0,0.9-0.1v-8.7h-4v-7.5h12.6v23.2
			c-1.3,0.2-2.8,0.5-4.5,0.7c-1.7,0.2-3.7,0.3-5.8,0.3c-2.8,0-5.3-0.3-7.5-0.9c-2.2-0.6-4.2-1.6-5.7-3c-1.6-1.4-2.8-3.3-3.7-5.6
			c-0.9-2.3-1.3-5.2-1.3-8.6V545.2z"/>
		<path class="st0" d="M586.1,527.6h10.7l10.6,40.5h-9.7l-1.9-8.9h-9.5l-2,8.9h-9.3L586.1,527.6z M594.1,551.7l-3-13.6l-3,13.6
			H594.1z"/>
		<path class="st0" d="M613.6,535.6h-8.7v-8h27.7v8h-8.7v32.5h-10.3V535.6z"/>
		<path class="st0" d="M637,527.6h10.2v32.5h13.5v8H637V527.6z"/>
		<path class="st0" d="M682,527.6h10.7l10.6,40.5h-9.7l-1.9-8.9h-9.5l-2,8.9H671L682,527.6z M690,551.7l-3-13.6l-3,13.6H690z"/>
		<path class="st0" d="M702.6,527.6h10l3,25.4l4.7-25.1h8l4.7,25.3l2.9-25.6h9.7l-7.5,40.5h-9.6l-4.2-23.4l-4.7,23.4h-9.8
			L702.6,527.6z"/>
		<path class="st0" d="M755.9,527.6h10.7l10.6,40.5h-9.7l-1.9-8.9h-9.5l-2,8.9h-9.3L755.9,527.6z M763.9,551.7l-3-13.6l-3,13.6
			H763.9z"/>
		<path class="st0" d="M780.7,527.6h14.7c8.2,0,12.3,4,12.3,12.1c0,2.2-0.3,4.1-1,5.7c-0.7,1.6-1.8,2.9-3.3,3.9
			c1.2,0.8,2,1.8,2.5,3.1c0.5,1.3,0.7,2.7,0.7,4.3v11.5H797v-10.8c0-1.1-0.2-2.1-0.5-2.9c-0.3-0.8-1.1-1.3-2.4-1.3h-3.8v15h-9.6
			V527.6z M794.4,545.9c1,0,1.7-0.4,2.3-1.2s0.9-2.1,0.9-4.1c0-2.1-0.3-3.5-0.9-4.2c-0.6-0.8-1.4-1.2-2.5-1.2h-3.9v10.6H794.4z"/>
		<path class="st0" d="M812.7,568.1v-40.5h13.5c2.3,0,4.5,0.3,6.4,0.9c1.9,0.6,3.6,1.6,5,3.1c1.4,1.4,2.4,3.3,3.2,5.6
			c0.8,2.3,1.2,5.2,1.2,8.6v4.1c0,3.4-0.4,6.3-1.2,8.6c-0.8,2.3-1.9,4.2-3.3,5.6s-3.1,2.5-5,3.1c-1.9,0.6-4,0.9-6.3,0.9H812.7z
			 M822.5,560.2h2.5c1.1,0,2-0.1,2.8-0.4c0.8-0.2,1.5-0.7,2.1-1.4c0.6-0.7,1-1.7,1.3-2.9c0.3-1.3,0.5-2.9,0.5-5v-5.2
			c0-2-0.1-3.7-0.4-4.9c-0.3-1.3-0.7-2.3-1.2-3c-0.5-0.7-1.2-1.2-2-1.5c-0.8-0.3-1.7-0.4-2.8-0.4h-2.6V560.2z"/>
	</g>
	<g>
		<path class="st1" d="M600.4,163h10.7l10.6,40.5h-9.7l-1.9-8.9h-9.5l-2,8.9h-9.3L600.4,163z M608.3,187.1l-3-13.6l-3,13.6H608.3z"
			/>
		<path class="st1" d="M625.2,163h9.2l8.1,19l7.8-19h9.4v40.5h-9.6v-22.2l-5.2,12.3h-5l-5.6-12.9v22.8h-9.1V163z"/>
		<path class="st1" d="M666,163h9.2l8.1,19l7.8-19h9.4v40.5h-9.6v-22.2l-5.2,12.3h-5l-5.6-12.9v22.8H666V163z"/>
		<path class="st1" d="M721.5,204.3c-2.3,0-4.5-0.3-6.4-1c-1.9-0.7-3.5-1.7-4.9-3.2c-1.4-1.5-2.4-3.4-3.1-5.8
			c-0.7-2.4-1.1-5.3-1.1-8.6v-4.9c0-3.4,0.4-6.3,1.1-8.6c0.7-2.4,1.8-4.3,3.2-5.8c1.4-1.5,3-2.5,4.9-3.2c1.9-0.7,4-1,6.3-1
			c2.3,0,4.5,0.3,6.4,1c1.9,0.7,3.5,1.7,4.9,3.2c1.3,1.5,2.4,3.4,3.1,5.8c0.7,2.4,1.1,5.3,1.1,8.6v4.9c0,3.4-0.4,6.3-1.1,8.6
			c-0.7,2.4-1.7,4.3-3.1,5.8c-1.3,1.5-3,2.5-4.9,3.2C726,204,723.9,204.3,721.5,204.3z M721.6,169.8c-1.1,0-2,0.2-2.6,0.7
			c-0.7,0.5-1.2,1.2-1.5,2.1s-0.6,2.1-0.8,3.4c-0.1,1.4-0.2,3-0.2,4.9v4.7c0,1.9,0.1,3.5,0.2,4.9c0.1,1.4,0.4,2.5,0.8,3.4
			c0.4,0.9,0.9,1.6,1.5,2.1c0.6,0.5,1.5,0.7,2.5,0.7c1.1,0,2-0.2,2.6-0.7c0.7-0.5,1.2-1.2,1.5-2.1c0.4-0.9,0.6-2.1,0.7-3.4
			c0.1-1.4,0.2-3,0.2-4.9v-4.7c0-3.7-0.3-6.5-0.9-8.3C725,170.7,723.6,169.8,721.6,169.8z"/>
	</g>
</g>
<g>
	<path class="st0" d="M1264.1,444.9H924.7c-2.5,0-4.6,2.1-4.6,4.6l0,0c0,2.5,2.1,4.6,4.6,4.6h339.4c2.5,0,4.6-2.1,4.6-4.6l0,0
		C1268.7,446.9,1266.6,444.9,1264.1,444.9z"/>
	<g>
		<polygon class="st0" points="1040,274.9 1156,390.9 1210.3,336.5 1148.7,274.9 		"/>
		<polygon class="st0" points="1164.2,399.8 1172.1,407 1226.4,352.7 1219.7,345.4 		"/>
		<polygon class="st0" points="970.2,344.1 963,352 1017.3,406.3 1024.5,399.5 		"/>
		<polygon class="st0" points="1148.3,274.9 1032.3,390.9 978,336.5 1039.6,274.9 		"/>
	</g>
	<g>
		<g>
			<g>
				<circle class="st0" cx="1094.2" cy="57.3" r="10.8"/>
			</g>
			<g>
				<circle class="st0" cx="1073.4" cy="59" r="10.8"/>
			</g>
			<g>
				<circle class="st0" cx="1053.2" cy="64.1" r="10.8"/>
			</g>
			<g>
				<circle class="st0" cx="1034.1" cy="72.5" r="10.8"/>
			</g>
			<g>
				<circle class="st0" cx="1016.6" cy="83.8" r="10.8"/>
			</g>
			<g>
				<circle class="st0" cx="1001.2" cy="97.9" r="10.8"/>
			</g>
			<g>
				<circle class="st0" cx="988.3" cy="114.2" r="10.8"/>
			</g>
			<g>
				<circle class="st0" cx="978.2" cy="132.5" r="10.8"/>
			</g>
			<g>
				<circle class="st0" cx="971.3" cy="152.2" r="10.8"/>
			</g>
			<g>
				<circle class="st0" cx="967.7" cy="172.7" r="10.8"/>
			</g>
			<g>
				<circle class="st0" cx="967.5" cy="193.6" r="10.8"/>
			</g>
			<g>
				<circle class="st0" cx="970.7" cy="214.2" r="10.8"/>
			</g>
			<g>
				<circle class="st0" cx="977.2" cy="234" r="10.8"/>
			</g>
			<g>
				<circle class="st0" cx="986.9" cy="252.4" r="10.8"/>
			</g>
			<g>
				<g>
					<circle class="st0" cx="999.5" cy="269.1" r="10.8"/>
				</g>
				<g>
					<circle class="st0" cx="1014.6" cy="283.4" r="10.8"/>
				</g>
				<g>
					<circle class="st0" cx="1031.9" cy="295.1" r="10.8"/>
				</g>
				<g>
					<circle class="st0" cx="1050.8" cy="303.8" r="10.8"/>
				</g>
				<g>
					<circle class="st0" cx="1071" cy="309.3" r="10.8"/>
				</g>
			</g>
		</g>
		<g>
			<g>
				<circle class="st0" cx="1094.6" cy="57.3" r="10.8"/>
			</g>
			<g>
				<circle class="st0" cx="1115.4" cy="59" r="10.8"/>
			</g>
			<g>
				<circle class="st0" cx="1135.6" cy="64.1" r="10.8"/>
			</g>
			<g>
				<circle class="st0" cx="1154.7" cy="72.5" r="10.8"/>
			</g>
			<g>
				<circle class="st0" cx="1172.2" cy="83.8" r="10.8"/>
			</g>
			<g>
				<circle class="st0" cx="1187.6" cy="97.9" r="10.8"/>
			</g>
			<g>
				<circle class="st0" cx="1200.5" cy="114.2" r="10.8"/>
			</g>
			<g>
				<circle class="st0" cx="1210.6" cy="132.5" r="10.8"/>
			</g>
			<g>
				<circle class="st0" cx="1217.5" cy="152.2" r="10.8"/>
			</g>
			<g>
				<circle class="st0" cx="1221.1" cy="172.7" r="10.8"/>
			</g>
			<g>
				<circle class="st0" cx="1221.3" cy="193.6" r="10.8"/>
			</g>
			<g>
				<circle class="st0" cx="1218.1" cy="214.2" r="10.8"/>
			</g>
			<g>
				<circle class="st0" cx="1211.6" cy="234" r="10.8"/>
			</g>
			<g>
				<circle class="st0" cx="1201.9" cy="252.4" r="10.8"/>
			</g>
			<g>
				<circle class="st0" cx="1189.3" cy="269.1" r="10.8"/>
			</g>
			<g>
				<circle class="st0" cx="1174.2" cy="283.4" r="10.8"/>
			</g>
			<g>
				<circle class="st0" cx="1156.9" cy="295.1" r="10.8"/>
			</g>
			<g>
				<circle class="st0" cx="1138" cy="303.8" r="10.8"/>
			</g>
			<g>
				<circle class="st0" cx="1117.8" cy="309.3" r="10.8"/>
			</g>
			<g>
				<circle class="st0" cx="1117.8" cy="309.3" r="10.8"/>
			</g>
		</g>
	</g>
	<circle class="st1" cx="1094.2" cy="184.4" r="121.8"/>
	<circle class="st0" cx="1094.2" cy="184.4" r="87.9"/>
	<g>
		<path class="st0" d="M1094.2,68.1c31.1,0,60.3,12.1,82.3,34.1s34.1,51.2,34.1,82.3s-12.1,60.3-34.1,82.3s-51.2,34.1-82.3,34.1
			s-60.3-12.1-82.3-34.1c-22-22-34.1-51.2-34.1-82.3s12.1-60.3,34.1-82.3C1033.9,80.2,1063.1,68.1,1094.2,68.1 M1094.2,57.3
			c-70.2,0-127.1,56.9-127.1,127.1s56.9,127,127.1,127s127.1-56.9,127.1-127.1S1164.4,57.3,1094.2,57.3L1094.2,57.3z"/>
	</g>
	<g class="st2">
		<path class="st0" d="M871.5,472.8h14.1c4.2,0,7.2,1.1,9.2,3.4c2,2.3,2.9,5.6,2.9,10c0,4.2-1,7.5-3,9.9c-2,2.4-5,3.7-8.9,3.7h-4.6
			v13.5h-9.8V472.8z M884,492.2c1.2,0,2.1-0.4,2.7-1.3c0.6-0.8,0.9-2.3,0.9-4.5c0-2.2-0.3-3.8-0.9-4.6c-0.6-0.9-1.4-1.3-2.6-1.3
			h-2.9v11.7H884z"/>
		<path class="st0" d="M902.8,472.8h23.6v7.8h-13.8v8.2h12.6v7.8h-12.6v9h14.3v7.8h-24V472.8z"/>
		<path class="st0" d="M945.8,514.2c-2.3,0-4.5-0.3-6.4-1c-1.9-0.7-3.5-1.7-4.9-3.2c-1.4-1.5-2.4-3.4-3.1-5.8s-1.1-5.3-1.1-8.7v-4.9
			c0-3.4,0.4-6.3,1.1-8.7c0.7-2.4,1.8-4.3,3.2-5.8c1.4-1.5,3-2.5,4.9-3.2c1.9-0.7,4-1,6.3-1c2.3,0,4.5,0.3,6.4,1
			c1.9,0.7,3.5,1.7,4.9,3.2c1.3,1.5,2.4,3.4,3.1,5.8c0.7,2.4,1.1,5.3,1.1,8.7v4.9c0,3.4-0.4,6.3-1.1,8.7c-0.7,2.4-1.7,4.3-3.1,5.8
			c-1.3,1.5-3,2.5-4.9,3.2C950.3,513.8,948.2,514.2,945.8,514.2z M945.9,479.6c-1.1,0-2,0.2-2.6,0.7c-0.7,0.5-1.2,1.2-1.5,2.1
			c-0.4,0.9-0.6,2.1-0.8,3.4c-0.1,1.4-0.2,3-0.2,4.9v4.7c0,1.9,0.1,3.5,0.2,4.9c0.1,1.4,0.4,2.5,0.8,3.4c0.4,0.9,0.9,1.6,1.5,2.1
			c0.6,0.5,1.5,0.7,2.5,0.7c1.1,0,2-0.2,2.6-0.7c0.7-0.5,1.2-1.2,1.5-2.1c0.4-0.9,0.6-2.1,0.7-3.4c0.1-1.4,0.2-3,0.2-4.9v-4.7
			c0-3.7-0.3-6.5-0.9-8.3C949.3,480.5,947.9,479.6,945.9,479.6z"/>
		<path class="st0" d="M966.7,472.8h14.1c4.2,0,7.2,1.1,9.2,3.4c2,2.3,2.9,5.6,2.9,10c0,4.2-1,7.5-3,9.9c-2,2.4-5,3.7-8.9,3.7h-4.6
			v13.5h-9.8V472.8z M979.2,492.2c1.2,0,2.1-0.4,2.7-1.3c0.6-0.8,0.9-2.3,0.9-4.5c0-2.2-0.3-3.8-0.9-4.6c-0.6-0.9-1.4-1.3-2.6-1.3
			h-2.9v11.7H979.2z"/>
		<path class="st0" d="M998.1,472.8h10.2v32.5h13.5v8h-23.7V472.8z"/>
		<path class="st0" d="M1026,472.8h23.6v7.8h-13.8v8.2h12.6v7.8h-12.6v9h14.3v7.8h-24V472.8z"/>
		<path class="st0" d="M1055.9,472.8h8.6l-4.9,15.4h-6.9L1055.9,472.8z M1067.3,472.8h8.6l-4.9,15.4h-6.9L1067.3,472.8z"/>
		<path class="st0" d="M1094.7,501.7c0-0.6-0.1-1-0.3-1.4c-0.2-0.4-0.5-0.7-0.9-1.1c-0.4-0.3-1-0.7-1.7-1c-0.7-0.3-1.6-0.7-2.6-1.2
			l-3.4-1.5c-1-0.4-2-0.9-2.8-1.5c-0.9-0.6-1.6-1.3-2.3-2.2c-0.7-0.9-1.2-2-1.6-3.2c-0.4-1.3-0.6-2.8-0.6-4.6c0-1.9,0.3-3.6,1-5.1
			c0.7-1.5,1.7-2.7,2.9-3.6c1.3-1,2.8-1.7,4.6-2.2c1.8-0.5,3.8-0.7,5.9-0.7c1.8,0,3.5,0.1,5.2,0.2c1.6,0.2,3.2,0.4,4.6,0.6v7.9
			c-1.4-0.2-2.8-0.4-4.1-0.6c-1.3-0.2-2.9-0.2-4.6-0.2c-1.8,0-3.2,0.2-4.3,0.7c-1.1,0.5-1.6,1.4-1.6,2.7c0,0.7,0.2,1.3,0.5,1.8
			s0.7,0.9,1.3,1.3c0.6,0.4,1.2,0.7,2,1.1c0.7,0.3,1.6,0.7,2.5,1.1l3.6,1.6c2.2,1,3.9,2.3,5.1,3.9c1.2,1.6,1.9,3.9,1.9,6.6
			c0,8.5-5.3,12.7-16,12.7c-2.3,0-4.2-0.1-5.8-0.3c-1.6-0.2-3.2-0.4-4.7-0.7v-8c0.7,0.1,1.4,0.3,2.1,0.4c0.7,0.1,1.4,0.3,2.1,0.3
			s1.5,0.2,2.3,0.2c0.8,0.1,1.8,0.1,2.8,0.1c2.4,0,4.2-0.3,5.3-1C1094.2,504.2,1094.7,503.2,1094.7,501.7z"/>
		<path class="st0" d="M1118.2,490.4c0-3.4,0.4-6.3,1.3-8.6s2-4.2,3.5-5.6c1.5-1.4,3.3-2.4,5.3-3c2.1-0.6,4.3-0.9,6.8-0.9
			c2.6,0,5.1,0.3,7.6,0.8v7.9c-1.1-0.3-2.2-0.5-3.1-0.6c-0.9-0.1-2-0.2-3.1-0.2c-1.1,0-2.1,0.1-3,0.3c-1,0.2-1.8,0.6-2.5,1.2
			c-0.7,0.6-1.3,1.6-1.7,2.8c-0.4,1.2-0.6,2.8-0.6,4.9v7.3c0,2.1,0.2,3.7,0.7,4.9c0.4,1.2,1,2.1,1.8,2.8s1.6,1.1,2.5,1.2
			c1,0.2,2,0.3,3,0.3c1.3,0,2.4-0.1,3.5-0.2s2-0.3,2.8-0.5v7.8c-1.3,0.3-2.6,0.5-3.9,0.6c-1.3,0.1-2.6,0.2-3.9,0.2
			c-2.5,0-4.7-0.3-6.8-0.9c-2.1-0.6-3.9-1.6-5.4-3s-2.7-3.3-3.6-5.6c-0.8-2.3-1.3-5.2-1.3-8.6V490.4z"/>
		<path class="st0" d="M1147.7,472.8h10.2v15.1h8.9v-15.1h10.3v40.5h-10.3v-16.8h-8.9v16.8h-10.2V472.8z"/>
		<path class="st0" d="M1198.1,514.2c-2.3,0-4.5-0.3-6.4-1c-1.9-0.7-3.5-1.7-4.9-3.2c-1.4-1.5-2.4-3.4-3.1-5.8s-1.1-5.3-1.1-8.7
			v-4.9c0-3.4,0.4-6.3,1.1-8.7c0.7-2.4,1.8-4.3,3.2-5.8c1.4-1.5,3-2.5,4.9-3.2c1.9-0.7,4-1,6.3-1c2.3,0,4.5,0.3,6.4,1
			c1.9,0.7,3.5,1.7,4.9,3.2c1.3,1.5,2.4,3.4,3.1,5.8s1.1,5.3,1.1,8.7v4.9c0,3.4-0.4,6.3-1.1,8.7c-0.7,2.4-1.7,4.3-3.1,5.8
			c-1.3,1.5-3,2.5-4.9,3.2C1202.7,513.8,1200.5,514.2,1198.1,514.2z M1198.2,479.6c-1.1,0-2,0.2-2.6,0.7c-0.7,0.5-1.2,1.2-1.5,2.1
			s-0.6,2.1-0.8,3.4c-0.1,1.4-0.2,3-0.2,4.9v4.7c0,1.9,0.1,3.5,0.2,4.9c0.1,1.4,0.4,2.5,0.8,3.4c0.4,0.9,0.9,1.6,1.5,2.1
			c0.6,0.5,1.5,0.7,2.5,0.7c1.1,0,2-0.2,2.6-0.7c0.7-0.5,1.2-1.2,1.5-2.1c0.4-0.9,0.6-2.1,0.7-3.4c0.1-1.4,0.2-3,0.2-4.9v-4.7
			c0-3.7-0.3-6.5-0.9-8.3S1200.3,479.6,1198.2,479.6z"/>
		<path class="st0" d="M1219.1,472.8h10.2v40.5h-10.2V472.8z"/>
		<path class="st0" d="M1234.8,490.4c0-3.4,0.4-6.3,1.3-8.6c0.9-2.3,2-4.2,3.5-5.6c1.5-1.4,3.3-2.4,5.3-3c2.1-0.6,4.3-0.9,6.8-0.9
			c2.6,0,5.1,0.3,7.6,0.8v7.9c-1.1-0.3-2.2-0.5-3.1-0.6c-0.9-0.1-2-0.2-3.1-0.2c-1.1,0-2.1,0.1-3,0.3c-1,0.2-1.8,0.6-2.5,1.2
			c-0.7,0.6-1.3,1.6-1.7,2.8c-0.4,1.2-0.6,2.8-0.6,4.9v7.3c0,2.1,0.2,3.7,0.7,4.9c0.4,1.2,1,2.1,1.8,2.8s1.6,1.1,2.5,1.2
			c1,0.2,2,0.3,3,0.3c1.3,0,2.4-0.1,3.5-0.2c1.1-0.1,2-0.3,2.8-0.5v7.8c-1.3,0.3-2.6,0.5-3.9,0.6c-1.3,0.1-2.6,0.2-3.9,0.2
			c-2.5,0-4.7-0.3-6.8-0.9c-2.1-0.6-3.9-1.6-5.4-3s-2.7-3.3-3.6-5.6c-0.8-2.3-1.3-5.2-1.3-8.6V490.4z"/>
		<path class="st0" d="M1264.3,472.8h23.6v7.8H1274v8.2h12.6v7.8H1274v9h14.3v7.8h-24V472.8z"/>
		<path class="st0" d="M1308.1,501.7c0-0.6-0.1-1-0.3-1.4c-0.2-0.4-0.5-0.7-0.9-1.1c-0.4-0.3-1-0.7-1.7-1c-0.7-0.3-1.6-0.7-2.6-1.2
			l-3.4-1.5c-1-0.4-2-0.9-2.8-1.5c-0.9-0.6-1.6-1.3-2.3-2.2c-0.7-0.9-1.2-2-1.6-3.2c-0.4-1.3-0.6-2.8-0.6-4.6c0-1.9,0.3-3.6,1-5.1
			c0.7-1.5,1.7-2.7,2.9-3.6c1.3-1,2.8-1.7,4.6-2.2c1.8-0.5,3.8-0.7,5.9-0.7c1.8,0,3.5,0.1,5.2,0.2c1.6,0.2,3.2,0.4,4.6,0.6v7.9
			c-1.4-0.2-2.8-0.4-4.1-0.6c-1.3-0.2-2.9-0.2-4.6-0.2c-1.8,0-3.2,0.2-4.3,0.7c-1.1,0.5-1.6,1.4-1.6,2.7c0,0.7,0.2,1.3,0.5,1.8
			c0.3,0.5,0.7,0.9,1.3,1.3c0.6,0.4,1.2,0.7,2,1.1c0.7,0.3,1.6,0.7,2.5,1.1l3.6,1.6c2.2,1,3.9,2.3,5.1,3.9c1.2,1.6,1.9,3.9,1.9,6.6
			c0,8.5-5.3,12.7-16,12.7c-2.3,0-4.2-0.1-5.8-0.3c-1.6-0.2-3.2-0.4-4.7-0.7v-8c0.7,0.1,1.4,0.3,2.1,0.4c0.7,0.1,1.4,0.3,2.1,0.3
			s1.5,0.2,2.3,0.2c0.8,0.1,1.8,0.1,2.8,0.1c2.4,0,4.2-0.3,5.3-1C1307.5,504.2,1308.1,503.2,1308.1,501.7z"/>
	</g>
	<g class="st2">
		<path class="st0" d="M900.5,527.6h9.2l8.1,19l7.8-19h9.4v40.5h-9.6v-22.2l-5.2,12.3h-5l-5.6-12.9v22.8h-9.1V527.6z"/>
		<path class="st0" d="M956,569c-2.3,0-4.5-0.3-6.4-1c-1.9-0.7-3.5-1.7-4.9-3.2c-1.4-1.5-2.4-3.4-3.1-5.8s-1.1-5.3-1.1-8.7v-4.9
			c0-3.4,0.4-6.3,1.1-8.7c0.7-2.4,1.8-4.3,3.2-5.8c1.4-1.5,3-2.5,4.9-3.2c1.9-0.7,4-1,6.3-1c2.3,0,4.5,0.3,6.4,1
			c1.9,0.7,3.5,1.7,4.9,3.2c1.3,1.5,2.4,3.4,3.1,5.8c0.7,2.4,1.1,5.3,1.1,8.7v4.9c0,3.4-0.4,6.3-1.1,8.7c-0.7,2.4-1.7,4.3-3.1,5.8
			c-1.3,1.5-3,2.5-4.9,3.2C960.5,568.6,958.3,569,956,569z M956,534.4c-1.1,0-2,0.2-2.6,0.7c-0.7,0.5-1.2,1.2-1.5,2.1
			c-0.4,0.9-0.6,2.1-0.8,3.4c-0.1,1.4-0.2,3-0.2,4.9v4.7c0,1.9,0.1,3.5,0.2,4.9c0.1,1.4,0.4,2.5,0.8,3.4c0.4,0.9,0.9,1.6,1.5,2.1
			c0.6,0.5,1.5,0.7,2.5,0.7c1.1,0,2-0.2,2.6-0.7c0.7-0.5,1.2-1.2,1.5-2.1c0.4-0.9,0.6-2.1,0.7-3.4c0.1-1.4,0.2-3,0.2-4.9v-4.7
			c0-3.7-0.3-6.5-0.9-8.3C959.4,535.3,958.1,534.4,956,534.4z"/>
		<path class="st0" d="M976.8,527.6H991c2.2,0,4,0.3,5.5,0.8c1.5,0.5,2.7,1.2,3.6,2.2c0.9,0.9,1.6,2,2,3.2c0.4,1.2,0.6,2.6,0.6,4
			c0,2.5-0.5,4.5-1.4,5.8c-0.9,1.3-2.2,2.3-3.7,3c0.8,0.4,1.6,0.8,2.3,1.3c0.7,0.5,1.3,1.2,1.8,2c0.5,0.8,0.9,1.8,1.1,2.9
			c0.3,1.1,0.4,2.5,0.4,4.1c0,3.8-1.1,6.7-3.2,8.5c-2.1,1.8-5.1,2.7-8.9,2.7h-14.3V527.6z M989.9,543.9c1.1,0,1.9-0.3,2.6-0.9
			c0.7-0.6,1-1.7,1-3.4c0-1.8-0.3-3-1-3.5c-0.7-0.5-1.5-0.8-2.5-0.8h-4v8.6H989.9z M990.1,560.5c0.5,0,1-0.1,1.4-0.2
			c0.5-0.1,0.9-0.3,1.2-0.6c0.4-0.3,0.7-0.8,0.9-1.5c0.2-0.6,0.3-1.5,0.3-2.6c0-1-0.1-1.8-0.3-2.5c-0.2-0.6-0.5-1.1-0.9-1.4
			c-0.4-0.3-0.8-0.5-1.2-0.7c-0.5-0.1-0.9-0.2-1.4-0.2h-4.1v9.6H990.1z"/>
		<path class="st0" d="M1008.3,527.6h10.2v40.5h-10.2V527.6z"/>
		<path class="st0" d="M1024.8,527.6h10.2v32.5h13.5v8h-23.7V527.6z"/>
		<path class="st0" d="M1052.8,527.6h23.6v7.8h-13.8v8.2h12.6v7.8h-12.6v9h14.3v7.8h-24V527.6z"/>
		<path class="st0" d="M1098.6,527.6h10.7l10.6,40.5h-9.7l-1.9-8.9h-9.5l-2,8.9h-9.3L1098.6,527.6z M1106.6,551.7l-3-13.6l-3,13.6
			H1106.6z"/>
		<path class="st0" d="M1119.2,527.6h10l3,25.4l4.7-25.1h8l4.7,25.3l2.9-25.6h9.7l-7.5,40.5h-9.6l-4.2-23.4l-4.7,23.4h-9.8
			L1119.2,527.6z"/>
		<path class="st0" d="M1172.5,527.6h10.7l10.6,40.5h-9.7l-1.9-8.9h-9.5l-2,8.9h-9.3L1172.5,527.6z M1180.4,551.7l-3-13.6l-3,13.6
			H1180.4z"/>
		<path class="st0" d="M1197.3,527.6h14.7c8.2,0,12.3,4,12.3,12.1c0,2.2-0.3,4.1-1,5.7c-0.7,1.6-1.8,2.9-3.3,3.9
			c1.2,0.8,2,1.8,2.5,3.1c0.5,1.3,0.7,2.7,0.7,4.3v11.5h-9.6v-10.8c0-1.1-0.2-2.1-0.5-2.9s-1.1-1.3-2.4-1.3h-3.8v15h-9.6V527.6z
			 M1211,545.9c1,0,1.7-0.4,2.3-1.2c0.6-0.8,0.8-2.1,0.8-4.1c0-2.1-0.3-3.5-0.9-4.2c-0.6-0.8-1.4-1.2-2.5-1.2h-3.9v10.6H1211z"/>
		<path class="st0" d="M1229.3,568.1v-40.5h13.5c2.3,0,4.5,0.3,6.4,0.9c1.9,0.6,3.6,1.6,5,3.1c1.4,1.4,2.4,3.3,3.2,5.6
			c0.8,2.3,1.2,5.2,1.2,8.6v4.1c0,3.4-0.4,6.3-1.2,8.6c-0.8,2.3-1.9,4.2-3.3,5.6c-1.4,1.4-3.1,2.5-5,3.1c-1.9,0.6-4,0.9-6.3,0.9
			H1229.3z M1239.1,560.2h2.5c1.1,0,2-0.1,2.8-0.4c0.8-0.2,1.5-0.7,2.1-1.4c0.6-0.7,1-1.7,1.3-2.9c0.3-1.3,0.5-2.9,0.5-5v-5.2
			c0-2-0.1-3.7-0.4-4.9c-0.3-1.3-0.7-2.3-1.2-3c-0.5-0.7-1.2-1.2-2-1.5c-0.8-0.3-1.7-0.4-2.8-0.4h-2.6V560.2z"/>
		<path class="st0" d="M1279.1,556.5c0-0.6-0.1-1-0.3-1.4c-0.2-0.4-0.5-0.7-0.9-1.1c-0.4-0.3-1-0.7-1.7-1c-0.7-0.3-1.6-0.7-2.6-1.2
			l-3.4-1.5c-1-0.4-2-0.9-2.8-1.5c-0.9-0.6-1.6-1.3-2.3-2.2c-0.7-0.9-1.2-2-1.6-3.2c-0.4-1.3-0.6-2.8-0.6-4.6c0-1.9,0.3-3.6,1-5.1
			c0.7-1.5,1.7-2.7,2.9-3.6c1.3-1,2.8-1.7,4.6-2.2c1.8-0.5,3.8-0.7,5.9-0.7c1.8,0,3.5,0.1,5.2,0.2c1.6,0.2,3.2,0.4,4.6,0.6v7.9
			c-1.4-0.2-2.8-0.4-4.1-0.6c-1.3-0.2-2.9-0.2-4.6-0.2c-1.8,0-3.2,0.2-4.3,0.7c-1.1,0.5-1.6,1.4-1.6,2.7c0,0.7,0.2,1.3,0.5,1.8
			c0.3,0.5,0.7,0.9,1.3,1.3s1.2,0.7,2,1.1c0.7,0.3,1.6,0.7,2.5,1.1l3.6,1.6c2.2,1,3.9,2.3,5.1,3.9c1.2,1.6,1.9,3.9,1.9,6.6
			c0,8.5-5.3,12.7-16,12.7c-2.3,0-4.2-0.1-5.8-0.3c-1.6-0.2-3.2-0.4-4.7-0.7v-8c0.7,0.1,1.4,0.3,2.1,0.4c0.7,0.1,1.4,0.3,2.1,0.3
			s1.5,0.2,2.3,0.2c0.8,0.1,1.8,0.1,2.8,0.1c2.4,0,4.2-0.3,5.3-1C1278.5,559,1279.1,558,1279.1,556.5z"/>
	</g>
	<g>
		<path class="st1" d="M1030.4,163h10.7l10.6,40.5h-9.7l-1.9-8.9h-9.5l-2,8.9h-9.3L1030.4,163z M1038.4,187.1l-3-13.6l-3,13.6
			H1038.4z"/>
		<path class="st1" d="M1055.3,163h9.2l8.1,19l7.8-19h9.4v40.5h-9.6v-22.2l-5.2,12.3h-5l-5.6-12.9v22.8h-9.1V163z"/>
		<path class="st1" d="M1096.1,163h9.2l8.1,19l7.8-19h9.4v40.5h-9.6v-22.2l-5.2,12.3h-5l-5.6-12.9v22.8h-9.1V163z"/>
		<path class="st1" d="M1151.6,204.3c-2.3,0-4.5-0.3-6.4-1c-1.9-0.7-3.5-1.7-4.9-3.2c-1.4-1.5-2.4-3.4-3.1-5.8
			c-0.7-2.4-1.1-5.3-1.1-8.6v-4.9c0-3.4,0.4-6.3,1.1-8.6c0.7-2.4,1.8-4.3,3.2-5.8c1.4-1.5,3-2.5,4.9-3.2c1.9-0.7,4-1,6.3-1
			c2.3,0,4.5,0.3,6.4,1c1.9,0.7,3.5,1.7,4.9,3.2c1.3,1.5,2.4,3.4,3.1,5.8c0.7,2.4,1.1,5.3,1.1,8.6v4.9c0,3.4-0.4,6.3-1.1,8.6
			c-0.7,2.4-1.7,4.3-3.1,5.8c-1.3,1.5-3,2.5-4.9,3.2C1156.1,204,1153.9,204.3,1151.6,204.3z M1151.6,169.8c-1.1,0-2,0.2-2.6,0.7
			c-0.7,0.5-1.2,1.2-1.5,2.1s-0.6,2.1-0.8,3.4c-0.1,1.4-0.2,3-0.2,4.9v4.7c0,1.9,0.1,3.5,0.2,4.9c0.1,1.4,0.4,2.5,0.8,3.4
			c0.4,0.9,0.9,1.6,1.5,2.1c0.6,0.5,1.5,0.7,2.5,0.7c1.1,0,2-0.2,2.6-0.7c0.7-0.5,1.2-1.2,1.5-2.1c0.4-0.9,0.6-2.1,0.7-3.4
			c0.1-1.4,0.2-3,0.2-4.9v-4.7c0-3.7-0.3-6.5-0.9-8.3C1155,170.7,1153.7,169.8,1151.6,169.8z"/>
	</g>
</g>
<g>
	<path class="st0" d="M1694.9,444.9h-339.4c-2.5,0-4.6,2.1-4.6,4.6l0,0c0,2.5,2.1,4.6,4.6,4.6h339.4c2.5,0,4.6-2.1,4.6-4.6l0,0
		C1699.5,446.9,1697.4,444.9,1694.9,444.9z"/>
	<g>
		<polygon class="st0" points="1470.8,274.9 1586.8,390.9 1641.1,336.5 1579.5,274.9 		"/>
		<polygon class="st0" points="1595,399.8 1602.9,407 1657.2,352.7 1650.5,345.4 		"/>
		<polygon class="st0" points="1401,344.1 1393.8,352 1448.1,406.3 1455.3,399.5 		"/>
		<polygon class="st0" points="1579.1,274.9 1463.1,390.9 1408.8,336.5 1470.4,274.9 		"/>
	</g>
	<g>
		<g>
			<g>
				<circle class="st0" cx="1525" cy="57.3" r="10.8"/>
			</g>
			<g>
				<circle class="st0" cx="1504.2" cy="59" r="10.8"/>
			</g>
			<g>
				<circle class="st0" cx="1484" cy="64.1" r="10.8"/>
			</g>
			<g>
				<circle class="st0" cx="1464.9" cy="72.5" r="10.8"/>
			</g>
			<g>
				<circle class="st0" cx="1447.4" cy="83.8" r="10.8"/>
			</g>
			<g>
				<circle class="st0" cx="1432" cy="97.9" r="10.8"/>
			</g>
			<g>
				<circle class="st0" cx="1419.1" cy="114.2" r="10.8"/>
			</g>
			<g>
				<circle class="st0" cx="1409" cy="132.5" r="10.8"/>
			</g>
			<g>
				<circle class="st0" cx="1402.1" cy="152.2" r="10.8"/>
			</g>
			<g>
				<circle class="st0" cx="1398.5" cy="172.7" r="10.8"/>
			</g>
			<g>
				<circle class="st0" cx="1398.3" cy="193.6" r="10.8"/>
			</g>
			<g>
				<circle class="st0" cx="1401.5" cy="214.2" r="10.8"/>
			</g>
			<g>
				<circle class="st0" cx="1408" cy="234" r="10.8"/>
			</g>
			<g>
				<circle class="st0" cx="1417.7" cy="252.4" r="10.8"/>
			</g>
			<g>
				<g>
					<circle class="st0" cx="1430.3" cy="269.1" r="10.8"/>
				</g>
				<g>
					<circle class="st0" cx="1445.4" cy="283.4" r="10.8"/>
				</g>
				<g>
					<circle class="st0" cx="1462.7" cy="295.1" r="10.8"/>
				</g>
				<g>
					<circle class="st0" cx="1481.6" cy="303.8" r="10.8"/>
				</g>
				<g>
					<circle class="st0" cx="1501.8" cy="309.3" r="10.8"/>
				</g>
			</g>
		</g>
		<g>
			<g>
				<circle class="st0" cx="1525.4" cy="57.3" r="10.8"/>
			</g>
			<g>
				<circle class="st0" cx="1546.2" cy="59" r="10.8"/>
			</g>
			<g>
				<circle class="st0" cx="1566.4" cy="64.1" r="10.8"/>
			</g>
			<g>
				<circle class="st0" cx="1585.5" cy="72.5" r="10.8"/>
			</g>
			<g>
				<circle class="st0" cx="1603" cy="83.8" r="10.8"/>
			</g>
			<g>
				<circle class="st0" cx="1618.4" cy="97.9" r="10.8"/>
			</g>
			<g>
				<circle class="st0" cx="1631.3" cy="114.2" r="10.8"/>
			</g>
			<g>
				<circle class="st0" cx="1641.4" cy="132.5" r="10.8"/>
			</g>
			<g>
				<circle class="st0" cx="1648.3" cy="152.2" r="10.8"/>
			</g>
			<g>
				<circle class="st0" cx="1651.9" cy="172.7" r="10.8"/>
			</g>
			<g>
				<circle class="st0" cx="1652.1" cy="193.6" r="10.8"/>
			</g>
			<g>
				<circle class="st0" cx="1648.9" cy="214.2" r="10.8"/>
			</g>
			<g>
				<circle class="st0" cx="1642.4" cy="234" r="10.8"/>
			</g>
			<g>
				<circle class="st0" cx="1632.7" cy="252.4" r="10.8"/>
			</g>
			<g>
				<circle class="st0" cx="1620.1" cy="269.1" r="10.8"/>
			</g>
			<g>
				<circle class="st0" cx="1605" cy="283.4" r="10.8"/>
			</g>
			<g>
				<circle class="st0" cx="1587.7" cy="295.1" r="10.8"/>
			</g>
			<g>
				<circle class="st0" cx="1568.8" cy="303.8" r="10.8"/>
			</g>
			<g>
				<circle class="st0" cx="1548.6" cy="309.3" r="10.8"/>
			</g>
			<g>
				<circle class="st0" cx="1548.6" cy="309.3" r="10.8"/>
			</g>
		</g>
	</g>
	<circle class="st1" cx="1525" cy="184.4" r="121.8"/>
	<circle class="st0" cx="1525" cy="184.4" r="87.9"/>
	<g>
		<path class="st0" d="M1525,68.1c31.1,0,60.3,12.1,82.3,34.1s34.1,51.2,34.1,82.3s-12.1,60.3-34.1,82.3s-51.2,34.1-82.3,34.1
			s-60.3-12.1-82.3-34.1s-34.1-51.2-34.1-82.3s12.1-60.3,34.1-82.3S1493.9,68.1,1525,68.1 M1525,57.3
			c-70.2,0-127.1,56.9-127.1,127.1s56.9,127,127.1,127s127.1-56.9,127.1-127.1S1595.2,57.3,1525,57.3L1525,57.3z"/>
	</g>
	<g class="st2">
		<path class="st0" d="M1414.6,472.8h10.7l10.6,40.5h-9.7l-1.9-8.9h-9.5l-2,8.9h-9.3L1414.6,472.8z M1422.5,496.9l-3-13.6l-3,13.6
			H1422.5z"/>
		<path class="st0" d="M1437.6,490.4c0-3.4,0.4-6.3,1.3-8.6c0.9-2.3,2-4.2,3.5-5.6c1.5-1.4,3.3-2.4,5.3-3c2.1-0.6,4.3-0.9,6.8-0.9
			c2.6,0,5.1,0.3,7.6,0.8v7.9c-1.1-0.3-2.2-0.5-3.1-0.6c-0.9-0.1-2-0.2-3.1-0.2c-1.1,0-2.1,0.1-3,0.3c-1,0.2-1.8,0.6-2.5,1.2
			c-0.7,0.6-1.3,1.6-1.7,2.8s-0.6,2.8-0.6,4.9v7.3c0,2.1,0.2,3.7,0.7,4.9c0.4,1.2,1,2.1,1.8,2.8s1.6,1.1,2.5,1.2c1,0.2,2,0.3,3,0.3
			c1.3,0,2.4-0.1,3.5-0.2s2-0.3,2.8-0.5v7.8c-1.3,0.3-2.6,0.5-3.9,0.6c-1.3,0.1-2.6,0.2-3.9,0.2c-2.5,0-4.7-0.3-6.8-0.9
			c-2.1-0.6-3.9-1.6-5.4-3s-2.7-3.3-3.6-5.6c-0.8-2.3-1.3-5.2-1.3-8.6V490.4z"/>
		<path class="st0" d="M1476,472.8h10.7l10.6,40.5h-9.7l-1.9-8.9h-9.5l-2,8.9h-9.3L1476,472.8z M1484,496.9l-3-13.6l-3,13.6H1484z"
			/>
		<path class="st0" d="M1500.8,513.3v-40.5h13.5c2.3,0,4.5,0.3,6.4,0.9c1.9,0.6,3.6,1.6,5,3.1c1.4,1.4,2.4,3.3,3.2,5.6
			c0.8,2.3,1.2,5.2,1.2,8.6v4.1c0,3.4-0.4,6.3-1.2,8.6s-1.9,4.2-3.3,5.6c-1.4,1.4-3.1,2.5-5,3.1c-1.9,0.6-4,0.9-6.3,0.9H1500.8z
			 M1510.6,505.4h2.5c1.1,0,2-0.1,2.8-0.4c0.8-0.2,1.5-0.7,2.1-1.4s1-1.7,1.3-2.9c0.3-1.3,0.5-2.9,0.5-5v-5.2c0-2-0.1-3.7-0.4-4.9
			c-0.3-1.3-0.7-2.3-1.2-3c-0.5-0.7-1.2-1.2-2-1.5c-0.8-0.3-1.7-0.4-2.8-0.4h-2.6V505.4z"/>
		<path class="st0" d="M1535.6,472.8h23.6v7.8h-13.8v8.2h12.6v7.8h-12.6v9h14.3v7.8h-24V472.8z"/>
		<path class="st0" d="M1564.4,472.8h9.2l8.1,19l7.8-19h9.4v40.5h-9.6v-22.2l-5.2,12.3h-5l-5.6-12.9v22.8h-9.1V472.8z"/>
		<path class="st0" d="M1605.2,472.8h10.2v40.5h-10.2V472.8z"/>
		<path class="st0" d="M1620.9,490.4c0-3.4,0.4-6.3,1.3-8.6c0.9-2.3,2-4.2,3.5-5.6c1.5-1.4,3.3-2.4,5.3-3c2.1-0.6,4.3-0.9,6.8-0.9
			c2.6,0,5.1,0.3,7.6,0.8v7.9c-1.1-0.3-2.2-0.5-3.1-0.6c-0.9-0.1-2-0.2-3.1-0.2c-1.1,0-2.1,0.1-3,0.3c-1,0.2-1.8,0.6-2.5,1.2
			c-0.7,0.6-1.3,1.6-1.7,2.8s-0.6,2.8-0.6,4.9v7.3c0,2.1,0.2,3.7,0.7,4.9c0.4,1.2,1,2.1,1.8,2.8s1.6,1.1,2.5,1.2c1,0.2,2,0.3,3,0.3
			c1.3,0,2.4-0.1,3.5-0.2s2-0.3,2.8-0.5v7.8c-1.3,0.3-2.6,0.5-3.9,0.6c-1.3,0.1-2.6,0.2-3.9,0.2c-2.5,0-4.7-0.3-6.8-0.9
			c-2.1-0.6-3.9-1.6-5.4-3s-2.7-3.3-3.6-5.6c-0.8-2.3-1.3-5.2-1.3-8.6V490.4z"/>
	</g>
	<g class="st2">
		<path class="st0" d="M1349.3,545.2c0-3.4,0.4-6.3,1.3-8.6c0.9-2.3,2-4.2,3.5-5.6c1.5-1.4,3.3-2.4,5.3-3c2.1-0.6,4.3-0.9,6.8-0.9
			c2.6,0,5.1,0.3,7.6,0.8v7.9c-1.1-0.3-2.2-0.5-3.1-0.6c-0.9-0.1-2-0.2-3.1-0.2c-1.1,0-2.1,0.1-3,0.3c-1,0.2-1.8,0.6-2.5,1.2
			c-0.7,0.6-1.3,1.6-1.7,2.8s-0.6,2.8-0.6,4.9v7.3c0,2.1,0.2,3.7,0.7,4.9c0.4,1.2,1,2.1,1.8,2.8s1.6,1.1,2.5,1.2c1,0.2,2,0.3,3,0.3
			c1.3,0,2.4-0.1,3.5-0.2s2-0.3,2.8-0.5v7.8c-1.3,0.3-2.6,0.5-3.9,0.6c-1.3,0.1-2.6,0.2-3.9,0.2c-2.5,0-4.7-0.3-6.8-0.9
			c-2.1-0.6-3.9-1.6-5.4-3s-2.7-3.3-3.6-5.6c-0.8-2.3-1.3-5.2-1.3-8.6V545.2z"/>
		<path class="st0" d="M1378.8,527.6h10.2v15.1h8.9v-15.1h10.3v40.5h-10.3v-16.8h-8.9v16.8h-10.2V527.6z"/>
		<path class="st0" d="M1429.2,569c-2.3,0-4.5-0.3-6.4-1c-1.9-0.7-3.5-1.7-4.9-3.2c-1.4-1.5-2.4-3.4-3.1-5.8s-1.1-5.3-1.1-8.7v-4.9
			c0-3.4,0.4-6.3,1.1-8.7c0.7-2.4,1.8-4.3,3.2-5.8c1.4-1.5,3-2.5,4.9-3.2c1.9-0.7,4-1,6.3-1c2.3,0,4.5,0.3,6.4,1
			c1.9,0.7,3.5,1.7,4.9,3.2c1.3,1.5,2.4,3.4,3.1,5.8s1.1,5.3,1.1,8.7v4.9c0,3.4-0.4,6.3-1.1,8.7s-1.7,4.3-3.1,5.8
			c-1.3,1.5-3,2.5-4.9,3.2C1433.7,568.6,1431.6,569,1429.2,569z M1429.2,534.4c-1.1,0-2,0.2-2.6,0.7s-1.2,1.2-1.5,2.1
			c-0.4,0.9-0.6,2.1-0.8,3.4c-0.1,1.4-0.2,3-0.2,4.9v4.7c0,1.9,0.1,3.5,0.2,4.9c0.1,1.4,0.4,2.5,0.8,3.4c0.4,0.9,0.9,1.6,1.5,2.1
			c0.6,0.5,1.5,0.7,2.5,0.7c1.1,0,2-0.2,2.6-0.7c0.7-0.5,1.2-1.2,1.5-2.1c0.4-0.9,0.6-2.1,0.7-3.4c0.1-1.4,0.2-3,0.2-4.9v-4.7
			c0-3.7-0.3-6.5-0.9-8.3C1432.6,535.3,1431.3,534.4,1429.2,534.4z"/>
		<path class="st0" d="M1450.1,527.6h10.2v40.5h-10.2V527.6z"/>
		<path class="st0" d="M1465.8,545.2c0-3.4,0.4-6.3,1.3-8.6s2-4.2,3.5-5.6c1.5-1.4,3.3-2.4,5.3-3c2.1-0.6,4.3-0.9,6.8-0.9
			c2.6,0,5.1,0.3,7.6,0.8v7.9c-1.1-0.3-2.2-0.5-3.1-0.6c-0.9-0.1-2-0.2-3.1-0.2c-1.1,0-2.1,0.1-3,0.3c-1,0.2-1.8,0.6-2.5,1.2
			c-0.7,0.6-1.3,1.6-1.7,2.8s-0.6,2.8-0.6,4.9v7.3c0,2.1,0.2,3.7,0.7,4.9c0.4,1.2,1,2.1,1.8,2.8s1.6,1.1,2.5,1.2c1,0.2,2,0.3,3,0.3
			c1.3,0,2.4-0.1,3.5-0.2c1.1-0.1,2-0.3,2.8-0.5v7.8c-1.3,0.3-2.6,0.5-3.9,0.6c-1.3,0.1-2.6,0.2-3.9,0.2c-2.5,0-4.7-0.3-6.8-0.9
			c-2.1-0.6-3.9-1.6-5.4-3s-2.7-3.3-3.6-5.6c-0.8-2.3-1.3-5.2-1.3-8.6V545.2z"/>
		<path class="st0" d="M1495.3,527.6h23.6v7.8H1505v8.2h12.6v7.8H1505v9h14.3v7.8h-24V527.6z"/>
		<path class="st0" d="M1541.2,527.6h10.7l10.6,40.5h-9.7l-1.9-8.9h-9.5l-2,8.9h-9.3L1541.2,527.6z M1549.1,551.7l-3-13.6l-3,13.6
			H1549.1z"/>
		<path class="st0" d="M1561.7,527.6h10l3,25.4l4.7-25.1h8l4.7,25.3l2.9-25.6h9.7l-7.5,40.5h-9.6l-4.2-23.4l-4.7,23.4h-9.8
			L1561.7,527.6z"/>
		<path class="st0" d="M1615,527.6h10.7l10.6,40.5h-9.7l-1.9-8.9h-9.5l-2,8.9h-9.3L1615,527.6z M1623,551.7l-3-13.6l-3,13.6H1623z"
			/>
		<path class="st0" d="M1639.9,527.6h14.7c8.2,0,12.3,4,12.3,12.1c0,2.2-0.3,4.1-1,5.7c-0.7,1.6-1.8,2.9-3.3,3.9
			c1.2,0.8,2,1.8,2.5,3.1c0.5,1.3,0.7,2.7,0.7,4.3v11.5h-9.6v-10.8c0-1.1-0.2-2.1-0.5-2.9s-1.1-1.3-2.4-1.3h-3.8v15h-9.6V527.6z
			 M1653.5,545.9c1,0,1.7-0.4,2.3-1.2c0.6-0.8,0.8-2.1,0.8-4.1c0-2.1-0.3-3.5-0.9-4.2c-0.6-0.8-1.4-1.2-2.5-1.2h-3.9v10.6H1653.5z"
			/>
		<path class="st0" d="M1671.9,568.1v-40.5h13.5c2.3,0,4.5,0.3,6.4,0.9c1.9,0.6,3.6,1.6,5,3.1c1.4,1.4,2.4,3.3,3.2,5.6
			c0.8,2.3,1.2,5.2,1.2,8.6v4.1c0,3.4-0.4,6.3-1.2,8.6s-1.9,4.2-3.3,5.6c-1.4,1.4-3.1,2.5-5,3.1c-1.9,0.6-4,0.9-6.3,0.9H1671.9z
			 M1681.6,560.2h2.5c1.1,0,2-0.1,2.8-0.4c0.8-0.2,1.5-0.7,2.1-1.4s1-1.7,1.3-2.9c0.3-1.3,0.5-2.9,0.5-5v-5.2c0-2-0.1-3.7-0.4-4.9
			c-0.3-1.3-0.7-2.3-1.2-3c-0.5-0.7-1.2-1.2-2-1.5c-0.8-0.3-1.7-0.4-2.8-0.4h-2.6V560.2z"/>
	</g>
	<g>
		<path class="st1" d="M1454,146.6h14.2c2.2,0,4,0.3,5.5,0.8c1.5,0.5,2.7,1.2,3.6,2.2c0.9,0.9,1.6,2,2,3.2c0.4,1.2,0.6,2.6,0.6,4
			c0,2.5-0.5,4.5-1.4,5.8c-0.9,1.3-2.2,2.3-3.7,3c0.8,0.4,1.6,0.8,2.3,1.3c0.7,0.5,1.3,1.2,1.8,2c0.5,0.8,0.9,1.8,1.1,2.9
			c0.3,1.1,0.4,2.5,0.4,4.1c0,3.8-1.1,6.7-3.2,8.5c-2.1,1.8-5.1,2.7-8.9,2.7H1454V146.6z M1467.2,162.8c1.1,0,1.9-0.3,2.6-0.9
			c0.7-0.6,1-1.7,1-3.4c0-1.8-0.3-3-1-3.5c-0.7-0.5-1.5-0.8-2.5-0.8h-4v8.6H1467.2z M1467.3,179.4c0.5,0,1-0.1,1.4-0.2
			c0.5-0.1,0.9-0.3,1.2-0.6c0.4-0.3,0.7-0.8,0.9-1.5c0.2-0.6,0.3-1.5,0.3-2.6c0-1-0.1-1.8-0.3-2.5c-0.2-0.6-0.5-1.1-0.9-1.4
			c-0.4-0.3-0.8-0.5-1.2-0.7c-0.5-0.1-0.9-0.2-1.4-0.2h-4.1v9.6H1467.3z"/>
		<path class="st1" d="M1485.5,146.6h14.7c8.2,0,12.3,4,12.3,12.1c0,2.2-0.3,4.1-1,5.7c-0.7,1.6-1.8,2.9-3.3,3.9
			c1.2,0.8,2,1.8,2.5,3.1c0.5,1.3,0.7,2.7,0.7,4.3v11.5h-9.6v-10.8c0-1.1-0.2-2.1-0.5-2.9c-0.3-0.8-1.1-1.3-2.4-1.3h-3.8v15h-9.6
			V146.6z M1499.2,164.8c1,0,1.7-0.4,2.3-1.2c0.6-0.8,0.9-2.1,0.9-4.1c0-2.1-0.3-3.5-0.9-4.2c-0.6-0.8-1.4-1.2-2.5-1.2h-3.9v10.6
			H1499.2z"/>
		<path class="st1" d="M1525.8,146.6h10.7l10.6,40.5h-9.7l-1.9-8.9h-9.5l-2,8.9h-9.3L1525.8,146.6z M1533.7,170.7l-3-13.6l-3,13.6
			H1533.7z"/>
		<path class="st1" d="M1550.6,146.6h10.2v40.5h-10.2V146.6z"/>
		<path class="st1" d="M1567.1,146.6h8.1l11.2,22v-22h9.4v40.5h-8.1l-11.2-21.2v21.2h-9.4V146.6z"/>
		<path class="st1" d="M1488.1,203.4h-8.7v-8h27.7v8h-8.7v32.5h-10.3V203.4z"/>
		<path class="st1" d="M1524.6,236.7c-2.3,0-4.5-0.3-6.4-1c-1.9-0.7-3.5-1.7-4.9-3.2c-1.4-1.5-2.4-3.4-3.1-5.8
			c-0.7-2.4-1.1-5.3-1.1-8.6v-4.9c0-3.4,0.4-6.3,1.1-8.6c0.7-2.4,1.8-4.3,3.2-5.8c1.4-1.5,3-2.5,4.9-3.2c1.9-0.7,4-1,6.3-1
			c2.3,0,4.5,0.3,6.4,1c1.9,0.7,3.5,1.7,4.9,3.2c1.3,1.5,2.4,3.4,3.1,5.8c0.7,2.4,1.1,5.3,1.1,8.6v4.9c0,3.4-0.4,6.3-1.1,8.6
			c-0.7,2.4-1.7,4.3-3.1,5.8c-1.3,1.5-3,2.5-4.9,3.2C1529.2,236.4,1527,236.7,1524.6,236.7z M1524.7,202.2c-1.1,0-2,0.2-2.6,0.7
			c-0.7,0.5-1.2,1.2-1.5,2.1s-0.6,2.1-0.8,3.4c-0.1,1.4-0.2,3-0.2,4.9v4.7c0,1.9,0.1,3.5,0.2,4.9c0.1,1.4,0.4,2.5,0.8,3.4
			c0.4,0.9,0.9,1.6,1.5,2.1c0.6,0.5,1.5,0.7,2.5,0.7c1.1,0,2-0.2,2.6-0.7c0.7-0.5,1.2-1.2,1.5-2.1c0.4-0.9,0.6-2.1,0.7-3.4
			c0.1-1.4,0.2-3,0.2-4.9v-4.7c0-3.7-0.3-6.5-0.9-8.3C1528.1,203.1,1526.8,202.2,1524.7,202.2z"/>
		<path class="st1" d="M1551.2,221.4l-10.2-26h10.3l5.3,15.9l5.3-15.9h9.7l-10.2,26v14.5h-10.2V221.4z"/>
	</g>
</g>
<g>
	<path class="st0" d="M404.1,444.9H64.7c-2.5,0-4.6,2.1-4.6,4.6l0,0c0,2.5,2.1,4.6,4.6,4.6h339.4c2.5,0,4.6-2.1,4.6-4.6l0,0
		C408.7,446.9,406.6,444.9,404.1,444.9z"/>
	<g>
		<polygon class="st0" points="180,274.9 296,390.9 350.3,336.5 288.7,274.9 		"/>
		<polygon class="st0" points="304.2,399.8 312.1,407 366.4,352.7 359.7,345.4 		"/>
		<polygon class="st0" points="110.2,344.1 103,352 157.3,406.3 164.5,399.5 		"/>
		<polygon class="st0" points="288.3,274.9 172.3,390.9 118,336.5 179.6,274.9 		"/>
	</g>
	<g>
		<g>
			<g>
				<circle class="st0" cx="234.2" cy="57.3" r="10.8"/>
			</g>
			<g>
				<circle class="st0" cx="213.4" cy="59" r="10.8"/>
			</g>
			<g>
				<circle class="st0" cx="193.2" cy="64.1" r="10.8"/>
			</g>
			<g>
				<circle class="st0" cx="174.1" cy="72.5" r="10.8"/>
			</g>
			<g>
				<circle class="st0" cx="156.6" cy="83.8" r="10.8"/>
			</g>
			<g>
				<circle class="st0" cx="141.2" cy="97.9" r="10.8"/>
			</g>
			<g>
				<circle class="st0" cx="128.3" cy="114.2" r="10.8"/>
			</g>
			<g>
				<circle class="st0" cx="118.2" cy="132.5" r="10.8"/>
			</g>
			<g>
				<circle class="st0" cx="111.3" cy="152.2" r="10.8"/>
			</g>
			<g>
				<circle class="st0" cx="107.7" cy="172.7" r="10.8"/>
			</g>
			<g>
				<circle class="st0" cx="107.5" cy="193.6" r="10.8"/>
			</g>
			<g>
				<circle class="st0" cx="110.7" cy="214.2" r="10.8"/>
			</g>
			<g>
				<circle class="st0" cx="117.2" cy="234" r="10.8"/>
			</g>
			<g>
				<circle class="st0" cx="126.9" cy="252.4" r="10.8"/>
			</g>
			<g>
				<g>
					<circle class="st0" cx="139.5" cy="269.1" r="10.8"/>
				</g>
				<g>
					<circle class="st0" cx="154.6" cy="283.4" r="10.8"/>
				</g>
				<g>
					<circle class="st0" cx="171.9" cy="295.1" r="10.8"/>
				</g>
				<g>
					<circle class="st0" cx="190.8" cy="303.8" r="10.8"/>
				</g>
				<g>
					<circle class="st0" cx="211" cy="309.3" r="10.8"/>
				</g>
			</g>
		</g>
		<g>
			<g>
				<circle class="st0" cx="234.6" cy="57.3" r="10.8"/>
			</g>
			<g>
				<circle class="st0" cx="255.4" cy="59" r="10.8"/>
			</g>
			<g>
				<circle class="st0" cx="275.6" cy="64.1" r="10.8"/>
			</g>
			<g>
				<circle class="st0" cx="294.7" cy="72.5" r="10.8"/>
			</g>
			<g>
				<circle class="st0" cx="312.2" cy="83.8" r="10.8"/>
			</g>
			<g>
				<circle class="st0" cx="327.6" cy="97.9" r="10.8"/>
			</g>
			<g>
				<circle class="st0" cx="340.5" cy="114.2" r="10.8"/>
			</g>
			<g>
				<circle class="st0" cx="350.6" cy="132.5" r="10.8"/>
			</g>
			<g>
				<circle class="st0" cx="357.5" cy="152.2" r="10.8"/>
			</g>
			<g>
				<circle class="st0" cx="361.1" cy="172.7" r="10.8"/>
			</g>
			<g>
				<circle class="st0" cx="361.3" cy="193.6" r="10.8"/>
			</g>
			<g>
				<circle class="st0" cx="358.1" cy="214.2" r="10.8"/>
			</g>
			<g>
				<circle class="st0" cx="351.6" cy="234" r="10.8"/>
			</g>
			<g>
				<circle class="st0" cx="341.9" cy="252.4" r="10.8"/>
			</g>
			<g>
				<circle class="st0" cx="329.3" cy="269.1" r="10.8"/>
			</g>
			<g>
				<circle class="st0" cx="314.2" cy="283.4" r="10.8"/>
			</g>
			<g>
				<circle class="st0" cx="296.9" cy="295.1" r="10.8"/>
			</g>
			<g>
				<circle class="st0" cx="278" cy="303.8" r="10.8"/>
			</g>
			<g>
				<circle class="st0" cx="257.8" cy="309.3" r="10.8"/>
			</g>
			<g>
				<circle class="st0" cx="257.8" cy="309.3" r="10.8"/>
			</g>
		</g>
	</g>
	<circle class="st1" cx="234.2" cy="184.4" r="121.8"/>
	<circle class="st0" cx="234.2" cy="184.4" r="87.9"/>
	<g>
		<path class="st0" d="M234.2,68.1c31.1,0,60.3,12.1,82.3,34.1s34.1,51.2,34.1,82.3s-12.1,60.3-34.1,82.3s-51.2,34.1-82.3,34.1
			s-60.3-12.1-82.3-34.1s-34.1-51.2-34.1-82.3s12.1-60.3,34.1-82.3S203.1,68.1,234.2,68.1 M234.2,57.3
			c-70.2,0-127.1,56.9-127.1,127.1s56.9,127,127.1,127s127.1-56.9,127.1-127.1S304.4,57.3,234.2,57.3L234.2,57.3z"/>
	</g>
	<g>
		<path class="st1" d="M170.5,163h10.7l10.6,40.5h-9.7l-1.9-8.9h-9.5l-2,8.9h-9.3L170.5,163z M178.4,187.1l-3-13.6l-3,13.6H178.4z"
			/>
		<path class="st1" d="M195.3,163h9.2l8.1,19l7.8-19h9.4v40.5h-9.6v-22.2l-5.2,12.3h-5l-5.6-12.9v22.8h-9.1V163z"/>
		<path class="st1" d="M236.1,163h9.2l8.1,19l7.8-19h9.4v40.5H261v-22.2l-5.2,12.3h-5l-5.6-12.9v22.8h-9.1V163z"/>
		<path class="st1" d="M291.6,204.3c-2.3,0-4.5-0.3-6.4-1c-1.9-0.7-3.5-1.7-4.9-3.2c-1.4-1.5-2.4-3.4-3.1-5.8
			c-0.7-2.4-1.1-5.3-1.1-8.6v-4.9c0-3.4,0.4-6.3,1.1-8.6c0.7-2.4,1.8-4.3,3.2-5.8c1.4-1.5,3-2.5,4.9-3.2c1.9-0.7,4-1,6.3-1
			c2.3,0,4.5,0.3,6.4,1c1.9,0.7,3.5,1.7,4.9,3.2c1.3,1.5,2.4,3.4,3.1,5.8c0.7,2.4,1.1,5.3,1.1,8.6v4.9c0,3.4-0.4,6.3-1.1,8.6
			c-0.7,2.4-1.7,4.3-3.1,5.8c-1.3,1.5-3,2.5-4.9,3.2C296.1,204,294,204.3,291.6,204.3z M291.6,169.8c-1.1,0-2,0.2-2.6,0.7
			c-0.7,0.5-1.2,1.2-1.5,2.1s-0.6,2.1-0.8,3.4c-0.1,1.4-0.2,3-0.2,4.9v4.7c0,1.9,0.1,3.5,0.2,4.9c0.1,1.4,0.4,2.5,0.8,3.4
			c0.4,0.9,0.9,1.6,1.5,2.1c0.6,0.5,1.5,0.7,2.5,0.7c1.1,0,2-0.2,2.6-0.7c0.7-0.5,1.2-1.2,1.5-2.1c0.4-0.9,0.6-2.1,0.7-3.4
			c0.1-1.4,0.2-3,0.2-4.9v-4.7c0-3.7-0.3-6.5-0.9-8.3C295,170.7,293.7,169.8,291.6,169.8z"/>
	</g>
	<g>
		<path class="st0" d="M46.1,472.5h14.1c4.2,0,7.2,1.1,9.2,3.4c2,2.3,2.9,5.6,2.9,10c0,4.2-1,7.5-3,9.9c-2,2.4-5,3.7-8.9,3.7h-4.6
			v13.5h-9.8V472.5z M58.6,491.8c1.2,0,2.1-0.4,2.7-1.3c0.6-0.9,0.9-2.3,0.9-4.5c0-2.2-0.3-3.8-0.9-4.6c-0.6-0.9-1.4-1.3-2.6-1.3
			h-2.9v11.7H58.6z"/>
		<path class="st0" d="M92.4,513.8c-2.5,0-4.6-0.3-6.5-0.9c-1.9-0.6-3.4-1.5-4.7-2.9c-1.3-1.3-2.2-3.1-2.9-5.2c-0.6-2.2-1-4.8-1-8
			v-24.3h10.2v23.4c0,1.9,0.1,3.4,0.2,4.7c0.1,1.3,0.3,2.4,0.7,3.2c0.3,0.8,0.8,1.4,1.5,1.8c0.6,0.4,1.5,0.5,2.5,0.5
			c1.1,0,1.9-0.2,2.5-0.5c0.6-0.4,1.1-1,1.5-1.8c0.3-0.8,0.6-1.9,0.7-3.2c0.1-1.3,0.2-2.9,0.2-4.7v-23.4h10.2v24.2
			c0,3.3-0.3,6-0.9,8.2c-0.6,2.2-1.5,3.9-2.8,5.3c-1.2,1.3-2.8,2.3-4.7,2.9S95,513.8,92.4,513.8z"/>
		<path class="st0" d="M113.6,472.5h14.2c2.2,0,4,0.3,5.5,0.8c1.5,0.5,2.7,1.2,3.6,2.2c0.9,0.9,1.6,2,2,3.2c0.4,1.2,0.6,2.6,0.6,4
			c0,2.6-0.5,4.5-1.4,5.8c-0.9,1.3-2.2,2.3-3.7,3c0.8,0.4,1.6,0.8,2.3,1.3c0.7,0.5,1.3,1.2,1.8,2c0.5,0.8,0.9,1.8,1.1,2.9
			c0.3,1.1,0.4,2.5,0.4,4.1c0,3.8-1.1,6.7-3.2,8.5c-2.1,1.8-5.1,2.7-8.9,2.7h-14.3V472.5z M126.8,488.7c1.1,0,1.9-0.3,2.6-0.9
			c0.7-0.6,1-1.7,1-3.4c0-1.8-0.3-3-1-3.5c-0.7-0.5-1.5-0.8-2.5-0.8h-4v8.6H126.8z M126.9,505.3c0.5,0,1-0.1,1.4-0.2
			c0.5-0.1,0.9-0.3,1.2-0.6c0.4-0.3,0.7-0.8,0.9-1.5c0.2-0.6,0.3-1.5,0.3-2.6c0-1-0.1-1.8-0.3-2.5c-0.2-0.6-0.5-1.1-0.9-1.4
			c-0.4-0.3-0.8-0.5-1.2-0.7c-0.5-0.1-0.9-0.2-1.4-0.2h-4.1v9.6H126.9z"/>
		<path class="st0" d="M145.1,472.5h10.2v32.5h13.5v8h-23.7V472.5z"/>
		<path class="st0" d="M173.1,472.5h10.2v40.5h-10.2V472.5z"/>
		<path class="st0" d="M188.8,490.1c0-3.4,0.4-6.3,1.3-8.6c0.9-2.3,2-4.2,3.5-5.6c1.5-1.4,3.3-2.4,5.3-3c2.1-0.6,4.3-0.9,6.8-0.9
			c2.6,0,5.1,0.3,7.6,0.8v7.9c-1.1-0.3-2.2-0.5-3.1-0.6c-0.9-0.1-2-0.2-3.1-0.2c-1.1,0-2.1,0.1-3,0.3c-1,0.2-1.8,0.6-2.5,1.2
			c-0.7,0.6-1.3,1.6-1.7,2.8s-0.6,2.8-0.6,4.9v7.3c0,2.1,0.2,3.7,0.7,4.9c0.4,1.2,1,2.1,1.8,2.8c0.7,0.6,1.6,1.1,2.5,1.2
			c1,0.2,2,0.3,3,0.3c1.3,0,2.4-0.1,3.5-0.2c1.1-0.1,2-0.3,2.8-0.5v7.8c-1.3,0.3-2.6,0.5-3.9,0.6c-1.3,0.1-2.6,0.2-3.9,0.2
			c-2.5,0-4.7-0.3-6.8-0.9c-2.1-0.6-3.9-1.6-5.4-3s-2.7-3.3-3.6-5.6c-0.8-2.3-1.3-5.2-1.3-8.6V490.1z"/>
		<path class="st0" d="M242.1,501.4c0-0.6-0.1-1-0.3-1.4c-0.2-0.4-0.5-0.7-0.9-1.1s-1-0.7-1.7-1c-0.7-0.3-1.6-0.7-2.6-1.2l-3.4-1.5
			c-1-0.4-2-0.9-2.8-1.5c-0.9-0.6-1.6-1.3-2.3-2.2c-0.7-0.9-1.2-2-1.6-3.2c-0.4-1.3-0.6-2.8-0.6-4.6c0-1.9,0.3-3.6,1-5.1
			c0.7-1.5,1.7-2.7,2.9-3.6c1.3-1,2.8-1.7,4.6-2.2c1.8-0.5,3.8-0.7,5.9-0.7c1.8,0,3.5,0.1,5.2,0.2c1.6,0.2,3.2,0.4,4.6,0.6v7.9
			c-1.4-0.2-2.8-0.4-4.1-0.6c-1.3-0.2-2.9-0.2-4.6-0.2c-1.8,0-3.2,0.2-4.3,0.7c-1.1,0.5-1.6,1.4-1.6,2.7c0,0.7,0.2,1.3,0.5,1.8
			c0.3,0.5,0.7,0.9,1.3,1.3c0.6,0.4,1.2,0.7,2,1.1c0.7,0.3,1.6,0.7,2.5,1.1l3.6,1.6c2.2,1,3.9,2.3,5.1,3.9c1.2,1.6,1.9,3.9,1.9,6.6
			c0,8.5-5.3,12.7-16,12.7c-2.3,0-4.2-0.1-5.8-0.3c-1.6-0.2-3.2-0.4-4.7-0.7v-8c0.7,0.1,1.4,0.3,2.1,0.4c0.7,0.1,1.4,0.3,2.1,0.3
			s1.5,0.2,2.3,0.2c0.8,0.1,1.8,0.1,2.8,0.1c2.4,0,4.2-0.3,5.3-1C241.6,503.9,242.1,502.8,242.1,501.4z"/>
		<path class="st0" d="M257.6,472.5h23.6v7.8h-13.8v8.2h12.6v7.8h-12.6v9h14.3v7.8h-24V472.5z"/>
		<path class="st0" d="M286.4,472.5h14.7c8.2,0,12.3,4,12.3,12.1c0,2.2-0.3,4.1-1,5.7c-0.7,1.6-1.8,2.9-3.3,3.9
			c1.2,0.8,2,1.8,2.5,3.1c0.5,1.3,0.7,2.7,0.7,4.3v11.5h-9.6v-10.8c0-1.1-0.2-2.1-0.5-2.9c-0.3-0.8-1.1-1.3-2.4-1.3H296v15h-9.6
			V472.5z M300.1,490.7c1,0,1.7-0.4,2.3-1.2c0.6-0.8,0.9-2.1,0.9-4.1c0-2.1-0.3-3.5-0.9-4.2c-0.6-0.8-1.4-1.2-2.5-1.2H296v10.6
			H300.1z"/>
		<path class="st0" d="M315,472.5h11.3l6.4,26.4l6.2-26.4h11l-12,40.5h-11L315,472.5z"/>
		<path class="st0" d="M353.4,472.5h10.2v40.5h-10.2V472.5z"/>
		<path class="st0" d="M369.2,490.1c0-3.4,0.4-6.3,1.3-8.6c0.9-2.3,2-4.2,3.5-5.6c1.5-1.4,3.3-2.4,5.3-3c2.1-0.6,4.3-0.9,6.8-0.9
			c2.6,0,5.1,0.3,7.6,0.8v7.9c-1.1-0.3-2.2-0.5-3.1-0.6c-0.9-0.1-2-0.2-3.1-0.2c-1.1,0-2.1,0.1-3,0.3c-1,0.2-1.8,0.6-2.5,1.2
			c-0.7,0.6-1.3,1.6-1.7,2.8s-0.6,2.8-0.6,4.9v7.3c0,2.1,0.2,3.7,0.7,4.9c0.4,1.2,1,2.1,1.8,2.8c0.7,0.6,1.6,1.1,2.5,1.2
			c1,0.2,2,0.3,3,0.3c1.3,0,2.4-0.1,3.5-0.2c1.1-0.1,2-0.3,2.8-0.5v7.8c-1.3,0.3-2.6,0.5-3.9,0.6c-1.3,0.1-2.6,0.2-3.9,0.2
			c-2.5,0-4.7-0.3-6.8-0.9c-2.1-0.6-3.9-1.6-5.4-3s-2.7-3.3-3.6-5.6c-0.8-2.3-1.3-5.2-1.3-8.6V490.1z"/>
		<path class="st0" d="M398.7,472.5h23.6v7.8h-13.8v8.2h12.6v7.8h-12.6v9h14.3v7.8h-24V472.5z"/>
		<path class="st0" d="M87.4,533.3h8.1l11.2,22v-22h9.4v40.5H108l-11.2-21.2v21.2h-9.4V533.3z"/>
		<path class="st0" d="M137.1,574.6c-2.3,0-4.5-0.3-6.4-1c-1.9-0.7-3.5-1.7-4.9-3.2c-1.4-1.5-2.4-3.4-3.1-5.8s-1.1-5.3-1.1-8.7v-4.9
			c0-3.4,0.4-6.3,1.1-8.6c0.7-2.4,1.8-4.3,3.2-5.8c1.4-1.5,3-2.5,4.9-3.2c1.9-0.7,4-1,6.3-1c2.3,0,4.5,0.3,6.4,1
			c1.9,0.7,3.5,1.7,4.9,3.2c1.3,1.5,2.4,3.4,3.1,5.8c0.7,2.4,1.1,5.2,1.1,8.6v4.9c0,3.4-0.4,6.3-1.1,8.7c-0.7,2.4-1.7,4.3-3.1,5.8
			c-1.3,1.5-3,2.6-4.9,3.2C141.6,574.3,139.5,574.6,137.1,574.6z M137.2,540.1c-1.1,0-2,0.2-2.6,0.7c-0.7,0.5-1.2,1.2-1.5,2.1
			c-0.4,0.9-0.6,2.1-0.8,3.4c-0.1,1.4-0.2,3-0.2,4.9v4.7c0,1.9,0.1,3.5,0.2,4.9c0.1,1.4,0.4,2.5,0.8,3.4s0.9,1.6,1.5,2.1
			c0.6,0.5,1.5,0.7,2.5,0.7c1.1,0,2-0.2,2.6-0.7c0.7-0.5,1.2-1.2,1.5-2.1s0.6-2.1,0.7-3.4c0.1-1.4,0.2-3,0.2-4.9v-4.7
			c0-3.7-0.3-6.5-0.9-8.3C140.6,541,139.2,540.1,137.2,540.1z"/>
		<path class="st0" d="M158,533.3h8.1l11.2,22v-22h9.4v40.5h-8.1l-11.2-21.2v21.2H158V533.3z"/>
		<path class="st0" d="M192.3,550.8h14.9v9.1h-14.9V550.8z"/>
		<path class="st0" d="M212.9,533.3H227c4.2,0,7.2,1.1,9.2,3.4c2,2.3,2.9,5.6,2.9,10c0,4.2-1,7.5-3,9.9c-2,2.4-5,3.7-8.9,3.7h-4.6
			v13.5h-9.8V533.3z M225.4,552.7c1.2,0,2.1-0.4,2.7-1.3c0.6-0.8,0.9-2.3,0.9-4.5c0-2.2-0.3-3.8-0.9-4.6c-0.6-0.9-1.4-1.3-2.6-1.3
			h-2.9v11.7H225.4z"/>
		<path class="st0" d="M244.2,533.3h14.7c8.2,0,12.3,4,12.3,12.1c0,2.2-0.3,4.1-1,5.7c-0.7,1.6-1.8,2.9-3.3,3.9
			c1.2,0.8,2,1.8,2.5,3.1c0.5,1.3,0.7,2.7,0.7,4.3v11.5h-9.6V563c0-1.1-0.2-2.1-0.5-2.9c-0.3-0.8-1.1-1.3-2.4-1.3h-3.8v15h-9.6
			V533.3z M257.8,551.6c1,0,1.7-0.4,2.3-1.2c0.6-0.8,0.9-2.1,0.9-4.1c0-2.1-0.3-3.5-0.9-4.2c-0.6-0.8-1.4-1.2-2.5-1.2h-3.9v10.6
			H257.8z"/>
		<path class="st0" d="M290.9,574.6c-2.3,0-4.5-0.3-6.4-1c-1.9-0.7-3.5-1.7-4.9-3.2c-1.4-1.5-2.4-3.4-3.1-5.8s-1.1-5.3-1.1-8.7v-4.9
			c0-3.4,0.4-6.3,1.1-8.6c0.7-2.4,1.8-4.3,3.2-5.8c1.4-1.5,3-2.5,4.9-3.2c1.9-0.7,4-1,6.3-1c2.3,0,4.5,0.3,6.4,1
			c1.9,0.7,3.5,1.7,4.9,3.2c1.3,1.5,2.4,3.4,3.1,5.8c0.7,2.4,1.1,5.2,1.1,8.6v4.9c0,3.4-0.4,6.3-1.1,8.7c-0.7,2.4-1.7,4.3-3.1,5.8
			c-1.3,1.5-3,2.6-4.9,3.2C295.4,574.3,293.2,574.6,290.9,574.6z M290.9,540.1c-1.1,0-2,0.2-2.6,0.7c-0.7,0.5-1.2,1.2-1.5,2.1
			c-0.4,0.9-0.6,2.1-0.8,3.4c-0.1,1.4-0.2,3-0.2,4.9v4.7c0,1.9,0.1,3.5,0.2,4.9c0.1,1.4,0.4,2.5,0.8,3.4s0.9,1.6,1.5,2.1
			c0.6,0.5,1.5,0.7,2.5,0.7c1.1,0,2-0.2,2.6-0.7c0.7-0.5,1.2-1.2,1.5-2.1s0.6-2.1,0.7-3.4c0.1-1.4,0.2-3,0.2-4.9v-4.7
			c0-3.7-0.3-6.5-0.9-8.3C294.3,541,293,540.1,290.9,540.1z"/>
		<path class="st0" d="M311.8,533.3h23.4v7.8h-13.6v8.9H334v7.9h-12.3v15.9h-9.8V533.3z"/>
		<path class="st0" d="M340,533.3h10.2v40.5H340V533.3z"/>
		<path class="st0" d="M363.3,541.3h-8.7v-8h27.7v8h-8.7v32.5h-10.3V541.3z"/>
	</g>
</g>
</svg>
