<svg xmlns="http://www.w3.org/2000/svg" xmlns:xlink="http://www.w3.org/1999/xlink" viewBox="0 0 657.27 269.04"><defs><style>.cls-1,.cls-11,.cls-5,.cls-6{fill:none;}.cls-1{stroke:#bdccd4;stroke-width:0.4px;}.cls-1,.cls-10,.cls-11,.cls-14,.cls-15,.cls-19,.cls-4,.cls-5,.cls-6{stroke-miterlimit:10;}.cls-2{font-size:10px;fill:#666;}.cls-2,.cls-3{font-family:ArialMT, Arial;}.cls-3{font-size:15.78px;}.cls-12,.cls-3{fill:#b3b3b3;}.cls-4{stroke-width:0.17px;fill:url(#linear-gradient);stroke:url(#linear-gradient-2);}.cls-5,.cls-6{stroke:#fff;}.cls-5{stroke-width:1.71px;}.cls-6{stroke-width:0.34px;}.cls-7{fill:#fff;}.cls-8{letter-spacing:-0.18em;}.cls-9{letter-spacing:0em;}.cls-10,.cls-19{fill:#f1580f;}.cls-10,.cls-11,.cls-14,.cls-15,.cls-19{stroke:#b3b3b3;}.cls-10,.cls-11,.cls-14,.cls-15{stroke-width:2.78px;}.cls-13{fill:#f2f2f2;}.cls-14,.cls-16{fill:#4ec48f;}.cls-15,.cls-17{fill:#31bdc5;}.cls-18{letter-spacing:-0.18em;}.cls-19{stroke-width:2.51px;}</style><linearGradient id="linear-gradient" x1="-2840.04" y1="7383.26" x2="-2650.79" y2="7383.26" gradientTransform="translate(-6750.29 -2623.15) rotate(-90)" gradientUnits="userSpaceOnUse"><stop offset="0" stop-color="#31bdc5"/><stop offset="0.43" stop-color="#97cbb2"/><stop offset="1" stop-color="#f1580f"/></linearGradient><linearGradient id="linear-gradient-2" x1="-2840.13" y1="7383.26" x2="-2650.7" y2="7383.26" gradientTransform="translate(-6750.29 -2623.15) rotate(-90)" gradientUnits="userSpaceOnUse"><stop offset="0" stop-color="#31bdc5"/><stop offset="0.29" stop-color="#97cbb2"/><stop offset="1" stop-color="#f1580f"/></linearGradient></defs><title>Asset 1</title><g id="Layer_2" data-name="Layer 2"><g id="Logos"><line class="cls-1" x1="657.27" y1="252.89" y2="252.89"/><text class="cls-2" transform="translate(17.77 265.79)">InfoGraphics</text><text class="cls-3" transform="translate(611.66 13.54)">Height</text><polygon class="cls-4" points="642.04 216.9 623.89 216.9 624.22 27.64 642.04 27.64 642.04 216.9"/><line class="cls-5" x1="642.86" y1="216.55" x2="642.86" y2="25.53"/><line class="cls-6" x1="633.56" y1="216.81" x2="643.22" y2="216.81"/><line class="cls-6" x1="633.56" y1="214.32" x2="643.22" y2="214.32"/><line class="cls-6" x1="633.56" y1="211.83" x2="643.22" y2="211.83"/><line class="cls-6" x1="633.56" y1="209.34" x2="643.22" y2="209.34"/><line class="cls-6" x1="633.56" y1="206.85" x2="643.22" y2="206.85"/><line class="cls-6" x1="633.56" y1="204.36" x2="643.22" y2="204.36"/><line class="cls-6" x1="633.56" y1="201.87" x2="643.22" y2="201.87"/><line class="cls-6" x1="633.56" y1="199.38" x2="643.22" y2="199.38"/><line class="cls-6" x1="633.56" y1="196.89" x2="643.22" y2="196.89"/><line class="cls-6" x1="633.56" y1="194.4" x2="643.22" y2="194.4"/><line class="cls-6" x1="633.56" y1="191.91" x2="643.22" y2="191.91"/><line class="cls-6" x1="633.56" y1="189.42" x2="643.22" y2="189.42"/><line class="cls-6" x1="633.56" y1="186.93" x2="643.22" y2="186.93"/><line class="cls-6" x1="633.56" y1="184.44" x2="643.22" y2="184.44"/><line class="cls-6" x1="633.56" y1="181.95" x2="643.22" y2="181.95"/><line class="cls-6" x1="633.56" y1="179.46" x2="643.22" y2="179.46"/><line class="cls-6" x1="633.56" y1="176.96" x2="643.22" y2="176.96"/><line class="cls-6" x1="633.56" y1="174.47" x2="643.22" y2="174.47"/><line class="cls-6" x1="633.56" y1="171.98" x2="643.22" y2="171.98"/><line class="cls-6" x1="633.56" y1="169.49" x2="643.22" y2="169.49"/><line class="cls-6" x1="633.56" y1="167" x2="643.22" y2="167"/><line class="cls-6" x1="633.56" y1="164.51" x2="643.22" y2="164.51"/><line class="cls-6" x1="633.56" y1="162.02" x2="643.22" y2="162.02"/><line class="cls-6" x1="633.56" y1="159.53" x2="643.22" y2="159.53"/><line class="cls-6" x1="633.56" y1="157.04" x2="643.22" y2="157.04"/><line class="cls-6" x1="633.56" y1="154.55" x2="643.22" y2="154.55"/><line class="cls-6" x1="633.56" y1="152.06" x2="643.22" y2="152.06"/><line class="cls-6" x1="633.56" y1="149.57" x2="643.22" y2="149.57"/><line class="cls-6" x1="633.56" y1="147.08" x2="643.22" y2="147.08"/><line class="cls-6" x1="633.56" y1="144.59" x2="643.22" y2="144.59"/><line class="cls-6" x1="633.56" y1="142.1" x2="643.22" y2="142.1"/><line class="cls-6" x1="633.56" y1="139.61" x2="643.22" y2="139.61"/><line class="cls-6" x1="633.56" y1="137.12" x2="643.22" y2="137.12"/><line class="cls-6" x1="633.56" y1="134.63" x2="643.22" y2="134.63"/><line class="cls-6" x1="633.56" y1="132.14" x2="643.22" y2="132.14"/><line class="cls-6" x1="633.56" y1="129.65" x2="643.22" y2="129.65"/><line class="cls-6" x1="633.56" y1="127.16" x2="643.22" y2="127.16"/><line class="cls-6" x1="633.56" y1="124.67" x2="643.22" y2="124.67"/><line class="cls-6" x1="633.56" y1="122.18" x2="643.22" y2="122.18"/><line class="cls-6" x1="633.56" y1="119.68" x2="643.22" y2="119.68"/><line class="cls-6" x1="633.56" y1="117.19" x2="643.22" y2="117.19"/><line class="cls-6" x1="633.56" y1="114.7" x2="643.22" y2="114.7"/><line class="cls-6" x1="633.56" y1="112.21" x2="643.22" y2="112.21"/><line class="cls-6" x1="633.56" y1="109.72" x2="643.22" y2="109.72"/><line class="cls-6" x1="633.56" y1="107.23" x2="643.22" y2="107.23"/><line class="cls-6" x1="633.56" y1="104.74" x2="643.22" y2="104.74"/><line class="cls-6" x1="633.56" y1="102.25" x2="643.22" y2="102.25"/><line class="cls-6" x1="633.56" y1="99.76" x2="643.22" y2="99.76"/><line class="cls-6" x1="633.56" y1="97.27" x2="643.22" y2="97.27"/><line class="cls-6" x1="633.56" y1="94.78" x2="643.22" y2="94.78"/><line class="cls-6" x1="633.56" y1="92.29" x2="643.22" y2="92.29"/><line class="cls-6" x1="633.56" y1="89.8" x2="643.22" y2="89.8"/><line class="cls-6" x1="633.56" y1="87.31" x2="643.22" y2="87.31"/><line class="cls-6" x1="633.56" y1="84.82" x2="643.22" y2="84.82"/><line class="cls-6" x1="633.56" y1="82.33" x2="643.22" y2="82.33"/><line class="cls-6" x1="633.56" y1="79.84" x2="643.22" y2="79.84"/><line class="cls-6" x1="633.56" y1="77.35" x2="643.22" y2="77.35"/><line class="cls-6" x1="633.56" y1="74.86" x2="643.22" y2="74.86"/><line class="cls-6" x1="633.56" y1="72.37" x2="643.22" y2="72.37"/><line class="cls-6" x1="633.56" y1="69.88" x2="643.22" y2="69.88"/><line class="cls-6" x1="633.56" y1="67.39" x2="643.22" y2="67.39"/><line class="cls-6" x1="633.56" y1="64.9" x2="643.22" y2="64.9"/><line class="cls-6" x1="633.56" y1="62.4" x2="643.22" y2="62.4"/><line class="cls-6" x1="633.56" y1="59.91" x2="643.22" y2="59.91"/><line class="cls-6" x1="633.56" y1="57.42" x2="643.22" y2="57.42"/><line class="cls-6" x1="633.56" y1="54.93" x2="643.22" y2="54.93"/><line class="cls-6" x1="633.56" y1="52.44" x2="643.22" y2="52.44"/><line class="cls-6" x1="633.56" y1="49.95" x2="643.22" y2="49.95"/><line class="cls-6" x1="633.56" y1="47.46" x2="643.22" y2="47.46"/><line class="cls-6" x1="633.56" y1="44.97" x2="643.22" y2="44.97"/><line class="cls-6" x1="633.56" y1="42.48" x2="643.22" y2="42.48"/><line class="cls-6" x1="633.56" y1="39.99" x2="643.22" y2="39.99"/><line class="cls-6" x1="633.56" y1="37.5" x2="643.22" y2="37.5"/><line class="cls-6" x1="633.56" y1="35.01" x2="643.22" y2="35.01"/><line class="cls-6" x1="633.56" y1="32.52" x2="643.22" y2="32.52"/><line class="cls-6" x1="633.56" y1="30.03" x2="643.22" y2="30.03"/><line class="cls-6" x1="633.56" y1="27.54" x2="643.22" y2="27.54"/><rect class="cls-7" x="640.67" y="21.66" width="4.38" height="4.38"/><text class="cls-3" transform="translate(43.61 42.26)">Diet:<tspan class="cls-8" x="32.44" y="0"> </tspan><tspan class="cls-9" x="33.98" y="0">Carnivore</tspan></text><circle class="cls-10" cx="28.83" cy="84.32" r="27.39"/><circle class="cls-11" cx="94.79" cy="84.32" r="27.39"/><circle class="cls-11" cx="160.75" cy="84.32" r="27.39"/><path class="cls-12" d="M114.22,77.53,93.36,93.66c2.87,3.71,9.41,4.68,14.83.49C116.05,88.07,114.22,77.53,114.22,77.53Z"/><path class="cls-12" d="M96.18,78.61c-5.42,4.19-6.13,10.76-3.26,14.47L113.78,77S104,72.53,96.18,78.61Z"/><polygon class="cls-13" points="113.05 82.98 113.14 82.3 108.27 81.67 108.89 76.81 108.21 76.73 107.5 82.27 108.18 82.36 108.18 82.35 113.05 82.98"/><polygon class="cls-13" points="109.79 86.37 109.9 85.57 104.17 84.83 104.91 79.13 104.11 79.02 103.27 85.53 104.07 85.63 104.07 85.63 109.79 86.37"/><polygon class="cls-13" points="106.94 89.81 107.06 88.84 100.14 87.95 101.03 81.05 100.06 80.92 99.05 88.8 100.02 88.92 100.02 88.92 106.94 89.81"/><polygon class="cls-13" points="104.48 93.29 104.63 92.11 96.16 91.03 97.24 82.58 96.06 82.42 94.83 92.06 96.01 92.21 96.01 92.21 104.48 93.29"/><path class="cls-12" d="M76.05,77.41s7.33-2.26,12.36,2.78c3.48,3.48,3.38,8.21,1,10.59"/><path class="cls-12" d="M75.68,77.78s-2.26,7.33,2.77,12.37c3.48,3.47,8.22,3.38,10.59,1"/><polygon class="cls-13" points="80.03 77.75 79.53 77.75 79.53 81.28 76.02 81.28 76.02 81.77 80.03 81.77 80.03 81.28 80.03 81.28 80.03 77.75"/><polygon class="cls-13" points="82.73 79.76 82.15 79.76 82.15 83.9 78.03 83.9 78.03 84.47 82.73 84.47 82.73 83.9 82.73 83.9 82.73 79.76"/><polygon class="cls-13" points="85.44 81.48 84.74 81.48 84.74 86.48 79.75 86.48 79.75 87.18 85.44 87.18 85.44 86.48 85.44 86.48 85.44 81.48"/><polygon class="cls-13" points="88.14 82.91 87.29 82.91 87.29 89.03 81.18 89.03 81.18 89.89 88.14 89.89 88.14 89.03 88.14 89.03 88.14 82.91"/><path class="cls-7" d="M26.42,85.22l2.4,2.4-6.23,6.22.12.11a3.09,3.09,0,0,1-2.19,5.27,3.1,3.1,0,0,1-3-2.58A3.09,3.09,0,0,1,18,90.51a3.07,3.07,0,0,1,2.18.9l0,0,6.23-6.22m0-2-1,1-5.38,5.39a4.49,4.49,0,0,0-5.23.81,4.48,4.48,0,0,0,0,6.33,4.41,4.41,0,0,0,1.53,1,4.73,4.73,0,0,0,1,1.54A4.48,4.48,0,0,0,24.44,94L29.8,88.6l1-1-1-1-2.4-2.4-1-1Z"/><path class="cls-7" d="M24.43,87.2l2.4,2.4-.54.55c3.26.39,10,.42,14.89-4.87,4.55-5,4.14-11.44.76-14.57h0c-3.4-3.12-9.91-3-14.47,2-4.75,5.18-4.25,11.76-3.6,15Z"/><path class="cls-12" d="M159.8,76.32c-6-6-14.68-3.29-14.68-3.29L161,88.89C163.81,86.07,163.92,80.45,159.8,76.32Z"/><path class="cls-12" d="M148,88.14c4.12,4.13,9.75,4,12.57,1.19L144.68,73.47S142,82.17,148,88.14Z"/><polygon class="cls-13" points="149.85 77.6 149.85 77.6 149.85 73.58 148.85 73.58 148.85 77.58 144.85 77.58 144.85 78.58 149.85 78.58 149.85 77.6"/><polygon class="cls-13" points="152.85 80.61 152.85 80.61 152.85 75.31 152.85 75.31 152.85 81.58 147.85 81.58 147.85 82.58 152.85 82.58 152.85 80.61"/><polygon class="cls-13" points="156.85 83.85 156.85 83.85 156.85 77.58 155.85 77.58 155.85 83.58 149.85 83.58 149.85 84.58 156.85 84.58 156.85 83.85"/><polygon class="cls-13" points="159.85 86.86 159.85 79.58 157.85 79.58 157.85 87.58 150.85 87.58 150.85 87.58 159.85 87.58 159.85 86.86 159.85 86.86"/><path class="cls-12" d="M163.39,87.35l1.93,1.93-5,5,.09.09a2.48,2.48,0,1,1-4.2,2.16,2.44,2.44,0,0,1-1.35-.69,2.48,2.48,0,0,1,0-3.51,2.47,2.47,0,0,1,3.51,0l0,0,5-5m0-1.58-.79.79-4.34,4.33a3.6,3.6,0,1,0-3,6.56,3.61,3.61,0,0,0,5.9,1.23,3.62,3.62,0,0,0,.61-4.29l4.31-4.32.79-.79-.79-.79-1.93-1.93-.79-.79Z"/><path class="cls-12" d="M161.79,89l1.93,1.93-.44.44c2.63.31,8.08.34,12-3.92,3.66-4,3.33-9.2.61-11.72h0c-2.74-2.51-8-2.39-11.64,1.61-3.82,4.17-3.43,9.47-2.9,12.11Z"/><circle class="cls-10" cx="28.83" cy="156.44" r="27.39"/><circle class="cls-14" cx="94.79" cy="156.44" r="27.39"/><circle class="cls-15" cx="160.75" cy="156.44" r="27.39"/><path class="cls-7" d="M114.22,149.65,93.36,165.77c2.87,3.71,9.41,4.69,14.83.5C116.05,160.19,114.22,149.65,114.22,149.65Z"/><path class="cls-7" d="M96.18,150.72c-5.42,4.2-6.13,10.77-3.26,14.48l20.86-16.13S104,144.65,96.18,150.72Z"/><polygon class="cls-16" points="113.05 155.09 113.14 154.41 108.27 153.79 108.89 148.93 108.21 148.84 107.5 154.38 108.18 154.47 108.18 154.47 113.05 155.09"/><polygon class="cls-16" points="109.79 158.48 109.9 157.68 104.17 156.95 104.91 151.24 104.11 151.14 103.27 157.65 104.07 157.75 104.07 157.75 109.79 158.48"/><polygon class="cls-16" points="106.94 161.92 107.06 160.96 100.14 160.07 101.03 153.16 100.06 153.04 99.05 160.91 100.02 161.04 100.02 161.04 106.94 161.92"/><polygon class="cls-16" points="104.48 165.41 104.63 164.23 96.16 163.14 97.24 154.69 96.06 154.54 94.83 164.18 96.01 164.33 96.01 164.33 104.48 165.41"/><path class="cls-7" d="M76.05,149.53s7.33-2.26,12.36,2.78c3.48,3.47,3.38,8.21,1,10.59"/><path class="cls-7" d="M75.68,149.9s-2.26,7.33,2.77,12.37c3.48,3.47,8.22,3.37,10.59,1"/><polygon class="cls-16" points="80.03 149.87 79.53 149.87 79.53 153.39 76.02 153.39 76.02 153.88 80.03 153.88 80.03 153.39 80.03 153.39 80.03 149.87"/><polygon class="cls-16" points="82.73 151.88 82.15 151.88 82.15 156.01 78.03 156.01 78.03 156.59 82.73 156.59 82.73 156.01 82.73 156.01 82.73 151.88"/><polygon class="cls-16" points="85.44 153.59 84.74 153.59 84.74 158.6 79.75 158.6 79.75 159.3 85.44 159.3 85.44 158.6 85.44 158.6 85.44 153.59"/><polygon class="cls-16" points="88.14 155.03 87.29 155.03 87.29 161.15 81.18 161.15 81.18 162 88.14 162 88.14 161.15 88.14 161.15 88.14 155.03"/><path class="cls-7" d="M26.42,157.33l2.4,2.4L22.59,166l.12.1a3.09,3.09,0,0,1-4.37,4.37,3.07,3.07,0,0,1-.86-1.67,3.2,3.2,0,0,1-1.68-.86,3.09,3.09,0,0,1,4.37-4.37l0,0,6.23-6.23m0-2-1,1-5.38,5.39a4.48,4.48,0,0,0-6.54,4,4.48,4.48,0,0,0,1.31,3.17,4.41,4.41,0,0,0,1.53,1,4.58,4.58,0,0,0,1,1.53,4.48,4.48,0,0,0,6.33,0,4.48,4.48,0,0,0,.75-5.33l5.36-5.36,1-1-1-1-2.4-2.4-1-1Z"/><path class="cls-7" d="M24.43,159.32l2.4,2.4-.54.55c3.26.39,10,.42,14.89-4.87,4.55-5,4.14-11.44.76-14.57h0c-3.4-3.12-9.91-3-14.47,2-4.75,5.18-4.25,11.76-3.6,15.05Z"/><path class="cls-7" d="M145.12,145.15s8.7-2.69,14.68,3.29c4.12,4.12,4,9.75,1.18,12.57"/><path class="cls-7" d="M144.68,145.58s-2.68,8.7,3.3,14.68c4.12,4.13,9.75,4,12.57,1.19"/><polygon class="cls-17" points="149.84 145.55 149.26 145.55 149.26 149.73 145.09 149.73 145.09 150.31 149.84 150.31 149.84 149.73 149.84 149.73 149.84 145.55"/><polygon class="cls-17" points="153.05 147.93 152.37 147.93 152.37 152.84 147.47 152.84 147.47 153.52 153.06 153.52 153.06 152.84 153.05 152.84 153.05 147.93"/><polygon class="cls-17" points="156.27 149.97 155.44 149.97 155.44 155.91 149.51 155.91 149.51 156.74 156.27 156.74 156.27 155.91 156.27 155.91 156.27 149.97"/><polygon class="cls-17" points="159.48 151.67 158.46 151.67 158.46 158.93 151.21 158.93 151.21 159.95 159.48 159.95 159.48 158.93 159.48 158.93 159.48 151.67"/><path class="cls-7" d="M163.39,159.47l1.93,1.93-5,5,.09.08a2.49,2.49,0,1,1-4.2,2.17,2.44,2.44,0,0,1-1.35-.69,2.49,2.49,0,0,1,3.51-3.52l0,0,5-5m0-1.58-.79.79L158.26,163a3.6,3.6,0,1,0-3,6.55,3.59,3.59,0,0,0,3.36,2.29,3.56,3.56,0,0,0,2.54-1,3.63,3.63,0,0,0,.61-4.3l4.31-4.31.79-.79-.79-.79-1.93-1.93-.79-.79Z"/><path class="cls-7" d="M161.79,161.07l1.93,1.93-.44.44c2.63.31,8.08.34,12-3.92,3.66-4,3.33-9.21.61-11.72h0c-2.74-2.51-8-2.39-11.64,1.61-3.82,4.17-3.43,9.46-2.9,12.11Z"/><text class="cls-3" transform="translate(305.1 42.26)">Population:<tspan class="cls-18" x="78.94" y="0"> </tspan><tspan x="80.48" y="0">Many</tspan></text><circle class="cls-11" cx="298.67" cy="84.32" r="27.39"/><circle class="cls-11" cx="364.63" cy="84.32" r="27.39"/><circle class="cls-15" cx="430.58" cy="84.32" r="27.39"/><circle class="cls-11" cx="298.67" cy="156.44" r="27.39"/><circle class="cls-11" cx="364.63" cy="156.44" r="27.39"/><circle class="cls-15" cx="430.58" cy="156.44" r="27.39"/><path class="cls-7" d="M415.7,87.5v-9h1.8l2.13,6.39c.2.59.35,1,.44,1.33.1-.32.26-.81.48-1.44l2.15-6.28h1.61v9h-1.15V80l-2.62,7.55h-1.08l-2.61-7.68V87.5Z"/><path class="cls-7" d="M430.36,86.7a4.21,4.21,0,0,1-1.19.73,3.27,3.27,0,0,1-1.22.22,2.35,2.35,0,0,1-1.65-.53,1.72,1.72,0,0,1-.58-1.34,1.77,1.77,0,0,1,.22-.88,1.73,1.73,0,0,1,.57-.63,2.8,2.8,0,0,1,.8-.37,8.62,8.62,0,0,1,1-.16,11,11,0,0,0,2-.38c0-.16,0-.25,0-.29a1.24,1.24,0,0,0-.31-1,1.88,1.88,0,0,0-1.26-.37,2,2,0,0,0-1.16.27,1.67,1.67,0,0,0-.55,1l-1.08-.15a2.69,2.69,0,0,1,.49-1.12,2.2,2.2,0,0,1,1-.66,4.48,4.48,0,0,1,1.49-.23,3.88,3.88,0,0,1,1.35.2,1.55,1.55,0,0,1,1.12,1.25,6.07,6.07,0,0,1,.05,1v1.47a17.65,17.65,0,0,0,.07,2,2.52,2.52,0,0,0,.28.78h-1.15A2.19,2.19,0,0,1,430.36,86.7Zm-.1-2.48a7.48,7.48,0,0,1-1.8.42,4.58,4.58,0,0,0-1,.22,1,1,0,0,0-.44.36,1,1,0,0,0-.15.53,1,1,0,0,0,.33.74,1.52,1.52,0,0,0,1,.29,2.23,2.23,0,0,0,1.13-.28,1.7,1.7,0,0,0,.74-.76,2.86,2.86,0,0,0,.17-1.11Z"/><path class="cls-7" d="M433.1,87.5V81h1v.93a2.34,2.34,0,0,1,2.08-1.08,2.74,2.74,0,0,1,1.08.21,1.75,1.75,0,0,1,.74.56,2.1,2.1,0,0,1,.35.82,6.38,6.38,0,0,1,.06,1.07v4H437.3v-4a2.86,2.86,0,0,0-.13-1,1,1,0,0,0-.46-.54,1.47,1.47,0,0,0-.77-.2,1.79,1.79,0,0,0-1.22.45,2.23,2.23,0,0,0-.51,1.7V87.5Z"/><path class="cls-7" d="M440.06,90l-.13-1a2.87,2.87,0,0,0,.64.1,1.15,1.15,0,0,0,.59-.13.9.9,0,0,0,.36-.34,5.91,5.91,0,0,0,.34-.83c0-.06.05-.15.1-.27L439.48,81h1.19L442,84.75a15.93,15.93,0,0,1,.48,1.52,12.23,12.23,0,0,1,.45-1.49l1.4-3.81h1.1L443,87.61a13,13,0,0,1-.62,1.48,2.16,2.16,0,0,1-.68.81,1.59,1.59,0,0,1-.91.25A2.19,2.19,0,0,1,440.06,90Z"/><path class="cls-12" d="M353.29,88.75v-9h6.09V80.8h-4.89v2.79h4.23v1.07h-4.23v4.09Z"/><path class="cls-12" d="M365.26,86.65l1.14.14a2.78,2.78,0,0,1-1,1.56,3,3,0,0,1-1.87.55,3,3,0,0,1-2.27-.88,3.46,3.46,0,0,1-.84-2.48,3.6,3.6,0,0,1,.85-2.56,2.89,2.89,0,0,1,2.2-.91,2.79,2.79,0,0,1,2.14.9,3.54,3.54,0,0,1,.83,2.5c0,.07,0,.17,0,.3h-4.87a2.48,2.48,0,0,0,.61,1.65,1.81,1.81,0,0,0,1.37.57,1.68,1.68,0,0,0,1-.32A2.09,2.09,0,0,0,365.26,86.65Zm-3.64-1.79h3.65a2.24,2.24,0,0,0-.42-1.24,1.71,1.71,0,0,0-1.37-.64,1.74,1.74,0,0,0-1.28.51A2,2,0,0,0,361.62,84.86Z"/><path class="cls-12" d="M369,88.75l-2-6.53h1.14l1,3.77.39,1.4.34-1.34,1-3.83h1.14l1,3.79.33,1.25.37-1.26,1.12-3.78H376l-2,6.53h-1.15l-1-3.91-.25-1.11-1.33,5Z"/><path class="cls-12" d="M280.31,88.75v-9h6.52V80.8h-5.32v2.76h5v1.06h-5v3.07H287v1.06Z"/><path class="cls-12" d="M287.81,88.75l2.39-3.39L288,82.22h1.38l1,1.53c.18.29.34.54.45.73.18-.27.35-.51.5-.72l1.1-1.54h1.32l-2.26,3.08,2.43,3.45h-1.35l-1.35-2-.35-.54-1.72,2.57Z"/><path class="cls-12" d="M297.26,87.76l.16,1a3.8,3.8,0,0,1-.83.1,1.89,1.89,0,0,1-.94-.19,1.1,1.1,0,0,1-.46-.5,4,4,0,0,1-.14-1.31V83.08h-.81v-.86h.81V80.6l1.1-.66v2.28h1.11v.86h-1.11V86.9a1.87,1.87,0,0,0,.06.61.5.5,0,0,0,.19.22.77.77,0,0,0,.38.08A3.55,3.55,0,0,0,297.26,87.76Z"/><path class="cls-12" d="M298.35,81V79.74h1.11V81Zm0,7.74V82.22h1.11v6.53Z"/><path class="cls-12" d="M301.15,88.75V82.22h1v.93a2.35,2.35,0,0,1,2.08-1.08,2.59,2.59,0,0,1,1.09.22,1.72,1.72,0,0,1,.74.55,2.09,2.09,0,0,1,.34.82,6.53,6.53,0,0,1,.06,1.08v4h-1.1v-4a3.12,3.12,0,0,0-.13-1,1.1,1.1,0,0,0-.46-.54A1.5,1.5,0,0,0,304,83a1.79,1.79,0,0,0-1.22.45,2.2,2.2,0,0,0-.52,1.71v3.56Z"/><path class="cls-12" d="M312.42,86.36l1.08.14a2.76,2.76,0,0,1-.91,1.76,2.63,2.63,0,0,1-1.8.64,2.78,2.78,0,0,1-2.16-.88,3.56,3.56,0,0,1-.82-2.51,4.62,4.62,0,0,1,.35-1.85,2.44,2.44,0,0,1,1.07-1.19,3.23,3.23,0,0,1,1.56-.4,2.7,2.7,0,0,1,1.74.54,2.5,2.5,0,0,1,.87,1.53l-1.08.17a1.76,1.76,0,0,0-.54-1,1.39,1.39,0,0,0-.95-.34,1.73,1.73,0,0,0-1.36.6,3.78,3.78,0,0,0,0,3.81,1.62,1.62,0,0,0,1.31.6,1.53,1.53,0,0,0,1.09-.4A2,2,0,0,0,312.42,86.36Z"/><path class="cls-12" d="M316.87,87.76l.16,1a3.82,3.82,0,0,1-.84.1,1.84,1.84,0,0,1-.93-.19,1.13,1.13,0,0,1-.47-.5,4,4,0,0,1-.14-1.31V83.08h-.81v-.86h.81V80.6l1.11-.66v2.28h1.11v.86h-1.11V86.9a2,2,0,0,0,.05.61.57.57,0,0,0,.19.22.8.8,0,0,0,.38.08A3.52,3.52,0,0,0,316.87,87.76Z"/><path class="cls-7" d="M415.7,159.15v-9h1.8l2.13,6.38c.2.6.35,1,.44,1.34.1-.33.26-.81.48-1.45l2.15-6.27h1.61v9h-1.15v-7.54l-2.62,7.54h-1.08l-2.61-7.67v7.67Z"/><path class="cls-7" d="M430.36,158.35a4.26,4.26,0,0,1-1.19.74,3.47,3.47,0,0,1-1.22.21,2.35,2.35,0,0,1-1.65-.52,1.74,1.74,0,0,1-.58-1.35,1.77,1.77,0,0,1,.22-.88,1.73,1.73,0,0,1,.57-.63,2.8,2.8,0,0,1,.8-.37,8.62,8.62,0,0,1,1-.16,11,11,0,0,0,2-.38c0-.15,0-.25,0-.29a1.24,1.24,0,0,0-.31-1,1.88,1.88,0,0,0-1.26-.37,2,2,0,0,0-1.16.27,1.71,1.71,0,0,0-.55,1l-1.08-.15a2.69,2.69,0,0,1,.49-1.12,2.2,2.2,0,0,1,1-.66,4.48,4.48,0,0,1,1.49-.23,3.88,3.88,0,0,1,1.35.2,1.75,1.75,0,0,1,.77.5,1.69,1.69,0,0,1,.35.75,6.07,6.07,0,0,1,.05,1v1.48a17.29,17.29,0,0,0,.07,2,2.52,2.52,0,0,0,.28.78h-1.15A2.14,2.14,0,0,1,430.36,158.35Zm-.1-2.48a7.48,7.48,0,0,1-1.8.42,4.58,4.58,0,0,0-1,.22,1.13,1.13,0,0,0-.44.36,1,1,0,0,0-.15.53,1,1,0,0,0,.33.74,1.46,1.46,0,0,0,1,.29,2.23,2.23,0,0,0,1.13-.28,1.7,1.7,0,0,0,.74-.76,2.86,2.86,0,0,0,.17-1.11Z"/><path class="cls-7" d="M433.1,159.15v-6.53h1v.93a2.34,2.34,0,0,1,2.08-1.08,2.58,2.58,0,0,1,1.08.22,1.66,1.66,0,0,1,.74.55,2.1,2.1,0,0,1,.35.82,6.53,6.53,0,0,1,.06,1.08v4H437.3v-4a2.86,2.86,0,0,0-.13-1,1,1,0,0,0-.46-.54,1.47,1.47,0,0,0-.77-.2,1.79,1.79,0,0,0-1.22.45,2.24,2.24,0,0,0-.51,1.71v3.56Z"/><path class="cls-7" d="M440.06,161.67l-.13-1a2.39,2.39,0,0,0,.64.1,1.26,1.26,0,0,0,.59-.12,1,1,0,0,0,.36-.35,5.58,5.58,0,0,0,.34-.82,1.91,1.91,0,0,1,.1-.27l-2.48-6.55h1.19L442,156.4a15.93,15.93,0,0,1,.48,1.52,12.23,12.23,0,0,1,.45-1.49l1.4-3.81h1.1L443,159.26a13.35,13.35,0,0,1-.62,1.49,2.2,2.2,0,0,1-.68.8,1.59,1.59,0,0,1-.91.25A2.19,2.19,0,0,1,440.06,161.67Z"/><path class="cls-12" d="M353.29,160.41v-9h6.09v1.06h-4.89v2.79h4.23v1.07h-4.23v4.1Z"/><path class="cls-12" d="M365.26,158.3l1.14.14a2.78,2.78,0,0,1-1,1.56,3,3,0,0,1-1.87.55,3,3,0,0,1-2.27-.88,3.45,3.45,0,0,1-.84-2.48,3.57,3.57,0,0,1,.85-2.55,2.86,2.86,0,0,1,2.2-.92,2.79,2.79,0,0,1,2.14.9,3.55,3.55,0,0,1,.83,2.51c0,.06,0,.16,0,.29h-4.87a2.48,2.48,0,0,0,.61,1.65,1.81,1.81,0,0,0,1.37.57,1.62,1.62,0,0,0,1-.32A2.09,2.09,0,0,0,365.26,158.3Zm-3.64-1.79h3.65a2.18,2.18,0,0,0-.42-1.23,1.68,1.68,0,0,0-1.37-.64,1.74,1.74,0,0,0-1.28.51A2,2,0,0,0,361.62,156.51Z"/><path class="cls-12" d="M369,160.41l-2-6.54h1.14l1,3.77.39,1.41.34-1.35,1-3.83h1.14l1,3.79.33,1.25.37-1.26,1.12-3.78H376l-2,6.54h-1.15l-1-3.92-.25-1.11-1.33,5Z"/><path class="cls-12" d="M280.31,160.41v-9h6.52v1.06h-5.32v2.76h5v1.06h-5v3.07H287v1.07Z"/><path class="cls-12" d="M287.81,160.41l2.39-3.4L288,153.87h1.38l1,1.53c.18.3.34.54.45.74.18-.27.35-.51.5-.72l1.1-1.55h1.32L291.49,157l2.43,3.46h-1.35l-1.35-2-.35-.55-1.72,2.58Z"/><path class="cls-12" d="M297.26,159.41l.16,1a3.8,3.8,0,0,1-.83.1,1.89,1.89,0,0,1-.94-.19,1.05,1.05,0,0,1-.46-.5,3.94,3.94,0,0,1-.14-1.31v-3.76h-.81v-.86h.81v-1.62l1.1-.66v2.28h1.11v.86h-1.11v3.82a1.87,1.87,0,0,0,.06.61.5.5,0,0,0,.19.22.77.77,0,0,0,.38.08A3.55,3.55,0,0,0,297.26,159.41Z"/><path class="cls-12" d="M298.35,152.66v-1.27h1.11v1.27Zm0,7.75v-6.54h1.11v6.54Z"/><path class="cls-12" d="M301.15,160.41v-6.54h1v.93a2.35,2.35,0,0,1,2.08-1.08,2.75,2.75,0,0,1,1.09.22,1.72,1.72,0,0,1,.74.55,2.16,2.16,0,0,1,.34.82,6.61,6.61,0,0,1,.06,1.08v4h-1.1v-4a3.12,3.12,0,0,0-.13-1,1.14,1.14,0,0,0-.46-.54,1.5,1.5,0,0,0-.77-.2,1.79,1.79,0,0,0-1.22.45,2.2,2.2,0,0,0-.52,1.71v3.57Z"/><path class="cls-12" d="M312.42,158l1.08.14a2.81,2.81,0,0,1-.91,1.77,2.67,2.67,0,0,1-1.8.63,2.81,2.81,0,0,1-2.16-.87,3.6,3.6,0,0,1-.82-2.52,4.62,4.62,0,0,1,.35-1.85,2.49,2.49,0,0,1,1.07-1.19,3.23,3.23,0,0,1,1.56-.4,2.7,2.7,0,0,1,1.74.54,2.5,2.5,0,0,1,.87,1.53l-1.08.17a1.76,1.76,0,0,0-.54-1,1.43,1.43,0,0,0-.95-.33,1.76,1.76,0,0,0-1.36.59,3.8,3.8,0,0,0,0,3.82,1.64,1.64,0,0,0,1.31.59,1.53,1.53,0,0,0,1.09-.4A2,2,0,0,0,312.42,158Z"/><path class="cls-12" d="M316.87,159.41l.16,1a3.82,3.82,0,0,1-.84.1,1.84,1.84,0,0,1-.93-.19,1.08,1.08,0,0,1-.47-.5,3.94,3.94,0,0,1-.14-1.31v-3.76h-.81v-.86h.81v-1.62l1.11-.66v2.28h1.11v.86h-1.11v3.82a2,2,0,0,0,.05.61.57.57,0,0,0,.19.22.8.8,0,0,0,.38.08A3.52,3.52,0,0,0,316.87,159.41Z"/><path class="cls-19" d="M338.44,164.35a27.4,27.4,0,0,0,52.38,0"/></g></g></svg>