<svg xmlns="http://www.w3.org/2000/svg" viewBox="0 0 641.14 403.29"><defs><style>.cls-1{fill:none;stroke:#000;stroke-width:0.35px;}.cls-1,.cls-12,.cls-13,.cls-14,.cls-15,.cls-16,.cls-17,.cls-18,.cls-21,.cls-22{stroke-miterlimit:10;}.cls-2{fill:#6d6f70;}.cls-3{fill:#808083;}.cls-4{fill:#f05a22;}.cls-5{fill:#96cab1;}.cls-6{fill:#32bcc4;}.cls-7{fill:#f1f1f1;}.cls-8{fill:#a5a7aa;}.cls-18,.cls-9{fill:#fff;}.cls-10{fill:#5e5e5e;}.cls-11{fill:#afdfe3;}.cls-12,.cls-21{fill:#a6a8ab;stroke:#a6a8ab;}.cls-12,.cls-13,.cls-14,.cls-15,.cls-16{stroke-width:1.57px;}.cls-13{fill:#31bdc5;}.cls-13,.cls-14,.cls-15,.cls-16,.cls-17,.cls-22{stroke:#fff;}.cls-14,.cls-17{fill:#97cbb2;}.cls-15,.cls-19,.cls-20{fill:#6d6e70;}.cls-16,.cls-22{fill:#f1580f;}.cls-17,.cls-18,.cls-21,.cls-22{stroke-width:1.57px;}.cls-18{stroke:#6d6e70;}.cls-20{font-size:10.22px;font-family:Helvetica, Helvetica;}</style></defs><title>zoo02</title><g id="Layer_2" data-name="Layer 2"><g id="Logos"><rect class="cls-1" x="455.01" y="46.57" width="172.63" height="307.14"/><rect class="cls-1" x="441.68" y="0.17" width="199.29" height="402.94" rx="27.72" ry="27.72"/><rect class="cls-1" x="13.5" y="46.57" width="172.63" height="307.14"/><rect class="cls-1" x="0.17" y="0.17" width="199.29" height="402.94" rx="27.72" ry="27.72"/><rect class="cls-1" x="234.25" y="46.57" width="172.63" height="307.14"/><rect class="cls-1" x="220.93" y="0.17" width="199.29" height="402.94" rx="27.72" ry="27.72"/><path class="cls-2" d="M338.91,171.36c-1.22,0-7.52,0-7.52,0l8-9.9-10.78,0v2.7h5.26s-3.59,4.33-6.35,7.88a25.7,25.7,0,0,0,2,2h9.37Z"/><path class="cls-2" d="M290.28,170.65l-12.93.29,11.71-14H275.19c0,1.08,0,2.09,0,3.08h7.49s-6.55,7.65-9.52,11.69a22.27,22.27,0,0,0,2.14,2.15h13.82a6.74,6.74,0,0,0,2.54-.42"/><path class="cls-2" d="M289.77,161.4a6.16,6.16,0,1,0,6.15,6.16A6.16,6.16,0,0,0,289.77,161.4Zm0,9.28a3.12,3.12,0,1,1,3.12-3.12A3.12,3.12,0,0,1,289.77,170.68Z"/><path class="cls-2" d="M301.16,161.4a6.16,6.16,0,1,0,6.16,6.16A6.15,6.15,0,0,0,301.16,161.4Zm0,9.28a3.12,3.12,0,1,1,3.13-3.12A3.12,3.12,0,0,1,301.16,170.68Z"/><path class="cls-2" d="M314.52,164.53a.62.62,0,0,1,0-.93c1.74-2,3.44-4.12,5.16-6.18l.4-.52c-1.14,0-2.16,0-3.18,0a1.19,1.19,0,0,0-1,.48c-1.4,1.64-2.82,3.25-4.24,4.88l-.62.69v-6h-3.72a2.41,2.41,0,0,0-.71.07,6,6,0,0,0-1.39.49,3.55,3.55,0,0,0-1.8,3.09v1h2.76a9.78,9.78,0,0,1,.05-1.07c.06-.33.3-.95.85-1a5.25,5.25,0,0,1,.89,0c0,.05,0,13.79,0,14.2,0,1.37-2.24,1-2.24,1h0v2.81a9.11,9.11,0,0,0,3.41-.35,2.85,2.85,0,0,0,1.86-2.94c0-.74,0-1.36,0-1.95,0-.38,0-3,0-4.29a1.78,1.78,0,0,1,.89-1.76c.14.19.3.39.45.6,1.17,1.58,5,7.2,5,7.2h4C321.19,173.82,315.22,165.5,314.52,164.53Z"/><path class="cls-2" d="M367.88,176.41h0l-.54-.07a1.54,1.54,0,0,1-1.52-1.75v-1.31c0-2.65,0-4.44-.09-7.09-.08-2-.75-3.55-2.41-4.35a4.75,4.75,0,0,0-6,1.57,3.91,3.91,0,0,0-2.93-2h-.12a4.56,4.56,0,0,0-1.17-.05h0l-.18,0a6,6,0,0,0-1.6.41l-1.22-.47h-1.42v2.07c0,2.3,0,3.36,0,5.69v5h3.12v-.75c0-2.43,0-4.16,0-6.43a.15.15,0,0,1,0-.07v-.08a2.11,2.11,0,0,1,2-2.21,2,2,0,0,1,1.68,1c0,.06.06.13.1.2s.05.11.07.17a.83.83,0,0,1,0,.15,3,3,0,0,1,.08.32c0,.06,0,.14,0,.22s0,.09,0,.14v0s0,.11,0,.17c0,1.28,0,1.7,0,3v4.16h3.06V173c0-2.3,0-3.74,0-6a3.57,3.57,0,0,1,0-.47,2.07,2.07,0,0,1,2-1.83,2.11,2.11,0,0,1,2,2.21v.13c0,.46,0,1.24,0,1.65,0,2.63,0,4,0,6.59a3.69,3.69,0,0,0,1.79,3.58,10.69,10.69,0,0,0,3.25.69v0Z"/><path class="cls-2" d="M320.34,163.68l5,0v.73a29.35,29.35,0,0,0-3.25.16,4.66,4.66,0,0,0-4.29,4.91,4.87,4.87,0,0,0,4.74,4.44c1.27,0,2.54,0,3.81,0a2,2,0,0,0,2.14-2c0-.88,0-1.75,0-2.63h0v-2.69s0-.06,0-.09v-.62a4.83,4.83,0,0,0-4.83-4.6h-.12l-3.19.06Zm5.06,7.73H323a2.17,2.17,0,1,1,.1-4.34h1.48a.79.79,0,0,1,.81.76v3.57Z"/><path class="cls-2" d="M339.86,163.68l5,0v.73a29.35,29.35,0,0,0-3.25.16,4.66,4.66,0,0,0-4.29,4.91A4.88,4.88,0,0,0,342,174c1.26,0,2.53,0,3.8,0a2,2,0,0,0,2.14-2c0-.88,0-1.75,0-2.63h0v-2.69s0-.06,0-.09v-.62a4.83,4.83,0,0,0-4.83-4.6H343l-3.19.06Zm5.06,5.74v1.22a.8.8,0,0,1-.81.77h-1.48a2.17,2.17,0,1,1-.1-4.33h2.39Z"/><path class="cls-3" d="M321,156.14h.54v.47a1.73,1.73,0,0,1,.36-.36,1.07,1.07,0,0,1,.61-.18.88.88,0,0,1,.88.51,1.23,1.23,0,0,1,.43-.39,1.25,1.25,0,0,1,.56-.12.9.9,0,0,1,.89.47,1.55,1.55,0,0,1,.13.69v2.18h-.57v-2.27a.52.52,0,0,0-.16-.45.65.65,0,0,0-.4-.12.78.78,0,0,0-.56.22,1,1,0,0,0-.23.72v1.9h-.56v-2.13a1.18,1.18,0,0,0-.08-.49.49.49,0,0,0-.47-.23.81.81,0,0,0-.57.24,1.2,1.2,0,0,0-.25.88v1.73H321Z"/><path class="cls-3" d="M328,157.43a.29.29,0,0,0,.25-.16.39.39,0,0,0,0-.21.46.46,0,0,0-.2-.41,1.12,1.12,0,0,0-.57-.12.71.71,0,0,0-.61.23.74.74,0,0,0-.13.38h-.52a1,1,0,0,1,.39-.84,1.64,1.64,0,0,1,.88-.24,1.77,1.77,0,0,1,.94.22.77.77,0,0,1,.35.69v1.88a.21.21,0,0,0,0,.14s.07,0,.15,0h.08l.1,0v.41l-.2,0h-.18a.43.43,0,0,1-.41-.2.7.7,0,0,1-.1-.3,1.35,1.35,0,0,1-.48.38,1.47,1.47,0,0,1-.7.16,1,1,0,0,1-.74-.27.94.94,0,0,1-.29-.69.93.93,0,0,1,.28-.71,1.35,1.35,0,0,1,.75-.31Zm-1.16,1.49a.66.66,0,0,0,.41.14,1.22,1.22,0,0,0,.56-.14.75.75,0,0,0,.46-.73v-.44a.92.92,0,0,1-.26.11,1.7,1.7,0,0,1-.31.06l-.33,0a1.28,1.28,0,0,0-.45.13.47.47,0,0,0-.25.45A.44.44,0,0,0,326.83,158.92Z"/><path class="cls-3" d="M331.53,156.27a1.54,1.54,0,0,1,.32.31v-.41h.51v3a2.23,2.23,0,0,1-.18,1,1.31,1.31,0,0,1-1.29.67,1.58,1.58,0,0,1-.89-.24.92.92,0,0,1-.4-.74h.56a.57.57,0,0,0,.16.34.79.79,0,0,0,.58.18.8.8,0,0,0,.82-.44,2.39,2.39,0,0,0,.11-.94,1,1,0,0,1-.4.37,1.29,1.29,0,0,1-.61.12,1.32,1.32,0,0,1-.93-.37,1.7,1.7,0,0,1-.39-1.25,1.9,1.9,0,0,1,.4-1.29,1.25,1.25,0,0,1,1-.46A1.23,1.23,0,0,1,331.53,156.27Zm.07.59a.8.8,0,0,0-.63-.29.78.78,0,0,0-.79.54,2.05,2.05,0,0,0-.12.76,1.39,1.39,0,0,0,.23.85.72.72,0,0,0,.6.28.84.84,0,0,0,.83-.53,1.73,1.73,0,0,0,.13-.71A1.36,1.36,0,0,0,331.6,156.86Z"/><path class="cls-3" d="M333.2,154.92h.56v.63h-.56Zm0,1.24h.56v3.25h-.56Z"/><path class="cls-3" d="M336.75,156.31a1.31,1.31,0,0,1,.42.93h-.54a1,1,0,0,0-.22-.5.69.69,0,0,0-.56-.2.77.77,0,0,0-.75.51,2,2,0,0,0-.15.82,1.53,1.53,0,0,0,.21.83.73.73,0,0,0,.65.34.74.74,0,0,0,.55-.21,1.17,1.17,0,0,0,.27-.57h.54a1.29,1.29,0,0,1-1.4,1.25,1.24,1.24,0,0,1-1-.47,1.76,1.76,0,0,1-.39-1.17,2,2,0,0,1,.42-1.34,1.36,1.36,0,0,1,1.07-.48A1.48,1.48,0,0,1,336.75,156.31Z"/><path class="cls-3" d="M339.47,157.43a.3.3,0,0,0,.26-.16.55.55,0,0,0,0-.21.44.44,0,0,0-.2-.41,1.1,1.1,0,0,0-.57-.12.71.71,0,0,0-.61.23.74.74,0,0,0-.13.38h-.51a1,1,0,0,1,.39-.84,1.58,1.58,0,0,1,.87-.24,1.74,1.74,0,0,1,.94.22.76.76,0,0,1,.36.69v1.88a.29.29,0,0,0,0,.14.19.19,0,0,0,.15,0h.08l.1,0v.41l-.2,0h-.18a.43.43,0,0,1-.41-.2.7.7,0,0,1-.1-.3,1.35,1.35,0,0,1-.48.38,1.46,1.46,0,0,1-.69.16,1.06,1.06,0,0,1-.75-.27.94.94,0,0,1-.29-.69.9.9,0,0,1,.29-.71,1.35,1.35,0,0,1,.74-.31Zm-1.16,1.49a.68.68,0,0,0,.42.14,1.25,1.25,0,0,0,.56-.14.77.77,0,0,0,.46-.73v-.44a1.27,1.27,0,0,1-.26.11l-.31.06-.34,0a1.28,1.28,0,0,0-.45.13.47.47,0,0,0-.25.45A.47.47,0,0,0,338.31,158.92Z"/><path class="cls-3" d="M341.21,154.92h.55v4.49h-.55Z"/><path class="cls-3" d="M346.08,157.43a.3.3,0,0,0,.26-.16.55.55,0,0,0,0-.21.44.44,0,0,0-.2-.41,1.1,1.1,0,0,0-.57-.12.71.71,0,0,0-.61.23.74.74,0,0,0-.13.38h-.51a1,1,0,0,1,.39-.84,1.58,1.58,0,0,1,.87-.24,1.74,1.74,0,0,1,.94.22.76.76,0,0,1,.36.69v1.88a.29.29,0,0,0,0,.14.21.21,0,0,0,.15,0h.08l.1,0v.41l-.19,0h-.19a.44.44,0,0,1-.41-.2.71.71,0,0,1-.09-.3,1.49,1.49,0,0,1-.49.38,1.46,1.46,0,0,1-.69.16,1.08,1.08,0,0,1-.75-.27.94.94,0,0,1-.28-.69.89.89,0,0,1,.28-.71,1.35,1.35,0,0,1,.75-.31Zm-1.16,1.49a.68.68,0,0,0,.42.14,1.25,1.25,0,0,0,.56-.14.75.75,0,0,0,.46-.73v-.44a1.27,1.27,0,0,1-.26.11l-.31.06-.34,0a1.28,1.28,0,0,0-.44.13.52.52,0,0,0-.09.83Z"/><path class="cls-3" d="M347.81,156.14h.52v.47a1.55,1.55,0,0,1,.49-.42,1.4,1.4,0,0,1,.58-.12,1,1,0,0,1,.94.48,1.72,1.72,0,0,1,.14.76v2.1h-.56v-2.06a1.08,1.08,0,0,0-.09-.48.53.53,0,0,0-.53-.31,1.32,1.32,0,0,0-.32,0,.89.89,0,0,0-.4.27.86.86,0,0,0-.18.34,2.08,2.08,0,0,0,0,.49v1.71h-.55Z"/><path class="cls-3" d="M351.29,154.92h.56v.63h-.56Zm0,1.24h.56v3.25h-.56Z"/><path class="cls-3" d="M352.68,156.14h.55v.47a1.72,1.72,0,0,1,.35-.36,1.1,1.1,0,0,1,.62-.18,1,1,0,0,1,.63.19.92.92,0,0,1,.24.32,1.32,1.32,0,0,1,.43-.39,1.28,1.28,0,0,1,.56-.12.92.92,0,0,1,.9.47,1.7,1.7,0,0,1,.13.69v2.18h-.58v-2.27a.52.52,0,0,0-.16-.45.65.65,0,0,0-.4-.12.79.79,0,0,0-.56.22,1,1,0,0,0-.23.72v1.9h-.56v-2.13a1.18,1.18,0,0,0-.08-.49.49.49,0,0,0-.47-.23.81.81,0,0,0-.56.24,1.2,1.2,0,0,0-.26.88v1.73h-.55Z"/><path class="cls-3" d="M359.65,157.43a.27.27,0,0,0,.25-.16.39.39,0,0,0,0-.21.46.46,0,0,0-.2-.41,1.1,1.1,0,0,0-.57-.12.71.71,0,0,0-.61.23.74.74,0,0,0-.13.38h-.52a1,1,0,0,1,.4-.84,1.58,1.58,0,0,1,.87-.24,1.74,1.74,0,0,1,.94.22.76.76,0,0,1,.36.69v1.88a.29.29,0,0,0,0,.14.19.19,0,0,0,.15,0h.08l.1,0v.41l-.2,0h-.18a.43.43,0,0,1-.41-.2.7.7,0,0,1-.1-.3,1.35,1.35,0,0,1-.48.38,1.46,1.46,0,0,1-.69.16,1.06,1.06,0,0,1-.75-.27.94.94,0,0,1-.29-.69.9.9,0,0,1,.29-.71,1.35,1.35,0,0,1,.74-.31Zm-1.16,1.49a.68.68,0,0,0,.42.14,1.25,1.25,0,0,0,.56-.14.77.77,0,0,0,.46-.73v-.44a1.27,1.27,0,0,1-.26.11l-.31.06-.34,0a1.28,1.28,0,0,0-.45.13.47.47,0,0,0-.25.45A.47.47,0,0,0,358.49,158.92Z"/><path class="cls-3" d="M361.39,154.92h.55v4.49h-.55Z"/><path class="cls-3" d="M363.1,158.39a.72.72,0,0,0,.14.42.87.87,0,0,0,.73.26,1.09,1.09,0,0,0,.55-.13.43.43,0,0,0,.24-.41.34.34,0,0,0-.19-.32,2.56,2.56,0,0,0-.48-.16l-.44-.11a2,2,0,0,1-.63-.23.69.69,0,0,1-.36-.62.92.92,0,0,1,.34-.75,1.36,1.36,0,0,1,.91-.28,1.27,1.27,0,0,1,1.08.43.88.88,0,0,1,.2.59h-.52a.65.65,0,0,0-.13-.34.88.88,0,0,0-.67-.21.82.82,0,0,0-.49.12.36.36,0,0,0-.16.31.38.38,0,0,0,.21.34,1.51,1.51,0,0,0,.37.14l.37.09a2.83,2.83,0,0,1,.81.27.74.74,0,0,1,.32.67,1,1,0,0,1-.33.75,1.48,1.48,0,0,1-1,.32,1.36,1.36,0,0,1-1-.33,1.21,1.21,0,0,1-.33-.82Z"/><polygon class="cls-2" points="323.15 243.07 288.72 229.11 281.93 231.65 323.15 248.37 364.38 231.65 357.59 229.11 323.15 243.07"/><path class="cls-4" d="M323.15,216.28l31.07,11.62-31.07,12.59L292.09,227.9l31.06-11.62m0-3.94-41.22,15.42,41.22,16.71,41.23-16.71-41.23-15.42Z"/><path class="cls-5" d="M323.15,214.53l31.07,11.62-31.07,12.6-31.06-12.6,31.06-11.62m0-3.94L281.93,226l41.22,16.72L364.38,226l-41.23-15.42Z"/><path class="cls-6" d="M323.15,212.68l31.07,11.62-31.07,12.59L292.09,224.3l31.06-11.62m0-3.94-41.22,15.42,41.22,16.71,41.23-16.71-41.23-15.42Z"/><polygon class="cls-7" points="355.75 222.04 321.13 236.77 288.44 222.04 325.63 211.66 355.75 222.04"/><path class="cls-8" d="M323.15,210.72l31.07,11.62-31.07,12.59-31.06-12.59,31.06-11.62m0-3.94L281.93,222.2l41.22,16.71,41.23-16.71-41.23-15.42Z"/><path class="cls-9" d="M345.78,187.82a2.48,2.48,0,0,0-4.94.32,1.08,1.08,0,0,1-1,1.13,1.09,1.09,0,0,1-1.19-1,4.58,4.58,0,0,1,4.38-4.8,4.64,4.64,0,0,1,5,4.2C348,188.27,345.82,188.41,345.78,187.82Z"/><path class="cls-2" d="M343.31,183.47a4.62,4.62,0,0,1,4.69,4.21c0,.33-.66.52-1.27.52s-.93-.12-1-.38a2.44,2.44,0,0,0-2.47-2.21h-.16a2.42,2.42,0,0,0-2.31,2.53,1.08,1.08,0,0,1-1,1.13h-.08a1.09,1.09,0,0,1-1.11-1,4.58,4.58,0,0,1,4.38-4.8h.31m0-1.81-.43,0a6.54,6.54,0,0,0-4.52,2.19,6.12,6.12,0,0,0-1.56,4.53,2.92,2.92,0,0,0,2.93,2.68h.19a3,3,0,0,0,2-1,2.85,2.85,0,0,0,.71-2.08.57.57,0,0,1,.13-.38.73.73,0,0,1,.47-.22h0a.63.63,0,0,1,.65.53c.06.95.83,2.06,2.77,2.06a3.53,3.53,0,0,0,2.53-.89,2,2,0,0,0,.57-1.55,6.46,6.46,0,0,0-6.52-5.9Z"/><polygon class="cls-9" points="313.62 195.53 313.62 201.06 307.86 201.06 305.76 199.14 305.76 193.61 311.52 193.61 313.62 195.53"/><polygon class="cls-10" points="304.1 205.46 304.1 211.58 311.17 211.58 313.62 209.34 313.62 203.22 306.56 203.22 304.1 205.46"/><path class="cls-9" d="M306.56,203.22h7.06v6.12l-2.45,2.24H304.1v-6.12l2.46-2.24m-.87-1.91-.61.56-2.45,2.24-.61.56v8.82h10l.62-.56,2.45-2.24.61-.56v-8.82h-10Z"/><polygon class="cls-9" points="310.95 203.22 313.62 203.22 313.62 205.54 312.69 206.38 310.02 206.38 310.02 204.07 310.95 203.22"/><polygon class="cls-9" points="305.53 205.12 307.62 203.22 309.65 203.22 308.26 204.48 308.26 207.93 312.24 207.93 313.62 206.67 313.62 208.42 311.54 210.33 305.53 210.33 305.53 205.12"/><polygon class="cls-11" points="311.49 183.66 296.27 183.66 296.27 198.28 301.83 203.36 317.06 203.36 317.06 188.74 311.49 183.66"/><polygon class="cls-6" points="312.33 186.62 317.06 190.94 317.06 195.13 313.92 192.27 305.35 192.27 305.35 200.5 308.49 203.36 304.12 203.36 299.39 199.05 299.39 186.62 312.33 186.62"/><path class="cls-2" d="M294.18,181.75v17.32l6.79,6.2h18.17V188l-6.78-6.2Zm2.09,1.91h15.22l5.57,5.08v14.62H301.83l-5.56-5.08Z"/><path class="cls-9" d="M347.28,194.88c0-5.91-4-11-9.85-13.22l-.16-.06a18.6,18.6,0,0,0-12.18-.26l-1.22.38c-3.58,1.13-12.31,4.52-16.61,6.56-6.72,3.19-8.9,8.18-9.48,13.1-.59,7.92-.17,28.11-.17,28.11a4.25,4.25,0,0,0,8.42,0v-8.05l4-2.08v6.15c0,2,6.41,2,6.41,0V213.77l1.7-.1v14.25c0,2.39,10.62,2.39,10.62,0v-7.68c2.13.32,4.36-.08,4.36-1.2v-7.81l1.41-.45v11c0,2.1,8.67,2.1,8.67,0V204.37A13.38,13.38,0,0,0,347.28,194.88Z"/><path class="cls-2" d="M337.85,180.62l-.17-.07-.16-.05v2.41c5.26,2.22,8.63,6.87,8.63,12a12.33,12.33,0,0,1-3.75,8.71l-.32.32v16.93a6.56,6.56,0,0,1-3.2.59,8.91,8.91,0,0,1-3.61-.59V209.25l-3.68,2v7.69c-.2.13-.39.33-1.41.33a8.62,8.62,0,0,1-1.24-.09l-1.31-.2v8.87c-.32.29-1.76.78-4.17.78s-3.85-.49-4.18-.78V212.49l-3.24.22v13.36a6.52,6.52,0,0,1-3,.58,3.45,3.45,0,0,1-2.35-.54v-7.84l-6.27,3.26v8.73a3.12,3.12,0,0,1-6.15,0c0-.2-.42-20.18.16-28,.69-5.78,3.5-9.66,8.85-12.19,1.88-.89,4.77-2.21,7.69-3.5-.24-.72-.49-1.43-.75-2.15-3,1.33-5.95,2.69-7.93,3.63-6,2.86-9.35,7.43-10.12,14v.05c-.59,7.89-.18,27.39-.17,28.2a5.38,5.38,0,0,0,10.69,0v-7.37l1.74-.91v4.29c0,1.64,2,2.62,5.24,2.62,2.59,0,3.27-.38,3.41-.66.37,2.4,5,2.6,6.42,2.6s6.44-.21,6.44-2.91v-6.46h.28a5.3,5.3,0,0,0,3.23-.82V221c0,1.69,2,2.69,5.47,2.69s5.46-1,5.46-2.69V204.82a14.48,14.48,0,0,0,4.08-9.94C348.42,188.69,344.27,183.09,337.85,180.62Z"/><path class="cls-2" d="M309.62,211h1.08v1a.71.71,0,0,1-.26.55h0a.93.93,0,0,1-.62.23h-1.09v-1a.74.74,0,0,1,.26-.56h0A1,1,0,0,1,309.62,211Z"/><path class="cls-2" d="M301.69,223.57a1.67,1.67,0,1,1,0-3.31c6.62,0,12-4.72,12-10.52a1.91,1.91,0,0,1,3.78,0C317.48,217.37,310.39,223.57,301.69,223.57Z"/><path class="cls-2" d="M327.63,215.47v6.68a17.26,17.26,0,0,0,2-.05v-7.2Z"/><polygon class="cls-11" points="328.73 207.35 328.73 216.26 318.96 216.72 316.12 212.22 316.12 204.74 324.63 203.54 328.73 207.35"/><path class="cls-2" d="M324.77,204.74l2.85,2.86v7.85h-8.5l-3-2.86v-7.85h8.65m.6-2.33H313.69v10.78l.71.94,4.71,3.64h10.55V206.51l-.71-.68-2.86-2.74-.72-.68Z"/><polygon class="cls-6" points="319.24 204.74 316.12 204.74 316.12 207.57 317.2 208.6 320.32 208.6 320.32 205.77 319.24 204.74"/><polygon class="cls-6" points="325.56 207.06 323.13 204.74 320.76 204.74 322.37 206.28 322.37 210.49 317.73 210.49 316.12 208.95 316.12 211.1 318.55 213.42 325.56 213.42 325.56 207.06"/><polygon class="cls-11" points="321 182.41 335.53 182.41 335.53 197.03 330.22 202.11 315.69 202.11 315.69 187.49 321 182.41"/><polygon class="cls-6" points="315.69 196.57 315.69 202.11 321.19 202.11 323.19 200.19 323.19 194.65 317.69 194.65 315.69 196.57"/><polygon class="cls-6" points="320.2 185.37 315.69 189.68 315.69 193.88 318.68 191.02 326.86 191.02 326.86 199.25 323.87 202.11 328.04 202.11 332.55 197.79 332.55 185.37 320.2 185.37"/><path class="cls-2" d="M320.17,180.5l-6.48,6.2V204h17.36l6.48-6.19V180.5ZM335.53,197l-5.31,5.08H315.68V187.48l5.32-5.07h14.53Z"/><path class="cls-2" d="M297.25,216.53a13.23,13.23,0,0,1-5.45,1.15,1.67,1.67,0,1,0,0,3.31,18,18,0,0,0,5.45-.84Z"/><path class="cls-9" d="M313.69,191.31V185.8l2.52-.82,2.41-.81,1.29-2-.52-2.21-3.18.82-1.87,1.47-1.69.58-2.43-.74-2.81-1.72-2.34.32v2.79l1.59,1.31,2.87.11-.18,6.6Z"/><path class="cls-2" d="M315.5,186.05l.09-.27a.25.25,0,0,1,.26-.24l1.62-.24c.68-.14,2.85-2.34,2.85-2.34v-3.74h-4.9s-3.11,2-3.63,2.39c-.52-.43-3.63-2.39-3.63-2.39h-4.9v4.4l.53.47.85.75.54.46h2.64a.26.26,0,0,1,.26.24l.05,4.09,1.75-.67,0-3.42a2,2,0,0,0-2.06-1.83h-1.92l-.85-.75v-2.14h2.33l.85.74v.51a3.72,3.72,0,0,1,3.53,3.42,3.72,3.72,0,0,1,3.54-3.42v-.51l.84-.74h2.33V183l-.85.75h-1.92a2,2,0,0,0-2.05,1.83l0,2.85,1.84-.66V186Z"/><rect class="cls-12" x="35.29" y="148.75" width="130" height="21.82"/><rect class="cls-13" x="35.29" y="145.76" width="130" height="21.82"/><path class="cls-9" d="M40.32,150.68h1.25v8.09h4.6v1.09H40.32Z"/><path class="cls-9" d="M52.14,153.84a3.37,3.37,0,0,1,.89,2.53,4.36,4.36,0,0,1-.78,2.67,2.81,2.81,0,0,1-2.43,1.06,2.73,2.73,0,0,1-2.18-.94,3.71,3.71,0,0,1-.8-2.5,4,4,0,0,1,.85-2.69A2.84,2.84,0,0,1,50,153,3,3,0,0,1,52.14,153.84Zm-.7,4.44a4.15,4.15,0,0,0,.41-1.88,3.35,3.35,0,0,0-.29-1.52,1.65,1.65,0,0,0-1.62-.92,1.59,1.59,0,0,0-1.48.78,3.69,3.69,0,0,0-.47,1.9,3.21,3.21,0,0,0,.47,1.78,1.64,1.64,0,0,0,1.47.71A1.52,1.52,0,0,0,51.44,158.28Z"/><path class="cls-9" d="M58.13,153.44a2.91,2.91,0,0,1,.65.63v-.84h1v6.09a4.47,4.47,0,0,1-.38,2,2.67,2.67,0,0,1-2.63,1.36,3.23,3.23,0,0,1-1.81-.48,1.92,1.92,0,0,1-.83-1.52h1.15a1.3,1.3,0,0,0,.32.7,2.05,2.05,0,0,0,2.88-.54,5.17,5.17,0,0,0,.22-1.92,2.24,2.24,0,0,1-.81.76,2.9,2.9,0,0,1-3.15-.52,3.41,3.41,0,0,1-.81-2.55,3.87,3.87,0,0,1,.82-2.63,2.5,2.5,0,0,1,2-.94A2.4,2.4,0,0,1,58.13,153.44Zm.14,1.2A1.63,1.63,0,0,0,57,154a1.6,1.6,0,0,0-1.62,1.12,4.41,4.41,0,0,0-.23,1.55,2.78,2.78,0,0,0,.46,1.72,1.46,1.46,0,0,0,1.23.59,1.73,1.73,0,0,0,1.7-1.09,3.56,3.56,0,0,0,.27-1.44A2.82,2.82,0,0,0,58.27,154.64Z"/><path class="cls-9" d="M65.09,150.68h1.14V152H65.09Zm0,2.52h1.14v6.66H65.09Z"/><path class="cls-9" d="M67.93,153.17H69v1a3,3,0,0,1,1-.85,2.73,2.73,0,0,1,1.19-.25,2,2,0,0,1,1.92,1,3.58,3.58,0,0,1,.27,1.56v4.29H72.24v-4.22a2.26,2.26,0,0,0-.18-1A1.1,1.1,0,0,0,71,154a2.35,2.35,0,0,0-.65.08,1.76,1.76,0,0,0-.82.55,1.64,1.64,0,0,0-.36.69,4.25,4.25,0,0,0-.09,1v3.51H67.93Z"/><path class="cls-9" d="M79.13,153.17l1.28,5.27,1.31-5.27H83l1.31,5.24,1.37-5.24h1.13l-2,6.69H83.67l-1.36-5.18L81,159.86H79.83l-1.94-6.69Z"/><path class="cls-9" d="M87.85,150.68H89V152H87.85Zm0,2.52H89v6.66H87.85Z"/><path class="cls-9" d="M90.92,151.3h1.13v1.87h1.07v.92H92.05v4.36a.47.47,0,0,0,.24.47,1,1,0,0,0,.44.07h.17l.22,0v.89a1.77,1.77,0,0,1-.4.08,3.23,3.23,0,0,1-.46,0,1.2,1.2,0,0,1-1.06-.41,1.73,1.73,0,0,1-.28-1v-4.43H90v-.92h.91Z"/><path class="cls-9" d="M94.25,150.65h1.12v3.42a3.61,3.61,0,0,1,.72-.71,2.39,2.39,0,0,1,1.36-.35,2,2,0,0,1,2,1,3.46,3.46,0,0,1,.28,1.55v4.29H98.55v-4.22a2.42,2.42,0,0,0-.19-1.08,1.2,1.2,0,0,0-1.15-.55,1.92,1.92,0,0,0-1.27.48,2.32,2.32,0,0,0-.57,1.82v3.55H94.25Z"/><path class="cls-9" d="M105.19,150.68h6.37v1.13h-5.13v2.78h4.51v1.1h-4.51v4.17h-1.24Z"/><path class="cls-9" d="M116.33,155.81a.59.59,0,0,0,.51-.32,1,1,0,0,0,.08-.44.91.91,0,0,0-.41-.83,2.11,2.11,0,0,0-1.17-.26,1.49,1.49,0,0,0-1.25.47,1.67,1.67,0,0,0-.26.79h-1a1.92,1.92,0,0,1,.8-1.73,3.3,3.3,0,0,1,1.79-.48,3.62,3.62,0,0,1,1.91.45,1.51,1.51,0,0,1,.73,1.4v3.85a.47.47,0,0,0,.08.28c0,.07.14.11.3.11h.17l.2,0v.83l-.4.1H118a.9.9,0,0,1-.84-.41,1.61,1.61,0,0,1-.2-.62,2.73,2.73,0,0,1-1,.78,3,3,0,0,1-1.42.34,2.09,2.09,0,0,1-1.52-.57,1.86,1.86,0,0,1-.59-1.41,1.81,1.81,0,0,1,.58-1.44,2.68,2.68,0,0,1,1.52-.64Zm-2.37,3a1.29,1.29,0,0,0,.84.28,2.59,2.59,0,0,0,1.15-.27,1.56,1.56,0,0,0,.94-1.5v-.9a2,2,0,0,1-.53.22,3.78,3.78,0,0,1-.64.12l-.68.09a2.69,2.69,0,0,0-.92.26,1,1,0,0,0-.52.93A.92.92,0,0,0,114,158.85Z"/><path class="cls-9" d="M124.28,153.52a2.64,2.64,0,0,1,.85,1.9H124a2,2,0,0,0-.46-1,1.45,1.45,0,0,0-1.14-.41A1.58,1.58,0,0,0,120.9,155a4.14,4.14,0,0,0-.3,1.68,3.1,3.1,0,0,0,.43,1.69,1.44,1.44,0,0,0,1.33.69,1.48,1.48,0,0,0,1.11-.43,2.3,2.3,0,0,0,.57-1.17h1.09a2.64,2.64,0,0,1-2.85,2.56,2.59,2.59,0,0,1-2.1-1,3.68,3.68,0,0,1-.78-2.4,4,4,0,0,1,.86-2.74,2.74,2.74,0,0,1,2.18-1A3,3,0,0,1,124.28,153.52Z"/><path class="cls-9" d="M130.39,153.35a2.48,2.48,0,0,1,1,.87,2.85,2.85,0,0,1,.45,1.18,7.45,7.45,0,0,1,.1,1.47h-4.87a2.87,2.87,0,0,0,.48,1.64,1.6,1.6,0,0,0,1.38.62,1.79,1.79,0,0,0,1.4-.58,2.06,2.06,0,0,0,.41-.79h1.11a2.39,2.39,0,0,1-.29.82,2.93,2.93,0,0,1-.56.74,2.51,2.51,0,0,1-1.25.68,3.71,3.71,0,0,1-.92.1,2.77,2.77,0,0,1-2.1-.91,3.55,3.55,0,0,1-.86-2.55,3.92,3.92,0,0,1,.86-2.62,2.87,2.87,0,0,1,2.28-1A3,3,0,0,1,130.39,153.35Zm.4,2.63a2.92,2.92,0,0,0-.31-1.17A1.63,1.63,0,0,0,129,154a1.7,1.7,0,0,0-1.29.56,2.1,2.1,0,0,0-.55,1.42Z"/><path class="cls-9" d="M133.28,150.65h1.09V154a2.53,2.53,0,0,1,2-1,2.63,2.63,0,0,1,2,.86,3.66,3.66,0,0,1,.78,2.54,4.29,4.29,0,0,1-.77,2.63,2.5,2.5,0,0,1-2.14,1,2.16,2.16,0,0,1-1.29-.37,2.83,2.83,0,0,1-.67-.7v.86h-1Zm4.3,7.7a3.49,3.49,0,0,0,.46-1.91,3.1,3.1,0,0,0-.46-1.75,1.5,1.5,0,0,0-1.34-.69,1.88,1.88,0,0,0-1.35.57,2.57,2.57,0,0,0-.58,1.87,4.09,4.09,0,0,0,.24,1.53,1.65,1.65,0,0,0,1.66,1.11A1.5,1.5,0,0,0,137.58,158.35Z"/><path class="cls-9" d="M145.34,153.84a3.37,3.37,0,0,1,.89,2.53,4.36,4.36,0,0,1-.78,2.67A2.81,2.81,0,0,1,143,160.1a2.73,2.73,0,0,1-2.18-.94,3.71,3.71,0,0,1-.8-2.5,4,4,0,0,1,.85-2.69,2.86,2.86,0,0,1,2.28-1A3,3,0,0,1,145.34,153.84Zm-.7,4.44a4.16,4.16,0,0,0,.42-1.88,3.34,3.34,0,0,0-.3-1.52,1.65,1.65,0,0,0-1.62-.92,1.59,1.59,0,0,0-1.48.78,3.69,3.69,0,0,0-.47,1.9,3.21,3.21,0,0,0,.47,1.78,1.64,1.64,0,0,0,1.47.71A1.52,1.52,0,0,0,144.64,158.28Z"/><path class="cls-9" d="M152.46,153.84a3.37,3.37,0,0,1,.89,2.53,4.36,4.36,0,0,1-.78,2.67,2.81,2.81,0,0,1-2.43,1.06,2.73,2.73,0,0,1-2.18-.94,3.66,3.66,0,0,1-.8-2.5A4,4,0,0,1,148,154a2.84,2.84,0,0,1,2.28-1A3,3,0,0,1,152.46,153.84Zm-.7,4.44a4.15,4.15,0,0,0,.41-1.88,3.49,3.49,0,0,0-.29-1.52,1.67,1.67,0,0,0-1.62-.92,1.61,1.61,0,0,0-1.49.78,3.79,3.79,0,0,0-.46,1.9,3.29,3.29,0,0,0,.46,1.78,1.64,1.64,0,0,0,1.48.71A1.52,1.52,0,0,0,151.76,158.28Z"/><path class="cls-9" d="M154.7,150.68h1.09V156l2.88-2.84h1.44l-2.57,2.49,2.71,4.2h-1.44l-2.1-3.41-.92.9v2.51H154.7Z"/><rect class="cls-12" x="35.29" y="180.25" width="130" height="21.82"/><rect class="cls-14" x="35.29" y="177.27" width="130" height="21.82"/><path class="cls-9" d="M80.3,188.51a2.72,2.72,0,0,0,.35,1.27,2.33,2.33,0,0,0,2.11.91,3.43,3.43,0,0,0,1.22-.2,1.4,1.4,0,0,0,1.07-1.39A1.2,1.2,0,0,0,84.6,188a4.65,4.65,0,0,0-1.44-.55l-1.2-.28a5.1,5.1,0,0,1-1.68-.61,1.93,1.93,0,0,1-.84-1.71,2.68,2.68,0,0,1,.83-2,3.33,3.33,0,0,1,2.36-.79,4,4,0,0,1,2.39.7A2.55,2.55,0,0,1,86,185H84.83a2.46,2.46,0,0,0-.38-1.14,2.21,2.21,0,0,0-1.85-.71,2.08,2.08,0,0,0-1.52.46,1.47,1.47,0,0,0-.46,1.07,1.06,1.06,0,0,0,.54,1,8.13,8.13,0,0,0,1.62.5l1.25.29a3.84,3.84,0,0,1,1.39.59,2.2,2.2,0,0,1,.85,1.86,2.36,2.36,0,0,1-1.08,2.19,4.85,4.85,0,0,1-2.52.65,3.71,3.71,0,0,1-2.61-.87,3,3,0,0,1-.93-2.36Z"/><path class="cls-9" d="M87.87,182.29H89v1.28H87.87Zm0,2.52H89v6.66H87.87Z"/><path class="cls-9" d="M94.44,185.05a3,3,0,0,1,.65.64v-.85h1v6.09a4.48,4.48,0,0,1-.37,2,2.68,2.68,0,0,1-2.64,1.36,3.26,3.26,0,0,1-1.81-.48,1.89,1.89,0,0,1-.82-1.52h1.14a1.28,1.28,0,0,0,.33.7,2,2,0,0,0,2.87-.54,5.17,5.17,0,0,0,.22-1.92,2.09,2.09,0,0,1-.81.76,2.89,2.89,0,0,1-3.14-.52,3.35,3.35,0,0,1-.82-2.55,3.92,3.92,0,0,1,.82-2.63,2.57,2.57,0,0,1,2-.94A2.42,2.42,0,0,1,94.44,185.05Zm.14,1.2a1.64,1.64,0,0,0-1.3-.6,1.62,1.62,0,0,0-1.62,1.12,4.41,4.41,0,0,0-.23,1.55,2.71,2.71,0,0,0,.46,1.72,1.45,1.45,0,0,0,1.22.6,1.73,1.73,0,0,0,1.7-1.1,3.56,3.56,0,0,0,.28-1.44A2.82,2.82,0,0,0,94.58,186.25Z"/><path class="cls-9" d="M97.84,184.78H98.9v.95a3.08,3.08,0,0,1,1-.84,2.69,2.69,0,0,1,1.18-.26,2,2,0,0,1,1.93,1,3.61,3.61,0,0,1,.27,1.56v4.29h-1.14v-4.22a2.29,2.29,0,0,0-.18-1,1.11,1.11,0,0,0-1.09-.63,2.37,2.37,0,0,0-.66.08,1.76,1.76,0,0,0-.81.55A1.67,1.67,0,0,0,99,187a5,5,0,0,0-.08,1v3.5H97.84Z"/><path class="cls-9" d="M109.63,184.78v4.44a2,2,0,0,0,.16.84,1.11,1.11,0,0,0,1.09.6,1.54,1.54,0,0,0,1.56-1,4.23,4.23,0,0,0,.23-1.54v-3.29h1.12v6.69h-1.06v-1a2.26,2.26,0,0,1-2.07,1.16,2,2,0,0,1-1.91-1,2.94,2.94,0,0,1-.28-1.37v-4.55Z"/><path class="cls-9" d="M115.53,184.81h1.1v.89a2.89,2.89,0,0,1,.74-.71,2.39,2.39,0,0,1,1.34-.37,2.53,2.53,0,0,1,1.94.87,3.56,3.56,0,0,1,.8,2.49,3.81,3.81,0,0,1-1.15,3.12,2.6,2.6,0,0,1-1.7.6,2.31,2.31,0,0,1-1.27-.33,3,3,0,0,1-.67-.65v3.42h-1.13Zm4.24,5.25a3.13,3.13,0,0,0,.52-2,3.76,3.76,0,0,0-.23-1.38,1.7,1.7,0,0,0-3.21.06,4.53,4.53,0,0,0-.23,1.59,3.25,3.25,0,0,0,.23,1.32,1.6,1.6,0,0,0,1.6,1A1.62,1.62,0,0,0,119.77,190.06Z"/><rect class="cls-12" x="35.29" y="243.04" width="130" height="21.82"/><rect class="cls-15" x="35.29" y="240.51" width="130" height="21.82"/><path class="cls-9" d="M47.57,246.72h4.18a4.21,4.21,0,0,1,1.7.3,2.2,2.2,0,0,1,1.27,2.17,2.5,2.5,0,0,1-.34,1.35,2.57,2.57,0,0,1-1,.85,1.79,1.79,0,0,1,.81.57,2.07,2.07,0,0,1,.3,1.16l0,1.23a3.32,3.32,0,0,0,.09.78.73.73,0,0,0,.4.56v.21H53.54a1.41,1.41,0,0,1-.1-.31c0-.12,0-.37-.06-.72l-.08-1.53a1.27,1.27,0,0,0-.65-1.21,2.63,2.63,0,0,0-1.08-.17H48.82v3.94H47.57Zm4,4.2a2.25,2.25,0,0,0,1.35-.35,1.43,1.43,0,0,0,.49-1.26,1.37,1.37,0,0,0-.69-1.34,2.31,2.31,0,0,0-1-.18h-3v3.13Z"/><path class="cls-9" d="M60.65,249.39a2.53,2.53,0,0,1,1,.86,2.89,2.89,0,0,1,.45,1.19,7.38,7.38,0,0,1,.1,1.47H57.34a2.87,2.87,0,0,0,.48,1.64,1.6,1.6,0,0,0,1.38.62,1.8,1.8,0,0,0,1.4-.59,2,2,0,0,0,.41-.78h1.11a2.3,2.3,0,0,1-.3.82,2.69,2.69,0,0,1-.55.74A2.59,2.59,0,0,1,60,256a4.25,4.25,0,0,1-.92.1,2.81,2.81,0,0,1-2.1-.91,3.55,3.55,0,0,1-.87-2.55,3.85,3.85,0,0,1,.87-2.62,2.87,2.87,0,0,1,2.28-1A3,3,0,0,1,60.65,249.39Zm.4,2.63a2.92,2.92,0,0,0-.31-1.17,1.63,1.63,0,0,0-1.53-.81,1.65,1.65,0,0,0-1.29.56,2.08,2.08,0,0,0-.55,1.42Z"/><path class="cls-9" d="M68.06,249.56a2.67,2.67,0,0,1,.85,1.89H67.82a2,2,0,0,0-.46-1,1.42,1.42,0,0,0-1.14-.41,1.58,1.58,0,0,0-1.54,1,4.12,4.12,0,0,0-.3,1.67,3.22,3.22,0,0,0,.42,1.7,1.67,1.67,0,0,0,2.45.26,2.47,2.47,0,0,0,.57-1.17h1.09a3,3,0,0,1-.94,1.95,2.93,2.93,0,0,1-1.92.61,2.56,2.56,0,0,1-2.09-1,3.67,3.67,0,0,1-.78-2.39A4.06,4.06,0,0,1,64,250a2.79,2.79,0,0,1,2.19-1A2.92,2.92,0,0,1,68.06,249.56Z"/><path class="cls-9" d="M74.88,249.87a3.36,3.36,0,0,1,.89,2.54,4.36,4.36,0,0,1-.78,2.67,2.83,2.83,0,0,1-2.43,1.06,2.76,2.76,0,0,1-2.18-.94,3.74,3.74,0,0,1-.8-2.51,4,4,0,0,1,.85-2.68,2.83,2.83,0,0,1,2.28-1A3,3,0,0,1,74.88,249.87Zm-.69,4.45a4.29,4.29,0,0,0,.41-1.88,3.31,3.31,0,0,0-.3-1.52,1.66,1.66,0,0,0-1.62-.93,1.58,1.58,0,0,0-1.48.79,3.67,3.67,0,0,0-.47,1.9,3.21,3.21,0,0,0,.47,1.78,1.64,1.64,0,0,0,1.47.71A1.55,1.55,0,0,0,74.19,254.32Z"/><path class="cls-9" d="M77.71,249.2l1.78,5.45,1.87-5.45h1.23l-2.52,6.7h-1.2l-2.47-6.7Z"/><path class="cls-9" d="M87.69,249.39a2.53,2.53,0,0,1,1,.86,3.21,3.21,0,0,1,.45,1.19,8.24,8.24,0,0,1,.1,1.47H84.38a3,3,0,0,0,.47,1.64,1.61,1.61,0,0,0,1.39.62,1.78,1.78,0,0,0,1.39-.59,2,2,0,0,0,.42-.78h1.1a2.26,2.26,0,0,1-.29.82,2.91,2.91,0,0,1-.55.74,2.67,2.67,0,0,1-1.26.68,4.15,4.15,0,0,1-.91.1,2.83,2.83,0,0,1-2.11-.91,3.59,3.59,0,0,1-.86-2.55,3.85,3.85,0,0,1,.87-2.62,2.87,2.87,0,0,1,2.27-1A3.09,3.09,0,0,1,87.69,249.39Zm.4,2.63a2.91,2.91,0,0,0-.32-1.17,1.61,1.61,0,0,0-1.53-.81,1.68,1.68,0,0,0-1.29.56A2.13,2.13,0,0,0,84.4,252Z"/><path class="cls-9" d="M90.7,249.2h1.07v1.16a2.61,2.61,0,0,1,.64-.82,1.71,1.71,0,0,1,1.18-.49h.11l.26,0v1.18l-.19,0h-.18a1.6,1.6,0,0,0-1.31.55,1.91,1.91,0,0,0-.45,1.26v3.85H90.7Z"/><path class="cls-9" d="M98.76,246.72h4.11a2.78,2.78,0,0,1,2,.69,2.49,2.49,0,0,1,.75,1.94,2.81,2.81,0,0,1-.67,1.87,2.5,2.5,0,0,1-2,.8H100v3.88H98.76Zm4.82,1.26a2.66,2.66,0,0,0-1.12-.19H100V251h2.46a2.34,2.34,0,0,0,1.35-.36,1.44,1.44,0,0,0,.52-1.26A1.38,1.38,0,0,0,103.58,248Z"/><path class="cls-9" d="M110.61,251.85a.62.62,0,0,0,.52-.33,1,1,0,0,0,.08-.43.94.94,0,0,0-.41-.84,2.2,2.2,0,0,0-1.17-.26,1.48,1.48,0,0,0-1.25.48,1.56,1.56,0,0,0-.27.78h-1a1.94,1.94,0,0,1,.8-1.72,3.27,3.27,0,0,1,1.79-.49,3.64,3.64,0,0,1,1.92.45,1.52,1.52,0,0,1,.73,1.4v3.86a.49.49,0,0,0,.07.28.35.35,0,0,0,.3.11h.17l.2,0v.83a2.33,2.33,0,0,1-.4.09,1.89,1.89,0,0,1-.37,0,.92.92,0,0,1-.84-.41,1.51,1.51,0,0,1-.2-.62,2.86,2.86,0,0,1-1,.78,3.05,3.05,0,0,1-1.41.33,2.15,2.15,0,0,1-1.53-.56,1.9,1.9,0,0,1-.59-1.42,1.84,1.84,0,0,1,.58-1.44,2.8,2.8,0,0,1,1.53-.63Zm-2.37,3a1.38,1.38,0,0,0,.85.28,2.5,2.5,0,0,0,1.15-.28,1.55,1.55,0,0,0,.94-1.49v-.9a2.32,2.32,0,0,1-.54.22,4.66,4.66,0,0,1-.63.12l-.68.09a2.65,2.65,0,0,0-.92.25,1,1,0,0,0-.52.94A1,1,0,0,0,108.24,254.89Z"/><path class="cls-9" d="M114.81,253.8a1.65,1.65,0,0,0,.29.86,1.83,1.83,0,0,0,1.5.54,2.3,2.3,0,0,0,1.13-.27.9.9,0,0,0,.48-.84.7.7,0,0,0-.39-.65,4.07,4.07,0,0,0-1-.32l-.91-.23a4.51,4.51,0,0,1-1.28-.47,1.42,1.42,0,0,1-.74-1.27,1.91,1.91,0,0,1,.69-1.53,2.81,2.81,0,0,1,1.87-.59,2.61,2.61,0,0,1,2.21.89,1.91,1.91,0,0,1,.41,1.21H118a1.3,1.3,0,0,0-.28-.69,1.79,1.79,0,0,0-1.37-.44,1.68,1.68,0,0,0-1,.24.75.75,0,0,0-.34.64.79.79,0,0,0,.44.7,2.54,2.54,0,0,0,.75.27l.76.19a5.88,5.88,0,0,1,1.66.56,1.5,1.5,0,0,1,.65,1.36,2,2,0,0,1-.68,1.54,2.93,2.93,0,0,1-2.09.65,2.85,2.85,0,0,1-2.15-.67,2.63,2.63,0,0,1-.67-1.68Z"/><path class="cls-9" d="M121.21,253.8a1.65,1.65,0,0,0,.29.86,1.83,1.83,0,0,0,1.5.54,2.3,2.3,0,0,0,1.13-.27.9.9,0,0,0,.48-.84.7.7,0,0,0-.39-.65,4.07,4.07,0,0,0-1-.32l-.91-.23a4.72,4.72,0,0,1-1.29-.47,1.43,1.43,0,0,1-.73-1.27,1.91,1.91,0,0,1,.69-1.53,2.81,2.81,0,0,1,1.87-.59,2.61,2.61,0,0,1,2.21.89,1.91,1.91,0,0,1,.41,1.21h-1.06a1.3,1.3,0,0,0-.28-.69,1.79,1.79,0,0,0-1.37-.44,1.68,1.68,0,0,0-1,.24.75.75,0,0,0-.34.64.79.79,0,0,0,.44.7,2.54,2.54,0,0,0,.75.27l.76.19a5.88,5.88,0,0,1,1.66.56,1.5,1.5,0,0,1,.65,1.36,2,2,0,0,1-.68,1.54,2.93,2.93,0,0,1-2.09.65,2.85,2.85,0,0,1-2.15-.67,2.58,2.58,0,0,1-.67-1.68Z"/><path class="cls-9" d="M127.46,249.2l1.29,5.28,1.31-5.28h1.26l1.31,5.25L134,249.2h1.13l-1.95,6.7H132l-1.36-5.18-1.32,5.18h-1.17l-1.93-6.7Z"/><path class="cls-9" d="M141,249.87a3.39,3.39,0,0,1,.88,2.54,4.36,4.36,0,0,1-.78,2.67,2.83,2.83,0,0,1-2.43,1.06,2.72,2.72,0,0,1-2.17-.94,3.69,3.69,0,0,1-.81-2.51,4,4,0,0,1,.85-2.68,2.84,2.84,0,0,1,2.28-1A3,3,0,0,1,141,249.87Zm-.7,4.45a4.29,4.29,0,0,0,.41-1.88,3.31,3.31,0,0,0-.3-1.52,1.66,1.66,0,0,0-1.62-.93,1.58,1.58,0,0,0-1.48.79,3.66,3.66,0,0,0-.46,1.9,3.21,3.21,0,0,0,.46,1.78,1.64,1.64,0,0,0,1.47.71A1.55,1.55,0,0,0,140.34,254.32Z"/><path class="cls-9" d="M143.34,249.2h1.06v1.16a2.68,2.68,0,0,1,.65-.82,1.67,1.67,0,0,1,1.18-.49h.11l.25,0v1.18l-.18,0h-.19a1.58,1.58,0,0,0-1.3.55,1.87,1.87,0,0,0-.46,1.26v3.85h-1.12Z"/><path class="cls-9" d="M151.24,249.41a2.92,2.92,0,0,1,.68.66v-3.38H153v9.21h-1V255a2.39,2.39,0,0,1-.93.89,2.64,2.64,0,0,1-1.22.28,2.47,2.47,0,0,1-1.93-.95,3.64,3.64,0,0,1-.82-2.5,4.3,4.3,0,0,1,.75-2.53,2.4,2.4,0,0,1,2.12-1.07A2.32,2.32,0,0,1,151.24,249.41Zm-2.51,5a1.61,1.61,0,0,0,1.46.72,1.53,1.53,0,0,0,1.28-.67,3.22,3.22,0,0,0,.5-1.93,2.86,2.86,0,0,0-.52-1.87,1.59,1.59,0,0,0-1.27-.61,1.67,1.67,0,0,0-1.38.65,3,3,0,0,0-.52,1.91A3.34,3.34,0,0,0,148.73,254.43Z"/><rect class="cls-12" x="35.29" y="211.64" width="130" height="21.82"/><rect class="cls-16" x="35.29" y="208.89" width="130" height="21.82"/><path class="cls-9" d="M82.62,220.56a2.54,2.54,0,0,0,.35,1.26,2.32,2.32,0,0,0,2.1.92,3.69,3.69,0,0,0,1.23-.2,1.4,1.4,0,0,0,1.07-1.39,1.22,1.22,0,0,0-.45-1.07,4.43,4.43,0,0,0-1.44-.54l-1.21-.28a5.63,5.63,0,0,1-1.67-.61,2,2,0,0,1-.84-1.72,2.67,2.67,0,0,1,.83-2,3.27,3.27,0,0,1,2.36-.79,4.08,4.08,0,0,1,2.39.69,2.56,2.56,0,0,1,1,2.23H87.15a2.42,2.42,0,0,0-.38-1.13,2.21,2.21,0,0,0-1.86-.72,2.11,2.11,0,0,0-1.51.46,1.48,1.48,0,0,0-.46,1.08,1.06,1.06,0,0,0,.54,1,8.13,8.13,0,0,0,1.62.5l1.25.29a3.85,3.85,0,0,1,1.39.58,2.22,2.22,0,0,1,.85,1.87,2.34,2.34,0,0,1-1.09,2.18,4.72,4.72,0,0,1-2.51.66,3.67,3.67,0,0,1-2.61-.88,3,3,0,0,1-.93-2.35Z"/><path class="cls-9" d="M90.19,214.34h1.15v1.27H90.19Zm0,2.52h1.15v6.66H90.19Z"/><path class="cls-9" d="M96.76,217.09a3.21,3.21,0,0,1,.64.64v-.84h1V223a4.53,4.53,0,0,1-.37,2,2.69,2.69,0,0,1-2.64,1.36,3.23,3.23,0,0,1-1.81-.48,1.91,1.91,0,0,1-.82-1.52h1.14a1.24,1.24,0,0,0,.33.69,2,2,0,0,0,2.87-.53,5.17,5.17,0,0,0,.22-1.92,2.17,2.17,0,0,1-.81.76,2.62,2.62,0,0,1-1.25.25,2.71,2.71,0,0,1-1.9-.77,3.43,3.43,0,0,1-.81-2.56,3.84,3.84,0,0,1,.82-2.62,2.54,2.54,0,0,1,2-.94A2.49,2.49,0,0,1,96.76,217.09Zm.13,1.21a1.63,1.63,0,0,0-1.3-.6A1.6,1.6,0,0,0,94,218.81a4.28,4.28,0,0,0-.23,1.56,2.73,2.73,0,0,0,.46,1.72,1.47,1.47,0,0,0,1.22.59,1.72,1.72,0,0,0,1.7-1.09,3.64,3.64,0,0,0,.27-1.45A2.79,2.79,0,0,0,96.89,218.3Z"/><path class="cls-9" d="M100.15,216.83h1.07v.94a3,3,0,0,1,1-.84,2.68,2.68,0,0,1,1.18-.25,1.94,1.94,0,0,1,1.92,1,3.41,3.41,0,0,1,.28,1.55v4.3h-1.14V219.3a2.31,2.31,0,0,0-.18-1,1.11,1.11,0,0,0-1.09-.62,2,2,0,0,0-.66.08,1.62,1.62,0,0,0-.81.55,1.7,1.7,0,0,0-.37.68,5.12,5.12,0,0,0-.08,1v3.51h-1.13Z"/><path class="cls-9" d="M110.83,214.34H112v1.27h-1.14Zm0,2.52H112v6.66h-1.14Z"/><path class="cls-9" d="M113.67,216.83h1.07v.94a3,3,0,0,1,1-.84,2.65,2.65,0,0,1,1.18-.25,1.94,1.94,0,0,1,1.92,1,3.41,3.41,0,0,1,.28,1.55v4.3H118V219.3a2.31,2.31,0,0,0-.18-1,1.1,1.1,0,0,0-1.08-.62,2,2,0,0,0-.66.08,1.62,1.62,0,0,0-.81.55,1.7,1.7,0,0,0-.37.68,5.12,5.12,0,0,0-.08,1v3.51h-1.13Z"/><rect class="cls-17" x="476.52" y="104.47" width="129.8" height="21.79"/><path class="cls-9" d="M521.46,115.69a2.54,2.54,0,0,0,.36,1.26,2.29,2.29,0,0,0,2.09.92,3.69,3.69,0,0,0,1.23-.2,1.41,1.41,0,0,0,1.07-1.39,1.23,1.23,0,0,0-.45-1.07,4.67,4.67,0,0,0-1.44-.54l-1.2-.28a5.17,5.17,0,0,1-1.67-.61,1.91,1.91,0,0,1-.85-1.71,2.69,2.69,0,0,1,.83-2,3.29,3.29,0,0,1,2.36-.79,4,4,0,0,1,2.38.69,2.54,2.54,0,0,1,1,2.23H526a2.31,2.31,0,0,0-.39-1.13,2.16,2.16,0,0,0-1.84-.72,2.08,2.08,0,0,0-1.52.46,1.48,1.48,0,0,0-.46,1.08,1,1,0,0,0,.54,1,7.49,7.49,0,0,0,1.62.5l1.24.29a4,4,0,0,1,1.4.58,2.22,2.22,0,0,1,.84,1.87,2.35,2.35,0,0,1-1.08,2.18,4.72,4.72,0,0,1-2.51.65,3.71,3.71,0,0,1-2.61-.87,3,3,0,0,1-.92-2.35Z"/><path class="cls-9" d="M529,109.48h1.14v1.27H529Zm0,2.51h1.14v6.66H529Z"/><path class="cls-9" d="M535.58,112.23a3.23,3.23,0,0,1,.65.64V112h1v6.08a4.48,4.48,0,0,1-.37,2,2.68,2.68,0,0,1-2.63,1.36,3.23,3.23,0,0,1-1.81-.48,1.89,1.89,0,0,1-.82-1.51h1.14a1.27,1.27,0,0,0,.32.69,2.05,2.05,0,0,0,2.88-.54,5.19,5.19,0,0,0,.21-1.91,2.17,2.17,0,0,1-.81.76,2.73,2.73,0,0,1-1.24.25,2.68,2.68,0,0,1-1.9-.77,3.42,3.42,0,0,1-.81-2.55,3.83,3.83,0,0,1,.82-2.62,2.51,2.51,0,0,1,2-1A2.42,2.42,0,0,1,535.58,112.23Zm.14,1.2a1.65,1.65,0,0,0-1.3-.59,1.59,1.59,0,0,0-1.61,1.11,4.19,4.19,0,0,0-.23,1.55,2.8,2.8,0,0,0,.45,1.72,1.5,1.5,0,0,0,1.23.59,1.71,1.71,0,0,0,1.69-1.09,3.43,3.43,0,0,0,.28-1.44A2.82,2.82,0,0,0,535.72,113.43Z"/><path class="cls-9" d="M539,112H540v1a3,3,0,0,1,1-.84,2.72,2.72,0,0,1,1.18-.26,2,2,0,0,1,1.93,1,3.61,3.61,0,0,1,.27,1.56v4.29h-1.14v-4.22a2.29,2.29,0,0,0-.18-1,1.1,1.1,0,0,0-1.09-.63,2.35,2.35,0,0,0-.65.08,1.84,1.84,0,0,0-.82.55,1.77,1.77,0,0,0-.36.69,4.35,4.35,0,0,0-.08,1v3.51H539Z"/><path class="cls-9" d="M550.75,112v4.44a2,2,0,0,0,.16.84,1.11,1.11,0,0,0,1.09.59,1.55,1.55,0,0,0,1.56-1,4.32,4.32,0,0,0,.22-1.55V112h1.12v6.69h-1.06l0-1a2.42,2.42,0,0,1-.54.64,2.31,2.31,0,0,1-1.53.53,2,2,0,0,1-1.91-1,3,3,0,0,1-.27-1.37V112Z"/><path class="cls-9" d="M556.64,112h1.1v.89a2.9,2.9,0,0,1,.74-.71,2.39,2.39,0,0,1,1.34-.37,2.51,2.51,0,0,1,1.93.87,3.56,3.56,0,0,1,.8,2.49,3.81,3.81,0,0,1-1.15,3.12,2.62,2.62,0,0,1-1.69.59,2.28,2.28,0,0,1-1.27-.33,3,3,0,0,1-.67-.64v3.41h-1.13Zm4.23,5.24a3.11,3.11,0,0,0,.52-2,3.54,3.54,0,0,0-.23-1.37,1.7,1.7,0,0,0-3.2.06,4.51,4.51,0,0,0-.24,1.59,3.23,3.23,0,0,0,.24,1.31,1.58,1.58,0,0,0,1.6,1A1.62,1.62,0,0,0,560.87,117.23Z"/><rect class="cls-18" x="476.52" y="134.22" width="129.8" height="21.79"/><path class="cls-19" d="M481.6,141.34v4.54a2.7,2.7,0,0,0,.3,1.33,1.59,1.59,0,0,0,1.51.79,1.76,1.76,0,0,0,1.73-.86,2.63,2.63,0,0,0,.25-1.26v-4.54h1v4.12a4.77,4.77,0,0,1-.36,2.08,3.08,3.08,0,0,1-5.07,0,4.77,4.77,0,0,1-.36-2.08v-4.12Z"/><path class="cls-19" d="M488.33,147a1.28,1.28,0,0,0,.22.69,1.48,1.48,0,0,0,1.21.43,1.8,1.8,0,0,0,.89-.21.72.72,0,0,0,.39-.67.57.57,0,0,0-.31-.53,3.52,3.52,0,0,0-.78-.25l-.73-.18a3.79,3.79,0,0,1-1-.38,1.15,1.15,0,0,1-.59-1,1.53,1.53,0,0,1,.56-1.23,2.22,2.22,0,0,1,1.49-.47,2.08,2.08,0,0,1,1.76.71,1.48,1.48,0,0,1,.33,1h-.85a1,1,0,0,0-.22-.55,1.41,1.41,0,0,0-1.1-.35,1.36,1.36,0,0,0-.79.19.59.59,0,0,0-.26.51.62.62,0,0,0,.35.56,2.32,2.32,0,0,0,.6.22l.6.14a4.82,4.82,0,0,1,1.33.46,1.2,1.2,0,0,1,.52,1.08,1.61,1.61,0,0,1-.55,1.23,2.32,2.32,0,0,1-1.67.52,2.28,2.28,0,0,1-1.71-.54,2,2,0,0,1-.54-1.34Z"/><path class="cls-19" d="M496.21,143.48a2,2,0,0,1,.8.69,2.37,2.37,0,0,1,.36.94,6.5,6.5,0,0,1,.08,1.18h-3.89a2.39,2.39,0,0,0,.38,1.31,1.28,1.28,0,0,0,1.11.49,1.41,1.41,0,0,0,1.11-.46,1.47,1.47,0,0,0,.33-.63h.89a1.84,1.84,0,0,1-.24.66,2.11,2.11,0,0,1-.44.59,2.16,2.16,0,0,1-1,.54,3.26,3.26,0,0,1-.73.08,2.21,2.21,0,0,1-1.68-.73,2.82,2.82,0,0,1-.69-2,3.08,3.08,0,0,1,.69-2.09,2.29,2.29,0,0,1,1.82-.81A2.41,2.41,0,0,1,496.21,143.48Zm.32,2.1a2.51,2.51,0,0,0-.25-.94,1.31,1.31,0,0,0-1.23-.64,1.34,1.34,0,0,0-1,.44,1.76,1.76,0,0,0-.44,1.14Z"/><path class="cls-19" d="M498.61,143.33h.86v.93a2.08,2.08,0,0,1,.51-.66,1.35,1.35,0,0,1,.95-.39H501l.21,0v.95l-.15,0h-.15a1.28,1.28,0,0,0-1,.44,1.48,1.48,0,0,0-.37,1v3.08h-.9Z"/><path class="cls-19" d="M502,143.33h.86v.76a2.33,2.33,0,0,1,.8-.67,2.09,2.09,0,0,1,.94-.21,1.55,1.55,0,0,1,1.54.8,2.72,2.72,0,0,1,.22,1.24v3.43h-.91v-3.37a1.76,1.76,0,0,0-.15-.79.88.88,0,0,0-.86-.5,1.58,1.58,0,0,0-.53.07,1.31,1.31,0,0,0-.65.43,1.28,1.28,0,0,0-.29.55,4,4,0,0,0-.07.81v2.8H502Z"/><path class="cls-19" d="M510.55,145.44a.47.47,0,0,0,.41-.26.77.77,0,0,0,.06-.34.73.73,0,0,0-.33-.67,1.71,1.71,0,0,0-.93-.21,1.21,1.21,0,0,0-1,.38,1.23,1.23,0,0,0-.21.63h-.84a1.56,1.56,0,0,1,.64-1.38,2.62,2.62,0,0,1,1.43-.39,2.89,2.89,0,0,1,1.53.36,1.21,1.21,0,0,1,.58,1.12v3.08a.36.36,0,0,0,.06.22.27.27,0,0,0,.24.09h.14l.16,0v.66l-.32.08h-.3a.75.75,0,0,1-.68-.33A1.29,1.29,0,0,1,511,148a2.21,2.21,0,0,1-.79.62,2.39,2.39,0,0,1-1.13.27,1.7,1.7,0,0,1-1.22-.45,1.52,1.52,0,0,1-.47-1.13,1.47,1.47,0,0,1,.46-1.15,2.23,2.23,0,0,1,1.22-.51Zm-1.9,2.43a1.07,1.07,0,0,0,.68.22,2,2,0,0,0,.92-.22,1.21,1.21,0,0,0,.74-1.19V146a1.51,1.51,0,0,1-.42.18,4.59,4.59,0,0,1-.51.1l-.54.07a2,2,0,0,0-.73.2.8.8,0,0,0-.42.75A.73.73,0,0,0,508.65,147.87Z"/><path class="cls-19" d="M513.37,143.33h.88v.76a3.36,3.36,0,0,1,.58-.57,1.72,1.72,0,0,1,1-.31,1.59,1.59,0,0,1,1,.32,1.53,1.53,0,0,1,.4.53,1.93,1.93,0,0,1,.7-.64,2,2,0,0,1,.91-.21,1.49,1.49,0,0,1,1.47.78,2.56,2.56,0,0,1,.21,1.13v3.56h-.93V145a.86.86,0,0,0-.27-.73,1.09,1.09,0,0,0-.65-.2,1.29,1.29,0,0,0-.91.35,1.56,1.56,0,0,0-.39,1.19v3.11h-.91v-3.49a1.81,1.81,0,0,0-.13-.8.81.81,0,0,0-.76-.37,1.34,1.34,0,0,0-.93.39,1.94,1.94,0,0,0-.42,1.43v2.84h-.89Z"/><path class="cls-19" d="M525.19,143.48a2,2,0,0,1,.8.69,2.37,2.37,0,0,1,.36.94,6.5,6.5,0,0,1,.08,1.18h-3.89a2.39,2.39,0,0,0,.38,1.31,1.28,1.28,0,0,0,1.11.49,1.42,1.42,0,0,0,1.11-.46,1.47,1.47,0,0,0,.33-.63h.89a2.05,2.05,0,0,1-.24.66,2.11,2.11,0,0,1-.44.59,2.16,2.16,0,0,1-1,.54,3.26,3.26,0,0,1-.73.08,2.21,2.21,0,0,1-1.68-.73,2.82,2.82,0,0,1-.69-2,3.08,3.08,0,0,1,.69-2.09,2.29,2.29,0,0,1,1.82-.81A2.41,2.41,0,0,1,525.19,143.48Zm.32,2.1a2.33,2.33,0,0,0-.26-.94A1.28,1.28,0,0,0,524,144a1.34,1.34,0,0,0-1,.44,1.76,1.76,0,0,0-.44,1.14Z"/><rect class="cls-18" x="476.52" y="256.94" width="13.38" height="13.28"/><text class="cls-20" transform="translate(493.58 266.4)">Accept terms of use</text><rect class="cls-18" x="476.52" y="163.97" width="129.8" height="21.79"/><path class="cls-19" d="M480.62,171.11h3.28a2.24,2.24,0,0,1,1.58.55,2,2,0,0,1,.59,1.55,2.26,2.26,0,0,1-.53,1.5,2,2,0,0,1-1.63.63h-2.29v3.1h-1Zm3.86,1a2.2,2.2,0,0,0-.9-.16h-2v2.55h2a1.89,1.89,0,0,0,1.08-.29,1.14,1.14,0,0,0,.41-1A1.11,1.11,0,0,0,484.48,172.12Z"/><path class="cls-19" d="M490.09,175.21a.49.49,0,0,0,.42-.26.82.82,0,0,0,.06-.35.74.74,0,0,0-.33-.67,1.84,1.84,0,0,0-.93-.2,1.18,1.18,0,0,0-1,.38,1.23,1.23,0,0,0-.21.63h-.84a1.52,1.52,0,0,1,.64-1.38,2.6,2.6,0,0,1,1.43-.39,2.94,2.94,0,0,1,1.53.36,1.21,1.21,0,0,1,.58,1.12v3.08a.38.38,0,0,0,.06.22.27.27,0,0,0,.24.09h.13l.16,0v.66l-.31.07-.3,0a.75.75,0,0,1-.68-.33,1.35,1.35,0,0,1-.15-.49,2.42,2.42,0,0,1-.79.62,2.38,2.38,0,0,1-1.13.26,1.69,1.69,0,0,1-1.22-.45A1.47,1.47,0,0,1,487,177a1.45,1.45,0,0,1,.46-1.15,2.22,2.22,0,0,1,1.22-.5Zm-1.89,2.43a1.06,1.06,0,0,0,.67.22,2,2,0,0,0,.92-.22,1.23,1.23,0,0,0,.75-1.19v-.72a1.36,1.36,0,0,1-.42.17,3.06,3.06,0,0,1-.51.1l-.54.07a2.13,2.13,0,0,0-.74.21.79.79,0,0,0-.41.74A.75.75,0,0,0,488.2,177.64Z"/><path class="cls-19" d="M493.45,176.77a1.2,1.2,0,0,0,.23.69,1.45,1.45,0,0,0,1.2.43,1.77,1.77,0,0,0,.9-.22.72.72,0,0,0,.38-.67.56.56,0,0,0-.31-.52,3.39,3.39,0,0,0-.78-.26l-.72-.18a3.44,3.44,0,0,1-1-.38,1.13,1.13,0,0,1-.59-1,1.53,1.53,0,0,1,.56-1.23,2.18,2.18,0,0,1,1.49-.47,2.06,2.06,0,0,1,1.76.71,1.48,1.48,0,0,1,.33,1H496a1,1,0,0,0-.22-.56,1.43,1.43,0,0,0-1.1-.35,1.3,1.3,0,0,0-.78.2.59.59,0,0,0-.27.51.62.62,0,0,0,.35.56,2.28,2.28,0,0,0,.6.21l.61.15a5.32,5.32,0,0,1,1.32.45,1.2,1.2,0,0,1,.52,1.09,1.64,1.64,0,0,1-.55,1.23,2.32,2.32,0,0,1-1.67.52,2.28,2.28,0,0,1-1.71-.54,2.1,2.1,0,0,1-.54-1.34Z"/><path class="cls-19" d="M498.56,176.77a1.28,1.28,0,0,0,.23.69,1.45,1.45,0,0,0,1.2.43,1.77,1.77,0,0,0,.9-.22.71.71,0,0,0,.39-.67.58.58,0,0,0-.31-.52,3.72,3.72,0,0,0-.79-.26l-.72-.18a3.56,3.56,0,0,1-1-.38,1.12,1.12,0,0,1-.58-1,1.52,1.52,0,0,1,.55-1.23,2.2,2.2,0,0,1,1.49-.47,2.08,2.08,0,0,1,1.77.71,1.53,1.53,0,0,1,.32,1h-.84a1.05,1.05,0,0,0-.22-.56,1.46,1.46,0,0,0-1.1-.35,1.33,1.33,0,0,0-.79.2.59.59,0,0,0-.27.51.64.64,0,0,0,.35.56,2.28,2.28,0,0,0,.6.21l.61.15a5.17,5.17,0,0,1,1.32.45,1.2,1.2,0,0,1,.52,1.09,1.66,1.66,0,0,1-.54,1.23,2.37,2.37,0,0,1-1.68.52,2.28,2.28,0,0,1-1.71-.54,2,2,0,0,1-.53-1.34Z"/><path class="cls-19" d="M503.55,173.1l1,4.21,1.05-4.21h1l1.05,4.19,1.1-4.19h.89l-1.55,5.34h-.93l-1.09-4.13-1.05,4.13h-.94l-1.54-5.34Z"/><path class="cls-19" d="M514.39,173.63a2.68,2.68,0,0,1,.71,2,3.45,3.45,0,0,1-.62,2.13,2.26,2.26,0,0,1-1.94.84,2.17,2.17,0,0,1-1.74-.74,3,3,0,0,1-.64-2,3.17,3.17,0,0,1,.68-2.15,2.27,2.27,0,0,1,1.82-.8A2.38,2.38,0,0,1,514.39,173.63Zm-.55,3.55a3.36,3.36,0,0,0,.32-1.5,2.71,2.71,0,0,0-.23-1.22,1.33,1.33,0,0,0-1.3-.73,1.27,1.27,0,0,0-1.18.63,2.87,2.87,0,0,0-.37,1.51,2.52,2.52,0,0,0,.37,1.42,1.3,1.3,0,0,0,1.17.57A1.24,1.24,0,0,0,513.84,177.18Z"/><path class="cls-19" d="M516.23,173.1h.86V174a2.08,2.08,0,0,1,.51-.66,1.36,1.36,0,0,1,.94-.38h.09l.2,0V174l-.14,0h-.15a1.31,1.31,0,0,0-1,.43,1.54,1.54,0,0,0-.36,1v3.07h-.9Z"/><path class="cls-19" d="M522.55,173.26a2.39,2.39,0,0,1,.54.53v-2.7H524v7.35h-.8v-.74a1.87,1.87,0,0,1-.75.71,2.05,2.05,0,0,1-1,.22,2,2,0,0,1-1.54-.75,3,3,0,0,1-.65-2,3.42,3.42,0,0,1,.6-2,2.12,2.12,0,0,1,2.72-.6Zm-2,4a1.27,1.27,0,0,0,1.17.58,1.23,1.23,0,0,0,1-.54,2.57,2.57,0,0,0,.4-1.54,2.28,2.28,0,0,0-.42-1.5,1.27,1.27,0,0,0-1-.48,1.33,1.33,0,0,0-1.1.52,2.35,2.35,0,0,0-.42,1.52A2.65,2.65,0,0,0,520.54,177.27Z"/><rect class="cls-18" x="476.52" y="193.73" width="129.8" height="21.79"/><path class="cls-19" d="M485.71,201.49a2.6,2.6,0,0,1,.85,1.66h-1A2.05,2.05,0,0,0,485,202a2,2,0,0,0-1.36-.41,2.16,2.16,0,0,0-1.72.76,3.49,3.49,0,0,0-.65,2.33,3.38,3.38,0,0,0,.59,2.09,2,2,0,0,0,1.76.81,1.83,1.83,0,0,0,1.64-.85,3.18,3.18,0,0,0,.45-1.17h1a3.38,3.38,0,0,1-.85,1.95,3,3,0,0,1-2.33.94,3.07,3.07,0,0,1-2.12-.77,4.1,4.1,0,0,1-1.13-3.17,4,4,0,0,1,.85-2.66,3.08,3.08,0,0,1,2.53-1.13A2.92,2.92,0,0,1,485.71,201.49Z"/><path class="cls-19" d="M491.67,203.47a2.72,2.72,0,0,1,.7,2,3.45,3.45,0,0,1-.62,2.13,2.27,2.27,0,0,1-1.94.85,2.18,2.18,0,0,1-1.74-.75,3,3,0,0,1-.64-2,3.17,3.17,0,0,1,.68-2.15,2.27,2.27,0,0,1,1.82-.8A2.42,2.42,0,0,1,491.67,203.47Zm-.56,3.56a3.41,3.41,0,0,0,.33-1.51,2.63,2.63,0,0,0-.24-1.21,1.32,1.32,0,0,0-1.29-.74,1.28,1.28,0,0,0-1.19.63,2.87,2.87,0,0,0-.37,1.51,2.52,2.52,0,0,0,.37,1.42,1.31,1.31,0,0,0,1.18.57A1.23,1.23,0,0,0,491.11,207Z"/><path class="cls-19" d="M493.48,202.94h.85v.76a2.37,2.37,0,0,1,.8-.68,2.28,2.28,0,0,1,.95-.2,1.56,1.56,0,0,1,1.54.79,3,3,0,0,1,.22,1.25v3.43h-.92v-3.37a1.93,1.93,0,0,0-.14-.79.87.87,0,0,0-.87-.5,2,2,0,0,0-.53.06,1.37,1.37,0,0,0-.64.44,1.43,1.43,0,0,0-.3.55,4.13,4.13,0,0,0-.06.8v2.81h-.9Z"/><path class="cls-19" d="M499.58,201.31a1.38,1.38,0,0,1,1.22-.46H501l.21,0v.82l-.21,0h-.12c-.27,0-.44.07-.49.21a3.87,3.87,0,0,0-.08,1.08h.9v.71h-.9v4.62h-.89v-4.62h-.75V203h.75v-.83A1.62,1.62,0,0,1,499.58,201.31Z"/><path class="cls-19" d="M502,201h.92v1H502Zm0,2h.92v5.33H502Z"/><path class="cls-19" d="M504.3,202.94h.85v.92a2,2,0,0,1,.52-.65,1.33,1.33,0,0,1,.94-.39h.09l.2,0v.95l-.15,0h-.14a1.3,1.3,0,0,0-1.05.43,1.56,1.56,0,0,0-.36,1v3.08h-.9Z"/><path class="cls-19" d="M507.68,202.94h.89v.76a2.62,2.62,0,0,1,.58-.58,1.74,1.74,0,0,1,1-.3,1.57,1.57,0,0,1,1,.31,1.64,1.64,0,0,1,.4.53,1.91,1.91,0,0,1,1.62-.84,1.47,1.47,0,0,1,1.46.78,2.53,2.53,0,0,1,.21,1.13v3.56h-.93v-3.72a.86.86,0,0,0-.27-.73,1,1,0,0,0-.65-.2,1.33,1.33,0,0,0-.91.35,1.59,1.59,0,0,0-.38,1.19v3.11h-.91V204.8a1.94,1.94,0,0,0-.13-.8.8.8,0,0,0-.77-.37,1.3,1.3,0,0,0-.92.39,1.94,1.94,0,0,0-.42,1.43v2.84h-.9Z"/><path class="cls-19" d="M519.25,201h3.28a2.24,2.24,0,0,1,1.57.55,2,2,0,0,1,.6,1.55,2.24,2.24,0,0,1-.53,1.5,2,2,0,0,1-1.63.64h-2.29v3.1h-1Zm3.86,1a2.22,2.22,0,0,0-.9-.15h-2v2.54h2a1.89,1.89,0,0,0,1.08-.29,1.14,1.14,0,0,0,.41-1A1.11,1.11,0,0,0,523.11,202Z"/><path class="cls-19" d="M528.72,205.05a.49.49,0,0,0,.42-.26.79.79,0,0,0,.06-.35.71.71,0,0,0-.33-.66,1.73,1.73,0,0,0-.93-.21,1.18,1.18,0,0,0-1,.38,1.23,1.23,0,0,0-.21.63h-.84a1.54,1.54,0,0,1,.64-1.38,2.6,2.6,0,0,1,1.43-.39,2.94,2.94,0,0,1,1.53.36,1.21,1.21,0,0,1,.58,1.12v3.08a.36.36,0,0,0,.06.22.27.27,0,0,0,.24.09h.13l.16,0v.66l-.32.08H530a.74.74,0,0,1-.67-.33,1.35,1.35,0,0,1-.15-.49,2.53,2.53,0,0,1-1.93.89,1.68,1.68,0,0,1-1.21-.46,1.63,1.63,0,0,1,0-2.28,2.22,2.22,0,0,1,1.22-.5Zm-1.89,2.43a1,1,0,0,0,.67.22,2,2,0,0,0,.92-.22,1.23,1.23,0,0,0,.75-1.19v-.72a1.36,1.36,0,0,1-.42.17,3.06,3.06,0,0,1-.51.1l-.54.07a2.13,2.13,0,0,0-.74.21.77.77,0,0,0-.41.74A.75.75,0,0,0,526.83,207.48Z"/><path class="cls-19" d="M532.08,206.61a1.2,1.2,0,0,0,.23.69,1.45,1.45,0,0,0,1.2.43,1.77,1.77,0,0,0,.9-.22.71.71,0,0,0,.38-.67.56.56,0,0,0-.31-.52,4,4,0,0,0-.78-.26l-.72-.18a3.44,3.44,0,0,1-1-.38,1.12,1.12,0,0,1-.59-1,1.53,1.53,0,0,1,.56-1.23,2.24,2.24,0,0,1,1.49-.47,2.08,2.08,0,0,1,1.76.71,1.48,1.48,0,0,1,.33,1h-.85a.92.92,0,0,0-.22-.55,1.4,1.4,0,0,0-1.1-.36,1.35,1.35,0,0,0-.79.2.62.62,0,0,0-.26.51.62.62,0,0,0,.35.56,2.32,2.32,0,0,0,.6.22l.6.14a5.28,5.28,0,0,1,1.33.45,1.21,1.21,0,0,1,.52,1.09,1.64,1.64,0,0,1-.55,1.23,2.32,2.32,0,0,1-1.67.52,2.28,2.28,0,0,1-1.71-.54,2.1,2.1,0,0,1-.54-1.34Z"/><path class="cls-19" d="M537.19,206.61a1.28,1.28,0,0,0,.23.69,1.45,1.45,0,0,0,1.2.43,1.77,1.77,0,0,0,.9-.22.7.7,0,0,0,.38-.67.56.56,0,0,0-.31-.52,4,4,0,0,0-.78-.26l-.72-.18a3.44,3.44,0,0,1-1-.38,1.12,1.12,0,0,1-.59-1,1.53,1.53,0,0,1,.56-1.23,2.24,2.24,0,0,1,1.49-.47,2.08,2.08,0,0,1,1.76.71,1.48,1.48,0,0,1,.33,1h-.85a.92.92,0,0,0-.22-.55,1.39,1.39,0,0,0-1.09-.36,1.33,1.33,0,0,0-.79.2.6.6,0,0,0-.27.51.64.64,0,0,0,.35.56,2.65,2.65,0,0,0,.6.22l.61.14a5.32,5.32,0,0,1,1.32.45,1.21,1.21,0,0,1,.52,1.09,1.64,1.64,0,0,1-.55,1.23,2.32,2.32,0,0,1-1.67.52,2.28,2.28,0,0,1-1.71-.54,2.1,2.1,0,0,1-.54-1.34Z"/><path class="cls-19" d="M542.18,202.94l1,4.21,1-4.21h1l1,4.19,1.1-4.19h.89l-1.55,5.35h-.93l-1.09-4.14-1.05,4.14h-.94l-1.54-5.35Z"/><path class="cls-19" d="M553,203.47a2.68,2.68,0,0,1,.71,2,3.51,3.51,0,0,1-.62,2.13,2.27,2.27,0,0,1-1.94.85,2.18,2.18,0,0,1-1.74-.75,3,3,0,0,1-.64-2,3.22,3.22,0,0,1,.67-2.15,2.31,2.31,0,0,1,1.83-.8A2.38,2.38,0,0,1,553,203.47Zm-.55,3.56a3.55,3.55,0,0,0,.32-1.51,2.77,2.77,0,0,0-.23-1.21,1.32,1.32,0,0,0-1.3-.74,1.27,1.27,0,0,0-1.18.63,2.87,2.87,0,0,0-.37,1.51,2.52,2.52,0,0,0,.37,1.42,1.3,1.3,0,0,0,1.17.57A1.23,1.23,0,0,0,552.47,207Z"/><path class="cls-19" d="M554.86,202.94h.85v.92a2,2,0,0,1,.52-.65,1.33,1.33,0,0,1,.94-.39h.09l.2,0v.95l-.15,0h-.14a1.3,1.3,0,0,0-1,.43,1.56,1.56,0,0,0-.36,1v3.08h-.9Z"/><path class="cls-19" d="M561.18,203.1a2.39,2.39,0,0,1,.54.53v-2.7h.86v7.36h-.81v-.75a1.89,1.89,0,0,1-.74.72,2.18,2.18,0,0,1-1,.22,2,2,0,0,1-1.54-.76,3,3,0,0,1-.65-2,3.44,3.44,0,0,1,.6-2,2.12,2.12,0,0,1,2.72-.6Zm-2,4a1.26,1.26,0,0,0,1.16.58,1.23,1.23,0,0,0,1-.54,2.57,2.57,0,0,0,.39-1.54,2.28,2.28,0,0,0-.41-1.5,1.28,1.28,0,0,0-1-.48,1.32,1.32,0,0,0-1.09.52,2.35,2.35,0,0,0-.42,1.52A2.65,2.65,0,0,0,559.17,207.11Z"/><rect class="cls-18" x="476.52" y="223.48" width="129.8" height="21.79"/><path class="cls-19" d="M483.71,232.75a2.13,2.13,0,0,1,.81.69,2.41,2.41,0,0,1,.36.95,6.42,6.42,0,0,1,.08,1.18h-3.89a2.2,2.2,0,0,0,.38,1.3,1.27,1.27,0,0,0,1.1.5,1.43,1.43,0,0,0,1.12-.47,1.73,1.73,0,0,0,.33-.63h.88a1.8,1.8,0,0,1-.23.66,2.33,2.33,0,0,1-.44.59,2,2,0,0,1-1,.54,3.13,3.13,0,0,1-.73.08,2.24,2.24,0,0,1-1.68-.72,2.86,2.86,0,0,1-.69-2,3,3,0,0,1,.7-2.09,2.26,2.26,0,0,1,1.81-.8A2.37,2.37,0,0,1,483.71,232.75Zm.32,2.1a2.24,2.24,0,0,0-.25-.93,1.29,1.29,0,0,0-1.22-.65,1.33,1.33,0,0,0-1,.45,1.62,1.62,0,0,0-.44,1.13Z"/><path class="cls-19" d="M486.09,232.61H487v.75a3.36,3.36,0,0,1,.58-.57,1.76,1.76,0,0,1,1-.3,1.58,1.58,0,0,1,1,.31,1.79,1.79,0,0,1,.4.53,1.81,1.81,0,0,1,1.61-.84,1.5,1.5,0,0,1,1.47.77,2.56,2.56,0,0,1,.21,1.13V238h-.94v-3.71a.88.88,0,0,0-.26-.74,1.09,1.09,0,0,0-.65-.2,1.3,1.3,0,0,0-.92.36,1.56,1.56,0,0,0-.38,1.18V238h-.91v-3.49a1.73,1.73,0,0,0-.13-.79.79.79,0,0,0-.76-.38,1.35,1.35,0,0,0-.93.4,1.92,1.92,0,0,0-.42,1.43V238h-.9Z"/><path class="cls-19" d="M497.48,234.72a.51.51,0,0,0,.41-.26.82.82,0,0,0,.06-.35.73.73,0,0,0-.33-.67,1.68,1.68,0,0,0-.93-.21,1.18,1.18,0,0,0-1,.39,1.22,1.22,0,0,0-.21.62h-.84a1.56,1.56,0,0,1,.64-1.38,2.61,2.61,0,0,1,1.43-.38,3,3,0,0,1,1.53.35,1.22,1.22,0,0,1,.58,1.12V237a.39.39,0,0,0,.06.23.3.3,0,0,0,.24.08h.14l.16,0V238l-.32.07-.3,0a.72.72,0,0,1-.67-.33,1.18,1.18,0,0,1-.16-.5,2.34,2.34,0,0,1-.79.63,2.5,2.5,0,0,1-1.13.26,1.7,1.7,0,0,1-1.22-.45,1.52,1.52,0,0,1-.47-1.13,1.46,1.46,0,0,1,.47-1.15,2.16,2.16,0,0,1,1.21-.5Zm-1.9,2.42a1.07,1.07,0,0,0,.68.23,2.18,2.18,0,0,0,.92-.22,1.23,1.23,0,0,0,.75-1.19v-.73a1.74,1.74,0,0,1-.43.18,3.06,3.06,0,0,1-.51.1l-.54.07a2.09,2.09,0,0,0-.73.2.8.8,0,0,0-.42.75A.73.73,0,0,0,495.58,237.14Z"/><path class="cls-19" d="M500.3,230.62h.91v1h-.91Zm0,2h.91V238h-.91Z"/><path class="cls-19" d="M502.59,230.62h.9V238h-.9Z"/><path class="cls-19" d="M510.55,234.72a.51.51,0,0,0,.41-.26.82.82,0,0,0,.06-.35.73.73,0,0,0-.33-.67,1.71,1.71,0,0,0-.93-.21,1.18,1.18,0,0,0-1,.39,1.22,1.22,0,0,0-.21.62h-.84a1.56,1.56,0,0,1,.64-1.38,2.61,2.61,0,0,1,1.43-.38,3,3,0,0,1,1.53.35,1.22,1.22,0,0,1,.58,1.12V237a.39.39,0,0,0,.06.23.3.3,0,0,0,.24.08h.14l.16,0V238l-.32.07-.3,0a.75.75,0,0,1-.68-.33,1.35,1.35,0,0,1-.15-.5,2.34,2.34,0,0,1-.79.63,2.5,2.5,0,0,1-1.13.26,1.7,1.7,0,0,1-1.22-.45,1.52,1.52,0,0,1-.47-1.13,1.48,1.48,0,0,1,.46-1.15,2.22,2.22,0,0,1,1.22-.5Zm-1.9,2.42a1.07,1.07,0,0,0,.68.23,2.18,2.18,0,0,0,.92-.22A1.22,1.22,0,0,0,511,236v-.73a1.51,1.51,0,0,1-.42.18,3.06,3.06,0,0,1-.51.1l-.54.07a2,2,0,0,0-.73.2.8.8,0,0,0-.42.75A.73.73,0,0,0,508.65,237.14Z"/><path class="cls-19" d="M516.3,232.77a2.52,2.52,0,0,1,.55.52v-2.7h.86V238h-.81v-.74a1.92,1.92,0,0,1-.74.71,2.08,2.08,0,0,1-1,.22,2,2,0,0,1-1.54-.75,2.92,2.92,0,0,1-.65-2,3.41,3.41,0,0,1,.59-2,2,2,0,0,1,1.7-.86A1.88,1.88,0,0,1,516.3,232.77Zm-2,4a1.28,1.28,0,0,0,1.16.58,1.23,1.23,0,0,0,1-.54,2.52,2.52,0,0,0,.4-1.54,2.33,2.33,0,0,0-.41-1.5,1.32,1.32,0,0,0-1-.49,1.37,1.37,0,0,0-1.1.52,2.47,2.47,0,0,0-.41,1.53A2.7,2.7,0,0,0,514.3,236.78Z"/><path class="cls-19" d="M522,232.77a2.31,2.31,0,0,1,.54.52v-2.7h.87V238h-.81v-.74a1.92,1.92,0,0,1-.74.71,2.11,2.11,0,0,1-1,.22,2,2,0,0,1-1.55-.75,3,3,0,0,1-.65-2,3.42,3.42,0,0,1,.6-2,2.12,2.12,0,0,1,2.72-.6Zm-2,4a1.3,1.3,0,0,0,1.17.58,1.23,1.23,0,0,0,1-.54,2.59,2.59,0,0,0,.4-1.54,2.28,2.28,0,0,0-.42-1.5,1.28,1.28,0,0,0-1-.49,1.37,1.37,0,0,0-1.1.52,2.4,2.4,0,0,0-.42,1.53A2.7,2.7,0,0,0,520,236.78Z"/><path class="cls-19" d="M524.76,232.61h.86v.92a2.08,2.08,0,0,1,.51-.66,1.31,1.31,0,0,1,.94-.38h.09l.2,0v1l-.14,0h-.15a1.28,1.28,0,0,0-1,.44,1.5,1.5,0,0,0-.37,1V238h-.9Z"/><path class="cls-19" d="M531.45,232.75a2,2,0,0,1,.8.69,2.41,2.41,0,0,1,.36.95,6.42,6.42,0,0,1,.08,1.18H528.8a2.36,2.36,0,0,0,.38,1.3,1.28,1.28,0,0,0,1.11.5,1.43,1.43,0,0,0,1.11-.47,1.47,1.47,0,0,0,.33-.63h.89a1.84,1.84,0,0,1-.24.66,2.11,2.11,0,0,1-.44.59,2,2,0,0,1-1,.54,3.26,3.26,0,0,1-.73.08,2.24,2.24,0,0,1-1.68-.72,2.86,2.86,0,0,1-.69-2,3.08,3.08,0,0,1,.69-2.09,2.28,2.28,0,0,1,1.82-.8A2.4,2.4,0,0,1,531.45,232.75Zm.32,2.1a2.23,2.23,0,0,0-.26-.93,1.29,1.29,0,0,0-1.22-.65,1.35,1.35,0,0,0-1,.45,1.72,1.72,0,0,0-.44,1.13Z"/><path class="cls-19" d="M534.36,236.27a1.37,1.37,0,0,0,.23.69,1.45,1.45,0,0,0,1.2.44,1.77,1.77,0,0,0,.9-.22.71.71,0,0,0,.39-.67.57.57,0,0,0-.31-.53,4.17,4.17,0,0,0-.78-.25l-.73-.18a3.47,3.47,0,0,1-1-.38,1.13,1.13,0,0,1-.59-1,1.55,1.55,0,0,1,.55-1.23,2.25,2.25,0,0,1,1.49-.46,2.09,2.09,0,0,1,1.77.7,1.62,1.62,0,0,1,.33,1h-.85a1.05,1.05,0,0,0-.22-.55,1.45,1.45,0,0,0-1.1-.35,1.34,1.34,0,0,0-.79.19.61.61,0,0,0-.27.52.62.62,0,0,0,.36.55,1.76,1.76,0,0,0,.6.22l.6.15a4.37,4.37,0,0,1,1.32.45,1.2,1.2,0,0,1,.53,1.08,1.68,1.68,0,0,1-.55,1.24,2.39,2.39,0,0,1-1.67.52,2.21,2.21,0,0,1-1.71-.55,2,2,0,0,1-.54-1.34Z"/><path class="cls-19" d="M539.47,236.27a1.37,1.37,0,0,0,.23.69,1.49,1.49,0,0,0,1.21.44,1.7,1.7,0,0,0,.89-.22.71.71,0,0,0,.39-.67.57.57,0,0,0-.31-.53,4.17,4.17,0,0,0-.78-.25l-.73-.18a3.47,3.47,0,0,1-1-.38,1.13,1.13,0,0,1-.59-1,1.56,1.56,0,0,1,.56-1.23,2.2,2.2,0,0,1,1.48-.46,2.09,2.09,0,0,1,1.77.7,1.5,1.5,0,0,1,.33,1h-.85a1.05,1.05,0,0,0-.22-.55,1.45,1.45,0,0,0-1.1-.35,1.36,1.36,0,0,0-.79.19.61.61,0,0,0-.27.52.62.62,0,0,0,.36.55,1.76,1.76,0,0,0,.6.22l.6.15a4.57,4.57,0,0,1,1.33.45,1.22,1.22,0,0,1,.52,1.08,1.64,1.64,0,0,1-.55,1.24,2.37,2.37,0,0,1-1.67.52,2.22,2.22,0,0,1-1.71-.55,2,2,0,0,1-.54-1.34Z"/><rect class="cls-21" x="476.32" y="284.36" width="129.8" height="21.79"/><rect class="cls-22" x="476.32" y="281.62" width="129.8" height="21.79"/><path class="cls-9" d="M518.07,286.51h4.16a4,4,0,0,1,1.7.31A2.16,2.16,0,0,1,525.2,289a2.25,2.25,0,0,1-1.29,2.19,1.88,1.88,0,0,1,.81.58,2.06,2.06,0,0,1,.3,1.15l0,1.23a4,4,0,0,0,.09.78.78.78,0,0,0,.4.56v.21H524a1,1,0,0,1-.1-.31,4.94,4.94,0,0,1-.07-.72l-.07-1.53a1.27,1.27,0,0,0-.65-1.2,2.47,2.47,0,0,0-1.08-.17h-2.75v3.93h-1.24Zm4,4.2a2.25,2.25,0,0,0,1.35-.35,1.46,1.46,0,0,0,.49-1.26,1.35,1.35,0,0,0-.69-1.33,2.16,2.16,0,0,0-1-.19h-3v3.13Z"/><path class="cls-9" d="M531.13,289.18a2.6,2.6,0,0,1,1,.86,3,3,0,0,1,.44,1.18,7.49,7.49,0,0,1,.1,1.48h-4.86a2.84,2.84,0,0,0,.48,1.63,1.6,1.6,0,0,0,1.38.62,1.75,1.75,0,0,0,1.39-.58,1.93,1.93,0,0,0,.41-.79h1.11a2.39,2.39,0,0,1-.29.82,3,3,0,0,1-.55.74,2.58,2.58,0,0,1-1.26.68,4.15,4.15,0,0,1-.91.1,2.79,2.79,0,0,1-2.1-.91,3.52,3.52,0,0,1-.86-2.54,3.85,3.85,0,0,1,.87-2.62,2.83,2.83,0,0,1,2.27-1A3.07,3.07,0,0,1,531.13,289.18Zm.4,2.62a2.91,2.91,0,0,0-.32-1.16,1.61,1.61,0,0,0-1.53-.81,1.67,1.67,0,0,0-1.28.55,2.12,2.12,0,0,0-.55,1.42Z"/><path class="cls-9" d="M537.82,289.26a3.23,3.23,0,0,1,.65.64v-.84h1v6.08a4.48,4.48,0,0,1-.37,2,2.68,2.68,0,0,1-2.63,1.36,3.16,3.16,0,0,1-1.81-.49,1.87,1.87,0,0,1-.82-1.51H535a1.24,1.24,0,0,0,.32.69,2,2,0,0,0,2.88-.53,5.22,5.22,0,0,0,.21-1.92,2.22,2.22,0,0,1-.8.76,2.9,2.9,0,0,1-3.15-.52,3.39,3.39,0,0,1-.81-2.55,3.84,3.84,0,0,1,.82-2.62,2.5,2.5,0,0,1,2-.94A2.47,2.47,0,0,1,537.82,289.26Zm.14,1.21a1.63,1.63,0,0,0-1.3-.6,1.59,1.59,0,0,0-1.61,1.11,4.22,4.22,0,0,0-.23,1.55,2.78,2.78,0,0,0,.45,1.72,1.47,1.47,0,0,0,1.23.59,1.71,1.71,0,0,0,1.69-1.09,3.4,3.4,0,0,0,.28-1.44A2.79,2.79,0,0,0,538,290.47Z"/><path class="cls-9" d="M541.21,286.51h1.14v1.28h-1.14Zm0,2.52h1.14v6.65h-1.14Z"/><path class="cls-9" d="M544.72,293.58a1.54,1.54,0,0,0,.29.86,1.78,1.78,0,0,0,1.5.55,2.26,2.26,0,0,0,1.12-.27.92.92,0,0,0,.48-.84.71.71,0,0,0-.38-.66,4.76,4.76,0,0,0-1-.32l-.91-.22a4.3,4.3,0,0,1-1.28-.48,1.4,1.4,0,0,1-.73-1.26,1.91,1.91,0,0,1,.69-1.53,2.78,2.78,0,0,1,1.86-.59,2.61,2.61,0,0,1,2.21.89,1.91,1.91,0,0,1,.41,1.21h-1.06a1.23,1.23,0,0,0-.28-.69,1.79,1.79,0,0,0-1.37-.44,1.72,1.72,0,0,0-1,.24.76.76,0,0,0-.33.64.8.8,0,0,0,.44.7,2.86,2.86,0,0,0,.75.27l.76.18a6.17,6.17,0,0,1,1.65.57,1.51,1.51,0,0,1,.66,1.36,2.06,2.06,0,0,1-.69,1.54,3,3,0,0,1-2.09.65,2.83,2.83,0,0,1-2.14-.68,2.54,2.54,0,0,1-.67-1.68Z"/><path class="cls-9" d="M550.67,287.13h1.13V289h1.07v.91H551.8v4.37a.46.46,0,0,0,.24.46,1,1,0,0,0,.44.07h.17l.22,0v.89a2.57,2.57,0,0,1-.4.08,3.23,3.23,0,0,1-.46,0,1.2,1.2,0,0,1-1.06-.41,1.73,1.73,0,0,1-.28-1v-4.43h-.91V289h.91Z"/><path class="cls-9" d="M558.12,289.18a2.53,2.53,0,0,1,1,.86,3.16,3.16,0,0,1,.45,1.18,8.37,8.37,0,0,1,.1,1.48h-4.86a2.91,2.91,0,0,0,.47,1.63,1.6,1.6,0,0,0,1.38.62,1.78,1.78,0,0,0,1.4-.58,2.06,2.06,0,0,0,.41-.79h1.1a2.19,2.19,0,0,1-.29.82,2.55,2.55,0,0,1-.55.74,2.51,2.51,0,0,1-1.25.68,4.22,4.22,0,0,1-.91.1,2.83,2.83,0,0,1-2.11-.91,3.57,3.57,0,0,1-.86-2.54,3.85,3.85,0,0,1,.87-2.62,2.86,2.86,0,0,1,2.27-1A3,3,0,0,1,558.12,289.18Zm.4,2.62a2.92,2.92,0,0,0-.31-1.16,1.63,1.63,0,0,0-1.53-.81,1.7,1.7,0,0,0-1.29.55,2.17,2.17,0,0,0-.55,1.42Z"/><path class="cls-9" d="M561.13,289h1.07v1.15a2.61,2.61,0,0,1,.64-.82,1.68,1.68,0,0,1,1.18-.48h.11l.25,0v1.18l-.18,0H564a1.58,1.58,0,0,0-1.3.55,1.92,1.92,0,0,0-.46,1.26v3.84h-1.12Z"/><rect class="cls-21" x="476.32" y="284.36" width="129.8" height="21.79"/><rect class="cls-22" x="476.32" y="281.62" width="129.8" height="21.79"/><path class="cls-9" d="M518.07,286.51h4.16a4,4,0,0,1,1.7.31A2.16,2.16,0,0,1,525.2,289a2.25,2.25,0,0,1-1.29,2.19,1.88,1.88,0,0,1,.81.58,2.06,2.06,0,0,1,.3,1.15l0,1.23a4,4,0,0,0,.09.78.78.78,0,0,0,.4.56v.21H524a1,1,0,0,1-.1-.31,4.94,4.94,0,0,1-.07-.72l-.07-1.53a1.27,1.27,0,0,0-.65-1.2,2.47,2.47,0,0,0-1.08-.17h-2.75v3.93h-1.24Zm4,4.2a2.25,2.25,0,0,0,1.35-.35,1.46,1.46,0,0,0,.49-1.26,1.35,1.35,0,0,0-.69-1.33,2.16,2.16,0,0,0-1-.19h-3v3.13Z"/><path class="cls-9" d="M531.13,289.18a2.6,2.6,0,0,1,1,.86,3,3,0,0,1,.44,1.18,7.49,7.49,0,0,1,.1,1.48h-4.86a2.84,2.84,0,0,0,.48,1.63,1.6,1.6,0,0,0,1.38.62,1.75,1.75,0,0,0,1.39-.58,1.93,1.93,0,0,0,.41-.79h1.11a2.39,2.39,0,0,1-.29.82,3,3,0,0,1-.55.74,2.58,2.58,0,0,1-1.26.68,4.15,4.15,0,0,1-.91.1,2.79,2.79,0,0,1-2.1-.91,3.52,3.52,0,0,1-.86-2.54,3.85,3.85,0,0,1,.87-2.62,2.83,2.83,0,0,1,2.27-1A3.07,3.07,0,0,1,531.13,289.18Zm.4,2.62a2.91,2.91,0,0,0-.32-1.16,1.61,1.61,0,0,0-1.53-.81,1.67,1.67,0,0,0-1.28.55,2.12,2.12,0,0,0-.55,1.42Z"/><path class="cls-9" d="M537.82,289.26a3.23,3.23,0,0,1,.65.64v-.84h1v6.08a4.48,4.48,0,0,1-.37,2,2.68,2.68,0,0,1-2.63,1.36,3.16,3.16,0,0,1-1.81-.49,1.87,1.87,0,0,1-.82-1.51H535a1.24,1.24,0,0,0,.32.69,2,2,0,0,0,2.88-.53,5.22,5.22,0,0,0,.21-1.92,2.22,2.22,0,0,1-.8.76,2.9,2.9,0,0,1-3.15-.52,3.39,3.39,0,0,1-.81-2.55,3.84,3.84,0,0,1,.82-2.62,2.5,2.5,0,0,1,2-.94A2.47,2.47,0,0,1,537.82,289.26Zm.14,1.21a1.63,1.63,0,0,0-1.3-.6,1.59,1.59,0,0,0-1.61,1.11,4.22,4.22,0,0,0-.23,1.55,2.78,2.78,0,0,0,.45,1.72,1.47,1.47,0,0,0,1.23.59,1.71,1.71,0,0,0,1.69-1.09,3.4,3.4,0,0,0,.28-1.44A2.79,2.79,0,0,0,538,290.47Z"/><path class="cls-9" d="M541.21,286.51h1.14v1.28h-1.14Zm0,2.52h1.14v6.65h-1.14Z"/><path class="cls-9" d="M544.72,293.58a1.54,1.54,0,0,0,.29.86,1.78,1.78,0,0,0,1.5.55,2.26,2.26,0,0,0,1.12-.27.92.92,0,0,0,.48-.84.71.71,0,0,0-.38-.66,4.76,4.76,0,0,0-1-.32l-.91-.22a4.3,4.3,0,0,1-1.28-.48,1.4,1.4,0,0,1-.73-1.26,1.91,1.91,0,0,1,.69-1.53,2.78,2.78,0,0,1,1.86-.59,2.61,2.61,0,0,1,2.21.89,1.91,1.91,0,0,1,.41,1.21h-1.06a1.23,1.23,0,0,0-.28-.69,1.79,1.79,0,0,0-1.37-.44,1.72,1.72,0,0,0-1,.24.76.76,0,0,0-.33.64.8.8,0,0,0,.44.7,2.86,2.86,0,0,0,.75.27l.76.18a6.17,6.17,0,0,1,1.65.57,1.51,1.51,0,0,1,.66,1.36,2.06,2.06,0,0,1-.69,1.54,3,3,0,0,1-2.09.65,2.83,2.83,0,0,1-2.14-.68,2.54,2.54,0,0,1-.67-1.68Z"/><path class="cls-9" d="M550.67,287.13h1.13V289h1.07v.91H551.8v4.37a.46.46,0,0,0,.24.46,1,1,0,0,0,.44.07h.17l.22,0v.89a2.57,2.57,0,0,1-.4.08,3.23,3.23,0,0,1-.46,0,1.2,1.2,0,0,1-1.06-.41,1.73,1.73,0,0,1-.28-1v-4.43h-.91V289h.91Z"/><path class="cls-9" d="M558.12,289.18a2.53,2.53,0,0,1,1,.86,3.16,3.16,0,0,1,.45,1.18,8.37,8.37,0,0,1,.1,1.48h-4.86a2.91,2.91,0,0,0,.47,1.63,1.6,1.6,0,0,0,1.38.62,1.78,1.78,0,0,0,1.4-.58,2.06,2.06,0,0,0,.41-.79h1.1a2.19,2.19,0,0,1-.29.82,2.55,2.55,0,0,1-.55.74,2.51,2.51,0,0,1-1.25.68,4.22,4.22,0,0,1-.91.1,2.83,2.83,0,0,1-2.11-.91,3.57,3.57,0,0,1-.86-2.54,3.85,3.85,0,0,1,.87-2.62,2.86,2.86,0,0,1,2.27-1A3,3,0,0,1,558.12,289.18Zm.4,2.62a2.92,2.92,0,0,0-.31-1.16,1.63,1.63,0,0,0-1.53-.81,1.7,1.7,0,0,0-1.29.55,2.17,2.17,0,0,0-.55,1.42Z"/><path class="cls-9" d="M561.13,289h1.07v1.15a2.61,2.61,0,0,1,.64-.82,1.68,1.68,0,0,1,1.18-.48h.11l.25,0v1.18l-.18,0H564a1.58,1.58,0,0,0-1.3.55,1.92,1.92,0,0,0-.46,1.26v3.84h-1.12Z"/></g></g></svg>