<?xml version="1.0" encoding="utf-8"?>
<!-- Generator: Adobe Illustrator 22.1.0, SVG Export Plug-In . SVG Version: 6.00 Build 0)  -->
<svg version="1.1" id="Group_382" xmlns="http://www.w3.org/2000/svg" xmlns:xlink="http://www.w3.org/1999/xlink" x="0px" y="0px"
	 viewBox="0 0 137.1 72.4" style="enable-background:new 0 0 137.1 72.4;" xml:space="preserve">
<style type="text/css">
	.st0{fill:#F2F2F2;}
	.st1{fill:#662D91;}
	.st2{fill:#3FC0F5;}
	.st3{fill:#7AC943;}
	.st4{fill:#FF7B1E;}
	.st5{fill:#FF7BAC;}
	.st6{fill:#FF1D25;}
	.st7{fill:#333333;}
</style>
<rect x="17.1" y="16.9" class="st0" width="102.9" height="38.4"/>
<g id="Group_380">
	<g id="Group_377">
		<g id="Group_376" transform="translate(17.08)">
			<rect id="Rectangle_84" x="0" class="st1" width="17.2" height="17.1"/>
			<rect id="Rectangle_85" x="17.2" class="st2" width="17.2" height="17.1"/>
			<rect id="Rectangle_86" x="34.4" class="st3" width="17.2" height="17.1"/>
		</g>
		<rect id="Rectangle_87" x="68.7" class="st4" width="17.1" height="17.1"/>
		<rect id="Rectangle_88" x="85.8" class="st5" width="17.1" height="17.1"/>
		<rect id="Rectangle_89" x="102.9" class="st6" width="17.1" height="17.1"/>
		<rect id="Rectangle_90" x="120" y="17.1" class="st6" width="17.1" height="17.1"/>
		<rect id="Rectangle_91" y="17.1" class="st1" width="17.1" height="17.1"/>
	</g>
	<g id="Group_379" transform="translate(0.056 38.078)">
		<g id="Group_378" transform="translate(68.359 17.194)">
			<rect id="Rectangle_93" x="16.2" y="0" class="st5" width="19.1" height="17.1"/>
			<rect id="Rectangle_94" x="0" y="0" class="st4" width="17.1" height="17.1"/>
			<rect id="Rectangle_92" x="34.4" y="0" class="st6" width="17.1" height="17.1"/>
		</g>
		<rect id="Rectangle_96" x="33.4" y="17.2" class="st2" width="19.1" height="17.1"/>
		<rect id="Rectangle_95" x="51.6" y="17.2" class="st3" width="17.1" height="17.1"/>
		<rect id="Rectangle_97" x="17.2" y="17.2" class="st1" width="17.1" height="17.1"/>
		<rect id="Rectangle_98" x="0" y="0" class="st1" width="17.1" height="17.1"/>
		<rect id="Rectangle_99" x="119.9" y="0" class="st6" width="17.1" height="17.1"/>
	</g>
</g>
<g id="Group_381" transform="translate(30.8 29.686)">
	<path id="Path_534" class="st7" d="M22.9,12.6c-1.1,0-2-0.7-2.4-1.6c-1.1-3-4.1-5-7.3-4.9c-3.3,0-6.5,1.6-7.7,4.5
		c-0.6,1.4-2.2,2.1-3.7,1.6C0.4,11.6-0.3,10,0.1,8.5c2-5.2,7-8.6,12.6-8.5c5.6-0.1,10.6,3.3,12.6,8.5c0.3,1.4-0.4,2.9-1.6,3.7
		C23.7,12.6,23.3,12.6,22.9,12.6z"/>
	<path id="Path_535" class="st7" d="M72.5,12.6c-1.1,0-2-0.7-2.4-1.6c-1.1-3-4.1-5-7.3-4.9c-3.7,0-6.5,2-7.3,4.9
		c-0.6,1.4-2.2,2.1-3.7,1.6c-1.4-0.6-2.1-2.2-1.6-3.7c2-5.2,7-8.6,12.6-8.5c5.6-0.1,10.6,3.3,12.6,8.5c0.3,1.4-0.4,2.9-1.6,3.7H72.5
		z"/>
</g>
</svg>
