<svg id="Group_382" data-name="Group 382" xmlns="http://www.w3.org/2000/svg" viewBox="0 0 137.073 72.352">
  <defs>
    <style>
      .cls-1 {
        fill: #662d91;
      }

      .cls-2 {
        fill: #3fc0f5;
      }

      .cls-3 {
        fill: #7ac943;
      }

      .cls-4 {
        fill: #ff7b1e;
      }

      .cls-5 {
        fill: #ff7bac;
      }

      .cls-6 {
        fill: #ff1d25;
      }

      .cls-7 {
        fill: #333;
      }
    </style>
  </defs>
  <g id="Group_380" data-name="Group 380">
    <g id="Group_377" data-name="Group 377">
      <g id="Group_376" data-name="Group 376" transform="translate(17.08)">
        <rect id="Rectangle_84" data-name="Rectangle 84" class="cls-1" width="17.215" height="17.08"/>
        <rect id="Rectangle_85" data-name="Rectangle 85" class="cls-2" width="17.215" height="17.08" transform="translate(17.215)"/>
        <rect id="Rectangle_86" data-name="Rectangle 86" class="cls-3" width="17.215" height="17.08" transform="translate(34.431)"/>
      </g>
      <rect id="Rectangle_87" data-name="Rectangle 87" class="cls-4" width="17.08" height="17.08" transform="translate(68.725)"/>
      <rect id="Rectangle_88" data-name="Rectangle 88" class="cls-5" width="17.08" height="17.08" transform="translate(85.805)"/>
      <rect id="Rectangle_89" data-name="Rectangle 89" class="cls-6" width="17.08" height="17.08" transform="translate(102.885)"/>
      <rect id="Rectangle_90" data-name="Rectangle 90" class="cls-6" width="17.08" height="17.08" transform="translate(119.965 17.08)"/>
      <rect id="Rectangle_91" data-name="Rectangle 91" class="cls-1" width="17.08" height="17.08" transform="translate(0 17.08)"/>
    </g>
    <g id="Group_379" data-name="Group 379" transform="translate(0.056 38.078)">
      <g id="Group_378" data-name="Group 378" transform="translate(68.359 17.194)">
        <rect id="Rectangle_93" data-name="Rectangle 93" class="cls-5" width="19.08" height="17.08" transform="translate(35.272 17.08) rotate(180)"/>
        <rect id="Rectangle_94" data-name="Rectangle 94" class="cls-4" width="17.08" height="17.08" transform="translate(17.08 17.08) rotate(180)"/>
        <rect id="Rectangle_92" data-name="Rectangle 92" class="cls-6" width="17.08" height="17.08" transform="translate(51.464 17.08) rotate(180)"/>
      </g>
      <rect id="Rectangle_96" data-name="Rectangle 96" class="cls-2" width="19.08" height="17.08" transform="translate(52.461 34.274) rotate(180)"/>
      <rect id="Rectangle_95" data-name="Rectangle 95" class="cls-3" width="17.08" height="17.08" transform="translate(68.653 34.274) rotate(180)"/>
      <rect id="Rectangle_97" data-name="Rectangle 97" class="cls-1" width="17.08" height="17.08" transform="translate(34.269 34.274) rotate(180)"/>
      <rect id="Rectangle_98" data-name="Rectangle 98" class="cls-1" width="17.08" height="17.08" transform="translate(17.08 17.083) rotate(180)"/>
      <rect id="Rectangle_99" data-name="Rectangle 99" class="cls-6" width="17.08" height="17.08" transform="translate(137.017 17.08) rotate(180)"/>
    </g>
  </g>
  <g id="Group_381" data-name="Group 381" transform="translate(30.8 29.686)">
    <path id="Path_534" data-name="Path 534" class="cls-7" d="M30.453,19.906a2.746,2.746,0,0,1-2.44-1.627,7.446,7.446,0,0,0-7.32-4.88c-3.253,0-6.507,1.627-7.727,4.473A3.055,3.055,0,0,1,9.306,19.5,3.055,3.055,0,0,1,7.68,15.84,13.226,13.226,0,0,1,20.286,7.3a13.226,13.226,0,0,1,12.606,8.54,3.539,3.539,0,0,1-1.627,3.66C31.266,19.906,30.859,19.906,30.453,19.906Z" transform="translate(-7.574 -7.3)"/>
    <path id="Path_535" data-name="Path 535" class="cls-7" d="M42.346,19.6a2.746,2.746,0,0,1-2.44-1.627,7.446,7.446,0,0,0-7.32-4.88c-3.66,0-6.507,2.033-7.32,4.88a3.055,3.055,0,0,1-3.66,1.627,3.055,3.055,0,0,1-1.627-3.66A13.226,13.226,0,0,1,32.586,7.4a13.226,13.226,0,0,1,12.606,8.54,3.539,3.539,0,0,1-1.627,3.66Z" transform="translate(30.145 -6.993)"/>
  </g>
</svg>
