<?xml version="1.0" encoding="utf-8"?>
<!-- Generator: Adobe Illustrator 22.1.0, SVG Export Plug-In . SVG Version: 6.00 Build 0)  -->
<svg version="1.1" xmlns="http://www.w3.org/2000/svg" xmlns:xlink="http://www.w3.org/1999/xlink" x="0px" y="0px"
	 viewBox="0 0 1343 345.5" style="enable-background:new 0 0 1343 345.5;" xml:space="preserve">
<style type="text/css">
	.st0{fill:#E6E7E8;}
	.st1{fill:none;stroke:#E6E7E8;stroke-width:2.7154;stroke-miterlimit:10;}
	.st2{fill:none;stroke:#000000;stroke-width:7.5648;stroke-linecap:round;stroke-miterlimit:10;}
	.st3{fill:none;stroke:#E6E7E8;stroke-width:8.8462;stroke-miterlimit:10;}
	.st4{clip-path:url(#SVGID_2_);}
	.st5{fill:none;stroke:#000000;stroke-width:20.5089;stroke-linecap:round;stroke-miterlimit:10;}
</style>
<g id="Layer_1">
	<rect id="Rectangle_104" class="st0" width="1343" height="345.5"/>
	<g>
		<g>
			<path d="M1296.7,276.2H763.8c-8.1,0-14.6-6.6-14.6-14.6l0,0c0-76.6,44.6-139.2,206.4-139.2h216.6c76.9,0,139.2,62.3,139.2,139.2
				l0,0C1311.3,269.7,1304.8,276.2,1296.7,276.2z"/>
			<g>
				<path class="st0" d="M898.9,187.9L898.9,187.9c-0.5,0-0.9-0.4-0.9-0.9v-21c0-0.5,0.4-0.9,0.9-0.9l0,0c0.5,0,0.9,0.4,0.9,0.9v21
					C899.9,187.5,899.4,187.9,898.9,187.9z"/>
				<path class="st0" d="M904.3,187.9L904.3,187.9c-0.5,0-0.9-0.4-0.9-0.9v-21c0-0.5,0.4-0.9,0.9-0.9l0,0c0.5,0,0.9,0.4,0.9,0.9v21
					C905.3,187.5,904.9,187.9,904.3,187.9z"/>
				<path class="st0" d="M909.7,187.9L909.7,187.9c-0.5,0-0.9-0.4-0.9-0.9v-21c0-0.5,0.4-0.9,0.9-0.9l0,0c0.5,0,0.9,0.4,0.9,0.9v21
					C910.7,187.5,910.3,187.9,909.7,187.9z"/>
				<path class="st0" d="M915.2,187.9L915.2,187.9c-0.5,0-0.9-0.4-0.9-0.9v-21c0-0.5,0.4-0.9,0.9-0.9l0,0c0.5,0,0.9,0.4,0.9,0.9v21
					C916.1,187.5,915.7,187.9,915.2,187.9z"/>
				<path class="st0" d="M920.6,187.9L920.6,187.9c-0.5,0-0.9-0.4-0.9-0.9v-21c0-0.5,0.4-0.9,0.9-0.9l0,0c0.5,0,0.9,0.4,0.9,0.9v21
					C921.5,187.5,921.1,187.9,920.6,187.9z"/>
				<path class="st0" d="M926,187.9L926,187.9c-0.5,0-0.9-0.4-0.9-0.9v-21c0-0.5,0.4-0.9,0.9-0.9l0,0c0.5,0,0.9,0.4,0.9,0.9v21
					C926.9,187.5,926.5,187.9,926,187.9z"/>
			</g>
			<rect x="1300.7" y="245.6" width="30" height="17.3"/>
			<rect x="1291.3" y="268" width="39.4" height="8.2"/>
			<rect x="1307.3" y="247.2" width="5.5" height="27.3"/>
			<rect x="731.1" y="245.5" width="30" height="17.3"/>
			<rect x="731.1" y="268.1" width="39.4" height="8.2"/>
			<rect x="749" y="247.2" width="5.5" height="27.3"/>
			<g>
				<path d="M741.4,191c9.9,0,18,8,18,18c0,9.9-8,18-18,18"/>
				<rect x="731.5" y="191.2" width="6.7" height="35.4"/>
			</g>
			<g>
				<path d="M1310.6,226.9c-5.3,0-9.7-4.3-9.7-9.7s4.3-9.7,9.7-9.7"/>
				<rect x="1312.4" y="207.8" width="3.6" height="19"/>
			</g>
			<g>
				<path d="M1305.3,208.1c-5.3,0-9.7-4.3-9.7-9.7s4.3-9.7,9.7-9.7"/>
				<rect x="1307" y="189" width="3.6" height="19"/>
			</g>
			<path d="M1265.4,158.1c0,0,31.6-136.2-220.3-127.9c-58.4,1.9-86.5,24.2-89,65c-0.8,18.4-1.2,29.5-1.2,29.5s77.3,1.2,79,0.6
				L1265.4,158.1z"/>
			<path class="st0" d="M1092.2,260H969c-9.9,0-17.9-8-17.9-17.9V105.6h4.3v136.6c0,7.5,6.1,13.6,13.6,13.6h123.3
				c7.5,0,13.6-6.1,13.6-13.6V105.3h4.3v136.9C1110.1,252,1102.1,260,1092.2,260z"/>
			<path class="st0" d="M1108.6,122.2H973.4c-0.3,0-0.6-0.2-0.6-0.6V97.7c0-22.3,18.2-40.5,40.5-40.5h60.3c20,0,36.3,16.3,36.3,36.3
				v27.3C1110,121.6,1109.3,122.2,1108.6,122.2z"/>
			<path class="st0" d="M1209.6,122.2h-74.5c-4,0-7.2-3.2-7.2-7.2V75c0-7.7,6.3-14,14-14h19.7c30.2,0,54.6,24.5,54.6,54.6l0,0
				C1216.2,119.2,1213.3,122.2,1209.6,122.2z"/>
			<path class="st0" d="M1096.5,139.7h-14.4c-1,0-1.8-0.8-1.8-1.8l0,0c0-1,0.8-1.8,1.8-1.8h14.4c1,0,1.8,0.8,1.8,1.8l0,0
				C1098.3,138.9,1097.5,139.7,1096.5,139.7z"/>
			<path class="st0" d="M1096.5,133.1h-14.4c-1,0-1.8-0.8-1.8-1.8l0,0c0-1,0.8-1.8,1.8-1.8h14.4c1,0,1.8,0.8,1.8,1.8l0,0
				C1098.3,132.3,1097.5,133.1,1096.5,133.1z"/>
			<path class="st0" d="M925.4,194.5h-11c-0.8,0-1.5-0.7-1.5-1.5l0,0c0-0.8,0.7-1.5,1.5-1.5h11c0.8,0,1.5,0.7,1.5,1.5l0,0
				C926.9,193.9,926.2,194.5,925.4,194.5z"/>
			<rect x="913.8" y="265.2" class="st0" width="214.3" height="1.5"/>
			<circle class="st0" cx="834.7" cy="265" r="64.3"/>
			<g>
				<g>
					<circle cx="834.7" cy="264.6" r="58.7"/>
					<circle class="st0" cx="834.7" cy="264.6" r="31.5"/>
				</g>
				<circle class="st1" cx="834.7" cy="264.6" r="38.2"/>
				<circle cx="834.7" cy="264.6" r="20.7"/>
				<circle class="st0" cx="834.7" cy="264.6" r="8.2"/>
			</g>
			<path class="st2" d="M897.6,290.1c3.2-7.8,4.9-16.4,4.9-25.4c0-37.3-30.3-67.6-67.6-67.6s-67.6,30.3-67.6,67.6
				c0,9,1.8,17.6,4.9,25.4"/>
			<circle class="st0" cx="1207.1" cy="264.6" r="67.6"/>
			<path class="st3" d="M1290.5,265.6c0-46.1-37.4-83.4-83.4-83.4c-46.1,0-83.4,37.4-83.4,83.4"/>
			<path class="st3" d="M918.3,265.6c0-46.1-37.4-83.4-83.4-83.4c-46.1,0-83.4,37.4-83.4,83.4v2.5"/>
			<g>
				<g>
					<circle cx="1207.1" cy="264.6" r="58.7"/>
					<circle class="st0" cx="1207.1" cy="264.6" r="31.3"/>
				</g>
				<circle class="st1" cx="1207.1" cy="264.6" r="38.2"/>
				<circle cx="1207.1" cy="264.6" r="20.7"/>
				<circle class="st0" cx="1207.1" cy="264.6" r="8.2"/>
			</g>
			<path d="M1271,287c3.3-7.9,5-16.7,5-25.9c0-38-30.9-68.9-68.9-68.9c-38,0-68.9,30.9-68.9,68.9c0,9.2,1.8,17.9,5,25.9"/>
		</g>
		<g>
			<rect x="1137" y="88" width="60.5" height="8.5"/>
			<path d="M1199.9,100.4c0,15.7-12.8,28.5-28.5,28.5s-28.5-12.8-28.5-28.5"/>
			<path d="M1199.6,96.5h-56.4c-0.1,0-0.1,0-0.1-0.1l0,0c0-14,11.5-25.5,25.5-25.5h5.6C1188.2,71,1199.7,82.4,1199.6,96.5
				L1199.6,96.5C1199.7,96.5,1199.7,96.5,1199.6,96.5z"/>
			<circle cx="1171.4" cy="66.5" r="7.9"/>
		</g>
		<g>
			<g>
				<polygon points="995.2,134.2 985.8,131.2 990.9,115.3 1000.4,118.2 				"/>
				<rect x="991.8" y="92" transform="matrix(0.2943 -0.9557 0.9557 0.2943 593.9579 1033.4899)" width="9.9" height="45.2"/>
			</g>
			<path d="M1090,100.4c0,15.7-12.8,28.5-28.5,28.5s-28.5-12.8-28.5-28.5"/>
			<rect x="1024.7" y="88" width="65.4" height="8.5"/>
			<path d="M1090,93.6h-56.6V79.9c0-6.5,5.3-11.9,11.9-11.9h33.5c6.1,0,11.1,5,11.1,11.1L1090,93.6L1090,93.6z"/>
			<rect x="966.4" y="69.9" transform="matrix(0.5 -0.866 0.866 0.5 427.2711 887.9653)" width="32.5" height="8"/>
		</g>
	</g>
	<g id="Group_98" transform="translate(454.743 0.034)">
		<path id="Path_118_2_" d="M887.6,319.6L887.6,319.6h-635c-2.7,0-5,2.2-5,5l0,0c0,2.7,2.2,5,5,5h635.1"/>
	</g>
	<g id="Group_103" transform="translate(0 204.265)">
		<path id="Path_119" d="M475.9,115.5H255.7c-2.6,0.1-4.8,2.2-4.8,4.9v0.2c0,2.7,2.2,4.8,4.8,4.8H476c2.7,0,4.8-2.2,4.8-4.8v-0.2
			C480.7,117.7,478.6,115.6,475.9,115.5z"/>
		<g id="Group_102" transform="translate(38.769)">
			<g id="Group_100">
				<path id="Path_120" d="M262.8,116.9c0-35.5,28.8-64.3,64.3-64.3s64.3,28.8,64.3,64.3"/>
				<g id="Group_99">
					<path id="Path_121" d="M371.6,111.7L371.6,111.7c0-2.4,2-4.4,4.4-4.4h22.7c2.4,0,4.4,2,4.4,4.4l0,0l0,0c0,2.4-2,4.4-4.4,4.4
						H376C373.6,116.1,371.6,114.2,371.6,111.7C371.6,111.7,371.6,111.7,371.6,111.7L371.6,111.7z"/>
					<path id="Path_122" d="M370.7,102.7L370.7,102.7c-0.5-2.4,1.1-4.7,3.4-5.2l22.2-4.6c2.4-0.5,4.7,1.1,5.2,3.4l0,0
						c0.5,2.4-1.1,4.7-3.4,5.2l-22.2,4.6C373.5,106.6,371.2,105.1,370.7,102.7L370.7,102.7z"/>
					<path id="Path_123" d="M368.1,94.3L368.1,94.3c-0.9-2.2,0.1-4.8,2.3-5.7l0,0l20.9-8.9c2.2-0.9,4.8,0.1,5.7,2.3l0,0l0,0
						c0.9,2.2-0.1,4.8-2.3,5.7l0,0l-20.8,9C371.7,97.6,369.1,96.6,368.1,94.3C368.2,94.4,368.1,94.3,368.1,94.3z"/>
					<path id="Path_124" d="M364,86.8L364,86.8c-1.3-2-0.8-4.7,1.2-6.1L384,68c2-1.3,4.7-0.8,6.1,1.2l0,0c1.3,2,0.8,4.7-1.2,6.1
						L370.1,88C368.1,89.3,365.4,88.8,364,86.8z"/>
					<path id="Path_125" d="M358.6,80.2L358.6,80.2c-1.7-1.7-1.7-4.5,0-6.2l16-16c1.7-1.7,4.5-1.7,6.2,0l0,0c1.7,1.7,1.7,4.5,0,6.2
						l-16,16C363.1,81.9,360.3,81.9,358.6,80.2z"/>
					<path id="Path_126" d="M352,74.7L352,74.7c-2-1.3-2.6-4.1-1.2-6.1c0,0,0,0,0-0.1l12.7-18.8c1.3-2,4.1-2.6,6.1-1.2
						c0,0,0,0,0.1,0l0,0c2,1.3,2.6,4.1,1.2,6.1c0,0,0,0,0,0.1l-12.7,18.8C356.8,75.5,354,76.1,352,74.7L352,74.7z"/>
					<path id="Path_127" d="M344.4,70.6L344.4,70.6c-2.2-0.9-3.3-3.5-2.3-5.7l0,0l8.8-20.9c0.9-2.2,3.5-3.3,5.7-2.3l0,0l0,0
						c2.2,0.9,3.3,3.5,2.3,5.7l0,0L350,68.3C349.2,70.5,346.6,71.6,344.4,70.6z"/>
					<path id="Path_128" d="M336.1,68L336.1,68c-2.4-0.5-3.9-2.8-3.4-5.2l4.5-22.2c0.5-2.4,2.8-3.9,5.2-3.4l0,0
						c2.4,0.5,3.9,2.8,3.4,5.2l-4.5,22.2C340.7,66.9,338.4,68.5,336.1,68L336.1,68z"/>
					<path id="Path_129" d="M327,67.1L327,67.1c-2.4,0-4.4-2-4.4-4.4V40c0-2.4,2-4.4,4.4-4.4l0,0c2.4,0,4.4,2,4.4,4.4v22.7
						C331.4,65.1,329.5,67.1,327,67.1L327,67.1z"/>
					<path id="Path_130" d="M318,68L318,68c-2.4,0.5-4.7-1.1-5.2-3.4l-4.6-22.2c-0.5-2.4,1.1-4.7,3.4-5.2l0,0c2.4-0.5,4.7,1,5.3,3.4
						l4.6,22.2C321.9,65.2,320.4,67.5,318,68z"/>
					<path id="Path_131" d="M309.7,70.6L309.7,70.6c-2.2,1-4.8,0-5.7-2.3l0,0l-8.9-20.9c-0.9-2.2,0.1-4.8,2.3-5.7l0,0l0,0
						c2.2-0.9,4.8,0.1,5.7,2.3l0,0l8.9,20.9C312.9,67.1,311.9,69.7,309.7,70.6z"/>
					<path id="Path_132" d="M302.1,74.7L302.1,74.7c-2,1.3-4.7,0.8-6.1-1.2l-12.7-18.8c-1.3-2-0.8-4.7,1.2-6.1l0,0
						c2-1.3,4.7-0.8,6.1,1.2l12.7,18.8C304.6,70.5,304.2,73.2,302.1,74.7C302.2,74.6,302.1,74.7,302.1,74.7z"/>
					<path id="Path_133" d="M295.5,80.2L295.5,80.2c-1.7,1.7-4.5,1.7-6.2,0l-16-16c-1.7-1.7-1.7-4.5,0-6.2l0,0
						c1.7-1.7,4.5-1.7,6.2,0l16,16C297.2,75.7,297.2,78.5,295.5,80.2L295.5,80.2z"/>
					<path id="Path_134" d="M290.1,86.8L290.1,86.8c-1.3,2-4.1,2.6-6.1,1.2c0,0,0,0-0.1,0l-18.7-12.7c-2-1.3-2.6-4.1-1.2-6.1
						c0,0,0,0,0-0.1l0,0c1.3-2,4.1-2.6,6.1-1.2c0,0,0,0,0.1,0L289,80.6C290.9,82.1,291.3,84.8,290.1,86.8z"/>
					<path id="Path_135" d="M285.9,94.3L285.9,94.3c-0.9,2.2-3.5,3.3-5.7,2.3l0,0l-20.9-8.8c-2.2-0.9-3.3-3.5-2.3-5.7l0,0l0,0
						c0.9-2.2,3.5-3.3,5.7-2.3l0,0l20.9,8.8C285.8,89.5,286.9,92.1,285.9,94.3C286,94.3,285.9,94.3,285.9,94.3L285.9,94.3z"/>
					<path id="Path_136" d="M283.4,102.7L283.4,102.7c-0.5,2.4-2.8,3.9-5.2,3.4l-22.3-4.5c-2.4-0.5-3.9-2.8-3.4-5.2l0,0
						c0.5-2.4,2.8-3.9,5.2-3.4l22.2,4.6C282.3,98,283.8,100.4,283.4,102.7L283.4,102.7z"/>
					<path id="Path_137" d="M282.4,111.7L282.4,111.7c0,2.4-2,4.4-4.4,4.4h-22.7c-2.4,0-4.4-2-4.4-4.4l0,0c0-2.4,2-4.4,4.4-4.4H278
						C280.5,107.3,282.4,109.2,282.4,111.7z"/>
				</g>
			</g>
			<g id="Group_101" transform="translate(108.383 59.436)">
				<path id="Path_138" class="st0" d="M256.6,35.6c0,1.6-1.3,2.9-2.9,2.8c-1.5,0-2.8-1.3-2.8-2.8"/>
				<path id="Path_139" class="st0" d="M268.1,35.6c0,1.6-1.3,2.9-2.9,2.8c-1.5,0-2.8-1.3-2.8-2.8"/>
			</g>
		</g>
	</g>
	<g id="Group_111" transform="translate(252.972 62.551)">
		<path id="Path_140" d="M418.8,256.7h-168c-2.9,0-5.2,2.3-5.2,5.2l0,0l0,0c0,2.9,2.3,5.2,5.2,5.2l0,0h168c2.9,0,5.2-2.3,5.2-5.2
			l0,0C424,259,421.7,256.7,418.8,256.7L418.8,256.7z"/>
		<g id="Group_110" transform="translate(4.299)">
			<g id="Group_105" transform="translate(37.733)">
				<path id="Path_141" d="M245.7,71.7c0,15.9,12.9,28.8,28.7,28.8c15.9,0,28.8-12.9,28.8-28.7l0,0"/>
				<g id="Group_104">
					<rect id="Rectangle_38" x="245.6" y="55.8" width="66" height="8.5"/>
					<path id="Path_142" d="M245.7,61.3h57V47.6c0-6.6-5.4-12-12-12h-33.8c-6.3,0-11.3,5-11.3,11.3L245.7,61.3L245.7,61.3z"/>
				</g>
			</g>
			<path id="Path_143" d="M343.7,177h-59.3c-3.9,0-7.1-3.2-7.1-7.1v-23.2c0-19.9,16.2-36.1,36.1-36.1l0,0l0,0
				c20.5,0.1,37.2,16.7,37.2,37.2v22.1C350.6,173.8,347.6,176.9,343.7,177C343.8,177,343.7,177,343.7,177L343.7,177z"/>
			<path id="Path_144" d="M261,90.8l35.4,29.9l-12.1,14.4l-35.4-30c-3.9-3.3-4.4-9.2-1.1-13.2l0,0l0,0C251.2,88,257.1,87.5,261,90.8
				L261,90.8z"/>
			<rect id="Rectangle_39" x="360.6" y="184.2" width="35.3" height="58.7"/>
			<rect id="Rectangle_40" x="394.4" y="189.9" width="7.1" height="47.4"/>
			<rect id="Rectangle_41" x="354" y="223.7" class="st0" width="48.2" height="7.1"/>
			<rect id="Rectangle_42" x="360.6" y="141.3" width="5.4" height="50.1"/>
			<circle id="Ellipse_14" cx="367.9" cy="250.3" r="7.4"/>
			<circle id="Ellipse_15" class="st0" cx="367.9" cy="250.3" r="2.9"/>
			<g id="Group_106" transform="translate(24.992 68.215)">
				<path id="Path_145" d="M259.5,112.2c-5.7,0-10.4-4.7-10.4-10.4l0,0V78.6c0-21.9,17.7-39.6,39.5-39.6c22.4,0,40.5,18.2,40.6,40.6
					v22.1c0,5.7-4.7,10.4-10.4,10.4l0,0L259.5,112.2L259.5,112.2z"/>
				<path id="Path_146" class="st0" d="M288.6,42.4c20.5,0,37.1,16.6,37.2,37.2v22.1c0,3.9-3.2,7.1-7.1,7.1h-59.3
					c-3.9,0-7.1-3.2-7.1-7.1V78.5C252.4,58.5,268.6,42.4,288.6,42.4 M288.6,35.6c-23.8,0-43,19.2-43,43v23.2
					c0,7.6,6.2,13.8,13.8,13.8h59.3c7.6,0,13.8-6.2,13.8-13.8V79.7c0.1-24.3-19.5-44-43.8-44.1C288.6,35.6,288.6,35.6,288.6,35.6
					L288.6,35.6z"/>
			</g>
			<path id="Path_147" d="M329.3,118h-30.4c-3.1,0-5.6-2.5-5.6-5.5l0,0l0,0c0-3.1,2.5-5.6,5.5-5.6l0,0h30.5c3.1,0,5.6,2.5,5.6,5.5
				l0,0l0,0C334.9,115.5,332.5,118,329.3,118C329.4,118,329.3,118,329.3,118z"/>
			<g id="Group_109" transform="translate(47.911 134.1)">
				<g id="Group_107">
					<rect id="Rectangle_43" x="245.6" y="35.6" width="17" height="91.9"/>
					<path id="Path_148" d="M261,125.8h-3.1c-3.1,0-5.6-2.5-5.6-5.5l0,0l0,0c0-3.1,2.5-5.6,5.5-5.6l0,0h3.1c3.1,0,5.6,2.5,5.6,5.5
						l0,0l0,0C266.5,123.3,264.1,125.8,261,125.8z"/>
				</g>
				<g id="Group_108" transform="translate(25.173)">
					<rect id="Rectangle_44" x="245.6" y="35.6" width="17" height="91.9"/>
					<path id="Path_149" d="M261.1,125.8H258c-3.1,0-5.6-2.5-5.6-5.5l0,0l0,0c0-3.1,2.5-5.6,5.5-5.6l0,0h3.1c3.1,0,5.6,2.5,5.6,5.5
						l0,0l0,0C266.7,123.3,264.3,125.8,261.1,125.8C261.2,125.8,261.2,125.8,261.1,125.8z"/>
				</g>
			</g>
			<path id="Path_150" d="M360.8,152.3h-21.1v-18.8h21.1c5.2,0,9.4,4.2,9.4,9.4l0,0l0,0C370.2,148.1,366,152.3,360.8,152.3
				L360.8,152.3L360.8,152.3z"/>
		</g>
	</g>
	<g>
		<defs>
			<rect id="SVGID_1_" x="-0.9" y="9.6" width="327.2" height="346.5"/>
		</defs>
		<clipPath id="SVGID_2_">
			<use xlink:href="#SVGID_1_"  style="overflow:visible;"/>
		</clipPath>
		<g class="st4">
			<path d="M110.2,266.4H-95.9c-65.4,0-118.9-53.5-118.9-118.9v0c0-65.4,53.5-118.9,118.9-118.9h206.1
				c65.4,0,118.9,53.5,118.9,118.9v0C229.1,212.9,175.6,266.4,110.2,266.4z"/>
			<g>
				<path d="M-65.4,321.2h-86V215.4c0-14.1,11.5-25.6,25.6-25.6H-91c14.1,0,25.6,11.5,25.6,25.6V321.2z"/>
				<path d="M-3.3,321.2h-53.9V210.1c0-11.1,9.1-20.2,20.2-20.2h13.4c11.1,0,20.2,9.1,20.2,20.2V321.2z"/>
				<path d="M103.7,321.2h-86V215.4c0-14.1,11.5-25.6,25.6-25.6h34.9c14.1,0,25.6,11.5,25.6,25.6V321.2z"/>
				<path d="M165.8,321.2h-53.9V210.1c0-11.1,9.1-20.2,20.2-20.2h13.4c11.1,0,20.2,9.1,20.2,20.2V321.2z"/>
			</g>
			<path d="M217.1,257.8L217.1,257.8c-42.8,0-77.9-35-77.9-77.9v-4.3c0-42.8,35-77.9,77.9-77.9h0c42.8,0,77.9,35,77.9,77.9v4.3
				c0,6.5-0.8,12.9-2.3,18.9l0,0c-2.5,10-7,19.2-13,27.3C265.5,245.3,242.7,257.8,217.1,257.8z"/>
			<g>
				<path d="M275.2,136.1L275.2,136.1c-15.2,0-27.6-12.4-27.6-27.6v0c0-15.2,12.4-27.6,27.6-27.6h0c15.2,0,27.6,12.4,27.6,27.6v0
					C302.8,123.7,290.4,136.1,275.2,136.1z"/>
				<path class="st0" d="M262,108.5L262,108.5c0-7.3,6-13.2,13.2-13.2h0c7.3,0,13.2,6,13.2,13.2v0"/>
			</g>
			<g>
				<path d="M-202.8,98.1L-202.8,98.1c-15.2,0-27.6-12.4-27.6-27.6v0c0-15.2,12.4-27.6,27.6-27.6h0c15.2,0,27.6,12.4,27.6,27.6v0
					C-175.2,85.7-187.6,98.1-202.8,98.1z"/>
			</g>
			<g>
				<path class="st0" d="M264.3,152.5c0,1.8-1.5,3.3-3.3,3.3c-1.8,0-3.3-1.5-3.3-3.3"/>
				<path class="st0" d="M277.4,152.5c0,1.8-1.5,3.3-3.3,3.3s-3.3-1.5-3.3-3.3"/>
			</g>
			<path d="M313.4,169.1c0-0.1,0-0.2,0-0.3c0-6.8-5.3-12.4-12-13h-181c0,0,0,0,0,0v5.3c0,53.2,43.5,96.7,96.7,96.7h0
				c31.7,0,60.1-15.5,77.7-39.3c7.4-10,13-21.5,16.1-33.9C312.2,179.6,313.4,169.1,313.4,169.1z"/>
			<g>
				<path class="st0" d="M255.2,246.6l-39.1-57.3c-5.2-7.7-3.2-18.2,4.4-23.5l0,0c7.7-5.2,18.2-3.2,23.5,4.4l39.1,57.3
					c5.2,7.7,3.2,18.2-4.4,23.5l0,0C271,256.3,260.4,254.3,255.2,246.6z"/>
				<g>
					<circle cx="247.5" cy="175.3" r="4.7"/>
					<circle cx="256.2" cy="188" r="4.7"/>
					<circle cx="264.9" cy="200.7" r="4.7"/>
					<circle cx="273.6" cy="213.4" r="4.7"/>
					<circle cx="282.2" cy="226.2" r="4.7"/>
				</g>
				<g>
					<circle cx="219.7" cy="194.3" r="4.7"/>
					<circle cx="228.3" cy="207" r="4.7"/>
					<circle cx="237" cy="219.7" r="4.7"/>
					<circle cx="245.7" cy="232.5" r="4.7"/>
					<circle cx="254.4" cy="245.2" r="4.7"/>
				</g>
			</g>
			<path class="st5" d="M279.4,264c0-22.8-18.5-41.3-41.3-41.3h-21.4"/>
			<path d="M292.6,198.8"/>
			<g>
				<path d="M161.4,136.1L161.4,136.1c-15.2,0-27.6-12.4-27.6-27.6v0c0-15.2,12.4-27.6,27.6-27.6h0c15.2,0,27.6,12.4,27.6,27.6v0
					C189,123.7,176.6,136.1,161.4,136.1z"/>
				<path class="st0" d="M148.1,108.5L148.1,108.5c0-7.3,6-13.2,13.2-13.2h0c7.3,0,13.2,6,13.2,13.2v0"/>
			</g>
		</g>
	</g>
	<g id="Group_98_1_" transform="translate(454.743 0.034)">
		<path id="Path_118_3_" d="M-454.9,329.7h215.7c2.7,0,5-2.2,5-5l0,0c-0.1-2.7-2.3-5-5.1-5l0,0h-215.6"/>
	</g>
</g>
<g id="Layer_2">
</g>
</svg>
