<svg xmlns="http://www.w3.org/2000/svg" viewBox="0 0 1343 345.51">
  <defs>
    <style>
      .cls-1 {
        fill: #e6e7e8;
      }

      .cls-2, .cls-3, .cls-4 {
        fill: none;
      }

      .cls-2, .cls-4, .cls-5 {
        stroke: #e6e7e8;
      }

      .cls-2, .cls-3, .cls-4, .cls-5 {
        stroke-miterlimit: 10;
      }

      .cls-2 {
        stroke-width: 3.398px;
      }

      .cls-3 {
        stroke: #000;
      }

      .cls-3, .cls-5 {
        stroke-linecap: round;
        stroke-width: 9.466px;
      }

      .cls-4 {
        stroke-width: 11.07px;
      }
    </style>
  </defs>
  <g id="Group_395" data-name="Group 395" transform="translate(-289 -223)">
    <rect id="Rectangle_104" data-name="Rectangle 104" class="cls-1" width="1343" height="345.51" transform="translate(289 223)"/>
    <g id="dd01" transform="translate(388.022 248.62)">
      <g id="Group_98" data-name="Group 98" transform="translate(454.743 0.034)">
        <g id="Group_97" data-name="Group 97" transform="translate(52.671)">
          <g id="Group_93" data-name="Group 93" transform="translate(0)">
            <path id="Path_92" data-name="Path 92" d="M1207.982,265.361H689.918A14.225,14.225,0,0,1,675.7,251.143h0c0-74.431,43.353-135.343,200.606-135.343h210.629a135.349,135.349,0,0,1,135.343,135.335v.008A14.291,14.291,0,0,1,1207.982,265.361Z" transform="translate(-658.136 -25.857)"/>
            <g id="Group_85" data-name="Group 85" transform="translate(162.23 131.432)">
              <path id="Path_93" data-name="Path 93" class="cls-1" d="M862.832,191.42h0a.945.945,0,0,1-.932-.932V170.132a.945.945,0,0,1,.932-.932h0a.945.945,0,0,1,.932.932v20.356a1,1,0,0,1-.932.932Z" transform="translate(-861.9 -169.2)"/>
              <path id="Path_94" data-name="Path 94" class="cls-1" d="M869.532,191.42h0a.945.945,0,0,1-.932-.932V170.132a.945.945,0,0,1,.932-.932h0a.945.945,0,0,1,.932.932v20.356A.945.945,0,0,1,869.532,191.42Z" transform="translate(-863.394 -169.2)"/>
              <path id="Path_95" data-name="Path 95" class="cls-1" d="M876.332,191.42h0a.945.945,0,0,1-.932-.932V170.132a.945.945,0,0,1,.932-.932h0a.945.945,0,0,1,.932.932v20.356A.945.945,0,0,1,876.332,191.42Z" transform="translate(-864.911 -169.2)"/>
              <path id="Path_96" data-name="Path 96" class="cls-1" d="M883.132,191.42h0a.945.945,0,0,1-.932-.932V170.132a.945.945,0,0,1,.932-.932h0a.945.945,0,0,1,.932.932v20.356a1,1,0,0,1-.932.932Z" transform="translate(-866.428 -169.2)"/>
              <path id="Path_97" data-name="Path 97" class="cls-1" d="M889.932,191.42h0a.945.945,0,0,1-.932-.932V170.132a.945.945,0,0,1,.932-.932h0a.945.945,0,0,1,.932.932v20.356a1.072,1.072,0,0,1-.932.932Z" transform="translate(-867.945 -169.2)"/>
              <path id="Path_98" data-name="Path 98" class="cls-1" d="M896.632,191.42h0a.945.945,0,0,1-.932-.932V170.132a.945.945,0,0,1,.932-.932h0a.945.945,0,0,1,.932.932v20.356A.945.945,0,0,1,896.632,191.42Z" transform="translate(-869.439 -169.2)"/>
            </g>
            <rect id="Rectangle_24" data-name="Rectangle 24" width="16.86" height="29.135" transform="translate(553.802 226.531) rotate(-90)"/>
            <rect id="Rectangle_25" data-name="Rectangle 25" width="7.925" height="38.303" transform="translate(544.623 239.512) rotate(-90)"/>
            <rect id="Rectangle_26" data-name="Rectangle 26" width="5.361" height="26.494" transform="translate(560.179 211.301)"/>
            <rect id="Rectangle_27" data-name="Rectangle 27" width="16.86" height="29.135" transform="translate(0.006 226.46) rotate(-90)"/>
            <rect id="Rectangle_28" data-name="Rectangle 28" width="7.925" height="38.303" transform="translate(0 239.524) rotate(-90)"/>
            <rect id="Rectangle_29" data-name="Rectangle 29" width="5.361" height="26.494" transform="translate(22.722 237.818) rotate(180)"/>
            <g id="Group_86" data-name="Group 86" transform="translate(0.394 156.604)">
              <path id="Path_99" data-name="Path 99" d="M666,201.6a17.481,17.481,0,0,1,0,34.962" transform="translate(-656.366 -201.6)"/>
              <rect id="Rectangle_30" data-name="Rectangle 30" width="6.449" height="34.418" transform="translate(0 0.233)"/>
            </g>
            <g id="Group_87" data-name="Group 87" transform="translate(554.041 172.765)">
              <path id="Path_100" data-name="Path 100" d="M1375.6,241.2a9.4,9.4,0,0,1,0-18.8" transform="translate(-1366.2 -222.4)"/>
              <rect id="Rectangle_31" data-name="Rectangle 31" width="3.496" height="18.491" transform="translate(14.545 18.613) rotate(180)"/>
            </g>
            <g id="Group_88" data-name="Group 88" transform="translate(548.836 154.507)">
              <path id="Path_101" data-name="Path 101" d="M1368.9,217.7a9.4,9.4,0,0,1,0-18.8" transform="translate(-1359.5 -198.9)"/>
              <rect id="Rectangle_32" data-name="Rectangle 32" width="3.496" height="18.491" transform="translate(14.596 18.689) rotate(180)"/>
            </g>
            <path id="Path_102" data-name="Path 102" d="M1234.919,124.706S1265.608-7.762,1020.716.4C964,2.261,936.574,23.937,934.165,63.561,933.388,81.509,933,92.308,933,92.308s75.13,1.165,76.839.622Z" transform="translate(-715.529 -0.034)"/>
            <path id="Path_103" data-name="Path 103" class="cls-1" d="M1065.607,244.816H945.8a17.424,17.424,0,0,1-17.4-17.4V94.711h4.2V227.49A13.2,13.2,0,0,0,945.8,240.7h119.8a13.2,13.2,0,0,0,13.208-13.208V94.4h4.2V227.49a17.408,17.408,0,0,1-17.4,17.326Z" transform="translate(-714.503 -21.083)"/>
            <path id="Path_104" data-name="Path 104" class="cls-1" d="M1087.5,97.465H956.044a.531.531,0,0,1-.544-.544V73.691A39.492,39.492,0,0,1,994.891,34.3h58.659a35.351,35.351,0,0,1,35.273,35.273V96.067a1.329,1.329,0,0,1-1.321,1.4Z" transform="translate(-720.548 -7.678)"/>
            <path id="Path_105" data-name="Path 105" class="cls-1" d="M1229.059,98.491H1156.57a7.1,7.1,0,0,1-7.07-7.07V52.574A13.7,13.7,0,0,1,1163.174,38.9h19.19a53.086,53.086,0,0,1,53.065,53.065h0a6.338,6.338,0,0,1-6.371,6.526Z" transform="translate(-763.822 -8.704)"/>
            <path id="Path_106" data-name="Path 106" class="cls-1" d="M1105.772,136.519h-14.062a1.725,1.725,0,0,1-1.709-1.709h0a1.725,1.725,0,0,1,1.709-1.709h14.063a1.725,1.725,0,0,1,1.709,1.709h0a1.675,1.675,0,0,1-1.709,1.709Z" transform="translate(-750.549 -29.716)"/>
            <path id="Path_107" data-name="Path 107" class="cls-1" d="M1105.772,128.219h-14.062a1.725,1.725,0,0,1-1.709-1.709h0a1.725,1.725,0,0,1,1.709-1.709h14.063a1.725,1.725,0,0,1,1.709,1.709h0a1.675,1.675,0,0,1-1.709,1.709Z" transform="translate(-750.549 -27.865)"/>
            <path id="Path_108" data-name="Path 108" class="cls-1" d="M892.7,205.252H881.976a1.528,1.528,0,0,1-1.476-1.476h0a1.528,1.528,0,0,1,1.476-1.476H892.7a1.528,1.528,0,0,1,1.476,1.476h0a1.528,1.528,0,0,1-1.476,1.476Z" transform="translate(-703.818 -45.152)"/>
            <rect id="Rectangle_33" data-name="Rectangle 33" class="cls-1" width="208.375" height="1.476" transform="translate(177.614 228.782)"/>
            <circle id="Ellipse_1" data-name="Ellipse 1" class="cls-1" cx="62.466" cy="62.466" r="62.466" transform="translate(38.231 166.083)"/>
            <g id="Group_90" data-name="Group 90" transform="translate(43.592 171.133)">
              <g id="Group_89" data-name="Group 89">
                <circle id="Ellipse_2" data-name="Ellipse 2" cx="57.105" cy="57.105" r="57.105"/>
                <circle id="Ellipse_3" data-name="Ellipse 3" class="cls-1" cx="30.611" cy="30.611" r="30.611" transform="translate(26.494 26.494)"/>
              </g>
              <circle id="Ellipse_4" data-name="Ellipse 4" class="cls-2" cx="37.138" cy="37.138" r="37.138" transform="translate(19.967 19.967)"/>
              <circle id="Ellipse_5" data-name="Ellipse 5" cx="20.045" cy="20.045" r="20.045" transform="translate(37.06 37.06)"/>
              <circle id="Ellipse_6" data-name="Ellipse 6" class="cls-1" cx="8.002" cy="8.002" r="8.002" transform="translate(49.103 49.103)"/>
            </g>
            <path id="Path_109" data-name="Path 109" class="cls-3" d="M825.04,299.638a65.729,65.729,0,1,0-121.824,0" transform="translate(-663.198 -46.693)"/>
            <circle id="Ellipse_7" data-name="Ellipse 7" class="cls-1" cx="65.729" cy="65.729" r="65.729" transform="translate(397.022 162.509)"/>
            <path id="Path_110" data-name="Path 110" class="cls-4" d="M1306.525,271.712a81.113,81.113,0,0,0-162.225,0" transform="translate(-762.662 -42.542)"/>
            <path id="Path_111" data-name="Path 111" class="cls-4" d="M840.825,271.712a81.112,81.112,0,1,0-162.225,0v2.409" transform="translate(-658.783 -42.542)"/>
            <g id="Group_92" data-name="Group 92" transform="translate(405.646 171.133)">
              <g id="Group_91" data-name="Group 91">
                <circle id="Ellipse_8" data-name="Ellipse 8" cx="57.105" cy="57.105" r="57.105"/>
                <circle id="Ellipse_9" data-name="Ellipse 9" class="cls-1" cx="30.456" cy="30.456" r="30.456" transform="translate(26.649 26.649)"/>
              </g>
              <circle id="Ellipse_10" data-name="Ellipse 10" class="cls-2" cx="37.138" cy="37.138" r="37.138" transform="translate(19.967 19.967)"/>
              <circle id="Ellipse_11" data-name="Ellipse 11" cx="20.045" cy="20.045" r="20.045" transform="translate(37.06 37.06)"/>
              <circle id="Ellipse_12" data-name="Ellipse 12" class="cls-1" cx="8.002" cy="8.002" r="8.002" transform="translate(49.103 49.103)"/>
            </g>
            <path id="Path_112" data-name="Path 112" class="cls-5" d="M1290.74,299.638a65.729,65.729,0,1,0-121.824,0" transform="translate(-767.077 -46.693)"/>
          </g>
          <g id="Group_94" data-name="Group 94" transform="translate(394.613 27.866)">
            <rect id="Rectangle_34" data-name="Rectangle 34" width="58.814" height="8.236" transform="translate(0 28.669)"/>
            <path id="Path_113" data-name="Path 113" d="M1223.773,88.2a27.737,27.737,0,1,1-55.473,0" transform="translate(-1162.628 -47.566)"/>
            <path id="Path_114" data-name="Path 114" d="M1223.552,76.262h-54.774a.078.078,0,0,1-.078-.078h0A24.852,24.852,0,0,1,1193.484,51.4h5.439a24.852,24.852,0,0,1,24.784,24.784h0C1223.707,76.262,1223.63,76.262,1223.552,76.262Z" transform="translate(-1162.718 -39.357)"/>
            <circle id="Ellipse_13" data-name="Ellipse 13" cx="7.692" cy="7.692" r="7.692" transform="translate(25.794)"/>
          </g>
          <g id="Group_96" data-name="Group 96" transform="translate(233.294 27.193)">
            <g id="Group_95" data-name="Group 95" transform="translate(2.635 44.074)">
              <path id="Path_115" data-name="Path 115" d="M980.945,125.236l-9.246-2.8,5.05-15.539,9.168,2.8Z" transform="translate(-960.091 -95.138)"/>
              <rect id="Rectangle_35" data-name="Rectangle 35" width="9.634" height="43.975" transform="translate(0 9.207) rotate(-72.884)"/>
            </g>
            <path id="Path_116" data-name="Path 116" d="M1086.273,88.2a27.737,27.737,0,0,1-55.474,0" transform="translate(-970.638 -46.893)"/>
            <rect id="Rectangle_36" data-name="Rectangle 36" width="63.554" height="8.236" transform="translate(52.081 29.342)"/>
            <path id="Path_117" data-name="Path 117" d="M1086.407,72.562H1031.4V59.276A11.605,11.605,0,0,1,1042.976,47.7h32.631a10.826,10.826,0,0,1,10.8,10.8Z" transform="translate(-970.772 -37.859)"/>
            <rect id="Rectangle_37" data-name="Rectangle 37" width="7.692" height="31.621" transform="matrix(0.866, 0.5, -0.5, 0.866, 15.811, 0)"/>
          </g>
        </g>
        <path id="Path_118" data-name="Path 118" d="M1268.541,365.6H590.272a5.007,5.007,0,0,0-4.972,4.972h0a5.007,5.007,0,0,0,4.972,4.972h678.268a5.007,5.007,0,0,0,4.972-4.972h0a5.007,5.007,0,0,0-4.972-4.972Z" transform="translate(-585.3 -81.577)"/>
      </g>
      <g id="Group_103" data-name="Group 103" transform="translate(0 204.265)">
        <path id="Path_119" data-name="Path 119" d="M225,365.8H4.817A4.841,4.841,0,0,0,0,370.617v.233a4.841,4.841,0,0,0,4.817,4.817H225.079a4.841,4.841,0,0,0,4.817-4.817v-.233A4.961,4.961,0,0,0,225,365.8Z" transform="translate(0 -285.853)"/>
        <g id="Group_102" data-name="Group 102" transform="translate(38.769)">
          <g id="Group_100" data-name="Group 100">
            <path id="Path_120" data-name="Path 120" d="M65.2,349.153a64.253,64.253,0,0,1,128.506,0" transform="translate(-53.313 -267.807)"/>
            <g id="Group_99" data-name="Group 99">
              <path id="Path_121" data-name="Path 121" d="M205.3,359.529h0a4.429,4.429,0,0,1,4.429-4.429h22.687a4.428,4.428,0,0,1,4.429,4.429h0a4.429,4.429,0,0,1-4.429,4.429H209.728a4.378,4.378,0,0,1-4.429-4.429Z" transform="translate(-84.563 -283.466)"/>
              <path id="Path_122" data-name="Path 122" d="M204.077,346.467h0a4.476,4.476,0,0,1,3.419-5.206l22.22-4.584a4.476,4.476,0,0,1,5.206,3.419h0A4.476,4.476,0,0,1,231.5,345.3l-22.22,4.584a4.436,4.436,0,0,1-5.206-3.419Z" transform="translate(-84.273 -279.339)"/>
              <path id="Path_123" data-name="Path 123" d="M200.7,334.205h0a4.367,4.367,0,0,1,2.331-5.749l20.9-8.857a4.367,4.367,0,0,1,5.749,2.331h0a4.367,4.367,0,0,1-2.331,5.749l-20.9,8.857a4.367,4.367,0,0,1-5.749-2.331Z" transform="translate(-83.459 -275.469)"/>
              <path id="Path_124" data-name="Path 124" d="M195.285,323.187h0a4.466,4.466,0,0,1,1.165-6.138l18.8-12.664a4.466,4.466,0,0,1,6.138,1.165h0a4.466,4.466,0,0,1-1.165,6.138l-18.8,12.664a4.452,4.452,0,0,1-6.138-1.165Z" transform="translate(-82.163 -271.987)"/>
              <path id="Path_125" data-name="Path 125" d="M188.132,313.552h0a4.408,4.408,0,0,1,0-6.216l16-16a4.408,4.408,0,0,1,6.216,0h0a4.408,4.408,0,0,1,0,6.215l-16,16A4.408,4.408,0,0,1,188.132,313.552Z" transform="translate(-80.448 -268.956)"/>
              <path id="Path_126" data-name="Path 126" d="M179.442,305.481h0a4.383,4.383,0,0,1-1.165-6.138l12.664-18.8a4.383,4.383,0,0,1,6.138-1.165h0a4.383,4.383,0,0,1,1.165,6.138l-12.664,18.8a4.408,4.408,0,0,1-6.138,1.165Z" transform="translate(-78.362 -266.401)"/>
              <path id="Path_127" data-name="Path 127" d="M169.43,299.579h0a4.367,4.367,0,0,1-2.331-5.749l8.857-20.9a4.367,4.367,0,0,1,5.749-2.331h0a4.367,4.367,0,0,1,2.331,5.749l-8.857,20.9a4.432,4.432,0,0,1-5.749,2.331Z" transform="translate(-75.964 -264.539)"/>
              <path id="Path_128" data-name="Path 128" d="M158.494,295.72h0a4.436,4.436,0,0,1-3.419-5.206l4.584-22.221a4.436,4.436,0,0,1,5.206-3.418h0a4.436,4.436,0,0,1,3.419,5.206L163.7,292.3a4.455,4.455,0,0,1-5.205,3.419Z" transform="translate(-73.341 -263.321)"/>
              <path id="Path_129" data-name="Path 129" d="M146.629,294.444h0a4.429,4.429,0,0,1-4.429-4.429V267.329a4.429,4.429,0,0,1,4.429-4.429h0a4.429,4.429,0,0,1,4.429,4.428v22.687a4.53,4.53,0,0,1-4.429,4.429Z" transform="translate(-70.488 -262.9)"/>
              <path id="Path_130" data-name="Path 130" d="M133.466,295.722h0a4.476,4.476,0,0,1-5.205-3.419l-4.584-22.22a4.476,4.476,0,0,1,3.419-5.205h0A4.476,4.476,0,0,1,132.3,268.3l4.584,22.22A4.436,4.436,0,0,1,133.466,295.722Z" transform="translate(-66.339 -263.323)"/>
              <path id="Path_131" data-name="Path 131" d="M121.305,299.579h0a4.367,4.367,0,0,1-5.749-2.331l-8.857-20.9a4.367,4.367,0,0,1,2.331-5.749h0a4.367,4.367,0,0,1,5.749,2.331l8.857,20.9A4.488,4.488,0,0,1,121.305,299.579Z" transform="translate(-62.491 -264.539)"/>
              <path id="Path_132" data-name="Path 132" d="M110.187,305.49h0a4.466,4.466,0,0,1-6.138-1.165l-12.664-18.8a4.466,4.466,0,0,1,1.165-6.138h0a4.466,4.466,0,0,1,6.138,1.165l12.664,18.8a4.369,4.369,0,0,1-1.165,6.138Z" transform="translate(-58.987 -266.41)"/>
              <path id="Path_133" data-name="Path 133" d="M100.552,313.552h0a4.408,4.408,0,0,1-6.216,0l-16-16a4.408,4.408,0,0,1,0-6.215h0a4.408,4.408,0,0,1,6.216,0l16,16a4.408,4.408,0,0,1,0,6.216Z" transform="translate(-55.956 -268.956)"/>
              <path id="Path_134" data-name="Path 134" d="M92.6,323.178h0a4.383,4.383,0,0,1-6.138,1.165L67.742,311.679a4.383,4.383,0,0,1-1.165-6.138h0a4.383,4.383,0,0,1,6.138-1.165l18.8,12.664A4.6,4.6,0,0,1,92.6,323.178Z" transform="translate(-53.446 -271.978)"/>
              <path id="Path_135" data-name="Path 135" d="M86.579,334.205h0a4.367,4.367,0,0,1-5.749,2.331l-20.9-8.857A4.367,4.367,0,0,1,57.6,321.93h0a4.367,4.367,0,0,1,5.749-2.331l20.9,8.857a4.367,4.367,0,0,1,2.331,5.749Z" transform="translate(-51.539 -275.469)"/>
              <path id="Path_136" data-name="Path 136" d="M82.82,346.465h0a4.436,4.436,0,0,1-5.206,3.419L55.394,345.3a4.435,4.435,0,0,1-3.419-5.205h0a4.435,4.435,0,0,1,5.205-3.419l22.22,4.584a4.436,4.436,0,0,1,3.419,5.205Z" transform="translate(-50.344 -279.337)"/>
              <path id="Path_137" data-name="Path 137" d="M81.444,359.529h0a4.429,4.429,0,0,1-4.429,4.429H54.329a4.429,4.429,0,0,1-4.429-4.429h0a4.429,4.429,0,0,1,4.429-4.429H77.015A4.477,4.477,0,0,1,81.444,359.529Z" transform="translate(-49.9 -283.466)"/>
            </g>
          </g>
          <g id="Group_101" data-name="Group 101" transform="translate(108.383 59.436)">
            <path id="Path_138" data-name="Path 138" class="cls-1" d="M195.149,339.4a2.875,2.875,0,0,1-5.749,0" transform="translate(-189.4 -339.4)"/>
            <path id="Path_139" data-name="Path 139" class="cls-1" d="M209.849,339.4a2.875,2.875,0,0,1-5.749,0" transform="translate(-192.679 -339.4)"/>
          </g>
        </g>
      </g>
      <g id="Group_111" data-name="Group 111" transform="translate(252.972 62.551)">
        <path id="Path_140" data-name="Path 140" d="M498.78,365.1H330.805a5.205,5.205,0,0,0-5.205,5.206h0a5.205,5.205,0,0,0,5.205,5.206H498.78a5.206,5.206,0,0,0,5.206-5.205h0A5.206,5.206,0,0,0,498.78,365.1Z" transform="translate(-325.6 -143.983)"/>
        <g id="Group_110" data-name="Group 110" transform="translate(4.299)">
          <g id="Group_105" data-name="Group 105" transform="translate(37.733)">
            <path id="Path_141" data-name="Path 141" d="M379.8,127a28.747,28.747,0,1,0,57.494,0" transform="translate(-379.722 -90.872)"/>
            <g id="Group_104" data-name="Group 104">
              <rect id="Rectangle_38" data-name="Rectangle 38" width="65.962" height="8.546" transform="translate(65.998 28.75) rotate(180)"/>
              <path id="Path_142" data-name="Path 142" d="M379.778,106.217h57.027V92.465A11.97,11.97,0,0,0,424.84,80.5H390.966A11.273,11.273,0,0,0,379.7,91.766v14.451Z" transform="translate(-379.7 -80.5)"/>
            </g>
          </g>
          <path id="Path_143" data-name="Path 143" d="M438.351,243.428H379.07a7.1,7.1,0,0,1-7.07-7.07v-23.23A36.109,36.109,0,0,1,408.128,177h0a37.319,37.319,0,0,1,37.215,37.215v22.143a6.98,6.98,0,0,1-6.992,7.07Z" transform="translate(-340.249 -102.025)"/>
          <path id="Path_144" data-name="Path 144" d="M346.568,150.969l35.351,29.912-12.12,14.3-35.351-29.912a9.361,9.361,0,0,1-1.088-13.208h0a9.433,9.433,0,0,1,13.208-1.088Z" transform="translate(-331.133 -95.728)"/>
          <rect id="Rectangle_39" data-name="Rectangle 39" width="35.273" height="58.737" transform="translate(114.961 148.629)"/>
          <rect id="Rectangle_40" data-name="Rectangle 40" width="7.07" height="47.393" transform="translate(148.836 154.3)"/>
          <rect id="Rectangle_41" data-name="Rectangle 41" class="cls-1" width="7.07" height="48.248" transform="translate(108.45 195.165) rotate(-90)"/>
          <rect id="Rectangle_42" data-name="Rectangle 42" width="5.361" height="50.113" transform="translate(114.961 105.664)"/>
          <circle id="Ellipse_14" data-name="Ellipse 14" cx="7.381" cy="7.381" r="7.381" transform="translate(114.961 207.365)"/>
          <circle id="Ellipse_15" data-name="Ellipse 15" class="cls-1" cx="2.875" cy="2.875" r="2.875" transform="translate(119.467 211.871)"/>
          <g id="Group_106" data-name="Group 106" transform="translate(24.992 68.215)">
            <path id="Path_145" data-name="Path 145" d="M378.211,245.888A10.411,10.411,0,0,1,367.8,235.477v-23.23A39.557,39.557,0,0,1,407.346,172.7,40.586,40.586,0,0,1,447.9,213.256V235.4a10.411,10.411,0,0,1-10.411,10.411h-59.28Z" transform="translate(-364.304 -169.281)"/>
            <path id="Path_146" data-name="Path 146" class="cls-1" d="M406.265,175.059a37.319,37.319,0,0,1,37.215,37.215v22.143a7.1,7.1,0,0,1-7.07,7.07H377.13a7.1,7.1,0,0,1-7.07-7.07v-23.23a36.275,36.275,0,0,1,36.205-36.128m0-6.759A43.006,43.006,0,0,0,363.3,211.265V234.5a13.86,13.86,0,0,0,13.829,13.829H436.41A13.86,13.86,0,0,0,450.24,234.5V212.352A43.951,43.951,0,0,0,406.265,168.3Z" transform="translate(-363.3 -168.3)"/>
          </g>
          <path id="Path_147" data-name="Path 147" d="M428.55,183.388H398.094a5.571,5.571,0,0,1-5.594-5.594h0a5.571,5.571,0,0,1,5.594-5.594H428.55a5.571,5.571,0,0,1,5.594,5.594h0a5.571,5.571,0,0,1-5.594,5.594Z" transform="translate(-344.822 -100.955)"/>
          <g id="Group_109" data-name="Group 109" transform="translate(47.911 134.1)">
            <g id="Group_107" data-name="Group 107">
              <rect id="Rectangle_43" data-name="Rectangle 43" width="17.015" height="91.912"/>
              <path id="Path_148" data-name="Path 148" d="M410.1,365.988h-3.108a5.571,5.571,0,0,1-5.594-5.594h0a5.571,5.571,0,0,1,5.594-5.594H410.1a5.571,5.571,0,0,1,5.594,5.594h0A5.672,5.672,0,0,1,410.1,365.988Z" transform="translate(-394.718 -275.785)"/>
            </g>
            <g id="Group_108" data-name="Group 108" transform="translate(25.173)">
              <rect id="Rectangle_44" data-name="Rectangle 44" width="17.015" height="91.912"/>
              <path id="Path_149" data-name="Path 149" d="M442.7,365.988h-3.108A5.571,5.571,0,0,1,434,360.394h0a5.571,5.571,0,0,1,5.594-5.594H442.7a5.571,5.571,0,0,1,5.594,5.594h0a5.571,5.571,0,0,1-5.594,5.594Z" transform="translate(-427.163 -275.785)"/>
            </g>
          </g>
          <path id="Path_150" data-name="Path 150" d="M473.333,225.3H452.2V206.5h21.133a9.384,9.384,0,0,1,9.4,9.4h0a9.384,9.384,0,0,1-9.4,9.4Z" transform="translate(-358.138 -108.606)"/>
        </g>
      </g>
    </g>
  </g>
</svg>
