<svg xmlns="http://www.w3.org/2000/svg" viewBox="0 0 437 246">
  <defs>
    <style>
      .cls-1, .cls-8 {
        fill: #fff;
      }

      .cls-1 {
        stroke: #707070;
      }

      .cls-2 {
        fill: #6e6f71;
      }

      .cls-3 {
        fill: #f15b22;
      }

      .cls-4 {
        fill: #98cbb2;
      }

      .cls-5 {
        fill: #34bdc5;
      }

      .cls-6 {
        fill: #f2f2f2;
      }

      .cls-7 {
        fill: #a6a8ac;
      }

      .cls-9 {
        fill: #5e5f5f;
      }

      .cls-10 {
        fill: #b1e0e4;
      }

      .cls-11 {
        stroke: none;
      }

      .cls-12 {
        fill: none;
      }
    </style>
  </defs>
  <g id="Group_396" data-name="Group 396" transform="translate(-288 -2107)">
    <g id="Rectangle_81" data-name="Rectangle 81" class="cls-1" transform="translate(288 2107)">
      <rect class="cls-11" width="437" height="246"/>
      <rect class="cls-12" x="0.5" y="0.5" width="436" height="245"/>
    </g>
    <g id="Group_391" data-name="Group 391" transform="translate(383.264 2084.224)">
      <path id="Path_5" data-name="Path 5" class="cls-2" d="M72.7,84.5" transform="translate(-26.536 -26.356)"/>
      <path id="Path_14" data-name="Path 14" class="cls-2" d="M133.89,350.216,52.907,317.4,37,323.351l96.89,39.323,96.945-39.323L214.872,317.4Z" transform="translate(-10.692 -129.717)"/>
      <path id="Path_15" data-name="Path 15" class="cls-3" d="M133.89,255.733l73.029,27.309-73.029,29.59L60.861,283.1l73.029-27.365m0-9.233L37,282.764l96.945,39.323,96.945-39.323-97-36.264Z" transform="translate(-10.692 -98.252)"/>
      <path id="Path_16" data-name="Path 16" class="cls-4" d="M133.89,248.333l73.029,27.309-73.029,29.59L60.861,275.7l73.029-27.365m0-9.233L37,275.364l96.89,39.323,96.945-39.323L133.89,239.1Z" transform="translate(-10.692 -94.968)"/>
      <path id="Path_17" data-name="Path 17" class="cls-5" d="M133.89,240.533l73.084,27.309-73.029,29.59-73.084-29.59,73.029-27.309m0-9.233L37,267.564l96.945,39.323,96.945-39.323-97-36.264Z" transform="translate(-10.692 -91.506)"/>
      <path id="Path_18" data-name="Path 18" class="cls-6" d="M222.738,268.017l-81.372,34.651L64.5,268.017,151.934,243.6Z" transform="translate(-22.897 -96.965)"/>
      <path id="Path_19" data-name="Path 19" class="cls-7" d="M133.89,232.233l73.029,27.309L133.89,289.188,60.861,259.6l73.029-27.365m0-9.233L37,259.264l96.945,39.323,96.945-39.323L133.89,223Z" transform="translate(-10.692 -87.823)"/>
      <path id="Path_20" data-name="Path 20" class="cls-8" d="M293.479,134.66a5.731,5.731,0,0,0-6.174-5.173,5.657,5.657,0,0,0-5.4,5.951,2.622,2.622,0,0,1-5.228.334,10.8,10.8,0,0,1,10.29-11.291,10.91,10.91,0,0,1,11.736,9.9C298.818,135.716,293.59,136.05,293.479,134.66Z" transform="translate(-117.053 -44.089)"/>
      <path id="Path_21" data-name="Path 21" class="cls-2" d="M284.267,121.027a10.849,10.849,0,0,1,11.013,9.9c.056.779-1.557,1.224-3,1.224-1.168,0-2.169-.278-2.225-.89a5.761,5.761,0,0,0-5.784-5.228h-.389a5.657,5.657,0,0,0-5.4,5.951,2.549,2.549,0,0,1-2.447,2.67h-.167a2.563,2.563,0,0,1-2.614-2.336,10.8,10.8,0,0,1,10.29-11.291h.723m0-4.227a6.046,6.046,0,0,0-1,.056,15.328,15.328,0,0,0-10.623,5.173,14.462,14.462,0,0,0-3.671,10.679,6.825,6.825,0,0,0,6.9,6.285h.445a6.927,6.927,0,0,0,4.783-2.336,6.6,6.6,0,0,0,1.669-4.895,1.1,1.1,0,0,1,.334-.89,1.486,1.486,0,0,1,1.112-.5h.111a1.463,1.463,0,0,1,1.5,1.279c.167,2.225,1.947,4.839,6.507,4.839,1.5,0,4.227-.278,5.951-2.114a4.727,4.727,0,0,0,1.335-3.671,15.21,15.21,0,0,0-15.351-13.9Z" transform="translate(-113.625 -40.691)"/>
      <g id="Group_3" data-name="Group 3" transform="translate(82.317 104.197)">
        <path id="Path_22" data-name="Path 22" class="cls-8" d="M156.221,171.805V184.82H142.65l-4.95-4.505V167.3h13.571Z" transform="translate(-137.7 -167.3)"/>
      </g>
      <g id="Group_4" data-name="Group 4" transform="translate(73.474 122.329)">
        <path id="Path_23" data-name="Path 23" class="cls-9" d="M130.7,213.184v14.406h16.63l5.784-5.284V207.9h-16.63Z" transform="translate(-125.75 -203.45)"/>
        <path id="Path_24" data-name="Path 24" class="cls-8" d="M132.535,204.35h16.63v14.406l-5.784,5.284H126.75V209.633l5.784-5.284m-2.058-4.45-1.446,1.335-5.784,5.284-1.446,1.335V228.6h23.583l1.446-1.335,5.784-5.284,1.446-1.335V199.9H130.477Z" transform="translate(-121.8 -199.9)"/>
      </g>
      <g id="Group_5" data-name="Group 5" transform="translate(92.329 126.779)">
        <path id="Path_25" data-name="Path 25" class="cls-8" d="M157.869,207.9h6.341v5.451l-2.225,2H155.7V209.9Z" transform="translate(-155.7 -207.9)"/>
      </g>
      <g id="Group_6" data-name="Group 6" transform="translate(81.817 126.779)">
        <path id="Path_26" data-name="Path 26" class="cls-8" d="M136.8,212.405l4.895-4.505h4.728l-3.226,3v8.065h9.344l3.282-2.948v4.116l-4.95,4.505H136.8Z" transform="translate(-136.8 -207.9)"/>
      </g>
      <g id="Group_8" data-name="Group 8" transform="translate(55.063 76.332)">
        <path id="Path_27" data-name="Path 27" class="cls-10" d="M133.364,125.2H97.6v34.429l13.071,11.9H146.49V137.158Z" transform="translate(-92.65 -120.75)"/>
        <g id="Group_7" data-name="Group 7" transform="translate(12.292 11.402)">
          <path id="Path_28" data-name="Path 28" class="cls-5" d="M141.224,137.7l11.124,10.178v9.845l-7.4-6.73H124.816v19.356l7.342,6.73H121.924L110.8,166.956V137.7Z" transform="translate(-110.8 -137.7)"/>
        </g>
        <path id="Path_29" data-name="Path 29" class="cls-2" d="M88.7,117.2v40.714l15.963,14.572h42.772V131.772L131.472,117.2Zm4.95,4.45h35.819l13.071,11.958v34.373H106.721L93.65,156.023Z" transform="translate(-88.7 -117.2)"/>
      </g>
      <path id="Path_30" data-name="Path 30" class="cls-8" d="M219.823,145.584c0-13.9-9.511-25.808-23.138-31.091a2.706,2.706,0,0,0-.389-.167,44.112,44.112,0,0,0-15.24-2.725,42.9,42.9,0,0,0-13.46,2.114s-1.057.334-2.837.89c-8.4,2.67-28.922,10.623-39.045,15.462-15.8,7.509-20.969,19.189-22.3,30.813-1.39,18.633-.389,66.132-.389,66.132,0,4.783,4.45,8.677,9.9,8.677s9.9-3.893,9.9-8.677V208.1l9.4-4.895v14.461c0,4.672,15.073,4.672,15.073,0V190.079l4-.222V223.34c0,5.618,24.973,5.618,24.973,0V205.264c5.006.779,10.29-.167,10.29-2.837V184.073l3.282-1.057v25.863c0,4.95,20.357,4.95,20.357,0V167.943A31.8,31.8,0,0,0,219.823,145.584Z" transform="translate(-39.838 -38.383)"/>
      <path id="Path_31" data-name="Path 31" class="cls-2" d="M194.555,112.178l-.389-.167a3.534,3.534,0,0,0-.389-.111v5.618c12.348,5.228,20.3,16.185,20.3,28.144a28.961,28.961,0,0,1-8.788,20.468l-.779.779v39.824c-.723.556-3.337,1.391-7.509,1.391s-7.787-.834-8.454-1.391V179.478l-8.621,4.616v18.076c-.5.278-.946.779-3.337.779a16.9,16.9,0,0,1-2.892-.222l-3.059-.445V223.14c-.779.723-4.172,1.835-9.845,1.835s-9.066-1.168-9.845-1.835V187.1l-7.62.5v31.425c-.723.5-3.337,1.335-7.175,1.335-3.782,0-4.783-.779-5.506-1.279V200.614l-14.739,7.676v20.524c0,3.337-3.226,6.063-7.231,6.063s-7.231-2.725-7.231-6.062c0-.5-1-47.5.389-65.8,1.613-13.571,8.232-22.693,20.8-28.644,4.45-2.114,11.235-5.173,18.076-8.232-.556-1.669-1.168-3.393-1.78-5.061-7.064,3.115-13.961,6.341-18.633,8.51-14.183,6.73-21.97,17.465-23.805,32.871v.111c-1.39,18.521-.445,64.408-.389,66.3,0,6.229,5.618,11.291,12.57,11.291s12.57-5.061,12.57-11.291V211.515l4.06-2.113v10.123c0,3.838,4.616,6.118,12.348,6.118,6.118,0,7.676-.89,8.009-1.557.89,5.673,11.68,6.118,15.073,6.118,3.56,0,15.129-.5,15.129-6.841V208.178h.667c3.671,0,6.063-.779,7.62-1.891v.779c0,3.949,4.783,6.341,12.848,6.341s12.848-2.392,12.848-6.341V169.077a34.128,34.128,0,0,0,9.567-23.36C219.362,131.144,209.628,117.963,194.555,112.178Z" transform="translate(-36.762 -38.516)"/>
      <g id="Group_9" data-name="Group 9" transform="translate(89.27 145.078)">
        <path id="Path_32" data-name="Path 32" class="cls-2" d="M152.314,240.8h2.558v2.392a1.663,1.663,0,0,1-.612,1.279l-.056.056a2.224,2.224,0,0,1-1.446.556H150.2v-2.392a1.869,1.869,0,0,1,.612-1.335h0A2.193,2.193,0,0,1,152.314,240.8Z" transform="translate(-150.2 -240.8)"/>
      </g>
      <path id="Path_33" data-name="Path 33" class="cls-2" d="M116.95,264.931a3.928,3.928,0,1,1,0-7.787c15.574,0,28.255-11.068,28.255-24.751a4.489,4.489,0,0,1,8.9,0C154.048,250.3,137.418,264.931,116.95,264.931Z" transform="translate(-44.199 -90.263)"/>
      <path id="Path_34" data-name="Path 34" class="cls-2" d="M230.2,258.678v15.74a45.418,45.418,0,0,0,4.783-.111V257.4C234.983,257.343,230.2,258.678,230.2,258.678Z" transform="translate(-96.435 -103.088)"/>
      <g id="Group_12" data-name="Group 12" transform="translate(100.894 124.888)">
        <path id="Path_35" data-name="Path 35" class="cls-10" d="M211.145,218.255v20.969l-22.971,1.057L181.5,229.712V212.081l20.023-2.781Z" transform="translate(-175.716 -206.63)"/>
        <path id="Path_36" data-name="Path 36" class="cls-2" d="M197.241,209.951l6.73,6.73v18.466H184l-7.064-6.73V209.951h20.3m1.39-5.451H171.1v25.363l1.669,2.225,11.068,8.565h24.806V214.178l-1.669-1.613-6.73-6.452-1.613-1.613Z" transform="translate(-171.1 -204.5)"/>
        <g id="Group_10" data-name="Group 10" transform="translate(5.784 5.451)">
          <path id="Path_37" data-name="Path 37" class="cls-5" d="M188.842,214.3H181.5v6.674l2.559,2.447H191.4v-6.674Z" transform="translate(-181.5 -214.3)"/>
        </g>
        <g id="Group_11" data-name="Group 11" transform="translate(5.784 5.451)">
          <path id="Path_38" data-name="Path 38" class="cls-5" d="M203.692,219.806l-5.729-5.506H192.4l3.782,3.615v9.956h-10.9l-3.782-3.615v5.006l5.729,5.506h16.463Z" transform="translate(-181.5 -214.3)"/>
        </g>
      </g>
      <g id="Group_15" data-name="Group 15" transform="translate(100.95 73.384)">
        <path id="Path_39" data-name="Path 39" class="cls-10" d="M192.159,119.9h34.206v34.429l-12.514,11.9H179.7V131.858Z" transform="translate(-174.972 -115.45)"/>
        <g id="Group_13" data-name="Group 13" transform="translate(4.728 33.261)">
          <path id="Path_40" data-name="Path 40" class="cls-5" d="M179.7,176.205V189.22h12.9l4.728-4.505V171.7h-12.9Z" transform="translate(-179.7 -171.7)"/>
        </g>
        <g id="Group_14" data-name="Group 14" transform="translate(4.728 11.458)">
          <path id="Path_41" data-name="Path 41" class="cls-5" d="M190.323,132.5,179.7,142.623v9.845l7.008-6.73h19.244v19.356l-7.008,6.73h9.789L219.357,161.7V132.5Z" transform="translate(-179.7 -132.5)"/>
        </g>
        <path id="Path_42" data-name="Path 42" class="cls-2" d="M186.44,111.9,171.2,126.472v40.714h40.825l15.24-14.572V111.9H186.44Zm36.153,38.878-12.514,11.958H175.872V128.363l12.514-11.958h34.206Z" transform="translate(-171.2 -111.9)"/>
      </g>
      <path id="Path_43" data-name="Path 43" class="cls-2" d="M87.942,264.2a31.179,31.179,0,0,1-12.793,2.725,3.928,3.928,0,1,0,0,7.787,41.9,41.9,0,0,0,12.793-2Z" transform="translate(-25.648 -106.107)"/>
      <g id="Group_17" data-name="Group 17" transform="translate(76.533 70.325)">
        <path id="Path_44" data-name="Path 44" class="cls-8" d="M154.957,136.3V123.338l5.9-1.947,5.673-1.891,3-4.672-1.224-5.228-7.509,1.947L156.4,115l-3.949,1.335-5.729-1.724-6.619-4.06-5.506.779v6.563l3.727,3.059,6.73.222-.445,15.518Z" transform="translate(-130.54 -107.82)"/>
        <g id="Group_16" data-name="Group 16">
          <path id="Path_45" data-name="Path 45" class="cls-2" d="M156,122.474l.222-.612a.572.572,0,0,1,.612-.556l3.838-.556c1.613-.334,6.674-5.506,6.674-5.506V106.4H155.833s-7.342,4.616-8.51,5.618c-1.224-1-8.51-5.618-8.51-5.618H127.3v10.4l1.279,1.112,2,1.724,1.279,1.112h6.229a.609.609,0,0,1,.612.556l.111,9.622,4.116-1.557.056-8.009c0-2.336-2.169-4.283-4.839-4.338h-4.505l-2-1.724v-5.061h5.451l2,1.724v1.224c4.616.445,8.232,3.893,8.287,8.009.056-4.171,3.671-7.564,8.287-8.009v-1.224l2-1.724h5.451V115.3l-2,1.724h-4.505c-2.67.056-4.839,1.947-4.839,4.338l.111,6.73,4.338-1.557v-4Z" transform="translate(-127.3 -106.4)"/>
        </g>
      </g>
    </g>
  </g>
</svg>
