<?xml version="1.0" encoding="utf-8"?>
<!-- Generator: Adobe Illustrator 22.1.0, SVG Export Plug-In . SVG Version: 6.00 Build 0)  -->
<svg version="1.1" id="Layer_1" xmlns="http://www.w3.org/2000/svg" xmlns:xlink="http://www.w3.org/1999/xlink" x="0px" y="0px"
	 viewBox="0 0 437.4 245.8" style="enable-background:new 0 0 437.4 245.8;" xml:space="preserve">
<style type="text/css">
	.st0{fill:#F5B9CC;}
	.st1{fill:#FFFFFF;}
	.st2{fill:none;}
	.st3{fill:#BD202E;}
	.st4{opacity:0.5;fill:#8B1928;enable-background:new    ;}
	.st5{fill:#EA2127;}
	.st6{fill:#D4AEA2;}
	.st7{fill:#FDE2D6;}
	.st8{fill:#716558;}
	.st9{fill:#574844;}
	.st10{fill:#584844;}
	.st11{fill:#473B37;}
	.st12{fill:#352C28;}
	.st13{fill:#E5C3B7;}
	.st14{fill:#5AB5C5;}
	.st15{fill:none;stroke:#352C28;stroke-width:0.698;stroke-miterlimit:10;}
	.st16{opacity:0.49;fill:#221F1F;enable-background:new    ;}
	.st17{fill:#221F1F;}
	.st18{fill:#E6E6E6;}
	.st19{fill:#E7C5B8;}
	.st20{fill:#FDE3D7;}
	.st21{fill:#231F20;}
	.st22{fill:#E6E7E8;}
	.st23{fill:#EC1C24;}
</style>
<rect id="Rectangle_82" class="st0" width="436.4" height="245.8"/>
<path class="st1" d="M314.9,245.8c-19.6-30.5-53.8-50.7-92.8-50.7s-73.2,20.2-92.8,50.7H314.9z"/>
<rect x="1" class="st2" width="436.4" height="245.8"/>
<circle id="Ellipse_82" class="st3" cx="275" cy="127.8" r="41.3"/>
<path id="Path_556" class="st4" d="M316.4,127.8c0,22.8-18.5,41.3-41.3,41.3c-22.8,0-41.3-18.5-41.3-41.3
	C233.7,104.9,316.4,104.9,316.4,127.8z"/>
<ellipse id="Ellipse_83" class="st5" cx="275" cy="98.1" rx="21.1" ry="9"/>
<path id="Path_557" class="st6" d="M288,227.8V153c0-6.8-5.5-12.3-12.3-12.3h-1.3c-6.8,0-12.3,5.5-12.3,12.3v74.8
	c0,6.8,5.5,12.3,12.3,12.3h1.3C282.5,239.9,287.9,234.5,288,227.8z"/>
<path id="Path_558_1_" class="st7" d="M288,236.1v-74.8c0-6.8-5.5-12.3-12.3-12.3h-1.3c-6.8,0-12.3,5.5-12.3,12.3v74.8"/>
<circle id="Ellipse_84" class="st3" cx="166.3" cy="127.8" r="41.3"/>
<path id="Path_560" class="st4" d="M124.9,127.8c0,22.8,18.5,41.3,41.3,41.3s41.3-18.5,41.3-41.3
	C207.6,104.9,124.9,104.9,124.9,127.8z"/>
<ellipse id="Ellipse_85" class="st5" cx="166.3" cy="98.1" rx="21.1" ry="9"/>
<path id="Path_561" class="st6" d="M153.3,227.8V153c0-6.8,5.5-12.3,12.3-12.3h1.3c6.8,0,12.3,5.5,12.3,12.3v74.8
	c0,6.8-5.5,12.3-12.3,12.3h-1.3C158.8,240,153.4,234.5,153.3,227.8z"/>
<path id="Path_562_1_" class="st7" d="M153.3,236.1C153.3,236.1,153.3,236.1,153.3,236.1v-74.9c0-6.8,5.5-12.3,12.3-12.3h1.3
	c6.8,0,12.3,5.5,12.3,12.3v74.8"/>
<path id="Path_564" class="st8" d="M259,104"/>
<path id="Path_566_3_" class="st9" d="M288.8,163.3c-6.5-11.1-15.6-20.3-26.6-27l0,0c-7.2-4.3-17.3-12.3-17.3-21.4l-8.9,131
	l51.4,0.2c16.1-24.1,18-56.3,2.3-83c-6.5-11-15.6-20.3-26.5-27l0,0"/>
<path id="Path_566_1_" class="st10" d="M199.7,116.6c0,8.6-10.8,16.3-17.4,20.7l0,0c-37.2,21.9-49.5,69.8-27.6,106.9"/>
<path id="Path_568_3_" class="st11" d="M278.7,245.1c17.6-22.4,19.9-51.1,4.6-77.1c-5.9-10.1-14.3-18.6-24.3-24.8l0,0
	c-6.7-3.9-15.8-11.2-15.8-19.5"/>
<path id="Path_568_1_" class="st11" d="M201.6,123.7c0,7.9-9.9,14.9-15.9,18.9l0,0c-34,19.9-45.4,63.6-25.4,97.6"/>
<path id="Path_570_1_" class="st12" d="M265.5,245.8c31.8-18.6,32.3-49.6,13.7-81.3c-5.5-9.5-13.3-17.4-22.7-23.1l0,0l0,0
	c-6.4-3.8-10.3-10.7-10.3-18.2c-0.1-6.4,2.9-12.5,8-16.5c0.1,0,0.1-0.1,0.3-0.1c0.7-0.5,1.3-0.9,2.1-1.5v-0.3
	c22.4-19.2,25.1-52.9,5.9-75.3s-52.9-25.1-75.3-5.9s-25.1,52.9-5.9,75.3c2.1,2.4,4.4,4.7,6.8,6.7l0,0c0.1,0,0.1,0.1,0.1,0.1
	c0,0,0,0,0,0c0.7,0.5,1.2,0.9,1.9,1.5c8.8,7.7,9.7,21,2,29.8c-1.2,1.4-2.6,2.6-4.2,3.7l0,0c-31.8,18.6-42.4,59.4-23.8,91.2"/>
<path id="Path_572" class="st13" d="M179.2,59.4c-0.1-23.5,18.8-42.6,42.3-42.8c23.5-0.1,42.6,18.8,42.8,42.3c0,0.1,0,0.3,0,0.4
	C264.3,83,179.2,82.9,179.2,59.4z"/>
<path id="Path_574" class="st7" d="M180.4,55.4c0-22.8,18.5-41.3,41.3-41.3s41.3,18.5,41.3,41.3C263.1,78.2,180.4,78.3,180.4,55.4z"
	/>
<circle id="Ellipse_86" class="st14" cx="242.7" cy="38" r="4.5"/>
<circle id="Ellipse_87" class="st14" cx="200.9" cy="38" r="4.5"/>
<circle id="Ellipse_88" class="st14" cx="242.7" cy="38" r="4.5"/>
<circle id="Ellipse_89" class="st14" cx="200.9" cy="38" r="4.5"/>
<path id="Path_580" class="st15" d="M212.2,37"/>
<path id="Path_582_1_" class="st16" d="M299.9,204.9c0-14-12.4,35.3-78.3,35.3c-70.1,0.1-78-49.6-78-35.3"/>
<path id="Path_586" class="st17" d="M221.9,171c-2,1.9-2,5-0.1,7c0,0,0.1,0.1,0.1,0.1l14.3,14.3c1.9,2,5,2,7,0.1
	c0,0,0.1-0.1,0.1-0.1l25.2-25.2c0.3-0.1,0.4-0.4,0.7-0.5c5.9-5.9,5.9-15.5,0-21.4c-5.9-5.9-15.5-5.9-21.4,0l-0.1,0.1
	c-0.1,0.1-0.4,0.3-0.5,0.4L221.9,171z"/>
<path id="Path_587" class="st17" d="M235.6,166.7c-1.2-1.1-3-1.1-4.1,0l-8.3,8.3c-1.1,1.2-1.1,3,0,4.1l24.2,24.2l0.4,0.4
	c3.5,3.4,9.1,3.3,12.4-0.2c3.3-3.4,3.3-8.8,0-12.2l-0.1-0.1l-0.3-0.3L235.6,166.7z"/>
<path id="Path_589" class="st17" d="M221.5,171c2,1.9,2,5,0.1,7c0,0-0.1,0.1-0.1,0.1l-14.3,14.3c-1.9,2-5,2-7,0.1
	c0,0-0.1-0.1-0.1-0.1L175,167.3c-0.3-0.1-0.4-0.4-0.7-0.5c-5.9-5.9-5.9-15.5,0-21.4s15.5-5.9,21.4,0l0.1,0.1
	c0.1,0.1,0.4,0.3,0.5,0.4L221.5,171z"/>
<path id="Path_590" class="st17" d="M208,166.7c1.2-1.1,3-1.1,4.1,0l8.3,8.3c1.1,1.2,1.1,3,0,4.1l-24.2,24.2l-0.4,0.4
	c-3.5,3.4-9.1,3.2-12.4-0.3c-3.2-3.4-3.2-8.7,0-12.1l0.1-0.1l0.3-0.3L208,166.7z"/>
<path id="Path_592" class="st1" d="M221.9,157.3c-1.7,1.8-1.7,4.6,0,6.4l13,13c1.8,1.7,4.6,1.7,6.4,0l22.7-22.7l0.5-0.5
	c5.3-5.4,5.3-14.1-0.1-19.4c-5.3-5.3-14-5.3-19.3,0l-0.1,0.1l-0.4,0.4L221.9,157.3z"/>
<path id="Path_593" class="st1" d="M234.2,153.5c-1-1-2.6-1.1-3.7-0.1c0,0-0.1,0.1-0.1,0.1L223,161c-1,1-1.1,2.6-0.1,3.7
	c0,0,0.1,0.1,0.1,0.1l21.9,21.9c0.1,0.1,0.1,0.3,0.3,0.4c3.1,3.1,8.1,3.2,11.2,0.1c3.1-3.1,3.2-8.1,0.1-11.2c0,0-0.1-0.1-0.1-0.1
	l-0.1-0.1l-0.3-0.3L234.2,153.5z"/>
<path id="Path_595" class="st1" d="M221.7,157.3c1.7,1.8,1.7,4.6,0,6.4l-13,13c-1.8,1.7-4.6,1.7-6.4,0l-22.7-22.7l-0.5-0.5
	c-5.4-5.3-5.4-14-0.1-19.4c5.3-5.4,14-5.4,19.4-0.1c0,0,0.1,0.1,0.1,0.1l0.1,0.1l0.4,0.4L221.7,157.3z"/>
<path id="Path_596" class="st1" d="M209.3,153.5c1-1,2.6-1.1,3.7-0.1c0,0,0.1,0.1,0.1,0.1l7.5,7.5c1,1,1.1,2.6,0.1,3.7
	c0,0-0.1,0.1-0.1,0.1l-21.9,21.9c-0.1,0.1-0.1,0.3-0.3,0.4c-3.1,3.1-8.1,3.2-11.2,0.1c-3.1-3.1-3.2-8.1-0.1-11.2
	c0,0,0.1-0.1,0.1-0.1l0.1-0.1l0.3-0.3L209.3,153.5z"/>
<path id="Path_598" class="st18" d="M221.9,157.5c-1.6,1.6-1.6,4.3,0,5.9l11.8,11.8c1.6,1.6,4.3,1.6,5.9,0l20.6-20.6
	c0.1-0.1,0.4-0.3,0.5-0.5c4.8-4.8,4.8-12.7,0-17.5c-4.8-4.8-12.7-4.8-17.5,0l-0.1,0.1l-0.4,0.4L221.9,157.5z"/>
<path id="Path_599" class="st18" d="M233,154c-0.9-0.9-2.4-0.9-3.3,0c0,0,0,0,0,0l-6.8,6.8c-0.9,0.9-0.9,2.4,0,3.3c0,0,0,0,0,0
	l19.9,19.9c0.1,0.1,0.1,0.3,0.3,0.3c2.8,2.8,7.4,2.8,10.2-0.1c2.8-2.8,2.8-7.3,0-10.1h-0.1c0-0.1-0.1-0.1-0.3-0.3L233,154z"/>
<path id="Path_601" class="st18" d="M221.7,157.5c1.6,1.6,1.6,4.3,0,5.9l-11.8,11.8c-1.6,1.6-4.3,1.6-5.9,0l-20.6-20.7
	c-0.1-0.1-0.4-0.3-0.5-0.5c-4.8-4.8-4.8-12.7,0-17.5s12.7-4.8,17.5,0l0.1,0.1l0.4,0.4L221.7,157.5z"/>
<path id="Path_602" class="st18" d="M210.6,154c0.9-0.9,2.4-0.9,3.3,0c0,0,0,0,0,0l6.8,6.8c0.9,0.9,0.9,2.4,0,3.3c0,0,0,0,0,0
	l-19.9,19.9c-0.1,0.1-0.1,0.3-0.3,0.3c-2.8,2.8-7.4,2.8-10.2-0.1c-2.8-2.8-2.8-7.3,0-10.1h0.1c0-0.1,0.1-0.1,0.3-0.3L210.6,154z"/>
<g id="Group_464">
	<path id="Path_658" class="st1" d="M221.8,111L216,98.1h11.4L221.8,111z"/>
	<path id="Path_659" class="st1" d="M204.8,111V98.1H216L204.8,111z"/>
	<path id="Path_660" class="st1" d="M238.6,111l-11.2-12.8h11.2V111z"/>
	<path id="Path_661" class="st1" d="M238.6,98.1h-33.8v-10c0,0,3.6-4.4,17.5-4.4c14.2,0,16.3,4.4,16.3,4.4L238.6,98.1L238.6,98.1z"
		/>
	<circle id="Ellipse_90" class="st1" cx="238.8" cy="115" r="2.3"/>
	<circle id="Ellipse_91" class="st1" cx="221.8" cy="115" r="2.3"/>
	<circle id="Ellipse_92" class="st1" cx="205.1" cy="115" r="2.3"/>
</g>
<path id="Path_663" class="st8" d="M258.3,108"/>
<path id="Path_665_1_" class="st9" d="M199.4,114.8c0,8.6-10.8,16.2-17.4,20.7l0,0c-37.1,21.8-49.5,69.6-27.7,106.7"/>
<path id="Path_666_2_" class="st11" d="M248.2,245.9h30.5c16.6-22.3,19.3-54.1,4.3-79.5c-5.9-10.1-14.3-18.6-24.3-24.8l0,0
	c-6.7-3.9-15.8-11.2-15.8-19.5L248.2,245.9z"/>
<path id="Path_666_3_" class="st11" d="M201.3,122.1c0,7.9-9.9,14.9-15.9,18.9l0,0c-34,19.9-45.4,63.6-25.4,97.6"/>
<path id="Path_667_2_" class="st12" d="M265.5,245.8c13.9-12.5,22.2-30.4,22.2-49.5c0.2-23.1-11.7-44.6-31.4-56.6l0,0
	c-6.4-3.8-10.3-10.7-10.3-18.2c0-6.4,2.9-12.5,8-16.5c0.1,0,0.1-0.1,0.3-0.1c0.7-0.5,1.3-0.9,2.1-1.5v-0.3
	c22.3-19.1,24.9-52.7,5.8-75.1C252,16.3,237.2,9.5,221.7,9.5c-29.4,0-53.5,23.7-53.5,53.1c0,16,7.2,31.3,19.7,41.3l0,0
	c0.1,0,0.1,0.1,0.1,0.1c0,0,0,0,0,0c0.7,0.5,1.2,0.9,1.9,1.5c8.8,7.7,9.7,21,2,29.8c-1.2,1.4-2.6,2.6-4.2,3.7l0,0
	c-31.6,18.5-42.2,59.2-23.7,90.8c4.1,7,7.1,11.1,13,15.9"/>
<path id="Path_668" class="st19" d="M179,57.8c0-23.4,19-42.4,42.4-42.4c23.4,0,42.4,19,42.4,42.4c0,0,0,0,0,0
	C263.8,81.3,179,81.3,179,57.8z"/>
<path id="Path_669" class="st20" d="M180.2,54c0-22.8,18.5-41.3,41.3-41.3s41.3,18.5,41.3,41.3C262.9,76.8,180.2,76.7,180.2,54z"/>
<path id="Path_671" class="st21" d="M221.7,169.3c-2,1.9-2,5-0.1,7c0,0,0.1,0.1,0.1,0.1l14.3,14.3c1.9,2,5,2,7,0.1
	c0,0,0.1-0.1,0.1-0.1l25-25c0.3-0.1,0.4-0.4,0.7-0.5c5.9-5.9,5.9-15.5,0-21.4s-15.5-5.9-21.4,0l-0.1,0.1c-0.1,0.1-0.4,0.3-0.5,0.4
	L221.7,169.3z"/>
<path id="Path_672" class="st21" d="M235.2,165c-1.2-1.1-3-1.1-4.1,0l-8.3,8.3c-1.1,1.2-1.1,3,0,4.1l24.2,24.2l0.4,0.4
	c3.4,3.4,8.9,3.4,12.3,0c3.4-3.4,3.4-8.9,0-12.3l-0.1-0.1l-0.3-0.3L235.2,165z"/>
<path id="Path_673" class="st21" d="M221.3,169.3c2,1.9,2,5,0.1,7c0,0-0.1,0.1-0.1,0.1l-14.3,14.3c-1.9,2-5,2-7,0.1
	c0,0-0.1-0.1-0.1-0.1l-25-25c-0.3-0.1-0.4-0.4-0.7-0.5c-5.9-5.9-5.9-15.5,0-21.4s15.5-5.9,21.4,0l0.1,0.1c0.1,0.1,0.4,0.3,0.5,0.4
	L221.3,169.3z"/>
<path id="Path_674" class="st21" d="M207.7,165c1.2-1.1,3-1.1,4.1,0l8.3,8.3c1.1,1.2,1.1,3,0,4.1L196,201.7l-0.4,0.4
	c-3.4,3.4-8.9,3.4-12.3,0c-3.4-3.4-3.4-8.9,0-12.3l0.1-0.1l0.3-0.3L207.7,165z"/>
<path id="Path_675" class="st1" d="M221.7,155.5c-1.7,1.8-1.7,4.6,0,6.4l13,13c1.8,1.7,4.6,1.7,6.4,0l22.7-22.7l0.5-0.5
	c5.4-5.3,5.4-14,0.1-19.4c-5.3-5.4-14-5.4-19.4-0.1c0,0-0.1,0.1-0.1,0.1l-0.1,0.1l-0.4,0.4L221.7,155.5z"/>
<path id="Path_676" class="st1" d="M233.8,151.8c-1-1-2.6-1.1-3.7-0.1c0,0-0.1,0.1-0.1,0.1l-7.5,7.5c-1,1-1.1,2.6-0.1,3.7
	c0,0,0.1,0.1,0.1,0.1l21.9,21.9c0.1,0.1,0.1,0.3,0.3,0.4c3.1,3.1,8.1,3.2,11.2,0.1c3.1-3.1,3.2-8.1,0.1-11.2c0,0-0.1-0.1-0.1-0.1
	l-0.1-0.1l-0.3-0.3L233.8,151.8z"/>
<path id="Path_677" class="st1" d="M221.3,155.5c1.7,1.8,1.7,4.6,0,6.4l-13,13c-1.8,1.7-4.6,1.7-6.4,0l-22.7-22.7l-0.5-0.5
	c-5.3-5.4-5.3-14.1,0.1-19.4c5.3-5.3,14-5.3,19.3,0l0.1,0.1l0.4,0.4L221.3,155.5z"/>
<path id="Path_678" class="st1" d="M209.1,151.8c1-1,2.6-1.1,3.7-0.1c0,0,0.1,0.1,0.1,0.1l7.5,7.5c1,1,1.1,2.6,0.1,3.7
	c0,0-0.1,0.1-0.1,0.1l-21.9,21.9c-0.1,0.1-0.1,0.3-0.3,0.4c-3.1,3.1-8.1,3.2-11.2,0.1s-3.2-8.1-0.1-11.2c0,0,0.1-0.1,0.1-0.1
	l0.1-0.1l0.3-0.3L209.1,151.8z"/>
<path id="Path_679" class="st22" d="M221.7,155.8c-1.6,1.6-1.6,4.1,0,5.7c0,0,0,0,0,0l11.8,11.8c1.6,1.6,4.1,1.6,5.7,0c0,0,0,0,0,0
	l20.6-20.6c0.1-0.1,0.4-0.3,0.5-0.5c4.8-4.8,4.8-12.7,0-17.5c-4.8-4.8-12.7-4.8-17.5,0l-0.1,0.1l-0.4,0.4L221.7,155.8z"/>
<path id="Path_680" class="st22" d="M232.8,152.4c-0.9-0.9-2.4-0.9-3.3,0c0,0,0,0,0,0l-6.8,6.8c-0.9,0.9-0.9,2.4,0,3.3c0,0,0,0,0,0
	l19.8,19.8c0.1,0.1,0.1,0.3,0.3,0.3c2.8,2.8,7.3,2.9,10.2,0.1c2.8-2.8,2.9-7.3,0.1-10.2c0,0,0,0-0.1-0.1h-0.1c0-0.1-0.1-0.1-0.3-0.3
	L232.8,152.4z"/>
<path id="Path_681" class="st22" d="M221.3,155.8c1.6,1.6,1.6,4.1,0,5.7c0,0,0,0,0,0l-11.8,11.8c-1.6,1.6-4.1,1.6-5.7,0c0,0,0,0,0,0
	l-20.6-20.6c-0.1-0.1-0.4-0.3-0.5-0.5c-4.8-4.8-4.8-12.7,0-17.5c4.8-4.8,12.7-4.8,17.5,0l0,0l0.1,0.1l0.4,0.4L221.3,155.8z"/>
<path id="Path_682" class="st22" d="M210.1,152.4c0.9-0.9,2.4-0.9,3.3,0c0,0,0,0,0,0l6.8,6.8c0.9,0.9,0.9,2.4,0,3.3c0,0,0,0,0,0
	l-19.8,19.8c-0.1,0.1-0.1,0.3-0.3,0.3c-2.8,2.8-7.4,2.8-10.2-0.1c-2.8-2.8-2.8-7.3,0-10.1h0.1c0-0.1,0.1-0.1,0.3-0.3L210.1,152.4z"
	/>
<path id="Path_683" class="st14" d="M192.5,51L192.5,51c-1-1-1.1-2.6-0.1-3.7c0,0,0.1-0.1,0.1-0.1l9.8-9.8c1-1,2.6-1.1,3.7-0.1
	c0,0,0.1,0.1,0.1,0.1l0,0c1,1,1.1,2.6,0.1,3.7c0,0-0.1,0.1-0.1,0.1l-9.8,9.8C195.2,52,193.6,52,192.5,51z"/>
<path id="Path_684" class="st14" d="M205.9,51L205.9,51c-1,1-2.6,1.1-3.7,0.1c0,0-0.1-0.1-0.1-0.1l-9.6-9.8c-1-1-1.1-2.6-0.1-3.7
	c0,0,0.1-0.1,0.1-0.1l0,0c1-1,2.6-1.1,3.7-0.1c0,0,0.1,0.1,0.1,0.1l9.8,9.8C207,48.4,206.9,50,205.9,51z"/>
<path id="Path_685" class="st23" d="M233.3,51.3L233.3,51.3c-1-1-1.1-2.6-0.1-3.7c0,0,0.1-0.1,0.1-0.1l9.8-9.8c1-1,2.6-1.1,3.7-0.1
	c0,0,0.1,0.1,0.1,0.1l0,0c1,1,1.1,2.6,0.1,3.7c0,0-0.1,0.1-0.1,0.1l-9.8,9.8C236,52.2,234.4,52.2,233.3,51.3z"/>
<path id="Path_686" class="st23" d="M246.8,51.3L246.8,51.3c-1,1-2.6,1.1-3.7,0.1c0,0-0.1-0.1-0.1-0.1l-9.8-9.8
	c-1-1-1.1-2.6-0.1-3.7c0,0,0.1-0.1,0.1-0.1l0,0c1-1,2.6-1.1,3.7-0.1c0,0,0.1,0.1,0.1,0.1l9.8,9.8C247.7,48.6,247.7,50.2,246.8,51.3z
	"/>
<path id="Path_687" class="st23" d="M240,60.4c-8.7,0-15.8-7.1-15.8-15.8s7.1-15.8,15.8-15.8c8.7,0,15.8,7.1,15.8,15.8
	C255.8,53.3,248.7,60.4,240,60.4z M240,34.7c-5.5,0-9.9,4.4-9.9,9.9s4.4,9.9,9.9,9.9s9.9-4.4,9.9-9.9c0,0,0,0,0,0
	C249.9,39.1,245.5,34.7,240,34.7C240,34.7,240,34.7,240,34.7z"/>
<path id="Path_688" class="st21" d="M221.4,55.4c13.9,0,25.2,11.3,25.2,25.2s-11.3,25.2-25.2,25.2s-25.2-11.3-25.2-25.2
	C196.2,66.7,207.5,55.5,221.4,55.4C221.4,55.4,221.4,55.4,221.4,55.4z M221.4,100.4c10.9,0,19.8-8.9,19.8-19.8s-8.9-19.8-19.8-19.8
	s-19.8,8.9-19.8,19.8l0,0C201.6,91.5,210.4,100.4,221.4,100.4C221.3,100.4,221.4,100.4,221.4,100.4z"/>
<path id="Path_689" class="st1" d="M221.4,46.7c13.9,0,25.2,11.3,25.2,25.2S235.3,97,221.4,97s-25.2-11.3-25.2-25.2
	C196.2,58,207.5,46.8,221.4,46.7C221.4,46.7,221.4,46.7,221.4,46.7z M221.4,91.7c10.9,0,19.8-8.9,19.8-19.8s-8.9-19.8-19.8-19.8
	s-19.8,8.9-19.8,19.8v0C201.6,82.8,210.4,91.7,221.4,91.7C221.3,91.7,221.4,91.7,221.4,91.7z"/>
<path id="Path_690" class="st23" d="M114.6,40.9L114.6,40.9c3.3-3.2,8.6-3.2,11.9,0L158,72.3c3.2,3.3,3.2,8.6,0,11.9l0,0
	c-3.3,3.2-8.6,3.2-11.9,0l-31.4-31.4c-3.3-3.2-3.4-8.5-0.1-11.8C114.5,40.9,114.6,40.9,114.6,40.9z"/>
<path id="Path_691" class="st23" d="M114.6,84.2L114.6,84.2c-3.2-3.3-3.2-8.6,0-11.9l31.3-31.4c3.3-3.2,8.6-3.2,11.9,0l0,0
	c3.2,3.3,3.2,8.6,0,11.9l-31.4,31.4C123.1,87.4,117.9,87.4,114.6,84.2z"/>
<path id="Path_692" class="st23" d="M282.8,157L282.8,157c3.8-3.8,10-3.9,13.8-0.1c0,0,0.1,0.1,0.1,0.1l36.7,36.7
	c3.8,3.8,3.9,10,0.1,13.8c0,0-0.1,0.1-0.1,0.1l0,0c-3.8,3.8-10,3.9-13.8,0.1c0,0-0.1-0.1-0.1-0.1l-36.7-36.7
	C279,167.1,278.9,160.9,282.8,157C282.7,157,282.8,157,282.8,157z"/>
<path id="Path_693" class="st23" d="M282.8,207.6L282.8,207.6c-3.8-3.8-3.9-10-0.1-13.8c0,0,0.1-0.1,0.1-0.1l36.7-36.7
	c3.8-3.8,10-3.9,13.8-0.1c0,0,0.1,0.1,0.1,0.1l0,0c3.8,3.8,3.9,10,0.1,13.8c0,0-0.1,0.1-0.1,0.1l-36.7,36.7
	C292.9,211.4,286.7,211.4,282.8,207.6C282.9,207.6,282.8,207.6,282.8,207.6z"/>
<path id="Path_694" class="st23" d="M280.4,17.2L280.4,17.2c1.8-1.7,4.7-1.7,6.6,0l17.3,17.3c1.7,1.8,1.7,4.7,0,6.6l0,0
	c-1.8,1.7-4.7,1.7-6.6,0l-17.3-17.3C278.7,21.9,278.7,19,280.4,17.2z"/>
<path id="Path_695" class="st23" d="M280.4,40.9L280.4,40.9c-1.7-1.8-1.7-4.7,0-6.6l17.3-17.1c1.8-1.7,4.7-1.7,6.6,0l0,0
	c1.7,1.8,1.7,4.7,0,6.6L286.9,41C285.1,42.8,282.2,42.7,280.4,40.9z"/>
<path class="st23" d="M130.7,219.7l-19.2,19.2c-2,2-3.4,4.4-4.1,6.9h44l2.7-2.7l2.7,2.7H201c-0.8-2.5-2.1-4.8-4.1-6.8l-19.3-19.3
	l19.3-19.3c6.4-6.5,6.4-16.9,0-23.4c-6.5-6.4-16.9-6.4-23.4,0l-19.3,19.3L135,177.1c-6.5-6.4-16.9-6.4-23.4,0
	c-6.4,6.5-6.4,16.9,0,23.4L130.7,219.7z"/>
<path class="st12" d="M177,245.8"/>
</svg>
