<svg xmlns="http://www.w3.org/2000/svg" viewBox="0 0 437 245.81">
  <defs>
    <style>
      .cls-1 {
        stroke: #fff;
        stroke-miterlimit: 10;
        stroke-width: 3px;
      }

      .cls-2 {
        fill: #fff;
      }

      .cls-14, .cls-3, .cls-8 {
        fill: #00ff14;
      }

      .cls-3, .cls-4, .cls-6, .cls-7 {
        font-size: 23px;
      }

      .cls-10, .cls-11, .cls-12, .cls-13, .cls-14, .cls-15, .cls-16, .cls-17, .cls-18, .cls-19, .cls-20, .cls-3, .cls-4, .cls-5, .cls-6, .cls-7, .cls-8, .cls-9 {
        font-family: Roboto-Regular, Roboto;
      }

      .cls-10, .cls-16, .cls-20, .cls-4, .cls-9 {
        fill: #00ebff;
      }

      .cls-12, .cls-15, .cls-5, .cls-7 {
        fill: #ff7f00;
      }

      .cls-5, .cls-8 {
        font-size: 17px;
      }

      .cls-11, .cls-13, .cls-17, .cls-6 {
        fill: #ff00e2;
      }

      .cls-9 {
        font-size: 26px;
      }

      .cls-10, .cls-13 {
        font-size: 43px;
      }

      .cls-11, .cls-18 {
        font-size: 33px;
      }

      .cls-12 {
        font-size: 18px;
      }

      .cls-14, .cls-15, .cls-16, .cls-17, .cls-19, .cls-20 {
        font-size: 2px;
      }

      .cls-18, .cls-19 {
        fill: red;
      }

      .cls-19, .cls-20 {
        stroke: #6e6f71;
      }
    </style>
  </defs>
  <g id="Group_483" data-name="Group 483" transform="translate(-288 -587)">
    <rect id="Rectangle_82" data-name="Rectangle 82" width="437" height="245.81" transform="translate(288 587)"/>
    <path id="Path_488" data-name="Path 488" class="cls-1" d="M1.5,43.138v82.807l70.829,41.438,70.76-41.438V43.138L72.329,1.7Z" transform="translate(433.954 626.042)"/>
    <g id="Group_332" data-name="Group 332" transform="translate(477.992 725.191)">
      <path id="Path_489" data-name="Path 489" class="cls-2" d="M66.968,142.8v13.882c0,5.249,2.318,7.459,5.385,7.459,3.409,0,5.658-2.279,5.658-7.459V142.8h3v13.675c0,7.183-3.749,10.152-8.794,10.152-4.772,0-8.317-2.763-8.317-10.014V142.8Z" transform="translate(-63.9 -142.8)"/>
      <path id="Path_490" data-name="Path 490" class="cls-2" d="M109.979,180.5v1.727H92.8V180.5Z" transform="translate(-73.099 -154.463)"/>
      <path id="Path_491" data-name="Path 491" class="cls-2" d="M124.768,142.8v13.882c0,5.249,2.318,7.459,5.385,7.459,3.409,0,5.658-2.279,5.658-7.459V142.8h3v13.675c0,7.183-3.749,10.152-8.794,10.152-4.772,0-8.317-2.763-8.317-10.014V142.8Z" transform="translate(-82.298 -142.8)"/>
    </g>
    <text id="X" class="cls-3" transform="translate(381.022 698.285)"><tspan x="-7.21" y="0">X</tspan></text>
    <text id="X-2" data-name="X" class="cls-4" transform="translate(636.135 680.882)"><tspan x="-7.21" y="0">X</tspan></text>
    <text id="X-3" data-name="X" class="cls-5" transform="translate(586.864 627.402)"><tspan x="-5.329" y="0">X</tspan></text>
    <text id="X-4" data-name="X" class="cls-6" transform="translate(610.738 786.757)"><tspan x="-7.21" y="0">X</tspan></text>
    <text id="X-5" data-name="X" class="cls-7" transform="translate(340.074 800.034)"><tspan x="-7.21" y="0">X</tspan></text>
    <text id="X-6" data-name="X" class="cls-8" transform="translate(691.177 738.707)"><tspan x="-5.329" y="0">X</tspan></text>
    <text id="_" data-name="+" class="cls-9" transform="translate(437.488 646.426)"><tspan x="-7.37" y="0">+</tspan></text>
    <text id="_2" data-name="+" class="cls-10" transform="translate(313.958 751.243)"><tspan x="-12.188" y="0">+</tspan></text>
    <text id="_3" data-name="+" class="cls-11" transform="translate(324.231 629.527)"><tspan x="-9.354" y="0">+</tspan></text>
    <text id="_4" data-name="+" class="cls-12" transform="translate(677.13 806.073)"><tspan x="-5.102" y="0">+</tspan></text>
    <text id="_5" data-name="+" class="cls-13" transform="translate(693.925 637.561)"><tspan x="-12.188" y="0">+</tspan></text>
    <text id="_." data-name="." class="cls-14" transform="translate(603.463 649.612)"><tspan x="-0.263" y="0">.</tspan></text>
    <text id="_.-2" data-name="." class="cls-14" transform="translate(400.188 759.187)"><tspan x="-0.263" y="0">.</tspan></text>
    <text id="_.-3" data-name="." class="cls-15" transform="translate(710.653 664.78)"><tspan x="-0.263" y="0">.</tspan></text>
    <text id="_.-4" data-name="." class="cls-16" transform="translate(658.995 777.232)"><tspan x="-0.263" y="0">.</tspan></text>
    <text id="_.-5" data-name="." class="cls-17" transform="translate(609.145 802.337)"><tspan x="-0.263" y="0">.</tspan></text>
    <text id="_6" data-name="+" class="cls-18" transform="translate(442.012 807.58)"><tspan x="-9.354" y="0">+</tspan></text>
    <text id="_.-6" data-name="." class="cls-19" transform="translate(436.866 700.084)"><tspan x="-0.263" y="0">.</tspan></text>
    <text id="_.-7" data-name="." class="cls-20" transform="translate(586.416 700.084)"><tspan x="-0.263" y="0">.</tspan></text>
  </g>
</svg>
