<svg id="Group_80" data-name="Group 80" xmlns="http://www.w3.org/2000/svg" viewBox="0 0 141 74.164">
  <defs>
    <style>
      .cls-1 {
        fill: #00ebff;
      }
    </style>
  </defs>
  <path id="Path_1" data-name="Path 1" class="cls-1" d="M121.594,17.653V0H15.9V17.653H121.594V35.194h17.542V17.653Z" transform="translate(1.753)"/>
  <rect id="Rectangle_4" data-name="Rectangle 4" class="cls-1" width="17.653" height="17.653" transform="translate(0 17.653)"/>
  <path id="Path_2" data-name="Path 2" class="cls-1" d="M88.042,52.753H17.653V35.1H0V52.753H17.653V70.294H123.347V52.753H88.042Z" transform="translate(0 3.869)"/>
  <rect id="Rectangle_5" data-name="Rectangle 5" class="cls-1" width="17.653" height="17.653" transform="translate(123.347 38.969)"/>
  <path id="Path_3" data-name="Path 3" class="cls-1" d="M34.144,38.347a7.915,7.915,0,0,1,7.661-5,7.753,7.753,0,0,1,7.661,5.218,2.738,2.738,0,0,0,2.554,1.776,2.775,2.775,0,0,0,1.554-.444,2.907,2.907,0,0,0,1-3.442A13.313,13.313,0,0,0,41.694,27.8a13.355,13.355,0,0,0-12.879,8.882,2.745,2.745,0,0,0,2.22,3.664A3.051,3.051,0,0,0,34.144,38.347Z" transform="translate(3.16 3.065)"/>
  <path id="Path_4" data-name="Path 4" class="cls-1" d="M80.144,38.347a7.915,7.915,0,0,1,7.661-5,7.753,7.753,0,0,1,7.661,5.218,2.738,2.738,0,0,0,2.554,1.776,2.775,2.775,0,0,0,1.554-.444,2.907,2.907,0,0,0,1-3.442,13.841,13.841,0,0,0-25.757.222,2.745,2.745,0,0,0,2.22,3.664A3.051,3.051,0,0,0,80.144,38.347Z" transform="translate(8.23 3.065)"/>
</svg>
