<?xml version="1.0" encoding="utf-8"?>
<!-- Generator: Adobe Illustrator 22.1.0, SVG Export Plug-In . SVG Version: 6.00 Build 0)  -->
<svg version="1.1" id="Layer_1" xmlns="http://www.w3.org/2000/svg" xmlns:xlink="http://www.w3.org/1999/xlink" x="0px" y="0px"
	 viewBox="0 0 1920 1080" style="enable-background:new 0 0 1920 1080;" xml:space="preserve">
<style type="text/css">
	.st0{fill:#EC1C24;}
	.st1{fill:none;stroke:#EC1C24;stroke-width:2.8958;stroke-miterlimit:10;}
	.st2{fill:none;stroke:#EC1C24;stroke-width:2.8667;stroke-linecap:square;stroke-miterlimit:10;}
	.st3{fill:none;stroke:#EC1C24;stroke-width:2.798;stroke-linecap:square;stroke-miterlimit:10;}
	.st4{fill:none;stroke:#EC1C24;stroke-width:2.8074;stroke-miterlimit:10;}
	.st5{fill:none;stroke:#EC1C24;stroke-width:2.8324;stroke-miterlimit:10;}
</style>
<g>
	<circle class="st0" cx="1356.5" cy="390.2" r="17.3"/>
	<path class="st0" d="M1356.5,447.9c-31.8,0-57.7-25.9-57.7-57.7s25.9-57.7,57.7-57.7c31.8,0,57.7,25.9,57.7,57.7
		S1388.3,447.9,1356.5,447.9z M1356.5,355c-19.4,0-35.2,15.8-35.2,35.2s15.8,35.2,35.2,35.2c19.4,0,35.2-15.8,35.2-35.2
		S1375.9,355,1356.5,355z"/>
</g>
<g>
	<circle class="st0" cx="1355.8" cy="997.6" r="8.5"/>
</g>
<g>
	<g>
		<circle class="st0" cx="1356.5" cy="655.5" r="17.3"/>
		<path class="st0" d="M1298.8,655.5c0-31.8,25.9-57.7,57.7-57.7c31.8,0,57.7,25.9,57.7,57.7c0,31.8-25.9,57.7-57.7,57.7
			C1324.7,713.2,1298.8,687.3,1298.8,655.5z M1391.7,655.5c0-19.4-15.8-35.2-35.2-35.2c-19.4,0-35.2,15.8-35.2,35.2
			c0,19.4,15.8,35.2,35.2,35.2C1375.9,690.7,1391.7,674.9,1391.7,655.5z"/>
	</g>
	<g>
		<circle class="st0" cx="1223.8" cy="522.8" r="17.3"/>
		<path class="st0" d="M1281.5,522.8c0,31.8-25.9,57.7-57.7,57.7s-57.7-25.9-57.7-57.7c0-31.8,25.9-57.7,57.7-57.7
			S1281.5,491,1281.5,522.8z M1188.7,522.8c0,19.4,15.8,35.2,35.2,35.2s35.2-15.8,35.2-35.2c0-19.4-15.8-35.2-35.2-35.2
			S1188.7,503.4,1188.7,522.8z"/>
	</g>
</g>
<g>
	<circle class="st0" cx="1020.6" cy="997.6" r="8.5"/>
</g>
<g>
	<circle class="st0" cx="761" cy="997.6" r="8.5"/>
</g>
<g>
	<g>
		<circle class="st0" cx="1621.9" cy="390.2" r="17.3"/>
		<path class="st0" d="M1621.9,447.9c-31.8,0-57.7-25.9-57.7-57.7s25.9-57.7,57.7-57.7c31.8,0,57.7,25.9,57.7,57.7
			S1653.7,447.9,1621.9,447.9z M1621.9,355c-19.4,0-35.2,15.8-35.2,35.2s15.8,35.2,35.2,35.2c19.4,0,35.2-15.8,35.2-35.2
			S1641.3,355,1621.9,355z"/>
	</g>
	<g>
		<circle class="st0" cx="1489.2" cy="522.8" r="17.3"/>
		<path class="st0" d="M1489.2,580.5c-31.8,0-57.7-25.9-57.7-57.7s25.9-57.7,57.7-57.7c31.8,0,57.7,25.9,57.7,57.7
			S1521,580.5,1489.2,580.5z M1489.2,487.7c-19.4,0-35.2,15.8-35.2,35.2c0,19.4,15.8,35.2,35.2,35.2c19.4,0,35.2-15.8,35.2-35.2
			C1524.4,503.4,1508.6,487.7,1489.2,487.7z"/>
	</g>
</g>
<g>
	<circle class="st0" cx="1753.8" cy="797" r="8.5"/>
</g>
<line class="st1" x1="1354.6" y1="388.2" x2="761.1" y2="998.1"/>
<line class="st2" x1="1353.2" y1="383.6" x2="1750.1" y2="791.4"/>
<g>
	<g>
		<circle class="st0" cx="1358.9" cy="120.3" r="8.5"/>
	</g>
	<line class="st3" x1="1359" y1="121.2" x2="1620.5" y2="389.9"/>
</g>
<line class="st4" x1="1353.5" y1="655.9" x2="1022.3" y2="996.2"/>
<line class="st5" x1="1355.6" y1="390.2" x2="1355.6" y2="999.1"/>
</svg>
