<svg id="Group_484" data-name="Group 484" xmlns="http://www.w3.org/2000/svg" viewBox="0 0 1920 1081">
  <defs>
    <style>
      .cls-1 {
        fill: #00ff14;
      }

      .cls-1, .cls-2, .cls-3, .cls-4, .cls-9 {
        font-size: 50px;
      }

      .cls-1, .cls-2, .cls-3, .cls-4, .cls-5, .cls-6, .cls-7, .cls-8, .cls-9 {
        font-family: Roboto-Regular, Roboto;
      }

      .cls-2, .cls-5 {
        fill: #00ebff;
      }

      .cls-3, .cls-8 {
        fill: #ff7f00;
      }

      .cls-4, .cls-7 {
        fill: #ff00e2;
      }

      .cls-5, .cls-6, .cls-7, .cls-8 {
        font-size: 60px;
      }

      .cls-6, .cls-9 {
        fill: red;
      }

      .cls-10 {
        stroke: #fff;
        stroke-miterlimit: 10;
        stroke-width: 3px;
      }

      .cls-11 {
        fill: #fff;
      }
    </style>
  </defs>
  <rect id="Rectangle_46" data-name="Rectangle 46" width="1920" height="1081"/>
  <text id="X" class="cls-1" transform="translate(485 511)"><tspan x="-15.674" y="0">X</tspan></text>
  <text id="X-2" data-name="X" class="cls-2" transform="translate(1545 336)"><tspan x="-15.674" y="0">X</tspan></text>
  <text id="X-3" data-name="X" class="cls-3" transform="translate(1174 194)"><tspan x="-15.674" y="0">X</tspan></text>
  <text id="X-4" data-name="X" class="cls-4" transform="translate(1190 777)"><tspan x="-15.674" y="0">X</tspan></text>
  <text id="X-5" data-name="X" class="cls-3" transform="translate(359 835)"><tspan x="-15.674" y="0">X</tspan></text>
  <text id="X-6" data-name="X" class="cls-1" transform="translate(1755 616)"><tspan x="-15.674" y="0">X</tspan></text>
  <text id="_" data-name="+" class="cls-5" transform="translate(701 257)"><tspan x="-17.007" y="0">+</tspan></text>
  <text id="_2" data-name="+" class="cls-6" transform="translate(1456 613)"><tspan x="-17.007" y="0">+</tspan></text>
  <text id="_3" data-name="+" class="cls-5" transform="translate(160 734)"><tspan x="-17.007" y="0">+</tspan></text>
  <text id="_4" data-name="+" class="cls-7" transform="translate(262 162)"><tspan x="-17.007" y="0">+</tspan></text>
  <text id="_5" data-name="+" class="cls-8" transform="translate(1698 934)"><tspan x="-17.007" y="0">+</tspan></text>
  <text id="_6" data-name="+" class="cls-7" transform="translate(1754 133)"><tspan x="-17.007" y="0">+</tspan></text>
  <text id="_." data-name="." class="cls-1" transform="translate(1339 318)"><tspan x="-6.58" y="0">.</tspan></text>
  <text id="_.-2" data-name="." class="cls-1" transform="translate(552 737)"><tspan x="-6.58" y="0">.</tspan></text>
  <text id="_.-3" data-name="." class="cls-9" transform="translate(559 152)"><tspan x="-6.58" y="0">.</tspan></text>
  <text id="_.-4" data-name="." class="cls-3" transform="translate(1754 376)"><tspan x="-6.58" y="0">.</tspan></text>
  <text id="_.-5" data-name="." class="cls-9" transform="translate(1510 152)"><tspan x="-6.58" y="0">.</tspan></text>
  <text id="_.-6" data-name="." class="cls-2" transform="translate(1554 806)"><tspan x="-6.58" y="0">.</tspan></text>
  <text id="_.-7" data-name="." class="cls-4" transform="translate(1361 902)"><tspan x="-6.58" y="0">.</tspan></text>
  <text id="_7" data-name="+" class="cls-6" transform="translate(718 879)"><tspan x="-17.007" y="0">+</tspan></text>
  <text id="_.-8" data-name="." class="cls-9" transform="translate(694 511)"><tspan x="-6.58" y="0">.</tspan></text>
  <text id="_.-9" data-name="." class="cls-2" transform="translate(1273 511)"><tspan x="-6.58" y="0">.</tspan></text>
  <g id="Group_333" data-name="Group 333" transform="translate(802.96 366.7)">
    <path id="Path_488" data-name="Path 488" class="cls-10" d="M1.5,88.011V260.489L150.962,346.8,300.28,260.489V88.011L150.962,1.7Z" transform="translate(0 0)"/>
    <g id="Group_332" data-name="Group 332" transform="translate(91.263 204.675)">
      <path id="Path_489" data-name="Path 489" class="cls-11" d="M70.373,142.8v28.914c0,10.933,4.891,15.536,11.364,15.536,7.193,0,11.94-4.747,11.94-15.536V142.8h6.329v28.483c0,14.961-7.912,21.146-18.557,21.146-10.07,0-17.55-5.754-17.55-20.858V142.8Z" transform="translate(-63.9 -142.8)"/>
      <path id="Path_490" data-name="Path 490" class="cls-11" d="M129.051,180.5v3.6H92.8v-3.6Z" transform="translate(-51.227 -126.268)"/>
      <path id="Path_491" data-name="Path 491" class="cls-11" d="M128.173,142.8v28.914c0,10.933,4.891,15.536,11.364,15.536,7.193,0,11.94-4.747,11.94-15.536V142.8h6.329v28.483c0,14.961-7.912,21.146-18.557,21.146-10.07,0-17.55-5.754-17.55-20.858V142.8Z" transform="translate(-38.554 -142.8)"/>
    </g>
  </g>
</svg>
