<svg xmlns="http://www.w3.org/2000/svg" viewBox="0 0 301.78 348.565">
  <defs>
    <style>
      .cls-1 {
        stroke: #fff;
        stroke-miterlimit: 10;
        stroke-width: 3px;
      }

      .cls-2 {
        fill: #fff;
      }
    </style>
  </defs>
  <g id="Group_333" data-name="Group 333" transform="translate(0 0.032)">
    <path id="Path_488" data-name="Path 488" class="cls-1" d="M1.5,88.011V260.489L150.962,346.8,300.28,260.489V88.011L150.962,1.7Z" transform="translate(0 0)"/>
    <g id="Group_332" data-name="Group 332" transform="translate(91.263 204.675)">
      <path id="Path_489" data-name="Path 489" class="cls-2" d="M70.373,142.8v28.914c0,10.933,4.891,15.536,11.364,15.536,7.193,0,11.94-4.747,11.94-15.536V142.8h6.329v28.483c0,14.961-7.912,21.146-18.557,21.146-10.07,0-17.55-5.754-17.55-20.858V142.8Z" transform="translate(-63.9 -142.8)"/>
      <path id="Path_490" data-name="Path 490" class="cls-2" d="M129.051,180.5v3.6H92.8v-3.6Z" transform="translate(-51.227 -126.268)"/>
      <path id="Path_491" data-name="Path 491" class="cls-2" d="M128.173,142.8v28.914c0,10.933,4.891,15.536,11.364,15.536,7.193,0,11.94-4.747,11.94-15.536V142.8h6.329v28.483c0,14.961-7.912,21.146-18.557,21.146-10.07,0-17.55-5.754-17.55-20.858V142.8Z" transform="translate(-38.554 -142.8)"/>
    </g>
  </g>
</svg>
