<svg xmlns="http://www.w3.org/2000/svg" viewBox="0 0 607.199 600.041">
  <defs>
    <style>
      .cls-1 {
        fill: #6e6f71;
      }

      .cls-2 {
        fill: #808184;
        font-size: 38px;
        font-family: Helvetica;
      }

      .cls-3 {
        fill: #f15b22;
      }

      .cls-4 {
        fill: #98cbb2;
      }

      .cls-5 {
        fill: #34bdc5;
      }

      .cls-6 {
        fill: #f2f2f2;
      }

      .cls-7 {
        fill: #a6a8ac;
      }

      .cls-8 {
        fill: #fff;
      }

      .cls-9 {
        fill: #5e5f5f;
      }

      .cls-10 {
        fill: #b1e0e4;
      }
    </style>
  </defs>
  <g id="Group_71" data-name="Group 71" transform="translate(0 -2.725)">
    <path id="Path_5" data-name="Path 5" class="cls-1" d="M72.7,84.5" transform="translate(37.438 42.111)"/>
    <g id="Group_2" data-name="Group 2" transform="translate(0 16.928)">
      <path id="Path_6" data-name="Path 6" class="cls-1" d="M302.67,94.88c-7.878.151-48.176-.151-48.176-.151l51.357-63.477L236.769,31.1V48.371H270.4s-23.028,27.724-40.6,50.448c2.878,3.787,12.726,12.726,12.726,12.726h59.993Z" transform="translate(118.34 -2.316)"/>
      <path id="Path_7" data-name="Path 7" class="cls-1" d="M109.532,100.12l-82.869,1.818L101.654,12.1H12.877c0,6.969.3,13.483.3,19.695H61.2S19.089,80.88,0,106.786c3.03,4.242,13.635,13.786,13.635,13.786s70.295,0,88.474-.151a43.155,43.155,0,0,0,16.362-2.727" transform="translate(0 -12.1)"/>
      <path id="Path_8" data-name="Path 8" class="cls-1" d="M83.489,31.1a39.389,39.389,0,1,0,39.389,39.389A39.311,39.311,0,0,0,83.489,31.1Zm0,59.538a20,20,0,1,1,20-20A19.979,19.979,0,0,1,83.489,90.638Z" transform="translate(22.71 -2.316)"/>
      <path id="Path_9" data-name="Path 9" class="cls-1" d="M131.689,31.1a39.389,39.389,0,1,0,39.389,39.389A39.311,39.311,0,0,0,131.689,31.1Zm0,59.538a20,20,0,1,1,20-20A19.979,19.979,0,0,1,131.689,90.638Z" transform="translate(47.532 -2.316)"/>
      <path id="Path_10" data-name="Path 10" class="cls-1" d="M199,60.987c-1.666-2.272-1.818-3.636.152-5.908,11.211-13.18,22.119-26.36,33.026-39.541.757-.909,1.363-1.818,2.575-3.333-7.272,0-13.786.151-20.452,0-2.878-.151-4.7.909-6.666,3.03-8.938,10.453-18.028,20.907-27.118,31.208-1.06,1.212-2.272,2.424-3.939,4.393V12.659H152.8a14.965,14.965,0,0,0-4.545.454c-3.03.909-6.211,1.666-8.938,3.181-7.272,3.939-11.362,11.665-11.514,19.846V42.5h17.725a65.61,65.61,0,0,1,.3-6.817c.454-2.121,1.969-6.06,5.454-6.514a36.5,36.5,0,0,1,5.757,0c.151.3.151,88.323.151,90.9-.151,8.787-14.392,6.666-14.392,6.666h0v18.028s15,1.06,21.816-2.272c8.938-4.242,11.817-9.544,11.968-18.786,0-4.7.151-8.787.151-12.423,0-2.424.3-18.937,0-27.572-.151-5,1.363-8.635,5.605-11.211.909,1.212,1.969,2.575,2.878,3.787,7.423,9.847,32.269,45.752,32.269,45.752h25.3C241.574,120.374,203.4,67.2,199,60.987Z" transform="translate(65.813 -12.053)"/>
      <path id="Path_11" data-name="Path 11" class="cls-1" d="M442.218,127.455h0s-3.03-.454-3.484-.454c-6.514-.909-9.7-4.09-9.7-11.211v-8.332c-.151-16.968.152-28.481-.606-45.449-.606-12.726-4.848-22.725-15.453-27.875a30.294,30.294,0,0,0-38.329,10c-3.939-7.423-11.362-11.514-18.786-12.574a1.135,1.135,0,0,1-.757-.152,30.191,30.191,0,0,0-7.423-.3h-.3a2.578,2.578,0,0,0-1.06.151,40.991,40.991,0,0,0-10.3,2.575l-7.878-3.03h-9.09V44.132c-.152,14.7-.152,21.513-.152,36.511v32.269h20V66.856a.557.557,0,0,1,.151-.454v-.454c0-7.878,5.757-14.089,12.877-14.089a12.446,12.446,0,0,1,10.756,6.514,5.382,5.382,0,0,1,.606,1.363c.151.3.3.757.454,1.06s.152.606.3.909c.151.606.3,1.363.454,1.969,0,.454.152.909.152,1.363,0,.3.151.606.151.909V66.1c0,.454.151.757.151,1.06v45.752H384.65v-7.726c0-14.847-.151-23.937.151-38.783a18.64,18.64,0,0,1,.3-3.03c1.06-6.666,6.211-11.665,12.574-11.665,7.12,0,12.877,6.363,12.877,14.089v.757c.152,2.878,0,7.878,0,10.6,0,16.816-.152,25.3,0,42.268.152,10,2.878,18.331,11.514,22.876,6.666,3.484,20.907,4.393,20.907,4.393v-.151Z" transform="translate(164.223 -2.47)"/>
      <path id="Path_12" data-name="Path 12" class="cls-1" d="M204.921,45.9l31.814.151v4.7a188.52,188.52,0,0,0-20.755,1.06,30.039,30.039,0,0,0-27.572,31.511c.606,15,14.241,27.875,30.451,28.33,8.181.3,16.21.151,24.391.151,8.029,0,13.483-5.3,13.635-12.877.151-5.605,0-11.211,0-16.816h0V60.29c-.3-16.059-13.938-29.087-30.905-29.39h-.757l-20.3.152Zm32.42,49.388H221.888c-7.726-.3-13.938-6.363-13.938-13.786,0-7.726,6.514-13.938,14.7-13.938h9.393a5.052,5.052,0,0,1,5.151,4.848V95.286Z" transform="translate(97.012 -2.419)"/>
      <path id="Path_13" data-name="Path 13" class="cls-1" d="M287.521,46l31.814.151v4.7a188.523,188.523,0,0,0-20.755,1.06,30.039,30.039,0,0,0-27.572,31.511c.606,15,14.241,27.875,30.451,28.33,8.181.3,16.21.151,24.391.151,8.029,0,13.483-5.3,13.635-12.877.152-5.605,0-11.211,0-16.816h0V60.393c-.3-16.21-13.938-29.239-30.905-29.693h-.757l-20.452.454Zm32.42,36.662V90.39a4.954,4.954,0,0,1-5.151,4.848H305.4c-8.029,0-14.7-6.211-14.7-13.938,0-7.423,6.211-13.483,13.938-13.786h15.453v15.15Z" transform="translate(139.549 -2.522)"/>
    </g>
    <text id="magical_animals" data-name="magical animals" class="cls-2" transform="translate(303.77 31.725)"><tspan x="0" y="0">magical animals</tspan></text>
    <path id="Path_14" data-name="Path 14" class="cls-1" d="M300.908,406.783,80.328,317.4,37,333.61,300.908,440.718,564.966,333.61l-43.48-16.21Z" transform="translate(19.054 162.048)"/>
    <path id="Path_15" data-name="Path 15" class="cls-3" d="M300.908,271.648l198.915,74.385-198.915,80.6L101.992,346.185l198.915-74.536m0-25.148L37,345.276,301.059,452.384,565.118,345.276,300.908,246.5Z" transform="translate(19.054 125.536)"/>
    <path id="Path_16" data-name="Path 16" class="cls-4" d="M300.908,264.248l198.915,74.385-198.915,80.6L101.992,338.785l198.915-74.536m0-25.148L37,337.876,300.908,444.984,564.966,337.876,300.908,239.1Z" transform="translate(19.054 121.726)"/>
    <path id="Path_17" data-name="Path 17" class="cls-5" d="M300.908,256.448l199.067,74.385-198.915,80.6-199.067-80.6,198.915-74.385m0-25.148L37,330.076,301.059,437.184,565.118,330.076,300.908,231.3Z" transform="translate(19.054 117.709)"/>
    <path id="Path_18" data-name="Path 18" class="cls-6" d="M495.509,310.107,273.869,404.49,64.5,310.107,302.653,243.6Z" transform="translate(33.215 124.043)"/>
    <path id="Path_19" data-name="Path 19" class="cls-7" d="M300.908,248.148l198.915,74.385L300.908,403.281l-198.915-80.6,198.915-74.536m0-25.148L37,321.776,301.059,428.884,565.118,321.776,300.908,223Z" transform="translate(19.054 113.435)"/>
    <path id="Path_20" data-name="Path 20" class="cls-8" d="M322.473,152.246c-.606-8.332-8.181-14.7-16.816-14.089-8.787.606-15.3,7.878-14.7,16.21a7.142,7.142,0,0,1-14.241.909c-1.061-15.907,11.514-29.693,28.027-30.754s30.905,11.059,31.966,26.966C337.017,155.124,322.776,156.033,322.473,152.246Z" transform="translate(142.47 62.688)"/>
    <path id="Path_21" data-name="Path 21" class="cls-1" d="M310.7,128.314c15.756,0,28.936,11.665,30,26.966.152,2.121-4.242,3.333-8.181,3.333-3.181,0-5.908-.757-6.06-2.424A15.692,15.692,0,0,0,310.7,141.948h-1.061c-8.787.606-15.3,7.878-14.7,16.21a6.943,6.943,0,0,1-6.666,7.272h-.454a6.982,6.982,0,0,1-7.12-6.363c-1.06-15.907,11.514-29.693,28.027-30.754H310.7m0-11.514a16.464,16.464,0,0,0-2.727.152,41.752,41.752,0,0,0-28.936,14.089,39.391,39.391,0,0,0-10,29.087c.606,9.7,8.938,17.119,18.786,17.119h1.212a18.868,18.868,0,0,0,13.029-6.363,17.973,17.973,0,0,0,4.545-13.332,2.982,2.982,0,0,1,.909-2.424,4.048,4.048,0,0,1,3.03-1.363h.3a3.985,3.985,0,0,1,4.09,3.484c.454,6.06,5.3,13.18,17.725,13.18,4.09,0,11.514-.757,16.21-5.757a12.875,12.875,0,0,0,3.636-10C350.993,133.313,332.662,116.8,310.7,116.8Z" transform="translate(138.493 58.745)"/>
    <g id="Group_3" data-name="Group 3" transform="translate(208.611 252.051)">
      <path id="Path_22" data-name="Path 22" class="cls-8" d="M188.148,179.571v35.45H151.183L137.7,202.75V167.3h36.965Z" transform="translate(-137.7 -167.3)"/>
    </g>
    <g id="Group_4" data-name="Group 4" transform="translate(184.523 301.439)">
      <path id="Path_23" data-name="Path 23" class="cls-9" d="M130.7,222.292V261.53H176l15.756-14.392V207.9h-45.3Z" transform="translate(-117.217 -195.78)"/>
      <path id="Path_24" data-name="Path 24" class="cls-8" d="M151.039,212.02h45.3v39.238L180.581,265.65h-45.3V226.412l15.756-14.392m-5.605-12.12-3.939,3.636-15.756,14.392-3.939,3.636v56.508h64.235l3.939-3.636,15.756-14.392,3.939-3.636V199.9H145.434Z" transform="translate(-121.8 -199.9)"/>
    </g>
    <g id="Group_5" data-name="Group 5" transform="translate(235.881 313.559)">
      <path id="Path_25" data-name="Path 25" class="cls-8" d="M161.608,207.9h17.271v14.847l-6.06,5.454H155.7V213.354Z" transform="translate(-155.7 -207.9)"/>
    </g>
    <g id="Group_6" data-name="Group 6" transform="translate(207.248 313.559)">
      <path id="Path_26" data-name="Path 26" class="cls-8" d="M136.8,220.171,150.132,207.9h12.877l-8.787,8.181v21.967h25.451l8.938-8.029v11.211L175.129,253.5H136.8Z" transform="translate(-136.8 -207.9)"/>
    </g>
    <g id="Group_8" data-name="Group 8" transform="translate(134.378 176.151)">
      <path id="Path_27" data-name="Path 27" class="cls-10" d="M195.012,125.2H97.6v93.777l35.6,32.42h97.564V157.772Z" transform="translate(-84.117 -113.08)"/>
      <g id="Group_7" data-name="Group 7" transform="translate(33.481 31.057)">
        <path id="Path_28" data-name="Path 28" class="cls-5" d="M193.669,137.7l30.3,27.724v26.815l-20.149-18.331H148.977v52.721l20,18.331H141.1l-30.3-27.572V137.7Z" transform="translate(-110.8 -137.7)"/>
      </g>
      <path id="Path_29" data-name="Path 29" class="cls-1" d="M88.7,117.2V228.1l43.48,39.692h116.5v-110.9L205.2,117.2Zm13.483,12.12h97.564l35.6,32.572v93.625H137.785l-35.6-32.572Z" transform="translate(-88.7 -117.2)"/>
    </g>
    <path id="Path_30" data-name="Path 30" class="cls-8" d="M421.766,204.165c0-37.874-25.906-70.295-63.023-84.687a7.382,7.382,0,0,0-1.06-.454,120.153,120.153,0,0,0-41.51-7.423,116.848,116.848,0,0,0-36.662,5.757s-2.878.909-7.726,2.424c-22.876,7.272-78.778,28.936-106.351,42.116-43.025,20.452-57.114,52.266-60.75,83.929-3.787,50.751-1.06,180.13-1.06,180.13,0,13.029,12.12,23.633,26.966,23.633s26.966-10.6,26.966-23.633V374.447l25.6-13.332V400.5c0,12.726,41.056,12.726,41.056,0V325.362l10.908-.606v91.2c0,15.3,68.022,15.3,68.022,0V366.721c13.635,2.121,28.027-.454,28.027-7.726V309l8.938-2.878v70.446c0,13.483,55.448,13.483,55.448,0v-111.5C411.767,248.7,421.766,227.344,421.766,204.165Z" transform="translate(52.873 56.067)"/>
    <path id="Path_31" data-name="Path 31" class="cls-1" d="M364.888,112.657l-1.06-.454a9.657,9.657,0,0,0-1.06-.3v15.3c33.632,14.241,55.3,44.086,55.3,76.657,0,20.452-8.484,40.3-23.936,55.751l-2.121,2.121V370.2c-1.969,1.515-9.09,3.787-20.452,3.787s-21.21-2.272-23.027-3.787V295.969l-23.482,12.574v49.237c-1.363.757-2.575,2.121-9.09,2.121a46.014,46.014,0,0,1-7.878-.606l-8.332-1.212v56.811c-2.121,1.969-11.362,5-26.815,5s-24.694-3.181-26.815-5v-98.17l-20.755,1.363v85.6c-1.969,1.363-9.09,3.636-19.543,3.636-10.3,0-13.029-2.121-15-3.484v-50.3l-40.147,20.907v55.9c0,9.09-8.787,16.513-19.695,16.513s-19.695-7.423-19.695-16.513c0-1.363-2.727-129.378,1.06-179.221,4.393-36.965,22.422-61.811,56.66-78.021,12.12-5.757,30.6-14.089,49.236-22.422-1.515-4.545-3.181-9.241-4.848-13.786-19.24,8.484-38.026,17.271-50.751,23.179-38.632,18.331-59.841,47.57-64.841,89.535v.3c-3.787,50.448-1.212,175.433-1.06,180.584,0,16.968,15.3,30.754,34.238,30.754s34.238-13.786,34.238-30.754V383.231l11.059-5.757v27.572c0,10.453,12.574,16.665,33.632,16.665,16.665,0,20.907-2.424,21.816-4.242,2.424,15.453,31.814,16.665,41.056,16.665,9.7,0,41.207-1.363,41.207-18.634V374.141H315.8c10,0,16.513-2.121,20.755-5.151v2.121c0,10.756,13.029,17.271,35,17.271s35-6.514,35-17.271V267.639c16.816-17.877,26.057-40.45,26.057-63.629C432.455,164.318,405.943,128.413,364.888,112.657Z" transform="translate(49.305 56.222)"/>
    <g id="Group_9" data-name="Group 9" transform="translate(227.548 363.401)">
      <path id="Path_32" data-name="Path 32" class="cls-1" d="M155.957,240.8h6.969v6.514a4.53,4.53,0,0,1-1.666,3.484l-.152.152a6.057,6.057,0,0,1-3.939,1.515H150.2v-6.514a5.091,5.091,0,0,1,1.666-3.636h0A5.972,5.972,0,0,1,155.957,240.8Z" transform="translate(-150.2 -240.8)"/>
    </g>
    <path id="Path_33" data-name="Path 33" class="cls-1" d="M124.62,327.73c-6.666,0-12.12-4.7-12.12-10.6s5.454-10.6,12.12-10.6c42.419,0,76.96-30.148,76.96-67.416,0-5.908,5.454-10.6,12.12-10.6s12.12,4.7,12.12,10.6C225.668,287.887,180.371,327.73,124.62,327.73Z" transform="translate(57.934 116.267)"/>
    <path id="Path_34" data-name="Path 34" class="cls-1" d="M230.2,260.886V303.76a123.708,123.708,0,0,0,13.029-.3V257.4C243.229,257.25,230.2,260.886,230.2,260.886Z" transform="translate(118.546 131.148)"/>
    <g id="Group_12" data-name="Group 12" transform="translate(259.211 308.408)">
      <path id="Path_35" data-name="Path 35" class="cls-10" d="M262.248,233.691v57.114l-62.568,2.878L181.5,264.9V216.875l54.539-7.575Z" transform="translate(-165.744 -202.028)"/>
      <path id="Path_36" data-name="Path 36" class="cls-1" d="M242.3,219.347l18.331,18.331v50.3H206.247l-19.24-18.331v-50.3h55.3m3.787-14.847H171.1v69.083l4.545,6.06,30.148,23.331H273.36V230.86l-4.545-4.393-18.331-17.574-4.393-4.393Z" transform="translate(-171.1 -204.5)"/>
      <g id="Group_10" data-name="Group 10" transform="translate(15.756 14.847)">
        <path id="Path_37" data-name="Path 37" class="cls-5" d="M201.5,214.3h-20v18.18l6.969,6.666h20v-18.18Z" transform="translate(-181.5 -214.3)"/>
      </g>
      <g id="Group_11" data-name="Group 11" transform="translate(15.756 14.847)">
        <path id="Path_38" data-name="Path 38" class="cls-5" d="M241.947,229.3l-15.6-15h-15.15l10.3,9.847v27.118H191.8l-10.3-9.847v13.635l15.6,15h44.843Z" transform="translate(-181.5 -214.3)"/>
      </g>
    </g>
    <g id="Group_15" data-name="Group 15" transform="translate(259.363 168.122)">
      <path id="Path_39" data-name="Path 39" class="cls-10" d="M213.635,119.9h93.171v93.777L272.719,246.1H179.7V152.472Z" transform="translate(-166.823 -107.78)"/>
      <g id="Group_13" data-name="Group 13" transform="translate(12.877 90.595)">
        <path id="Path_40" data-name="Path 40" class="cls-5" d="M179.7,183.971v35.45h35.147l12.877-12.271V171.7H192.577Z" transform="translate(-179.7 -171.7)"/>
      </g>
      <g id="Group_14" data-name="Group 14" transform="translate(12.877 31.208)">
        <path id="Path_41" data-name="Path 41" class="cls-5" d="M208.636,132.5,179.7,160.072v26.815l19.089-18.331h52.418v52.721l-19.089,18.331h26.663l28.936-27.572V132.5Z" transform="translate(-179.7 -132.5)"/>
      </g>
      <path id="Path_42" data-name="Path 42" class="cls-1" d="M212.71,111.9,171.2,151.592v110.9H282.4l41.51-39.692V111.9H212.71Zm98.473,105.9L277.1,250.368H183.926V156.743l34.087-32.572h93.171Z" transform="translate(-171.2 -111.9)"/>
    </g>
    <path id="Path_43" data-name="Path 43" class="cls-1" d="M117.664,264.2a84.923,84.923,0,0,1-34.844,7.423c-6.666,0-12.12,4.7-12.12,10.6s5.454,10.6,12.12,10.6a114.14,114.14,0,0,0,34.844-5.454Z" transform="translate(36.408 134.651)"/>
    <g id="Group_17" data-name="Group 17" transform="translate(192.855 159.789)">
      <path id="Path_44" data-name="Path 44" class="cls-8" d="M190.048,182.318v-35.3l16.059-5.3,15.453-5.151,8.181-12.726L226.407,109.6l-20.452,5.3L193.987,124.3l-10.756,3.636-15.6-4.7L149.6,112.175l-15,2.121v17.877l10.15,8.332,18.331.606-1.212,42.268Z" transform="translate(-123.541 -104.752)"/>
      <g id="Group_16" data-name="Group 16">
        <path id="Path_45" data-name="Path 45" class="cls-1" d="M205.472,150.183l.606-1.666A1.557,1.557,0,0,1,207.745,147l10.453-1.515c4.393-.909,18.18-15,18.18-15V106.4h-31.36s-20,12.574-23.179,15.3c-3.333-2.727-23.179-15.3-23.179-15.3H127.3v28.33l3.484,3.03,5.454,4.7,3.484,3.03H156.69A1.659,1.659,0,0,1,158.357,147l.3,26.209,11.211-4.242.152-21.816c0-6.363-5.908-11.665-13.18-11.817H144.571l-5.454-4.7V116.853h14.847l5.454,4.7v3.333c12.574,1.212,22.422,10.6,22.573,21.816.151-11.362,10-20.6,22.573-21.816V121.55l5.454-4.7h14.847v13.786l-5.454,4.7H207.139c-7.272.151-13.18,5.3-13.18,11.817l.3,18.331,11.817-4.242V150.334Z" transform="translate(-127.3 -106.4)"/>
      </g>
    </g>
  </g>
</svg>
